<svg xmlns="http://www.w3.org/2000/svg" xml:space="preserve" viewBox="0 0 500 500"><g><path fill="#5faa61" d="M458 371.2c-138.4 25.3-275.4 25.8-411 0 30.4-46.7 44-96.5 40.9-149.5 112.4 23.4 221.1 23.9 326 0-9.2 46.5 9.7 97 44.1 149.5"/><path d="M457.3 368.8C351.9 388 244.1 393.2 137.4 382c-30.1-3.1-60-7.6-89.7-13.2.5 1.2 1 2.4 1.5 3.7 29.1-45.1 44.2-97 41.2-150.7-1.1.8-2.1 1.6-3.2 2.4 84.7 17.6 172 23 257.9 12.2 23.3-2.9 46.5-7 69.4-12.2l-3.1-3.1c-10.3 54.1 15.6 107.2 44.4 151.4 1.7 2.7 6.1.2 4.3-2.5-27.9-42.9-53.9-94.9-43.9-147.6.4-1.9-1.1-3.5-3.1-3.1-81.9 18.5-166.5 22-249.9 12.2-25.1-2.9-50-7.1-74.8-12.2-1.5-.3-3.3.7-3.2 2.4 2.9 53-11.8 103.8-40.5 148.2-.8 1.3-.1 3.4 1.5 3.7 106 20.1 214.5 24.3 321.8 13 30.3-3.2 60.5-7.6 90.5-13 3.3-.5 2-5.3-1.2-4.8"/><path fill="#fff" d="M38.5 351.2c-7.4-9-6.1-22.5 2.9-30l83.2-68.6c9-7.4 22.5-6.1 30 2.9 7.4 9 6.1 22.5-2.9 30L68.4 354c-9 7.5-22.5 6.2-29.9-2.8"/><path d="M40.3 349.4c-6.7-8.1-4.7-19.8 2.9-26.4l3.3-2.7c7.2-6 14.5-11.9 21.7-17.9l52.8-43.5c7.6-6.2 15.8-11.7 26-6.3 9 4.8 12.4 16.4 7.6 25.4-1.6 3-4 5.1-6.5 7.2-16.3 13.5-32.7 26.9-49 40.4-9 7.4-18.1 14.9-27.1 22.3-1.7 1.4-3.4 2.9-5.2 4.3-8.4 6.4-19.6 5.1-26.5-2.8-2.1-2.4-5.7 1.1-3.5 3.5 9.6 10.9 24.3 10.4 35 1.6 7.4-6.1 14.8-12.2 22.1-18.2 19-15.7 38-31.3 57-47 9.5-7.8 14.5-19.9 8.1-31.7-7.4-13.7-25.1-15.8-36.7-6.4-17.4 14-34.5 28.4-51.8 42.7-9.4 7.7-18.7 15.4-28.1 23.1-3.2 2.7-6.3 5.3-8.4 9.1-4.6 8.6-3.5 19.2 2.7 26.7 2.1 2.6 5.6-.9 3.6-3.4"/><path fill="#a0eaa7" d="m56.5 308.8 68.3-56.2c10-8.2 24.4-7.4 32 1.8s5.7 23.5-4.3 31.7l-68.3 56.2z"/><path d="M58.2 310.5c22.1-18.2 44.3-36.5 66.4-54.7 7.6-6.2 18.2-9.2 26.8-2.9 11.2 8.1 8.3 23.6-1.2 31.7-10.7 9.2-21.8 18-32.7 26.9-11.8 9.7-23.5 19.4-35.3 29.1h3.5c-9.2-11.2-18.4-22.4-27.6-33.5-2-2.5-5.6 1.1-3.5 3.5 9.2 11.2 18.4 22.4 27.6 33.5.9 1.1 2.6.8 3.5 0 22.7-18.7 45.8-37 68.1-56.1 9-7.7 12.9-20.8 7-31.6-6.3-11.6-21.3-14.8-32.7-9.1-4.7 2.4-8.9 6.4-12.9 9.8-7.2 5.9-14.4 11.9-21.6 17.8-13 10.7-26.1 21.5-39.1 32.2-2.3 1.9 1.3 5.5 3.7 3.4"/><path fill="#c0f9c0" d="M59.5 301.3c5.8-1.4 7.4.1 9.8 10.6s10.8 6.5 13.1 12.7.6 8.6 3.2 10.3c2.7 1.7 6.6 1.4 5.3 8.1 0 11.1-7.3 4.6-10.3 7.3-3.3 3-6.1-.2-7.4-5.3s-7.1-9.5-9.9-11.4-4-7.9-7.1-12.7-11.7-5.6-10.3-9.7 1.1-7.5 4.9-9.9c3.9-2.4 2.9 1.4 8.7 0"/><path d="M60.1 303.7c3.2-.7 4.1.1 5.2 3.1 1.2 3.3 1.4 7 3.1 10 1.2 2.1 2.9 3.6 5 4.7 1.8 1 4.4 1.2 5.9 2.8 3.8 3.9.4 10.1 5.7 13.1.8.5 2.2.7 2.8 1.3 1.3 1.3.8 4 .5 5.8-.6 3.5-1.7 2.7-4.5 2.6-1.7 0-3 .9-4.5 1-3.5.4-3.2-2.8-4.1-5.1-.6-1.5-1.4-2.9-2.4-4.1-1.9-2.5-4.2-4.5-6.7-6.3-3.1-2.3-4-5.4-5.7-8.8-1.4-2.9-2.8-5.5-5.5-7.4-1.5-1.2-6.1-2.6-6.7-4.4-.2-.7 1.1-4.2 1.4-5 .7-1.7 1.7-3.8 3.6-3.7 2.7 0 4.3.9 6.9.4 3.2-.6 1.8-5.4-1.3-4.8-2.4.4-3.9-1.1-6.2-.9-2.7.2-5.2 2.5-6.5 4.7-2.5 4.2-4.4 10.5-.1 13.9 2.6 2 6 2.8 8 5.5 2.6 3.4 3.2 7.9 5.7 11.3 1.7 2.3 4.3 3.5 6.3 5.4 1.5 1.4 3.1 3 4 4.9 1 2.1 1.3 4.5 2.5 6.5 1.1 1.9 2.9 3.6 5.2 3.7 2.5.1 3.9-1.8 6.3-1.8 4.6 0 7.8-.5 8.9-5.7 1.3-6 .6-9.8-4.5-12.9-2.8-1.7-2.2-3.5-2.9-6.6-.6-2.7-1.5-5.2-3.7-6.9-2-1.6-4.7-1.9-6.8-3.2-3.9-2.5-3.8-7.9-5.3-11.8-2-5.5-5.5-7.3-11.1-6.1-3 .7-1.6 5.5 1.5 4.8"/><path fill="#fff" d="M459.5 351.2c7.4-9 6.1-22.5-2.9-30l-83.2-68.6c-9-7.4-22.5-6.1-30 2.9-7.4 9-6.1 22.5 2.9 30l83.2 68.6c9.1 7.4 22.6 6.1 30-2.9"/><path d="M461.3 352.9c9-10.9 6.3-25.9-4.2-34.6-7.2-6-14.4-11.9-21.7-17.8-19.1-15.8-38.3-31.5-57.4-47.3-9.3-7.6-21.1-11.2-31.8-3.6-13 9.1-12.9 27.9-1.2 37.9 16.7 14.4 34.1 28.1 51.2 42.2 9.5 7.8 19 15.7 28.5 23.5 2.8 2.3 5.5 4.7 8.9 6.2 9.6 4.2 20.8 1.4 27.7-6.5 2.1-2.4-1.4-6-3.5-3.5-6.9 7.8-18.1 9.3-26.4 2.9-1.3-1-2.4-2-3.7-3-7.4-6.1-14.8-12.2-22.1-18.2-17.5-14.4-35-28.8-52.5-43.3-7.6-6.2-14.6-13.5-11-24.5 3.1-9.7 13.9-15.3 23.6-12.1 3.1 1 5.6 2.8 8 4.9l49.5 40.8c8.9 7.3 17.8 14.7 26.7 22 1.6 1.3 3.3 2.6 4.9 4 7.6 6.6 9.7 18.3 3 26.5-2.1 2.5 1.4 6 3.5 3.5"/><path fill="#a0eaa7" d="m441.5 308.8-68.3-56.2c-10-8.2-24.4-7.4-32 1.8s-5.7 23.5 4.3 31.7l68.3 56.2z"/><path d="M443.3 307c-22.7-18.7-45.2-37.7-68.1-56.1-9.4-7.5-23.1-9.1-32.8-1.1-10.1 8.3-10.5 23.5-2.9 33.6 3.2 4.2 7.8 7.4 11.8 10.7 7.2 5.9 14.4 11.9 21.6 17.8 13 10.7 26.1 21.5 39.1 32.2 1 .8 2.6 1.1 3.5 0 9.2-11.2 18.4-22.4 27.6-33.5 2-2.5-1.5-6-3.5-3.5-9.2 11.2-18.4 22.4-27.6 33.5h3.5c-22.1-18.2-44.3-36.5-66.4-54.7-7.1-5.9-12.3-14.5-9.2-24 4.5-13.8 21.4-15.4 31.7-7.3 11.1 8.7 21.8 18 32.7 26.9 11.8 9.7 23.5 19.4 35.3 29.1 2.6 2 6.2-1.6 3.7-3.6"/><path fill="#c0f9c0" d="M438.5 301.3c-5.8-1.4-7.4.1-9.8 10.6s-10.8 6.5-13.1 12.7-.6 8.6-3.2 10.3c-2.7 1.7-6.6 1.4-5.3 8.1 0 11.1 7.3 4.6 10.3 7.3 3.3 3 6.1-.2 7.4-5.3s7.1-9.5 9.9-11.4 4-7.9 7.1-12.7 11.7-5.6 10.3-9.7-1.1-7.5-4.9-9.9c-3.9-2.4-2.9 1.4-8.7 0"/><path d="M439.2 298.9c-4.5-1-8.1-.3-10.3 4-1.6 3.1-1.7 6.6-2.9 9.7-1.4 3.7-3.8 4.4-7.1 5.9-1.8.8-3.4 1.7-4.6 3.3-2 2.8-1.6 6.1-2.6 9.1-.9 2.6-2.7 2.3-4.7 3.9-2.1 1.7-2.7 3.9-2.7 6.6 0 4.8 1 10.5 6.7 10.9 1.8.1 3.3-.4 5 .1 2.6.9 4.2 2.3 7 .4 2.4-1.7 3.1-4.6 4.1-7.2 1.5-4.3 4.9-6.9 8.4-9.6 5.9-4.5 5.7-13 12.4-16.9 2.3-1.3 5.3-2.5 6.4-5.1 1.1-2.7-.5-6.5-1.4-9-1-2.8-3-5.6-6-6.6-2.9-1-4.9 1-7.7.5-3.1-.6-4.5 4.3-1.3 4.8 2.7.5 4.3-.4 6.7-.5 1.9-.1 3 2 3.6 3.7.3.8 1.6 4.3 1.4 5-.6 1.8-5.2 3.3-6.7 4.4-2.6 2-4.1 4.5-5.5 7.4-1.6 3.4-2.5 6.5-5.7 8.8-2.5 1.9-4.8 3.8-6.7 6.3-1 1.3-1.8 2.6-2.4 4.1-.9 2.3-.6 5.5-4.1 5.1-1.5-.2-2.7-1.1-4.5-1-2.8.1-3.9.9-4.5-2.6-.3-1.7-.7-4.5.5-5.8.7-.7 2-.9 2.8-1.3 5.3-3 2-9.2 5.7-13.1 1.5-1.5 4.1-1.8 5.9-2.8 2.1-1.1 3.8-2.6 5-4.7 1.8-3.1 1.9-6.7 3.1-10 1.1-3 2-3.8 5.2-3.1 3.3.8 4.6-4 1.5-4.7"/><path fill="#c0f9c0" d="M91 205.5c10 2 14.6-4.3 31.1 4.8s29.4-2.9 46.3-1.6 18.7 6.8 35.3 4.4 18.1-6.8 33.3-4.6 23.6 6.6 37 4.4 32.2-9 47.4-3.1 33.8 7.1 42.5-.9 15 1 26 1.8 20.4-4.8 24.6 2.6 10.1 9.4 9.7 14.3-2.5 16.1-10.1 20-20.1-5-30.6-2.8-25.4 5-34.3 2.6-21.8-4.4-32.4-2.3-26.4 5.9-36.4 3.4c-10-2.6-10.9-5.5-22.6-5.1s-24.3 6-36.5 5.4-15.9-7.5-27.2-4.6-23.6 6.8-30.6 3.9-16.7-7.8-25.8-4.1-18 5.1-22.2.9-14.1-4.8-22.7-3.8-17.5-5.2-16.8-15.4 5-22.3 15-20.2"/><path d="M90.3 207.9c3.8.7 7.3.4 11.1 0 5.3-.5 10.1.2 15 2.3 5.9 2.6 10.9 5.6 17.5 5.9 5.9.3 11.7-1.3 17.4-2.8 6.7-1.7 13.2-2.8 20.2-2 5.3.6 10.3 2.3 15.5 3.6 11.1 2.6 22.2-.3 33-3.2 12.5-3.5 24.6.9 36.9 3.1 12.7 2.2 24.2-1.3 36.6-3.6 7.3-1.4 15.1-2.3 22.5-.6 6.8 1.5 13.1 4.4 20 5.5 5.5.9 11.2 1.1 16.7.2s9.3-3.3 13.8-6.5c5.3-3.8 10.5-.2 15.8 1.6 5.7 2 11.3 1.8 17.2 1.1 2.8-.4 6.3-1.3 9.1-.7 3.2.7 4.4 3.9 6.2 6.3 3.2 4.1 7.4 6.3 6.4 12-.9 5.1-2.8 11.5-7.5 14.5-5.1 3.2-12.4-.3-17.6-1.5-12.7-3.1-24.8 2.4-37.5 2.6-6.4.1-12.3-1.9-18.5-2.9-6.7-1.1-13.6-1.6-20.4-.7-12.6 1.6-25.8 6.9-38.6 3.9-4.7-1.1-8.9-3.5-13.6-4.5-5.6-1.2-11.5-.8-17.2.1-8 1.3-15.7 3.9-23.8 4.5-6.5.5-12-1-18-3.3-12.4-4.6-23.5 2.4-36 3.5-6.9.6-11.9-2.6-18.2-4.6-6.2-1.9-12.1-2.2-18.2 0-6.6 2.4-13.7 4.9-19.8.5-4.2-3.1-9.3-4-14.4-4.2-6-.3-12.5 1.9-18-1.4-6.3-3.8-6.2-11.1-4.7-17.5 1.6-5.4 4.5-12.2 11.1-11.2 3.1.5 4.5-4.3 1.3-4.8-11.6-1.7-16.5 9.4-17.8 19.2-1.4 10.6 4.5 20.4 15.9 21.2 7.1.5 14.1-1.7 20.9 1.1 2.4 1 4 3 6.4 4.1 2.7 1.1 5.6 1.2 8.4 1 7.8-.8 14.9-5.6 22.9-4.3 6.5 1.1 12.2 5.2 18.7 6 7 .8 14.3-1.3 20.9-3 7.3-1.9 12.6-3.1 19.8-.4 5.9 2.2 11.6 3.6 18 3.3 8-.4 15.6-2.8 23.4-4.3 7-1.3 14.2-1.8 20.9.6 5.4 1.9 10.5 3.9 16.3 4.2 14.3.7 27.9-5.4 42.2-5 7.7.2 14.9 2.3 22.4 3.5 6.4 1.1 13 .3 19.4-.6 7.5-1.1 14.8-3.7 22.3-2.2 5.8 1.2 11.6 3.8 17.5 3.4 10.5-.6 15-12.5 16.2-21.4.6-4.5-1-7.2-4-10.4-3.6-3.8-6.2-10.1-11.4-11.7-5.7-1.8-12.2.7-17.9.8-6.9.2-12.1-3.4-18.6-4.8-5.9-1.2-9.2 1.5-13.7 4.7-5.3 3.7-12.4 4.1-18.7 3.8-7.9-.5-14.9-3.1-22.3-5.3-6.9-2.1-14.3-1.9-21.4-1-7 .9-13.9 2.7-20.8 4.1-7.5 1.5-14.5 1.5-22.1-.1-12.6-2.6-24.6-6-37.3-2.4-6.9 1.9-13.8 3.8-21 4-5.5.1-10.5-1.4-15.7-2.8-6.5-1.7-13.3-2.7-20-2-6.5.7-12.7 2.9-19.1 4.1-3.2.6-6.6 1-9.9.6-4.9-.5-8.8-3-13.1-5-4.7-2.1-9.6-3.5-14.8-3.4-4.3.1-8.5 1.1-12.9.4-3.1-.6-4.4 4.2-1.3 4.8"/><path fill="#c0f9c0" d="M132 207.3c-21.8-9-12.8-25.3-21-45.3s-2.5-35.3-2.5-35.3C98.5 128.3 91 123 91 123s20-7.8 29.3-33 35.3-30.5 35.3-30.5S167 33.3 209.3 34s67.3-3.5 67.3-3.5-3.3 7.3-9.8 11.3c0 0 52.3-2.5 79.3 26.8s38.6 34.3 38.6 34.3-7.6 3.5-15.1 3.5c0 0 7.8 8.2 10.8 28.9s12 29.9 12 29.9l-16.8-4.5s2 19.8-6 40"/><path d="M133.3 205.1c-7.2-3.1-12.2-7.6-14.1-15.5-1.6-6.9-1.7-14.2-3.4-21.1-2.4-9.5-6.6-17.8-6.7-27.9 0-4.4.3-9 1.9-13.1.5-1.4-.9-3.3-2.4-3.2-5.6.6-11.5-.2-16.2-3.4-.2 1.5-.4 3-.6 4.6 12.5-4.9 22.6-16.5 28.3-28.3 2.3-4.8 3.8-10 6.7-14.5 2.7-4.2 6.1-8 10-11.1 5.2-4.1 11.2-7.1 17.6-9 2.4-.7 3.1-1.3 4.4-3.4 2.2-3.8 5.3-7.1 8.7-10 18.1-15 41.9-12.1 63.8-12.6 15.3-.3 30.9-1 46-3.5-.9-1.2-1.9-2.4-2.8-3.7-1.9 4.2-5 7.8-8.9 10.4-1.9 1.3-1.4 4.8 1.3 4.7 14.8-.7 30.2 1.7 44.3 6.1 12.2 3.9 23.8 10 32.7 19.4 9.2 9.6 18.2 19.2 28.6 27.5 3.4 2.7 7 5.8 11 7.6v-4.3c-4.3 1.9-9.2 3-13.9 3.2-2.2.1-3.2 2.7-1.8 4.3 7.5 8.1 8.8 21.1 10.7 31.3 1.8 9.4 5.2 20.3 12.1 27.5l2.4-4.2-16.8-4.5c-1.4-.4-3.3.8-3.2 2.4 1.3 13.2-1.2 27-5.9 39.3-1.1 3 3.7 4.3 4.8 1.3 4.8-12.6 7.4-27.1 6.1-40.7-1.1.8-2.1 1.6-3.2 2.4l16.8 4.5c2.4.7 4.1-2.4 2.4-4.2-15.2-15.9-7.9-42.6-22.8-58.8-.6 1.4-1.2 2.8-1.8 4.3 5.7-.2 11.2-1.5 16.4-3.8 1.6-.7 1.6-3.6 0-4.3-3.3-1.4-6.2-3.9-9-6-10.6-8.3-19.9-18.1-29.1-27.8-16.3-17.2-40.3-24.4-63.3-26.8-5.9-.6-11.8-1-17.7-.7.4 1.6.8 3.1 1.3 4.7 4.5-3 8.4-7.2 10.6-12.1 1-2.1-.6-4-2.8-3.7-13.1 2.2-26.6 2.8-39.8 3.2-22.3.7-46.1-2.7-66 9.7-5 3.1-9.6 7.1-13.2 11.8-.9 1.2-2 2.5-2.7 3.9-1.4 2.8 0-.3.6.4-1.1-1.2-11.3 4.2-12.6 4.9-7.6 4-14.3 9.8-19.1 17-3.6 5.3-5.2 11.4-8.1 17s-6.6 10.7-11.1 15.1c-3.7 3.6-9.8 8-13.5 9.5-2 .8-2.5 3.3-.6 4.6 5.4 3.7 12.4 4.8 18.8 4.1-.8-1.1-1.6-2.1-2.4-3.2-1.7 4.7-2.1 10.2-2 15.1.2 10.7 4.8 19.7 7.2 29.9 1.7 7.5 1.5 15.5 4 22.8 2.6 7.6 8.3 12.4 15.6 15.6 2.8.9 5.3-3.4 2.4-4.7"/><path fill="#fff" d="M381.1 349.2c-.2-6-2.6-18-5.4-31.8l-.1-.5c-3-14.8-6.6-33.2-6.8-41.2-.1-5 .1-12.2.1-19.8v-.4c0-15.6.1-37.1-1.4-51.2-1.2-11.5-5.6-40.7-19.2-62.5-12.6-20.2-27.9-33.2-47.9-41.4-18.4-7.4-52.1-8.3-53-8.3-8.6 0-30.7.7-49.1 8.1-20.1 8.1-35.3 21.3-47.9 41.5-13.6 21.8-17.9 51-19.1 62.5-1.5 14.1-1.4 35.5-1.2 51.2v3.6c0 6.3 0 12.3-.1 16.6-.2 8.1-3.9 26.5-6.9 41.3l-.1.6c-2.7 13.8-5.1 25.7-5.4 31.7-.6 15.4 3.8 25.7 14.9 35.8 7.1 6.4 14 9.5 21.7 9.5 4.1 0 7.8-.8 11.9-1.8 1.1-.3 2.3-.6 3.5-1.1 4 2.2 11.7 5.6 21.7 5.6 6.5 0 14.1-1.4 22.4-5.4 4.8 3.9 9.7 7.5 9.7 7.5 12.9 7.3 24 8.8 25.6 8.8h.4c1.6 0 12.7-.9 26.1-8.8 0 0 4.3-3.1 8.8-6.7 7.7 3.4 14.7 4.6 20.8 4.6 10.9 0 19-3.9 22.7-6.1 1.8.7 3.3 1.3 4.9 1.7 4 1 7.7 1.8 11.8 1.8 7.8 0 14.4-2.9 21.6-9.5 11.3-10.1 15.6-20.5 15-35.9"/><path fill="#c8c8c8" d="M285.5 389.9s8-6.1 16.8-7c8.8-1 23.8 5.5 23.8 5.5s-4.9 10-14.2 9.8c-9.4-.3-26.4-8.3-26.4-8.3"/><path fill="#a0eaa7" d="M369 246.5c-77.1 17.4-155.4 17.7-235 0 0 0 1.3 20.8-1.8 39.8S121 341.1 121 341.1s53.4 12.5 140 12.4 119.1-12.4 119.1-12.4-11.6-55-12.4-61.8c-.7-6.8 1.3-32.8 1.3-32.8"/><path fill="#c8c8c8" d="M169.6 389.9s8-6.1 16.8-7 23.8 5.5 23.8 5.5-4.9 10-14.2 9.8-26.4-8.3-26.4-8.3"/><path d="M384.6 351.4c-.2-6.1-2.7-18.4-5.5-32.5l-.1-.5c-3-15.1-6.3-33.9-6.5-42.1-.1-5.1.5-12.5.5-20.3v-.4c0-16-.3-37.9-1.8-52.2-1.2-11.8-5.9-41.6-19.8-63.8-12.9-20.6-28.6-33.9-49.1-42.2-18.8-7.6-53.2-8.4-54.2-8.4-8.8 0-31.4.7-50.1 8.3-20.5 8.3-36 21.7-48.9 42.3-13.9 22.2-18.3 52.1-19.6 63.8-1.5 14.4-1.4 36.3-1.3 52.3v3.7c0 6.5 0 12.5-.1 16.9-.2 8.3-4 27-7 42.1l-.1.6c-2.8 14.1-5.2 26.3-5.5 32.4-.6 15.7 3.8 26.3 15.2 36.6 7.3 6.6 14.3 9.7 22.1 9.7 4.2 0 8-.8 12.1-1.9 1.1-.3 2.3-.7 3.5-1.1 4.1 2.3 11.9 5.7 22.2 5.7 6.7 0 14.4-1.4 22.9-5.5 4.9 4 9.9 7.4 10 7.4 13.2 7.5 24.5 8.7 26.2 8.7h.4c1.7 0 13-.7 26.7-8.7 0 0 4.4-3.1 8.9-6.7 7.8 3.5 15 4.8 21.3 4.8 11.2 0 19.4-4 23.2-6.2 1.8.7 3.4 1.3 5 1.7 4.1 1 7.9 1.9 12.1 1.9 7.9 0 14.7-3 22.1-9.6 11.4-10.5 15.8-21.1 15.2-36.8m-207.4 39.5c6.1-2.6 13.6-5.5 20.1-5.5 4.4 0 7.6 1.3 10.4 4.1l.2.2c-13.1 5.4-23.9 3.7-30.7 1.2m114.5-.5c.3-.3.6-.5.8-.8 2.8-2.8 6-4.2 10.4-4.2 6.1 0 13 2.5 18.9 5-6.4 2.5-17 4.8-30.1 0m72.8-7.8c-6 5.4-11.1 7.8-17.2 7.8-3.4 0-6.6-.7-10.4-1.6-2-.5-4.5-1.6-7.7-3l-.5-.2c-7-3.2-16.7-7.4-25.8-7.4-6.3 0-11.3 2.1-15.6 6.3-11 11.2-21.9 15.7-29.1 17.5-.1 0-7.1 1.9-15.2-.3-8.2-2.3-19.2-6.1-30.1-17.2-4.1-4.2-9.2-6.3-15.6-6.3-9 0-18.6 4.2-25.9 7.4l-.3.1c-3.3 1.4-5.8 2.6-7.9 3.1-3.8.9-7 1.6-10.4 1.6-6 0-11.3-2.4-17.2-7.8-9.8-8.9-13.3-17.3-12.8-30.9.2-5.5 2.6-17.4 5.4-31.2l.1-.6c3.2-16.1 6.9-34.4 7.2-43.4.1-4.5.1-10.6.1-17.1v-3.7c-.1-15.8-.3-37.5 1.2-51.4 1.2-11.3 5.4-39.8 18.5-60.7 12-19.3 26.5-31.8 45.4-39.5 17.6-7.1 39-8.2 47.4-8.2.8 0 33.8.8 51.4 7.9 19 7.7 33.4 20.4 45.5 39.6 13.1 21 18 49.5 19.2 60.8 1.5 14 1.9 35.7 1.9 51.5v.4c0 7.8-.8 15.2-.7 20.4.2 8.9 3.6 27.2 6.8 43.4l-.1.5c2.8 13.8 5.1 25.8 5.3 31.3.5 13.6-3.1 22-12.9 30.9"/><path fill="#a0eaa7" d="M121.7 337.5s-23.5 41.5-21.1 43.3c2.8 2 124.7-9.8 136.3-15.8s12.4-16 12.4-16z"/><path d="M119.6 336.2c-7 12.4-14.3 24.9-19.8 38-1.4 3.3-3.5 8.3 1.5 9.2 3.8.6 8.2-.1 12-.3 35.7-2.2 71.7-5.9 107-11.7 13.2-2.2 30.2-5.8 31.7-22.4.1-1.4-1.3-2.4-2.5-2.5-37.3-3.4-74.6-6.7-111.8-10.1-5.3-.5-10.6-1-15.8-1.4-3.2-.3-3.2 4.7 0 5 37.3 3.4 74.6 6.7 111.8 10.1 5.3.5 10.6 1 15.8 1.4L247 349c-1.1 12.6-15.5 15.4-26.2 17.3-16.2 2.8-32.6 4.6-48.9 6.4-16.7 1.8-33.5 3.5-50.3 4.8-5.3.4-10.7.8-16 1-.8 0-3.4-.4-4 0 .1-.1 1.1 1.8 1.5 1.7.1 0 .7-2.2.8-2.6 5-13.5 13-26.4 20.1-38.9 1.5-2.8-2.9-5.3-4.4-2.5"/><path fill="#a0eaa7" d="M377.2 337.5s23.5 41.5 21.1 43.3c-2.8 2-124.7-9.8-136.3-15.8-11.7-6-12.4-16-12.4-16z"/><path d="M375 338.7c6.4 11.3 12.7 22.6 18.1 34.3.3.7 2.2 7 2.8 7.1.1 0 1.4-1.9 1.6-1.8-.2-.1-1.3.1-1.6.1-4.4 0-8.9-.3-13.3-.6-33.1-2.3-66.4-5.6-99.2-10.7-11.8-1.8-30.2-3.6-31.4-18.1l-2.5 2.5c37.3-3.4 74.6-6.7 111.8-10.1 5.3-.5 10.6-1 15.8-1.4 3.2-.3 3.2-5.3 0-5-37.3 3.4-74.6 6.7-111.8 10.1-5.3.5-10.6 1-15.8 1.4-1.3.1-2.6 1.1-2.5 2.5.7 7.9 6.9 15 13.8 18.3 4 1.9 8.6 2.5 12.9 3.3 17.1 3.1 34.5 5.1 51.8 7 18.3 2 36.6 3.9 54.9 5.2 5.1.4 10.2.9 15.3.8 3.7-.1 5.8-1.5 4.7-5.6-2.2-8.3-7.4-16.3-11.3-23.8-3.2-6-6.5-12-9.8-17.9-1.6-2.9-5.9-.4-4.3 2.4M324.2 191.9c0 10.6-8.6 19.1-19.1 19.1-10.6 0-19.1-8.6-19.1-19.1 0-.9.1-1.8.2-2.6 1.2.8 2.6 1.3 4.1 1.3 4 0 7.2-3.2 7.2-7.2 0-2.9-1.7-5.4-4.1-6.5 3.2-2.5 7.3-4 11.7-4 10.5-.1 19.1 8.5 19.1 19M214.1 191.9c0 10.6-8.6 19.1-19.1 19.1-10.6 0-19.1-8.6-19.1-19.1 0-.9.1-1.8.2-2.6 1.2.8 2.6 1.3 4.1 1.3 4 0 7.2-3.2 7.2-7.2 0-2.9-1.7-5.4-4.1-6.5 3.2-2.5 7.3-4 11.7-4 10.5-.1 19.1 8.5 19.1 19"/><ellipse cx="166.4" cy="228.6" fill="#f68694" rx="7.4" ry="3.4" transform="rotate(-44.198 166.406 228.55)"/><ellipse cx="180.5" cy="229.7" fill="#f68694" rx="7.4" ry="3.4" transform="rotate(-44.198 180.46 229.72)"/><ellipse cx="194.5" cy="229.7" fill="#f68694" rx="7.4" ry="3.4" transform="rotate(-44.198 194.513 229.721)"/><ellipse cx="333.9" cy="229.7" fill="#f68694" rx="7.4" ry="3.4" transform="rotate(224.198 333.885 229.722)"/><ellipse cx="319.8" cy="230.9" fill="#f68694" rx="7.4" ry="3.4" transform="rotate(224.198 319.83 230.893)"/><ellipse cx="305.8" cy="230.9" fill="#f68694" rx="7.4" ry="3.4" transform="rotate(224.198 305.777 230.893)"/><path d="M225.7 217.5c11.2 10.8 24.6 13.4 38.1 5.1 2.7-1.7.2-6-2.5-4.3-11.6 7.1-22.4 5-32-4.3-2.3-2.3-5.9 1.2-3.6 3.5M173.8 162.3c5.8-5.2 12.7-9.8 20.7-9.8 8.1 0 15 4.5 20.7 9.8 2.4 2.2 5.9-1.4 3.5-3.5-6.8-6.1-14.8-11.2-24.3-11.2-9.4 0-17.5 5.1-24.3 11.2-2.3 2.1 1.3 5.6 3.7 3.5M290.8 162.3c5.8-5.2 12.7-9.8 20.7-9.8 8.1 0 15 4.5 20.7 9.8 2.4 2.2 5.9-1.4 3.5-3.5-6.8-6.1-14.8-11.2-24.3-11.2-9.4 0-17.5 5.1-24.3 11.2-2.3 2.1 1.3 5.6 3.7 3.5"/><path fill="#c0f9c0" d="M285.1 56.3c60.2 23 88.2 96.9 88.2 96.9l-46.2-3 41.4 15c-46.8 23-76.6-8.1-86.3-20.8S255.8 93.8 236 95.8 203.3 113 203.3 113s-18.4-12.3-29.6 11-8.4 51.5-47.4 47.3c0 0 24.3-17.5 24.8-44.3s22.7-38.5 38.7-26.5c-.1 0 35.1-67.1 95.3-44.2"/><path d="M192 98.3c-7.5-5.4-17.1-6.6-25.5-2.5-9.5 4.6-14.9 14.6-16.4 24.7-1 6.6-.7 13-2.8 19.4-1.8 5.7-4.8 11-8.3 15.7-3.6 4.9-8.3 10-13 13.4-2.1 1.5-1.3 4.4 1.3 4.7 10.5 1 21.8.3 30.1-6.9 6.7-5.8 9.8-14.6 12.6-22.8 3.3-10 6.2-24.2 16-29.9 5.2-3 12.1-2.3 17.1.9.9.6 2.3.4 3-.4 7.6-8.8 20.6-16.5 32.3-16.6 13.6-.1 23.7 17.6 30 27.5 5.9 9.3 11.1 19 18.7 27.1 8.2 8.7 18.2 15.8 29.5 19.7 18.2 6.4 37.2 3 54.2-5.1 2.3-1.1 1.1-4.6-1.3-4.7-4.9 0-9.9-1.5-14.5-2.9-14.4-4.5-27.5-12.2-39.7-21-2.6-1.9-5.1 2.5-2.5 4.3 12.5 9 26.1 16.8 40.9 21.5 5 1.6 10.5 3.1 15.8 3.1-.4-1.6-.8-3.1-1.3-4.7-16.6 8-35.1 10.8-52.5 3.8-11.1-4.4-20.7-12.2-28.4-21.3-8-9.5-13.4-21.2-20.6-31.3-6.6-9.3-16.2-21.5-28.9-21.2-13 .4-27 8.3-35.4 18 1-.1 2-.3 3-.4-4.6-3-10.9-4.3-16.3-3.2-11.3 2.3-16.6 13.6-20.2 23.4-3.4 9.2-5.4 19.3-11 27.5-7.1 10.3-19.3 11.3-30.8 10.2.4 1.6.8 3.1 1.3 4.7 12-8.8 21.9-22.7 24.9-37.3 1.2-6 .7-12.2 2.2-18.2 1.3-5.3 3.9-10.3 7.9-14 7.5-6.9 17.7-7 25.9-1.2 2.8 2.2 5.3-2.1 2.7-4"/><path d="M327.4 152.7c15.1 4.7 32 5.4 47.5 3 2.5-.4 2.2-4.2 0-4.8-22.9-6-45.9-19-61.4-36.9-2.1-2.4-5.6 1.1-3.5 3.5 16.1 18.5 40 31.9 63.6 38.1v-4.8c-14.6 2.2-30.6 1.5-44.9-3-3-.9-4.4 3.9-1.3 4.9M206.7 111c4.2-9.2 10.7-17.9 18.4-24.4 6.3-5.4 14.2-9.1 22.6-9.1 12.4 0 23.2 7.4 31.9 15.4 2.4 2.2 5.9-1.3 3.5-3.5-9.2-8.5-20.2-16-33.1-16.8-9.2-.6-18 2.7-25.3 8.1-9.5 7-17.4 17.2-22.3 27.9-1.4 2.8 2.9 5.3 4.3 2.4"/><path fill="#b19ae8" d="M146.8 86.6 120 41.5l48.8 26.2z"/><path d="M148.9 85.4c-8.9-15-17.9-30.1-26.8-45.1l-3.4 3.4c16.3 8.7 32.5 17.4 48.8 26.2-.2-1.3-.3-2.6-.5-3.9-7.3 6.3-14.7 12.6-22 19-2.4 2.1 1.1 5.6 3.5 3.5 7.3-6.3 14.7-12.6 22-19 1.2-1 .8-3.2-.5-3.9-16.3-8.7-32.5-17.4-48.8-26.2-2.2-1.2-4.7 1.2-3.4 3.4 8.9 15 17.9 30.1 26.8 45.1 1.7 2.8 6 .2 4.3-2.5"/><path fill="#b19ae8" d="m182.4 55.9-40.6-33.1 18.6 52.1z"/><path d="M184.2 54.2C170.6 43.1 157.1 32 143.5 21c-1.7-1.4-5.1-.2-4.2 2.4 6.2 17.4 12.4 34.8 18.7 52.1.7 1.8 2.7 2.4 4.2 1.1 7.3-6.3 14.7-12.6 22-19 2.4-2.1-1.1-5.6-3.5-3.5-7.3 6.3-14.7 12.6-22 19 1.4.4 2.8.7 4.2 1.1-6.2-17.4-12.4-34.8-18.7-52.1l-4.2 2.4c13.6 11.1 27.1 22.1 40.7 33.2 2.4 2 6-1.5 3.5-3.5"/><path fill="#cfb6ff" d="m153.6 12.6 28.9 43.2L147 86.4l-38.7-34.8 29.4 3L131 32l21.2 9.8z"/><path d="M151.4 13.8c9.6 14.4 19.3 28.8 28.9 43.3.1-1 .3-2 .4-3-11.8 10.2-23.6 20.4-35.5 30.6h3.5C135.9 73 123 61.5 110 49.9c-.6 1.4-1.2 2.8-1.8 4.3l29.4 3c1.6.2 2.8-1.7 2.4-3.2-2.2-7.6-4.4-15.1-6.7-22.7-1.2.9-2.4 1.9-3.7 2.8 7.1 3.3 14.1 6.5 21.2 9.8 1.7.8 3.7-.2 3.8-2.2.4-9.7.9-19.5 1.3-29.2.1-3.2-4.9-3.2-5 0-.4 9.7-.9 19.5-1.3 29.2 1.3-.7 2.5-1.4 3.8-2.2-7.1-3.3-14.1-6.5-21.2-9.8-1.9-.9-4.3.6-3.7 2.8 2.2 7.6 4.4 15.1 6.7 22.7.8-1.1 1.6-2.1 2.4-3.2l-29.4-3c-2.2-.2-3.3 2.9-1.8 4.3 12.9 11.6 25.9 23.2 38.8 34.8 1.1 1 2.5.9 3.5 0 11.8-10.2 23.6-20.4 35.5-30.6.8-.7 1-2.2.4-3-9.6-14.4-19.3-28.8-28.9-43.3-1.8-2.6-6.1-.1-4.3 2.6"/><path fill="#c0f9c0" d="M196 258h107l-18.8 87.8-69.9-.9"/><path fill="#5faa61" d="M119.3 347.5c87.7 17.8 176.5 17.5 261.4 0l-1.4-14.1c-85 17.5-170.6 17.1-258.3-.7z"/><path d="M118.7 349.9c67.8 13.7 137.6 17 206.3 9.1 18.9-2.2 37.8-5.2 56.4-9.1 1-.2 1.9-1.4 1.8-2.4-.5-4.7-.9-9.4-1.4-14.1-.2-1.7-1.5-2.8-3.2-2.4-65.3 13.4-132.3 16.2-198.5 8.6-19.6-2.2-39.1-5.4-58.5-9.3-1.7-.3-3 .7-3.2 2.4-.6 4.9-1.1 9.9-1.7 14.8-.4 3.2 4.6 3.2 5 0 .6-4.9 1.1-9.9 1.7-14.8-1.1.8-2.1 1.6-3.2 2.4 66.8 13.5 135.4 17.4 203.2 9.7 18.9-2.2 37.8-5.2 56.5-9-1.1-.8-2.1-1.6-3.2-2.4.5 4.7.9 9.4 1.4 14.1l1.8-2.4c-66.2 13.6-134.4 16.6-201.6 9.2-19.6-2.2-39.1-5.3-58.5-9.2-2.9-.6-4.3 4.2-1.1 4.8"/><path d="M191.8 257.3c5.5 25.6 11.1 51.2 16.6 76.8l2.4 11.1c.7 3.1 5.5 1.8 4.8-1.3-5.5-25.6-11.1-51.2-16.6-76.8l-2.4-11.1c-.7-3.1-5.5-1.8-4.8 1.3M301.7 257c-5.5 25.6-11.1 51.2-16.6 76.8l-2.4 11.1c-.7 3.1 4.1 4.5 4.8 1.3 5.5-25.6 11.1-51.2 16.6-76.8l2.4-11.1c.7-3.1-4.1-4.4-4.8-1.3M248.4 259.7v85.8c0 3.2 5 3.2 5 0v-85.8c0-3.3-5-3.3-5 0"/><path d="M206.9 300.6c14.7-13 29.5-26.1 44.2-39.1 2.4-2.1-1.1-5.7-3.5-3.5-14.7 13-29.5 26.1-44.2 39.1-2.4 2.1 1.1 5.6 3.5 3.5"/><path d="M296.5 294.7c-13.9-12.3-27.7-24.5-41.6-36.8-2.4-2.1-6 1.4-3.5 3.5 13.9 12.3 27.7 24.5 41.6 36.8 2.4 2.2 5.9-1.3 3.5-3.5"/><path d="M370.3 244.1c-77 17.3-156.6 17-233.7 0-3.1-.7-4.5 4.1-1.3 4.8 78 17.2 158.4 17.5 236.3 0 3.2-.7 1.9-5.5-1.3-4.8"/><path fill="#c0f9c0" d="M144.5 92.3s6.2-17 20.7-18.8c0 0 3.2-17.8 23.2-17.2"/><path d="M146.9 93c3.1-8.3 10-15.7 18.9-17.1.8-.1 1.6-1 1.7-1.7 1.9-10.1 11-15.4 20.8-15.3 3.2 0 3.2-5 0-5-11.8-.1-23.3 6.8-25.6 19l1.7-1.7C153.7 72.9 145.6 82 142 91.8c-1 2.9 3.8 4.2 4.9 1.2"/></g><g><g><path fill="#cfb6ff" d="m256.8 135.1-6.8-33 17.3 33z"/><path d="M258.2 134.7c-2.3-11-4.5-22-6.8-33l-2.7 1.2c5.8 11 11.6 22 17.3 33 .4-.8.9-1.5 1.3-2.3h-10.6c-1.9 0-1.9 3 0 3h10.6c1.2 0 1.8-1.3 1.3-2.3-5.8-11-11.6-22-17.3-33-.8-1.6-3.1-.4-2.7 1.2 2.3 11 4.5 22 6.8 33 .3 1.9 3.2 1.1 2.8-.8"/><path fill="#eae1ff" d="m250 168.1 6.8-33h10.5z"/><path d="M251.4 168.5c2.3-11 4.5-22 6.8-33-.5.4-1 .7-1.4 1.1h10.6c-.4-.8-.9-1.5-1.3-2.3-5.8 11-11.6 22-17.3 33-.9 1.7 1.7 3.2 2.6 1.5 5.8-11 11.6-22 17.3-33 .5-1-.1-2.3-1.3-2.3h-10.6c-.6 0-1.3.5-1.4 1.1-2.3 11-4.5 22-6.8 33-.4 2 2.4 2.8 2.8.9"/><path fill="#a0eaa7" d="m232.7 135.1 17.3-33 6.8 33z"/><path d="M234 135.8c5.8-11 11.6-22 17.3-33-.9-.1-1.8-.2-2.7-.4 2.2 11 4.5 22 6.7 33 .5-.6 1-1.3 1.4-1.9h-24.1c-1.9 0-1.9 3 0 3h24.1c1 0 1.6-1 1.4-1.9-2.2-11-4.5-22-6.7-33-.3-1.3-2.2-1.5-2.7-.4-5.8 11-11.6 22-17.3 33-.9 1.8 1.7 3.4 2.6 1.6"/><path fill="#d9ffda" d="m250 168.1-17.3-33h24.1z"/><path d="M251.3 167.3c-5.8-11-11.6-22-17.3-33-.4.8-.9 1.5-1.3 2.3h24.1c-.5-.6-1-1.3-1.4-1.9-2.2 11-4.5 22-6.7 33-.4 1.9 2.5 2.7 2.9.8 2.2-11 4.5-22 6.7-33 .2-.9-.4-1.9-1.4-1.9h-24.1c-1.2 0-1.8 1.3-1.3 2.3 5.8 11 11.6 22 17.3 33 .8 1.7 3.4.1 2.5-1.6"/></g></g></svg>