<svg xmlns="http://www.w3.org/2000/svg" xml:space="preserve" viewBox="0 0 500 500"><g><path fill="#c5fffd" d="m430.5 186.9 16.4 1M312.5 276.1s6.1-105.5 155.1-131.7c0 0-27.3 114.9-155.1 131.7"/><path d="M315 276.1c.7-11.4 5.4-25 10.6-36 13.6-28.7 36.9-51.4 64.5-66.9 24.2-13.5 51-21.6 78.1-26.4l-3.1-3.1c-3.2 13.5-9.5 26.7-16.3 38.8-15.9 28.1-38.7 52.1-66.8 68.2-21.6 12.4-45.6 19.6-70.1 23-3.2.4-1.8 5.2 1.3 4.8 40.8-5.5 79.3-22.7 108.6-52 18.9-18.9 33.6-41.8 43.3-66.7 1.9-4.8 3.7-9.7 4.9-14.8.5-2-1.2-3.4-3.1-3.1-43.5 7.8-87.1 24.4-118.4 56.6-17.1 17.6-30.1 39.5-36 63.4-1.1 4.6-2.2 9.4-2.5 14.1-.2 3.3 4.9 3.3 5 .1"/><path fill="#c5fffd" d="m314 274.1 150.7-127"/><path d="M315 275.2c17-14.3 34-28.6 50.9-42.9 27.1-22.8 54.1-45.6 81.2-68.4 6.2-5.2 12.4-10.5 18.6-15.7 1.5-1.2-.7-3.4-2.1-2.1-17 14.3-34 28.6-50.9 42.9-27.1 22.8-54.1 45.6-81.2 68.4-6.2 5.2-12.4 10.5-18.6 15.7-1.5 1.2.7 3.3 2.1 2.1"/><path fill="#c5fffd" d="m413 191.1 37.7-9.5"/><path d="M413.4 192.6c12.5-3.2 25.1-6.3 37.6-9.5 1.9-.5 1.1-3.4-.8-2.9-12.5 3.2-25.1 6.3-37.6 9.5-1.8.4-1.1 3.3.8 2.9"/><path fill="#c5fffd" d="m396.3 204.5 8-39.7"/><path d="M397.7 204.9c2.7-13.2 5.4-26.5 8-39.7.4-1.9-2.5-2.7-2.9-.8-2.7 13.2-5.4 26.5-8 39.7-.4 1.9 2.5 2.7 2.9.8"/><path fill="#c5fffd" d="m400.1 183-5.7-14"/><path d="M401.5 182.6c-1.9-4.7-3.8-9.3-5.7-14-.7-1.8-3.6-1-2.9.8 1.9 4.7 3.8 9.3 5.7 14 .7 1.8 3.6 1 2.9-.8"/><path fill="#c5fffd" d="m365.9 230.4 55.3-8.5"/><path d="M366.3 231.8c18.4-2.8 36.9-5.7 55.3-8.5 1.9-.3 1.1-3.2-.8-2.9-18.4 2.8-36.9 5.7-55.3 8.5-1.9.3-1.1 3.2.8 2.9"/><path fill="#c5fffd" d="m384.8 227.2 50.4-21.4"/><path d="m385.5 228.5 50.4-21.3c1.8-.7.2-3.3-1.5-2.6L384 225.9c-1.8.7-.2 3.3 1.5 2.6"/><path fill="#c5fffd" d="m398.7 225.6 14.2 5.9"/><path d="M398.3 227.1c4.7 2 9.5 3.9 14.2 5.9 1.8.7 2.6-2.2.8-2.9-4.7-2-9.5-3.9-14.2-5.9-1.8-.8-2.6 2.1-.8 2.9"/><path fill="#c5fffd" d="m342.4 249.6 7.8-47.2"/><path d="M343.8 250c2.6-15.7 5.2-31.5 7.9-47.2.3-1.9-2.6-2.7-2.9-.8-2.6 15.7-5.2 31.5-7.9 47.2-.3 1.9 2.6 2.7 2.9.8"/><path fill="#c5fffd" d="m345.7 229.6 20.8-42.3"/><path d="M347 230.4c6.9-14.1 13.8-28.2 20.8-42.2.8-1.7-1.7-3.2-2.6-1.5-6.9 14.1-13.8 28.2-20.8 42.2-.8 1.7 1.8 3.2 2.6 1.5"/><path fill="#c5fffd" d="m333.1 258 47.6-4.9"/><path d="M333.1 259.5c15.9-1.6 31.7-3.3 47.6-4.9 1.9-.2 1.9-3.2 0-3-15.9 1.6-31.7 3.3-47.6 4.9-1.9.2-1.9 3.2 0 3"/><path fill="#c5fffd" d="m359.1 255.5 7.7 4.7"/><path d="M358.4 256.8c2.6 1.5 5.1 3.1 7.7 4.6 1.7 1 3.2-1.6 1.5-2.6-2.6-1.5-5.1-3.1-7.7-4.6-1.7-1-3.2 1.6-1.5 2.6M72.7 185.4c-5.5.3-11 .7-16.4 1-1.9.1-1.9 3.1 0 3 5.5-.3 11-.7 16.4-1 1.9-.1 1.9-3.1 0-3"/><path fill="#c5fffd" d="M190.6 276.1s-6.1-105.5-155.1-131.7c0 0 27.4 114.9 155.1 131.7"/><path d="M193.1 276.1c-.8-13.2-5.7-26.7-11.3-38.5C168 208.3 144 185 116 169.2 91.4 155.3 64 147 36.2 142c-1.9-.3-3.5 1.1-3.1 3.1 3.4 14.2 10 28 17.2 40.6 16.3 28.7 39.9 53.3 68.8 69.6 21.8 12.4 46 19.8 70.8 23.2 3.1.4 4.5-4.4 1.3-4.8-40.4-5.5-78.3-22.3-107.1-51.4C66 204 51.7 181.8 42.5 157.8c-1.8-4.6-3.5-9.3-4.6-14.1l-3.1 3.1c42.7 7.6 85.4 23.7 116.2 55.3 16.5 17 29.1 38.3 34.8 61.4 1.1 4.4 2 8.6 2.2 12.6.3 3.2 5.3 3.3 5.1 0"/><path fill="#3ad8d0" d="m189.1 274.1-150.6-127"/><path d="M190.2 273c-17-14.3-34-28.6-50.9-42.9-27.1-22.8-54.1-45.6-81.2-68.4-6.2-5.2-12.4-10.5-18.6-15.7-1.5-1.2-3.6.9-2.1 2.1 17 14.3 34 28.6 50.9 42.9 27.1 22.8 54.1 45.6 81.2 68.4 6.2 5.2 12.4 10.5 18.6 15.7 1.5 1.3 3.6-.8 2.1-2.1"/><path fill="#3ad8d0" d="m90.1 191.1-37.6-9.5"/><path d="M90.5 189.7c-12.5-3.2-25.1-6.3-37.6-9.5-1.9-.5-2.7 2.4-.8 2.9 12.5 3.2 25.1 6.3 37.6 9.5 1.9.4 2.7-2.5.8-2.9"/><path fill="#3ad8d0" d="m106.9 204.5-8.1-39.7"/><path d="M108.3 204.1c-2.7-13.2-5.4-26.5-8-39.7-.4-1.9-3.3-1.1-2.9.8 2.7 13.2 5.4 26.5 8 39.7.4 1.9 3.3 1.1 2.9-.8"/><path fill="#3ad8d0" d="m103.1 183 5.6-14"/><path d="M104.5 183.4c1.9-4.7 3.8-9.3 5.7-14 .7-1.8-2.2-2.6-2.9-.8-1.9 4.7-3.8 9.3-5.7 14-.7 1.8 2.2 2.6 2.9.8"/><path fill="#3ad8d0" d="M137.3 230.4 82 221.9"/><path d="M137.7 228.9c-18.4-2.8-36.9-5.7-55.3-8.5-1.9-.3-2.7 2.6-.8 2.9 18.4 2.8 36.9 5.7 55.3 8.5 1.9.3 2.7-2.6.8-2.9"/><path fill="#3ad8d0" d="M118.4 227.2 68 205.8"/><path d="m119.1 225.9-50.4-21.3c-1.8-.7-3.3 1.8-1.5 2.6l50.4 21.3c1.8.7 3.3-1.9 1.5-2.6"/><path fill="#3ad8d0" d="m104.5 225.6-14.3 5.9"/><path d="M104.1 224.2c-4.7 2-9.5 3.9-14.2 5.9-1.8.7-1 3.6.8 2.9 4.7-2 9.5-3.9 14.2-5.9 1.7-.8.9-3.7-.8-2.9"/><path fill="#3ad8d0" d="m160.8 249.6-7.9-47.2"/><path d="M162.2 249.2c-2.6-15.7-5.2-31.5-7.9-47.2-.3-1.9-3.2-1.1-2.9.8 2.6 15.7 5.2 31.5 7.9 47.2.3 1.9 3.2 1.1 2.9-.8"/><path fill="#3ad8d0" d="m157.4 229.6-20.7-42.3"/><path d="M158.7 228.8c-6.9-14.1-13.8-28.2-20.8-42.2-.9-1.7-3.4-.2-2.6 1.5 6.9 14.1 13.8 28.2 20.8 42.2.9 1.8 3.5.3 2.6-1.5"/><path fill="#3ad8d0" d="m170 258-47.6-4.9"/><path d="M170 256.5c-15.9-1.6-31.7-3.3-47.6-4.9-1.9-.2-1.9 2.8 0 3 15.9 1.6 31.7 3.3 47.6 4.9 1.9.2 1.9-2.8 0-3"/><path fill="#3ad8d0" d="m144 255.5-7.7 4.7"/><path d="M143.3 254.3c-2.6 1.5-5.1 3.1-7.7 4.6-1.6 1-.1 3.6 1.5 2.6 2.6-1.5 5.1-3.1 7.7-4.6 1.6-1.1.1-3.7-1.5-2.6"/><path fill="#4edadd" d="m96.7 338.1 1.5.9c9.5 6.1 22.3 3.3 28.4-6.3l40.6-63.5c6.1-9.5 3.3-22.3-6.3-28.4l-1.5-.9c-9.5-6.1-22.3-3.3-28.4 6.3l-40.6 63.5c-6.1 9.5-3.3 22.3 6.3 28.4"/><path d="M95.4 340.2c11.4 7.3 25.6 5.2 33.3-6.3 3.3-4.9 6.4-10 9.6-14.9 10.1-15.8 20.3-31.5 30.3-47.4 6-9.5 5.7-21.8-2.7-30-9.7-9.5-25.8-10.1-35 .5-3.8 4.5-6.7 10-9.8 15-5.8 9-11.5 18-17.3 27-4.9 7.7-9.9 15.4-14.8 23.2-7.2 11.3-4.8 25.2 6.4 32.9 2.7 1.8 5.2-2.5 2.5-4.3-9.6-6.6-9.9-17.9-4.1-27 3.7-5.8 7.5-11.7 11.2-17.5 8.9-14 17.8-27.9 26.8-41.9 5.5-8.6 15.4-13.5 25.2-8.2 10.5 5.7 13.8 17.4 7.5 27.6-8.3 13.2-16.8 26.4-25.3 39.5-4.4 6.9-8.9 13.9-13.3 20.8-6.5 10.2-17.4 13.5-27.9 6.7-2.8-1.7-5.3 2.6-2.6 4.3"/><path fill="#074a4f" d="M371.8 231c7.3 0 7.6-55.6 7.6-55.6l13 9.3-12-38c14.3 3 26.3-7 26.3-7s-16.7-2.7-28.3-21c-11.7-18.3-39.6-29.8-39.6-29.8 12.4.6 25-10.9 25-10.9s-31.7-1-58.2-14.3-56.8-1.3-56.8-1.3-26.6-12-53.1 1.3S137.3 78 137.3 78s12.6 11.5 25 10.9c0 0-28 11.4-39.6 29.8-11.7 18.3-28.3 21-28.3 21s12 10 26.3 7l-12 38 13-9.3s.3 37.6 7.6 55.6H372"/><path fill="#4edadd" d="m405.1 337.3-1.5.9c-9.5 6.1-22.3 3.3-28.4-6.3l-40.6-63.5c-6.1-9.5-3.3-22.3 6.3-28.4l1.5-.9c9.5-6.1 22.3-3.3 28.4 6.3l40.6 63.5c6 9.5 3.2 22.3-6.3 28.4"/><path d="M403.8 335.1c-9.7 6.2-20.8 4.2-27.2-5.6-3.5-5.3-6.9-10.7-10.3-16.1-9.2-14.4-18.4-28.7-27.5-43.1-4.7-7.3-7.2-15.5-1.7-23.4 7.7-11.1 24.1-11.2 31.7 0 8.3 12.3 16 25.1 24.1 37.6 4.7 7.4 9.4 14.7 14.1 22.1 1 1.5 2 3 2.9 4.6 4.5 8.4 1.6 18.6-6.1 23.9-2.6 1.8-.1 6.1 2.5 4.3 10.7-7.4 13.7-21 6.9-32.2-3.5-5.7-7.2-11.2-10.8-16.9-9.8-15.3-19.3-30.6-29.3-45.8-6.8-10.3-19.9-14.4-31-8.4-12.3 6.6-17.1 21.3-9.8 33.5 8.4 14.1 17.8 27.8 26.6 41.6 4.6 7.1 9 14.3 13.7 21.4 7.7 11.8 22 14.2 33.6 6.7 2.8-1.6.3-5.9-2.4-4.2"/><path fill="#078c85" d="M356.5 249.4c1-1.3 33.5-10.1 52.7 35.9-3 3-42.2 7.9-52.7-35.9"/><path d="M358.3 251.1c-.7.7 0 .1 1.1-.2 1.2-.3 2.5-.5 3.7-.5 4.3-.3 8.6.3 12.7 1.7 15.6 5.1 25.2 20.1 31.3 34.5.1-1 .3-2 .4-3 .3-.2-1.1.4-1.9.6-1.6.4-3.2.5-4.8.6-4.9.2-9.8-.6-14.4-2.2-15.2-5.1-23.7-18.9-27.4-33.8-.8-3.1-5.6-1.8-4.8 1.3 4.2 16.7 14.1 31.6 30.9 37.3 5.3 1.8 11 2.6 16.6 2.3 3-.2 7-.4 9.3-2.5.9-.8.8-2 .4-3-6.8-15.9-17.7-31.7-35-37-4.6-1.4-9.6-2-14.5-1.5-2.1.2-5.5.4-7.1 2.1-2.3 2.1 1.2 5.6 3.5 3.3"/><path d="M356 251.5c17 11.7 33.9 23.3 50.9 35 1.6 1.1 3.1-1.5 1.5-2.6-17-11.7-33.9-23.3-50.9-35-1.6-1-3.1 1.6-1.5 2.6"/><path d="M389.2 274.4c2.4 4.1 4.8 8.2 7.3 12.3 1 1.7 3.6.2 2.6-1.5l-7.2-12.3c-1.1-1.6-3.7-.1-2.7 1.5M384.2 270.3c4.6-.3 9.3-.7 13.9-1 1.9-.1 1.9-3.1 0-3-4.6.3-9.3.7-13.9 1-2 .1-2 3.1 0 3M372.9 263.2c3.1 6.6 6.3 13.2 9.4 19.8.8 1.7 3.4.2 2.6-1.5-3.1-6.6-6.3-13.2-9.4-19.8-.8-1.7-3.4-.2-2.6 1.5M366.4 258.1c6.1-.7 12.1-1.3 18.2-2 1.9-.2 1.9-3.2 0-3-6.1.7-12.1 1.3-18.2 2-1.9.2-1.9 3.2 0 3"/><path fill="#078c85" d="M146.2 244.4c-1-1.3-33.5-10.1-52.7 35.9 3 3 42.2 7.9 52.7-35.9"/><path d="M147.9 242.6c-1.6-1.7-5-1.9-7.1-2.1-4.8-.5-9.8.1-14.5 1.5-17.3 5.3-28.3 21.1-35 37-.4 1-.5 2.2.4 3 2.3 2.1 6.2 2.3 9.1 2.5 5.7.4 11.5-.5 16.9-2.3 16.9-5.7 26.7-20.6 30.9-37.3.8-3.1-4-4.5-4.8-1.3-3.7 14.9-12.3 28.7-27.4 33.8-4.5 1.5-9.3 2.3-14.1 2.2-1.6 0-3.3-.2-4.9-.5-.9-.2-2.3-.8-2.1-.6.1 1 .3 2 .4 3 6.1-14.4 15.7-29.3 31.3-34.5 4-1.3 8.2-1.9 12.4-1.7 1.4.1 2.7.2 4 .6 1.1.3 1.7.8 1.1.2 2.2 2.3 5.7-1.2 3.4-3.5"/><path d="M145.2 244c-17 11.7-33.9 23.3-50.9 35-1.6 1.1-.1 3.7 1.5 2.6 17-11.7 33.9-23.3 50.9-35 1.6-1.1.1-3.7-1.5-2.6"/><path d="m110.9 267.9-7.2 12.3c-1 1.7 1.6 3.2 2.6 1.5l7.2-12.3c1-1.6-1.6-3.1-2.6-1.5M118.5 262.3c-4.6-.3-9.3-.7-13.9-1-1.9-.1-1.9 2.9 0 3 4.6.3 9.3.7 13.9 1 1.9.1 1.9-2.9 0-3M127.1 256.7c-3.1 6.6-6.3 13.2-9.4 19.8-.8 1.7 1.8 3.3 2.6 1.5 3.1-6.6 6.3-13.2 9.4-19.8.9-1.7-1.7-3.2-2.6-1.5M136.2 250.1c-6.1-.7-12.1-1.3-18.2-2-1.9-.2-1.9 2.8 0 3 6.1.7 12.1 1.3 18.2 2 2 .2 1.9-2.8 0-3"/><path fill="#fff" d="M381.1 349.2c-.2-6-2.6-18-5.4-31.8l-.1-.5c-3-14.8-6.6-33.2-6.8-41.2-.1-5 .1-12.2.1-19.8v-.4c0-15.6.1-37.1-1.4-51.2-1.2-11.5-5.6-40.7-19.2-62.5-12.6-20.2-27.9-33.2-47.9-41.4-18.4-7.4-52.1-8.3-53-8.3-8.6 0-30.7.7-49.1 8.1-20.1 8.1-35.3 21.3-47.9 41.5-13.6 21.8-17.9 51-19.1 62.5-1.5 14.1-1.4 35.5-1.2 51.2v3.6c0 6.3 0 12.3-.1 16.6-.2 8.1-3.9 26.5-6.9 41.3l-.1.6c-2.7 13.8-5.1 25.7-5.4 31.7-.6 15.4 3.8 25.7 14.9 35.8 7.1 6.4 14 9.5 21.7 9.5 4.1 0 7.8-.8 11.9-1.8 1.1-.3 2.3-.6 3.5-1.1 4 2.2 11.7 5.6 21.7 5.6 6.5 0 14.1-1.4 22.4-5.4 4.8 3.9 9.7 7.5 9.7 7.5 12.9 7.3 24 8.8 25.6 8.8h.4c1.6 0 12.7-.9 26.1-8.8 0 0 4.3-3.1 8.8-6.7 7.7 3.4 14.7 4.6 20.8 4.6 10.9 0 19-3.9 22.7-6.1 1.8.7 3.3 1.3 4.9 1.7 4 1 7.7 1.8 11.8 1.8 7.8 0 14.4-2.9 21.6-9.5 11.3-10.1 15.6-20.5 15-35.9"/><path fill="#074a4f" d="M126 325.5c85.3 12.2 169.7 12.5 253 0l-2.1-10c-82.3 12.5-164.5 12.2-248.8 0z"/><path fill="#4edadd" d="M125 326.9s103 9.6 128.9 9.1 121.1-9.6 121.1-9.6 14.2 27.3 4.1 44.1-26.5 26.8-47.4 19.9-22.6-14.2-46.1 0-36.8 21.5-54.7 11-26.4-23-37.1-20.3-36.9 20.6-60.8 5.3-8-59.5-8-59.5"/><path fill="#4edadd" d="M125 315.5c84.3 12.2 167.6 12.5 249.9 0-9.6-26.3-8-63.5-8-63.5-34.2 4.7-68.3 7.3-102.4 7.9l-11.7 24.8-12.6-24.7c-35.2-.4-70.4-3.1-105.5-7.9 0-.1 1.8 39.9-9.7 63.4"/><path d="M368.2 251.5c-11.1 5.7-22.3 11.1-33.7 16.2-8.8 3.9-17.6 7.7-26.7 10.9-5.1 1.7-12.5 5.1-18 3.8-5.9-1.4-11.3-8-15-12.4-2.5-3-4.9-6.3-7-9.7-1.7-2.7-6-.2-4.3 2.5 4.9 8 11.2 15.9 19 21.2 6.5 4.4 12.1 3.6 19.4 1.6 18.7-5.2 36.7-14 54.1-22.5 5-2.4 9.9-4.8 14.8-7.4 2.8-1.3.3-5.7-2.6-4.2M133.4 256.8c12.6 6.5 25.5 12.6 38.5 18.3 8.9 3.9 18 7.7 27.3 10.6 5.6 1.7 12.6 4.2 18.3 1.7 9.9-4.3 17.7-14.7 23.2-23.7 1.7-2.8-2.6-5.3-4.3-2.5-4.7 7.7-10.9 15.8-18.7 20.5-5.6 3.3-12.1.8-17.9-1.1-17.5-5.6-34.3-13.7-50.9-21.7-4.3-2.1-8.7-4.2-12.9-6.4-2.9-1.5-5.5 2.8-2.6 4.3"/><path fill="#c8c8c8" d="M285.5 389.9s8-6.1 16.8-7c8.8-1 23.8 5.5 23.8 5.5s-4.9 10-14.2 9.8c-9.4-.3-26.4-8.3-26.4-8.3M169.6 389.9s8-6.1 16.8-7 23.8 5.5 23.8 5.5-4.9 10-14.2 9.8-26.4-8.3-26.4-8.3"/><path d="M384.6 351.4c-.2-6.1-2.7-18.4-5.5-32.5l-.1-.5c-3-15.1-6.3-33.9-6.5-42.1-.1-5.1.5-12.5.5-20.3v-.4c0-16-.3-37.9-1.8-52.2-1.2-11.8-5.9-41.6-19.8-63.8-12.9-20.6-28.6-33.9-49.1-42.2-18.8-7.6-53.2-8.4-54.2-8.4-8.8 0-31.4.7-50.1 8.3-20.5 8.3-36 21.7-48.9 42.3-13.9 22.2-18.3 52.1-19.6 63.8-1.5 14.4-1.4 36.3-1.3 52.3v3.7c0 6.5 0 12.5-.1 16.9-.2 8.3-4 27-7 42.1l-.1.6c-2.8 14.1-5.2 26.3-5.5 32.4-.6 15.7 3.8 26.3 15.2 36.6 7.3 6.6 14.3 9.7 22.1 9.7 4.2 0 8-.8 12.1-1.9 1.1-.3 2.3-.7 3.5-1.1 4.1 2.3 11.9 5.7 22.2 5.7 6.7 0 14.4-1.4 22.9-5.5 4.9 4 9.9 7.4 10 7.4 13.2 7.5 24.5 8.7 26.2 8.7h.4c1.7 0 13-.7 26.7-8.7 0 0 4.4-3.1 8.9-6.7 7.8 3.5 15 4.8 21.3 4.8 11.2 0 19.4-4 23.2-6.2 1.8.7 3.4 1.3 5 1.7 4.1 1 7.9 1.9 12.1 1.9 7.9 0 14.7-3 22.1-9.6 11.4-10.5 15.8-21.1 15.2-36.8m-207.4 39.5c6.1-2.6 13.6-5.5 20.1-5.5 4.4 0 7.6 1.3 10.4 4.1l.2.2c-13.1 5.4-23.9 3.7-30.7 1.2m114.5-.5c.3-.3.6-.5.8-.8 2.8-2.8 6-4.2 10.4-4.2 6.1 0 13 2.5 18.9 5-6.4 2.5-17 4.8-30.1 0m72.8-7.8c-6 5.4-11.1 7.8-17.2 7.8-3.4 0-6.6-.7-10.4-1.6-2-.5-4.5-1.6-7.7-3l-.5-.2c-7-3.2-16.7-7.4-25.8-7.4-6.3 0-11.3 2.1-15.6 6.3-11 11.2-21.9 15.7-29.1 17.5-.1 0-7.1 1.9-15.2-.3-8.2-2.3-19.2-6.1-30.1-17.2-4.1-4.2-9.2-6.3-15.6-6.3-9 0-18.6 4.2-25.9 7.4l-.3.1c-3.3 1.4-5.8 2.6-7.9 3.1-3.8.9-7 1.6-10.4 1.6-6 0-11.3-2.4-17.2-7.8-9.8-8.9-13.3-17.3-12.8-30.9.2-5.5 2.6-17.4 5.4-31.2l.1-.6c3.2-16.1 6.9-34.4 7.2-43.4.1-4.5.1-10.6.1-17.1v-3.7c-.1-15.8-.3-37.5 1.2-51.4 1.2-11.3 5.4-39.8 18.5-60.7 12-19.3 26.5-31.8 45.4-39.5 17.6-7.1 39-8.2 47.4-8.2.8 0 33.8.8 51.4 7.9 19 7.7 33.4 20.4 45.5 39.6 13.1 21 18 49.5 19.2 60.8 1.5 14 1.9 35.7 1.9 51.5v.4c0 7.8-.8 15.2-.7 20.4.2 8.9 3.6 27.2 6.8 43.4l-.1.5c2.8 13.8 5.1 25.8 5.3 31.3.5 13.6-3.1 22-12.9 30.9"/><path fill="#074a4f" d="M140.2 140.4s-.9 9 .8 18.3 5.8 15.4 5.8 15.4 10.9-28.8 13.9-35.4 7.4-11.1 7.4-11.1l4.9 18.7 11.2-20.4s-.1 10.5 4 18.2 13.6 14.8 13.6 14.8-3.2-16.9-1.1-28.3c0 0 9.3 16.9 24.5 30.5 15.3 13.6 22.7 17.5 22.7 17.5s16.2-21.3 9.5-55.5c0 0 13.2 18.6 14.3 33.2 0 0 25.3-18.3 22.9-44.9l17.9 28.8 2.7-18.7s17.8 15.5 25.4 26.3 13.3 23.5 13.3 23.5 8.9-5.4 1.5-33.9c0 0-25.1-60.3-108.4-53.8s-106.8 56.8-106.8 56.8"/><path d="M324.2 191.9c0 10.6-8.6 19.1-19.1 19.1-10.6 0-19.1-8.6-19.1-19.1 0-.9.1-1.8.2-2.6 1.2.8 2.6 1.3 4.1 1.3 4 0 7.2-3.2 7.2-7.2 0-2.9-1.7-5.4-4.1-6.5 3.2-2.5 7.3-4 11.7-4 10.5-.1 19.1 8.5 19.1 19M214.1 191.9c0 10.6-8.6 19.1-19.1 19.1-10.6 0-19.1-8.6-19.1-19.1 0-.9.1-1.8.2-2.6 1.2.8 2.6 1.3 4.1 1.3 4 0 7.2-3.2 7.2-7.2 0-2.9-1.7-5.4-4.1-6.5 3.2-2.5 7.3-4 11.7-4 10.5-.1 19.1 8.5 19.1 19"/><ellipse cx="166.4" cy="228.6" fill="#f68694" rx="7.4" ry="3.4" transform="rotate(-44.198 166.406 228.55)"/><ellipse cx="180.5" cy="229.7" fill="#f68694" rx="7.4" ry="3.4" transform="rotate(-44.198 180.46 229.72)"/><ellipse cx="194.5" cy="229.7" fill="#f68694" rx="7.4" ry="3.4" transform="rotate(-44.198 194.513 229.721)"/><ellipse cx="333.9" cy="229.7" fill="#f68694" rx="7.4" ry="3.4" transform="rotate(224.198 333.885 229.722)"/><ellipse cx="319.8" cy="230.9" fill="#f68694" rx="7.4" ry="3.4" transform="rotate(224.198 319.83 230.893)"/><ellipse cx="305.8" cy="230.9" fill="#f68694" rx="7.4" ry="3.4" transform="rotate(224.198 305.777 230.893)"/><path d="M233.8 81.3c-13.3.4-27.7 5-38 13.5-17.2 14.1-19.8 40-6.3 57.5 3.7 4.8 8.5 9.4 13.9 12.4 1.8 1 4.4-.7 3.7-2.8-3.2-9.7-5.3-20.4-4.1-30.6-1.6.4-3.1.8-4.7 1.3 10.1 20.9 29.4 38.2 48.8 50.1 1.1.7 2.8.3 3.4-.9 9-17.8 13.1-39.2 10.3-58.9-1.5.6-3 1.3-4.6 1.9 5.8 10.6 11.1 22.9 11.9 35 .2 2.2 2.6 3.2 4.3 1.8 9-7.7 16.8-17.9 21.6-28.6 3.5-8 5.3-16.7 3.7-25.3-2.1-11-9.6-19.4-18.3-26-2.6-1.9-5.1 2.4-2.5 4.3 8.4 6.4 15.5 15 16.3 25.9.6 8-1.9 16-5.7 23-4.7 8.7-11.2 16.8-18.6 23.2 1.4.6 2.8 1.2 4.3 1.8-.9-13.1-6.4-26.1-12.6-37.5-1.5-2.7-4.9-.7-4.6 1.9 2.6 18.3-1.4 38.6-9.7 55.1 1.1-.3 2.3-.6 3.4-.9-18.7-11.5-37.3-28.2-47-48.4-1.2-2.5-4.4-.9-4.7 1.3-1.3 10.6.9 21.9 4.3 31.9 1.2-.9 2.4-1.9 3.7-2.8-11.4-6.4-20-19.3-20.2-32.4-.3-21.1 15.7-34.8 34.7-39.6 4.4-1.1 8.9-2 13.4-2.1 3.1-.2 3.1-5.2-.1-5.1"/><path d="M293.1 111c5.2 12.1 11.2 24.2 18.8 35 1.4 2 4.5 1.3 4.7-1.3.4-7.3.8-14.5 1.2-21.8-1.4.6-2.8 1.2-4.3 1.8 6.1 5 11.7 10.7 16.9 16.5 9.2 10.3 18.5 22.4 20.9 36.4.4 2.1 3.7 2.5 4.6.6 6.1-12.5 8-28.1 2.3-41-1.3-2.9-5.6-.4-4.3 2.5 5 11.1 3 25.2-2.3 36 1.5.2 3 .4 4.6.6-2.4-14-11.5-26.3-20.6-36.7-5.7-6.5-11.9-12.8-18.6-18.4-1.7-1.4-4.1-.5-4.3 1.8-.4 7.3-.8 14.5-1.2 21.8 1.6-.4 3.1-.8 4.7-1.3-7.5-10.8-13.6-22.9-18.8-35-1.3-3-5.6-.4-4.3 2.5M180.7 124.6c-.9 7.9-5.7 17.7-10.6 24.9 1.5.2 3 .4 4.6.6-1.4-7.3-2.8-14.5-4.2-21.8-.4-2.3-3.4-2.2-4.6-.6-10.3 14.5-18.1 32.1-21 49.6 1.5-.2 3-.4 4.6-.6-5.9-9.4-8.3-21.3-7.2-32.3.3-3.2-4.7-3.2-5 0-1.2 11.8 1.5 24.7 7.8 34.8 1 1.7 4.2 1.6 4.6-.6 2.9-17.2 10.4-34.2 20.5-48.4-1.5-.2-3-.4-4.6-.6 1.4 7.3 2.8 14.5 4.2 21.8.4 2.3 3.5 2.2 4.6.6 5.5-8 10.2-17.6 11.3-27.4.4-3.2-4.6-3.1-5 0"/><path d="M249.9 60.2c-17.5-8.1-38.4-6.5-55.4 1.7-17.2 8.3-37.1 13-56.2 13.6-2 .1-3.5 2.8-1.8 4.3 7.2 6.5 16.9 11.7 26.7 11.6-.2-1.6-.4-3.3-.7-4.9-12.3 5.1-24.4 12.4-33.8 21.8-7.4 7.5-11.8 17-20.8 23-4 2.7-8.6 5.1-13.4 5.9-1.8.3-2.5 3-1.1 4.2 8 6.5 18.6 9.4 28.8 7.6l-3.1-3.1c-4 12.7-8 25.3-12 38-.6 2 1.9 4.1 3.7 2.8 4.3-3.1 8.7-6.2 13-9.3-1.3-.7-2.5-1.4-3.8-2.2.2 18.4.9 38.9 7.7 56.2 1.2 3 6 1.7 4.8-1.3-6.6-17-7.3-36.9-7.5-54.9 0-1.8-2.2-3.3-3.8-2.2-4.3 3.1-8.7 6.2-13 9.3 1.2.9 2.4 1.9 3.7 2.8 4-12.7 8-25.3 12-38 .6-2-1.3-3.4-3.1-3.1-8.2 1.5-17.4-1.1-23.9-6.4-.4 1.4-.7 2.8-1.1 4.2 4.3-.7 8.5-2.7 12.2-4.9 3.8-2.2 7.3-5 10.4-8.1 4-4.1 6.7-9 10.3-13.3 9-10.5 23.3-19.2 35.3-24.2 2.4-1 2.4-4.9-.7-4.9-8.5.1-17-4.6-23.2-10.2-.6 1.4-1.2 2.8-1.8 4.3 17-.6 34.6-4.3 50.3-10.6 6.4-2.6 12.4-6 19-7.9 6.5-1.8 13.3-2.4 20.1-2 6.5.4 13.7 1.7 19.6 4.5 3 1.3 5.6-3 2.6-4.3"/><path d="M249.3 64.7c6.1-2.5 12.8-3.8 19.3-4.5s13.2-.6 19.7.6c7.6 1.4 14.1 4.8 21.1 7.8 16.5 7.1 35.2 11.2 53.3 11.8-.6-1.4-1.2-2.8-1.8-4.3-6.2 5.6-14.7 10.3-23.2 10.2-3 0-3.1 3.9-.7 4.9 12 4.9 26.3 13.7 35.1 24.4 3.4 4.2 6 8.8 9.8 12.8 3.1 3.2 6.6 6.1 10.4 8.4s8.2 4.4 12.7 5.2c-.4-1.4-.7-2.8-1.1-4.2-6.5 5.3-15.7 7.8-23.9 6.4-1.8-.3-3.7 1.1-3.1 3.1 4 12.7 8 25.3 12 38 1.2-.9 2.4-1.9 3.7-2.8-4.3-3.1-8.7-6.2-13-9.3-1.6-1.1-3.7.4-3.8 2.2-.2 18-.9 37.9-7.5 54.9-1.2 3 3.7 4.3 4.8 1.3 6.7-17.3 7.5-37.8 7.7-56.2-1.3.7-2.5 1.4-3.8 2.2 4.3 3.1 8.7 6.2 13 9.3 1.8 1.3 4.3-.8 3.7-2.8-4-12.7-8-25.3-12-38l-3.1 3.1c10.1 1.8 20.8-1.1 28.8-7.6 1.4-1.1.7-3.9-1.1-4.2-4.6-.8-9.1-3-12.9-5.6-9.3-6-13.7-15.8-21.3-23.4-9.4-9.4-21.5-16.8-33.8-21.8-.2 1.6-.4 3.3-.7 4.9 9.9.1 19.5-5.2 26.7-11.6 1.7-1.5.3-4.2-1.8-4.3-20.4-.7-40.2-6.3-58.5-14.8-17.1-7.8-38.7-7.8-56.1-.8-2.8 1.1-1.6 6 1.4 4.7"/><path d="M285.8 159.1c6-14.1 32.7-13.9 38.8 0 1.3 2.9 5.6.4 4.3-2.5-7.5-17.2-40-17.4-47.5 0-1.1 2.9 3.2 5.4 4.4 2.5M175.8 159.1c6-14.1 32.7-13.9 38.8 0 1.3 2.9 5.6.4 4.3-2.5-7.5-17.2-40-17.4-47.5 0-1.1 2.9 3.2 5.4 4.4 2.5"/><path fill="#843131" d="M234 208s17.7 6.5 31.5 0c0 0-17.5 80.7-31.5 0"/><path d="M233.3 210.4c10.6 3.8 23 4.2 33.4-.3-1.2-.9-2.4-1.9-3.7-2.8-2 9.3-4.6 19.1-9.1 27.6-1.3 2.6-4.1 8.4-7.4 5.3-2.7-2.5-3.9-7-5-10.3-2.4-7.4-3.9-15-5.2-22.6-.6-3.2-5.4-1.8-4.8 1.3 1.8 10.4 3.5 22.4 9 31.7 2.1 3.6 5.6 7.2 10.1 5.6 4.2-1.5 6.7-6.4 8.5-10.2 2.5-5.3 4.4-11 6.1-16.7 1-3.5 1.9-6.9 2.7-10.4.5-2.3-1.7-3.7-3.7-2.8-9.1 3.9-20.3 3.1-29.6-.3-3-1-4.3 3.8-1.3 4.9M133 254.4c35.2 4.8 70.6 7.5 106.2 8-.7-.4-1.4-.8-2.2-1.2 4.2 8.2 8.4 16.5 12.6 24.7.8 1.6 3.5 1.7 4.3 0 3.9-8.3 7.8-16.5 11.7-24.8-.7.4-1.4.8-2.2 1.2 34.5-.6 68.9-3.3 103.1-8 3.2-.4 1.8-5.3-1.3-4.8-33.7 4.6-67.7 7.2-101.8 7.8-.8 0-1.8.5-2.2 1.2-3.9 8.3-7.8 16.5-11.7 24.8h4.3c-4.2-8.2-8.4-16.5-12.6-24.7-.4-.8-1.3-1.2-2.2-1.2-35.1-.5-70.1-3.1-104.8-7.8-3-.4-4.4 4.4-1.2 4.8M122.3 327.9c65.8 9.3 132.5 11.9 198.7 6.5 18.6-1.5 37.1-3.7 55.6-6.5 3.2-.5 1.8-5.3-1.3-4.8-83.4 12.4-168.3 11.8-251.7 0-3.1-.5-4.4 4.4-1.3 4.8"/><path d="M124.3 317.9c65 9.3 130.9 11.9 196.4 6.5 18.3-1.5 36.6-3.7 54.8-6.5 3.2-.5 1.8-5.3-1.3-4.8-82.4 12.4-166.2 11.8-248.6 0-3.1-.5-4.4 4.4-1.3 4.8"/><path fill="#c5fffd" d="M372.8 272.7s-.9 4.1.8 14.9c0 0-126.6 58.4-258.1 71.4l2.1-12s126.6-13 255.2-74.3"/><path d="M370.4 272c-1 5.3.1 11 .8 16.2.4-.9.8-1.9 1.1-2.8-16.6 7.6-33.7 14.2-50.8 20.6-39.5 14.6-80 27-121.1 36.4-28 6.4-56.4 11.3-84.9 14.2.8 1.1 1.6 2.1 2.4 3.2l2.1-12-2.4 1.8c16.9-1.7 33.8-4.8 50.5-8 41.7-8.1 82.9-19.1 123.1-32.9 28.2-9.7 55.9-20.9 82.8-33.8 2.9-1.4.4-5.7-2.5-4.3-74.5 35.3-155.3 59.4-236.8 71.6-5.7.9-11.3 1.7-17 2.3-1 .1-2.2.7-2.4 1.8l-2.1 12c-.3 1.4.6 3.3 2.4 3.2 83.1-8.3 165.1-32.3 242-64.3 5.8-2.4 11.6-4.8 17.3-7.5 1.1-.5 1.3-1.8 1.1-2.8-.6-4.1-1.5-9.8-.8-13.6.6-3.1-4.2-4.5-4.8-1.3"/><circle cx="295.8" cy="310.5" r="10.8" fill="#e6fcfc"/><path d="M305.1 310.5c-.6 11.9-18.6 12-18.6 0 0-12.1 18-11.9 18.6 0 .1 1.9 3.1 1.9 3 0-.4-6.7-5.3-12.3-12.3-12.3-6.7 0-12.3 5.6-12.3 12.3 0 6.5 5.2 12 11.7 12.3 7.2.3 12.5-5.4 12.9-12.3.1-2-2.9-2-3 0"/><path fill="#4edadd" d="M302.1 310.2c0 3.6-2.9 6.6-6.6 6.6-3.6 0-6.6-2.9-6.6-6.6"/><circle cx="267.8" cy="320.5" r="10.8" fill="#e6fcfc"/><path d="M277.1 320.5c-.6 11.9-18.6 12-18.6 0 0-12.1 18-11.9 18.6 0 .1 1.9 3.1 1.9 3 0-.4-6.7-5.3-12.3-12.3-12.3-6.7 0-12.3 5.6-12.3 12.3 0 6.5 5.2 12 11.7 12.3 7.2.3 12.5-5.4 12.9-12.3.1-2-2.9-2-3 0"/><path fill="#4edadd" d="M274.1 320.2c0 3.6-2.9 6.6-6.6 6.6-3.6 0-6.6-2.9-6.6-6.6"/><circle cx="325.8" cy="299.5" r="10.8" fill="#e6fcfc"/><path d="M335.1 299.5c-.6 11.9-18.6 12-18.6 0 0-12.1 18-11.9 18.6 0 .1 1.9 3.1 1.9 3 0-.4-6.7-5.3-12.3-12.3-12.3-6.7 0-12.3 5.6-12.3 12.3 0 6.5 5.2 12 11.7 12.3 7.2.3 12.5-5.4 12.9-12.3.1-2-2.9-2-3 0"/><path fill="#4edadd" d="M332.1 299.2c0 3.6-2.9 6.6-6.6 6.6-3.6 0-6.6-2.9-6.6-6.6"/><path fill="#6b3428" d="m299.7 271.7-10.6 1.9-3.5-12.8 13.1-2.3z"/><path d="M299.3 270.3c-3.6.6-7.1 1.2-10.7 1.9.6.3 1.2.7 1.8 1-1.2-4.3-2.3-8.5-3.5-12.8-.3.6-.7 1.2-1 1.8 4.3-.8 8.7-1.5 13-2.3-.6-.5-1.3-1-1.9-1.4.4 4.4.7 8.8 1.1 13.2.2 1.9 3.2 1.9 3 0-.4-4.4-.7-8.8-1.1-13.2-.1-1-.9-1.6-1.9-1.4-4.3.8-8.7 1.5-13 2.3-.8.1-1.2 1.1-1 1.8 1.2 4.3 2.3 8.5 3.5 12.8.2.8 1 1.2 1.8 1 3.6-.6 7.1-1.2 10.7-1.9 1.9-.3 1.1-3.2-.8-2.8"/><path fill="#e6fcfc" d="M322.5 310.8c2 11.5-5.7 22.4-17.1 24.4s-22.4-5.7-24.4-17.1c-1.6-9.2 3-18 10.7-22.2l-2.7-15.6q-.15-.6 0-1.2l-.8.1c-.9.2-1.7-.4-1.8-1.3l-.5-2.9c-.2-.9.4-1.7 1.3-1.8l14.4-2.5c.9-.2 1.7.4 1.8 1.3l.5 2.9c.2.9-.4 1.7-1.3 1.8l-.8.1c.2.3.4.7.4 1.1l2.7 15.6c8.7 1.4 16 8.2 17.6 17.3"/><path d="M321.1 311.2c2.1 14.9-12.7 27.3-26.9 21.3-15.2-6.4-15.5-27.2-1.8-35.3.6-.4.8-1 .7-1.7-.9-5.2-2.8-11.1-2.6-16.4 0-1.1-1-1.6-1.9-1.4s-1.2-1.3-1.1-2c.2-1.4-.1-.5.8-1.1 1.2-.9 4.9-.9 6.4-1.1 1.4-.2 5.1-1.6 6.4-1.1.8.3 2.1 2.8.2 3.2-.7.1-1.3 1.1-1 1.8 2 5.1 2.2 11.3 3.2 16.7.1.5.6 1 1 1 8.7 1.6 14.8 7.5 16.6 16.1.4 1.9 3.3 1.1 2.9-.8-1-4.9-3.3-9.3-7-12.7q-2.4-2.25-5.4-3.6c-.9-.5-1.9-.8-2.9-1.2-.5-.2-3-.6-2.3 0-1.2-1.1-1.2-7-1.5-8.6-.5-2.6-.6-5.4-1.6-7.9-.3.6-.7 1.2-1 1.8 3.6-.6 4.2-5.7 1.8-8.1-2.1-2.2-7.5-.1-10.1.3-2.7.5-8.4.3-9.4 3.5-1 3.4 1.2 7.2 4.9 6.5-.6-.5-1.3-1-1.9-1.4-.2 5.6 1.8 11.6 2.7 17.2.2-.6.5-1.1.7-1.7-15.9 9.3-15.4 33.3 2.1 40.7 16.7 7.1 33.4-7.7 31-24.9-.4-1.8-3.3-1-3 .9"/><path fill="#3ad8d0" d="M317.5 314.4c-.2 8.3-7.1 15-15.4 14.8s-15-7.1-14.8-15.4"/><path fill="#fff" d="M330.5 336.3c-.3-.1-.6-.1-.9-.2-9.9-2.1-26-10.6-23.8-23.6s18.3-16.6 28.7-16.3z"/><path d="M331.1 333.9c-9.2-1.8-24.2-8.7-23-20.1 1.2-12.2 16.5-15.2 26.4-15l-2.5-2.5c-1.3 13.4-2.7 26.7-4 40.1-.3 3.2 4.7 3.2 5 0 1.3-13.4 2.7-26.7 4-40.1.1-1.4-1.3-2.5-2.5-2.5-12.5-.3-29.2 4.3-31.2 18.8-2.1 14.5 14.5 23.9 26.5 26.2 3.1.5 4.5-4.3 1.3-4.9"/><path fill="#4edadd" d="M396.7 301.7s-48.6-7.9-51.9-9.1-11 4.1-11 4.1v-.1l-3.5 37.1s1.9 7.1 9.9 5.9c7.9-1.2 54.2 1.4 54.2 1.4"/><path d="M397.4 299.3c-11.3-1.8-22.5-3.7-33.8-5.6-5.6-1-11.3-1.8-16.9-3.1-5.3-1.2-9.8 1-14.2 4 1.3.7 2.5 1.4 3.8 2.2v-.1c0-3.3-4.7-3.2-5 0l-1.8 19.5c-.4 4.2-.8 8.3-1.2 12.5-.2 1.8-.7 4-.4 5.8 1.6 8.2 10.5 7.5 16.7 7.4 9.2-.2 18.5.2 27.8.6 7.3.3 14.7.7 22 1.1 3.2.2 3.2-4.8 0-5-14.3-.8-28.6-1.5-42.9-1.7-5-.1-16.8 2.5-18.8-3.5.2.6.1.1.1-.7.1-1.2.2-2.4.3-3.5.4-3.9.7-7.9 1.1-11.8.6-6.8 1.3-13.7 1.9-20.5h-5v.1c0 1.8 2.2 3.2 3.8 2.2 2.2-1.5 5.3-3.8 8-3.9 1.4-.1 3 .5 4.4.8 5.9 1.2 11.8 2.2 17.8 3.2 10.3 1.8 20.5 3.5 30.8 5.1 3.3.2 4.7-4.6 1.5-5.1M248 336v67c0 3.2 5 3.2 5 0v-67c0-3.2-5-3.2-5 0"/><circle cx="263.1" cy="348.1" r="5.8" fill="#175654"/><path d="M267.3 348.1c-.3 5.4-8.5 5.5-8.5 0s8.2-5.5 8.5 0c.1 1.9 3.1 1.9 3 0-.2-3.9-3.1-7.3-7.3-7.3-3.9 0-7.3 3.3-7.3 7.3 0 3.8 3.1 7.1 6.9 7.2 4.2.2 7.3-3.2 7.6-7.2.2-1.9-2.8-1.9-2.9 0"/><circle cx="252.1" cy="297.1" r="5.8" fill="#175654"/><path d="M256.3 297.1c-.3 5.4-8.5 5.5-8.5 0s8.2-5.5 8.5 0c.1 1.9 3.1 1.9 3 0-.2-3.9-3.1-7.3-7.3-7.3-3.9 0-7.3 3.3-7.3 7.3 0 3.8 3.1 7.1 6.9 7.2 4.2.2 7.3-3.2 7.6-7.2.2-1.9-2.8-1.9-2.9 0"/><circle cx="263.1" cy="368.1" r="5.8" fill="#175654"/><path d="M267.3 368.1c-.3 5.4-8.5 5.5-8.5 0s8.2-5.5 8.5 0c.1 1.9 3.1 1.9 3 0-.2-3.9-3.1-7.3-7.3-7.3-3.9 0-7.3 3.3-7.3 7.3 0 3.8 3.1 7.1 6.9 7.2 4.2.2 7.3-3.2 7.6-7.2.2-1.9-2.8-1.9-2.9 0"/><circle cx="147.8" cy="348.5" r="10.8" fill="#e6fcfc"/><path d="M157.1 348.5c-.6 11.9-18.6 12-18.6 0 0-12.1 18-11.9 18.6 0 .1 1.9 3.1 1.9 3 0-.4-6.7-5.3-12.3-12.3-12.3-6.7 0-12.3 5.6-12.3 12.3 0 6.5 5.2 12 11.7 12.3 7.2.3 12.5-5.4 12.9-12.3.1-2-2.9-2-3 0"/><path fill="#4edadd" d="M154.1 348.2c0 3.6-2.9 6.6-6.6 6.6s-6.6-2.9-6.6-6.6"/><circle cx="178.8" cy="342.5" r="10.8" fill="#e6fcfc"/><path d="M188.1 342.5c-.6 11.9-18.6 12-18.6 0 0-12.1 18-11.9 18.6 0 .1 1.9 3.1 1.9 3 0-.4-6.7-5.3-12.3-12.3-12.3-6.7 0-12.3 5.6-12.3 12.3 0 6.5 5.2 12 11.7 12.3 7.2.3 12.5-5.4 12.9-12.3.1-2-2.9-2-3 0"/><path fill="#4edadd" d="M185.1 342.2c0 3.6-2.9 6.6-6.6 6.6s-6.6-2.9-6.6-6.6"/><path fill="#fff" d="M163.5 351.8c.3 0 .5.1.8.1 9 1.2 25.2-1.2 27.3-12.9 2-11.7-10.5-19.6-19.5-22.4z"/><path d="M162.8 354.2c10.4 1.6 26-.5 30.3-11.8 5.4-13.9-9-24.4-20.4-28.2-1.3-.4-2.8.5-3.1 1.7-2.9 11.7-5.7 23.5-8.6 35.2-.8 3.1 4.1 4.5 4.8 1.3 2.9-11.7 5.7-23.5 8.6-35.2-1 .6-2.1 1.2-3.1 1.7 8.5 2.8 22.2 11.3 16.8 22.2-3.9 8-16.3 9.3-24.1 8.1-3-.2-4.4 4.6-1.2 5"/><path fill="#4edadd" d="M111.1 301.9s48.4 8.7 52 8.7c3.5-.1 9 7.5 9 7.5v-.1l-9 36.1s-4.2 6-11.3 2.3-51.6-16.7-51.6-16.7"/><path d="M110.5 304.3c10.2 1.8 20.5 3.7 30.8 5.4 5.8 1 11.7 2 17.6 2.9 1.3.2 3 .1 4.3.5 2.8.8 5.2 4 6.9 6.3 1.3 1.8 3.8 1.5 4.6-.6v-.1c-1.6-.4-3.2-.9-4.8-1.3-2.9 11.8-5.1 24.1-8.9 35.6-.1.3-.3.8.1.1.5-.8-.6.5-.9.7-2.8 1.6-4.5 1.4-7.6.1-2.7-1.1-5.3-2.2-8-3.1-8.6-3-17.2-5.6-25.9-8.3-5.9-1.8-11.7-3.5-17.6-5.2-3.1-.9-4.4 3.9-1.3 4.8 14.8 4.3 29.7 8.6 44.3 13.8 6.7 2.4 14.5 7.4 20.4.7 1.2-1.4 1.5-2.8 1.9-4.6.9-3.7 1.8-7.3 2.7-11 1.9-7.5 3.7-14.9 5.6-22.4.8-3.2-3.8-4.3-4.8-1.3v.1c1.5-.2 3-.4 4.6-.6-3.2-4.3-6.7-8.2-12.1-8.8-5.6-.6-11.1-1.7-16.6-2.6-11.3-1.9-22.5-3.9-33.7-5.9-3.5-.5-4.8 4.3-1.6 4.8"/><circle cx="208.8" cy="336.5" r="10.8" fill="#e6fcfc"/><path d="M218.1 336.5c-.6 11.9-18.6 12-18.6 0 0-12.1 18-11.9 18.6 0 .1 1.9 3.1 1.9 3 0-.4-6.7-5.3-12.3-12.3-12.3-6.7 0-12.3 5.6-12.3 12.3 0 6.5 5.2 12 11.7 12.3 7.2.3 12.5-5.4 12.9-12.3.1-2-2.9-2-3 0"/><path fill="#4edadd" d="M215.1 336.2c0 3.6-2.9 6.6-6.6 6.6s-6.6-2.9-6.6-6.6"/><circle cx="238.8" cy="328.5" r="10.8" fill="#e6fcfc"/><path d="M248.1 328.5c-.6 11.9-18.6 12-18.6 0 0-12.1 18-11.9 18.6 0 .1 1.9 3.1 1.9 3 0-.4-6.7-5.3-12.3-12.3-12.3-6.7 0-12.3 5.6-12.3 12.3 0 6.5 5.2 12 11.7 12.3 7.2.3 12.5-5.4 12.9-12.3.1-2-2.9-2-3 0"/><path fill="#4edadd" d="M245.1 328.2c0 3.6-2.9 6.6-6.6 6.6s-6.6-2.9-6.6-6.6"/><circle cx="354.8" cy="288.5" r="10.8" fill="#e6fcfc"/><path d="M364.1 288.5c-.6 11.9-18.6 12-18.6 0 0-12.1 18-11.9 18.6 0 .1 1.9 3.1 1.9 3 0-.4-6.7-5.3-12.3-12.3-12.3-6.7 0-12.3 5.6-12.3 12.3 0 6.5 5.2 12 11.7 12.3 7.2.3 12.5-5.4 12.9-12.3.1-2-2.9-2-3 0"/><path fill="#4edadd" d="M361.1 288.2c0 3.6-2.9 6.6-6.6 6.6-3.6 0-6.6-2.9-6.6-6.6"/><path d="M319.7 93.4c9.3-19.3 27.8-35.7 48.9-40 3.2-.6 1.8-5.5-1.3-4.8-22.3 4.6-42.1 21.9-51.9 42.3-1.4 2.9 2.9 5.4 4.3 2.5"/><circle cx="365.8" cy="48.9" r="14.4" fill="#f789a3"/><path d="M377.7 48.9c-.3 6.5-5.2 11.9-11.9 11.9-6.5 0-11.9-5.4-11.9-11.9S359.3 37 365.8 37c6.7 0 11.6 5.4 11.9 11.9.2 3.2 5.2 3.2 5 0-.4-9.2-7.4-16.9-16.9-16.9-9.2 0-16.9 7.7-16.9 16.9s7.7 16.9 16.9 16.9c9.5 0 16.5-7.7 16.9-16.9.1-3.2-4.9-3.2-5 0M187.4 90.9c-9.8-20.4-29.6-37.8-51.9-42.3-3.1-.6-4.5 4.2-1.3 4.8 21.1 4.3 39.6 20.7 48.9 40 1.3 2.9 5.6.4 4.3-2.5"/><circle cx="136.9" cy="48.9" r="14.4" fill="#f789a3"/><path d="M120 48.9c.4 9.2 7.4 16.9 16.9 16.9 9.2 0 16.9-7.7 16.9-16.9S146.1 32 136.9 32c-9.5 0-16.5 7.7-16.9 16.9-.2 3.2 4.8 3.2 5 0 .3-6.5 5.2-11.9 11.9-11.9 6.5 0 11.9 5.4 11.9 11.9s-5.4 11.9-11.9 11.9c-6.7 0-11.6-5.4-11.9-11.9-.2-3.2-5.2-3.2-5 0"/></g><g><g><path fill="#f789a3" d="m256.8 135.1-6.8-33 17.3 33z"/><path d="M258.2 134.7c-2.3-11-4.5-22-6.8-33l-2.7 1.2c5.8 11 11.6 22 17.3 33 .4-.8.9-1.5 1.3-2.3h-10.6c-1.9 0-1.9 3 0 3h10.6c1.2 0 1.8-1.3 1.3-2.3-5.8-11-11.6-22-17.3-33-.8-1.6-3.1-.4-2.7 1.2 2.3 11 4.5 22 6.8 33 .3 1.9 3.2 1.1 2.8-.8"/><path fill="#fcd" d="m250 168.1 6.8-33h10.5z"/><path d="M251.4 168.5c2.3-11 4.5-22 6.8-33-.5.4-1 .7-1.4 1.1h10.6c-.4-.8-.9-1.5-1.3-2.3-5.8 11-11.6 22-17.3 33-.9 1.7 1.7 3.2 2.6 1.5 5.8-11 11.6-22 17.3-33 .5-1-.1-2.3-1.3-2.3h-10.6c-.6 0-1.3.5-1.4 1.1-2.3 11-4.5 22-6.8 33-.4 2 2.4 2.8 2.8.9"/><path fill="#4edadd" d="m232.7 135.1 17.3-33 6.8 33z"/><path d="M234 135.8c5.8-11 11.6-22 17.3-33-.9-.1-1.8-.2-2.7-.4 2.2 11 4.5 22 6.7 33 .5-.6 1-1.3 1.4-1.9h-24.1c-1.9 0-1.9 3 0 3h24.1c1 0 1.6-1 1.4-1.9-2.2-11-4.5-22-6.7-33-.3-1.3-2.2-1.5-2.7-.4-5.8 11-11.6 22-17.3 33-.9 1.8 1.7 3.4 2.6 1.6"/><path fill="#92ffff" d="m250 168.1-17.3-33h24.1z"/><path d="M251.3 167.3c-5.8-11-11.6-22-17.3-33-.4.8-.9 1.5-1.3 2.3h24.1c-.5-.6-1-1.3-1.4-1.9-2.2 11-4.5 22-6.7 33-.4 1.9 2.5 2.7 2.9.8 2.2-11 4.5-22 6.7-33 .2-.9-.4-1.9-1.4-1.9h-24.1c-1.2 0-1.8 1.3-1.3 2.3 5.8 11 11.6 22 17.3 33 .8 1.7 3.4.1 2.5-1.6"/></g></g></svg>