<svg xmlns="http://www.w3.org/2000/svg" xml:space="preserve" viewBox="0 0 500 500"><g><path fill="#7f0909" d="M344.9 143.3S395.7 128 429 90.4c0 0-34 97.9-60.4 130.5z"/><path d="M345.6 145.7c31.8-9.6 63.1-28.9 85.2-53.6l-4.2-2.4c-11.8 34-25.2 67.9-41.7 99.9-5.2 10.2-10.8 20.5-18 29.4 1.4.4 2.8.7 4.2 1.1-7.9-25.8-15.8-51.7-23.7-77.5-.9-3.1-5.8-1.8-4.8 1.3 7.9 25.8 15.8 51.7 23.7 77.5.5 1.6 2.9 2.6 4.2 1.1 13.8-17.3 23.2-38.3 32.1-58.3 8.8-19.8 16.8-40 24.3-60.3 1.6-4.3 3.2-8.6 4.7-12.9.8-2.3-2.5-4.3-4.2-2.4-21.5 24.1-52 42.9-83 52.3-3.2.9-1.9 5.7 1.2 4.8"/><path fill="#7f0909" d="M164 143.3S113.2 128 79.9 90.4c0 0 34 97.9 60.4 130.5z"/><path d="M164.7 140.9c-31-9.4-61.4-28.2-83-52.3-1.6-1.8-5 .1-4.2 2.4 12.1 34.8 25.7 69.5 42.7 102.2 5.3 10.2 11 20.4 18.3 29.4 1.2 1.5 3.7.5 4.2-1.1 7.9-25.8 15.8-51.7 23.7-77.5.9-3.1-3.9-4.4-4.8-1.3-7.9 25.8-15.8 51.7-23.7 77.5 1.4-.4 2.8-.7 4.2-1.1-13.6-17-22.8-38.1-31.5-57.9C102 141.8 94.2 122 86.8 102c-1.5-4.1-3-8.2-4.4-12.3l-4.2 2.4c22.1 24.7 53.4 44 85.2 53.6 3 .9 4.3-3.9 1.3-4.8"/><path fill="#fff" d="M381.1 349.2c-.2-6-2.6-18-5.4-31.8l-.1-.5c-3-14.8-6.6-33.2-6.8-41.2-.1-5 .1-12.2.1-19.8v-.4c0-15.6.1-37.1-1.4-51.2-1.2-11.5-5.6-40.7-19.2-62.5-12.6-20.2-27.9-33.2-47.9-41.4-18.4-7.4-52.1-8.3-53-8.3-8.6 0-30.7.7-49.1 8.1-20.1 8.1-35.3 21.3-47.9 41.5-13.6 21.8-17.9 51-19.1 62.5-1.5 14.1-1.4 35.5-1.2 51.2v3.6c0 6.3 0 12.3-.1 16.6-.2 8.1-3.9 26.5-6.9 41.3l-.1.6c-2.7 13.8-5.1 25.7-5.4 31.7-.6 15.4 3.8 25.7 14.9 35.8 7.1 6.4 14 9.5 21.7 9.5 4.1 0 7.8-.8 11.9-1.8 1.1-.3 2.3-.6 3.5-1.1 4 2.2 11.7 5.6 21.7 5.6 6.5 0 14.1-1.4 22.4-5.4 4.8 3.9 9.7 7.5 9.7 7.5 12.9 7.3 24 8.8 25.6 8.8h.4c1.6 0 12.7-.9 26.1-8.8 0 0 4.3-3.1 8.8-6.7 7.7 3.4 14.7 4.6 20.8 4.6 10.9 0 19-3.9 22.7-6.1 1.8.7 3.3 1.3 4.9 1.7 4 1 7.7 1.8 11.8 1.8 7.8 0 14.4-2.9 21.6-9.5 11.3-10.1 15.6-20.5 15-35.9"/><path fill="#c8c8c8" d="M285.5 389.9s8-6.1 16.8-7c8.8-1 23.8 5.5 23.8 5.5s-4.9 10-14.2 9.8c-9.4-.3-26.4-8.3-26.4-8.3M169.6 389.9s8-6.1 16.8-7 23.8 5.5 23.8 5.5-4.9 10-14.2 9.8-26.4-8.3-26.4-8.3"/><path d="M384.6 351.4c-.2-6.1-2.7-18.4-5.5-32.5l-.1-.5c-3-15.1-6.3-33.9-6.5-42.1-.1-5.1.5-12.5.5-20.3v-.4c0-16-.3-37.9-1.8-52.2-1.2-11.8-5.9-41.6-19.8-63.8-12.9-20.6-28.6-33.9-49.1-42.2-18.8-7.6-53.2-8.4-54.2-8.4-8.8 0-31.4.7-50.1 8.3-20.5 8.3-36 21.7-48.9 42.3-13.9 22.2-18.3 52.1-19.6 63.8-1.5 14.4-1.4 36.3-1.3 52.3v3.7c0 6.5 0 12.5-.1 16.9-.2 8.3-4 27-7 42.1l-.1.6c-2.8 14.1-5.2 26.3-5.5 32.4-.6 15.7 3.8 26.3 15.2 36.6 7.3 6.6 14.3 9.7 22.1 9.7 4.2 0 8-.8 12.1-1.9 1.1-.3 2.3-.7 3.5-1.1 4.1 2.3 11.9 5.7 22.2 5.7 6.7 0 14.4-1.4 22.9-5.5 4.9 4 9.9 7.4 10 7.4 13.2 7.5 24.5 8.7 26.2 8.7h.4c1.7 0 13-.7 26.7-8.7 0 0 4.4-3.1 8.9-6.7 7.8 3.5 15 4.8 21.3 4.8 11.2 0 19.4-4 23.2-6.2 1.8.7 3.4 1.3 5 1.7 4.1 1 7.9 1.9 12.1 1.9 7.9 0 14.7-3 22.1-9.6 11.4-10.5 15.8-21.1 15.2-36.8m-207.4 39.5c6.1-2.6 13.6-5.5 20.1-5.5 4.4 0 7.6 1.3 10.4 4.1l.2.2c-13.1 5.4-23.9 3.7-30.7 1.2m114.5-.5c.3-.3.6-.5.8-.8 2.8-2.8 6-4.2 10.4-4.2 6.1 0 13 2.5 18.9 5-6.4 2.5-17 4.8-30.1 0m72.8-7.8c-6 5.4-11.1 7.8-17.2 7.8-3.4 0-6.6-.7-10.4-1.6-2-.5-4.5-1.6-7.7-3l-.5-.2c-7-3.2-16.7-7.4-25.8-7.4-6.3 0-11.3 2.1-15.6 6.3-11 11.2-21.9 15.7-29.1 17.5-.1 0-7.1 1.9-15.2-.3-8.2-2.3-19.2-6.1-30.1-17.2-4.1-4.2-9.2-6.3-15.6-6.3-9 0-18.6 4.2-25.9 7.4l-.3.1c-3.3 1.4-5.8 2.6-7.9 3.1-3.8.9-7 1.6-10.4 1.6-6 0-11.3-2.4-17.2-7.8-9.8-8.9-13.3-17.3-12.8-30.9.2-5.5 2.6-17.4 5.4-31.2l.1-.6c3.2-16.1 6.9-34.4 7.2-43.4.1-4.5.1-10.6.1-17.1v-3.7c-.1-15.8-.3-37.5 1.2-51.4 1.2-11.3 5.4-39.8 18.5-60.7 12-19.3 26.5-31.8 45.4-39.5 17.6-7.1 39-8.2 47.4-8.2.8 0 33.8.8 51.4 7.9 19 7.7 33.4 20.4 45.5 39.6 13.1 21 18 49.5 19.2 60.8 1.5 14 1.9 35.7 1.9 51.5v.4c0 7.8-.8 15.2-.7 20.4.2 8.9 3.6 27.2 6.8 43.4l-.1.5c2.8 13.8 5.1 25.8 5.3 31.3.5 13.6-3.1 22-12.9 30.9"/><path d="M324.2 191.9c0 10.6-8.6 19.1-19.1 19.1-10.6 0-19.1-8.6-19.1-19.1 0-.9.1-1.8.2-2.6 1.2.8 2.6 1.3 4.1 1.3 4 0 7.2-3.2 7.2-7.2 0-2.9-1.7-5.4-4.1-6.5 3.2-2.5 7.3-4 11.7-4 10.5-.1 19.1 8.5 19.1 19M214.1 191.9c0 10.6-8.6 19.1-19.1 19.1-10.6 0-19.1-8.6-19.1-19.1 0-.9.1-1.8.2-2.6 1.2.8 2.6 1.3 4.1 1.3 4 0 7.2-3.2 7.2-7.2 0-2.9-1.7-5.4-4.1-6.5 3.2-2.5 7.3-4 11.7-4 10.5-.1 19.1 8.5 19.1 19"/><ellipse cx="166.4" cy="228.6" fill="#f68694" rx="7.4" ry="3.4" transform="rotate(-44.198 166.406 228.55)"/><ellipse cx="180.5" cy="229.7" fill="#f68694" rx="7.4" ry="3.4" transform="rotate(-44.198 180.46 229.72)"/><ellipse cx="194.5" cy="229.7" fill="#f68694" rx="7.4" ry="3.4" transform="rotate(-44.198 194.513 229.721)"/><ellipse cx="333.9" cy="229.7" fill="#f68694" rx="7.4" ry="3.4" transform="rotate(224.198 333.885 229.722)"/><ellipse cx="319.8" cy="230.9" fill="#f68694" rx="7.4" ry="3.4" transform="rotate(224.198 319.83 230.893)"/><ellipse cx="305.8" cy="230.9" fill="#f68694" rx="7.4" ry="3.4" transform="rotate(224.198 305.777 230.893)"/><path fill="#7f0909" d="M133.5 225.2s26.3 24.2 69.2 31.5l-41.3 112.5c-37-5.6-67.3-18.1-85.2-43.7z"/><path d="M131.7 226.9c18.9 17.3 45.5 27.7 70.3 32.1-.6-1-1.2-2.1-1.7-3.1-12 32.8-24.1 65.5-36.1 98.3-1.7 4.7-3.5 9.5-5.2 14.2 1-.6 2.1-1.2 3.1-1.7-31.5-4.8-64.4-15.4-83.7-42.5v2.5c16.7-29.3 33.4-58.5 50.2-87.8l7.2-12.6c1.6-2.8-2.7-5.3-4.3-2.5-16.7 29.3-33.4 58.5-50.2 87.8l-7.2 12.6c-.4.7-.5 1.8 0 2.5 20.1 28.2 53.7 39.8 86.7 44.8 1.4.2 2.6-.4 3.1-1.7 12-32.8 24.1-65.5 36.1-98.3 1.7-4.7 3.5-9.5 5.2-14.2.4-1.2-.5-2.9-1.7-3.1-24-4.3-49.8-14.2-68.1-30.9-2.5-2.1-6.1 1.5-3.7 3.6"/><path fill="#ba4a4a" d="m86.46 262.497 43.85-46.755 17.36 16.282-43.85 46.754z"/><path d="M145.9 230.3c-14.6 15.6-29.2 31.2-43.8 46.7h3.5c-5.8-5.4-11.6-10.9-17.4-16.3v3.5c14.6-15.6 29.2-31.2 43.8-46.7h-3.5c5.8 5.4 11.6 10.9 17.4 16.3 2.3 2.2 5.9-1.3 3.5-3.5-5.8-5.4-11.6-10.9-17.4-16.3-1-.9-2.6-1-3.5 0-14.6 15.6-29.2 31.2-43.8 46.7-.9 1-1 2.6 0 3.5 5.8 5.4 11.6 10.9 17.4 16.3 1 .9 2.6 1 3.5 0 14.6-15.6 29.2-31.2 43.8-46.7 2.2-2.3-1.3-5.9-3.5-3.5"/><path fill="#7f0909" d="M365.3 225.2s-26.3 24.2-69.2 31.5l41.3 112.5s123.9-14.5 128.3-61.8z"/><path d="M363.5 223.4c-18.3 16.7-44.1 26.6-68.1 30.9-1.3.2-2.2 1.9-1.7 3.1 12 32.8 24.1 65.5 36.1 98.3 1.7 4.7 3.5 9.5 5.2 14.2.3.9 1.3 2 2.4 1.8 14.5-1.7 28.9-4.5 43.1-7.9 23.7-5.6 49.2-12.9 69-27.8 7.8-5.9 15-13.5 17.7-23.1.7-2.6 1.7-5.6-.2-7.7-1.4-1.6-3.5-2.9-5.1-4.2-17.2-14.1-34.3-28.1-51.5-42.2-14.4-11.8-28.9-23.6-43.3-35.4-2.5-2-6 1.5-3.5 3.5 29.1 23.8 58.3 47.7 87.4 71.5 4.1 3.3 9.2 6.5 12.8 10.4.1.1.2.1.3.2-1.3-1.8-.9-.1-1.2 1.1-.5 2.3-1.3 4.6-2.4 6.7-2.2 4.2-5.3 7.8-8.7 11-17.4 16-42.7 23.5-65 29.3-16 4.1-32.9 7.6-49.1 9.5l2.4 1.8c-12-32.8-24.1-65.5-36.1-98.3-1.7-4.7-3.5-9.5-5.2-14.2-.6 1-1.2 2.1-1.7 3.1 24.8-4.4 51.4-14.9 70.3-32.1 2-2.1-1.5-5.7-3.9-3.5"/><path fill="#ba4a4a" d="m395.001 277.75-43.85-46.754 17.36-16.281 43.85 46.754z"/><path d="M349.4 232.8c14.6 15.6 29.2 31.2 43.8 46.7.9 1 2.6.9 3.5 0 5.8-5.4 11.6-10.9 17.4-16.3 1-.9.9-2.6 0-3.5-14.6-15.6-29.2-31.2-43.8-46.7-.9-1-2.6-.9-3.5 0-5.8 5.4-11.6 10.9-17.4 16.3-2.4 2.2 1.2 5.7 3.5 3.5 5.8-5.4 11.6-10.9 17.4-16.3h-3.5c14.6 15.6 29.2 31.2 43.8 46.7v-3.5c-5.8 5.4-11.6 10.9-17.4 16.3h3.5c-14.6-15.6-29.2-31.2-43.8-46.7-2.2-2.4-5.7 1.2-3.5 3.5M248.5 224.6c9.8 4.8 18.5 2.5 24.7-6.5 1.8-2.7-2.5-5.2-4.3-2.5-4.6 6.7-10.6 8.3-17.8 4.7-3-1.5-5.5 2.8-2.6 4.3M215.7 262.5c22.1 10.5 45.2 10.7 67.1 0 2.9-1.4.4-5.7-2.5-4.3-20.2 9.9-41.8 9.6-62.1 0-2.8-1.4-5.4 3-2.5 4.3M159 177.5c10.7.4 21.4.6 32.2.7 7.2.1 14.4.1 21.6-.3 3.3-.2 9.2.3 11.8-2.5 3.1-3.3-1.9-8.3-4.9-4.9.6-.7.9-.2-.3-.2-.6 0-1.3.2-1.9.3-2.6.3-5.2.4-7.7.4-7.1.2-14.3.2-21.4.1-9.7-.1-19.4-.3-29.1-.7-4.8-.1-4.8 6.9-.3 7.1M340 170.5c-9.7.4-19.4.6-29.1.7-7 .1-14 .1-21-.1-2.6-.1-5.3-.2-7.9-.4-.7-.1-1.5-.3-2.2-.3-1.1 0-.9-.5-.3.2-3.1-3.3-8 1.6-4.9 4.9 2.5 2.7 8.4 2.3 11.8 2.5 7.2.4 14.4.3 21.6.3 10.7-.1 21.4-.3 32.2-.7 4.3-.3 4.3-7.3-.2-7.1"/><circle cx="202.7" cy="261.1" r="14.4" fill="#cfb6ff"/><path d="M214.6 261.1c-.3 6.5-5.2 11.9-11.9 11.9-6.5 0-11.9-5.4-11.9-11.9s5.4-11.9 11.9-11.9c6.7 0 11.6 5.4 11.9 11.9.2 3.2 5.2 3.2 5 0-.4-9.2-7.4-16.9-16.9-16.9-9.2 0-16.9 7.7-16.9 16.9s7.7 16.9 16.9 16.9c9.5 0 16.5-7.7 16.9-16.9.1-3.2-4.9-3.2-5 0"/><circle cx="200.6" cy="256.4" r="4.7" fill="#fceeff"/><circle cx="296.3" cy="261.1" r="14.4" fill="#cfb6ff"/><path d="M279.4 261.1c.4 9.2 7.4 16.9 16.9 16.9 9.2 0 16.9-7.7 16.9-16.9s-7.7-16.9-16.9-16.9c-9.5 0-16.4 7.7-16.9 16.9-.2 3.2 4.8 3.2 5 0 .3-6.5 5.2-11.9 11.9-11.9 6.5 0 11.9 5.4 11.9 11.9s-5.4 11.9-11.9 11.9c-6.7 0-11.6-5.4-11.9-11.9-.1-3.2-5.1-3.2-5 0"/><circle cx="293.9" cy="256.4" r="4.7" fill="#fceeff"/></g><g><g><path fill="#cfb6ff" d="m256.8 135.1-6.8-33 17.3 33z"/><path d="M258.2 134.7c-2.3-11-4.5-22-6.8-33l-2.7 1.2c5.8 11 11.6 22 17.3 33 .4-.8.9-1.5 1.3-2.3h-10.6c-1.9 0-1.9 3 0 3h10.6c1.2 0 1.8-1.3 1.3-2.3-5.8-11-11.6-22-17.3-33-.8-1.6-3.1-.4-2.7 1.2 2.3 11 4.5 22 6.8 33 .3 1.9 3.2 1.1 2.8-.8"/><path fill="#efe9ff" d="m250 168.1 6.8-33h10.5z"/><path d="M251.4 168.5c2.3-11 4.5-22 6.8-33-.5.4-1 .7-1.4 1.1h10.6c-.4-.8-.9-1.5-1.3-2.3-5.8 11-11.6 22-17.3 33-.9 1.7 1.7 3.2 2.6 1.5 5.8-11 11.6-22 17.3-33 .5-1-.1-2.3-1.3-2.3h-10.6c-.6 0-1.3.5-1.4 1.1-2.3 11-4.5 22-6.8 33-.4 2 2.4 2.8 2.8.9"/><path fill="#7f0909" d="m232.7 135.1 17.3-33 6.8 33z"/><path d="M234 135.8c5.8-11 11.6-22 17.3-33-.9-.1-1.8-.2-2.7-.4 2.2 11 4.5 22 6.7 33 .5-.6 1-1.3 1.4-1.9h-24.1c-1.9 0-1.9 3 0 3h24.1c1 0 1.6-1 1.4-1.9-2.2-11-4.5-22-6.7-33-.3-1.3-2.2-1.5-2.7-.4-5.8 11-11.6 22-17.3 33-.9 1.8 1.7 3.4 2.6 1.6"/><path fill="#bc0808" d="m250 168.1-17.3-33h24.1z"/><path d="M251.3 167.3c-5.8-11-11.6-22-17.3-33-.4.8-.9 1.5-1.3 2.3h24.1c-.5-.6-1-1.3-1.4-1.9-2.2 11-4.5 22-6.7 33-.4 1.9 2.5 2.7 2.9.8 2.2-11 4.5-22 6.7-33 .2-.9-.4-1.9-1.4-1.9h-24.1c-1.2 0-1.8 1.3-1.3 2.3 5.8 11 11.6 22 17.3 33 .8 1.7 3.4.1 2.5-1.6"/></g></g></svg>