<svg xmlns="http://www.w3.org/2000/svg" xml:space="preserve" viewBox="0 0 500 500"><g><path fill="#074a4f" d="M129.8 221.7c-10-13-12.2-43.5-12.2-43.5l-7.6 10.7s-7-31.3-6.3-56.2c.7-24.8 11.8-39.5 11.8-39.5l-22.3 4s5.8-2.5 29.3-29.5 65.7-27.2 65.7-27.2c-8.7-4.2-17.5-16-17.5-16s7.3 4.5 45.2 4.7c37.8.2 51.3 14.5 51.3 14.5S318.5 20 364.5 72H350s45 27.8 42.7 112.1l-10-15.1s1 21.6-13.2 41.1"/><path d="M132 220.4c-8.5-11.5-10.8-28.3-11.9-42.2-.2-2.5-3.2-3.3-4.7-1.3-2.5 3.6-5.1 7.1-7.6 10.7 1.5.2 3 .4 4.6.6-3.5-15.9-5.9-32.3-6.2-48.5-.4-15.2 2.1-32.7 11.5-45.2 1.5-1.9-.9-4-2.8-3.7-7.4 1.3-14.9 2.7-22.3 4 .6 1.5 1.3 3 1.9 4.6 3.2-1.4 6.1-4.7 8.5-7 10.6-10.1 19.2-23 30.9-31.8 15-11.3 35.5-17.4 54.3-17.5 2.4 0 3.5-3.5 1.3-4.7-6.6-3.4-12.2-9.3-16.6-15.1l-3.4 3.4c2.6 1.5 6.1 2 9 2.5 11.7 2.1 23.7 2.3 35.5 2.5 13.6.1 27.5 1.3 40.1 6.7 3.9 1.7 8.4 3.8 11.4 6.9.8.9 2 .9 3 .4 8-3.7 20-5.4 29.7-5.1 25.7.6 47.9 14.2 64.7 33 .6-1.4 1.2-2.8 1.8-4.3h-14.5c-2.5 0-3.3 3.4-1.3 4.7 5.4 3.3 10.2 8.7 14.3 13.7 11.5 14.1 18.7 31.3 22.8 48.9 3.6 15.6 4.7 31.6 4.4 47.5 1.6-.4 3.1-.8 4.7-1.3-3.3-5-6.7-10-10-15-1.3-1.9-4.8-1.4-4.7 1.3.6 14-4.9 28.6-12.8 39.9-1.9 2.6 2.5 5.1 4.3 2.5 8.4-12 14.1-27.6 13.5-42.4-1.6.4-3.1.8-4.7 1.3 3.3 5 6.7 10 10 15 1.4 2 4.6 1.3 4.7-1.3.9-38.5-7.7-82.7-37.7-109.6-1.9-1.7-4-3.5-6.2-4.8-.4 1.6-.8 3.1-1.3 4.7h14.5c2.3 0 3.2-2.7 1.8-4.3-17.4-19.5-40.6-33.5-67.2-34.4-11-.4-23.1 1.1-33.2 5.8 1 .1 2 .3 3 .4-2.9-3-7-5.2-10.8-7-11-5.1-23.1-7.2-35.1-7.9-14-.8-28-.1-41.8-2.3-2.6-.4-5.2-.9-7.7-1.7-1.1-.3-1.1-.3-1.6-.6-2-1.2-5 1.3-3.4 3.4 5 6.6 11 13.1 18.4 16.9.4-1.6.8-3.1 1.3-4.7-13.1.1-26.6 3.2-38.7 8.1-10 4.1-19.4 9.8-26.9 17.7-7.9 8.3-15.1 17.3-23.5 25.2-2.1 2-4.5 4.8-7.2 6-2.8 1.2-.7 5 1.9 4.6 7.4-1.3 14.9-2.7 22.3-4-.9-1.2-1.9-2.4-2.8-3.7-9.6 12.8-12.4 30.7-12.2 46.2.2 17.2 2.7 34.6 6.5 51.4.5 2.3 3.4 2.2 4.6.6 2.5-3.6 5.1-7.1 7.6-10.7-1.6-.4-3.1-.8-4.7-1.3 1.1 14.8 3.6 32.6 12.6 44.8 1.7 2.6 6 .1 4.1-2.5"/><path fill="#fff" d="M146.5 296.9c-5.9 10.5-19.4 14.2-30.2 8.2l-79.2-44.3c-10.8-6-23.7-21.4-16.5-34.3s27.1-9.9 37.8-3.9l79.2 44.3c10.9 6 14.8 19.4 8.9 30"/><path d="M144.4 295.6c-6.4 11.3-19.3 11.4-29.4 5.8-7.4-4.1-14.7-8.3-22.1-12.4-17.4-9.8-34.9-19.5-52.3-29.3-9.5-5.3-21.8-15.9-19.2-28.2 3.4-16.2 25.5-12.5 36-6.7 15.4 8.4 30.6 17.1 45.9 25.7 9.4 5.2 18.7 10.5 28.1 15.7 1.7.9 3.4 1.8 5 2.8 9.3 5.6 13 16.8 8 26.6-1.5 2.9 2.8 5.4 4.3 2.5 6.6-12.8 1.5-27-10.7-34-7.6-4.3-15.3-8.6-23-12.9-18.3-10.2-36.4-20.7-54.8-30.7-10.6-5.8-26.3-9.1-36.8-1.2-15.8 12.1-3.2 32.7 9.2 41.4 5.5 3.9 11.8 6.9 17.7 10.2 11.1 6.2 22.1 12.4 33.2 18.6l29.4 16.5c12.3 6.9 28.2 5.4 35.6-7.9 1.7-2.8-2.6-5.3-4.1-2.5"/><path fill="#4edadd" d="M132.2 254.6S96.8 229 90.8 233.5s-10.8 35-11.5 44.8-7.8 41.5-5 43.7 45.2 9.7 45.2 9.7"/><path d="M133.5 252.4c-9.6-6.9-19.7-13.8-30.4-18.8-3.8-1.8-9.7-4.8-13.7-2.1-5.1 3.5-6.7 13.3-8 18.7-3.7 15.6-4.8 31.7-7.5 47.4-1.2 7.1-3.3 15-2.7 22.3.4 4.5 3.7 5.1 7.5 6.1 13.2 3.4 26.7 5.6 40.1 8 3.1.6 4.5-4.3 1.3-4.8-10.3-1.8-20.7-3.8-30.9-5.9-2.8-.6-5.6-1.2-8.4-1.9-1.4-.4-3.9-.6-5-1.5 1.1.9.3.2.4-1.1s.1-2.5.2-3.8c.4-4 1-7.9 1.6-11.9 2.2-13.5 3.6-27.2 5.9-40.7 1.4-7.8 2.8-16.1 6.1-23.3.7-1.6 1.4-3.3 3.1-3.6 2.2-.4 5.5 1.6 7.4 2.4 10.8 5 20.8 11.9 30.4 18.8 2.6 1.9 5.1-2.4 2.6-4.3"/><path fill="#175654" d="M77.4 231.6c-18.7-10.5-48.5-23.8-58.3-6.2s17.1 36 35.8 46.5z"/><path d="M78.7 229.5c-14.8-8.2-47.5-26.4-60.9-6.8-14.9 21.9 20.8 42.8 35.8 51.3 1.2.7 2.8.3 3.4-.9 7.5-13.4 15-26.8 22.5-40.3 1.6-2.8-2.7-5.3-4.3-2.5-7.5 13.4-15 26.8-22.5 40.3 1.1-.3 2.3-.6 3.4-.9-12-6.8-47.5-26.5-33.9-44.7 5.8-7.8 17-6.1 25.2-3.9 10.1 2.8 19.6 7.5 28.7 12.6 2.9 1.6 5.4-2.7 2.6-4.2"/><path fill="#fff" d="M381.1 349.2c-.2-6-2.6-18-5.4-31.8l-.1-.5c-3-14.8-6.6-33.2-6.8-41.2-.1-5 .1-12.2.1-19.8v-.4c0-15.6.1-37.1-1.4-51.2-1.2-11.5-5.6-40.7-19.2-62.5-12.6-20.2-27.9-33.2-47.9-41.4-18.4-7.4-52.1-8.3-53-8.3-8.6 0-30.7.7-49.1 8.1-20.1 8.1-35.3 21.3-47.9 41.5-13.6 21.8-17.9 51-19.1 62.5-1.5 14.1-1.4 35.5-1.2 51.2v3.6c0 6.3 0 12.3-.1 16.6-.2 8.1-3.9 26.5-6.9 41.3l-.1.6c-2.7 13.8-5.1 25.7-5.4 31.7-.6 15.4 3.8 25.7 14.9 35.8 7.1 6.4 14 9.5 21.7 9.5 4.1 0 7.8-.8 11.9-1.8 1.1-.3 2.3-.6 3.5-1.1 4 2.2 11.7 5.6 21.7 5.6 6.5 0 14.1-1.4 22.4-5.4 4.8 3.9 9.7 7.5 9.7 7.5 12.9 7.3 24 8.8 25.6 8.8h.4c1.6 0 12.7-.9 26.1-8.8 0 0 4.3-3.1 8.8-6.7 7.7 3.4 14.7 4.6 20.8 4.6 10.9 0 19-3.9 22.7-6.1 1.8.7 3.3 1.3 4.9 1.7 4 1 7.7 1.8 11.8 1.8 7.8 0 14.4-2.9 21.6-9.5 11.3-10.1 15.6-20.5 15-35.9"/><path d="M285.8 179.6c14.7-13.9 32.7-19.6 52.5-14.3 3.1.8 4.4-4 1.3-4.8-21.5-5.8-41.4.4-57.4 15.6-2.2 2.2 1.3 5.7 3.6 3.5M176.4 169.8c19.2-6.3 38-3.9 53.6 9.4 2.4 2.1 6-1.4 3.5-3.5-17-14.4-37.5-17.6-58.5-10.7-3 1-1.7 5.8 1.4 4.8"/><path fill="#c8c8c8" d="M285.5 389.9s8-6.1 16.8-7c8.8-1 23.8 5.5 23.8 5.5s-4.9 10-14.2 9.8c-9.4-.3-26.4-8.3-26.4-8.3M169.6 389.9s8-6.1 16.8-7 23.8 5.5 23.8 5.5-4.9 10-14.2 9.8-26.4-8.3-26.4-8.3"/><path d="M384.6 351.4c-.2-6.1-2.7-18.4-5.5-32.5l-.1-.5c-3-15.1-6.3-33.9-6.5-42.1-.1-5.1.5-12.5.5-20.3v-.4c0-16-.3-37.9-1.8-52.2-1.2-11.8-5.9-41.6-19.8-63.8-12.9-20.6-28.6-33.9-49.1-42.2-18.8-7.6-53.2-8.4-54.2-8.4-8.8 0-31.4.7-50.1 8.3-20.5 8.3-36 21.7-48.9 42.3-13.9 22.2-18.3 52.1-19.6 63.8-1.5 14.4-1.4 36.3-1.3 52.3v3.7c0 6.5 0 12.5-.1 16.9-.2 8.3-4 27-7 42.1l-.1.6c-2.8 14.1-5.2 26.3-5.5 32.4-.6 15.7 3.8 26.3 15.2 36.6 7.3 6.6 14.3 9.7 22.1 9.7 4.2 0 8-.8 12.1-1.9 1.1-.3 2.3-.7 3.5-1.1 4.1 2.3 11.9 5.7 22.2 5.7 6.7 0 14.4-1.4 22.9-5.5 4.9 4 9.9 7.4 10 7.4 13.2 7.5 24.5 8.7 26.2 8.7h.4c1.7 0 13-.7 26.7-8.7 0 0 4.4-3.1 8.9-6.7 7.8 3.5 15 4.8 21.3 4.8 11.2 0 19.4-4 23.2-6.2 1.8.7 3.4 1.3 5 1.7 4.1 1 7.9 1.9 12.1 1.9 7.9 0 14.7-3 22.1-9.6 11.4-10.5 15.8-21.1 15.2-36.8m-207.4 39.5c6.1-2.6 13.6-5.5 20.1-5.5 4.4 0 7.6 1.3 10.4 4.1l.2.2c-13.1 5.4-23.9 3.7-30.7 1.2m114.5-.5c.3-.3.6-.5.8-.8 2.8-2.8 6-4.2 10.4-4.2 6.1 0 13 2.5 18.9 5-6.4 2.5-17 4.8-30.1 0m72.8-7.8c-6 5.4-11.1 7.8-17.2 7.8-3.4 0-6.6-.7-10.4-1.6-2-.5-4.5-1.6-7.7-3l-.5-.2c-7-3.2-16.7-7.4-25.8-7.4-6.3 0-11.3 2.1-15.6 6.3-11 11.2-21.9 15.7-29.1 17.5-.1 0-7.1 1.9-15.2-.3-8.2-2.3-19.2-6.1-30.1-17.2-4.1-4.2-9.2-6.3-15.6-6.3-9 0-18.6 4.2-25.9 7.4l-.3.1c-3.3 1.4-5.8 2.6-7.9 3.1-3.8.9-7 1.6-10.4 1.6-6 0-11.3-2.4-17.2-7.8-9.8-8.9-13.3-17.3-12.8-30.9.2-5.5 2.6-17.4 5.4-31.2l.1-.6c3.2-16.1 6.9-34.4 7.2-43.4.1-4.5.1-10.6.1-17.1v-3.7c-.1-15.8-.3-37.5 1.2-51.4 1.2-11.3 5.4-39.8 18.5-60.7 12-19.3 26.5-31.8 45.4-39.5 17.6-7.1 39-8.2 47.4-8.2.8 0 33.8.8 51.4 7.9 19 7.7 33.4 20.4 45.5 39.6 13.1 21 18 49.5 19.2 60.8 1.5 14 1.9 35.7 1.9 51.5v.4c0 7.8-.8 15.2-.7 20.4.2 8.9 3.6 27.2 6.8 43.4l-.1.5c2.8 13.8 5.1 25.8 5.3 31.3.5 13.6-3.1 22-12.9 30.9"/><path d="M324.2 191.9c0 10.6-8.6 19.1-19.1 19.1-10.6 0-19.1-8.6-19.1-19.1 0-.9.1-1.8.2-2.6 1.2.8 2.6 1.3 4.1 1.3 4 0 7.2-3.2 7.2-7.2 0-2.9-1.7-5.4-4.1-6.5 3.2-2.5 7.3-4 11.7-4 10.5-.1 19.1 8.5 19.1 19M214.1 191.9c0 10.6-8.6 19.1-19.1 19.1-10.6 0-19.1-8.6-19.1-19.1 0-.9.1-1.8.2-2.6 1.2.8 2.6 1.3 4.1 1.3 4 0 7.2-3.2 7.2-7.2 0-2.9-1.7-5.4-4.1-6.5 3.2-2.5 7.3-4 11.7-4 10.5-.1 19.1 8.5 19.1 19"/><ellipse cx="166.4" cy="228.6" fill="#f68694" rx="7.4" ry="3.4" transform="rotate(-44.198 166.406 228.55)"/><ellipse cx="180.5" cy="229.7" fill="#f68694" rx="7.4" ry="3.4" transform="rotate(-44.198 180.46 229.72)"/><ellipse cx="194.5" cy="229.7" fill="#f68694" rx="7.4" ry="3.4" transform="rotate(-44.198 194.513 229.721)"/><ellipse cx="333.9" cy="229.7" fill="#f68694" rx="7.4" ry="3.4" transform="rotate(224.198 333.885 229.722)"/><path fill="#074a4f" d="M365.5 171c-.2 27.3-9.6 38.2-9.6 38.2-2.7-12.8-11.9-29.7-11.9-29.7v17.7c-10-11-19.6-39.7-19.6-39.7l-1.3 15.3s-5.9-10-7.1-27.3 8-45.5 2.5-47.7-8.5 3.8-8.5 3.8l-16.2-6.2s-15.2-36.9-26 5.1-31.8 72.3-31.8 72.3-3.7 3.6-.7 20.4c0 0-17.2-16.3-20.6-59.3 0 0-1.2 39 5.3 59.3 0 0-29.5-26.8-38.5-59.3 0 0-17.2 21.8-13.5 49 0 0-10.4-7.8-10-32.8 0 0-19.2 20-14.2 51 0 0-14-4.3-16.7-32.5 0 0-1-122.3 111-118.8S365.5 171 365.5 171"/><ellipse cx="319.8" cy="230.9" fill="#f68694" rx="7.4" ry="3.4" transform="rotate(224.198 319.83 230.893)"/><ellipse cx="305.8" cy="230.9" fill="#f68694" rx="7.4" ry="3.4" transform="rotate(224.198 305.777 230.893)"/><path d="M231.3 228.9c8.1-.2 16.2-1 24.1-2.4 5.6-1 14.7-2.2 17.3-8.2 1.2-3-3.6-4.3-4.8-1.3-.8 1.8-5 2.7-6.5 3.1-3.5 1-7.1 1.6-10.6 2.2-6.4.9-12.9 1.5-19.4 1.6-3.4.1-3.4 5.1-.1 5"/><path fill="#4edadd" d="M381.2 373.2c-10.5 5.8-71.1 17.9-101.9 15.1s-55.3-31.5-88-20.3-68.8 10.5-77.1 1.5 2.8-29.2 8.3-57.5c5.1-26.2 7.2-58 7.2-58 69.7 52.2 154 50.2 239.3 1.5 0 0-1.3 22.9 2.7 40.7s20 71.2 9.5 77"/><path d="M379.9 371.1c-6.9 3.7-15.5 5.1-23.1 6.7-12.7 2.8-25.5 5-38.4 6.5-12.1 1.4-24.4 2.5-36.5 1.7-14.1-.9-26.8-7.2-39.5-13-12-5.5-24.7-10.8-38.2-10.1-7.5.4-14.3 3-21.4 5.1-8.5 2.4-17.1 4.1-25.9 5-11.7 1.2-28.1 2.8-38.7-3.6-9.4-5.6-2.5-21.8-.3-29.7 8-28.1 12.3-56.7 14.2-85.8-1.3.7-2.5 1.4-3.8 2.2 26.2 19.4 56.4 32.7 88.8 37.1 32.4 4.5 65.5.1 96.4-10.1 19.7-6.5 38.6-15.3 56.6-25.5-1.3-.7-2.5-1.4-3.8-2.2-.6 10.4-.2 20.9 1 31.2 1.3 10 4.1 19.7 6.5 29.4 2.7 10.8 5.3 21.8 7 32.8.7 4.6 1.3 9.3 1.1 14 .3 2.4.3 6.8-2 8.3-2.7 1.7-.2 6 2.5 4.3 6-3.8 5-13.8 4.4-19.7-1.1-11.5-3.7-22.9-6.4-34.1-2.5-10.2-5.6-20.4-7.4-30.7-2-11.6-2.3-23.6-1.7-35.3.1-1.9-2.2-3.1-3.8-2.2-57.2 32.4-125.2 49-188.7 25.2-17.3-6.5-33.4-15.7-48.1-26.7-1.6-1.2-3.7.5-3.8 2.2-1.8 27.3-5.4 54.5-13 80.8-2.7 9.5-9 23.9-3.7 33.7 4.6 8.6 17.5 9.6 26 10.1 16.6 1 33.6-1.6 49.4-6.3 8-2.4 15.4-4.9 23.9-4.3 7.3.5 14.4 2.7 21.1 5.4 13.6 5.4 26.4 13.2 40.9 16.3 12.1 2.6 25 1.7 37.3.6 14.9-1.3 29.8-3.6 44.5-6.7 9.5-2 20.2-3.6 28.9-8.2 3.1-1.6.6-5.9-2.3-4.4"/><path fill="#fff" d="m370.6 335.9-27.9 16.5c-10.8 6.1-26.7 5.3-34-7.6s1.6-24.4 12.4-30.5l29.7-16.8z"/><path d="M369.4 333.7c-5.8 3.4-11.6 6.9-17.3 10.3-6.5 3.9-13.1 8.8-20.9 9.5-14.8 1.4-28.8-13.5-19.4-27.5 4.7-7 12.9-10.7 20.1-14.8 6.8-3.8 13.5-7.7 20.3-11.5-1.1-.3-2.3-.6-3.4-.9l19.8 38.4c1.5 2.9 5.8.3 4.3-2.5l-19.8-38.4c-.6-1.2-2.3-1.5-3.4-.9L329 307.1c-8.2 4.7-17.3 9-22.2 17.5-7.3 12.6.1 28.2 13.5 32.7 9.9 3.3 19.2 0 27.7-5 8-4.7 16-9.5 24-14.2 2.7-1.7.2-6-2.6-4.4M297.2 98.6c-2.7-7.2-10.6-24.6-20.8-18.3-3.6 2.2-5.6 6.6-7.1 10.3-3.1 7.7-4.6 16-7.2 23.8-4.4 13.6-10.1 26.8-16.8 39.4-3.2 6.1-6.6 12.1-10.5 17.8-1.8 2.7 2.5 5.2 4.3 2.5 8.3-12 14.8-25.5 20.5-38.9 5.6-13.3 8.8-27.1 13.5-40.6 1-2.9 3-9.6 6.7-10.5 2.2-.5 4.2 1.7 5.5 3.2 3.1 3.6 5.3 8.2 7 12.6 1.2 3 6 1.7 4.9-1.3"/><path d="M239.6 138.7c-1.7 7.2-3.1 14.5-4.2 21.8-1.7 10.9-3.4 22.4-1.6 33.4l4.2-2.4c-3.6-3.4-6.2-8.2-8.4-12.6-7-13.9-10.1-29.5-11.4-44.9-.3-3.2-4.9-3.3-5 0-.6 19.6-.4 41 5.4 59.9l4.2-2.4c-16.9-15.4-31.5-36.1-37.9-58.1-.5-1.6-3-2.6-4.2-1.1-11 14-16.4 33.2-14.2 50.8 1.3-.7 2.5-1.4 3.8-2.2 1 .7-.7-.8-1-1.1-1.3-1.5-2.3-3.2-3.2-5-3.8-7.5-4.6-16.2-4.5-24.5 0-2.1-2.8-3.3-4.3-1.8-13.2 13.9-17.6 35-14.9 53.4l3.1-3.1c-10-3.2-13.9-20.6-14.9-30.1-.3-3.2-5.3-3.2-5 0 1.3 11.6 5.3 30.7 18.6 34.9 2 .6 3.3-1.3 3.1-3.1-2.5-16.6 1.7-36.1 13.6-48.6-1.4-.6-2.8-1.2-4.3-1.8-.1 11.2 1.4 27.3 11.2 34.9 1.4 1.1 4-.4 3.8-2.2-1.4-11.7.5-23.3 5.2-34 1.4-3.3 3.1-6.4 5-9.5.6-1 1.5-2 2-3 .1-.3 1.1-1.4.6-.8-1.4-.4-2.8-.7-4.2-1.1 6.6 22.8 21.6 44.4 39.1 60.4 1.8 1.6 5 .1 4.2-2.4-5.7-18.5-5.8-39.4-5.2-58.6h-5c1.3 16 4.5 32.1 11.7 46.6 2.5 5 5.5 10.5 9.6 14.4 1.9 1.8 4.6-.1 4.2-2.4-1.8-10.8.2-22.4 1.9-33.1 1.1-6.5 2.3-13 3.8-19.4.6-3-4.2-4.3-4.9-1.2M310.6 105.3c1.1-1.7 4.5-5.9 6.8-5.4 2.2.5 1.3 4.3 1.2 6.3-.7 8.6-2.6 17.2-3.6 25.8-1.5 13.8-.3 29.8 7 42 1.3 2.3 4.4 1.1 4.7-1.3l1.5-15.3c-1.6.2-3.3.4-4.9.7 4.8 14 10.5 29.6 20.5 40.8 1.5 1.6 4.3.3 4.3-1.8v-17.7c-1.6.4-3.1.8-4.7 1.3 4.9 9.1 9.2 18.9 11.4 29.1.4 1.7 3 2.5 4.2 1.1 8.6-10.4 9.9-27.1 10.1-39.9 0-3.2-5-3.2-5 0-.1 9.6-1.1 19.2-4.5 28.2q-1.2 3.3-3 6.3c-.3.5-1.6 2.3-1.2 1.8 1.4.4 2.8.7 4.2 1.1-2.3-10.5-6.9-20.8-11.9-30.3-1.2-2.2-4.7-1.2-4.7 1.3v17.7c1.4-.6 2.8-1.2 4.3-1.8-9.3-10.5-14.8-25.4-19.2-38.6-.9-2.8-4.6-2.1-4.9.7l-1.5 15.3c1.6-.4 3.1-.8 4.7-1.3-10.1-17.1-6.6-37.7-3.9-56.2.7-4.9 3.6-15-.7-19-5.2-4.8-12.6 2.3-15.4 6.4-1.9 2.9 2.5 5.4 4.2 2.7"/><path fill="#175654" d="M369 254.3c-74 23.4-154 23.9-238 0v-22c84 23.9 164 23.4 238 0z"/><path d="M368.2 251.9C309.4 270.5 246.8 274 186 264.1c-18.3-3-36.3-7.1-54.1-12.2l1.8 2.4v-22c-1.1.8-2.1 1.6-3.2 2.4 61.1 17.3 125.4 23 188.2 12.3 17.2-2.9 34.1-7.1 50.7-12.3-1.1-.8-2.1-1.6-3.2-2.4v22c0 3.2 5 3.2 5 0v-22c0-1.6-1.6-2.9-3.2-2.4-58.8 18.6-121.4 22.1-182.2 12.2-18.3-3-36.3-7.1-54.1-12.2-1.6-.4-3.2.8-3.2 2.4v22c0 1.1.8 2.1 1.8 2.4 61.1 17.3 125.4 23 188.2 12.3 17.2-2.9 34.1-7.1 50.7-12.3 3.4-.9 2.1-5.8-1-4.8"/><path fill="#1e2120" d="M230.4 255.8h34v9.6h-34z"/><path d="M264.4 262.9h-34l2.5 2.5v-9.6l-2.5 2.5h34l-2.5-2.5v9.6c0 3.2 5 3.2 5 0v-9.6c0-1.4-1.1-2.5-2.5-2.5h-34c-1.4 0-2.5 1.1-2.5 2.5v9.6c0 1.4 1.1 2.5 2.5 2.5h34c3.2 0 3.2-5 0-5"/><circle cx="282.5" cy="260.1" r="5.3" fill="#83ffff"/><path d="M286.3 260.1c-.3 4.8-7.5 4.8-7.5 0s7.2-4.8 7.5 0c.1 1.9 3.1 1.9 3 0-.2-3.7-2.9-6.8-6.8-6.8-3.7 0-6.8 3.1-6.8 6.8 0 3.6 2.9 6.6 6.5 6.7 3.9.2 6.8-3 7-6.7.2-1.9-2.8-1.9-2.9 0"/><circle cx="211.5" cy="259.1" r="5.3" fill="#83ffff"/><path d="M215.3 259.1c-.3 4.8-7.5 4.8-7.5 0s7.2-4.8 7.5 0c.1 1.9 3.1 1.9 3 0-.2-3.7-2.9-6.8-6.8-6.8-3.7 0-6.8 3.1-6.8 6.8 0 3.6 2.9 6.6 6.5 6.7 3.9.2 6.8-3 7-6.7.2-1.9-2.8-1.9-2.9 0"/><path fill="#175654" d="M321.3 361.7c9.6-2.9 18.8-7.1 26.7-11.6L325.3 310c-7.4 4.2-15.4 9-22.5 15.1 0 0 4.3 20.8 8.4 26.4s10.1 10.2 10.1 10.2"/><path d="M322 364.1c9.5-3 18.6-7 27.3-11.9 1.2-.7 1.6-2.3.9-3.4-7.6-13.4-15.2-26.8-22.7-40.1-.7-1.2-2.3-1.6-3.4-.9-8.1 4.6-15.9 9.5-23 15.4-.7.6-.8 1.6-.6 2.4 1.4 6.5 3 13.1 5.2 19.4 2.7 7.7 7.7 13.4 14.1 18.4 2.5 2 6.1-1.6 3.5-3.5-6.4-5-11-10.6-13.5-18.4-1.8-5.6-3.2-11.4-4.5-17.2l-.6 2.4c6.8-5.7 14.3-10.3 22-14.7-1.1-.3-2.3-.6-3.4-.9 7.6 13.4 15.2 26.8 22.7 40.1.3-1.1.6-2.3.9-3.4-8.3 4.6-17 8.5-26.1 11.4-3.2 1-1.9 5.9 1.2 4.9"/><path fill="#1e2120" d="M246.5 259.1 230 284h32.9zm-.4 9.9 7 10.6h-14z"/><path d="m245.2 258.4-16.5 24.9c-.6 1 .2 2.3 1.3 2.3h32.9c1.1 0 1.9-1.3 1.3-2.3l-16.5-24.9c-1.1-1.6-3.7-.1-2.6 1.5l16.5 24.9c.4-.8.9-1.5 1.3-2.3H230c.4.8.9 1.5 1.3 2.3l16.5-24.9c1-1.6-1.6-3.1-2.6-1.5"/><path d="M244.8 269.8c2.3 3.5 4.7 7.1 7 10.6.4-.8.9-1.5 1.3-2.3h-14c.4.8.9 1.5 1.3 2.3 2.3-3.5 4.7-7.1 7-10.6 1.1-1.6-1.5-3.1-2.6-1.5-2.3 3.5-4.7 7.1-7 10.6-.6 1 .2 2.3 1.3 2.3h14c1.1 0 1.9-1.3 1.3-2.3-2.3-3.5-4.7-7.1-7-10.6-1.1-1.6-3.7-.1-2.6 1.5"/><path d="M128.2 268.7c26 19.1 56 32.3 88.1 36.6 32.4 4.3 65.4-.4 96.3-10.8 19.8-6.7 38.7-15.5 56.9-25.8 2.8-1.6.3-5.9-2.5-4.3-57 32-124.4 50-188 26.5-17.3-6.4-33.5-15.6-48.3-26.5-2.5-2-5 2.4-2.5 4.3"/><path fill="#4edadd" d="M373.5 274.4s-42.8 18.3-42.2 21.1 33 57.2 38.6 57.7 24.2-17.2 24.2-17.2"/><path d="M372.2 272.3c-9.6 4.1-19.1 8.3-28.5 12.9-4.3 2.1-9.6 4.1-13.2 7.3-2.3 2.1-1.7 3.8-.5 6.3 5.5 10.7 12.2 21 18.7 31.1 3.6 5.5 7.2 11 11.1 16.3 2.1 2.9 4.6 7 7.9 8.8 4.8 2.6 11.1-3.1 14.6-5.8 4.7-3.6 9.1-7.4 13.4-11.5 2.3-2.2-1.2-5.8-3.5-3.5-3.1 2.9-6.3 5.8-9.6 8.5-2.2 1.8-9.8 8.7-12.3 8.1-2.4-.6-5.4-5.9-6.7-7.7-3.5-4.8-6.8-9.8-10.1-14.8-6.1-9.4-12-19-17.5-28.9-.6-1.1-1.2-2.8-2.1-3.8-.5-.5-.2-.7-.3-.7-.6.1 0 1.6-.2 1.5-.1 0 .8-.6.7-.6 4.3-1.7 8.6-4.8 12.8-6.8 9.1-4.4 18.3-8.5 27.6-12.5 3.2-1.2.7-5.5-2.3-4.2"/><path fill="#4edadd" d="M375.2 336.5s29.9 8.2 35.9-22.4-40.1-59.2-40.1-59.2"/><path d="M374.6 338.9c13.7 3.7 29.3-1.2 35.8-14.4 11-22.4-4.7-44.1-21-58.7-5.3-4.7-11-9.3-17.1-13-2.7-1.7-5.3 2.6-2.5 4.3 12 7.5 23.6 17.7 31.5 29.4 5.8 8.6 9.6 18.6 7 29.1-2.3 9.4-8.3 16.8-18 18.9-4.6 1-9.8 1-14.4-.3-3.1-1-4.4 3.9-1.3 4.7M299 317.3c2.1 19.1 10.3 41.5 27.7 51.5 2.8 1.6 5.3-2.7 2.5-4.3-15.8-9-23.4-30.2-25.3-47.2-.3-3.1-5.3-3.2-4.9 0"/><path fill="#83ffff" d="M159.9 92.2S142 76.8 147.5 52.9s5.6-5.5 11.6-1.4 22.5 1 31.3 12.3"/><path d="M161.6 90.4c-4.1-3.6-7.4-8.6-9.6-13.6-2.4-5.6-3.5-11.7-3-17.8.3-3.6 1.2-7.1 2.1-10.5.3-1.2.6-2.4 1.1-3.5.5-1.2 1.7-2.3-.1-2.1-1.7.2-.4 1.2.2 2.6.6 1.2 1.1 2.5 1.8 3.7 1.5 2.6 3.3 4.4 6.1 5.5 10 4 20.8 1.6 28.4 10.8 2.1 2.5 5.6-1.1 3.5-3.5-4.3-5.1-10.1-7.9-16.6-9.3-4.4-1-11.5-.6-15.2-3.5-2.8-2.1-5.4-15.1-10.9-9.8-3.5 3.3-4.3 11.4-5 15.8-1.1 6.7-.5 13.7 1.7 20.1 2.4 6.8 6.4 13.7 11.9 18.5 2.5 2.2 6.1-1.3 3.6-3.4"/><path fill="#83ffff" d="M339.1 92.2s17.9-15.4 12.4-39.3-5.6-5.5-11.6-1.4-22.5 1-31.3 12.3"/><path d="M340.8 93.9c5.5-4.8 9.5-11.7 11.9-18.5 2.2-6.5 2.8-13.4 1.7-20.1-.7-4.5-1.5-12.5-5-15.8-5.5-5.2-8.1 7.7-10.9 9.8-3.7 2.9-10.8 2.5-15.2 3.5-6.4 1.4-12.3 4.1-16.6 9.3-2 2.5 1.5 6 3.5 3.5 7.5-9 18.1-7 28.1-10.6 3-1.1 4.9-3 6.4-5.7.7-1.2 1.2-2.5 1.8-3.7.6-1.4 2-2.4.2-2.6-2-.2-.5.5-.3 1.6.2 1.3.9 2.7 1.2 4 .9 3.4 1.8 6.9 2.1 10.5.4 5.8-.5 11.6-2.7 17-2.2 5.3-5.5 10.6-9.9 14.4-2.2 2 1.3 5.5 3.7 3.4M261.4 224.6c3.7.5 6.2 3.8 7.4 7.1.4 1 1.7 1.5 2.5.7 3.6-3.6 2.2-10.4 1-14.6-.6-1.8-3.5-1.1-2.9.8.9 3.1 2.4 9.1-.2 11.7.8.2 1.7.4 2.5.7-1.5-4.2-4.7-8.6-9.5-9.2-1.9-.3-2.7 2.5-.8 2.8"/><path d="M302.8 66.2c4.1 1.2 7.9 3.8 11.3 6.2 10.7 7.6 19 18.1 25.9 29.1 1.7 2.7 6 .2 4.3-2.5-7.2-11.5-15.9-22.3-26.9-30.4-4-2.9-8.5-5.9-13.3-7.3-3.1-.8-4.4 4-1.3 4.9M194.8 61.4c-4.8 1.4-9.3 4.4-13.3 7.3-11 8.1-19.7 18.8-26.9 30.4-1.7 2.7 2.6 5.3 4.3 2.5 6.9-11 15.2-21.5 25.9-29.1 3.4-2.4 7.2-5 11.3-6.2 3.1-1 1.8-5.8-1.3-4.9"/><path fill="#26918e" d="M272.7 342.4c-4.7-4.8-.7-4.8-3.5-18.9s-19.4-13.8-19.4-13.8-16.5-.8-19.7 13.3c-3.2 14 1 14.2-3.8 18.8-4.8 4.7-8.8 8.6-8.1 14.6.8 6 9.8 7.2 16.1 5.1s8 3.8 14.8 4.8c7.9-.8 8.7-6.7 14.9-4.4s15.5 1.3 16.5-4.7c.9-6-3-10-7.8-14.8M241.8 331c-2.7 0-4.9-2.3-4.9-5s2.3-4.9 5-4.9 4.9 2.3 4.9 5-2.3 4.9-5 4.9m16 1.2c-3 0-5.5-2.5-5.4-5.6 0-3 2.5-5.5 5.6-5.4 3 0 5.5 2.5 5.4 5.6 0 3-2.5 5.4-5.6 5.4"/></g><g><g><path fill="#1e2120" d="m256.8 135.1-6.8-33 17.3 33z"/><path d="M258.2 134.7c-2.3-11-4.5-22-6.8-33l-2.7 1.2c5.8 11 11.6 22 17.3 33 .4-.8.9-1.5 1.3-2.3h-10.6c-1.9 0-1.9 3 0 3h10.6c1.2 0 1.8-1.3 1.3-2.3-5.8-11-11.6-22-17.3-33-.8-1.6-3.1-.4-2.7 1.2 2.3 11 4.5 22 6.8 33 .3 1.9 3.2 1.1 2.8-.8"/><path fill="#575958" d="m250 168.1 6.8-33h10.5z"/><path d="M251.4 168.5c2.3-11 4.5-22 6.8-33-.5.4-1 .7-1.4 1.1h10.6c-.4-.8-.9-1.5-1.3-2.3-5.8 11-11.6 22-17.3 33-.9 1.7 1.7 3.2 2.6 1.5 5.8-11 11.6-22 17.3-33 .5-1-.1-2.3-1.3-2.3h-10.6c-.6 0-1.3.5-1.4 1.1-2.3 11-4.5 22-6.8 33-.4 2 2.4 2.8 2.8.9"/><path fill="#4edadd" d="m232.7 135.1 17.3-33 6.8 33z"/><path d="M234 135.8c5.8-11 11.6-22 17.3-33-.9-.1-1.8-.2-2.7-.4 2.2 11 4.5 22 6.7 33 .5-.6 1-1.3 1.4-1.9h-24.1c-1.9 0-1.9 3 0 3h24.1c1 0 1.6-1 1.4-1.9-2.2-11-4.5-22-6.7-33-.3-1.3-2.2-1.5-2.7-.4-5.8 11-11.6 22-17.3 33-.9 1.8 1.7 3.4 2.6 1.6"/><path fill="#92ffff" d="m250 168.1-17.3-33h24.1z"/><path d="M251.3 167.3c-5.8-11-11.6-22-17.3-33-.4.8-.9 1.5-1.3 2.3h24.1c-.5-.6-1-1.3-1.4-1.9-2.2 11-4.5 22-6.7 33-.4 1.9 2.5 2.7 2.9.8 2.2-11 4.5-22 6.7-33 .2-.9-.4-1.9-1.4-1.9h-24.1c-1.2 0-1.8 1.3-1.3 2.3 5.8 11 11.6 22 17.3 33 .8 1.7 3.4.1 2.5-1.6"/></g></g></svg>