<svg xmlns="http://www.w3.org/2000/svg" xml:space="preserve" viewBox="0 0 500 500"><g><path fill="#fff" d="M354 272.4c-10.8-7.5-12-24-2.9-36.2l60.2-81.4c6.7-9.1 20.6-15.7 30.7-8.7s8.7 22.3 2.5 31.8L389 262.6c-8.4 12.7-24.1 17.3-35 9.8"/><path d="M355.3 270.2c-12.2-8.5-8-24.8-.6-34.8 5-6.7 9.9-13.4 14.9-20.1l40.2-54.3c6.2-8.3 14.8-18.1 26.5-14.9 15 4.1 11.3 22.6 5 32.3l-34.2 52.2c-5.9 9-11.9 18.1-17.8 27.1-1.7 2.6-3.4 5.3-5.6 7.7-7.4 7.7-19 10.9-28.4 4.8-2.7-1.8-5.2 2.6-2.5 4.3 13.8 9 30.3 1.4 38.7-11.2 4.7-7 9.2-14 13.8-21 13.2-20.2 26.5-40.4 39.7-60.6 6.2-9.4 10.2-22.1 3.6-32.5-10-15.5-30.6-7.5-39.6 4.4-13.3 17.6-26.2 35.4-39.3 53.1-6.6 8.9-13.1 17.7-19.7 26.6-9.1 12.3-11.3 31.3 2.7 41.1 2.7 2 5.2-2.4 2.6-4.2"/><path fill="#a0eaa7" d="M356.8 220.1c-5.1 6.2-28.9 39-5.9 54.1s40.1-8.2 51.2-23.3z"/><path d="M355.1 218.3c-10.9 13.4-24.7 37.9-10.7 53.6 8.5 9.4 22.3 12.2 33.6 6.6 11.2-5.6 19-16.5 26.3-26.3.8-1.1.1-2.7-.9-3.4-15.1-10.3-30.2-20.6-45.3-30.8-2.7-1.8-5.2 2.5-2.5 4.3 15.1 10.3 30.2 20.6 45.3 30.8-.3-1.1-.6-2.3-.9-3.4-6.2 8.4-12.7 17.5-21.8 23.1-10.1 6.2-24 4.5-31.2-5.6-9.8-13.6 2.8-34.3 11.7-45.3 1.9-2.6-1.6-6.1-3.6-3.6"/><path fill="#5faa61" d="m401.663 252.35-46.39-31.55 5.343-7.856 46.39 31.55z"/><path d="M359.4 215.1c15.5 10.5 30.9 21 46.4 31.5-.3-1.1-.6-2.3-.9-3.4-1.8 2.6-3.6 5.2-5.3 7.9 1.1-.3 2.3-.6 3.4-.9-15.5-10.5-30.9-21-46.4-31.5.3 1.1.6 2.3.9 3.4 1.8-2.6 3.6-5.2 5.3-7.9 1.8-2.7-2.5-5.2-4.3-2.5-1.8 2.6-3.6 5.2-5.3 7.9-.8 1.2-.2 2.7.9 3.4 15.5 10.5 30.9 21 46.4 31.5 1.2.8 2.7.2 3.4-.9 1.8-2.6 3.6-5.2 5.3-7.9.8-1.2.2-2.7-.9-3.4-15.5-10.5-30.9-21-46.4-31.5-2.7-1.8-5.2 2.5-2.5 4.3"/><path fill="#fff" d="M34.4 332.8c2.8 12.2 20.2 16.1 33.5 13.4l48-9.7c9-1.8 16.9-7.3 21.7-15.2l20.6-33.6c3.7-6 5.4-12.6 5.3-18.6-.2-8.2-3.7-15.5-10.3-19.4-11.6-6.7-27.6.1-35.4 14.7l-17 31.3L59 306.3c-13.4 3.3-27.4 14.3-24.6 26.5"/><path d="M32 333.5c4.1 15.3 23.7 17.6 36.8 15.1 10.2-1.9 20.3-4.1 30.5-6.2 10.4-2.1 22.1-3.1 30.9-9.5 9-6.5 14.2-17.8 19.8-27.1 6-9.9 14.2-20.3 15.6-32.1 2.1-17.9-12.2-33.9-30.6-27.7-12.8 4.3-18.7 15.4-24.6 26.4-3 5.6-6.1 11.2-9.1 16.8-.6 1.2-2.5 3.4-2.6 4.7-.1 1.4-1.6-1.8 1.2-.6-.3-.1-1 .3-1.3.3-5.6.5-11.7 3-17.2 4.3-6.5 1.6-13.1 3.3-19.6 4.9-14 3.7-33 13.2-29.8 30.7.6 3.2 5.4 1.8 4.8-1.3-2.7-14.9 16.3-21.9 27.7-24.7 10.4-2.6 20.8-5.3 31.2-7.9 2.2-.6 5.6-.7 7.2-2.6 1.9-2.1 3.1-5.6 4.4-8.1 4.2-7.7 8.3-15.5 12.6-23.2 4.2-7.5 10.9-13.9 19.6-15.6 9.5-1.9 18.2 3.7 20.7 13.1 3.5 12.9-4.3 23.6-10.6 34-4.7 7.6-9.2 15.3-14 22.8-6.7 10.5-16.8 13.4-28.1 15.7-11.7 2.4-23.4 4.7-35 7.1s-31.6 4.1-35.6-10.6c-.9-3.2-5.8-1.8-4.9 1.3"/><path fill="#a0eaa7" d="M156.6 296.3c4.1-6.9 22.7-42.9-2.3-54.4s-38.4 14.1-47.1 30.7z"/><path d="M158.8 297.5c7.1-12.1 13.8-28.9 9.7-43-2.6-9-10.1-14.7-18.9-17-9.3-2.5-18.3.2-25.5 6.3-8.6 7.3-14 17.7-19.1 27.5-.6 1.1-.4 2.8.9 3.4 16.5 7.9 32.9 15.8 49.4 23.6 2.9 1.4 5.4-2.9 2.5-4.3-16.5-7.9-32.9-15.8-49.4-23.6.3 1.1.6 2.3.9 3.4 4.9-9.3 9.9-19.2 17.9-26.2 9.1-7.9 22.9-8.4 31.8.3 12.2 11.9 2.6 34.7-4.6 47-1.6 2.9 2.8 5.4 4.4 2.6"/><path fill="#5faa61" d="m107.492 271.098 50.619 24.184-4.096 8.572-50.619-24.184z"/><path d="M155.2 301.7c-16.9-8.1-33.7-16.1-50.6-24.2.3 1.1.6 2.3.9 3.4 1.4-2.9 2.7-5.7 4.1-8.6-1.1.3-2.3.6-3.4.9 16.9 8.1 33.7 16.1 50.6 24.2-.3-1.1-.6-2.3-.9-3.4-1.4 2.9-2.7 5.7-4.1 8.6s2.9 5.4 4.3 2.5 2.7-5.7 4.1-8.6c.5-1.1.4-2.8-.9-3.4-16.9-8.1-33.7-16.1-50.6-24.2-1.1-.5-2.8-.4-3.4.9-1.4 2.9-2.7 5.7-4.1 8.6-.5 1.1-.4 2.8.9 3.4 16.9 8.1 33.7 16.1 50.6 24.2 2.9 1.4 5.4-2.9 2.5-4.3"/><path fill="#c0f9c0" d="M137 171.3s-7.1-59.8 13.3-68c0 0 1.3-27.7 27.3-22.9 0 0 44.9-33.6 76.7-18.8s47.5.1 52.5-2.8l-3.3 14.6s20.1-2 27.8 14.4c0 0 14.5-.4 23.3 24.1s7.7 60.8 7.7 60.8"/><path d="M139.5 171.3c-1.1-9.6-1.4-19.3-1.1-28.9.4-11.1.9-31.6 13.1-36.9.8-.4 1.2-1.4 1.2-2.2.4-7 3.6-15 9.8-18.6 2.6-1.5 5.6-2.2 8.6-2.3 2.5-.1 5.4 1.1 7.7.1 2.6-1.1 5.1-3.5 7.5-5 11.8-7.3 24.8-13.4 38.5-16 7.5-1.4 15.5-1.6 22.9.5 9.2 2.6 17.2 7.3 27 8.4 7.5.8 15.1 0 22.1-3 4-1.7 7.4-4.1 11.1-6.3-1.2-.9-2.4-1.9-3.7-2.8-1.1 4.9-2.2 9.7-3.3 14.6-.3 1.4.7 3.3 2.4 3.2 10.4-1 20.9 3.7 25.6 13.2.4.8 1.3 1.3 2.2 1.2 3.4-.1 7.4 2.4 10 4.7 8.4 7.4 12 19.2 14.4 29.8 3.4 15.5 4.6 31.9 4.1 47.9-.1 3.2 4.9 3.2 5 0 .6-18.2-.8-37.2-5.7-54.8-3.3-12.1-12.1-32.9-27.8-32.6.7.4 1.4.8 2.2 1.2-5.5-11-17.9-16.8-30-15.7.8 1.1 1.6 2.1 2.4 3.2 1.1-4.9 2.2-9.7 3.3-14.6.5-2.1-1.7-4-3.7-2.8-3.6 2.1-6.8 4.6-10.7 6.2-7 2.9-14.7 3.4-22.1 2.1-9.9-1.7-18.4-7.3-28.3-9-7.5-1.2-15.2-.6-22.7 1-13.7 2.9-26.7 9.2-38.5 16.6-1.8 1.2-4.9 4.2-7 4.7 1.5-.3-3.4-.9-3.9-.9-1.5 0-3.1.1-4.6.3-3.2.5-6.2 1.6-8.9 3.4-7.1 4.8-10.8 13.9-11.2 22.3.4-.7.8-1.4 1.2-2.2-13 5.6-14.6 25.1-15.4 37.2-.7 10.9-.4 22.1.9 33 .8 3 5.8 3 5.4-.2"/><path fill="#fff" d="M367.2 386c-6.1 5.6-11.4 7.9-17.6 7.9-3.4 0-6.7-.7-10.6-1.7-2.1-.5-4.6-1.6-7.9-3l-.6-.3c-7.2-3.2-17.1-7.6-26.5-7.6-6.4 0-11.6 2.1-15.9 6.5-11.2 11.5-22.5 16.1-29.8 17.9-.1 0-7.3 2-15.6-.3s-19.6-6.3-30.8-17.7c-4.2-4.3-9.5-6.4-15.9-6.4-9.2 0-19.1 4.3-26.5 7.6l-.3.2c-3.3 1.5-6 2.7-8.1 3.2-3.9.9-7.1 1.7-10.6 1.7-6.1 0-11.6-2.4-17.6-7.9-10.1-9.1-13.6-17.7-13.1-31.6.2-5.7 2.7-17.9 5.5-32l.1-.6c3.3-16.5 7.1-35.3 7.3-44.4.1-4.6.1-10.9.1-17.5v-3.8c-.1-16.2-.3-38.3 1.2-52.7 1.2-11.5 5.5-40.7 18.9-62.2 12.3-19.7 27.1-32.5 46.5-40.4 18-7.3 39.9-8.4 48.5-8.4.8 0 34.6.8 52.6 8.1 19.4 7.9 34.2 20.9 46.5 40.6 13.4 21.5 18.5 50.7 19.7 62.3 1.5 14.3 2.1 36.6 2.1 52.8v.4c0 8-.9 15.6-.8 20.9.3 9.1 3.6 27.8 6.9 44.4l-.1.6c2.8 14.2 5.2 26.4 5.4 32.1.7 13.6-2.9 22.2-13 31.3"/><path fill="#a0eaa7" d="M132.8 244.7s66.5 11.3 105.3 12 130.3-12 130.3-12 0 37.2 3.5 60.8 15.3 56.2 0 74.5-29.3 11.7-51.7 6.5c-22.3-5.2-16.8-6.5-42.5 11.6s-50 6.3-58.7-3.4-8.8-16-42.8-6.8-46.4-.5-53.8-12.2c-7.2-11.7 11.6-122.5 10.4-131"/><path fill="#a0eaa7" d="M376.8 333.3c11.4 28.3-10.6 51.5-10.6 51.5L355 365.3l2.6-27.6M123.3 333.3c-11.4 28.3 10.6 51.5 10.6 51.5l11.2-19.4-2.6-27.6M133 246v10l115.3 38.5L370 252.3V244s-76 24.7-237 2"/><path fill="#5faa61" d="M377.9 331.6c-113.9 27.9-255.3 0-255.3 0l4-9s137.9 27.9 249 0z"/><path d="M377.2 329.2c-44.3 10.7-90.3 13.3-135.7 12-33.5-.9-67-3.9-100.1-9-6.1-.9-12.2-1.9-18.2-3.1.5 1.2 1 2.4 1.5 3.7 1.3-3 2.7-6 4-9-.9.4-1.9.8-2.8 1.1 17.9 3.6 36.1 5.9 54.2 7.9 40.1 4.4 80.7 6 121 3.3 25.3-1.7 50.5-5.1 75.1-11.2-1-.6-2.1-1.2-3.1-1.7.8 3 1.6 6 2.3 9 .8 3.1 5.6 1.8 4.8-1.3-.8-3-1.6-6-2.3-9-.3-1.3-1.8-2.1-3.1-1.7-43.1 10.7-88 13.3-132.2 12-32.7-.9-65.3-3.9-97.6-9-5.9-.9-11.9-1.9-17.8-3.1-1-.2-2.4.1-2.8 1.1-1.3 3-2.7 6-4 9-.6 1.4-.2 3.3 1.5 3.7 18.2 3.6 36.6 5.9 55 7.8 41.4 4.4 83.2 6.1 124.8 3.4 25.8-1.7 51.6-5.1 76.8-11.2 3.2-.7 1.8-5.5-1.3-4.7"/><path fill="#c8c8c8" d="M285.5 389.9s8-6.1 16.8-7c8.8-1 23.8 5.5 23.8 5.5s-4.9 10-14.2 9.8c-9.4-.3-26.4-8.3-26.4-8.3"/><path fill="#c0f9c0" d="m132 290.6 42.6 14.4 5.4 11h10.5l-8.4-17.1-50.1-18z"/><path d="M131.1 293c9.9 3.4 19.8 6.7 29.7 10.1l8.1 2.7c1 .3 3.5 1.8 4.6 1.6.6-.1-.7-1.1-.8-.5-.1.8 1.5 3 1.8 3.7 1.1 2.3 2.3 4.6 3.4 6.9.4.8 1.3 1.2 2.2 1.2h10.5c2 0 3-2.1 2.2-3.8-1.3-2.7-2.7-5.5-4-8.2s-2.5-6.6-4.4-9c-2.4-2.9-9.2-4-12.5-5.2-13.1-4.7-26.2-9.4-39.2-14.1-1.6-.6-3.2.9-3.2 2.4v9.7c0 3.2 5 3.2 5 0v-9.7c-1.1.8-2.1 1.6-3.2 2.4 12.5 4.5 25.1 9 37.6 13.5 3 1.1 6.1 2.2 9.1 3.3.8.3 1.8.9 2.7 1 1.9.2-1.3.7-.6-.7-.5 1.2 3.8 7.6 4.4 8.9 1.3 2.7 2.7 5.5 4 8.2.7-1.3 1.4-2.5 2.2-3.8h-10.5c.7.4 1.4.8 2.2 1.2-1.7-3.5-3.5-10.3-7-12.3-3.3-1.8-7.8-2.6-11.3-3.9-10.5-3.6-20.9-7.1-31.4-10.7-3.3-.7-4.6 4.1-1.6 5.1"/><path fill="#c8c8c8" d="M169.6 389.9s8-6.1 16.8-7 23.8 5.5 23.8 5.5-4.9 10-14.2 9.8-26.4-8.3-26.4-8.3"/><path d="M384.6 351.4c-.2-6.1-2.7-18.4-5.5-32.5l-.1-.5c-3-15.1-6.3-33.9-6.5-42.1-.1-5.1.5-12.5.5-20.3v-.4c0-16-.3-37.9-1.8-52.2-1.2-11.8-5.9-41.6-19.8-63.8-12.9-20.6-28.6-33.9-49.1-42.2-18.8-7.6-53.2-8.4-54.2-8.4-8.8 0-31.4.7-50.1 8.3-20.5 8.3-36 21.7-48.9 42.3-13.9 22.2-18.3 52.1-19.6 63.8-1.5 14.4-1.4 36.3-1.3 52.3v3.7c0 6.5 0 12.5-.1 16.9-.2 8.3-4 27-7 42.1l-.1.6c-2.8 14.1-5.2 26.3-5.5 32.4-.6 15.7 3.8 26.3 15.2 36.6 7.3 6.6 14.3 9.7 22.1 9.7 4.2 0 8-.8 12.1-1.9 1.1-.3 2.3-.7 3.5-1.1 4.1 2.3 11.9 5.7 22.2 5.7 6.7 0 14.4-1.4 22.9-5.5 4.9 4 9.9 7.4 10 7.4 13.2 7.5 24.5 8.7 26.2 8.7h.4c1.7 0 13-.7 26.7-8.7 0 0 4.4-3.1 8.9-6.7 7.8 3.5 15 4.8 21.3 4.8 11.2 0 19.4-4 23.2-6.2 1.8.7 3.4 1.3 5 1.7 4.1 1 7.9 1.9 12.1 1.9 7.9 0 14.7-3 22.1-9.6 11.4-10.5 15.8-21.1 15.2-36.8m-207.4 39.5c6.1-2.6 13.6-5.5 20.1-5.5 4.4 0 7.6 1.3 10.4 4.1l.2.2c-13.1 5.4-23.9 3.7-30.7 1.2m114.5-.5c.3-.3.6-.5.8-.8 2.8-2.8 6-4.2 10.4-4.2 6.1 0 13 2.5 18.9 5-6.4 2.5-17 4.8-30.1 0m72.8-7.8c-6 5.4-11.1 7.8-17.2 7.8-3.4 0-6.6-.7-10.4-1.6-2-.5-4.5-1.6-7.7-3l-.5-.2c-7-3.2-16.7-7.4-25.8-7.4-6.3 0-11.3 2.1-15.6 6.3-11 11.2-21.9 15.7-29.1 17.5-.1 0-7.1 1.9-15.2-.3-8.2-2.3-19.2-6.1-30.1-17.2-4.1-4.2-9.2-6.3-15.6-6.3-9 0-18.6 4.2-25.9 7.4l-.3.1c-3.3 1.4-5.8 2.6-7.9 3.1-3.8.9-7 1.6-10.4 1.6-6 0-11.3-2.4-17.2-7.8-9.8-8.9-13.3-17.3-12.8-30.9.2-5.5 2.6-17.4 5.4-31.2l.1-.6c3.2-16.1 6.9-34.4 7.2-43.4.1-4.5.1-10.6.1-17.1v-3.7c-.1-15.8-.3-37.5 1.2-51.4 1.2-11.3 5.4-39.8 18.5-60.7 12-19.3 26.5-31.8 45.4-39.5 17.6-7.1 39-8.2 47.4-8.2.8 0 33.8.8 51.4 7.9 19 7.7 33.4 20.4 45.5 39.6 13.1 21 18 49.5 19.2 60.8 1.5 14 1.9 35.7 1.9 51.5v.4c0 7.8-.8 15.2-.7 20.4.2 8.9 3.6 27.2 6.8 43.4l-.1.5c2.8 13.8 5.1 25.8 5.3 31.3.5 13.6-3.1 22-12.9 30.9"/><path d="M324.2 191.9c0 10.6-8.6 19.1-19.1 19.1-10.6 0-19.1-8.6-19.1-19.1 0-.9.1-1.8.2-2.6 1.2.8 2.6 1.3 4.1 1.3 4 0 7.2-3.2 7.2-7.2 0-2.9-1.7-5.4-4.1-6.5 3.2-2.5 7.3-4 11.7-4 10.5-.1 19.1 8.5 19.1 19M214.1 191.9c0 10.6-8.6 19.1-19.1 19.1-10.6 0-19.1-8.6-19.1-19.1 0-.9.1-1.8.2-2.6 1.2.8 2.6 1.3 4.1 1.3 4 0 7.2-3.2 7.2-7.2 0-2.9-1.7-5.4-4.1-6.5 3.2-2.5 7.3-4 11.7-4 10.5-.1 19.1 8.5 19.1 19"/><ellipse cx="166.4" cy="228.6" fill="#f68694" rx="7.4" ry="3.4" transform="rotate(-44.198 166.406 228.55)"/><ellipse cx="180.5" cy="229.7" fill="#f68694" rx="7.4" ry="3.4" transform="rotate(-44.198 180.46 229.72)"/><ellipse cx="194.5" cy="229.7" fill="#f68694" rx="7.4" ry="3.4" transform="rotate(-44.198 194.513 229.721)"/><ellipse cx="333.9" cy="229.7" fill="#f68694" rx="7.4" ry="3.4" transform="rotate(224.198 333.885 229.722)"/><ellipse cx="319.8" cy="230.9" fill="#f68694" rx="7.4" ry="3.4" transform="rotate(224.198 319.83 230.893)"/><ellipse cx="305.8" cy="230.9" fill="#f68694" rx="7.4" ry="3.4" transform="rotate(224.198 305.777 230.893)"/><path fill="#c0f9c0" d="M149.1 130.5s23.8-1.4 42.9-15.3c0 0 53.2 17.9 101.3 2.6 0 0 14.2 1.5 13 12.7l11.6-6.5s18.9 18.5 34.9 18.6c0 0-20.6-64.4-105.6-58.4s-98.1 46.3-98.1 46.3"/><path d="M282 172.9c3.3-2.7 9-5.5 13.6-6.9 11.8-3.6 23.4-.9 32.9 6.9 2.5 2 6-1.5 3.5-3.5-10.2-8.4-22.5-12-35.5-8.8-6.4 1.6-12.9 4.6-18.1 8.8-2.4 2 1.1 5.5 3.6 3.5M222 152.4c-5.2-4.2-11.6-7.2-18.1-8.8-13-3.2-25.3.4-35.5 8.8-2.5 2 1.1 5.6 3.5 3.5 9.5-7.8 21.1-10.5 32.9-6.9 4.6 1.4 10.3 4.2 13.6 6.9 2.6 2 6.1-1.5 3.6-3.5M132.9 246c16.5 3.6 33.3 5.9 50 7.8 37.6 4.4 75.7 6.1 113.5 3.4 23.7-1.7 47.2-5.1 70.2-11.2 3.1-.8 1.8-5.7-1.3-4.8-40.1 10.7-82 13.3-123.4 12-30.5-.9-61-3.9-91.1-9-5.6-.9-11.1-1.9-16.6-3.1-3.1-.6-4.5 4.2-1.3 4.9"/><path fill="#fff" d="m230.1 208.6 47.5 5.2c-5.6 25.3-53.2 20.1-47.5-5.2"/><path d="M230.1 211.1c15.8 1.7 31.7 3.5 47.5 5.2-.8-1.1-1.6-2.1-2.4-3.2-2.7 11.1-14.1 15.5-24.7 14.6-10-.9-20.2-7.2-18-18.5.6-3.1-4.2-4.5-4.8-1.3-5.9 29.9 45.7 33.4 52.3 6.5.4-1.7-.8-3-2.4-3.2-15.8-1.7-31.7-3.5-47.5-5.2-3.2-.3-3.2 4.8 0 5.1"/><path fill="#5faa61" d="m365.6 387.2-12-21.8 2.4-28.1-8.5 1.3-1.7 29 11.7 24z"/><path d="M367.8 386c-2.2-3.9-4.3-7.8-6.5-11.8-1.4-2.5-2.8-5-4.2-7.6l-1.2-2.1c-.6-1 .1 1.5.2.5.9-9.2 1.6-18.5 2.3-27.8.2-1.8-1.7-2.6-3.2-2.4-2.9.5-5.7.9-8.6 1.4-1.1.2-1.8 1.4-1.8 2.4-.3 4.8-.5 9.6-.8 14.5-.3 4.5-1.4 10-.8 14.4.6 4 3.8 8.4 5.5 12 2.2 4.5 4.3 8.9 6.5 13.4.6 1.2 2.3 1.5 3.4.9 2.7-1.5 5.4-2.9 8.1-4.4 2.8-1.5.3-5.9-2.5-4.3-2.7 1.5-5.4 2.9-8.1 4.4 1.1.3 2.3.6 3.4.9-2-4.2-4-8.3-6.1-12.5-1.3-2.8-2.7-5.5-4-8.3-.4-.8-.7-1.8-1.2-2.5-.8-1.2 0-.2 0 .3.9-9.5 1.1-19.2 1.6-28.7l-1.8 2.4c2.9-.5 5.7-.9 8.6-1.4-1.1-.8-2.1-1.6-3.2-2.4-.4 4.5-.8 9.1-1.1 13.6-.4 4.5-1.8 10-1.2 14.5.4 3.6 3.7 7.5 5.4 10.6l6.9 12.6c1.6 2.7 5.9.2 4.4-2.6"/><path fill="#5faa61" d="m132.8 386.2 12-21.8-2.4-28.1 8.6 1.3 1.6 29-11.7 24z"/><path d="m135 387.5 6.9-12.6c1.7-3.1 4.9-7 5.4-10.6.6-4.5-.8-10-1.2-14.5s-.8-9.1-1.1-13.6c-1.1.8-2.1 1.6-3.2 2.4 2.9.5 5.7.9 8.6 1.4l-1.8-2.4c.5 9.6.7 19.2 1.6 28.7 0-.3.8-1.6 0-.4-.5.7-.8 1.6-1.1 2.3-1.3 2.7-2.7 5.5-4 8.2l-6.3 12.9c1.1-.3 2.3-.6 3.4-.9-2.7-1.5-5.4-2.9-8.1-4.4-2.8-1.5-5.4 2.8-2.5 4.3 2.7 1.5 5.4 2.9 8.1 4.4 1.1.6 2.8.4 3.4-.9 2.2-4.5 4.3-8.9 6.5-13.4 1.7-3.6 4.9-8 5.5-12 .7-4.5-.6-10-.8-14.4-.3-4.8-.5-9.6-.8-14.5-.1-1-.7-2.2-1.8-2.4-2.9-.5-5.7-.9-8.6-1.4-1.5-.2-3.3.6-3.2 2.4.8 9.2 1 18.6 2.3 27.8.2 1.1.7-1.6.2-.5l-1.2 2.1c-1.3 2.4-2.6 4.8-3.9 7.1-2.2 4.1-4.5 8.1-6.7 12.2-1.5 3 2.8 5.5 4.4 2.7"/><path fill="#5faa61" d="m368 264.7-119.2 42.6L132 265.5v-10.2l116.8 40.5L368 254.5z"/><path d="M367.8 262.3c-34.6 12.4-69.1 24.7-103.7 37.1-4.8 1.7-10.7 2.9-15.1 5.4-.9.5.2-.1.8.1-.5-.2-1-.3-1.5-.5-2.2-1-4.7-1.7-7-2.5-20-7.2-40.1-14.3-60.1-21.5-16.1-5.7-32.1-11.5-48.2-17.2l1.8 2.4v-10.3c-1.1.8-2.1 1.6-3.2 2.4 34.6 12 69.3 24 103.9 36 3.9 1.4 8.8 4 12.9 4.5 3.4.4 7.8-2.2 10.9-3.3 20.4-7.1 40.9-14.1 61.3-21.2 16.1-5.6 32.2-11.2 48.4-16.7-1.1-.8-2.1-1.6-3.2-2.4v10.2c0 3.2 5 3.2 5 0v-10.2c0-1.5-1.6-2.9-3.2-2.4-34.4 11.9-68.9 23.8-103.3 35.8-4.9 1.7-10.9 2.8-15.4 5.3-.9.5.4 0 .8.1-.4-.2-.9-.3-1.3-.5-2.2-1-4.7-1.6-7-2.4-20-6.9-39.9-13.8-59.9-20.8l-48.6-16.8c-1.6-.5-3.2.9-3.2 2.4v10.3c0 1.2.8 2 1.8 2.4 34.6 12.4 69.1 24.7 103.7 37.1 4 1.4 8.8 4.2 13.1 4.7 3.3.4 7.9-2.3 10.9-3.4 20.4-7.3 40.9-14.6 61.3-21.9 16.1-5.8 32.2-11.5 48.4-17.3 3.3-1.2 2-6-1.1-4.9M150 134.5c8.2-.2 16.6-3.6 24-6.8 4.4-1.9 8.6-4.1 12.8-6.4 1-.6 2.2-1.2 3.2-1.8.5-.3 1.1-.7 1.6-1-.1-.3-.2-.5-.2-.8.2 0 .5.2.8.2 3.1-.1 7.3 1.8 10.3 2.5 13.7 3.1 27.7 5.4 41.8 6.2 7.9.5 15.8.5 23.7-.5 7.8-1 15.2-4.1 23.1-4.5 6.8-.4 13.5 2.7 11.7 9.7-.5 1.8 1.2 3.7 3.1 3.1 9.3-3 14.4-11.1 10.5-20.4-1.3-3-5.6-.4-4.3 2.5 2.7 6.3-1.6 11.2-7.5 13.1l3.1 3.1c1.2-4.8-.2-10.4-4.3-13.4-4.3-3.1-10.2-3-15.2-2.4-8.5 1.1-16.5 4.1-25.1 4.7-16.4 1.2-33.1-.9-49.3-4-5.6-1.1-11.1-2.3-16.6-3.7-3.9-1-4.9-1.7-8.7.6-11 6.6-25 14.5-38.3 14.9-3.4.2-3.4 5.2-.2 5.1"/><path d="M314 123.9c11 10.1 25.4 21 40.7 22.6 3.2.3 3.2-4.7 0-5-13.7-1.4-27.2-12.1-37.1-21.1-2.5-2.2-6 1.3-3.6 3.5"/><path fill="#fff" d="m231.3 218.1 19.2 1.5"/><path d="m231.3 219.6 19.2 1.5c1.9.1 1.9-2.9 0-3l-19.2-1.5c-1.9-.2-1.9 2.8 0 3"/><path fill="#fff" d="m273.4 221.7-13.1-1.3"/><path d="M273.4 220.2c-4.4-.4-8.7-.9-13.1-1.3-1.9-.2-1.9 2.8 0 3 4.4.4 8.7.9 13.1 1.3 1.9.2 1.9-2.8 0-3"/><path fill="#c0f9c0" d="M368 290.6 325.5 305l-5.2 11h-10.5l8.2-17.1 50-18z"/><path d="M367.8 288.2c-10.5 3.6-20.9 7.1-31.4 10.7-3.6 1.2-8 2-11.3 3.8-3.6 1.9-5.3 8.8-7 12.3.7-.4 1.4-.8 2.2-1.2h-10.5c.7 1.3 1.4 2.5 2.2 3.8 1.3-2.7 2.7-5.5 4-8.2.4-.9 4.8-8.2 4.4-8.8.6.9-2.5.8-.6.6.8-.1 1.9-.7 2.7-1 3-1.1 6.1-2.2 9.1-3.3 12.5-4.5 25.1-9 37.6-13.5-1.1-.8-2.1-1.6-3.2-2.4v9.7c0 3.2 5 3.2 5 0V281c0-1.5-1.6-3-3.2-2.4-13.1 4.7-26.2 9.4-39.2 14.1-3.4 1.2-10.1 2.2-12.5 5.1-1.9 2.3-3 6-4.2 8.6-1.4 2.9-2.8 5.8-4.3 8.6-.8 1.7.2 3.8 2.2 3.8h10.5c.8 0 1.8-.5 2.2-1.2 1.1-2.3 2.3-4.6 3.4-6.9.5-.9 1.6-2.5 1.7-3.5.2-1.5-1.2.2-.8.3.9.2 3.5-1.2 4.4-1.5 2.8-.9 5.6-1.9 8.4-2.8 9.9-3.4 19.8-6.7 29.7-10.1 2.9-1.1 1.6-5.9-1.5-4.9"/><path fill="#0c4589" d="M479.3 173.5c-16-5.2-32.4-5.3-49.2 0v-9.2q24.6-7.05 49.2 0z"/><path d="M479.7 172c-16.5-5.2-33.4-5.1-50 0 .6.5 1.3 1 1.9 1.4v-9.2c-.4.5-.7 1-1.1 1.4 16.1-4.4 32.3-4.4 48.4 0-.4-.5-.7-1-1.1-1.4v9.2c0 1.9 3 1.9 3 0v-9.2c0-.7-.5-1.3-1.1-1.4-16.6-4.5-33.4-4.6-50 0-.6.2-1.1.8-1.1 1.4v9.2c0 1 1 1.7 1.9 1.4 16.1-4.9 32.3-5 48.4 0 1.8.7 2.6-2.2.8-2.8"/><path fill="#0c4589" d="M475.4 187.5c-13.9-9.5-29.6-14.2-47.2-13.9l2.6-8.8c17.1.1 32.8 4.8 47.2 13.9z"/><path d="M476.2 186.2c-14.4-9.6-30.7-14.3-48-14.1.5.6.9 1.3 1.4 1.9.9-2.9 1.7-5.9 2.6-8.8-.5.4-1 .7-1.5 1.1 16.7.3 32.2 4.9 46.4 13.6-.2-.6-.4-1.1-.6-1.7-.9 2.9-1.7 5.9-2.6 8.8-.5 1.9 2.3 2.7 2.9.8.9-2.9 1.7-5.9 2.6-8.8.2-.6-.1-1.4-.6-1.7-14.6-9-30.8-13.8-48-14.1-.7 0-1.3.4-1.5 1.1-.9 2.9-1.7 5.9-2.6 8.8-.3.9.4 1.9 1.4 1.9 16.8-.2 32.5 4.3 46.4 13.6 1.8 1.3 3.3-1.3 1.7-2.4"/><path fill="#0c4589" d="M467.8 199.9c-10.7-13.1-24.4-22-41.4-26.6l5-7.7c16.3 4.9 30.1 13.8 41.4 26.6z"/><path d="M468.9 198.9c-11.1-13.3-25.4-22.3-42-27 .3.7.5 1.5.8 2.2 1.7-2.6 3.3-5.2 5-7.7-.6.2-1.1.4-1.7.6 15.9 5 29.6 13.8 40.7 26.2 0-.6-.1-1.2-.1-1.8-1.7 2.6-3.3 5.2-5 7.7-1 1.6 1.5 3.2 2.5 1.6 1.7-2.6 3.3-5.2 5-7.7.4-.6.3-1.3-.1-1.8-11.5-12.8-25.7-21.9-42-27-.6-.2-1.4.1-1.7.6-1.7 2.6-3.3 5.2-5 7.7-.5.8-.1 2 .8 2.2 16.2 4.5 29.9 13.2 40.7 26.2 1.1 1.5 3.4-.5 2.1-2"/><path fill="#0c4589" d="M457 209.6c-6.5-15.5-17.2-28-32.2-37.2l7-6c14.3 9.3 25 21.7 32.2 37.2z"/><path d="M458.4 209c-6.9-15.9-18.1-28.6-32.7-37.8.1.8.1 1.6.2 2.4 2.3-2 4.6-4 7-6-.6 0-1.2.1-1.8.1 13.9 9.3 24.5 21.5 31.7 36.6.1-.6.2-1.2.4-1.8-2.3 2-4.6 4-7 6-1.5 1.3.5 3.5 2 2.3 2.3-2 4.6-4 7-6 .5-.4.7-1.2.4-1.8-7.4-15.5-18.4-28.2-32.7-37.8-.5-.4-1.3-.3-1.8.1-2.3 2-4.6 4-7 6-.7.6-.7 1.9.2 2.4 14.2 8.9 25 21.1 31.7 36.6.4 1.7 3.1.4 2.4-1.3"/><path fill="#0c4589" d="M443.9 215.9c-1.9-16.8-8.6-31.7-20.4-44.7l8.4-3.8q16.65 19.5 20.4 44.7z"/><path d="M445.4 215.7c-2.1-17.2-9.3-32.5-20.8-45.5-.2.8-.4 1.6-.5 2.3 2.8-1.3 5.6-2.5 8.4-3.8-.6-.1-1.2-.3-1.8-.4 10.7 12.8 17.4 27.6 20.1 44 .3-.5.6-1.1.9-1.6-2.8 1.3-5.6 2.5-8.4 3.8-1.8.8-.5 3.5 1.2 2.7 2.8-1.3 5.6-2.5 8.4-3.8.6-.3 1-1 .9-1.6-2.8-16.9-9.7-32.3-20.8-45.5-.4-.5-1.2-.7-1.8-.4-2.8 1.3-5.6 2.5-8.4 3.8-.9.4-1.2 1.6-.5 2.3 11.1 12.6 18 27.3 20.1 44 .3 2.1 3.2 1.6 3-.3"/><path fill="#0c4589" d="M429.6 218.3c2.9-16.6.7-32.8-7-48.7l9.1-1.3c7 15.6 9.3 31.8 7 48.7z"/><path d="M431.1 218.5c2.8-17.1.3-33.8-7.1-49.5l-1.2 2.1c3-.4 6.1-.9 9.1-1.3-.5-.3-1.1-.6-1.6-.9 6.7 15.3 8.9 31.4 6.9 47.9.4-.4.8-.9 1.3-1.3-3 .4-6.1.9-9.1 1.3-1.9.3-1.5 3.2.4 3 3-.4 6.1-.9 9.1-1.3.7-.1 1.2-.6 1.3-1.3 2.1-17-.2-33.7-7.1-49.5-.3-.6-.9-1-1.6-.9-3 .4-6.1.9-9.1 1.3-.9.1-1.6 1.2-1.2 2.1 7.1 15.2 9.6 31.3 6.9 47.9-.3 1.9 2.7 2.3 3 .4"/><path fill="#0c4589" d="M415.2 216.5c7.5-15.1 9.9-31.3 7-48.7l9.1 1.3c2.3 16.9-.1 33.1-7 48.7z"/><path d="M416.5 217.1c7.5-15.6 9.8-32.4 7.1-49.5l-1.7 1.7c3 .4 6.1.9 9.1 1.3-.4-.4-.8-.9-1.3-1.3 2.1 16.5-.3 32.6-6.9 47.9.5-.3 1.1-.6 1.6-.9-3-.4-6.1-.9-9.1-1.3-1.9-.3-2.3 2.7-.4 3 3 .4 6.1.9 9.1 1.3.7.1 1.3-.3 1.6-.9 6.8-15.8 9.3-32.4 7.1-49.5-.1-.7-.6-1.2-1.3-1.3-3-.4-6.1-.9-9.1-1.3-.9-.1-1.9.7-1.7 1.7 2.6 16.6.4 32.7-6.9 47.9-.8 1.7 2 2.9 2.8 1.2"/><path fill="#0c4589" d="M401.8 210.7c11.4-12.4 18.3-27.3 20.4-44.7l8.4 3.8c-2.5 16.9-9.4 31.8-20.4 44.7z"/><path d="M403 211.7c11.6-12.9 18.5-28.3 20.8-45.5-.7.4-1.4.8-2.1 1.1 2.8 1.3 5.6 2.5 8.4 3.8-.3-.5-.6-1.1-.9-1.6-2.7 16.5-9.4 31.2-20.1 44 .6-.1 1.2-.3 1.8-.4-2.8-1.3-5.6-2.5-8.4-3.8-1.8-.8-3 1.9-1.2 2.7 2.8 1.3 5.6 2.5 8.4 3.8.6.3 1.4.1 1.8-.4 11-13.2 18-28.5 20.8-45.5.1-.7-.3-1.3-.9-1.6-2.8-1.3-5.6-2.5-8.4-3.8-.9-.4-2 .2-2.1 1.1-2.2 16.6-8.8 31.5-20.1 44-1.4 1.6.9 3.5 2.2 2.1"/><path fill="#0c4589" d="M390.6 201.4c14.5-8.7 25.3-21 32.2-37.2l7 6c-7.2 15.5-18 27.8-32.2 37.2z"/><path d="M391.5 202.7c14.7-9.1 25.7-22 32.7-37.8-.8.2-1.6.3-2.3.5 2.3 2 4.6 4 7 6-.1-.6-.2-1.2-.4-1.8-7.2 15-17.8 27.3-31.7 36.6.6 0 1.2.1 1.8.1-2.3-2-4.6-4-7-6-1.5-1.3-3.4 1-2 2.3 2.3 2 4.6 4 7 6 .5.4 1.3.5 1.8.1 14.3-9.6 25.3-22.3 32.7-37.8.3-.6.1-1.3-.4-1.8-2.3-2-4.6-4-7-6-.7-.6-1.9-.4-2.3.5-6.8 15.4-17.4 27.8-31.7 36.6-1.5 1 .1 3.5 1.8 2.5"/><path fill="#0c4589" d="M382.5 189.3c16.3-4.3 30.2-13 41.4-26.6l5 7.7c-11.3 12.8-25.1 21.6-41.4 26.6z"/><path d="M383 190.8c16.7-4.6 30.9-13.8 42-27-.8-.1-1.6-.1-2.4-.2 1.7 2.6 3.3 5.2 5 7.7 0-.6.1-1.2.1-1.8-11.1 12.4-24.8 21.2-40.7 26.2.6.2 1.1.4 1.7.6-1.7-2.6-3.3-5.2-5-7.7-1-1.6-3.6 0-2.5 1.6 1.7 2.6 3.3 5.2 5 7.7.4.6 1.1.8 1.7.6 16.4-5.1 30.6-14.2 42-27 .4-.5.5-1.3.1-1.8-1.7-2.6-3.3-5.2-5-7.7-.5-.8-1.7-.9-2.4-.2-10.9 12.8-24.5 21.7-40.7 26.2-1.7.4-.8 3.3 1.1 2.8"/><path fill="#0c4589" d="M378.2 175.5c16.9.5 32.6-4 47.2-13.9l2.6 8.8c-14.4 9.1-30.1 13.7-47.2 13.9z"/><path d="M378.2 177c17.3.3 33.5-4.6 48-14.1-.7-.3-1.5-.6-2.2-.9.9 2.9 1.7 5.9 2.6 8.8.2-.6.4-1.1.6-1.7-14.2 8.8-29.8 13.3-46.4 13.6.5.4 1 .7 1.5 1.1-.9-2.9-1.7-5.9-2.6-8.8-.5-1.9-3.4-1-2.9.8.9 2.9 1.7 5.9 2.6 8.8.2.6.8 1.1 1.5 1.1 17.2-.3 33.4-5 48-14.1.6-.3.8-1.1.6-1.7-.9-2.9-1.7-5.9-2.6-8.8-.3-.9-1.4-1.4-2.2-.9-14 9.2-29.6 14-46.4 13.6-2.1.1-2 3.1-.1 3.2"/><path fill="#0c4589" d="M377.9 160.9c16 5.2 32.4 5.3 49.2 0v9.2q-24.6 7.05-49.2 0z"/><path d="M377.5 162.4c16.5 5.2 33.4 5.1 50 0-.6-.5-1.3-1-1.9-1.4v9.2c.4-.5.7-1 1.1-1.4-16.1 4.4-32.3 4.4-48.4 0 .4.5.7 1 1.1 1.4V161c0-1.9-3-1.9-3 0v9.2c0 .7.5 1.3 1.1 1.4 16.6 4.5 33.4 4.6 50 0 .6-.2 1.1-.8 1.1-1.4V161c0-1-1-1.7-1.9-1.4-16.1 4.9-32.3 5-48.4 0-1.9-.7-2.7 2.2-.8 2.8"/><path fill="#0c4589" d="M381.7 146.9c13.9 9.5 29.6 14.2 47.2 13.9l-2.6 8.8c-17.1-.1-32.8-4.8-47.2-13.9z"/><path d="M380.9 148.2c14.4 9.6 30.7 14.3 48 14.1-.5-.6-.9-1.3-1.4-1.9-.9 2.9-1.7 5.9-2.6 8.8.5-.4 1-.7 1.5-1.1-16.7-.3-32.2-4.9-46.4-13.6.2.6.4 1.1.6 1.7.9-2.9 1.7-5.9 2.6-8.8.5-1.9-2.3-2.7-2.9-.8-.9 2.9-1.7 5.9-2.6 8.8-.2.6.1 1.4.6 1.7 14.6 9 30.8 13.8 48 14.1.7 0 1.3-.4 1.5-1.1.9-2.9 1.7-5.9 2.6-8.8.3-.9-.4-1.9-1.4-1.9-16.8.2-32.5-4.3-46.4-13.6-1.7-1.2-3.3 1.3-1.7 2.4"/><path fill="#0c4589" d="M389.3 134.5c10.7 13.1 24.4 22 41.4 26.6l-5 7.7c-16.3-4.9-30.1-13.8-41.4-26.6z"/><path d="M388.2 135.5c11.1 13.3 25.4 22.3 42 27-.3-.7-.5-1.5-.8-2.2-1.7 2.6-3.3 5.2-5 7.7.6-.2 1.1-.4 1.7-.6-15.9-5-29.6-13.8-40.7-26.2 0 .6.1 1.2.1 1.8 1.7-2.6 3.3-5.2 5-7.7 1-1.6-1.5-3.2-2.5-1.6-1.7 2.6-3.3 5.2-5 7.7-.4.6-.3 1.3.1 1.8 11.5 12.8 25.7 21.9 42 27 .6.2 1.4-.1 1.7-.6 1.7-2.6 3.3-5.2 5-7.7.5-.8.1-2-.8-2.2-16.2-4.5-29.9-13.2-40.7-26.2-1.1-1.4-3.3.6-2.1 2"/><path fill="#0c4589" d="M400.1 124.8c6.5 15.5 17.2 28 32.2 37.2l-7 6c-14.3-9.3-25-21.7-32.2-37.2z"/><path d="M398.8 125.5c6.9 15.9 18.1 28.6 32.7 37.8-.1-.8-.1-1.6-.2-2.4-2.3 2-4.6 4-7 6 .6 0 1.2-.1 1.8-.1-13.9-9.3-24.5-21.5-31.7-36.6-.1.6-.2 1.2-.4 1.8 2.3-2 4.6-4 7-6 1.5-1.3-.5-3.5-2-2.3-2.3 2-4.6 4-7 6-.5.4-.7 1.2-.4 1.8 7.4 15.5 18.4 28.2 32.7 37.8.5.4 1.3.3 1.8-.1 2.3-2 4.6-4 7-6 .7-.6.7-1.9-.2-2.4-14.2-8.9-25-21.1-31.7-36.6-.5-1.8-3.2-.5-2.4 1.3"/><path fill="#0c4589" d="M413.2 118.5c1.9 16.8 8.6 31.7 20.4 44.7l-8.4 3.8q-16.65-19.5-20.4-44.7z"/><path d="M411.7 118.7c2.1 17.2 9.3 32.5 20.8 45.5.2-.8.4-1.6.5-2.3-2.8 1.3-5.6 2.5-8.4 3.8.6.1 1.2.3 1.8.4-10.7-12.8-17.4-27.6-20.1-44-.3.5-.6 1.1-.9 1.6 2.8-1.3 5.6-2.5 8.4-3.8 1.8-.8.5-3.5-1.2-2.7-2.8 1.3-5.6 2.5-8.4 3.8-.6.3-1 1-.9 1.6 2.8 16.9 9.7 32.3 20.8 45.5.4.5 1.2.7 1.8.4 2.8-1.3 5.6-2.5 8.4-3.8.9-.4 1.2-1.6.5-2.3-11.1-12.6-18-27.3-20.1-44-.2-2.1-3.2-1.6-3 .3"/><path fill="#0c4589" d="M427.6 116.2c-2.9 16.6-.7 32.8 7 48.7l-9.1 1.3c-7-15.6-9.3-31.8-7-48.7z"/><path d="M426.1 116c-2.8 17.1-.3 33.8 7.1 49.5l1.2-2.1c-3 .4-6.1.9-9.1 1.3.5.3 1.1.6 1.6.9-6.7-15.3-8.9-31.4-6.9-47.9-.4.4-.8.9-1.3 1.3 3-.4 6.1-.9 9.1-1.3 1.9-.3 1.5-3.2-.4-3-3 .4-6.1.9-9.1 1.3-.7.1-1.2.6-1.3 1.3-2.1 17 .2 33.7 7.1 49.5.3.6.9 1 1.6.9 3-.4 6.1-.9 9.1-1.3.9-.1 1.6-1.2 1.2-2.1-7.1-15.2-9.6-31.3-6.9-47.9.3-2-2.7-2.3-3-.4"/><path fill="#0c4589" d="M442 117.9c-7.5 15.1-9.9 31.3-7 48.7l-9.1-1.3c-2.3-16.9.1-33.1 7-48.7z"/><path d="M440.6 117.3c-7.5 15.6-9.8 32.4-7.1 49.5l1.7-1.7c-3-.4-6.1-.9-9.1-1.3.4.4.8.9 1.3 1.3-2.1-16.5.3-32.6 6.9-47.9-.5.3-1.1.6-1.6.9 3 .4 6.1.9 9.1 1.3 1.9.3 2.3-2.7.4-3-3-.4-6.1-.9-9.1-1.3-.7-.1-1.3.3-1.6.9-6.8 15.8-9.3 32.4-7.1 49.5.1.7.6 1.2 1.3 1.3 3 .4 6.1.9 9.1 1.3.9.1 1.9-.7 1.7-1.7-2.6-16.6-.4-32.7 6.9-47.9.8-1.7-2-2.9-2.8-1.2"/><path fill="#0c4589" d="M455.3 123.7c-11.4 12.4-18.3 27.3-20.4 44.7l-8.4-3.8c2.5-16.9 9.4-31.8 20.4-44.7z"/><path d="M454.2 122.7c-11.6 12.9-18.5 28.3-20.8 45.5.7-.4 1.4-.8 2.1-1.1-2.8-1.3-5.6-2.5-8.4-3.8.3.5.6 1.1.9 1.6 2.7-16.5 9.4-31.2 20.1-44-.6.1-1.2.3-1.8.4 2.8 1.3 5.6 2.5 8.4 3.8 1.8.8 3-1.9 1.2-2.7-2.8-1.3-5.6-2.5-8.4-3.8-.6-.3-1.4-.1-1.8.4-11 13.2-18 28.5-20.8 45.5-.1.7.3 1.3.9 1.6 2.8 1.3 5.6 2.5 8.4 3.8.9.4 2-.2 2.1-1.1 2.2-16.6 8.8-31.5 20.1-44 1.4-1.6-.9-3.5-2.2-2.1"/><path fill="#0c4589" d="M466.5 133c-14.5 8.7-25.3 21-32.2 37.2l-7-6c7.2-15.5 18-27.8 32.2-37.2z"/><path d="M465.7 131.8c-14.7 9.1-25.7 22-32.7 37.8.8-.2 1.6-.3 2.3-.5-2.3-2-4.6-4-7-6 .1.6.2 1.2.4 1.8 7.2-15 17.8-27.3 31.7-36.6-.6 0-1.2-.1-1.8-.1 2.3 2 4.6 4 7 6 1.5 1.3 3.4-1 2-2.3-2.3-2-4.6-4-7-6-.5-.4-1.3-.5-1.8-.1-14.3 9.6-25.3 22.3-32.7 37.8-.3.6-.1 1.3.4 1.8 2.3 2 4.6 4 7 6 .7.6 1.9.4 2.3-.5 6.8-15.4 17.4-27.8 31.7-36.6 1.5-1.1-.2-3.5-1.8-2.5"/><path fill="#0c4589" d="M474.6 145.1c-16.3 4.3-30.2 13-41.4 26.6l-5-7.7c11.3-12.8 25.1-21.6 41.4-26.6z"/><path d="M474.1 143.6c-16.7 4.6-30.9 13.8-42 27 .8.1 1.6.1 2.4.2-1.7-2.6-3.3-5.2-5-7.7 0 .6-.1 1.2-.1 1.8 11.1-12.4 24.8-21.2 40.7-26.2-.6-.2-1.1-.4-1.7-.6 1.7 2.6 3.3 5.2 5 7.7 1 1.6 3.6 0 2.5-1.6-1.7-2.6-3.3-5.2-5-7.7-.4-.6-1.1-.8-1.7-.6-16.4 5.1-30.6 14.2-42 27-.4.5-.5 1.3-.1 1.8 1.7 2.6 3.3 5.2 5 7.7.5.8 1.7.9 2.4.2 10.9-12.8 24.5-21.7 40.7-26.2 1.7-.4.8-3.3-1.1-2.8"/><path fill="#0c4589" d="M479 158.9c-16.9-.5-32.6 4-47.2 13.9l-2.6-8.8c14.4-9.1 30.1-13.7 47.2-13.9z"/><path d="M478.9 157.4c-17.3-.3-33.5 4.6-48 14.1.7.3 1.5.6 2.2.9-.9-2.9-1.7-5.9-2.6-8.8-.2.6-.4 1.1-.6 1.7 14.2-8.8 29.8-13.3 46.4-13.6-.5-.4-1-.7-1.5-1.1.9 2.9 1.7 5.9 2.6 8.8.5 1.9 3.4 1 2.9-.8-.9-2.9-1.7-5.9-2.6-8.8-.2-.6-.8-1.1-1.5-1.1-17.2.3-33.4 5-48 14.1-.6.3-.8 1.1-.6 1.7.9 2.9 1.7 5.9 2.6 8.8.3.9 1.4 1.4 2.2.9 14-9.2 29.6-14 46.4-13.6 2.1-.1 2.1-3.1.1-3.2"/><path fill="#0c4589" d="M479.3 173.5c-16-5.2-32.4-5.3-49.2 0v-9.2q24.6-7.05 49.2 0z"/><path d="M479.7 172c-16.5-5.2-33.4-5.1-50 0 .6.5 1.3 1 1.9 1.4v-9.2c-.4.5-.7 1-1.1 1.4 16.1-4.4 32.3-4.4 48.4 0-.4-.5-.7-1-1.1-1.4v9.2c0 1.9 3 1.9 3 0v-9.2c0-.7-.5-1.3-1.1-1.4-16.6-4.5-33.4-4.6-50 0-.6.2-1.1.8-1.1 1.4v9.2c0 1 1 1.7 1.9 1.4 16.1-4.9 32.3-5 48.4 0 1.8.7 2.6-2.2.8-2.8"/><path fill="#0c4589" d="M458.5 174c-9.3-4.9-18.7-4.9-28.4 0v-11c9.7-3.5 19.2-3.5 28.4 0z"/><path d="M459.2 172.7c-10-4.9-19.9-4.8-29.9 0 .8.4 1.5.9 2.3 1.3v-11c-.4.5-.7 1-1.1 1.4 9.3-3.2 18.3-3.3 27.6 0-.4-.5-.7-1-1.1-1.4v11c0 1.9 3 1.9 3 0v-11c0-.7-.5-1.2-1.1-1.4-9.7-3.5-19.5-3.3-29.2 0-.6.2-1.1.8-1.1 1.4v11c0 1.2 1.3 1.8 2.3 1.3 9-4.3 17.9-4.4 26.9 0 1.7.8 3.2-1.8 1.4-2.6"/><path fill="#0c4589" d="M448.8 190.2c-4.6-9.4-12.3-15-23-16.7l6.5-8.9c9.9 2.9 17.6 8.4 23 16.7z"/><path d="M450.2 189.6C445 179.8 436.9 174 426 172c.4.8.7 1.6 1.1 2.4 2.2-3 4.3-5.9 6.5-8.9-.6.2-1.2.3-1.7.5 9.4 2.9 16.8 8.1 22.3 16.2v-1.8c-2.2 3-4.3 5.9-6.5 8.9-1.1 1.6 1.3 3.3 2.4 1.8 2.2-3 4.3-5.9 6.5-8.9.4-.6.3-1.3 0-1.8-5.8-8.5-13.8-14.1-23.6-17.2-.6-.2-1.3 0-1.7.5-2.2 3-4.3 5.9-6.5 8.9-.7 1 0 2.2 1.1 2.4 9.8 1.8 17.1 7 21.8 15.8.6 1.7 3.4.5 2.5-1.2"/><path fill="#0c4589" d="M431.4 197.7c1.8-10.3-1.1-19.3-8.8-27l10.5-3.4c6.3 8.1 9.3 17.1 8.8 27z"/><path d="M432.8 198c1.6-11-1.6-20.4-9.2-28.5-.2.8-.4 1.7-.5 2.5 3.5-1.1 7-2.3 10.5-3.4-.6-.2-1.1-.4-1.7-.6 5.9 7.9 8.8 16.4 8.5 26.3.3-.5.7-1 1-1.5-3.5 1.1-7 2.3-10.5 3.4-1.8.6-.9 3.5.9 2.9 3.5-1.1 7-2.3 10.5-3.4.7-.2 1-.8 1-1.5.3-10.3-2.9-19.5-9-27.8-.4-.5-1.1-.8-1.7-.6-3.5 1.1-7 2.3-10.5 3.4-1.1.4-1.3 1.7-.5 2.5 6.9 7.2 9.7 15.7 8.3 25.6-.3 2 2.7 2.7 2.9.7"/><path fill="#0c4589" d="M412.9 193.5c7.5-7.3 10.5-16.3 8.8-27l10.5 3.4c.3 10.3-2.6 19.3-8.8 27z"/><path d="M413.9 194.7c7.8-8 10.7-17.5 9.2-28.5-.6.6-1.3 1.2-1.9 1.7 3.5 1.1 7 2.3 10.5 3.4-.3-.5-.7-1-1-1.5.1 9.8-2.5 18.5-8.5 26.3.6-.2 1.1-.4 1.7-.6-3.5-1.1-7-2.3-10.5-3.4-1.8-.6-2.8 2.3-.9 2.9 3.5 1.1 7 2.3 10.5 3.4.7.2 1.3-.1 1.7-.6 6.3-8.2 9.2-17.5 9-27.8 0-.7-.4-1.3-1-1.5-3.5-1.1-7-2.3-10.5-3.4-1.1-.4-2.1.6-1.9 1.7 1.3 9.9-1.3 18.4-8.3 25.6-1.5 1.4.5 3.6 1.9 2.3"/><path fill="#0c4589" d="M400.4 179.3c10.3-1.5 18-7 23-16.7l6.5 8.9c-5.8 8.5-13.4 14.1-23 16.7z"/><path d="M400.5 180.8c11-1.9 18.9-7.8 24.2-17.6-.9.1-1.7.2-2.6.3 2.2 3 4.3 5.9 6.5 8.9v-1.8c-5.7 8-12.9 13.5-22.3 16.2.6.2 1.2.3 1.7.5-2.2-3-4.3-5.9-6.5-8.9-1.1-1.6-3.6.2-2.4 1.8 2.2 3 4.3 5.9 6.5 8.9.4.6 1.1.7 1.7.5 9.9-2.9 17.7-8.8 23.6-17.2.4-.5.4-1.3 0-1.8-2.2-3-4.3-5.9-6.5-8.9-.7-1-2.1-.7-2.6.3-4.7 8.8-11.9 14.1-21.8 15.8-1.7.3-1.4 3.3.5 3"/><path fill="#0c4589" d="M398.7 160.4c9.3 4.9 18.7 4.9 28.4 0v11c-9.7 3.5-19.2 3.5-28.4 0z"/><path d="M397.9 161.7c10 4.9 19.9 4.8 29.9 0-.8-.4-1.5-.9-2.3-1.3v11c.4-.5.7-1 1.1-1.4-9.3 3.2-18.3 3.3-27.6 0 .4.5.7 1 1.1 1.4v-11c0-1.9-3-1.9-3 0v11c0 .7.5 1.2 1.1 1.4 9.7 3.5 19.5 3.3 29.2 0 .6-.2 1.1-.8 1.1-1.4v-11c0-1.2-1.3-1.8-2.3-1.3-9 4.3-17.9 4.4-26.9 0-1.6-.8-3.1 1.8-1.4 2.6"/><path fill="#0c4589" d="M408.3 144.1c4.6 9.4 12.3 15 23 16.7l-6.5 8.9c-9.9-2.9-17.6-8.4-23-16.7z"/><path d="M407 144.7c5.2 9.8 13.3 15.6 24.2 17.6-.4-.8-.7-1.6-1.1-2.4-2.2 3-4.3 5.9-6.5 8.9.6-.2 1.2-.3 1.7-.5-9.4-2.9-16.8-8.1-22.3-16.2v1.8c2.2-3 4.3-5.9 6.5-8.9 1.1-1.6-1.3-3.3-2.4-1.8-2.2 3-4.3 5.9-6.5 8.9-.4.6-.3 1.3 0 1.8 5.8 8.5 13.8 14.1 23.6 17.2.6.2 1.3 0 1.7-.5 2.2-3 4.3-5.9 6.5-8.9.7-1 0-2.2-1.1-2.4-9.8-1.8-17.1-7-21.8-15.8-.7-1.7-3.4-.5-2.5 1.2"/><path fill="#0c4589" d="M425.8 136.6c-1.8 10.3 1.1 19.3 8.8 27l-10.5 3.4c-6.3-8.1-9.3-17.1-8.8-27z"/><path d="M424.3 136.3c-1.6 11 1.6 20.4 9.2 28.5.2-.8.4-1.7.5-2.5-3.5 1.1-7 2.3-10.5 3.4.6.2 1.1.4 1.7.6-5.9-7.9-8.8-16.4-8.5-26.3-.3.5-.7 1-1 1.5 3.5-1.1 7-2.3 10.5-3.4 1.8-.6.9-3.5-.9-2.9-3.5 1.1-7 2.3-10.5 3.4-.7.2-1 .8-1 1.5-.3 10.3 2.9 19.5 9 27.8.4.5 1.1.8 1.7.6 3.5-1.1 7-2.3 10.5-3.4 1.1-.4 1.3-1.7.5-2.5-6.9-7.2-9.7-15.7-8.3-25.6.3-1.9-2.6-2.6-2.9-.7"/><path fill="#0c4589" d="M444.3 140.8c-7.5 7.3-10.5 16.3-8.8 27l-10.5-3.4c-.3-10.3 2.6-19.3 8.8-27z"/><path d="M443.3 139.7c-7.8 8-10.7 17.5-9.2 28.5.6-.6 1.3-1.2 1.9-1.7-3.5-1.1-7-2.3-10.5-3.4.3.5.7 1 1 1.5-.1-9.8 2.5-18.5 8.5-26.3-.6.2-1.1.4-1.7.6 3.5 1.1 7 2.3 10.5 3.4 1.8.6 2.8-2.3.9-2.9-3.5-1.1-7-2.3-10.5-3.4-.7-.2-1.3.1-1.7.6-6.3 8.2-9.2 17.5-9 27.8 0 .7.4 1.3 1 1.5 3.5 1.1 7 2.3 10.5 3.4 1.1.4 2.1-.6 1.9-1.7-1.3-9.9 1.3-18.4 8.3-25.6 1.4-1.4-.6-3.7-1.9-2.3"/><path fill="#0c4589" d="M456.8 155.1c-10.3 1.5-18 7-23 16.7l-6.5-8.9c5.8-8.5 13.4-14.1 23-16.7z"/><path d="M456.6 153.6c-11 1.9-18.9 7.8-24.2 17.6.9-.1 1.7-.2 2.6-.3-2.2-3-4.3-5.9-6.5-8.9v1.8c5.7-8 12.9-13.5 22.3-16.2-.6-.2-1.2-.3-1.7-.5 2.2 3 4.3 5.9 6.5 8.9 1.1 1.6 3.6-.2 2.4-1.8-2.2-3-4.3-5.9-6.5-8.9-.4-.6-1.1-.7-1.7-.5-9.9 2.9-17.7 8.8-23.6 17.2-.4.5-.4 1.3 0 1.8 2.2 3 4.3 5.9 6.5 8.9.7 1 2.1.7 2.6-.3 4.7-8.8 11.9-14.1 21.8-15.8 1.7-.4 1.4-3.3-.5-3"/><path fill="#0c4589" d="M458.5 174c-9.3-4.9-18.7-4.9-28.4 0v-11c9.7-3.5 19.2-3.5 28.4 0z"/><path d="M459.2 172.7c-10-4.9-19.9-4.8-29.9 0 .8.4 1.5.9 2.3 1.3v-11c-.4.5-.7 1-1.1 1.4 9.3-3.2 18.3-3.3 27.6 0-.4-.5-.7-1-1.1-1.4v11c0 1.9 3 1.9 3 0v-11c0-.7-.5-1.2-1.1-1.4-9.7-3.5-19.5-3.3-29.2 0-.6.2-1.1.8-1.1 1.4v11c0 1.2 1.3 1.8 2.3 1.3 9-4.3 17.9-4.4 26.9 0 1.7.8 3.2-1.8 1.4-2.6"/><path fill="#0c4589" d="M110 328.9c-16-5.2-32.4-5.3-49.2 0v-9.2q24.6-7.05 49.2 0z"/><path d="M110.4 327.5c-16.5-5.2-33.4-5.1-50 0 .6.5 1.3 1 1.9 1.4v-9.2c-.4.5-.7 1-1.1 1.4 16.1-4.4 32.3-4.4 48.4 0-.4-.5-.7-1-1.1-1.4v9.2c0 1.9 3 1.9 3 0v-9.2c0-.7-.5-1.3-1.1-1.4-16.6-4.5-33.4-4.6-50 0-.6.2-1.1.8-1.1 1.4v9.2c0 1 1 1.7 1.9 1.4 16.1-4.9 32.3-5 48.4 0 1.9.6 2.7-2.2.8-2.8"/><path fill="#0c4589" d="M106.2 342.9C92.3 333.4 76.6 328.7 59 329l2.6-8.8c17.1.1 32.8 4.8 47.2 13.9z"/><path d="M107 341.7c-14.4-9.6-30.7-14.3-48-14.1.5.6.9 1.3 1.4 1.9.9-2.9 1.7-5.9 2.6-8.8-.5.4-1 .7-1.5 1.1 16.7.3 32.2 4.9 46.4 13.6-.2-.6-.4-1.1-.6-1.7-.9 2.9-1.7 5.9-2.6 8.8-.5 1.9 2.3 2.7 2.9.8.9-2.9 1.7-5.9 2.6-8.8.2-.6-.1-1.4-.6-1.7-14.6-9-30.8-13.8-48-14.1-.7 0-1.3.4-1.5 1.1-.9 2.9-1.7 5.9-2.6 8.8-.3.9.4 1.9 1.4 1.9 16.8-.2 32.5 4.3 46.4 13.6 1.7 1.2 3.3-1.4 1.7-2.4"/><path fill="#0c4589" d="M98.6 355.3c-10.7-13.1-24.4-22-41.4-26.6l5-7.7c16.3 4.9 30.1 13.8 41.4 26.6z"/><path d="M99.7 354.3c-11.1-13.3-25.4-22.3-42-27 .3.7.5 1.5.8 2.2 1.7-2.6 3.3-5.2 5-7.7-.6.2-1.1.4-1.7.6 15.9 5 29.6 13.8 40.7 26.2 0-.6-.1-1.2-.1-1.8-1.7 2.6-3.3 5.2-5 7.7-1 1.6 1.5 3.2 2.5 1.6 1.7-2.6 3.3-5.2 5-7.7.4-.6.3-1.3-.1-1.8-11.5-12.8-25.7-21.9-42-27-.6-.2-1.4.1-1.7.6-1.7 2.6-3.3 5.2-5 7.7-.5.8-.1 2 .8 2.2 16.2 4.5 29.9 13.2 40.7 26.2 1.1 1.5 3.4-.5 2.1-2"/><path fill="#0c4589" d="M87.8 365.1c-6.5-15.5-17.2-28-32.2-37.2l7-6c14.3 9.3 25 21.7 32.2 37.2z"/><path d="M89.2 364.4c-6.9-15.9-18.1-28.6-32.7-37.8.1.8.1 1.6.2 2.4 2.3-2 4.6-4 7-6-.6 0-1.2.1-1.8.1 13.9 9.3 24.5 21.5 31.7 36.6.1-.6.2-1.2.4-1.8-2.3 2-4.6 4-7 6-1.5 1.3.5 3.5 2 2.3 2.3-2 4.6-4 7-6 .5-.4.7-1.2.4-1.8-7.4-15.5-18.4-28.2-32.7-37.8-.5-.4-1.3-.3-1.8.1-2.3 2-4.6 4-7 6-.7.6-.7 1.9.2 2.4 14.2 8.9 25 21.1 31.7 36.6.4 1.8 3.1.5 2.4-1.3"/><path fill="#0c4589" d="M74.7 371.4c-1.9-16.8-8.6-31.7-20.4-44.7l8.4-3.8q16.65 19.5 20.4 44.7z"/><path d="M76.2 371.1c-2.1-17.2-9.3-32.5-20.8-45.5-.2.8-.4 1.6-.5 2.3 2.8-1.3 5.6-2.5 8.4-3.8-.6-.1-1.2-.3-1.8-.4 10.7 12.8 17.4 27.6 20.1 44 .3-.5.6-1.1.9-1.6-2.8 1.3-5.6 2.5-8.4 3.8-1.8.8-.5 3.5 1.2 2.7 2.8-1.3 5.6-2.5 8.4-3.8.6-.3 1-1 .9-1.6-2.8-16.9-9.7-32.3-20.8-45.5-.4-.5-1.2-.7-1.8-.4-2.8 1.3-5.6 2.5-8.4 3.8-.9.4-1.2 1.6-.5 2.3 11.1 12.6 18 27.3 20.1 44 .3 2.1 3.2 1.6 3-.3"/><path fill="#0c4589" d="M60.4 373.7c2.9-16.6.7-32.8-7-48.7l9.1-1.3c7 15.6 9.3 31.8 7 48.7z"/><path d="M61.9 373.9c2.8-17.1.3-33.8-7.1-49.5l-1.2 2.1c3-.4 6.1-.9 9.1-1.3-.5-.3-1.1-.6-1.6-.9 6.7 15.3 8.9 31.4 6.9 47.9.4-.4.8-.9 1.3-1.3-3 .4-6.1.9-9.1 1.3-1.9.3-1.5 3.2.4 3 3-.4 6.1-.9 9.1-1.3.7-.1 1.2-.6 1.3-1.3 2.1-17-.2-33.7-7.1-49.5-.3-.6-.9-1-1.6-.9-3 .4-6.1.9-9.1 1.3-.9.1-1.6 1.2-1.2 2.1 7.1 15.2 9.6 31.3 6.9 47.9-.3 1.9 2.6 2.3 3 .4"/><path fill="#0c4589" d="M45.9 371.9c7.5-15.1 9.9-31.3 7-48.7l9.1 1.3c2.3 16.9-.1 33.1-7 48.7z"/><path d="M47.3 372.5c7.5-15.6 9.8-32.4 7.1-49.5l-1.7 1.7c3 .4 6.1.9 9.1 1.3-.4-.4-.8-.9-1.3-1.3 2.1 16.5-.3 32.6-6.9 47.9.5-.3 1.1-.6 1.6-.9-3-.4-6.1-.9-9.1-1.3-1.9-.3-2.3 2.7-.4 3 3 .4 6.1.9 9.1 1.3.7.1 1.3-.3 1.6-.9 6.8-15.8 9.3-32.4 7.1-49.5-.1-.7-.6-1.2-1.3-1.3-3-.4-6.1-.9-9.1-1.3-.9-.1-1.9.7-1.7 1.7 2.6 16.6.4 32.7-6.9 47.9-.8 1.8 2 3 2.8 1.2"/><path fill="#0c4589" d="M32.6 366.2C44 353.8 50.9 338.9 53 321.4l8.4 3.8C58.9 342.1 52 357 41 370z"/><path d="M33.8 367.1c11.6-12.9 18.5-28.3 20.8-45.5-.7.4-1.4.8-2.1 1.1 2.8 1.3 5.6 2.5 8.4 3.8-.3-.5-.6-1.1-.9-1.6-2.7 16.5-9.4 31.2-20.1 44 .6-.1 1.2-.3 1.8-.4-2.8-1.3-5.6-2.5-8.4-3.8-1.8-.8-3 1.9-1.2 2.7 2.8 1.3 5.6 2.5 8.4 3.8.6.3 1.4.1 1.8-.4 11-13.2 18-28.5 20.8-45.5.1-.7-.3-1.3-.9-1.6-2.8-1.3-5.6-2.5-8.4-3.8-.9-.4-2 .2-2.1 1.1-2.2 16.6-8.8 31.5-20.1 44-1.4 1.6.9 3.6 2.2 2.1"/><path fill="#0c4589" d="M21.4 356.9c14.5-8.7 25.3-21 32.2-37.2l7 6c-7.2 15.5-18 27.8-32.2 37.2z"/><path d="M22.3 358.1C37 349 48 336.1 55 320.3c-.8.2-1.6.3-2.3.5 2.3 2 4.6 4 7 6-.1-.6-.2-1.2-.4-1.8-7.2 15-17.8 27.3-31.7 36.6.6 0 1.2.1 1.8.1-2.3-2-4.6-4-7-6-1.5-1.3-3.4 1-2 2.3 2.3 2 4.6 4 7 6 .5.4 1.3.5 1.8.1 14.3-9.6 25.3-22.3 32.7-37.8.3-.6.1-1.3-.4-1.8-2.3-2-4.6-4-7-6-.7-.6-1.9-.4-2.3.5-6.8 15.4-17.4 27.8-31.7 36.6-1.6 1 .1 3.5 1.8 2.5"/><path fill="#0c4589" d="M13.3 344.8c16.3-4.3 30.2-13 41.4-26.6l5 7.7c-11.3 12.8-25.1 21.6-41.4 26.6z"/><path d="M13.8 346.2c16.7-4.6 30.9-13.8 42-27-.8-.1-1.6-.1-2.4-.2 1.7 2.6 3.3 5.2 5 7.7 0-.6.1-1.2.1-1.8-11.1 12.4-24.8 21.2-40.7 26.2.6.2 1.1.4 1.7.6-1.7-2.6-3.3-5.2-5-7.7-1-1.6-3.6 0-2.5 1.6 1.7 2.6 3.3 5.2 5 7.7.4.6 1.1.8 1.7.6 16.4-5.1 30.6-14.2 42-27 .4-.5.5-1.3.1-1.8-1.7-2.6-3.3-5.2-5-7.7-.5-.8-1.7-.9-2.4-.2-10.9 12.8-24.5 21.7-40.7 26.2-1.7.5-.8 3.3 1.1 2.8"/><path fill="#0c4589" d="M9 330.9c16.9.5 32.6-4 47.2-13.9l2.6 8.8c-14.4 9.1-30.1 13.7-47.2 13.9z"/><path d="M9 332.4c17.3.3 33.5-4.6 48-14.1-.7-.3-1.5-.6-2.2-.9.9 2.9 1.7 5.9 2.6 8.8.2-.6.4-1.1.6-1.7-14.2 8.8-29.8 13.3-46.4 13.6.5.4 1 .7 1.5 1.1-.9-2.9-1.7-5.9-2.6-8.8-.5-1.9-3.4-1-2.9.8.9 2.9 1.7 5.9 2.6 8.8.2.6.8 1.1 1.5 1.1 17.2-.3 33.4-5 48-14.1.6-.3.8-1.1.6-1.7-.9-2.9-1.7-5.9-2.6-8.8-.3-.9-1.4-1.4-2.2-.9-14 9.2-29.6 14-46.4 13.6-2.1.2-2 3.2-.1 3.2"/><path fill="#0c4589" d="M8.7 316.4c16 5.2 32.4 5.3 49.2 0v9.2q-24.6 7.05-49.2 0z"/><path d="M8.3 317.8c16.5 5.2 33.4 5.1 50 0-.6-.5-1.3-1-1.9-1.4v9.2c.4-.5.7-1 1.1-1.4-16.1 4.4-32.3 4.4-48.4 0 .4.5.7 1 1.1 1.4v-9.2c0-1.9-3-1.9-3 0v9.2c0 .7.5 1.3 1.1 1.4 16.6 4.5 33.4 4.6 50 0 .6-.2 1.1-.8 1.1-1.4v-9.2c0-1-1-1.7-1.9-1.4-16.1 4.9-32.3 5-48.4 0-1.9-.6-2.7 2.3-.8 2.8"/><path fill="#0c4589" d="M12.5 302.4c13.9 9.5 29.6 14.2 47.2 13.9l-2.6 8.8c-17.1-.1-32.8-4.8-47.2-13.9z"/><path d="M11.7 303.6c14.4 9.6 30.7 14.3 48 14.1-.5-.6-.9-1.3-1.4-1.9-.9 2.9-1.7 5.9-2.6 8.8.5-.4 1-.7 1.5-1.1-16.7-.3-32.2-4.9-46.4-13.6.2.6.4 1.1.6 1.7.9-2.9 1.7-5.9 2.6-8.8.5-1.9-2.3-2.7-2.9-.8-.9 2.9-1.7 5.9-2.6 8.8-.2.6.1 1.4.6 1.7 14.6 9 30.8 13.8 48 14.1.7 0 1.3-.4 1.5-1.1.9-2.9 1.7-5.9 2.6-8.8.3-.9-.4-1.9-1.4-1.9-16.8.2-32.5-4.3-46.4-13.6-1.7-1.2-3.3 1.4-1.7 2.4"/><path fill="#0c4589" d="M20.1 290c10.7 13.1 24.4 22 41.4 26.6l-5 7.7c-16.3-4.9-30.1-13.8-41.4-26.6z"/><path d="M19 291c11.1 13.3 25.4 22.3 42 27-.3-.7-.5-1.5-.8-2.2-1.7 2.6-3.3 5.2-5 7.7.6-.2 1.1-.4 1.7-.6-15.9-5-29.6-13.8-40.7-26.2 0 .6.1 1.2.1 1.8 1.7-2.6 3.3-5.2 5-7.7 1-1.6-1.5-3.2-2.5-1.6-1.7 2.6-3.3 5.2-5 7.7-.4.6-.3 1.3.1 1.8 11.5 12.8 25.7 21.9 42 27 .6.2 1.4-.1 1.7-.6 1.7-2.6 3.3-5.2 5-7.7.5-.8.1-2-.8-2.2-16-4.6-29.8-13.3-40.6-26.2-1.2-1.5-3.4.5-2.2 2"/><path fill="#0c4589" d="M30.9 280.2c6.5 15.5 17.2 28 32.2 37.2l-7 6c-14.3-9.3-25-21.7-32.2-37.2z"/><path d="M29.5 280.9c6.9 15.9 18.1 28.6 32.7 37.8-.1-.8-.1-1.6-.2-2.4-2.3 2-4.6 4-7 6 .6 0 1.2-.1 1.8-.1-13.9-9.3-24.5-21.5-31.7-36.6-.1.6-.2 1.2-.4 1.8 2.3-2 4.6-4 7-6 1.5-1.3-.5-3.5-2-2.3-2.3 2-4.6 4-7 6-.5.4-.7 1.2-.4 1.8 7.4 15.5 18.4 28.2 32.7 37.8.5.4 1.3.3 1.8-.1 2.3-2 4.6-4 7-6 .7-.6.7-1.9-.2-2.4-14.2-8.9-25-21.1-31.7-36.6-.4-1.8-3.1-.5-2.4 1.3"/><path fill="#0c4589" d="M44 273.9c1.9 16.8 8.6 31.7 20.4 44.7l-8.4 3.8q-16.65-19.5-20.4-44.7z"/><path d="M42.5 274.2c2.1 17.2 9.3 32.5 20.8 45.5.2-.8.4-1.6.5-2.3-2.8 1.3-5.6 2.5-8.4 3.8.6.1 1.2.3 1.8.4-10.7-12.8-17.4-27.6-20.1-44-.3.5-.6 1.1-.9 1.6 2.8-1.3 5.6-2.5 8.4-3.8 1.8-.8.5-3.5-1.2-2.7-2.8 1.3-5.6 2.5-8.4 3.8-.6.3-1 1-.9 1.6 2.8 16.9 9.7 32.3 20.8 45.5.4.5 1.2.7 1.8.4 2.8-1.3 5.6-2.5 8.4-3.8.9-.4 1.2-1.6.5-2.3-11.1-12.6-18-27.3-20.1-44-.3-2.1-3.2-1.6-3 .3"/><path fill="#0c4589" d="M58.3 271.6c-2.9 16.6-.7 32.8 7 48.7l-9.1 1.3c-7-15.6-9.3-31.8-7-48.7z"/><path d="M56.9 271.4c-2.8 17.1-.3 33.8 7.1 49.5l1.2-2.1c-3 .4-6.1.9-9.1 1.3.5.3 1.1.6 1.6.9-6.7-15.3-8.9-31.4-6.9-47.9-.4.4-.8.9-1.3 1.3 3-.4 6.1-.9 9.1-1.3 1.9-.3 1.5-3.2-.4-3-3 .4-6.1.9-9.1 1.3-.7.1-1.2.6-1.3 1.3-2.1 17 .2 33.7 7.1 49.5.3.6.9 1 1.6.9 3-.4 6.1-.9 9.1-1.3.9-.1 1.6-1.2 1.2-2.1-7.1-15.2-9.6-31.3-6.9-47.9.2-1.9-2.7-2.3-3-.4"/><path fill="#0c4589" d="M72.8 273.4c-7.5 15.1-9.9 31.3-7 48.7l-9.1-1.3c-2.3-16.9.1-33.1 7-48.7z"/><path d="M71.4 272.8c-7.5 15.6-9.8 32.4-7.1 49.5l1.7-1.7c-3-.4-6.1-.9-9.1-1.3.4.4.8.9 1.3 1.3-2.1-16.6.2-32.6 6.8-47.9-.5.3-1.1.6-1.6.9 3 .4 6.1.9 9.1 1.3 1.9.3 2.3-2.7.4-3-3-.4-6.1-.9-9.1-1.3-.7-.1-1.3.3-1.6.9-6.8 15.8-9.3 32.4-7.1 49.5.1.7.6 1.2 1.3 1.3 3 .4 6.1.9 9.1 1.3.9.1 1.9-.7 1.7-1.7-2.6-16.6-.4-32.7 6.9-47.9.9-1.8-1.9-3-2.7-1.2"/><path fill="#0c4589" d="M86.1 279.2c-11.4 12.4-18.3 27.3-20.4 44.7l-8.4-3.8c2.5-16.9 9.4-31.8 20.4-44.7z"/><path d="M85 278.2c-11.6 12.9-18.5 28.3-20.8 45.5.7-.4 1.4-.8 2.1-1.1-2.8-1.3-5.6-2.5-8.4-3.8.3.5.6 1.1.9 1.6 2.7-16.5 9.4-31.2 20.1-44-.6.1-1.2.3-1.8.4 2.8 1.3 5.6 2.5 8.4 3.8 1.8.8 3-1.9 1.2-2.7-2.8-1.3-5.6-2.5-8.4-3.8-.6-.3-1.4-.1-1.8.4-11 13.2-18 28.5-20.8 45.5-.1.7.3 1.3.9 1.6 2.8 1.3 5.6 2.5 8.4 3.8.9.4 2-.2 2.1-1.1 2.2-16.6 8.8-31.5 20.1-44 1.4-1.6-1-3.5-2.2-2.1"/><path fill="#0c4589" d="M97.3 288.5c-14.5 8.7-25.3 21-32.2 37.2l-7-6c7.2-15.5 18-27.8 32.2-37.2z"/><path d="M96.4 287.2c-14.7 9.1-25.7 22-32.7 37.8.8-.2 1.6-.3 2.3-.5-2.3-2-4.6-4-7-6 .1.6.2 1.2.4 1.8 7.2-15 17.8-27.3 31.7-36.6-.6 0-1.2-.1-1.8-.1 2.3 2 4.6 4 7 6 1.5 1.3 3.4-1 2-2.3-2.3-2-4.6-4-7-6-.5-.4-1.3-.5-1.8-.1-14.3 9.6-25.3 22.3-32.7 37.8-.3.6-.1 1.3.4 1.8 2.3 2 4.6 4 7 6 .7.6 1.9.4 2.3-.5 6.8-15.4 17.4-27.8 31.7-36.6 1.6-1-.1-3.5-1.8-2.5"/><path fill="#0c4589" d="M105.4 300.5c-16.3 4.3-30.2 13-41.4 26.6l-5-7.7c11.3-12.8 25.1-21.6 41.4-26.6z"/><path d="M104.9 299.1c-16.7 4.6-30.9 13.8-42 27 .8.1 1.6.1 2.4.2-1.7-2.6-3.3-5.2-5-7.7 0 .6-.1 1.2-.1 1.8 11.1-12.4 24.8-21.2 40.7-26.2-.6-.2-1.1-.4-1.7-.6 1.7 2.6 3.3 5.2 5 7.7 1 1.6 3.6 0 2.5-1.6-1.7-2.6-3.3-5.2-5-7.7-.4-.6-1.1-.8-1.7-.6-16.4 5.1-30.6 14.2-42 27-.4.5-.5 1.3-.1 1.8 1.7 2.6 3.3 5.2 5 7.7.5.8 1.7.9 2.4.2 10.9-12.8 24.5-21.7 40.7-26.2 1.7-.5.8-3.3-1.1-2.8"/><path fill="#0c4589" d="M109.8 314.4c-16.9-.5-32.6 4-47.2 13.9l-2.6-8.8c14.4-9.1 30.1-13.7 47.2-13.9z"/><path d="M109.7 312.9c-17.3-.3-33.5 4.6-48 14.1.7.3 1.5.6 2.2.9-.9-2.9-1.7-5.9-2.6-8.8-.2.6-.4 1.1-.6 1.7 14.2-8.8 29.8-13.3 46.4-13.6-.5-.4-1-.7-1.5-1.1.9 2.9 1.7 5.9 2.6 8.8.5 1.9 3.4 1 2.9-.8-.9-2.9-1.7-5.9-2.6-8.8-.2-.6-.8-1.1-1.5-1.1-17.2.3-33.4 5-48 14.1-.6.3-.8 1.1-.6 1.7.9 2.9 1.7 5.9 2.6 8.8.3.9 1.4 1.4 2.2.9 14-9.2 29.6-14 46.4-13.6 2.1-.2 2.1-3.2.1-3.2"/><path fill="#0c4589" d="M110 328.9c-16-5.2-32.4-5.3-49.2 0v-9.2q24.6-7.05 49.2 0z"/><path d="M110.4 327.5c-16.5-5.2-33.4-5.1-50 0 .6.5 1.3 1 1.9 1.4v-9.2c-.4.5-.7 1-1.1 1.4 16.1-4.4 32.3-4.4 48.4 0-.4-.5-.7-1-1.1-1.4v9.2c0 1.9 3 1.9 3 0v-9.2c0-.7-.5-1.3-1.1-1.4-16.6-4.5-33.4-4.6-50 0-.6.2-1.1.8-1.1 1.4v9.2c0 1 1 1.7 1.9 1.4 16.1-4.9 32.3-5 48.4 0 1.9.6 2.7-2.2.8-2.8"/><path fill="#0c4589" d="M89.3 329.4c-9.3-4.9-18.7-4.9-28.4 0v-11c9.7-3.5 19.2-3.5 28.4 0z"/><path d="M90 328.1c-10-4.9-19.9-4.8-29.9 0 .8.4 1.5.9 2.3 1.3v-11c-.4.5-.7 1-1.1 1.4 9.3-3.2 18.3-3.3 27.6 0-.4-.5-.7-1-1.1-1.4v11c0 1.9 3 1.9 3 0v-11c0-.7-.5-1.2-1.1-1.4-9.7-3.5-19.5-3.3-29.2 0-.6.2-1.1.8-1.1 1.4v11c0 1.2 1.3 1.8 2.3 1.3 9-4.3 17.9-4.4 26.9 0 1.6.8 3.2-1.7 1.4-2.6"/><path fill="#0c4589" d="M79.6 345.7c-4.6-9.4-12.3-15-23-16.7l6.5-8.9c9.9 2.9 17.6 8.4 23 16.7z"/><path d="M81 345.1c-5.2-9.8-13.3-15.6-24.2-17.6.4.8.7 1.6 1.1 2.4 2.2-3 4.3-5.9 6.5-8.9-.6.2-1.2.3-1.7.5 9.4 2.9 16.8 8.1 22.3 16.2v-1.8c-2.2 3-4.3 5.9-6.5 8.9-1.1 1.6 1.3 3.3 2.4 1.8 2.2-3 4.3-5.9 6.5-8.9.4-.6.3-1.3 0-1.8-5.8-8.5-13.8-14.1-23.6-17.2-.6-.2-1.3 0-1.7.5-2.2 3-4.3 5.9-6.5 8.9-.7 1 0 2.2 1.1 2.4 9.8 1.8 17.1 7 21.8 15.8.6 1.7 3.4.5 2.5-1.2"/><path fill="#0c4589" d="M62.2 353.2c1.8-10.3-1.1-19.3-8.8-27l10.5-3.4c6.3 8.1 9.3 17.1 8.8 27z"/><path d="M63.6 353.5c1.6-11-1.6-20.4-9.2-28.5-.2.8-.4 1.7-.5 2.5 3.5-1.1 7-2.3 10.5-3.4-.6-.2-1.1-.4-1.7-.6 5.9 7.9 8.8 16.4 8.5 26.3.3-.5.7-1 1-1.5-3.5 1.1-7 2.3-10.5 3.4-1.8.6-.9 3.5.9 2.9 3.5-1.1 7-2.3 10.5-3.4.7-.2 1-.8 1-1.5.3-10.3-2.9-19.5-9-27.8-.4-.5-1.1-.8-1.7-.6-3.5 1.1-7 2.3-10.5 3.4-1.1.4-1.3 1.7-.5 2.5 6.9 7.2 9.7 15.7 8.3 25.6-.3 2 2.6 2.6 2.9.7"/><path fill="#0c4589" d="M43.7 349c7.5-7.3 10.5-16.3 8.8-27l10.5 3.4c.3 10.3-2.6 19.3-8.8 27z"/><path d="M44.7 350.1c7.8-8 10.7-17.5 9.2-28.5-.6.6-1.3 1.2-1.9 1.7 3.5 1.1 7 2.3 10.5 3.4-.3-.5-.7-1-1-1.5.1 9.8-2.5 18.5-8.5 26.3.6-.2 1.1-.4 1.7-.6-3.5-1.1-7-2.3-10.5-3.4-1.8-.6-2.8 2.3-.9 2.9 3.5 1.1 7 2.3 10.5 3.4.7.2 1.3-.1 1.7-.6 6.3-8.2 9.2-17.5 9-27.8 0-.7-.4-1.3-1-1.5-3.5-1.1-7-2.3-10.5-3.4-1.1-.4-2.1.6-1.9 1.7 1.3 9.9-1.3 18.4-8.3 25.6-1.5 1.4.5 3.7 1.9 2.3"/><path fill="#0c4589" d="M31.2 334.7c10.3-1.5 18-7 23-16.7l6.5 8.9c-5.8 8.5-13.4 14.1-23 16.7z"/><path d="M31.3 336.2c11-1.9 18.9-7.8 24.2-17.6-.9.1-1.7.2-2.6.3 2.2 3 4.3 5.9 6.5 8.9V326c-5.7 8-12.9 13.5-22.3 16.2.6.2 1.2.3 1.7.5-2.2-3-4.3-5.9-6.5-8.9-1.1-1.6-3.6.2-2.4 1.8 2.2 3 4.3 5.9 6.5 8.9.4.6 1.1.7 1.7.5 9.9-2.9 17.7-8.8 23.6-17.2.4-.5.4-1.3 0-1.8-2.2-3-4.3-5.9-6.5-8.9-.7-1-2.1-.7-2.6.3-4.7 8.8-11.9 14.1-21.8 15.8-1.7.4-1.4 3.4.5 3"/><path fill="#0c4589" d="M29.4 315.9c9.3 4.9 18.7 4.9 28.4 0v11c-9.7 3.5-19.2 3.5-28.4 0z"/><path d="M28.7 317.1c10 4.9 19.9 4.8 29.9 0-.8-.4-1.5-.9-2.3-1.3v11c.4-.5.7-1 1.1-1.4-9.3 3.2-18.3 3.3-27.6 0 .4.5.7 1 1.1 1.4v-11c0-1.9-3-1.9-3 0v11c0 .7.5 1.2 1.1 1.4 9.7 3.5 19.5 3.3 29.2 0 .6-.2 1.1-.8 1.1-1.4v-11c0-1.2-1.3-1.8-2.3-1.3-9 4.3-17.9 4.4-26.9 0-1.6-.8-3.2 1.8-1.4 2.6"/><path fill="#0c4589" d="M39.1 299.6c4.6 9.4 12.3 15 23 16.7l-6.5 8.9c-9.9-2.9-17.6-8.4-23-16.7z"/><path d="M37.8 300.2C43 310 51.1 315.8 62 317.8c-.4-.8-.7-1.6-1.1-2.4-2.2 3-4.3 5.9-6.5 8.9.6-.2 1.2-.3 1.7-.5-9.4-2.9-16.8-8.1-22.3-16.2v1.8c2.2-3 4.3-5.9 6.5-8.9 1.1-1.6-1.3-3.3-2.4-1.8-2.2 3-4.3 5.9-6.5 8.9-.4.6-.3 1.3 0 1.8 5.8 8.5 13.8 14.1 23.6 17.2.6.2 1.3 0 1.7-.5 2.2-3 4.3-5.9 6.5-8.9.7-1 0-2.2-1.1-2.4-9.8-1.8-17.1-7-21.8-15.8-.7-1.7-3.4-.5-2.5 1.2"/><path fill="#0c4589" d="M56.5 292.1c-1.8 10.3 1.1 19.3 8.8 27l-10.5 3.4c-6.3-8.1-9.3-17.1-8.8-27z"/><path d="M55.1 291.8c-1.6 11 1.6 20.4 9.2 28.5.2-.8.4-1.7.5-2.5-3.5 1.1-7 2.3-10.5 3.4.6.2 1.1.4 1.7.6-5.9-7.9-8.8-16.4-8.5-26.3-.3.5-.7 1-1 1.5 3.5-1.1 7-2.3 10.5-3.4 1.8-.6.9-3.5-.9-2.9-3.5 1.1-7 2.3-10.5 3.4-.7.2-1 .8-1 1.5-.3 10.3 2.9 19.5 9 27.8.4.5 1.1.8 1.7.6 3.5-1.1 7-2.3 10.5-3.4 1.1-.4 1.3-1.7.5-2.5-6.9-7.2-9.7-15.7-8.3-25.6.3-2-2.6-2.7-2.9-.7"/><path fill="#0c4589" d="M75 296.3c-7.5 7.3-10.5 16.3-8.8 27l-10.5-3.4c-.3-10.3 2.6-19.3 8.8-27z"/><path d="M74 295.1c-7.8 8-10.7 17.5-9.2 28.5.6-.6 1.3-1.2 1.9-1.7-3.5-1.1-7-2.3-10.5-3.4.3.5.7 1 1 1.5-.1-9.8 2.5-18.5 8.5-26.3-.6.2-1.1.4-1.7.6 3.5 1.1 7 2.3 10.5 3.4 1.8.6 2.8-2.3.9-2.9-3.5-1.1-7-2.3-10.5-3.4-.7-.2-1.3.1-1.7.6-6.3 8.2-9.2 17.5-9 27.8 0 .7.4 1.3 1 1.5 3.5 1.1 7 2.3 10.5 3.4 1.1.4 2.1-.6 1.9-1.7-1.3-9.9 1.3-18.4 8.3-25.6 1.5-1.4-.5-3.6-1.9-2.3"/><path fill="#0c4589" d="M87.5 310.5c-10.3 1.5-18 7-23 16.7l-6.5-8.9c5.8-8.5 13.4-14.1 23-16.7z"/><path d="M87.4 309c-11 1.9-18.9 7.8-24.2 17.6.9-.1 1.7-.2 2.6-.3-2.2-3-4.3-5.9-6.5-8.9v1.8c5.7-8 12.9-13.5 22.3-16.2-.6-.2-1.2-.3-1.7-.5 2.2 3 4.3 5.9 6.5 8.9 1.1 1.6 3.6-.2 2.4-1.8-2.2-3-4.3-5.9-6.5-8.9-.4-.6-1.1-.7-1.7-.5-9.9 2.9-17.7 8.8-23.6 17.2-.4.5-.4 1.3 0 1.8 2.2 3 4.3 5.9 6.5 8.9.7 1 2.1.7 2.6-.3C70.8 319 78 313.7 87.9 312c1.7-.3 1.4-3.3-.5-3"/><path fill="#0c4589" d="M89.3 329.4c-9.3-4.9-18.7-4.9-28.4 0v-11c9.7-3.5 19.2-3.5 28.4 0z"/><path d="M90 328.1c-10-4.9-19.9-4.8-29.9 0 .8.4 1.5.9 2.3 1.3v-11c-.4.5-.7 1-1.1 1.4 9.3-3.2 18.3-3.3 27.6 0-.4-.5-.7-1-1.1-1.4v11c0 1.9 3 1.9 3 0v-11c0-.7-.5-1.2-1.1-1.4-9.7-3.5-19.5-3.3-29.2 0-.6.2-1.1.8-1.1 1.4v11c0 1.2 1.3 1.8 2.3 1.3 9-4.3 17.9-4.4 26.9 0 1.6.8 3.2-1.7 1.4-2.6"/></g><g><g><path fill="#0c4589" d="m256.8 135.1-6.8-33 17.3 33z"/><path d="M258.2 134.7c-2.3-11-4.5-22-6.8-33l-2.7 1.2c5.8 11 11.6 22 17.3 33 .4-.8.9-1.5 1.3-2.3h-10.6c-1.9 0-1.9 3 0 3h10.6c1.2 0 1.8-1.3 1.3-2.3-5.8-11-11.6-22-17.3-33-.8-1.6-3.1-.4-2.7 1.2 2.3 11 4.5 22 6.8 33 .3 1.9 3.2 1.1 2.8-.8"/><path fill="#308dd8" d="m250 168.1 6.8-33h10.5z"/><path d="M251.4 168.5c2.3-11 4.5-22 6.8-33-.5.4-1 .7-1.4 1.1h10.6c-.4-.8-.9-1.5-1.3-2.3-5.8 11-11.6 22-17.3 33-.9 1.7 1.7 3.2 2.6 1.5 5.8-11 11.6-22 17.3-33 .5-1-.1-2.3-1.3-2.3h-10.6c-.6 0-1.3.5-1.4 1.1-2.3 11-4.5 22-6.8 33-.4 2 2.4 2.8 2.8.9"/><path fill="#a0eaa7" d="m232.7 135.1 17.3-33 6.8 33z"/><path d="M234 135.8c5.8-11 11.6-22 17.3-33-.9-.1-1.8-.2-2.7-.4 2.2 11 4.5 22 6.7 33 .5-.6 1-1.3 1.4-1.9h-24.1c-1.9 0-1.9 3 0 3h24.1c1 0 1.6-1 1.4-1.9-2.2-11-4.5-22-6.7-33-.3-1.3-2.2-1.5-2.7-.4-5.8 11-11.6 22-17.3 33-.9 1.8 1.7 3.4 2.6 1.6"/><path fill="#d9ffda" d="m250 168.1-17.3-33h24.1z"/><path d="M251.3 167.3c-5.8-11-11.6-22-17.3-33-.4.8-.9 1.5-1.3 2.3h24.1c-.5-.6-1-1.3-1.4-1.9-2.2 11-4.5 22-6.7 33-.4 1.9 2.5 2.7 2.9.8 2.2-11 4.5-22 6.7-33 .2-.9-.4-1.9-1.4-1.9h-24.1c-1.2 0-1.8 1.3-1.3 2.3 5.8 11 11.6 22 17.3 33 .8 1.7 3.4.1 2.5-1.6"/></g></g></svg>