<svg xmlns="http://www.w3.org/2000/svg" xml:space="preserve" viewBox="0 0 500 500"><g><path fill="#fff" d="M457.4 195.4c10.9 10.3.4 30.2-8.4 40l-68.4 75.1c-9.1 10-23.8 11.5-32.4 3.3l-2.7-2.5c-8.7-8.2-8-22.9 1.4-32.6L418 206c9.2-9.4 28.5-20.9 39.4-10.6"/><path d="M455.6 197.1c10.6 10.8-1.5 28.8-9.4 37.5-5.7 6.2-11.4 12.5-17 18.7-15.6 17.1-31.1 34.2-46.7 51.3-7.5 8.2-18 16.2-29.4 9.6-13.8-7.9-13.8-24.2-3.3-35 14.8-15.2 29.7-30.3 44.5-45.4 7.7-7.9 15.4-15.7 23.1-23.6 8.5-8.6 26.2-23.5 38.2-13.1 2.4 2.1 6-1.4 3.5-3.5-13.5-11.7-32.9.6-43.2 10.9-5.9 5.9-11.7 12-17.6 18-17.2 17.6-34.4 35.1-51.6 52.7-9.3 9.5-14.3 24.5-4.9 35.9 10.9 13.3 28.8 13.5 40.6 1 15.3-16.2 30-32.9 45-49.4 7.5-8.2 15-16.4 22.5-24.7 9.8-10.8 22-31.4 9.3-44.4-2.3-2.3-5.8 1.2-3.6 3.5"/><path fill="#ffdb53" d="m426.2 264.4-43.1 46.9c-10.1 11.1-26.4 12.7-36.2 3.5l-3-2.8c-9.7-9.2-9.1-25.6 1.5-36.3l43.8-44.8z"/><path d="M424.4 262.6c-14.4 15.6-28.5 31.6-43.1 46.9-8.6 9-22.6 12.3-32.6 3.5-7.3-6.4-11-14.8-8.1-24.6 1.8-6 5.8-10.2 10-14.5l13.7-14c8.9-9.1 17.8-18.2 26.8-27.3h-3.5c12.3 11.2 24.7 22.3 37 33.5 2.4 2.2 5.9-1.4 3.5-3.5-12.3-11.2-24.7-22.3-37-33.5-1-.9-2.6-1-3.5 0l-25.7 26.3-14.9 15.2c-4.4 4.5-8.5 9.1-10.6 15.2-6.9 19.6 10.7 40.6 31.3 37 13.7-2.5 22.8-15.6 31.7-25.3 9.6-10.5 19.2-20.9 28.9-31.4 1.9-2.3-1.7-5.9-3.9-3.5"/><path fill="#ffdb53" d="m420.785 270.717-36.996-35.104 8.81-9.285 36.996 35.103z"/><path d="M382 237.4c12.3 11.7 24.7 23.4 37 35.1 1 .9 2.6 1 3.5 0 2.9-3.1 5.9-6.2 8.8-9.3.9-1 1-2.6 0-3.5-12.3-11.7-24.7-23.4-37-35.1-1-.9-2.6-1-3.5 0-2.9 3.1-5.9 6.2-8.8 9.3-2.2 2.3 1.3 5.9 3.5 3.5 2.9-3.1 5.9-6.2 8.8-9.3h-3.5c12.3 11.7 24.7 23.4 37 35.1v-3.5c-2.9 3.1-5.9 6.2-8.8 9.3h3.5c-12.3-11.7-24.7-23.4-37-35.1-2.3-2.3-5.8 1.2-3.5 3.5"/><path fill="#f789a3" d="m441.77 249.454-36.995-35.104 8.81-9.285 36.996 35.103z"/><path d="M403.7 215.4c12.3 11.7 24.7 23.4 37 35.1.6.5 1.6.6 2.1 0 2.9-3.1 5.9-6.2 8.8-9.3.5-.6.6-1.6 0-2.1-12.3-11.7-24.7-23.4-37-35.1-.6-.5-1.6-.6-2.1 0-2.9 3.1-5.9 6.2-8.8 9.3-1.3 1.4.8 3.5 2.1 2.1 2.9-3.1 5.9-6.2 8.8-9.3h-2.1c12.3 11.7 24.7 23.4 37 35.1v-2.1c-2.9 3.1-5.9 6.2-8.8 9.3h2.1c-12.3-11.7-24.7-23.4-37-35.1-1.4-1.4-3.5.7-2.1 2.1"/><path fill="#ffdb53" d="m396.852 212.582 14.112-14.453 5.51 5.379-14.112 14.453z"/><path d="m415.4 202.5-14.1 14.4h2.1c-1.8-1.8-3.7-3.6-5.5-5.4v2.1l14.1-14.4h-2.1c1.8 1.8 3.7 3.6 5.5 5.4 1.4 1.3 3.5-.8 2.1-2.1-1.8-1.8-3.7-3.6-5.5-5.4-.6-.6-1.5-.6-2.1 0l-14.1 14.4c-.6.6-.6 1.5 0 2.1 1.8 1.8 3.7 3.6 5.5 5.4.6.6 1.5.6 2.1 0l14.1-14.4c1.4-1.4-.7-3.5-2.1-2.1"/><path fill="#875222" d="M130 232.9c-4.9.1-11.5-100.1 0-110.9 9.3-8.8 16.5-11 16.5-11s2.8-24.3 41.8-24.8 46-28.8 46-28.8 4.8 4.3 4 15.8c0 0 10.1-16.5 10.5-28.5 0 0 10.5 13.3 15.5 30l4.6-20s10.1 20.3 39.6 31 50.3 17.7 58 31c8.4 14.5 5.1 121.1 2.5 121.1"/><path d="M130 230.4c2.4.3 1.2 1.2 1.2-.1-.1-1-.6-2.3-.8-3.3-.7-3.1-1.1-6.3-1.5-9.5-1.1-9.5-1.8-19.1-2.2-28.7-.9-18.8-2.2-39.5 2.2-58 2-8.6 10-14.8 18.3-17.5 1.2-.4 1.7-1.3 1.8-2.4-.1 1.1.4-1.7.6-2.3.7-2.1 1.8-4.2 3.1-6 5.3-7.3 14-11.1 22.6-12.8 12.6-2.5 25.1-.8 37.2-6 7.4-3.2 13.8-8.2 18.5-14.8 2.4-3.3 4.5-7.1 5.5-11-1.4.4-2.8.7-4.2 1.1 3.5 3.3 3.4 9.7 3.3 14-.1 2.5 3.4 3.3 4.7 1.3 5.4-8.9 10.2-19.3 10.9-29.8-1.4.6-2.8 1.2-4.3 1.8 6.1 7.8 11.7 18.8 14.8 28.9.7 2.3 4.2 2.5 4.8 0 1.5-6.7 3.1-13.3 4.6-20-1.5.2-3 .4-4.6.6 6.3 12.4 19.3 22 31.4 28 12.3 6.1 25.8 9.7 38.5 15 9.2 3.8 20 8.4 26.2 16.7 2.9 3.8 3.6 8.4 4.2 13 1 7.2 1.4 14.5 1.8 21.8.8 17.2.7 34.5.3 51.8-.2 7.8-.5 15.7-1 23.5-.2 2.6-.3 5.2-.6 7.7-.1.6-.3 1.5-.3 2.1.1 1.8-1.3.5 1.2-.2-3.1.8-1.8 5.6 1.3 4.8 2.8-.7 2.7-5.5 2.9-7.6.6-5.9.9-11.9 1.1-17.9.7-17.7.9-35.4.5-53.1-.3-13.7.1-29.2-4-42.4-2.1-6.6-7.5-11.5-13-15.2-10.1-6.9-22.1-11-33.4-15.2-19.4-7.2-42.6-15.3-52.7-35.2-1-1.9-4.1-1.4-4.6.6-1.5 6.7-3.1 13.3-4.6 20h4.8C263 63 257.6 52.2 250.4 43c-1.5-1.9-4.1-.2-4.3 1.8-.6 9.6-5.3 19.1-10.2 27.2 1.6.4 3.1.8 4.7 1.3.2-5.7-.2-13.3-4.7-17.5-1.3-1.3-3.7-.8-4.2 1.1-3 11.9-14.6 20.7-25.7 24.2-12.6 4-26 1.6-38.6 5.8-7.5 2.5-14.4 6.8-19 13.3-2.2 3.2-4 6.9-4.5 10.8l1.8-2.4c-4.5 1.4-8.6 4.3-12.3 7.1-3.7 2.9-6.7 5.4-8.3 9.8-3 8.2-3.3 17.6-3.7 26.1-1.1 22.6-.2 45.7 2.7 68.1.5 3.7.5 15.1 5.9 15.7 3.2.4 3.2-4.6 0-5"/><path fill="#ffdb53" d="m137.2 307.3 8.2-9.7c8.2-8.6 6.4-22.2-2.1-30.3l-1-.9c-8.6-8.2-22.2-7.8-30.3.7l-30.2 31.7c-12.5 13.1-13.7 29.4-3.3 44.1"/><path d="M138.9 309.1c7.1-8.4 15.6-16.1 14-28.1-1.9-14.6-16.6-25.9-31.2-22.3-9.1 2.2-15.1 10.4-21.3 16.9-6.7 7-13.4 13.9-20 21-13 13.8-14.9 31.8-4.2 47.7 1.8 2.7 6.1.2 4.3-2.5-9.3-13.8-8.3-29.2 3.1-41.4 4.9-5.2 9.9-10.4 14.8-15.6s9.7-10.5 14.8-15.5c10.1-10 25.7-6.9 32.3 5.4 3.9 7.3 2.9 15.3-2.4 21.5-2.6 3.1-5.3 6.2-7.9 9.4-1.9 2.4 1.7 5.9 3.7 3.5"/><path fill="#fff" d="M381.1 349.2c-.2-6-2.6-18-5.4-31.8l-.1-.5c-3-14.8-6.6-33.2-6.8-41.2-.1-5 .1-12.2.1-19.8v-.4c0-15.6.1-37.1-1.4-51.2-1.2-11.5-5.6-40.7-19.2-62.5-12.6-20.2-27.9-33.2-47.9-41.4-18.4-7.4-52.1-8.3-53-8.3-8.6 0-30.7.7-49.1 8.1-20.1 8.1-35.3 21.3-47.9 41.5-13.6 21.8-17.9 51-19.1 62.5-1.5 14.1-1.4 35.5-1.2 51.2v3.6c0 6.3 0 12.3-.1 16.6-.2 8.1-3.9 26.5-6.9 41.3l-.1.6c-2.7 13.8-5.1 25.7-5.4 31.7-.6 15.4 3.8 25.7 14.9 35.8 7.1 6.4 14 9.5 21.7 9.5 4.1 0 7.8-.8 11.9-1.8 1.1-.3 2.3-.6 3.5-1.1 4 2.2 11.7 5.6 21.7 5.6 6.5 0 14.1-1.4 22.4-5.4 4.8 3.9 9.7 7.5 9.7 7.5 12.9 7.3 24 8.8 25.6 8.8h.4c1.6 0 12.7-.9 26.1-8.8 0 0 4.3-3.1 8.8-6.7 7.7 3.4 14.7 4.6 20.8 4.6 10.9 0 19-3.9 22.7-6.1 1.8.7 3.3 1.3 4.9 1.7 4 1 7.7 1.8 11.8 1.8 7.8 0 14.4-2.9 21.6-9.5 11.3-10.1 15.6-20.5 15-35.9"/><path fill="#ffde83" d="M374.6 326.1H121.9l7.9-66.7c77.6 11.2 157.5 11.4 239.9 0z"/><path fill="#e29542" d="M373.3 334.5c-86.3 11.3-170.1 11.4-251.3 0l1-15c81.2 11.4 165 11.3 251.3 0z"/><path d="M373.3 332c-64.7 8.4-130.1 10.9-195.1 6-18.6-1.4-37.1-3.4-55.5-5.9l1.8 2.4c.3-5 .7-10 1-15-1.1.8-2.1 1.6-3.2 2.4 64.3 8.9 129.4 10.7 194.1 6 19.4-1.4 38.7-3.4 57.9-5.9l-2.5-2.5c-.3 5-.7 10-1 15-.2 3.2 4.8 3.2 5 0 .3-5 .7-10 1-15 .1-1.2-1.2-2.7-2.5-2.5-64.7 8.4-130.1 10.9-195.1 6-18.6-1.4-37.1-3.4-55.5-5.9-1.7-.2-3 .6-3.2 2.4-.3 5-.7 10-1 15-.1 1 .8 2.3 1.8 2.4 64.3 8.9 129.4 10.7 194.1 6 19.4-1.4 38.7-3.4 57.9-5.9 3.2-.4 3.2-5.4 0-5"/><path fill="#ffdb53" d="M120.5 334.5s142.6 16.5 256.5 0c0 0 13.1 46.6-18.8 55.9s-38.6-14.8-57.3-9.1c-18.6 5.8-30.6 26.2-54 26.6s-38-26.6-51.7-27.9-18.1 15.6-48.8 13-24.8-27.9-25.9-58.5"/><path fill="#c8c8c8" d="M285.5 389.9s8-6.1 16.8-7c8.8-1 23.8 5.5 23.8 5.5s-4.9 10-14.2 9.8c-9.4-.3-26.4-8.3-26.4-8.3M169.6 389.9s8-6.1 16.8-7 23.8 5.5 23.8 5.5-4.9 10-14.2 9.8-26.4-8.3-26.4-8.3"/><path d="M383.3 351.5c-.2-6.1-2.7-18.4-5.5-32.5l-.1-.5c-3-15.1-6.1-33.9-6.4-42.1-.1-5.1.7-12.5.7-20.3v-.4c0-16-.4-37.9-2-52.2-1.2-11.8-6-41.6-19.9-63.8-12.9-20.6-28.6-33.9-49.1-42.2-18.8-7.6-53.2-8.4-54.2-8.4-8.8 0-31.4.7-50.1 8.3-20.5 8.3-36.1 21.7-48.9 42.3-13.9 22.2-18.3 52.1-19.6 63.8-1.5 14.4-1.4 36.3-1.3 52.3v3.7c0 6.5 0 12.5-.1 16.9-.2 8.3-4 27-7 42.1l-.2.6c-2.8 14.1-5.2 26.3-5.5 32.4-.6 15.7 3.8 26.3 15.2 36.6 7.3 6.6 14.3 9.7 22.1 9.7 4.2 0 8-.8 12.1-1.9 1.1-.3 2.3-.7 3.5-1.1 4.1 2.3 11.9 5.7 22.2 5.7 6.7 0 14.4-1.4 22.9-5.5 4.9 4 9.9 7.4 10 7.4 13.2 7.5 24.5 8.7 26.2 8.7h.4c1.7 0 13-.7 26.7-8.7 0 0 4.4-3 8.9-6.7 7.8 3.5 15 4.8 21.3 4.8 11.2 0 19.4-4 23.2-6.2 1.8.7 3.4 1.3 5 1.7 4.1 1 7.9 1.9 12.1 1.9 7.9 0 14.7-3 22.1-9.6 11.5-10.5 15.9-21.1 15.3-36.8M176 391c6.1-2.6 13.6-5.5 20.1-5.5 4.4 0 7.6 1.3 10.4 4.1l.2.2c-13.2 5.5-24 3.7-30.7 1.2m114.5-.5c.3-.3.6-.5.8-.8 2.8-2.8 6-4.2 10.4-4.2 6.1 0 13 2.5 18.9 5-6.5 2.6-17.1 4.8-30.1 0m72.7-7.8c-6 5.4-11.1 7.8-17.2 7.8-3.4 0-6.6-.7-10.4-1.6-2-.5-4.5-1.6-7.7-3l-.5-.2c-7-3.2-16.7-7.4-25.8-7.4-6.3 0-11.3 2.1-15.6 6.3-11 11.2-21.9 15.7-29.1 17.5-.1 0-7.1 1.9-15.2-.3-8.2-2.3-19.2-6.1-30.1-17.2-4.1-4.2-9.2-6.3-15.6-6.3-9 0-18.6 4.2-25.9 7.4l-.3.1c-3.3 1.4-5.8 2.6-7.9 3.1-3.8.9-7 1.6-10.4 1.6-6 0-11.3-2.4-17.2-7.8-9.8-8.9-13.3-17.3-12.8-30.9.2-5.5 2.6-17.4 5.4-31.2l.1-.6c3.2-16.1 6.9-34.4 7.2-43.4.1-4.5.1-10.6.1-17.1v-3.7c-.1-15.8-.3-37.5 1.2-51.4 1.2-11.3 5.4-39.8 18.5-60.7 12-19.3 26.5-31.8 45.4-39.5 17.6-7.1 39-8.2 47.4-8.2.8 0 33.8.8 51.4 7.9 19 7.7 33.4 20.4 45.5 39.6 13.1 21 18.1 49.5 19.3 60.8 1.5 14 2.1 35.7 2.1 51.5v.4c0 7.8-.9 15.2-.8 20.4.2 8.9 3.5 27.2 6.8 43.4l-.1.5c2.8 13.8 5.1 25.8 5.3 31.3.3 13.6-3.3 22-13.1 30.9"/><path d="M324.2 191.9c0 10.6-8.6 19.1-19.1 19.1-10.6 0-19.1-8.6-19.1-19.1 0-.9.1-1.8.2-2.6 1.2.8 2.6 1.3 4.1 1.3 4 0 7.2-3.2 7.2-7.2 0-2.9-1.7-5.4-4.1-6.5 3.2-2.5 7.3-4 11.7-4 10.5-.1 19.1 8.5 19.1 19M214.1 191.9c0 10.6-8.6 19.1-19.1 19.1-10.6 0-19.1-8.6-19.1-19.1 0-.9.1-1.8.2-2.6 1.2.8 2.6 1.3 4.1 1.3 4 0 7.2-3.2 7.2-7.2 0-2.9-1.7-5.4-4.1-6.5 3.2-2.5 7.3-4 11.7-4 10.5-.1 19.1 8.5 19.1 19"/><ellipse cx="166.4" cy="228.6" fill="#f68694" rx="7.4" ry="3.4" transform="rotate(-44.198 166.406 228.55)"/><ellipse cx="180.5" cy="229.7" fill="#f68694" rx="7.4" ry="3.4" transform="rotate(-44.198 180.46 229.72)"/><ellipse cx="194.5" cy="229.7" fill="#f68694" rx="7.4" ry="3.4" transform="rotate(-44.198 194.513 229.721)"/><ellipse cx="333.9" cy="229.7" fill="#f68694" rx="7.4" ry="3.4" transform="rotate(224.198 333.885 229.722)"/><ellipse cx="319.8" cy="230.9" fill="#f68694" rx="7.4" ry="3.4" transform="rotate(224.198 319.83 230.893)"/><ellipse cx="305.8" cy="230.9" fill="#f68694" rx="7.4" ry="3.4" transform="rotate(224.198 305.777 230.893)"/><path d="M129.6 270.9c79.5 11.6 160.2 10.9 239.8 0 1.9-.3 1.1-3.2-.8-2.9-79 10.8-159.3 11.5-238.2 0-1.9-.2-2.7 2.7-.8 2.9"/><path d="M129.3 261.9c79.7 11.6 160.6 10.9 240.3 0 3.2-.4 1.8-5.3-1.3-4.8-78.8 10.8-158.9 11.5-237.7 0-3.1-.5-4.4 4.3-1.3 4.8M122.3 321.9c64.3 8.9 129.4 10.7 194.1 6 19.4-1.4 38.7-3.4 57.9-5.9 3.1-.4 3.2-5.4 0-5-64.7 8.4-130.1 10.9-195.1 6-18.6-1.4-37.1-3.4-55.5-5.9-3.2-.4-4.5 4.4-1.4 4.8M350.5 339.1c.7 14.5 6.5 38.8 25.7 35.1 3.2-.6 1.8-5.4-1.3-4.8-15 2.9-18.8-19.6-19.3-30.3-.3-3.2-5.3-3.2-5.1 0"/><path d="M121.3 336.9c64.3 8.9 129.4 10.7 194.1 6 19.4-1.4 38.7-3.4 57.9-5.9 3.1-.4 3.2-5.4 0-5-64.7 8.4-130.1 10.9-195.1 6-18.6-1.4-37.1-3.4-55.5-5.9-3.2-.4-4.5 4.4-1.4 4.8"/><path d="M143 339.1c-.5 10.7-4.4 33.2-19.3 30.3-3.1-.6-4.5 4.2-1.3 4.8 19.2 3.7 25-20.6 25.7-35.1.1-3.2-4.9-3.2-5.1 0"/><path fill="#ffdb53" d="m205 263.6-79.4-9s1.2 29-.3 41.3-8.4 64.5-8.4 64.5l88.1-.2z"/><path d="m204.7 261.1-79.2-9c-1.3-.1-2.6 1.3-2.5 2.5.8 18.3.4 36.2-1.9 54.4-2.2 17.1-4.5 34.3-6.8 51.4-.2 1.3 1.3 2.5 2.5 2.5 25.6-.1 51.2-.1 76.8-.2h11.2c1.4 0 2.5-1.1 2.5-2.5v-96.6c0-3.2-5-3.2-5 0v96.6l2.5-2.5c-25.6.1-51.2.1-76.8.2h-11.2l2.5 2.5c2.3-17.1 4.6-34.3 6.8-51.4 2.4-18.1 2.7-36.1 1.9-54.4l-2.5 2.5 79.2 9c3.2.3 3.2-4.7 0-5"/><path d="M201.7 262.2c-7.3 8.9-14.5 17.9-21.8 26.8 1.3.2 2.6.3 3.9.5-9.4-17.1-26.7-32.1-46.1-35.9-3.1-.6-4.5 4.2-1.3 4.8 18.2 3.5 34.2 17.5 43.1 33.6.7 1.3 2.9 1.8 3.9.5 7.3-8.9 14.5-17.9 21.8-26.8 2-2.5-1.5-6-3.5-3.5"/><path d="M137.4 297h29.2c1.4 0 2.5-1.1 2.5-2.5v-22.4c0-1.4-1.1-2.5-2.5-2.5h-29.2c-1.4 0-2.5 1.1-2.5 2.5v22.4c0 3.2 5 3.2 5 0v-22.4l-2.5 2.5h29.2l-2.5-2.5v22.4l2.5-2.5h-29.2c-3.3 0-3.3 5 0 5M185.5 283.2v77c0 1.9 3 1.9 3 0v-77c0-1.9-3-1.9-3 0"/><path d="M147 283.2c.1 2.7 2.1 4.9 4.9 4.9 2.7 0 4.9-2.3 4.9-4.9s-2.2-4.8-4.8-4.9c-2.7-.2-4.9 2.2-5 4.9-.1 1.9 2.9 1.9 3 0 .1-2.5 3.9-2.5 3.9 0s-3.7 2.5-3.9 0c-.1-1.9-3.1-1.9-3 0"/><path fill="#ffdb53" d="M233.2 323.8h34.9V347h-34.9z"/><path d="M268.1 344.5h-34.9l2.5 2.5v-23.3l-2.5 2.5h34.9l-2.5-2.5V347c0 3.2 5 3.2 5 0v-23.3c0-1.4-1.1-2.5-2.5-2.5h-34.9c-1.4 0-2.5 1.1-2.5 2.5V347c0 1.4 1.1 2.5 2.5 2.5h34.9c3.2 0 3.2-5 0-5"/><path d="M247 349v56c0 3.2 5 3.2 5 0v-56c0-3.2-5-3.2-5 0"/><path d="M235 348v28c0 1.4 1.1 2.5 2.5 2.5h11.7c3.2 0 3.2-5 0-5h-11.7l2.5 2.5v-28c0-3.2-5-3.2-5 0M172 177h45c3.2 0 3.2-5 0-5h-45c-3.2 0-3.2 5 0 5M284.3 168.7c6.2-4.6 13.2-8.1 21.1-8.1s15 3.6 21.4 8.1c2.6 1.9 5.1-2.5 2.5-4.3-7.1-5-15.1-8.7-23.9-8.8-8.8 0-16.7 3.6-23.6 8.8-2.6 1.8-.1 6.2 2.5 4.3M259.3 223.2c-2.7-.1-3.6-.3-6.4-.9-1.1-.2-2.3-.7-3.5-.8-1.3-.1-2 .5-3.2.6-3.8.4-6-2.7-9.5-3.4-3.8-.8-6.4-.2-8.2-4.1-1.4-2.9-5.7-.4-4.3 2.5 1.8 3.8 4.1 5.2 8.1 5.8 1.3.2 2.6.5 3.9.7 1.5.2-1.3-.9.3 0 2 1.1 3.6 2.6 5.9 3.2 2 .6 4.7.8 6.6-.4 1.6-1-1.3-.3-.5-.1.9.2 1.7.4 2.6.6 2.8.6 5.3 1 8.2 1.2 3.3.2 3.2-4.8 0-4.9M228.9 229c3.8 5.9 17.9 11.4 23.3 4.9 1.2-1.5-.9-3.6-2.1-2.1-4 4.8-15.7.1-18.6-4.3-1-1.6-3.6-.1-2.6 1.5M231.8 213.8c4.6-.8 8.9-1.7 12.1 2.6.5.7 1.3 1 2.1.5 4.5-2.6 7.5-.3 11.1 2.6 1.5 1.2 3.6-.9 2.1-2.1-4.8-4-8.8-6.5-14.7-3 .7.2 1.4.4 2.1.5-4.1-5.7-9-5.1-15.4-4-2.1.3-1.3 3.2.6 2.9"/><path fill="#875222" d="M364.8 168.1c-12.3-4.4-42.9-42.8-42.9-42.8L314 130l-.3-9.7-42 11.7 2.3-9.8-24.9 12.9-19.6-13.8 1.8 9.7-43.9-9.5-5.2 8.7-2.9-9.8c1.4 1.2-43.9 53-45.3 51.8 0 0 2.6-83.5 112.7-87.5 110.2-4 118.1 83.4 118.1 83.4"/><path d="M133.3 174.5c3 1.2 7.7-5.3 9.3-7 5.9-6.2 11.5-12.6 17.2-19 5.5-6.3 10.9-12.6 16.1-19.1 1.7-2.1 7.3-7.3 5.6-10.4-1.4-2.5-5.4-.8-4.6 1.9 1 3.3 2 6.5 2.9 9.8.6 2.1 3.5 2.5 4.6.6 1.7-2.9 3.4-5.8 5.2-8.7-.9.4-1.9.8-2.8 1.1 14.6 3.2 29.3 6.3 43.9 9.5 2 .4 3.4-1.2 3.1-3.1-.6-3.2-1.2-6.4-1.8-9.7-1.2.9-2.4 1.9-3.7 2.8 6.5 4.6 13.1 9.2 19.6 13.8.7.5 1.8.4 2.5 0l24.9-12.9c-1.2-.9-2.4-1.9-3.7-2.8-.8 3.3-1.5 6.6-2.3 9.8-.4 1.8 1.2 3.6 3.1 3.1l42-11.7c-1.1-.8-2.1-1.6-3.2-2.4.1 3.2.2 6.5.3 9.7 0 1.9 2.1 3.2 3.8 2.2 2.6-1.6 5.2-3.1 7.8-4.7-1-.1-2-.3-3-.4 5.6 7.1 11.5 13.9 17.6 20.6 7.3 8.1 15.9 18.8 26.4 22.9 3 1.2 4.3-3.7 1.3-4.8-4.5-1.8-8.4-5.7-11.9-8.9-4.8-4.5-9.4-9.4-13.8-14.3-5.5-6.2-10.9-12.5-16.1-18.9-.7-.8-2.2-.9-3-.4-2.6 1.6-5.2 3.1-7.8 4.7 1.3.7 2.5 1.4 3.8 2.2-.1-3.2-.2-6.5-.3-9.7 0-1.6-1.6-2.9-3.2-2.4l-42 11.7 3.1 3.1c.8-3.3 1.5-6.6 2.3-9.8.5-2.2-1.7-3.8-3.7-2.8L247.9 133h2.5c-6.5-4.6-13.1-9.2-19.6-13.8-2-1.4-4 .9-3.7 2.8.6 3.2 1.2 6.4 1.8 9.7l3.1-3.1c-14.6-3.2-29.3-6.3-43.9-9.5-1.1-.2-2.2.2-2.8 1.1-1.7 2.9-3.4 5.8-5.2 8.7 1.5.2 3 .4 4.6.6-1-3.3-2-6.5-2.9-9.8-1.5.6-3 1.3-4.6 1.9-1.3-2.4.7-2.2-.6-1.1-.5.4-1 1.4-1.4 2-1.5 2.1-3.2 4.1-4.8 6.1q-7.05 8.55-14.4 16.8c-4.9 5.5-9.8 11.1-14.8 16.5-1.7 1.9-3.5 3.7-5.3 5.5-.6.5-1.5 1.2-1.9 1.9-.8 1.3-1.3-.3.8.5-3.1-1.3-4.4 3.6-1.5 4.7"/><path fill="#fff" d="M78.4 342.5s7.3 8.1 17.4 8.6c10 .5 40.2 2.2 40.2 2.2 11.8.6 41.2-1.9 41.3-21.8s-27-21.7-38.9-22.4L99.2 307"/><path d="M76.6 344.3c11.3 12.3 30.1 10 45.3 10.8 13 .7 26.1 1.9 38.8-2.1 7-2.2 14.1-6.2 17.3-13.2 3-6.6 2.2-14.8-2.3-20.5-8.5-11-25.4-11.9-38.2-12.6l-38.4-2.1c-3.2-.2-3.2 4.8 0 5 10.4.6 20.9 1.1 31.3 1.7 10.6.6 21.6.6 31.6 4.5 7.4 2.9 13.2 8.5 12.6 16.9-.6 8-7.4 12.7-14.4 15.1-10.8 3.7-22 3.2-33.2 2.6-8.5-.5-17.1-1-25.6-1.4-8.2-.4-15.6-1.9-21.4-8.2-2-2.4-5.6 1.1-3.4 3.5"/><path fill="#ffdb53" d="m99.2 307.1 39.2 2.2-2.4 44.2s-30.2-1.7-40.2-2.2-17.4-8.6-17.4-8.6"/><path d="M99.2 309.6c13.1.7 26.1 1.4 39.2 2.2l-2.5-2.5c-.8 14.7-1.6 29.5-2.4 44.2l2.5-2.5c-8.8-.5-17.5-1-26.3-1.5-10.7-.6-21.6-.1-29.5-8.7-2.2-2.4-5.7 1.2-3.5 3.5 8.1 8.8 18.6 9.3 29.7 9.9 9.9.5 19.8 1.1 29.7 1.7 1.4.1 2.4-1.2 2.5-2.5.8-14.7 1.6-29.5 2.4-44.2.1-1.4-1.2-2.4-2.5-2.5-13.1-.7-26.1-1.4-39.2-2.2-3.3-.1-3.3 4.9-.1 5.1"/><path fill="#ffdb53" d="M126.8 306.9h12.8v46.8h-12.8z"/><path d="M124.3 306.9v46.8c0 1.4 1.1 2.5 2.5 2.5h12.8c1.4 0 2.5-1.1 2.5-2.5v-46.8c0-1.4-1.1-2.5-2.5-2.5h-12.8c-3.2 0-3.2 5 0 5h12.8l-2.5-2.5v46.8l2.5-2.5h-12.8l2.5 2.5v-46.8c0-3.3-5-3.3-5 0"/><path fill="#ffdb53" d="M118.7 360.7s21.6-14.7 22.1-56.7H186v56.4z"/><path d="M120.1 362.6c17.7-12.5 22.8-39.2 23.2-59.1l-2.5 2.5h45.6l-2.5-2.5v56.9l2.5-2.5c-22.5 0-45 .1-67.5.1-3.2 0-3.2 5 0 5 22.5 0 45-.1 67.5-.1 1.4 0 2.5-1.1 2.5-2.5v-56.9c0-1.4-1.1-2.5-2.5-2.5h-45.6c-1.4 0-2.5 1.1-2.5 2.5-.3 14.9-3 30.1-10.8 43-2 3.3-4.3 6.4-6.9 9.1-.7.7-1.5 1.5-2.3 2.2-.7.6-.5.4-.7.5-2.6 1.8-.1 6.2 2.5 4.3"/><path fill="#ffdb53" d="m290 263.6 79.1-9s-1.3 29 .2 41.3 8.6 64.5 8.6 64.5l-87.9-.2z"/><path d="m289.8 266.1 79.2-9-2.5-2.5c-.8 18.3-.4 36.2 1.9 54.4 2.2 17.1 4.5 34.3 6.8 51.4l2.5-2.5c-25.6-.1-51.2-.1-76.8-.2h-11.2l2.5 2.5v-96.6c0-3.2-5-3.2-5 0v96.6c0 1.4 1.1 2.5 2.5 2.5 25.6.1 51.2.1 76.8.2h11.2c1.2 0 2.7-1.2 2.5-2.5-2.3-17.1-4.6-34.3-6.8-51.4-2.4-18.1-2.7-36.1-1.9-54.4.1-1.2-1.2-2.6-2.5-2.5l-79.2 9c-3.2.3-3.2 5.3 0 5"/><path d="M289.3 265.7c7.3 8.9 14.5 17.9 21.8 26.8 1 1.3 3.2.8 3.9-.5 8.9-16.1 24.9-30.1 43.1-33.6 3.2-.6 1.8-5.4-1.3-4.8-19.4 3.7-36.6 18.7-46.1 35.9 1.3-.2 2.6-.3 3.9-.5-7.3-8.9-14.5-17.9-21.8-26.8-2-2.5-5.5 1-3.5 3.5"/><path d="M357.1 292h-29.2l2.5 2.5v-22.4l-2.5 2.5h29.2l-2.5-2.5v22.4c0 3.2 5 3.2 5 0v-22.4c0-1.4-1.1-2.5-2.5-2.5h-29.2c-1.4 0-2.5 1.1-2.5 2.5v22.4c0 1.4 1.1 2.5 2.5 2.5h29.2c3.3 0 3.3-5 0-5M306 283.2v77c0 1.9 3 1.9 3 0v-77c0-1.9-3-1.9-3 0"/><path d="M344.5 283.2c-.1 2.5-3.9 2.5-3.9 0s3.8-2.5 3.9 0c.1 1.9 3.1 1.9 3 0-.1-2.7-2.1-4.9-4.9-4.9-2.7 0-4.9 2.3-4.9 4.9s2.2 4.8 4.8 4.9c2.9.1 5-2.2 5.1-4.9 0-1.9-3-1.9-3.1 0"/><path fill="#ffdb53" d="M375.6 360.7S354.3 346 353.7 304H308v56.4z"/><path d="M376.9 358.3c-.2-.2.1.1-.5-.4-.8-.7-1.5-1.4-2.2-2.1-2.8-2.8-5.1-6-7.1-9.3-7.8-12.9-10.5-28.1-10.8-43 0-1.4-1.1-2.5-2.5-2.5h-45.6c-1.4 0-2.5 1.1-2.5 2.5v56.9c0 1.4 1.1 2.5 2.5 2.5 22.5 0 45 .1 67.5.1 3.2 0 3.2-5 0-5-22.5 0-45-.1-67.5-.1l2.5 2.5v-56.9l-2.5 2.5h45.6l-2.5-2.5c.4 19.9 5.5 46.6 23.2 59.1 2.5 1.9 5-2.5 2.4-4.3"/><path d="m340.6 154.1-39.9-18.6c-4.9-2.3-8.2-6.6-7.4-9.8l4.5-17.6c1-4 6.6-5.3 12.3-2.6l47.3 22c5.8 2.7 8.4 7.7 6 11.1l-10.6 14.8c-1.9 2.7-7.4 3-12.2.7M441.9 201.2 402 182.6c-4.9-2.3-8.2-6.6-7.4-9.8l4.5-17.6c1-4 6.6-5.3 12.3-2.6l47.3 22c5.8 2.7 8.4 7.7 6 11.1l-10.6 14.8c-2 2.7-7.4 3-12.2.7" opacity=".5"/><path d="M442.9 199.5c-9.5-4.4-19.1-8.9-28.6-13.3-3.7-1.7-7.5-3.3-11.2-5.2-3.2-1.6-6.5-3.9-6.1-7.9.4-3 1.6-6.2 2.3-9.1 1.7-6.5 2.2-12.7 11.1-9 3.9 1.6 7.8 3.6 11.6 5.4 11.1 5.1 22.1 10.3 33.2 15.4 1.8.8 3.8 1.6 5.3 3 3.7 3.3 1.9 5.7-.3 8.7s-4.3 6-6.5 9.1c-.6.9-1.2 2.1-2 2.8-2.6 2.3-6.7.9-9.5-.3-3-1.2-4.3 3.6-1.3 4.8 4.3 1.7 10.2 2.7 14-.7 1.9-1.7 3.3-4.3 4.7-6.4 3.5-4.9 10.4-11.3 7.4-17.8-2.4-5.2-8.2-7.2-13.1-9.5l-21.3-9.9c-6.1-2.8-12.1-5.6-18.2-8.5-5.6-2.6-14.3-4.9-17.5 2.3-2.5 5.5-3.6 12.5-4.8 18.3-1.4 6.9 4.3 11.3 9.9 14 12.7 6 25.6 11.9 38.3 17.8 3 1.7 5.5-2.6 2.6-4M341.6 152.4c-9.5-4.4-19.1-8.9-28.6-13.3-3.7-1.7-7.5-3.3-11.2-5.2-3.2-1.6-6.5-3.9-6.1-7.9.4-3 1.6-6.2 2.3-9.1 1.7-6.5 2.2-12.7 11.1-9 3.9 1.6 7.8 3.6 11.6 5.4 11.1 5.1 22.1 10.3 33.2 15.4 1.8.8 3.8 1.6 5.3 3 3.7 3.3 1.9 5.7-.3 8.7s-4.3 6-6.5 9.1c-.6.9-1.2 2.1-2 2.8-2.6 2.3-6.7.9-9.5-.3-3-1.2-4.3 3.6-1.3 4.8 4.3 1.7 10.2 2.7 14-.7 1.9-1.7 3.3-4.3 4.7-6.4 3.5-4.9 10.4-11.3 7.4-17.8-2.4-5.2-8.2-7.2-13.1-9.5l-21.3-9.9c-6.1-2.8-12.1-5.6-18.2-8.5-5.6-2.6-14.3-4.9-17.5 2.3-2.5 5.5-3.6 12.5-4.8 18.3-1.4 6.9 4.3 11.3 9.9 14 12.7 6 25.6 11.9 38.3 17.8 3 1.7 5.5-2.6 2.6-4"/><path d="M364.3 142c12.5-1 24.7 6.6 32.8 15.3 2.2 2.4 5.7-1.2 3.5-3.5-8.9-9.6-22.6-17.9-36.3-16.8-3.2.2-3.2 5.2 0 5M140.6 202.1c1.5 7.7 8.2 14.3 14.2 18.7 1.6 1.1 3.1-1.5 1.5-2.6-5.4-4-11.5-10-12.8-16.9-.4-1.9-3.3-1.1-2.9.8M355.1 201.3c-1.3 7-7.4 12.9-12.8 16.9-1.5 1.1 0 3.7 1.5 2.6 6-4.4 12.7-11 14.2-18.7.3-1.9-2.6-2.7-2.9-.8"/></g><g><g><path fill="#f789a3" d="m256.8 135.1-6.8-33 17.3 33z"/><path d="M258.2 134.7c-2.3-11-4.5-22-6.8-33l-2.7 1.2c5.8 11 11.6 22 17.3 33 .4-.8.9-1.5 1.3-2.3h-10.6c-1.9 0-1.9 3 0 3h10.6c1.2 0 1.8-1.3 1.3-2.3-5.8-11-11.6-22-17.3-33-.8-1.6-3.1-.4-2.7 1.2 2.3 11 4.5 22 6.8 33 .3 1.9 3.2 1.1 2.8-.8"/><path fill="#fcd" d="m250 168.1 6.8-33h10.5z"/><path d="M251.4 168.5c2.3-11 4.5-22 6.8-33-.5.4-1 .7-1.4 1.1h10.6c-.4-.8-.9-1.5-1.3-2.3-5.8 11-11.6 22-17.3 33-.9 1.7 1.7 3.2 2.6 1.5 5.8-11 11.6-22 17.3-33 .5-1-.1-2.3-1.3-2.3h-10.6c-.6 0-1.3.5-1.4 1.1-2.3 11-4.5 22-6.8 33-.4 2 2.4 2.8 2.8.9"/><path fill="#ffd140" d="m232.7 135.1 17.3-33 6.8 33z"/><path d="M234 135.8c5.8-11 11.6-22 17.3-33-.9-.1-1.8-.2-2.7-.4 2.2 11 4.5 22 6.7 33 .5-.6 1-1.3 1.4-1.9h-24.1c-1.9 0-1.9 3 0 3h24.1c1 0 1.6-1 1.4-1.9-2.2-11-4.5-22-6.7-33-.3-1.3-2.2-1.5-2.7-.4-5.8 11-11.6 22-17.3 33-.9 1.8 1.7 3.4 2.6 1.6"/><path fill="#ffe197" d="m250 168.1-17.3-33h24.1z"/><path d="M251.3 167.3c-5.8-11-11.6-22-17.3-33-.4.8-.9 1.5-1.3 2.3h24.1c-.5-.6-1-1.3-1.4-1.9-2.2 11-4.5 22-6.7 33-.4 1.9 2.5 2.7 2.9.8 2.2-11 4.5-22 6.7-33 .2-.9-.4-1.9-1.4-1.9h-24.1c-1.2 0-1.8 1.3-1.3 2.3 5.8 11 11.6 22 17.3 33 .8 1.7 3.4.1 2.5-1.6"/></g></g></svg>