<svg xmlns="http://www.w3.org/2000/svg" xml:space="preserve" viewBox="0 0 500 500"><g><path fill="#fff" d="M344.6 166.9c14.4-10.6 33.5 12.6 33.5 12.6l29.5 41.4c1.7 5.1 2.6 10.8.5 15.8l-15.4 39.9c-6.2 14.5-15.9 23.7-28.1 19s-10.8-19.2-4.2-33.5l9.2-34.4-22.5-27.3s-16.9-23-2.5-33.5"/><path d="M345.9 169c10.6-7.2 23.5 4 30.2 11.9 0 0-.2-.3.5.7.9 1.3 1.9 2.6 2.8 3.9 3.1 4.3 6.2 8.7 9.3 13 3.5 4.9 7 9.8 10.4 14.6 2 2.7 4.4 5.5 6 8.5 4.8 8.7-1.7 20-4.9 28.3-3.3 8.6-6.4 17.3-9.9 25.8-3.1 7.3-8.5 16.5-16.9 18.2-10.5 2.1-16.5-6.6-15.4-16.1.7-6.2 3.8-11.5 5.4-17.4 1.3-5 2.7-9.9 4-14.9 1.4-5.1 2.7-10.1 4.1-15.2.7-2.5.5-3.7-1.1-5.7-6.9-8.4-14-16.8-20.8-25.3-1-1.2 0 .2-1.1-1.5-1.4-2.2-2.8-4.5-3.9-6.9-3.5-7.5-5.4-16.6 1.9-22.3 2.5-2-1-5.5-3.5-3.5-12 9.5-5.1 27.2 2.6 37.2 7.2 9.3 14.9 18.1 22.4 27.1l-.6-2.4c-2 7.5-4 14.9-6 22.4-1 3.7-1.8 7.4-3 11-1.7 5.3-4.1 10.2-5 15.8-.9 5.9-.4 12.4 3.6 17 3.8 4.4 10.3 6.6 16.1 5.9 11.4-1.4 18.5-12.9 22.4-22.6 3.2-7.9 6.1-15.9 9.2-23.8 2.6-6.8 7.1-14.9 7.3-22.3.2-8.9-4.1-13.7-8.9-20.4-5.8-8.1-11.5-16.2-17.3-24.3-8.8-12.4-25.7-32.3-42.3-21.1-2.8 1.9-.3 6.2 2.4 4.4"/><path fill="#7f0909" d="m347.3 203.5 21.2 26.1-10.1 31.8c-6.8 14.3-7.8 28.9 5.9 34.1 13.6 5.2 23.9-3.8 30.2-18.2l15.4-42.5c2.2-5 2-13.6-.1-18.9L379.7 180z"/><path d="M345.5 205.3c7.1 8.7 14.2 17.4 21.2 26.1l-.6-2.4c-4 12.7-8.3 25.4-12.6 38-3.3 9.5-4.1 21.6 5 28.3 8.8 6.4 20.5 5.2 28.4-2 5.8-5.3 9-12.4 11.6-19.6l8.4-23.4c4.1-11.3 12.1-27.1 3.1-37.9-9.5-11.4-19.1-22.7-28.6-34.1-.6-.8-2.2-1-3-.4-10.8 7.8-21.6 15.7-32.4 23.5-2.6 1.9-.1 6.2 2.5 4.3 10.8-7.8 21.6-15.7 32.4-23.5-1-.1-2-.3-3-.4l27.9 33.3c4.6 5.5 3.5 13.7 1.1 20.2-2.7 7.4-5.4 14.9-8.1 22.3-2.3 6.2-4.3 12.7-6.8 18.8-2.5 6-6.5 12.4-12.3 15.8-6.2 3.6-15 2.7-20.1-2.5-8.2-8.4-1-21.1 1.9-30.1 2.6-8.2 5.2-16.5 7.8-24.7.8-2.5 2.1-4.7.8-7.1-1.4-2.5-3.9-4.8-5.8-7.1-5.1-6.3-10.3-12.6-15.4-19-1.9-2.5-5.4 1.1-3.4 3.6"/><path fill="#bc0808" d="m369.8 227.3 2.8-123.8s-40.5-30.3-80.3-33S212 80.8 174.7 78s-27.9-5.3-31.7-3 0 40 0 40h-16.3c-5.3 10.5 4.3 110.2 4.3 110.2z"/><path d="M372.3 227.3c.4-19.1.9-38.3 1.3-57.4l.9-41.5c.2-7.9 1-16.1.5-24-.1-2.1-1.2-3-2.9-4.2-5.1-3.6-10.4-6.9-15.8-10C338.1 79.7 318 71 297 68.5c-27-3.2-54.3 2.3-81 5.4-22 2.5-44.6 3.1-66.4-1-5.4-1-8.8-1.9-10.1 4.4-1.5 7.1-.6 15.1-.1 22.2q.45 7.8 1.2 15.6l2.5-2.5h-16.3c-.8 0-1.8.5-2.2 1.2-2.1 4.5-1.8 10.3-1.9 15.1-.2 8.8.2 17.7.6 26.5.9 19 2.4 37.9 4.1 56.8.4 4.3.8 8.7 1.2 13 .1 1.4 1 2.5 2.5 2.5 26.9.2 53.7.5 80.6.7 42.8.4 85.7.7 128.5 1.1l29.6.3c3.2 0 3.2-5 0-5-26.9-.2-53.7-.5-80.6-.7-42.8-.4-85.7-.7-128.5-1.1l-29.6-.3 2.5 2.5c-2.9-30.1-5.7-60.6-5.9-90.9 0-5.2-.9-13.6 1.3-18.1-.7.4-1.4.8-2.2 1.2h16.3c1.3 0 2.6-1.1 2.5-2.5-1.2-11.7-3.2-24.8-1.3-36.5 0-.1 1.1-2.8 1.3-2.3s-1.7 0-1.4.5c.5.6 2.8.7 3.5.8 3 .6 6 1 9 1.3 13 1.6 26.1 2.5 39.2 1.8 14.7-.8 29.4-3 44-4.8 14.9-1.9 29.8-3.5 44.8-3.1 13.5.3 26.4 3 39 7.6 16.7 6.1 33.1 14.8 47.4 25.4-.4-.7-.8-1.4-1.2-2.2-.8 36.1-1.6 72.2-2.4 108.4l-.3 15.4c0 3.3 5 3.3 5.1.1"/><path fill="#fff" d="M136.3 374.3c-16.6 6.7-29.3-20.5-29.3-20.5l-18.3-47.4c-.4-5.4.2-11.1 3.5-15.4l24.8-34.9c9.6-12.5 21.3-19 32-11.5s5.7 21.2-4.2 33.5l-17.5 31.1 15.1 32c-.2 0 10.5 26.4-6.1 33.1"/><path d="M135.6 371.8c-12 4.3-21.3-9.4-26.1-18.6-.8-1.5.1.3-.4-.8-.5-1.3-1-2.6-1.5-3.8-1.8-4.7-3.7-9.5-5.5-14.2-3.5-9.1-8.2-18.5-10.8-27.9-2.6-9.5 5.4-17.9 10.5-25 5.7-8 11.1-16.1 17-23.9 5.1-6.8 13.6-15.4 23-13.4 12.4 2.6 11.6 14.9 6.7 23.7-2.5 4.5-5.9 8.4-8.4 12.9-2.8 5-5.6 10-8.5 15-2.1 3.8-4.9 7.6-6.5 11.6-1 2.4.2 3.9 1.2 6.2 4.5 9.6 9.4 19.1 13.5 28.8-.5-1.1.7 2 .9 2.6.8 2.7 1.5 5.4 1.9 8.2 1 7.6 0 15.5-7.7 18.9-2.9 1.3-.4 5.6 2.5 4.3 13.9-6.1 11.8-24.9 6.8-36.5-4.6-10.8-10-21.4-15.1-32v2.5l11.1-19.8c1.9-3.4 3.7-6.9 5.7-10.2 2.9-4.8 6.5-8.9 8.8-14.1 2.4-5.7 3.7-12.5.5-18.2-3-5.4-9.3-8.9-15.3-9.2-11.4-.5-20.6 9.2-26.6 17.7-5.3 7.4-10.6 14.9-15.8 22.3-4.6 6.4-10.4 12.8-11.3 20.9-.9 7.6 2.5 13.6 5.2 20.6 3.5 9.1 7.1 18.3 10.6 27.4 5.3 13.7 17.1 35.2 34.9 28.8 3.1-1 1.8-5.9-1.3-4.8"/><path fill="#7f0909" d="m142.8 338.1-14.1-30.5 17.6-28.3c10.1-12.1 14.7-26.1 2.8-34.5s-24.1-2.3-33.8 10.2l-25.4 37.4c-3.3 4.3-5.3 12.7-4.6 18.3l20.2 42.1z"/><path d="M145 336.9c-4.7-10.2-9.4-20.4-14.1-30.5v2.5c6.9-11.1 13.8-22.1 21.1-32.9 6-8.8 10.2-21.1 2.2-30-8.3-9.3-21.3-9.2-30.9-2.3-5.9 4.2-9.9 9.8-13.9 15.6-4.7 6.9-9.4 13.8-14.1 20.8-6.7 9.8-16.8 22.1-10.9 34.4 6.3 13.2 12.7 26.4 19 39.7.4.9 1.9 1.5 2.8 1.1 12.4-4.9 24.8-9.8 37.3-14.7 3-1.2 1.7-6-1.3-4.8-12.4 4.9-24.8 9.8-37.3 14.7.9.4 1.9.8 2.8 1.1-6.2-12.8-12.3-25.6-18.5-38.4-1.2-2.4-1.6-3.3-1.6-5.7.1-5.3 1.8-10.1 4.7-14.4 4.1-6.1 8.2-12.1 12.3-18.1 4.1-6.1 8.1-12.3 12.4-18.2 3.5-4.8 8.1-9.3 13.6-11.7 7.5-3.3 17.3-.8 21.4 6.6 5.9 10.6-4.7 21.3-9.9 29.7-4.5 7.3-9.1 14.6-13.6 21.8-1.3 2-2.7 3.4-2 5.8.9 2.9 2.7 5.9 4 8.6 3.4 7.3 6.7 14.5 10.1 21.8 1.4 2.9 5.7.4 4.4-2.5"/><path fill="#440606" d="m143.8 337.4-25.9 11.8-6.9-28.1 21.5-8.6z"/><path d="M142.6 335.3c-8.6 3.9-17.3 7.9-25.9 11.8 1.2.5 2.4 1 3.7 1.5-2.3-9.4-4.6-18.7-6.9-28.1-.6 1-1.2 2.1-1.7 3.1 7.2-2.9 14.3-5.8 21.5-8.7-.9-.4-1.9-.8-2.8-1.1 3.8 8.3 7.6 16.7 11.4 25 1.3 2.9 5.6.4 4.3-2.5-3.8-8.3-7.6-16.7-11.4-25-.4-.9-1.9-1.5-2.8-1.1-7.2 2.9-14.3 5.8-21.5 8.7-1.3.5-2.1 1.6-1.7 3.1 2.3 9.4 4.6 18.7 6.9 28.1.4 1.7 2.3 2.1 3.7 1.5 8.6-3.9 17.3-7.9 25.9-11.8 2.7-1.5.2-5.8-2.7-4.5"/><path fill="#440606" d="m118.6 348.7-15.2 7-11-28 9.4-3.3z"/><path d="M117.4 346.6c-5.1 2.3-10.2 4.7-15.3 7 1.2.5 2.4 1 3.7 1.5-3.6-9.3-7.3-18.7-10.9-28-.6 1-1.2 2.1-1.7 3.1 3.1-1.1 6.3-2.2 9.4-3.3-.9-.4-1.9-.8-2.8-1.1 5.6 8.1 11.2 16.2 16.8 24.4 1.8 2.6 6.2.1 4.3-2.5-5.6-8.1-11.2-16.2-16.8-24.4-.6-.9-1.7-1.5-2.8-1.1-3.1 1.1-6.3 2.2-9.4 3.3-1.2.4-2.3 1.7-1.7 3.1 3.6 9.3 7.3 18.7 10.9 28 .6 1.6 2.1 2.2 3.7 1.5 5.1-2.3 10.2-4.7 15.3-7 2.7-1.5.2-5.9-2.7-4.5"/><circle cx="127.9" cy="331.3" r="4.5" fill="#7f0909"/><path d="M127.3 337.2c3.2.3 6.2-2 6.5-5.3.3-3.2-1.9-6.1-5.1-6.5-3.1-.4-6.1 1.7-6.7 4.9s1.7 6.3 4.8 6.9c1.9.4 2.7-2.5.8-2.9-3.8-.8-3.3-6.5.7-5.9 1.6.2 2.7 1.7 2.5 3.3-.3 1.8-1.9 2.6-3.5 2.5-1.9-.2-1.9 2.9 0 3"/><path fill="#fff" d="M381.1 350.2c-.2-6-2.6-18-5.4-31.8l-.1-.5c-3-14.8-6.6-33.2-6.8-41.2-.1-5 .1-12.2.1-19.8v-.4c0-15.6.1-37.1-1.4-51.2-1.2-11.5-5.6-40.7-19.2-62.5-12.6-20.2-27.9-33.2-47.9-41.4-18.4-7.4-52.1-8.3-53-8.3-8.6 0-30.7.7-49.1 8.1-20.1 8.1-35.3 21.3-47.9 41.5-13.6 21.8-17.9 51-19.1 62.5-1.5 14.1-1.4 35.5-1.2 51.2v3.6c0 6.3 0 12.3-.1 16.6-.2 8.1-3.9 26.5-6.9 41.3l-.1.6c-2.7 13.8-5.1 25.7-5.4 31.7-.6 15.4 3.8 25.7 14.9 35.8 7.1 6.4 14 9.5 21.7 9.5 4.1 0 7.8-.8 11.9-1.8 1.1-.3 2.3-.6 3.5-1.1 4 2.2 11.7 5.6 21.7 5.6 6.5 0 14.1-1.4 22.4-5.4 4.8 3.9 9.7 7.5 9.7 7.5 12.9 7.3 24 8.8 25.6 8.8h.4c1.6 0 12.7-.9 26.1-8.8 0 0 4.3-3.1 8.8-6.7 7.7 3.4 14.7 4.6 20.8 4.6 10.9 0 19-3.9 22.7-6.1 1.8.7 3.3 1.3 4.9 1.7 4 1 7.7 1.8 11.8 1.8 7.8 0 14.4-2.9 21.6-9.5 11.3-10.1 15.6-20.5 15-35.9"/><path fill="#7f0909" d="M133.2 246.3s76.7 10 116.2 8.4c39.6-1.6 118.4-8.4 118.4-8.4l7.8 76.2s-167.6 16.2-248.9 0c0 0 9.6-56.3 6.5-76.2"/><path fill="#7f0909" stroke="#000" stroke-miterlimit="10" d="M125 330.8s26 3.9 68.5 6.6 182.1-6.6 182.1-6.6 10.1 24.3 1.6 43.3-26.5 23.5-37 19.8-32.6-12.6-42.8-11-23.3 22.8-40.8 22.8-43.8-14.7-50.3-21-38.5 7-48.5 8.3-52.8-8.7-32.8-62.2z"/><path d="M248 297v26c0 3.2 5 3.2 5 0v-26c0-3.2-5-3.2-5 0"/><path fill="#7f0909" d="M250.4 329H123.9s-5.3 22.7-4.3 28.5 4.3 17.4 4.3 17.4l61 2.6 59.7-2.7z"/><path d="M250.4 327H123.9c-1.1 0-2.2.8-2.4 1.8-1.7 7.3-3.3 14.8-4.2 22.3-1 8.4 1.8 16.5 4.2 24.5.3 1.1 1.3 1.8 2.4 1.8 17.7.7 35.3 1.4 53 2.2 14.3.6 28.6-.5 42.9-1.1 8.3-.3 16.6-.7 24.9-1 1.5-.1 2.3-1.1 2.5-2.5 1.9-15.2 3.8-30.3 5.7-45.5.4-3.2-4.6-3.2-5 0-1.9 15.2-3.8 30.3-5.7 45.5l2.5-2.5c-17.6.7-35.3 1.5-52.9 2.2-14.4.6-28.9-.6-43.3-1.2-8.2-.3-16.4-.7-24.6-1l2.4 1.8c-2.2-7.6-4.9-15.3-4-23.2.8-7 2.4-14.1 4-21l-2.4 1.8h126.5c3.2.1 3.2-4.9 0-4.9"/><path fill="#fff" d="m226.5 253.6 23.4 41.8 23.2-41.6"/><path fill="#7f0909" d="M250.5 329H377s5.3 22.7 4.3 28.5-4.3 17.4-4.3 17.4l-61 2.6-59.7-2.7z"/><path d="M250.5 332H377l-2.4-1.8c1.6 6.9 3.1 13.9 4 21 1 8-1.8 15.6-4 23.2l2.4-1.8c-17.7.7-35.3 1.4-53 2.2-14.3.6-28.6-.5-42.9-1.1-8.3-.3-16.6-.7-24.9-1l2.5 2.5c-1.9-15.2-3.8-30.3-5.7-45.5-.4-3.2-5.4-3.2-5 0 1.9 15.2 3.8 30.3 5.7 45.5.2 1.4 1 2.4 2.5 2.5 17.6.7 35.3 1.5 52.9 2.2 14.4.6 28.9-.6 43.3-1.2 8.2-.3 16.4-.7 24.6-1 1.1 0 2.1-.7 2.4-1.8 2.3-8 5.1-16.1 4.2-24.5-.9-7.5-2.4-14.9-4.2-22.3-.2-1.1-1.3-1.8-2.4-1.8H250.5c-3.2-.3-3.2 4.7 0 4.7"/><path fill="#7f0909" d="M154 331.5h42.2v38.3H154z"/><path d="M196.2 367.2H154l2.5 2.5v-38.3l-2.5 2.5h42.2l-2.5-2.5v38.3c0 3.2 5 3.2 5 0v-38.3c0-1.4-1.1-2.5-2.5-2.5H154c-1.4 0-2.5 1.1-2.5 2.5v38.3c0 1.4 1.1 2.5 2.5 2.5h42.2c3.2 0 3.2-5 0-5"/><path fill="#7f0909" d="m195.8 350.5-21.1 3.5-21.1-3.5v-19.2h42.2z"/><path d="M195.2 348c-3.4.6-6.7 1.1-10.1 1.7l-7.2 1.2c-.8.1-1.7.2-2.5.4-.4.1-2 .2-.6.2 1.3 0-2.2-.5-2.8-.6-2.4-.4-4.7-.8-7.1-1.2-3.5-.6-7-1.2-10.6-1.8l1.8 2.4v-19.1l-2.5 2.5h42.2l-2.5-2.5v19.1c0 3.2 5 3.2 5 0v-19.1c0-1.4-1.1-2.5-2.5-2.5h-42.2c-1.4 0-2.5 1.1-2.5 2.5v19.1c0 1 .8 2.2 1.8 2.4 3.7.6 7.4 1.2 11 1.9 3.4.6 7.2 1.8 10.7 1.8 3.3 0 7-1.1 10.3-1.7 3.8-.6 7.7-1.3 11.5-1.9 3.3-.5 1.9-5.3-1.2-4.8"/><circle cx="174.5" cy="343.3" r="4.2" fill="#440606"/><path d="M177.2 343.3c-.2 3.5-5.5 3.5-5.5 0 .1-3.5 5.3-3.5 5.5 0 .1 1.9 3.1 1.9 3 0-.2-3.1-2.5-5.7-5.7-5.7-3.1 0-5.7 2.6-5.7 5.7 0 3 2.5 5.6 5.5 5.7 3.3.1 5.8-2.5 6-5.7 0-1.9-3-1.9-3.1 0"/><path fill="#7f0909" d="M302 331.5h42.2v38.3H302z"/><path d="M344.2 367.2H302l2.5 2.5v-38.3l-2.5 2.5h42.2l-2.5-2.5v38.3c0 3.2 5 3.2 5 0v-38.3c0-1.4-1.1-2.5-2.5-2.5H302c-1.4 0-2.5 1.1-2.5 2.5v38.3c0 1.4 1.1 2.5 2.5 2.5h42.2c3.2 0 3.2-5 0-5"/><path fill="#7f0909" d="m343.8 350.5-21.1 3.5-21.1-3.5v-19.2h42.2z"/><path d="M343.2 348c-3.4.6-6.7 1.1-10.1 1.7l-7.2 1.2c-.8.1-1.7.2-2.5.4-.4.1-2 .2-.6.2 1.3 0-2.2-.5-2.8-.6-2.4-.4-4.7-.8-7.1-1.2-3.5-.6-7-1.2-10.6-1.8l1.8 2.4v-19.1l-2.5 2.5h42.2l-2.5-2.5v19.1c0 3.2 5 3.2 5 0v-19.1c0-1.4-1.1-2.5-2.5-2.5h-42.2c-1.4 0-2.5 1.1-2.5 2.5v19.1c0 1 .8 2.2 1.8 2.4 3.7.6 7.4 1.2 11 1.9 3.4.6 7.2 1.8 10.7 1.8 3.3 0 7-1.1 10.3-1.7 3.8-.6 7.7-1.3 11.5-1.9 3.3-.5 1.9-5.3-1.2-4.8"/><circle cx="322.5" cy="343.3" r="4.2" fill="#440606"/><path d="M325.2 343.3c-.2 3.5-5.5 3.5-5.5 0 .1-3.5 5.3-3.5 5.5 0 .1 1.9 3.1 1.9 3 0-.2-3.1-2.5-5.7-5.7-5.7-3.1 0-5.7 2.6-5.7 5.7 0 3 2.5 5.6 5.5 5.7 3.3.1 5.8-2.5 6-5.7 0-1.9-3-1.9-3.1 0"/><path fill="#c8c8c8" d="M285.5 389.9s8-6.1 16.8-7c8.8-1 23.8 5.5 23.8 5.5s-4.9 10-14.2 9.8c-9.4-.3-26.4-8.3-26.4-8.3"/><path fill="#440606" d="M374.6 333c-81.5 5.8-164.7 5.7-249.6 0l2-11c83.4 5.7 165 5.8 245 0z"/><path d="M374.6 330.5c-83.1 5.8-166.5 5.6-249.6 0 .8 1.1 1.6 2.1 2.4 3.2.7-3.7 1.3-7.3 2-11l-2.4 1.8c81.6 5.6 163.5 5.8 245 0l-2.4-1.8c.9 3.7 1.7 7.3 2.6 11 .7 3.1 5.5 1.8 4.8-1.3-.9-3.7-1.7-7.3-2.6-11-.2-1-1.4-1.9-2.4-1.8-81.6 5.8-163.5 5.6-245 0-1-.1-2.2.8-2.4 1.8-.7 3.7-1.3 7.3-2 11-.3 1.7.7 3 2.4 3.2 83.1 5.6 166.5 5.8 249.6 0 3.2-.3 3.2-5.3 0-5.1"/><path fill="#c8c8c8" d="M169.6 389.9s8-6.1 16.8-7 23.8 5.5 23.8 5.5-4.9 10-14.2 9.8-26.4-8.3-26.4-8.3"/><path d="M384.6 351.4c-.2-6.1-2.7-18.4-5.5-32.5l-.1-.5c-3-15.1-6.3-33.9-6.5-42.1-.1-5.1.5-12.5.5-20.3v-.4c0-16-.3-37.9-1.8-52.2-1.2-11.8-5.9-41.6-19.8-63.8-12.9-20.6-28.6-33.9-49.1-42.2-18.8-7.6-53.2-8.4-54.2-8.4-8.8 0-31.4.7-50.1 8.3-20.5 8.3-36 21.7-48.9 42.3-13.9 22.2-18.3 52.1-19.6 63.8-1.5 14.4-1.4 36.3-1.3 52.3v3.7c0 6.5 0 12.5-.1 16.9-.2 8.3-4 27-7 42.1l-.1.6c-2.8 14.1-5.2 26.3-5.5 32.4-.6 15.7 3.8 26.3 15.2 36.6 7.3 6.6 14.3 9.7 22.1 9.7 4.2 0 8-.8 12.1-1.9 1.1-.3 2.3-.7 3.5-1.1 4.1 2.3 11.9 5.7 22.2 5.7 6.7 0 14.4-1.4 22.9-5.5 4.9 4 9.9 7.4 10 7.4 13.2 7.5 24.5 8.7 26.2 8.7h.4c1.7 0 13-.7 26.7-8.7 0 0 4.4-3.1 8.9-6.7 7.8 3.5 15 4.8 21.3 4.8 11.2 0 19.4-4 23.2-6.2 1.8.7 3.4 1.3 5 1.7 4.1 1 7.9 1.9 12.1 1.9 7.9 0 14.7-3 22.1-9.6 11.4-10.5 15.8-21.1 15.2-36.8m-207.4 39.5c6.1-2.6 13.6-5.5 20.1-5.5 4.4 0 7.6 1.3 10.4 4.1l.2.2c-13.1 5.4-23.9 3.7-30.7 1.2m114.5-.5c.3-.3.6-.5.8-.8 2.8-2.8 6-4.2 10.4-4.2 6.1 0 13 2.5 18.9 5-6.4 2.5-17 4.8-30.1 0m72.8-7.8c-6 5.4-11.1 7.8-17.2 7.8-3.4 0-6.6-.7-10.4-1.6-2-.5-4.5-1.6-7.7-3l-.5-.2c-7-3.2-16.7-7.4-25.8-7.4-6.3 0-11.3 2.1-15.6 6.3-11 11.2-21.9 15.7-29.1 17.5-.1 0-7.1 1.9-15.2-.3-8.2-2.3-19.2-6.1-30.1-17.2-4.1-4.2-9.2-6.3-15.6-6.3-9 0-18.6 4.2-25.9 7.4l-.3.1c-3.3 1.4-5.8 2.6-7.9 3.1-3.8.9-7 1.6-10.4 1.6-6 0-11.3-2.4-17.2-7.8-9.8-8.9-13.3-17.3-12.8-30.9.2-5.5 2.6-17.4 5.4-31.2l.1-.6c3.2-16.1 6.9-34.4 7.2-43.4.1-4.5.1-10.6.1-17.1v-3.7c-.1-15.8-.3-37.5 1.2-51.4 1.2-11.3 5.4-39.8 18.5-60.7 12-19.3 26.5-31.8 45.4-39.5 17.6-7.1 39-8.2 47.4-8.2.8 0 33.8.8 51.4 7.9 19 7.7 33.4 20.4 45.5 39.6 13.1 21 18 49.5 19.2 60.8 1.5 14 1.9 35.7 1.9 51.5v.4c0 7.8-.8 15.2-.7 20.4.2 8.9 3.6 27.2 6.8 43.4l-.1.5c2.8 13.8 5.1 25.8 5.3 31.3.5 13.6-3.1 22-12.9 30.9"/><path d="M324.2 191.9c0 10.6-8.6 19.1-19.1 19.1-10.6 0-19.1-8.6-19.1-19.1 0-.9.1-1.8.2-2.6 1.2.8 2.6 1.3 4.1 1.3 4 0 7.2-3.2 7.2-7.2 0-2.9-1.7-5.4-4.1-6.5 3.2-2.5 7.3-4 11.7-4 10.5-.1 19.1 8.5 19.1 19M214.1 191.9c0 10.6-8.6 19.1-19.1 19.1-10.6 0-19.1-8.6-19.1-19.1 0-.9.1-1.8.2-2.6 1.2.8 2.6 1.3 4.1 1.3 4 0 7.2-3.2 7.2-7.2 0-2.9-1.7-5.4-4.1-6.5 3.2-2.5 7.3-4 11.7-4 10.5-.1 19.1 8.5 19.1 19M239.9 222.1c13.8 5.7 28.1.6 35.5-12.2 1.7-2.9-3-5.2-4.7-2.3-5.9 10.2-17.4 14.3-28.4 9.8-3.2-1.3-5.6 3.4-2.4 4.7"/><ellipse cx="166.4" cy="228.6" fill="#f68694" rx="7.4" ry="3.4" transform="rotate(-44.198 166.406 228.55)"/><ellipse cx="180.5" cy="229.7" fill="#f68694" rx="7.4" ry="3.4" transform="rotate(-44.198 180.46 229.72)"/><ellipse cx="194.5" cy="229.7" fill="#f68694" rx="7.4" ry="3.4" transform="rotate(-44.198 194.513 229.721)"/><ellipse cx="333.9" cy="229.7" fill="#f68694" rx="7.4" ry="3.4" transform="rotate(224.198 333.885 229.722)"/><ellipse cx="319.8" cy="230.9" fill="#f68694" rx="7.4" ry="3.4" transform="rotate(224.198 319.83 230.893)"/><ellipse cx="305.8" cy="230.9" fill="#f68694" rx="7.4" ry="3.4" transform="rotate(224.198 305.777 230.893)"/><path fill="#fff" d="M171.7 153c13.6 6.3 28.2 14.6 45.1 23.8"/><path d="M170.4 155.2c15.4 7.2 30.2 15.7 45.1 23.8 2.8 1.5 5.4-2.8 2.5-4.3-14.9-8.1-29.7-16.6-45.1-23.8-2.8-1.4-5.4 2.9-2.5 4.3"/><path fill="#fff" d="m278.8 171.6 2.9 3.4H332"/><path d="M277 173.2c2.8 3.3 3.7 4.1 7.8 4.1h47.1c3.2 0 3.2-5 0-5h-45.1c-1.1 0-3.6-.5-4.6 0-1.1.5.9.4.9.3 0-.5-2.1-2.5-2.5-3-2.2-2.4-5.7 1.1-3.6 3.6"/><path fill="#ba4a4a" d="M238.4 323.2v17.2h26.8v-17.2zm20.2 11.8h-13.5v-6.6h13.5z"/><path d="M236.9 323.2v17.2c0 .8.7 1.5 1.5 1.5h26.8c.8 0 1.5-.7 1.5-1.5v-17.2c0-.8-.7-1.5-1.5-1.5h-26.8c-1.9 0-1.9 3 0 3h26.8l-1.5-1.5v17.2l1.5-1.5h-26.8l1.5 1.5v-17.2c0-2-3-2-3 0"/><path d="M258.6 333.5h-13.5l1.5 1.5v-6.6l-1.5 1.5h13.5l-1.5-1.5v6.6c0 1.9 3 1.9 3 0v-6.6c0-.8-.7-1.5-1.5-1.5h-13.5c-.8 0-1.5.7-1.5 1.5v6.6c0 .8.7 1.5 1.5 1.5h13.5c1.9 0 1.9-3 0-3M133.3 247.9c77.4 10.8 155.9 11 233.3 0 3.2-.5 1.8-5.3-1.3-4.8-76.5 10.9-154.2 10.7-230.7 0-3.1-.5-4.4 4.4-1.3 4.8"/><path d="M224.3 254.8c7.8 14 15.6 27.9 23.4 41.9.9 1.6 3.4 1.6 4.3 0 7.7-13.9 15.5-27.8 23.2-41.6 1.6-2.8-2.7-5.3-4.3-2.5-7.7 13.9-15.5 27.8-23.2 41.6h4.3c-7.8-14-15.6-27.9-23.4-41.9-1.5-2.8-5.9-.3-4.3 2.5"/><path d="M236.4 271.1c4.9-5 9.8-10.1 14.7-15.1H249c4.9 5 9.7 10 14.6 15 1.3 1.4 3.5-.7 2.1-2.1-4.9-5-9.7-10-14.6-15-.6-.6-1.6-.6-2.1 0-4.9 5-9.8 10.1-14.7 15.1-1.3 1.3.8 3.5 2.1 2.1"/><path fill="#ba4a4a" d="m255.9 261.3-5.8 3.2-5.2-3.3 5.1-6.4z"/><path d="m255.1 260-5.7 3.3h1.5c-1.7-1.1-3.5-2.2-5.2-3.3l.3 2.4c1.7-2.1 3.4-4.3 5.1-6.4H249c2 2.1 3.9 4.3 5.9 6.4 1.3 1.4 3.4-.7 2.1-2.1-2-2.1-3.9-4.3-5.9-6.4-.5-.5-1.6-.6-2.1 0-1.7 2.1-3.4 4.3-5.1 6.4-.6.8-.6 1.8.3 2.4 1.7 1.1 3.5 2.2 5.2 3.3.5.3 1.1.3 1.5 0l5.7-3.3c1.7-1.1.2-3.7-1.5-2.7"/><path fill="#ba4a4a" d="M248.4 264h4l5.1 18-6.7 11.8-6.8-11z"/><path d="M248.4 265.6h4c-.5-.4-1-.7-1.4-1.1 1.6 5.6 2.7 11.6 4.8 17 .6 1.5.6-.4.1.5-.8 1.3-1.5 2.6-2.3 4-1.4 2.4-2.7 4.7-4.1 7.1h2.6c-1.5-2.4-2.9-4.7-4.4-7.1-.7-1.2-1.6-2.3-2.2-3.5-.4-.8 0 1.3 0 .6 0-.3.2-.9.3-1.2 1.9-5.5 2.7-11.6 4.1-17.3.4-1.9-2.4-2.7-2.9-.8-1.4 5.8-3.9 12.2-4.3 18.2-.3 4.1 4.7 9.2 6.8 12.7.6.9 2 1 2.6 0 1.5-2.6 3-5.3 4.5-7.9 1-1.7 2.3-3.3 2.3-5.2 0-3-1.9-6.8-2.7-9.7-.8-2.7-1.5-5.3-2.3-8-.2-.6-.8-1.1-1.4-1.1h-4c-2-.2-2 2.8-.1 2.8"/><path d="M222.5 254.2c-1.9 6.7-3.8 13.4-5.6 20.2-.3 1.1.2 2.2 1.1 2.8 10.2 6.8 20.4 13.6 30.5 20.3 2.7 1.8 5.2-2.5 2.5-4.3-10.2-6.8-20.4-13.6-30.5-20.3.4.9.8 1.9 1.1 2.8 1.8-6.8 3.6-13.5 5.6-20.2 1-3-3.8-4.4-4.7-1.3"/><path d="M272.6 255.6c1.9 6.7 3.8 13.4 5.6 20.2.4-.9.8-1.9 1.1-2.8-10.2 6.8-20.4 13.6-30.5 20.3-2.7 1.8-.2 6.1 2.5 4.3 10.2-6.8 20.4-13.6 30.5-20.3.9-.6 1.4-1.7 1.1-2.8-1.8-6.8-3.6-13.5-5.6-20.2-.8-3.1-5.6-1.8-4.7 1.3"/><path fill="#7f0909" d="M155 269.5h42.2v38.3H155z"/><path d="M197.2 305.2H155l2.5 2.5v-38.3l-2.5 2.5h42.2l-2.5-2.5v38.3c0 3.2 5 3.2 5 0v-38.3c0-1.4-1.1-2.5-2.5-2.5H155c-1.4 0-2.5 1.1-2.5 2.5v38.3c0 1.4 1.1 2.5 2.5 2.5h42.2c3.2 0 3.2-5 0-5"/><path fill="#7f0909" d="m196.8 288.5-21.1 3.5-21.1-3.5v-19.2h42.2z"/><path d="M196.2 286c-3.4.6-6.7 1.1-10.1 1.7l-7.2 1.2c-.8.1-1.7.2-2.5.4-.4.1-2 .2-.6.2 1.3 0-2.2-.5-2.8-.6-2.4-.4-4.7-.8-7.1-1.2-3.5-.6-7-1.2-10.6-1.8l1.8 2.4v-19.1l-2.5 2.5h42.2l-2.5-2.5v19.1c0 3.2 5 3.2 5 0v-19.1c0-1.4-1.1-2.5-2.5-2.5h-42.2c-1.4 0-2.5 1.1-2.5 2.5v19.1c0 1 .8 2.2 1.8 2.4 3.7.6 7.4 1.2 11 1.9 3.4.6 7.2 1.8 10.7 1.8 3.3 0 7-1.1 10.3-1.7 3.8-.6 7.7-1.3 11.5-1.9 3.3-.5 1.9-5.3-1.2-4.8"/><circle cx="175.5" cy="281.3" r="4.2" fill="#440606"/><path d="M178.2 281.3c-.2 3.5-5.5 3.5-5.5 0 .1-3.5 5.3-3.5 5.5 0 .1 1.9 3.1 1.9 3 0-.2-3.1-2.5-5.7-5.7-5.7-3.1 0-5.7 2.6-5.7 5.7 0 3 2.5 5.6 5.5 5.7 3.3.1 5.8-2.5 6-5.7 0-1.9-3-1.9-3.1 0"/><circle cx="261.5" cy="300.3" r="4.2" fill="#440606"/><path d="M264.2 300.3c-.2 3.5-5.5 3.5-5.5 0 .1-3.5 5.3-3.5 5.5 0 .1 1.9 3.1 1.9 3 0-.2-3.1-2.5-5.7-5.7-5.7-3.1 0-5.7 2.6-5.7 5.7 0 3 2.5 5.6 5.5 5.7 3.3.1 5.8-2.5 6-5.7 0-1.9-3-1.9-3.1 0"/><circle cx="261.5" cy="314.3" r="4.2" fill="#440606"/><path d="M264.2 314.3c-.2 3.5-5.5 3.5-5.5 0 .1-3.5 5.3-3.5 5.5 0 .1 1.9 3.1 1.9 3 0-.2-3.1-2.5-5.7-5.7-5.7-3.1 0-5.7 2.6-5.7 5.7 0 3 2.5 5.6 5.5 5.7 3.3.1 5.8-2.5 6-5.7 0-1.9-3-1.9-3.1 0"/><path fill="#fff" d="m302.2 301.7-7.1 1.6-7.1-1.6v-12h14.2z"/><path d="M301.8 300.2c-1.2.3-2.4.6-3.5.8-.7.2-1.5.3-2.2.5-.2.1-1.7.3-.9.3s-.5-.2-.7-.2l-2.4-.6c-1.2-.3-2.4-.6-3.5-.8.4.5.7 1 1.1 1.4v-12l-1.5 1.5h14.2l-1.5-1.5v12c0 1.9 3 1.9 3 0v-12c0-.8-.7-1.5-1.5-1.5h-14.2c-.8 0-1.5.7-1.5 1.5v12c0 .6.5 1.3 1.1 1.4 2.3.5 5.1 1.7 7.5 1.7s5.1-1.2 7.5-1.7c1.6-.3.8-3.2-1-2.8"/><path fill="#c30000" d="m297.2 302.6-2.4.7-2.4-.8v-12.8h4.8z"/><path d="M296.8 301.2c-.5.1-1 .2-1.5.4s-1.3 0-.3.2c-.8-.2-1.6-.6-2.3-.8.4.5.7 1 1.1 1.4v-12.8l-1.5 1.5h4.8l-1.5-1.5v13c0 1.9 3 1.9 3 0v-13c0-.8-.7-1.5-1.5-1.5h-4.8c-.8 0-1.5.7-1.5 1.5v12.8c0 .7.5 1.2 1.1 1.4.8.3 1.8.8 2.6.9 1 .1 2.1-.4 3-.7 2-.4 1.2-3.3-.7-2.8"/><ellipse cx="294.8" cy="309.8" fill="#ba4a4a" rx="6.4" ry="6.2"/><path d="M299.7 309.8c-.3 6-9.8 6.1-9.8 0s9.5-6 9.8 0c.1 1.9 3.1 1.9 3 0-.2-4.3-3.5-7.7-7.9-7.7-4.2 0-7.9 3.4-7.9 7.7 0 4.1 3.5 7.5 7.6 7.7 4.5.2 8-3.3 8.3-7.7 0-1.9-3-1.9-3.1 0"/><path fill="#fff" d="m321.2 301.7-7.1 1.6-7.1-1.6v-12h14.2z"/><path d="M320.8 300.2c-1.2.3-2.4.6-3.5.8-.7.2-1.5.3-2.2.5-.2.1-1.7.3-.9.3s-.5-.2-.7-.2l-2.4-.6c-1.2-.3-2.4-.6-3.5-.8.4.5.7 1 1.1 1.4v-12l-1.5 1.5h14.2l-1.5-1.5v12c0 1.9 3 1.9 3 0v-12c0-.8-.7-1.5-1.5-1.5h-14.2c-.8 0-1.5.7-1.5 1.5v12c0 .6.5 1.3 1.1 1.4 2.3.5 5.1 1.7 7.5 1.7s5.1-1.2 7.5-1.7c1.6-.3.8-3.2-1-2.8"/><path fill="#440606" d="m316.2 302.6-2.4.7-2.4-.8v-12.8h4.8z"/><path d="M315.8 301.2c-.5.1-1 .2-1.5.4s-1.3 0-.3.2c-.8-.2-1.6-.6-2.3-.8.4.5.7 1 1.1 1.4v-12.8l-1.5 1.5h4.8l-1.5-1.5v13c0 1.9 3 1.9 3 0v-13c0-.8-.7-1.5-1.5-1.5h-4.8c-.8 0-1.5.7-1.5 1.5v12.8c0 .7.5 1.2 1.1 1.4.8.3 1.8.8 2.6.9 1 .1 2.1-.4 3-.7 2-.4 1.2-3.3-.7-2.8"/><ellipse cx="313.8" cy="309.8" fill="#ba4a4a" rx="6.4" ry="6.2"/><path d="M318.7 309.8c-.3 6-9.8 6.1-9.8 0s9.5-6 9.8 0c.1 1.9 3.1 1.9 3 0-.2-4.3-3.5-7.7-7.9-7.7-4.2 0-7.9 3.4-7.9 7.7 0 4.1 3.5 7.5 7.6 7.7 4.5.2 8-3.3 8.3-7.7 0-1.9-3-1.9-3.1 0"/><path fill="#fff" d="m340.2 301.7-7.1 1.6-7.1-1.6v-12h14.2z"/><path d="M339.8 300.2c-1.2.3-2.4.6-3.5.8-.7.2-1.5.3-2.2.5-.2.1-1.7.3-.9.3s-.5-.2-.7-.2l-2.4-.6c-1.2-.3-2.4-.6-3.5-.8.4.5.7 1 1.1 1.4v-12l-1.5 1.5h14.2l-1.5-1.5v12c0 1.9 3 1.9 3 0v-12c0-.8-.7-1.5-1.5-1.5h-14.2c-.8 0-1.5.7-1.5 1.5v12c0 .6.5 1.3 1.1 1.4 2.3.5 5.1 1.7 7.5 1.7s5.1-1.2 7.5-1.7c1.6-.3.8-3.2-1-2.8"/><path fill="#440606" d="m335.2 302.6-2.4.7-2.4-.8v-12.8h4.8z"/><path d="M334.8 301.2c-.5.1-1 .2-1.5.4s-1.3 0-.3.2c-.8-.2-1.6-.6-2.3-.8.4.5.7 1 1.1 1.4v-12.8l-1.5 1.5h4.8l-1.5-1.5v13c0 1.9 3 1.9 3 0v-13c0-.8-.7-1.5-1.5-1.5h-4.8c-.8 0-1.5.7-1.5 1.5v12.8c0 .7.5 1.2 1.1 1.4.8.3 1.8.8 2.6.9 1 .1 2.1-.4 3-.7 2-.4 1.2-3.3-.7-2.8"/><ellipse cx="332.8" cy="309.8" fill="#ba4a4a" rx="6.4" ry="6.2"/><path d="M337.7 309.8c-.3 6-9.8 6.1-9.8 0s9.5-6 9.8 0c.1 1.9 3.1 1.9 3 0-.2-4.3-3.5-7.7-7.9-7.7-4.2 0-7.9 3.4-7.9 7.7 0 4.1 3.5 7.5 7.6 7.7 4.5.2 8-3.3 8.3-7.7 0-1.9-3-1.9-3.1 0"/><path fill="#fff" d="m359.2 301.7-7.1 1.6-7.1-1.6v-12h14.2z"/><path d="M358.8 300.2c-1.2.3-2.4.6-3.5.8-.7.2-1.5.3-2.2.5-.2.1-1.7.3-.9.3s-.5-.2-.7-.2l-2.4-.6c-1.2-.3-2.4-.6-3.5-.8.4.5.7 1 1.1 1.4v-12l-1.5 1.5h14.2l-1.5-1.5v12c0 1.9 3 1.9 3 0v-12c0-.8-.7-1.5-1.5-1.5h-14.2c-.8 0-1.5.7-1.5 1.5v12c0 .6.5 1.3 1.1 1.4 2.3.5 5.1 1.7 7.5 1.7s5.1-1.2 7.5-1.7c1.6-.3.8-3.2-1-2.8"/><path fill="#c30000" d="m354.2 302.6-2.4.7-2.4-.8v-12.8h4.8z"/><path d="M353.8 301.2c-.5.1-1 .2-1.5.4s-1.3 0-.3.2c-.8-.2-1.6-.6-2.3-.8.4.5.7 1 1.1 1.4v-12.8l-1.5 1.5h4.8l-1.5-1.5v13c0 1.9 3 1.9 3 0v-13c0-.8-.7-1.5-1.5-1.5h-4.8c-.8 0-1.5.7-1.5 1.5v12.8c0 .7.5 1.2 1.1 1.4.8.3 1.8.8 2.6.9 1 .1 2.1-.4 3-.7 2-.4 1.2-3.3-.7-2.8"/><ellipse cx="351.8" cy="309.8" fill="#ba4a4a" rx="6.4" ry="6.2"/><path d="M356.7 309.8c-.3 6-9.8 6.1-9.8 0s9.5-6 9.8 0c.1 1.9 3.1 1.9 3 0-.2-4.3-3.5-7.7-7.9-7.7-4.2 0-7.9 3.4-7.9 7.7 0 4.1 3.5 7.5 7.6 7.7 4.5.2 8-3.3 8.3-7.7 0-1.9-3-1.9-3.1 0"/><path fill="#ba4a4a" d="M339.9 261.1c-1.6 2.1-10.9 2.9-10.9 2.9v-5.8h12.7c.1.1-.2.8-1.8 2.9"/><path d="M338.8 260.1c-1.2 1.4-3.9 1.6-5.6 1.9-1.4.2-2.8.4-4.1.5l1.5 1.5v-5.8l-1.5 1.5h12.7c-.5-.6-1-1.3-1.4-1.9.2-.6-.2.3-.3.5-.5.5-1 1.4-1.4 2-1.2 1.6 1.5 3 2.6 1.5.7-1 1.6-2 2-3.2.4-.9-.6-1.9-1.4-1.9h-12.7c-.8 0-1.5.7-1.5 1.5v5.8c0 .8.7 1.6 1.5 1.5 3.6-.3 9.3-.5 11.9-3.3 1.1-1.4-1-3.6-2.3-2.1"/><path fill="#ba4a4a" d="M310.5 261.4c1.6 2.1 10.9 2.9 10.9 2.9v-5.8h-12.7c-.1.1.2.8 1.8 2.9"/><path d="M309.4 262.5c2.6 2.8 8.3 3 11.9 3.3.8.1 1.5-.7 1.5-1.5v-5.8c0-.8-.7-1.5-1.5-1.5h-12.7c-.9 0-1.8 1-1.4 1.9.5 1.2 1.3 2.2 2 3.2 1.1 1.5 3.7 0 2.6-1.5-.4-.6-.9-1.5-1.4-2-.1-.1-.5-1-.3-.5-.5.6-1 1.3-1.4 1.9h12.7l-1.5-1.5v5.8l1.5-1.5c-1.4-.1-2.8-.3-4.1-.5-1.7-.3-4.4-.6-5.6-1.9-1.4-1.5-3.6.6-2.3 2.1"/><circle cx="325.2" cy="261.4" r="6.3" fill="#ba4a4a"/><path d="M330 261.4c-.3 6.2-9.6 6.2-9.6 0s9.3-6.1 9.6 0c.1 1.9 3.1 1.9 3 0-.2-4.2-3.4-7.8-7.8-7.8-4.2 0-7.8 3.6-7.8 7.8 0 4.1 3.4 7.6 7.5 7.8 4.6.2 7.9-3.4 8.2-7.8 0-1.9-3-1.9-3.1 0"/><path fill="#440606" d="M289.1 272.2h11.8v12.5h-11.8z"/><path d="M300.9 283.2h-11.8l1.5 1.5v-12.5l-1.5 1.5h11.8l-1.5-1.5v12.5c0 1.9 3 1.9 3 0v-12.5c0-.8-.7-1.5-1.5-1.5h-11.8c-.8 0-1.5.7-1.5 1.5v12.5c0 .8.7 1.5 1.5 1.5h11.8c1.9 0 2-3 0-3"/><path fill="#e59c9c" d="M300.9 272.2h6.2v12.5h-6.2z"/><path d="M307.1 283.2h-6.2l1.5 1.5v-12.5l-1.5 1.5h6.2l-1.5-1.5v12.5c0 1.9 3 1.9 3 0v-12.5c0-.8-.7-1.5-1.5-1.5h-6.2c-.8 0-1.5.7-1.5 1.5v12.5c0 .8.7 1.5 1.5 1.5h6.2c2 0 2-3 0-3"/><path d="M315.3 283.2h-8.2l1.5 1.5v-12.5l-1.5 1.5h8.2l-1.5-1.5v12.5c0 1.9 3 1.9 3 0v-12.5c0-.8-.7-1.5-1.5-1.5h-8.2c-.8 0-1.5.7-1.5 1.5v12.5c0 .8.7 1.5 1.5 1.5h8.2c1.9 0 1.9-3 0-3"/><path fill="#fff" d="M315.3 272.2h11.8v12.5h-11.8z"/><path d="M327.1 283.2h-11.8l1.5 1.5v-12.5l-1.5 1.5h11.8l-1.5-1.5v12.5c0 1.9 3 1.9 3 0v-12.5c0-.8-.7-1.5-1.5-1.5h-11.8c-.8 0-1.5.7-1.5 1.5v12.5c0 .8.7 1.5 1.5 1.5h11.8c1.9 0 1.9-3 0-3"/><path fill="#e59c9c" d="M327.1 272.2h6.2v12.5h-6.2z"/><path d="M333.3 283.2h-6.2l1.5 1.5v-12.5l-1.5 1.5h6.2l-1.5-1.5v12.5c0 1.9 3 1.9 3 0v-12.5c0-.8-.7-1.5-1.5-1.5h-6.2c-.8 0-1.5.7-1.5 1.5v12.5c0 .8.7 1.5 1.5 1.5h6.2c1.9 0 1.9-3 0-3"/><path fill="#fff" d="M341.5 272.2h11.8v12.5h-11.8z"/><path d="M353.3 283.2h-11.8l1.5 1.5v-12.5l-1.5 1.5h11.8l-1.5-1.5v12.5c0 1.9 3 1.9 3 0v-12.5c0-.8-.7-1.5-1.5-1.5h-11.8c-.8 0-1.5.7-1.5 1.5v12.5c0 .8.7 1.5 1.5 1.5h11.8c1.9 0 1.9-3 0-3"/><path d="M359.5 283.2h-6.2l1.5 1.5v-12.5l-1.5 1.5h6.2l-1.5-1.5v12.5c0 1.9 3 1.9 3 0v-12.5c0-.8-.7-1.5-1.5-1.5h-6.2c-.8 0-1.5.7-1.5 1.5v12.5c0 .8.7 1.5 1.5 1.5h6.2c1.9 0 1.9-3 0-3"/><path fill="#bc0808" d="m368.6 185.3-13.2-6.5c-16.4-50-44.4-62.3-44.4-62.3-38.6 6.7-81.4 6-124.5 0 0 0-36.8 25.3-41.7 62.3l-13.2 6.5s6.1-95.7 104.9-99.5 130.9 51.2 132.1 99.5"/><path fill="#c30000" d="M333.3 272.2h8.2v12.5h-8.2z"/><path d="M341.5 283.2h-8.2l1.5 1.5v-12.5l-1.5 1.5h8.2l-1.5-1.5v12.5c0 1.9 3 1.9 3 0v-12.5c0-.8-.7-1.5-1.5-1.5h-8.2c-.8 0-1.5.7-1.5 1.5v12.5c0 .8.7 1.5 1.5 1.5h8.2c1.9 0 1.9-3 0-3M135.3 187.4c2.9-1.4 5.8-2.9 8.7-4.3 3.3-1.6 5.2-1.9 5.8-5.8 1.9-12 7.3-23.1 14.3-33 5.5-7.7 12-14.6 19.2-20.8 1.5-1.3 3.4-3.5 5.2-4.2.6-.2.7-.3.8-.3.4 0 3.9.8 4.6.9 2.3.3 4.6.6 6.8.8 32.8 3.8 66.1 4.5 98.9.1 2.1-.3 4.2-.6 6.2-.9.9-.1 1.8-.2 2.7-.4-.5.1 1.7-.6.7-.7.2 0 .4.3.7.3 1.3.3 2.8 1.6 3.9 2.4 5.5 3.7 10.3 8.5 14.6 13.6 8.8 10.4 15.3 22.7 20.2 35.3 1.1 2.8 1.8 8 3.9 10.2.8.8 2.3 1.3 3.3 1.8 3.4 1.7 6.8 3.4 10.3 5.1 2.9 1.4 5.4-2.9 2.5-4.3-3-1.5-6.1-3-9.1-4.5-.9-.5-3.1-1.1-3.7-1.9.2.3-.3-2.3-.5-2.9-.8-2.2-1.6-4.3-2.4-6.4-4.5-11.4-10.3-22.4-17.8-32.2-4.6-6-9.8-11.5-15.8-16.1-2.1-1.6-4.8-4-7.4-4.8-2.3-.7-4.9.3-7.2.6-4.8.8-9.7 1.4-14.6 1.9-8.3.9-16.6 1.4-24.9 1.7-17.6.6-35.1-.1-52.6-1.7-4.2-.4-8.4-.8-12.7-1.3-3.7-.4-8.9-2.4-12.4-1.4-1.2.3-2.5 1.6-3.4 2.4-5.9 4.6-11.4 9.9-16.4 15.5-8.4 9.5-15.5 20.4-19.7 32.5-1.1 3.3-2 6.7-2.7 10.1-.1.7-.2 1.4-.4 2.1-.1.3 1.2-.7.5.2-.3.4-1.4.7-1.9.9-3.5 1.8-7.1 3.5-10.6 5.3-3 1.3-.5 5.6 2.4 4.2"/><path fill="#fff" d="M380.1 181s-19.1-23.2-33.5-12.6 2.5 33.5 2.5 33.5z"/><path d="M381.8 179.3c-7.8-9.5-23-21.4-35.6-13.7-13.8 8.5-6.9 27.2.6 37.6.8 1 2.2 1.7 3.4.9 10.3-7 20.7-13.9 31-20.9 2.7-1.8.2-6.1-2.5-4.3-10.3 7-20.7 13.9-31 20.9 1.1.3 2.3.6 3.4.9-5.9-8.1-13.8-25.1-1.5-31.3 10.2-5.1 22.5 6.1 28.5 13.4 2.3 2.5 5.8-1.1 3.7-3.5"/><path fill="#6b0e0e" d="m346.4 204.4 22.2-17.8 13.7 25.5-18.7 13.7z"/><path d="M348.2 206.2c7.4-5.9 14.8-11.9 22.2-17.8-1.3-.2-2.6-.3-3.9-.5 4.5 8.5 9.1 17 13.6 25.5.3-1.1.6-2.3.9-3.4-6.2 4.6-12.4 9.2-18.6 13.7 1 .1 2 .3 3 .4-5.7-7.1-11.5-14.3-17.2-21.4-2-2.5-5.5 1-3.5 3.5 5.7 7.1 11.5 14.3 17.2 21.4.6.8 2.2 1 3 .4 6.2-4.6 12.4-9.2 18.6-13.7 1.1-.8 1.6-2.1.9-3.4-4.5-8.5-9.1-17-13.6-25.5-.8-1.5-2.7-1.5-3.9-.5-7.4 5.9-14.8 11.9-22.2 17.8-2.5 2 1 5.5 3.5 3.5"/><path fill="#6b0e0e" d="m368.1 187.2 13-10.5 17.5 24.4-8.2 5.6z"/><path d="M369.8 189c4.4-3.5 8.7-7 13.1-10.6-1.3-.2-2.6-.3-3.9-.5 5.8 8.1 11.7 16.3 17.5 24.4.3-1.1.6-2.3.9-3.4-2.8 1.8-5.5 3.7-8.3 5.5 1 .1 2 .3 3 .4-7.4-6.5-14.9-13-22.3-19.4-2.4-2.1-6 1.4-3.5 3.5 7.4 6.5 14.9 13 22.3 19.4.8.7 2.1 1 3 .4 2.8-1.8 5.5-3.7 8.3-5.5 1-.7 1.7-2.3.9-3.4-5.8-8.1-11.7-16.3-17.5-24.4-1-1.4-2.6-1.6-3.9-.5-4.4 3.5-8.7 7-13.1 10.6-2.5 2 1 5.5 3.5 3.5"/><circle cx="363.4" cy="206.4" r="4.5" fill="#11bee5"/><path d="M362.5 200.5c-3.2.5-5.5 3.5-5 6.8.5 3.1 3.4 5.4 6.6 5s5.5-3.2 5.3-6.4c-.3-3.3-3.2-5.6-6.4-5.5-1.9.1-1.9 3.1 0 3 3.9-.2 4.7 5.5.8 5.9-1.6.2-3.1-1-3.2-2.7-.2-1.8 1.2-3 2.9-3.3 1.7-.2.9-3.1-1-2.8"/><path fill="#7f0909" d="M409.8 216.4 379.7 180l-32.4 23.5 28.3 34.5"/><path d="M411.5 214.6c-10-12.1-20-24.3-30.1-36.4-.6-.8-2.2-1-3-.4-10.8 7.8-21.6 15.7-32.4 23.5-1.4 1-1.6 2.6-.5 3.9 9.4 11.5 18.9 23 28.3 34.5 2 2.5 5.6-1.1 3.5-3.5-9.4-11.5-18.9-23-28.3-34.5-.2 1.3-.3 2.6-.5 3.9 10.8-7.8 21.6-15.7 32.4-23.5-1-.1-2-.3-3-.4 10 12.1 20 24.3 30.1 36.4 2 2.6 5.6-1 3.5-3.5"/><path fill="#440606" d="m346.4 204.4 22.2-17.8 13.7 25.5-18.7 13.7z"/><path d="M348.2 206.2c7.4-5.9 14.8-11.9 22.2-17.8-1.3-.2-2.6-.3-3.9-.5 4.5 8.5 9.1 17 13.6 25.5.3-1.1.6-2.3.9-3.4-6.2 4.6-12.4 9.2-18.6 13.7 1 .1 2 .3 3 .4-5.7-7.1-11.5-14.3-17.2-21.4-2-2.5-5.5 1-3.5 3.5 5.7 7.1 11.5 14.3 17.2 21.4.6.8 2.2 1 3 .4 6.2-4.6 12.4-9.2 18.6-13.7 1.1-.8 1.6-2.1.9-3.4-4.5-8.5-9.1-17-13.6-25.5-.8-1.5-2.7-1.5-3.9-.5-7.4 5.9-14.8 11.9-22.2 17.8-2.5 2 1 5.5 3.5 3.5"/><path fill="#440606" d="m368.1 187.2 13-10.5 17.5 24.4-8.2 5.6z"/><path d="M369.8 189c4.4-3.5 8.7-7 13.1-10.6-1.3-.2-2.6-.3-3.9-.5 5.8 8.1 11.7 16.3 17.5 24.4.3-1.1.6-2.3.9-3.4-2.8 1.8-5.5 3.7-8.3 5.5 1 .1 2 .3 3 .4-7.4-6.5-14.9-13-22.3-19.4-2.4-2.1-6 1.4-3.5 3.5 7.4 6.5 14.9 13 22.3 19.4.8.7 2.1 1 3 .4 2.8-1.8 5.5-3.7 8.3-5.5 1-.7 1.7-2.3.9-3.4-5.8-8.1-11.7-16.3-17.5-24.4-1-1.4-2.6-1.6-3.9-.5-4.4 3.5-8.7 7-13.1 10.6-2.5 2 1 5.5 3.5 3.5"/><circle cx="363.4" cy="206.4" r="4.5" fill="#7f0909"/><path d="M362.5 200.5c-3.2.5-5.5 3.5-5 6.8.5 3.1 3.4 5.4 6.6 5s5.5-3.2 5.3-6.4c-.3-3.3-3.2-5.6-6.4-5.5-1.9.1-1.9 3.1 0 3 3.9-.2 4.7 5.5.8 5.9-1.6.2-3.1-1-3.2-2.7-.2-1.8 1.2-3 2.9-3.3 1.7-.2.9-3.1-1-2.8"/><path fill="#440606" d="M248.3 123.7c-92.7 0-70.1-23-70.1-23h140.2s22.6 23-70.1 23"/><path d="M248.3 121.2c-19.2 0-40.2.2-58.7-5.9-3.3-1.1-7.1-2.5-9.6-5.1-1.4-1.5-1.9-2.7-1.7-4.4.1-.7.8-1.4 1.2-2.8.1-.3.3-.5.3-.4.3.2-2.1 0-1.2.6 1.1.8 6 0 7.3 0h129.7c.5 0 2 .3 2.4 0 1-.6-1.5-.4-1.2-.6.1 0 1 1.5 1 1.6.7 1.7.7 2.8.1 4-1.5 2.8-4.6 4.5-7.5 5.7-6.7 2.9-14.1 4.1-21.3 5-13.4 1.9-27.2 2.3-40.8 2.3-3.2 0-3.2 5 0 5 19.9 0 42.2.4 61.3-6.5 5.8-2.1 13.6-5.9 13.7-13 0-2.4-1.1-6.2-3.1-7.7-1.6-1.2-4.3-.7-6.2-.7H206.6c-9.1 0-18.4-.7-27.5 0-3 .2-4.6 2.6-5.4 5.4-1.7 5.7 2.1 10.3 6.7 13.1 12.9 7.7 31 8.2 45.5 8.9 7.5.4 14.9.5 22.4.5 3.2 0 3.2-5 0-5"/><path fill="#440606" d="M170.4 82.7h155.4v18H170.4z"/><path d="M325.8 98.2H170.4l2.5 2.5v-18l-2.5 2.5h155.4l-2.5-2.5v18c0 3.2 5 3.2 5 0v-18c0-1.4-1.1-2.5-2.5-2.5H170.4c-1.4 0-2.5 1.1-2.5 2.5v18c0 1.4 1.1 2.5 2.5 2.5h155.4c3.2 0 3.2-5 0-5"/><path fill="#ba4a4a" d="M170.4 88.4h154.7V95H170.4z"/><path d="M325.1 93.5H170.4l1.5 1.5v-6.6l-1.5 1.5h154.7l-1.5-1.5V95c0 1.9 3 1.9 3 0v-6.6c0-.8-.7-1.5-1.5-1.5H170.4c-.8 0-1.5.7-1.5 1.5V95c0 .8.7 1.5 1.5 1.5h154.7c1.9 0 1.9-3 0-3"/><path fill="#7f0909" d="M325.8 82.7H170.4l-12.8-10.9c-2.7-2.3-2.7-5.1 0-7.3l8.7-7.4c2.6-2.2 7.3-3.7 12.6-3.9l68.5-16.5c1.1-.1 69.4 16.5 69.4 16.5 5.6.3 10.4 1.9 12.9 4.2l7.8 7.5c2.2 2.1 2.2 4.6 0 6.7z"/><path d="M325.8 80.2H173.9c-.7 0-2.4-.3-3.1 0-.1 0-.4-.1-.5 0 .6-.7 1.9 1.7 1.3.3-.2-.5-1.4-1.2-1.8-1.5-2.9-2.5-5.9-5-8.8-7.5-1.6-1.3-1.7-1.1-1.7-3.4 0-2.5.7-2.5 2.6-4.1 2.7-2.3 5.3-5.2 8.6-6.6 3.2-1.4 6.7-1.5 10.1-2.2 5.3-1.1 10.6-2.6 15.9-3.8 15.4-3.7 30.8-7.4 46.2-11.2 1.6-.4 3.2-.7 4.8-1.2 1.1-.3-1.1-.2-.6-.1.6.1 1.2.3 1.9.4 5.9 1.3 11.9 2.8 17.8 4.2 15.2 3.6 30.3 7.3 45.5 10.9 5.6 1.4 11.9 1.2 16.4 5.2 2 1.8 5.9 4.5 7.1 6.8 1.7 3.4-3.2 6.3-5.2 8.2l-6.6 6.3c-2.3 2.2 1.2 5.8 3.5 3.5 2.4-2.3 4.9-4.6 7.3-7 2.2-2.1 5.4-4.4 6.5-7.3 1.4-4-1.6-6.9-4.2-9.4-2.5-2.4-4.9-5.2-7.9-7-5.1-3.1-12-3.2-17.9-4.6-7.8-1.9-15.6-3.8-23.3-5.6l-26.4-6.3c-4.3-1-9.1-2.8-13.6-3.1-3.7-.2-7.9 1.6-11.4 2.4-8.4 2-16.8 4.1-25.2 6.1-8.2 2-16.5 4-24.7 6-5.3 1.3-11.5 1.8-16.6 3.5-3.7 1.3-6.4 3.7-9.3 6.2-2.7 2.3-6.9 4.8-7.6 8.5-.8 3.8 1.9 6.2 4.6 8.5 3.2 2.7 6.4 5.5 9.6 8.2 2.2 1.9 3.6 1.8 6.4 1.8H237c29 0 58 .5 87 0h1.6c3.4-.1 3.4-5.1.2-5.1"/><path fill="#0c4589" d="M276.9 62.7c-3.2 4.2-21.4 5.7-21.4 5.7V57.1h25.1c-.1 0-.5 1.4-3.7 5.6"/><path d="M275.8 61.7c-4.1 4.6-14.6 4.8-20.3 5.3l1.5 1.5V57.1l-1.5 1.5h25.1c-.5-.6-1-1.3-1.4-1.9-.6 1.6-2.4 3.7-3.5 5.3-1.2 1.6 1.5 3 2.6 1.5 1.4-1.9 3-3.8 3.8-6 .4-.9-.6-1.9-1.4-1.9h-25.1c-.8 0-1.5.7-1.5 1.5v11.4c0 .8.7 1.6 1.5 1.5 6.6-.6 17.7-.9 22.4-6.2 1.2-1.4-.9-3.6-2.2-2.1"/><path fill="#0c4589" d="M218.9 63.3c3.2 4.2 21.4 5.7 21.4 5.7V57.6h-25.1c.1 0 .5 1.4 3.7 5.7"/><path d="M217.9 64.3c4.8 5.3 15.8 5.6 22.4 6.2.8.1 1.5-.7 1.5-1.5V57.6c0-.8-.7-1.5-1.5-1.5h-25.1c-.9 0-1.8 1-1.4 1.9.8 2.2 2.5 4.1 3.8 6 1.1 1.5 3.7 0 2.6-1.5s-2.9-3.7-3.5-5.3c-.5.6-1 1.3-1.4 1.9h25.1l-1.5-1.5V69l1.5-1.5c-5.7-.5-16.2-.7-20.3-5.3-1.4-1.4-3.5.7-2.2 2.1"/><circle cx="248" cy="63.3" r="12.4" fill="#0c4589"/><path d="M258.9 63.3c-.8 14-21.9 14.1-21.9 0s21.1-14 21.9 0c.1 1.9 3.1 1.9 3 0-.4-7.6-6-13.9-13.9-13.9-7.6 0-14 6.4-13.9 13.9 0 7.3 5.9 13.6 13.3 13.9 8.2.4 14.2-6.1 14.6-13.9 0-1.9-3-1.9-3.1 0"/><path fill="#0c4589" d="m247.9 53.8 2.8 5.6 6.2.9-4.5 4.4 1 6.1-5.5-2.9-5.5 2.9 1-6.1-4.4-4.4 6.2-.9z"/><path d="M246.6 54.6c.8 1.7 1.6 4.9 3.2 6 1.5 1.1 4.9.9 6.7 1.2-.2-.8-.4-1.7-.7-2.5-1.3 1.3-4.3 3.2-4.9 5-.6 1.9.7 5.1 1.1 7 .7-.6 1.5-1.1 2.2-1.7-1.7-.9-4.3-3.1-6.3-3.1s-4.6 2.2-6.3 3.1c.7.6 1.5 1.1 2.2 1.7.3-1.9 1.6-5.1 1.1-7-.6-1.9-3.5-3.7-4.9-5-.2.8-.4 1.7-.7 2.5 1.8-.3 5.2 0 6.7-1.2 1.5-1.1 2.3-4.4 3.2-6 .9-1.7-1.7-3.2-2.6-1.5-.5.9-.9 1.9-1.4 2.8-.3.5-.6 1.1-.8 1.7-.2.4-1 1.3-.1.7s-.4-.1-.8-.1c-.6 0-1.3.2-1.9.3-1 .1-2.1.3-3.1.4-1.1.2-1.4 1.8-.7 2.5 1.5 1.5 3 2.9 4.5 4.4-.1-.5-.3-1-.4-1.5-.4 2.1-.7 4.1-1.1 6.2-.2 1.3 1 2.3 2.2 1.7 1.8-1 3.7-1.9 5.5-2.9H247c1.8 1 3.7 1.9 5.5 2.9 1.2.6 2.4-.4 2.2-1.7-.4-2.1-.7-4.1-1.1-6.2-.1.5-.3 1-.4 1.5 1.5-1.5 3-2.9 4.5-4.4.7-.7.5-2.3-.7-2.5-1-.1-2.1-.3-3.1-.4-.6-.1-1.3-.3-1.9-.3-.3 0-1.7-.5-.8.1.8.6 0-.3-.1-.7-.2-.6-.6-1.1-.8-1.7-.5-.9-.9-1.9-1.4-2.8-.5-1.8-3.1-.2-2.3 1.5"/></g><g><g><path fill="#0c4589" d="m256.8 135.1-6.8-33 17.3 33z"/><path d="M258.2 134.7c-2.3-11-4.5-22-6.8-33l-2.7 1.2c5.8 11 11.6 22 17.3 33 .4-.8.9-1.5 1.3-2.3h-10.6c-1.9 0-1.9 3 0 3h10.6c1.2 0 1.8-1.3 1.3-2.3-5.8-11-11.6-22-17.3-33-.8-1.6-3.1-.4-2.7 1.2 2.3 11 4.5 22 6.8 33 .3 1.9 3.2 1.1 2.8-.8"/><path fill="#308dd8" d="m250 168.1 6.8-33h10.5z"/><path d="M251.4 168.5c2.3-11 4.5-22 6.8-33-.5.4-1 .7-1.4 1.1h10.6c-.4-.8-.9-1.5-1.3-2.3-5.8 11-11.6 22-17.3 33-.9 1.7 1.7 3.2 2.6 1.5 5.8-11 11.6-22 17.3-33 .5-1-.1-2.3-1.3-2.3h-10.6c-.6 0-1.3.5-1.4 1.1-2.3 11-4.5 22-6.8 33-.4 2 2.4 2.8 2.8.9"/><path fill="#7f0909" d="m232.7 135.1 17.3-33 6.8 33z"/><path d="M234 135.8c5.8-11 11.6-22 17.3-33-.9-.1-1.8-.2-2.7-.4 2.2 11 4.5 22 6.7 33 .5-.6 1-1.3 1.4-1.9h-24.1c-1.9 0-1.9 3 0 3h24.1c1 0 1.6-1 1.4-1.9-2.2-11-4.5-22-6.7-33-.3-1.3-2.2-1.5-2.7-.4-5.8 11-11.6 22-17.3 33-.9 1.8 1.7 3.4 2.6 1.6"/><path fill="#bc0808" d="m250 168.1-17.3-33h24.1z"/><path d="M251.3 167.3c-5.8-11-11.6-22-17.3-33-.4.8-.9 1.5-1.3 2.3h24.1c-.5-.6-1-1.3-1.4-1.9-2.2 11-4.5 22-6.7 33-.4 1.9 2.5 2.7 2.9.8 2.2-11 4.5-22 6.7-33 .2-.9-.4-1.9-1.4-1.9h-24.1c-1.2 0-1.8 1.3-1.3 2.3 5.8 11 11.6 22 17.3 33 .8 1.7 3.4.1 2.5-1.6"/></g></g></svg>