<svg xmlns="http://www.w3.org/2000/svg" xml:space="preserve" viewBox="0 0 500 500"><g><path fill="#fff" d="M423.4 204.5c.2-.3.4-.5.7-.8 7.7-8.3 25-18.9 36.2-9.4s5.6 27-.7 36.8z"/><path d="M425.1 206.2c7.4-8.3 23.4-18.9 33.8-9.7 9.7 8.6 4.1 24.1-1.6 33.3 1.1-.3 2.3-.6 3.4-.9-12-8.9-24.1-17.8-36.1-26.7-2.6-1.9-5.1 2.4-2.5 4.3 12 8.9 24.1 17.8 36.1 26.7 1.1.8 2.8.2 3.4-.9 7.2-11.6 12.4-30.2-.2-40.3-12.6-10-30.8.4-39.8 10.6-2.1 2.5 1.4 6 3.5 3.6"/><path fill="#ffdb53" d="M362.3 249.6s39.1-19.7 60.2-47.3c0 0 27.5 5.7 37.6 32.1 0 0-20.7 48.3-75.6 73.3z"/><path fill="#e29542" d="M418.9 282.6s-1.3-30.4-27-51.6l23.3-20.2c27.3 10.2 37 34.9 37 34.9s-10.4 14.6-33.3 36.9"/><path fill="#ffdb53" d="M121.8 252.2s-5.9 2.1-14.1 6.9c-13.1 7.7-32 22.5-42.7 47.4-17.3 40.5 32.1 49.7 80.7 28 0 0 13-28.5-6-45.8 0 0-10.8-3-23.3.3"/><path fill="#e29542" d="M116.5 290c-8.3-11.7-43.8 3.2-43.8 3.2 8.2-15.6 17-20 17-20s18.6-12.9 29.9-3.2c0 0 4.1 9.6-2.6 21.2"/><path d="M119.2 250.8c-17.9 6.4-34.5 19.6-46 34.6-10.1 13.1-23.8 36.2-11.2 52 11.5 14.4 35 13.2 51.1 10.3q9-1.65 17.7-4.5c3.1-1 6.1-2.1 9.1-3.3 1.9-.8 4.8-1.4 6-3.1 2.8-3.6 3.5-10.6 4.1-14.9 1.5-10.4-.1-21.3-6.7-29.7-3.1-3.9-4.9-5-9.5-5.7-6.7-.9-13.4-.5-20 1.1-3.1.7-1.8 5.6 1.3 4.8 5.5-1.3 11.2-1.8 16.9-1.1 4.2.5 5 .8 7.6 4.2 5.4 7.1 6.7 16.1 5.7 24.7-.4 3.5-1.3 11.3-3.6 13.8-.6.6-3.5 1.2-4.7 1.7-2.5 1-5 1.9-7.6 2.7-4.8 1.6-9.8 2.9-14.8 3.9-14.4 2.9-35.9 5-47.4-6.5-12.7-12.8.1-34 8.4-45.4 10.8-15 27.3-28.5 44.9-34.8 3-1.1 1.7-5.9-1.3-4.8M363.5 250.7c22.6-11.4 45.1-27.6 60.7-47.7l-2.4.6c6.2 1.3 12.2 4.1 17.5 7.4 5.5 3.5 10.5 8 14.2 13.4q1.35 1.95 2.4 3.9c.4.6.8 1.8 1.3 2.4-.9-1.1 1.8 2.6 1.7 1.4 0 .3-.4.6-.4.9-.2 1.7-2.2 4.2-3.1 5.7-1.8 3.2-3.8 6.4-5.9 9.4-6.5 9.5-14 18.3-22.3 26.3-12.9 12.4-27.8 22.5-44.1 30 1.2.5 2.4 1 3.7 1.5-7.4-19.4-14.7-38.7-22.1-58.1-1.1-3-6-1.7-4.8 1.3 7.4 19.4 14.7 38.7 22.1 58.1.6 1.6 2.1 2.2 3.7 1.5 27-12.5 50.2-32.3 67.1-56.7 3.6-5.2 7.6-10.9 10.1-16.8 1.4-3.4-1.2-7.1-2.9-10.1-3.4-5.9-8-10.9-13.3-15.1-6.7-5.2-15.1-9.6-23.5-11.3-.8-.2-1.9-.1-2.4.6-15.4 19.8-37.3 35.7-59.7 46.9-3 1.6-.5 6 2.4 4.5"/><path fill="#fff" d="M381.1 349.2c-.2-6-2.6-18-5.4-31.8l-.1-.5c-3-14.8-6.6-33.2-6.8-41.2-.1-5 .1-12.2.1-19.8v-.4c0-15.6.1-37.1-1.4-51.2-1.2-11.5-5.6-40.7-19.2-62.5-12.6-20.2-27.9-33.2-47.9-41.4-18.4-7.4-52.1-8.3-53-8.3-8.6 0-30.7.7-49.1 8.1-20.1 8.1-35.3 21.3-47.9 41.5-13.6 21.8-17.9 51-19.1 62.5-1.5 14.1-1.4 35.5-1.2 51.2v3.6c0 6.3 0 12.3-.1 16.6-.2 8.1-3.9 26.5-6.9 41.3l-.1.6c-2.7 13.8-5.1 25.7-5.4 31.7-.6 15.4 3.8 25.7 14.9 35.8 7.1 6.4 14 9.5 21.7 9.5 4.1 0 7.8-.8 11.9-1.8 1.1-.3 2.3-.6 3.5-1.1 4 2.2 11.7 5.6 21.7 5.6 6.5 0 14.1-1.4 22.4-5.4 4.8 3.9 9.7 7.5 9.7 7.5 12.9 7.3 24 8.8 25.6 8.8h.4c1.6 0 12.7-.9 26.1-8.8 0 0 4.3-3.1 8.8-6.7 7.7 3.4 14.7 4.6 20.8 4.6 10.9 0 19-3.9 22.7-6.1 1.8.7 3.3 1.3 4.9 1.7 4 1 7.7 1.8 11.8 1.8 7.8 0 14.4-2.9 21.6-9.5 11.3-10.1 15.6-20.5 15-35.9"/><path fill="#ffde83" d="M382.8 367.5c-85.9 12.5-172.9 12.2-260.8 0 0 0-3.3-6.8 0-27.8s11.3-68.2 11.3-68.2c80 12.2 159 12.5 237.1 0 0 0 3.9 42.5 10.2 62.1 6.3 19.7 2.2 33.9 2.2 33.9"/><path fill="#c8c8c8" d="M285.5 389.9s8-6.1 16.8-7c8.8-1 23.8 5.5 23.8 5.5s-4.9 10-14.2 9.8c-9.4-.3-26.4-8.3-26.4-8.3"/><path fill="#ffdb53" d="M121.5 366.5s155.5 20.8 257.2 1.8c0 0-7.2 18.2-23.3 25.2-16.2 7-40.5-15-53.2-12.5s-26.8 21.9-44 25.2-48-20.3-48-20.3-1-8.6-38.6 4.4-50.1-23.8-50.1-23.8"/><path fill="#c8c8c8" d="M169.6 389.9s8-6.1 16.8-7 23.8 5.5 23.8 5.5-4.9 10-14.2 9.8-26.4-8.3-26.4-8.3"/><path d="M384.6 351.4c-.2-6.1-2.7-18.4-5.5-32.5l-.1-.5c-3-15.1-6.3-33.9-6.5-42.1-.1-5.1.5-12.5.5-20.3v-.4c0-16-.3-37.9-1.8-52.2-1.2-11.8-5.9-41.6-19.8-63.8-12.9-20.6-28.6-33.9-49.1-42.2-18.8-7.6-53.2-8.4-54.2-8.4-8.8 0-31.4.7-50.1 8.3-20.5 8.3-36 21.7-48.9 42.3-13.9 22.2-18.3 52.1-19.6 63.8-1.5 14.4-1.4 36.3-1.3 52.3v3.7c0 6.5 0 12.5-.1 16.9-.2 8.3-4 27-7 42.1l-.1.6c-2.8 14.1-5.2 26.3-5.5 32.4-.6 15.7 3.8 26.3 15.2 36.6 7.3 6.6 14.3 9.7 22.1 9.7 4.2 0 8-.8 12.1-1.9 1.1-.3 2.3-.7 3.5-1.1 4.1 2.3 11.9 5.7 22.2 5.7 6.7 0 14.4-1.4 22.9-5.5 4.9 4 9.9 7.4 10 7.4 13.2 7.5 24.5 8.7 26.2 8.7h.4c1.7 0 13-.7 26.7-8.7 0 0 4.4-3.1 8.9-6.7 7.8 3.5 15 4.8 21.3 4.8 11.2 0 19.4-4 23.2-6.2 1.8.7 3.4 1.3 5 1.7 4.1 1 7.9 1.9 12.1 1.9 7.9 0 14.7-3 22.1-9.6 11.4-10.5 15.8-21.1 15.2-36.8m-207.4 39.5c6.1-2.6 13.6-5.5 20.1-5.5 4.4 0 7.6 1.3 10.4 4.1l.2.2c-13.1 5.4-23.9 3.7-30.7 1.2m114.5-.5c.3-.3.6-.5.8-.8 2.8-2.8 6-4.2 10.4-4.2 6.1 0 13 2.5 18.9 5-6.4 2.5-17 4.8-30.1 0m72.8-7.8c-6 5.4-11.1 7.8-17.2 7.8-3.4 0-6.6-.7-10.4-1.6-2-.5-4.5-1.6-7.7-3l-.5-.2c-7-3.2-16.7-7.4-25.8-7.4-6.3 0-11.3 2.1-15.6 6.3-11 11.2-21.9 15.7-29.1 17.5-.1 0-7.1 1.9-15.2-.3-8.2-2.3-19.2-6.1-30.1-17.2-4.1-4.2-9.2-6.3-15.6-6.3-9 0-18.6 4.2-25.9 7.4l-.3.1c-3.3 1.4-5.8 2.6-7.9 3.1-3.8.9-7 1.6-10.4 1.6-6 0-11.3-2.4-17.2-7.8-9.8-8.9-13.3-17.3-12.8-30.9.2-5.5 2.6-17.4 5.4-31.2l.1-.6c3.2-16.1 6.9-34.4 7.2-43.4.1-4.5.1-10.6.1-17.1v-3.7c-.1-15.8-.3-37.5 1.2-51.4 1.2-11.3 5.4-39.8 18.5-60.7 12-19.3 26.5-31.8 45.4-39.5 17.6-7.1 39-8.2 47.4-8.2.8 0 33.8.8 51.4 7.9 19 7.7 33.4 20.4 45.5 39.6 13.1 21 18 49.5 19.2 60.8 1.5 14 1.9 35.7 1.9 51.5v.4c0 7.8-.8 15.2-.7 20.4.2 8.9 3.6 27.2 6.8 43.4l-.1.5c2.8 13.8 5.1 25.8 5.3 31.3.5 13.6-3.1 22-12.9 30.9"/><path d="M324.2 191.9c0 10.6-8.6 19.1-19.1 19.1-10.6 0-19.1-8.6-19.1-19.1 0-.9.1-1.8.2-2.6 1.2.8 2.6 1.3 4.1 1.3 4 0 7.2-3.2 7.2-7.2 0-2.9-1.7-5.4-4.1-6.5 3.2-2.5 7.3-4 11.7-4 10.5-.1 19.1 8.5 19.1 19M214.1 191.9c0 10.6-8.6 19.1-19.1 19.1-10.6 0-19.1-8.6-19.1-19.1 0-.9.1-1.8.2-2.6 1.2.8 2.6 1.3 4.1 1.3 4 0 7.2-3.2 7.2-7.2 0-2.9-1.7-5.4-4.1-6.5 3.2-2.5 7.3-4 11.7-4 10.5-.1 19.1 8.5 19.1 19"/><ellipse cx="166.4" cy="228.6" fill="#f68694" rx="7.4" ry="3.4" transform="rotate(-44.198 166.406 228.55)"/><ellipse cx="180.5" cy="229.7" fill="#f68694" rx="7.4" ry="3.4" transform="rotate(-44.198 180.46 229.72)"/><ellipse cx="194.5" cy="229.7" fill="#f68694" rx="7.4" ry="3.4" transform="rotate(-44.198 194.513 229.721)"/><path fill="#1e2120" d="M381.2 277c0 40.8-251.1 40.8-251.1 0v-6c0 41.4 251.1 41.4 251.1 0z"/><path d="M379.7 277c-.2 11.3-18.4 16.2-26.7 18.6-19.8 5.8-40.8 8-61.3 9.3-24 1.6-48.1 1.6-72 0-20.6-1.3-41.5-3.5-61.3-9.3-7.2-2.1-14.8-4.6-20.8-9.2-5.7-4.3-5.9-8.6-5.9-15.4h-3c.2 11.7 15.4 17.4 24.5 20.4 19.5 6.5 40.5 8.9 60.9 10.5 24.9 1.9 49.9 2.1 74.8.6 21.2-1.3 42.8-3.5 63.4-9.3 10.3-2.9 30.3-8.6 30.5-22.3h-3c-.1 2.2-.1 4.1-.1 6.1 0 1.9 3 1.9 3 0v-6c0-1.9-3-1.9-3 0-.2 11-17.2 16-25.4 18.5-19.1 5.9-39.4 8.2-59.3 9.6-23.3 1.7-46.8 1.9-70.1.6-20.7-1.2-41.8-3.2-61.9-8.5-7.7-2-15.6-4.4-22.5-8.6-4.2-2.5-8.8-6.3-8.9-11.6 0-1.9-3-1.9-3 0 0 6-.2 10.6 4.2 15.2 4.3 4.6 10.5 7.3 16.3 9.5 18.9 7.2 39.8 9.6 59.8 11.4 25.3 2.2 50.8 2.5 76.1 1.2 22-1.2 44.5-3.3 65.9-9 10.4-2.8 31.6-8.3 31.8-22.3 0-1.9-3-1.9-3 0"/><ellipse cx="333.9" cy="229.7" fill="#f68694" rx="7.4" ry="3.4" transform="rotate(224.198 333.885 229.722)"/><ellipse cx="319.8" cy="230.9" fill="#f68694" rx="7.4" ry="3.4" transform="rotate(224.198 319.83 230.893)"/><ellipse cx="305.8" cy="230.9" fill="#f68694" rx="7.4" ry="3.4" transform="rotate(224.198 305.777 230.893)"/><path d="M286.8 164.1c6-14.1 32.7-13.9 38.8 0 1.3 2.9 5.6.4 4.3-2.5-7.5-17.2-40-17.4-47.5 0-1.1 2.9 3.2 5.4 4.4 2.5M170.7 175.3c7.9.9 15.8 1.6 23.7 2 5 .2 10.2.4 15.2-.1 2.6-.3 6.8-.6 8.1-3.4 1.4-2.9-3-5.4-4.3-2.5-.2.4.4-.1-.4.2-.6.3-1.4.4-2.1.5-2 .4-4 .4-6 .5-4.8.1-9.6-.1-14.4-.4-6.6-.4-13.2-1-19.7-1.8-3.3-.3-3.3 4.7-.1 5M130.7 272.9c79.1 12 159.4 12.5 238.4 0 3.2-.5 1.8-5.3-1.3-4.8-78.1 12.4-157.7 11.8-235.8 0-3.1-.5-4.5 4.3-1.3 4.8M119.3 368.9c68.1 9.4 137 12 205.5 6.4 18.9-1.5 37.8-3.7 56.6-6.4 3.2-.5 1.8-5.3-1.3-4.8-66.3 9.6-133.5 11.5-200.2 6.4-19.8-1.5-39.6-3.7-59.2-6.4-3.2-.4-4.5 4.4-1.4 4.8"/><path fill="#ffdb53" d="M277.3 270.5s-3 13.5 3.8 32.4 3.3 34.4 8 44.9 25.5 13.8 39.3 14 26 .8 34 6 28 16 32.5 9.3 8-28.3 0-48-11.8-36.7-12.3-49.2-4.8-39.2-16.6-39.2-35.6 16-49.6 18-34.9 2.9-39.1 11.8M221.9 270.5s3 13.5-3.8 32.4-3.3 34.4-8 44.9-25.5 13.8-39.3 14-26 .8-34 6-28 16-32.5 9.3-8-28.3 0-48 11.8-36.7 12.3-49.2 4.8-39.2 16.6-39.2 35.6 16 49.6 18 34.8 2.9 39.1 11.8"/><path fill="#e29542" d="M380.8 268.3s-21.5 3.5-37.8 11.5-34.7 5.7-36.2 9.7.7 32.3 5.2 42.5 7.5 11.5 18.3 10.3 32.6 7.5 39.2 10.8 25.6 1.3 30.1-1M120 268.3s21.5 3.5 37.7 11.5c16.3 8 34.7 5.7 36.2 9.7s-.7 32.3-5.2 42.5-7.5 11.5-18.3 10.3-32.6 7.5-39.2 10.8-25.6 1.3-30.1-1"/><path d="M274.8 269.8c-2.9 13.4 2 26.4 5.4 39.1 2.6 9.4 2.6 18.9 3.7 28.5.7 6 1.9 12.3 6.6 16.6 10.9 10.1 29.1 10 43 10.4 9.3.3 19.3.6 27.4 5.5 5.7 3.4 11.4 6.7 17.6 9.2 4.5 1.8 11.3 4.2 15.9 1.5 4.3-2.5 5.5-9.3 6.4-13.7 1.6-8.5 1.4-17.2-.1-25.7-1.9-10.5-6.8-20.2-9.9-30.4-2.7-8.9-4.9-18-5.6-27.3-.5-6.5-.9-12.8-2.1-19.2-1.7-9.1-5.6-26.3-17.7-26.1-7.3.1-14.6 3.9-21 6.8-8.2 3.7-16.4 8.2-25.2 10.5-8.5 2.2-17.5 2.2-26.1 4-6.6 1.4-14.6 3.5-18 9.9-1.5 2.8 2.8 5.4 4.3 2.5 3-5.6 11.3-6.9 17-8 6.9-1.3 14-1.7 21-2.9 13.2-2.3 25.1-10.3 37.5-15.1 4.4-1.7 10.8-4.6 15-1.1 4.4 3.7 6.2 10.7 7.5 16.1 3 12.2 2.5 24.8 5.1 37 1.8 8.7 4.4 17.2 7.5 25.5 3.4 9.1 6.6 17.7 7.1 27.6.3 7.1-.1 14.6-2.6 21.2-.8 2.2-1.4 4.1-3.9 4.5-2.7.4-5.8-.7-8.3-1.6-6-2.1-11.8-5.2-17.2-8.5-5.7-3.5-11.4-5.4-18-6.2-15-2-30.4.1-44.8-5.4-7.8-2.9-11.7-7.5-12.9-15.7-1.3-8.5-1.2-17.1-2.8-25.6-2.6-14-9.9-27.8-6.8-42.5.5-3.2-4.3-4.5-5-1.4"/><path d="M379.1 265.8c-5.9 1-11.7 2.4-17.4 4-10.3 2.9-19.6 8.2-29.9 11.1-5 1.4-10.2 2.2-15.4 2.9-3.2.4-6.9.6-9.9 1.9-4.3 2-3.8 6.7-3.7 10.8.2 7.9 1.1 15.8 2.5 23.6 1.2 6.9 3 14.2 7.3 19.9 4.3 5.6 10.2 5.1 16.6 4.7 8.6-.6 17.4 2.4 25.5 5.3 7.2 2.6 13.7 6.5 21.4 7.1 7.5.5 16.7.2 23.6-2.9 2.9-1.3.4-5.6-2.5-4.3-5.8 2.6-13.7 2.6-19.9 2.3s-11-3-16.7-5.2c-7.2-2.8-14.6-5.3-22.2-6.6-2.9-.5-5.8-.8-8.7-.6-3.2.2-7.2 1.2-10.3-.3-5.4-2.5-7.3-11.3-8.5-16.5-1.6-7.1-2.4-14.4-2.9-21.6-.2-2.7-.3-5.4-.2-8.1s-.1-2.7 2.4-3.3c7.8-2 15.9-2 23.7-4.3 10.2-3 19.5-8.2 29.7-11.1 5.5-1.5 11.1-2.9 16.8-3.8 3.2-.7 1.8-5.5-1.3-5M219.5 271.2c2.6 12.1-1.9 24.1-5.2 35.5-2.2 7.8-3 15.9-3.6 23.9-.5 6.2-.4 14.3-4.9 19.1-4.6 4.9-12.2 6.7-18.5 7.9-7.8 1.5-15.5 1.5-23.4 1.8-7.3.3-14.9.7-21.8 3.1-5.6 1.9-10.3 5.7-15.5 8.4-4.9 2.5-11.6 6.3-17.3 5.7-5-.4-5.8-9.2-6.4-13.1-1.3-8.7-.7-17.7 1.5-26.2 2.4-9.2 6.6-17.9 9.3-27 2.2-7.6 4-15.3 4.9-23.1.7-5.9.7-11.8 1.6-17.7 1.2-8 3.9-28.1 15.5-26.4 14.8 2.2 27.6 12.5 41.9 16.6 7.2 2.1 15 2.2 22.4 3.4 6.3 1 16.4 2.2 19.8 8.5 1.5 2.8 5.9.3 4.3-2.5-2.9-5.4-9.1-7.7-14.8-9.1-7.8-2-15.9-2.7-23.9-3.8-15.4-2.1-28.6-11.8-43.2-16.6-4.9-1.6-10.4-2.9-15 .2-4.5 3.1-6.9 8.7-8.6 13.7-4.7 13.9-3.8 28.6-6.7 42.8-4.1 19.8-15 37.9-14.8 58.4.1 9.4.9 28.1 14.3 26.7 14.4-1.5 24.8-13.4 38.8-15.9 16.8-3 34 .2 50.2-6.7 6.7-2.8 11.5-7.1 13.5-14.3 2.5-9.1 1.8-18.8 3.3-28 2.6-15.6 10.6-30.5 7.1-46.8-.7-3-5.5-1.7-4.8 1.5"/><path d="M118.7 270.7c14.2 2.3 27.2 7.1 40.3 12.7 8.1 3.4 16.7 4.6 25.4 5.8 1.4.2 5.9.4 6.7 1.5.6.8.2 4.7.2 6.1-.1 7.2-.9 14.5-2.2 21.6-1.1 6.3-2.5 13.2-6.4 18.5-4.2 5.6-11.5 2.6-17.4 3-7.4.5-14.7 2.8-21.7 5.3-6.1 2.2-12.4 6.1-18.8 6.9-6.9.9-16.5.8-23-2.1-2.9-1.3-5.5 3-2.5 4.3 6.3 2.8 14.4 3.2 21.2 3 6.9-.1 11.9-2.5 18.2-5 8.3-3.3 17.2-6.6 26.1-7.4 6.2-.6 13.2 2.1 18.8-1.8 5.2-3.6 7.6-11.2 9.1-17.1 1.9-7.8 2.9-16 3.4-24 .3-3.8 1.6-11.2-1.1-14.5-1.4-1.7-4-2.2-6-2.6-4.6-.9-9.2-1.2-13.8-2.1-12.2-2.2-22.9-8.5-34.8-12.1-6.6-2-13.4-3.7-20.3-4.8-3.2-.6-4.6 4.2-1.4 4.8"/><path fill="#fff" d="m224.4 219.1 53.8-8.8s-1.9 23.4-22.9 27.7c-21 4.2-30.9-18.9-30.9-18.9"/><path d="M225.1 221.5c17.9-2.9 35.9-5.9 53.8-8.8-1.1-.8-2.1-1.6-3.2-2.4-1 11.1-8.8 22.5-20.4 25.1-12.7 2.8-23.8-6.4-28.7-17.6-1.3-2.9-5.6-.4-4.3 2.5 5.8 13.3 19.5 23.2 34.3 19.9 13.8-3.1 22.9-16.3 24.1-30 .2-1.8-1.7-2.6-3.2-2.4-17.9 2.9-35.9 5.9-53.8 8.8-3.1.6-1.7 5.4 1.4 4.9"/><path fill="#fff" d="m230.1 228.5 17-2.5"/><path d="M230.5 229.9c5.7-.8 11.3-1.7 17-2.5 1.9-.3 1.1-3.2-.8-2.9-5.7.8-11.3 1.7-17 2.5-1.9.3-1.1 3.2.8 2.9"/><path fill="#fff" d="m262.1 223.5 13-2.5"/><path d="M262.5 224.9c4.3-.8 8.7-1.7 13-2.5 1.9-.4 1.1-3.3-.8-2.9-4.3.8-8.7 1.7-13 2.5-1.9.4-1.1 3.3.8 2.9"/><circle cx="278.4" cy="238.9" r="3.6" fill="#ffdb53"/><path d="M280.5 238.9c-.1 2.7-4.3 2.7-4.3 0 .1-2.8 4.2-2.7 4.3 0 .1 1.9 3.1 1.9 3 0-.1-2.8-2.2-5.1-5.1-5.1-2.8 0-5.1 2.3-5.1 5.1 0 2.7 2.2 5 4.9 5.1 3 .1 5.2-2.3 5.3-5.1.1-2-2.9-1.9-3 0M142.2 325c-.2 6-2.3 12.3-6.4 16.7-2.2 2.4 1.4 5.9 3.5 3.5 4.9-5.4 7.6-12.9 7.8-20.3.2-3.1-4.8-3.1-4.9.1M128.9 285.5c5 3.3 9.2 8.5 10.8 14.3.9 3.1 5.7 1.8 4.8-1.3-2-7-7-13.3-13.1-17.3-2.6-1.8-5.2 2.6-2.5 4.3"/><circle cx="285.4" cy="224.9" r="3.6" fill="#ffdb53"/><path d="M287.5 224.9c-.1 2.7-4.3 2.7-4.3 0 .1-2.8 4.2-2.7 4.3 0 .1 1.9 3.1 1.9 3 0-.1-2.8-2.2-5.1-5.1-5.1-2.8 0-5.1 2.3-5.1 5.1 0 2.7 2.2 5 4.9 5.1 3 .1 5.2-2.3 5.3-5.1.1-2-2.9-1.9-3 0"/><path fill="#ffdb53" d="M71.4 342.2c15.5 8.4 43.1 5.9 71.4-6.7 0 0 13-28.5-6-45.8 0 0-18.8.3-31.3 3.5"/><path d="M70.1 344.3c11.1 5.7 24.1 6 36.2 4.4 7.8-1 15.4-2.8 22.8-5.3 3.7-1.2 7.4-2.6 11-4.1 1.8-.7 3.7-1.2 4.9-2.8 1.3-1.8 1.9-4.9 2.4-6.9 1.2-4.3 1.9-8.8 2.1-13.3.2-5.3-.5-10.8-2.4-15.8-1.5-4-5.1-11.4-9.4-13.1-3-1.2-8.2 0-11.3.3-7.3.5-14.5 1.4-21.6 3.1-3.1.8-1.8 5.6 1.3 4.8 7.1-1.7 14.3-2.5 21.5-3q3.45-.3 6.9-.3c.4 0 1.5-.2 1.9-.1-.7-.3.3.8.5 1.3 1.6 3.1 4.2 5.5 5.5 8.9 1.2 3.2 1.8 6.5 2 9.9.3 5-.4 9.9-1.6 14.7-.5 1.9-1.3 5.8-2.3 7-.5.6-4.4 1.5-5.8 2-2.1.8-4.1 1.5-6.2 2.3-4.3 1.4-8.6 2.7-13 3.7-13.7 3.1-30 4.7-43-2-2.7-1.5-5.3 2.8-2.4 4.3"/><path d="M71.3 295.6c5.4-2.2 11.1-4.1 16.8-5.5 6.9-1.7 19.4-5 24.6 1.7 2 2.5 5.5-1 3.5-3.5-5.7-7.3-17.6-5.5-25.4-3.9-7.1 1.4-14.2 3.6-20.9 6.4-2.8 1.2-1.5 6 1.4 4.8"/><path fill="#ffdb53" d="M315 57.4s12.3-10.5 9.8-16.9-73-1.8-96 5.5-53.9 51.6-53.9 51.6l174.1 3.8c-20.5-32-36.6-41.7-36.6-41.7z"/><path d="M88.9 275.3c7.3-5 19-9.7 26.9-3.6 2.5 2 6.1-1.6 3.5-3.5-9.9-7.7-23.5-3.8-33 2.8-2.5 1.8 0 6.2 2.6 4.3M302.2 55c17.1 12.4 31.2 30.1 42.6 47.6 1.7 2.7 6.1.2 4.3-2.5-11.9-18.3-26.6-36.5-44.4-49.4-2.5-1.9-5 2.4-2.5 4.3M421.4 282.6c-.9-20.3-12.5-40.5-27.7-53.4-2.4-2.1-6 1.5-3.5 3.5 14.3 12 25.4 30.8 26.3 49.9 0 3.2 5 3.2 4.9 0"/><path d="M175 98.8c5.4-7.7 11.3-15.1 17.6-22.1C202 66 213.4 53 227.4 48.4c12.4-4.1 26.1-5.3 39-6.5 14.1-1.4 28.3-2.4 42.5-1.8 2.3.1 10.4-.2 11.7 1.7 2.2 3.1-6.9 11.7-9.4 13.9-2.4 2.1 1.1 5.6 3.5 3.5 5.1-4.4 17.9-19.2 5.8-22.7-4.8-1.4-10.3-1.4-15.3-1.5-7.8-.1-15.7.2-23.5.7-16.1 1-32.4 2.5-48.2 6-15.2 3.3-26.6 12.6-37.3 23.6-9.4 9.6-18 20.1-25.7 31.1-1.7 2.5 2.7 5 4.5 2.4M454.6 245.1c-6.7-16.9-22.1-30.2-38.8-36.6-3-1.2-4.3 3.7-1.3 4.8 10.9 4.2 20.5 11.4 27.6 20.6 2.2 2.9 4.2 5.9 5.9 9.1.5.9.9 1.7 1.3 2.6.2.4.6 1.3.4.8 1.3 2.9 6.1 1.6 4.9-1.3"/><path fill="#875222" d="M365 196c-20.2-38.7-49.5-59-49.5-59-26.2-5.8-134 1.5-134 1.5-28 18-47.5 59-47.5 59s1.4-36.8 27.1-68.3c0 0 110.5-33.1 182.9 5.8 0 0 10.6 11.2 16.3 33.2S365 196 365 196"/><path d="M367.2 194.7c-11.7-22.1-27.9-42.5-47.7-57.9-4.2-3.2-9-3.3-14.2-3.7-9.6-.8-19.2-.9-28.7-.8-22.3 0-44.6.9-66.8 2.1-7.6.4-15.1.8-22.7 1.3-1.6.1-3.3 0-4.8.3-3.4.6-6.2 3.4-8.9 5.5-17.6 14.1-31.7 34.5-41.3 54.8 1.6.4 3.1.8 4.7 1.3.8-20.2 9-41.2 20-57.8 1.8-2.7 3.6-6.9 6.3-8.3 1.5-.8 3.6-1 5.2-1.4 7-1.8 14-3.3 21.1-4.7 23.7-4.6 47.9-7.1 72-6.6 14 .3 28.1 1.6 41.8 4.5 6.9 1.5 13.7 3.3 20.4 5.6 3.3 1.2 6.6 2.4 9.9 3.8 2.8 1.2 6.6 2.4 9 4.2 2.5 1.9 4.3 5.7 5.9 8.3 4.3 7.1 7.4 14.9 9.6 22.9 2 7.2 3.8 14.6 4.6 22 .2 1.4.3 2.9.3 4.3 0 .4-.2 2.2 0 1-.5 3.1 4.3 4.5 4.8 1.3 1-6.6-1.2-14.3-2.7-20.6-3.1-13.9-7.7-27.7-16.3-39.3-2.2-2.9-3.6-4.1-7-5.8-6.7-3.3-13.7-6.1-20.8-8.3-14.1-4.5-28.8-7-43.5-8.2-26.9-2.2-54-.1-80.6 4.4q-13.35 2.25-26.4 5.4c-3.1.7-7.3 1.1-10.1 2.7-3.2 1.8-5.9 7.2-7.9 10.2-2.7 4.1-5.1 8.3-7.3 12.7-3.7 7.3-6.6 15-8.9 22.9-2.3 8-4.1 16.4-4.5 24.7-.1 2.4 3.6 3.5 4.7 1.3 8-16.7 18.9-32.8 31.9-45.9 2.3-2.3 4.6-4.5 7.1-6.5 1.6-1.4 4.9-4.7 6.4-5.3.9-.3 2.3-.2 3.3-.2 6.2-.4 12.4-.8 18.6-1.1 20.9-1.1 41.8-2 62.7-2.3 10-.1 20-.2 30 .2 5.2.2 13.9-.3 18.3 1.7 2.2 1 4.3 3.3 6.2 4.9 4.1 3.5 8.1 7.3 11.9 11.2 12 12.4 22.2 26.5 30.3 41.8 1.2 2.8 5.6.3 4.1-2.6"/><path fill="#ffd13e" d="M164.8 101.8s-16.8 9-17 21-12.3 22.2-14.5 30.3c-2.3 8.2 1 22.4 5.8 18.7s7.5-19.8 36.5-23 124.1-9.3 150.7-1.4 31.5 13.1 36.6 24.4 17.5-7.1 16-12.9-11.4-20.1-10.9-30.9-6-24.8-34.3-30.3-106.2 1.3-117.7 0-42.1-2.6-51.2 4.1"/><path d="M163.5 99.6c-7.1 3.9-14.6 10.2-17.3 18-1 3-.8 6.2-1.5 9.2-.9 3.6-2.8 6.9-4.8 10.1-3.1 5-7.4 9.7-9 15.5-1.3 4.7-1.5 25.6 8.2 22.1 2.4-.9 3.9-3.5 5.3-5.5 2-3 4.1-5.9 6.9-8.4 8.7-7.7 20.6-9.1 31.7-10.2 9.9-.9 19.9-1.7 29.8-2.3 24.7-1.6 49.6-2.6 74.4-2.2 21 .4 42.9 1.7 61.5 12.6 3.6 2.1 6.7 4.8 8.9 8.4 2 3.2 3 7.8 6.3 9.8 7.5 4.5 15-7.3 16.8-13 1.4-4.4 0-7.6-1.9-11.6-3-6.4-6.7-12.8-7.9-19.8-.8-4.3-.1-8.6-1.4-12.9-1.2-3.9-3.3-7.4-6.1-10.4-15-16.3-42.1-16-62.5-16.1-23.3-.1-46.5 1.3-69.7 2.1-18.2.6-36.5-2.5-54.6.2-4.5.8-9.3 1.8-13.1 4.4-2.6 1.8-.1 6.1 2.5 4.3 8.3-5.6 21.6-4.8 31.2-4.7 7.6.1 15.2 1.1 22.9 1.2 18.7.1 37.4-1.5 56-2 20.5-.6 42.8-2.2 62.8 3.1 9.9 2.6 21.3 7.7 25.2 18 1.4 3.7 1.1 7.2 1.4 11.1.4 5.8 2.8 11.4 5.2 16.6 1.8 3.9 6.1 9.5 5.5 13.9-.5 3.8-3.9 9.2-7.2 11.1-3.9 2.1-5-3.9-6.6-6.6-1.8-3-4-5.8-6.8-8-8.3-6.7-19.8-10.2-30-12.9-7.2-1.9-14.9-2.5-22.3-2.9-22.3-1.4-44.7-.7-66.9.3-19.4.9-38.7 2-58 4-10.2 1.1-20.4 3.1-28.7 9.5-3 2.3-5.4 5-7.6 8-.8 1-3 5.8-4.3 6.1-2.8.5-2.8-11.8-2.5-13.8.9-5.9 5.4-10.8 8.5-15.7 3.3-5.2 5.8-10.4 6.4-16.6.6-6 3.8-10.4 8.3-14.3 2.3-2 4.8-3.8 7.5-5.3 2.8-1.6.3-6-2.5-4.4"/><path d="M145.4 128.7c.1.6.6 1 1.1 1.1 1.8.6 5.3-2.9 6.7-3.6 7.4-4 15.9-5.1 24.2-4.9 1.9 0 1.9-3 0-3-7.5-.2-15.1.7-22.1 3.6-2.1.9-4.1 1.9-6.1 3.2-.5.3-1.5.8-1.9 1.3-.1.2-.6.3-.7.5-.1 0-.1.1-.2.1-.7.4-.1.7 1.8 1-.3-2-3.2-1.2-2.8.7M344.7 133c-.4.7-.2 1.3.2 1.9 1.1 1.4 5.7 1.2 7.3 1.7 8.1 2.2 15 7 20.9 12.8 1.4 1.4 3.5-.8 2.1-2.1-5.5-5.3-11.6-9.9-18.8-12.5-2.2-.8-4.5-1.4-6.8-1.8-.6-.1-1.5-.4-2.1-.3-.8.1-1.1-.6-.5.1.1.6.2 1.2.2 1.8v-.1c1.1-1.7-1.5-3.2-2.5-1.5"/></g><g><g><path fill="#1e2120" d="m256.8 135.1-6.8-33 17.3 33z"/><path d="M258.2 134.7c-2.3-11-4.5-22-6.8-33l-2.7 1.2c5.8 11 11.6 22 17.3 33 .4-.8.9-1.5 1.3-2.3h-10.6c-1.9 0-1.9 3 0 3h10.6c1.2 0 1.8-1.3 1.3-2.3-5.8-11-11.6-22-17.3-33-.8-1.6-3.1-.4-2.7 1.2 2.3 11 4.5 22 6.8 33 .3 1.9 3.2 1.1 2.8-.8"/><path fill="#575958" d="m250 168.1 6.8-33h10.5z"/><path d="M251.4 168.5c2.3-11 4.5-22 6.8-33-.5.4-1 .7-1.4 1.1h10.6c-.4-.8-.9-1.5-1.3-2.3-5.8 11-11.6 22-17.3 33-.9 1.7 1.7 3.2 2.6 1.5 5.8-11 11.6-22 17.3-33 .5-1-.1-2.3-1.3-2.3h-10.6c-.6 0-1.3.5-1.4 1.1-2.3 11-4.5 22-6.8 33-.4 2 2.4 2.8 2.8.9"/><path fill="#ffd140" d="m232.7 135.1 17.3-33 6.8 33z"/><path d="M234 135.8c5.8-11 11.6-22 17.3-33-.9-.1-1.8-.2-2.7-.4 2.2 11 4.5 22 6.7 33 .5-.6 1-1.3 1.4-1.9h-24.1c-1.9 0-1.9 3 0 3h24.1c1 0 1.6-1 1.4-1.9-2.2-11-4.5-22-6.7-33-.3-1.3-2.2-1.5-2.7-.4-5.8 11-11.6 22-17.3 33-.9 1.8 1.7 3.4 2.6 1.6"/><path fill="#ffe197" d="m250 168.1-17.3-33h24.1z"/><path d="M251.3 167.3c-5.8-11-11.6-22-17.3-33-.4.8-.9 1.5-1.3 2.3h24.1c-.5-.6-1-1.3-1.4-1.9-2.2 11-4.5 22-6.7 33-.4 1.9 2.5 2.7 2.9.8 2.2-11 4.5-22 6.7-33 .2-.9-.4-1.9-1.4-1.9h-24.1c-1.2 0-1.8 1.3-1.3 2.3 5.8 11 11.6 22 17.3 33 .8 1.7 3.4.1 2.5-1.6"/></g></g></svg>