<svg xmlns="http://www.w3.org/2000/svg" xml:space="preserve" viewBox="0 0 500 500"><g><path fill="#fff" d="M150.3 324.9c-10.1 8.6-25.2 7.5-33.8-2.6l-74.3-86.5c-8.6-10.1-7.5-25.2 2.6-33.8s25.2-7.5 33.8 2.6l74.3 86.5c8.6 10.1 7.4 25.2-2.6 33.8"/><path d="M148.5 323.2c-7.3 6.3-18.2 6.6-26.1 1.3-2.5-1.7-4.4-4.1-6.4-6.3-6.5-7.5-12.9-15-19.4-22.6-9.3-10.8-18.5-21.6-27.8-32.4-7.1-8.3-14.2-16.5-21.3-24.8l-3.6-4.2c-5.9-6.9-6.7-17.2-2-25 4.9-8.2 15-12.2 24.2-9.6 4.2 1.2 7.8 3.6 10.7 6.9.4.4.7.8 1.1 1.2 5.8 6.8 11.6 13.5 17.4 20.3l27.6 32.1c7.6 8.8 15.2 17.7 22.8 26.5 1.7 2 3.4 3.9 5.1 5.9 4.5 5.2 6.4 12.3 4.8 19-1.1 4.6-3.5 8.6-7.1 11.7-1 .9-.9 2.6 0 3.5 1 1 2.5.9 3.5 0 8.1-7.1 11.3-18.9 7.5-29.1-1.5-4-4-7.2-6.7-10.4-6.5-7.6-13.1-15.2-19.6-22.8-9.5-11-19-22.1-28.4-33.1-7.1-8.3-14.2-16.6-21.4-24.9-1.5-1.7-2.9-3.6-4.5-5.1-7.8-7.6-19.6-9.5-29.5-5.1-9.8 4.4-16.2 14.9-15.5 25.6.3 5.5 2.4 10.7 5.8 15l1.5 1.8c5.8 6.8 11.6 13.5 17.4 20.3 9.4 10.9 18.8 21.9 28.2 32.8 7.7 9 15.4 17.9 23.1 26.9 1.6 1.8 3.1 3.6 4.7 5.4 5.8 6.8 14.8 10.2 23.6 9 5.2-.7 9.9-2.9 13.9-6.3 1-.9.9-2.6 0-3.5-1.1-1-2.6-.9-3.6 0"/><path fill="#cfb6ff" d="M93.4 221.9c10.6 1.8 36.8 40 59.1 68.7 8.9 10.3 7.9 25.7-2.2 34.3s-25.4 7.3-34.2-3c-24.8-26-59.7-58.4-58.8-68.5z"/><path d="M92.7 224.3c.4.1.7.2 1.1.3.1 0 .2.1.3.1.3.1-.6-.3-.1-.1.2.1.5.2.7.3 1 .5 1.9 1.2 2.8 1.8-.4-.3.2.1.3.2.3.2.6.5.8.7.6.5 1.1 1 1.6 1.5 1.2 1.1 2.3 2.2 3.4 3.4 5.9 6.1 11.1 12.7 16.3 19.3 6.2 7.9 12.2 16 18.2 24 3.1 4.1 6.1 8.2 9.2 12.2 2.8 3.6 5.9 7 7.4 11.4 2.6 7.8.9 16.6-5 22.4-5.8 5.8-14.5 7.6-22.2 4.9-4.2-1.4-7.2-4-10.2-7.2L107.1 309c-7-7.1-14-14.2-21-21.4-6-6.3-12.1-12.6-17.6-19.3-2.1-2.6-3.9-4.8-5.8-7.7-.7-1.1-1.4-2.2-2-3.3l-.3-.6c-.1-.1-.4-1-.2-.3-.2-.4-.3-.9-.5-1.4-.1-.2-.1-.4-.2-.6 0-.1-.1-.8-.1-.3.1.5 0-.1 0-.3v-.5c-.2.6-.5 1.2-.7 1.8 4.1-3.6 8.2-7.1 12.3-10.7 6.5-5.7 13-11.3 19.4-17l4.5-3.9c1-.9.9-2.6 0-3.5-1-1-2.5-.9-3.5 0-3.7 3.3-7.5 6.5-11.2 9.8l-18.9 16.5c-1.8 1.6-3.6 3.2-5.5 4.8-.8.7-1.3 1.3-1.3 2.5-.1 1.4.3 2.8.8 4 1.5 3.7 3.8 7 6.3 10.2 3.5 4.5 7.2 8.8 11 13 9.4 10.2 19.2 20 28.9 29.9 2.5 2.5 4.9 5 7.4 7.5 2.4 2.4 4.6 5 7.1 7.4 4.7 4.4 10.9 7.1 17.4 7.4 12.9.7 24.9-8.7 27-21.5 1.1-6.4-.1-13-3.3-18.5-1.7-2.9-4-5.4-6-8.1-2.2-2.9-4.4-5.9-6.6-8.8-8.6-11.4-17.1-22.9-26.1-34.1-3.6-4.5-7.3-8.9-11.3-13-2.8-2.9-5.9-5.9-9.4-8.1-1.2-.7-2.5-1.3-3.8-1.6-1.3-.2-2.7.4-3.1 1.7-.1 1.5.6 3.1 1.9 3.3"/><path fill="#a185d6" d="m49.981 248.37 39.215-33.688 7.167 8.343-39.214 33.688z"/><path d="M94.6 221.2c-4.4 3.8-8.9 7.6-13.3 11.4-7 6-14 12.1-21.1 18.1-1.6 1.4-3.2 2.8-4.9 4.2h3.5c-2.4-2.8-4.8-5.6-7.2-8.3v3.5c4.4-3.8 8.9-7.6 13.3-11.4 7-6 14-12.1 21.1-18.1 1.6-1.4 3.2-2.8 4.9-4.2h-3.5c2.4 2.8 4.8 5.6 7.2 8.3.9 1 2.6.9 3.5 0 1-1 .9-2.5 0-3.5-2.4-2.8-4.8-5.6-7.2-8.3-.9-1.1-2.6-.8-3.5 0-4.4 3.8-8.9 7.6-13.3 11.4-7 6-14 12.1-21.1 18.1-1.6 1.4-3.2 2.8-4.9 4.2-1.1.9-.8 2.6 0 3.5 2.4 2.8 4.8 5.6 7.2 8.3.9 1.1 2.6.8 3.5 0 4.4-3.8 8.9-7.6 13.3-11.4 7-6 14-12.1 21.1-18.1 1.6-1.4 3.2-2.8 4.9-4.2 1-.9.9-2.6 0-3.5-1-1-2.5-.9-3.5 0"/><path fill="#fff" d="M331.7 258.6c7-11.2 21.8-14.6 33.1-7.6l96.6 60.5c11.2 7 14.6 21.8 7.6 33.1-7 11.2-21.8 14.6-33.1 7.6l-96.6-60.5c-11.2-7-14.6-21.8-7.6-33.1"/><path d="M333.9 259.9c5-8 14.9-11.8 24-9.2 3.1.9 5.7 2.6 8.4 4.2 8.4 5.3 16.9 10.6 25.3 15.8 12.1 7.6 24.1 15.1 36.2 22.7 9.3 5.8 18.6 11.6 27.8 17.4 1.5 1 3 1.9 4.6 2.9 7.7 4.9 11.6 14.4 9.4 23.3-2.3 9.2-10.5 16-19.9 16.4-4.4.2-8.7-1-12.5-3.3-.4-.3-.9-.5-1.3-.8-7.6-4.7-15.1-9.5-22.7-14.2l-36-22.5c-9.9-6.2-19.8-12.4-29.8-18.6-2.2-1.4-4.4-2.7-6.6-4.1-5.8-3.6-9.8-9.7-10.3-16.6-.2-4.8.9-9.4 3.4-13.4 1.7-2.7-2.6-5.3-4.3-2.5-5.6 9-5.3 21 1.1 29.6 2.6 3.5 6 6 9.7 8.3 8.5 5.3 17 10.6 25.4 15.9 12.4 7.8 24.8 15.5 37.2 23.3 9.3 5.8 18.6 11.6 27.9 17.5 2 1.2 4 2.6 6.1 3.6 9.7 4.8 21.4 3.2 29.5-3.9 7.9-7 10.9-18.7 7.3-28.6-2.2-6.1-6.4-10.8-11.9-14.2l-22.5-14.1-36.9-23.1c-10-6.3-20.1-12.6-30.1-18.9-2-1.2-4-2.5-6-3.7-7.7-4.8-17.2-5.3-25.4-1.5-4.6 2.1-8.5 5.7-11.2 10-1.9 2.5 2.4 5 4.1 2.3"/><path fill="#cfb6ff" d="M416.7 340.1c-10.7 1.4-47.1-27.2-76.8-48.1-11.5-7.2-15.1-22.2-8.1-33.4s22.1-14.5 33.6-7.3c31.4 17.5 74.4 38 76.5 47.9z"/><path d="M416.7 337.6c-.4 0-.7.1-1.1 0-.2 0-.5 0-.7-.1h-.2c-1.1-.2-2.2-.5-3.2-.9l-.9-.3c-.1-.1-1-.4-.5-.2-.7-.3-1.4-.6-2.1-1-1.5-.7-2.9-1.5-4.4-2.3-7.4-4.1-14.5-8.9-21.4-13.7-8.4-5.8-16.6-11.8-24.9-17.8-4.2-3-8.4-6.1-12.6-9-3.6-2.5-7.3-4.8-9.9-8.4-4.6-6.5-5.6-15.1-1.9-22.3 3.7-7.3 11.3-11.8 19.4-11.7 4.3 0 8.1 1.4 11.8 3.5 4.2 2.4 8.5 4.7 12.8 7 8.9 4.8 17.8 9.5 26.6 14.3 7.7 4.2 15.5 8.6 22.9 13.4 1.5 1 3 2 4.4 3s2.1 1.6 3.3 2.5c1 .8 2 1.7 2.9 2.6.4.4.7.8 1.1 1.2.1.1.6.8.2.2.1.2.3.4.4.6.2.4.4.7.6 1.1.3.4-.1-.6 0 0 0 .2.1.4.1.5.1-.6.2-1.3.3-1.9-2.8 4.6-5.7 9.2-8.5 13.9-4.5 7.3-9 14.6-13.5 22-1 1.7-2.1 3.4-3.1 5.1-1.7 2.7 2.6 5.3 4.3 2.5 2.6-4.3 5.2-8.5 7.9-12.8 4.4-7.2 8.8-14.3 13.2-21.5 1.2-2 2.5-4.1 3.7-6.1.6-.9.8-1.8.5-2.9-.4-1.5-1.4-2.8-2.3-4-2.5-3.1-5.9-5.5-9.1-7.8-4.6-3.3-9.5-6.2-14.4-9-12.1-7-24.5-13.5-36.8-20.1-3.1-1.7-6.2-3.3-9.2-5-2.9-1.6-5.8-3.5-8.8-4.8-5.9-2.6-12.5-3.2-18.7-1.5-12.4 3.5-20.5 15.8-18.8 28.6.8 6.2 3.8 12 8.3 16.2 2.5 2.3 5.5 4.1 8.3 6.1 3 2.1 6 4.3 8.9 6.4 11.6 8.3 23 16.8 34.8 24.7 4.8 3.2 9.7 6.4 14.8 9.2 3.6 2 7.4 4 11.4 5 1.4.3 2.8.6 4.2.4 1.3-.2 2.5-1 2.5-2.5-.1-1.1-1.3-2.5-2.6-2.4"/><path fill="#a185d6" d="m413.556 339.948 27.432-43.821 9.323 5.836-27.432 43.821z"/><path d="M415.7 341.2c3.1-4.9 6.2-9.9 9.3-14.8 4.9-7.8 9.8-15.7 14.7-23.5 1.1-1.8 2.3-3.6 3.4-5.4-1.1.3-2.3.6-3.4.9 3.1 1.9 6.2 3.9 9.3 5.8-.3-1.1-.6-2.3-.9-3.4-3.1 4.9-6.2 9.9-9.3 14.8-4.9 7.8-9.8 15.7-14.7 23.5-1.1 1.8-2.3 3.6-3.4 5.4 1.1-.3 2.3-.6 3.4-.9-3.1-1.9-6.2-3.9-9.3-5.8-2.7-1.7-5.2 2.6-2.5 4.3 3.1 1.9 6.2 3.9 9.3 5.8 1.2.7 2.7.2 3.4-.9 3.1-4.9 6.2-9.9 9.3-14.8 4.9-7.8 9.8-15.7 14.7-23.5 1.1-1.8 2.3-3.6 3.4-5.4.7-1.2.2-2.7-.9-3.4-3.1-1.9-6.2-3.9-9.3-5.8-1.2-.7-2.7-.2-3.4.9-3.1 4.9-6.2 9.9-9.3 14.8-4.9 7.8-9.8 15.7-14.7 23.5-1.1 1.8-2.3 3.6-3.4 5.4-1.7 2.7 2.6 5.3 4.3 2.5"/><path fill="#cfb6ff" d="M144.5 88.2s33.9-10.5 63.2-13 66.6-1.5 79 0 37.2 5.5 50.5 9.9 32.2 13.2 32.2 13.2l-17.6-20.2s19.9 0 31.4-2.2 21.6-10 18-11.1-25.4 1.1-53-21.7-90.5-28.3-106.7-26.8-66 23.9-97 71.9"/><ellipse cx="245.8" cy="124.3" fill="#cfb6ff" rx="140.2" ry="50.3"/><path d="M383.5 124.3c-.2 13.7-15.4 22.5-26.2 27.8-20.2 9.8-43 14.5-65.1 17.3-27.3 3.4-55.1 3.7-82.4 1.1-23.1-2.2-46.7-6.4-68.3-15.2-12-4.9-29.2-13-32.8-26.9-3.3-13.1 10-23.1 19.8-28.7 18.3-10.4 39.7-15.4 60.2-18.8 27.3-4.4 55.2-5.4 82.7-3.5 26.6 1.8 54 6 78.8 16.1 12.7 5.1 33 14.7 33.3 30.8.1 3.2 5.1 3.2 5 0-.3-14.4-13.7-24.2-25.2-30.3-20.7-11-44.5-16.1-67.5-19.2-29.6-4-59.8-4.4-89.5-1.3-24.2 2.6-48.9 7.2-71.2 17.2-12.4 5.6-28.4 14.6-31.4 29.2-2.8 13.9 8.5 24.7 19.2 31.4 18.7 11.8 41.4 17.3 63 20.9 29.4 4.9 59.5 6 89.2 3.7 25.3-1.9 51.1-6 74.8-15.3 13.7-5.4 31.1-13.5 37-28.2 1.1-2.6 1.6-5.4 1.7-8.2 0-3.1-5-3.1-5.1.1"/><path fill="#fff" d="M381.1 349.2c-.2-6-2.6-18-5.4-31.8l-.1-.5c-3-14.8-6.6-33.2-6.8-41.2-.1-5 .1-12.2.1-19.8v-.4c0-15.6.1-37.1-1.4-51.2-1.2-11.5-5.6-40.7-19.2-62.5-12.6-20.2-27.9-33.2-47.9-41.4-18.4-7.4-52.1-8.3-53-8.3-8.6 0-30.7.7-49.1 8.1-20.1 8.1-35.3 21.3-47.9 41.5-13.6 21.8-17.9 51-19.1 62.5-1.5 14.1-1.4 35.5-1.2 51.2v3.6c0 6.3 0 12.3-.1 16.6-.2 8.1-3.9 26.5-6.9 41.3l-.1.6c-2.7 13.8-5.1 25.7-5.4 31.7-.6 15.4 3.8 25.7 14.9 35.8 7.1 6.4 14 9.5 21.7 9.5 4.1 0 7.8-.8 11.9-1.8 1.1-.3 2.3-.6 3.5-1.1 4 2.2 11.7 5.6 21.7 5.6 6.5 0 14.1-1.4 22.4-5.4 4.8 3.9 9.7 7.5 9.7 7.5 12.9 7.3 24 8.8 25.6 8.8h.4c1.6 0 12.7-.9 26.1-8.8 0 0 4.3-3.1 8.8-6.7 7.7 3.4 14.7 4.6 20.8 4.6 10.9 0 19-3.9 22.7-6.1 1.8.7 3.3 1.3 4.9 1.7 4 1 7.7 1.8 11.8 1.8 7.8 0 14.4-2.9 21.6-9.5 11.3-10.1 15.6-20.5 15-35.9"/><path fill="#8066bf" d="M145.9 160s15.4-1.9 24.9-7.8 21.1-14.8 21.1-14.8l-2.5 13.6s8.9-1.8 21.2-5.6 29.1-20 29.1-20l-79.5 4zM354.8 160s-15.4-1.9-24.9-7.8-21.1-14.8-21.1-14.8l2.5 13.6s-8.9-1.8-21.2-5.6-29.1-20-29.1-20l79.5 4z"/><path fill="#c8c8c8" d="M285.5 389.9s8-6.1 16.8-7c8.8-1 23.8 5.5 23.8 5.5s-4.9 10-14.2 9.8c-9.4-.3-26.4-8.3-26.4-8.3M169.6 389.9s8-6.1 16.8-7 23.8 5.5 23.8 5.5-4.9 10-14.2 9.8-26.4-8.3-26.4-8.3"/><path d="M384.6 351.4c-.2-6.1-2.7-18.4-5.5-32.5l-.1-.5c-3-15.1-6.3-33.9-6.5-42.1-.1-5.1.5-12.5.5-20.3v-.4c0-16-.3-37.9-1.8-52.2-1.2-11.8-5.9-41.6-19.8-63.8-12.9-20.6-28.6-33.9-49.1-42.2-18.8-7.6-53.2-8.4-54.2-8.4-8.8 0-31.4.7-50.1 8.3-20.5 8.3-36 21.7-48.9 42.3-13.9 22.2-18.3 52.1-19.6 63.8-1.5 14.4-1.4 36.3-1.3 52.3v3.7c0 6.5 0 12.5-.1 16.9-.2 8.3-4 27-7 42.1l-.1.6c-2.8 14.1-5.2 26.3-5.5 32.4-.6 15.7 3.8 26.3 15.2 36.6 7.3 6.6 14.3 9.7 22.1 9.7 4.2 0 8-.8 12.1-1.9 1.1-.3 2.3-.7 3.5-1.1 4.1 2.3 11.9 5.7 22.2 5.7 6.7 0 14.4-1.4 22.9-5.5 4.9 4 9.9 7.4 10 7.4 13.2 7.5 24.5 8.7 26.2 8.7h.4c1.7 0 13-.7 26.7-8.7 0 0 4.4-3.1 8.9-6.7 7.8 3.5 15 4.8 21.3 4.8 11.2 0 19.4-4 23.2-6.2 1.8.7 3.4 1.3 5 1.7 4.1 1 7.9 1.9 12.1 1.9 7.9 0 14.7-3 22.1-9.6 11.4-10.5 15.8-21.1 15.2-36.8m-207.4 39.5c6.1-2.6 13.6-5.5 20.1-5.5 4.4 0 7.6 1.3 10.4 4.1l.2.2c-13.1 5.4-23.9 3.7-30.7 1.2m114.5-.5c.3-.3.6-.5.8-.8 2.8-2.8 6-4.2 10.4-4.2 6.1 0 13 2.5 18.9 5-6.4 2.5-17 4.8-30.1 0m72.8-7.8c-6 5.4-11.1 7.8-17.2 7.8-3.4 0-6.6-.7-10.4-1.6-2-.5-4.5-1.6-7.7-3l-.5-.2c-7-3.2-16.7-7.4-25.8-7.4-6.3 0-11.3 2.1-15.6 6.3-11 11.2-21.9 15.7-29.1 17.5-.1 0-7.1 1.9-15.2-.3-8.2-2.3-19.2-6.1-30.1-17.2-4.1-4.2-9.2-6.3-15.6-6.3-9 0-18.6 4.2-25.9 7.4l-.3.1c-3.3 1.4-5.8 2.6-7.9 3.1-3.8.9-7 1.6-10.4 1.6-6 0-11.3-2.4-17.2-7.8-9.8-8.9-13.3-17.3-12.8-30.9.2-5.5 2.6-17.4 5.4-31.2l.1-.6c3.2-16.1 6.9-34.4 7.2-43.4.1-4.5.1-10.6.1-17.1v-3.7c-.1-15.8-.3-37.5 1.2-51.4 1.2-11.3 5.4-39.8 18.5-60.7 12-19.3 26.5-31.8 45.4-39.5 17.6-7.1 39-8.2 47.4-8.2.8 0 33.8.8 51.4 7.9 19 7.7 33.4 20.4 45.5 39.6 13.1 21 18 49.5 19.2 60.8 1.5 14 1.9 35.7 1.9 51.5v.4c0 7.8-.8 15.2-.7 20.4.2 8.9 3.6 27.2 6.8 43.4l-.1.5c2.8 13.8 5.1 25.8 5.3 31.3.5 13.6-3.1 22-12.9 30.9"/><path fill="#fceeff" d="M196.6 270.1s28.2 2.5 56.6 2.9 55.6-3.8 55.6-3.8-28.5 15.1-37.1 20.7-12.5 4.8-12.9 18.9-.3 58.8-.3 58.8l-16.1.7s2.5-64.2 0-69.1-44.5-24.6-45.8-29.1"/><path d="M324.2 191.9c0 10.6-8.6 19.1-19.1 19.1-10.6 0-19.1-8.6-19.1-19.1 0-.9.1-1.8.2-2.6 1.2.8 2.6 1.3 4.1 1.3 4 0 7.2-3.2 7.2-7.2 0-2.9-1.7-5.4-4.1-6.5 3.2-2.5 7.3-4 11.7-4 10.5-.1 19.1 8.5 19.1 19M214.1 191.9c0 10.6-8.6 19.1-19.1 19.1-10.6 0-19.1-8.6-19.1-19.1 0-.9.1-1.8.2-2.6 1.2.8 2.6 1.3 4.1 1.3 4 0 7.2-3.2 7.2-7.2 0-2.9-1.7-5.4-4.1-6.5 3.2-2.5 7.3-4 11.7-4 10.5-.1 19.1 8.5 19.1 19M232.3 224.9c11.2 9.8 26.3 9.7 37.5 0 2.6-2.2-1.2-5.9-3.7-3.7-8.9 7.7-21.1 7.8-30 0-2.6-2.3-6.3 1.5-3.8 3.7"/><ellipse cx="166.4" cy="228.6" fill="#f68694" rx="7.4" ry="3.4" transform="rotate(-44.198 166.406 228.55)"/><ellipse cx="180.5" cy="229.7" fill="#f68694" rx="7.4" ry="3.4" transform="rotate(-44.198 180.46 229.72)"/><ellipse cx="194.5" cy="229.7" fill="#f68694" rx="7.4" ry="3.4" transform="rotate(-44.198 194.513 229.721)"/><ellipse cx="333.9" cy="229.7" fill="#f68694" rx="3.4" ry="7.4" transform="rotate(-45.802 333.888 229.724)"/><path fill="#cfb6ff" d="M153.4 129.2s86.2-5 132.5-5 63.8 5 63.8 5-17.8-45.5-98.2-44.5-98.1 44.5-98.1 44.5"/><ellipse cx="319.8" cy="230.9" fill="#f68694" rx="3.4" ry="7.4" transform="rotate(-45.802 319.834 230.895)"/><ellipse cx="305.8" cy="230.9" fill="#f68694" rx="3.4" ry="7.4" transform="rotate(-45.802 305.78 230.895)"/><path d="M151 132c65.6-6.9 131.7-7 197.2 0 3.2.3 3.2-4.7 0-5-65.6-7-131.7-6.9-197.2 0-3.2.3-3.2 5.3 0 5M298.2 37.3c9.9 8.1 19.6 16.5 29.2 25 7.7 6.8 15.3 13.7 22.7 20.8 5.7 5.6 11.7 11.2 16.4 17.7 1.9 2.6 6.2.1 4.3-2.5-10.6-14.7-25.5-26.9-39-38.8-9.9-8.7-19.9-17.3-30.1-25.7-2.4-2.1-6 1.4-3.5 3.5"/><path d="M144.2 90.7c7.9-11.4 17.5-21.9 27.4-31.6 18.3-17.9 40.4-34.7 65.9-40.2 16-3.4 32.2-.3 48 3 14.1 2.9 28.2 6.9 41.4 12.7 8.6 3.8 16.9 8.4 24.6 13.7 10 6.9 19.2 14.4 31.4 17.1 3.7.8 7.5 1.2 11.2 1.1 1 0 4.6-.3 4.6-.4.1-.3-1.1-1.3-.7-1.3-.1 0-.8 1-.9 1-1.4 1.1-2.7 2.1-4.3 3-13.6 7.3-31.1 6.9-46 5.2-3.2-.4-3.2 4.6 0 5 14.9 1.6 31 1.6 45.1-4.3 3.3-1.4 14-6.4 10.6-11.8-1.9-3-6.8-1.4-9.6-1.4-9.9 0-19.3-3.8-27.4-9.3-7.5-5-14.4-10.7-22.3-15.1C332 30.8 320 26 307.7 22.3c-17.1-5.1-35.8-9.6-53.7-10-28.4-.6-54.4 15.5-75.2 33.5-14.4 12.4-27.9 26.8-38.8 42.4-2 2.6 2.3 5.1 4.2 2.5M284.3 167.2c14-8.8 29.2-7.4 43.5 0 2.9 1.5 5.4-2.8 2.5-4.3-15.9-8.2-33-9.8-48.5 0-2.8 1.7-.3 6 2.5 4.3M219.3 162.8c-15.5-9.8-32.7-8.2-48.5 0-2.9 1.5-.3 5.8 2.5 4.3 14.3-7.4 29.5-8.8 43.5 0 2.7 1.8 5.2-2.5 2.5-4.3"/><path d="M240.1 123.1c.7-.9-.4.5-.6.7-.8.9-1.7 1.9-2.6 2.8-3 3.1-6.3 5.8-9.8 8.3-11.8 8.5-25.6 13.5-40 15.1.8 1.1 1.6 2.1 2.4 3.2l5.4-14.1c1-2.5-2.5-3.9-4.2-2.4-12.7 11.3-29.8 21.2-47 22.5-3.2.2-3.2 5.2 0 5 18.6-1.4 36.8-11.7 50.5-23.9l-4.2-2.4-5.4 14.1c-.5 1.4.9 3.3 2.4 3.2 21.2-2.3 44-12 57.3-29.4 2.1-2.8-2.3-5.3-4.2-2.7M255.6 125.6c13.3 17.4 36.1 27.1 57.3 29.4 1.5.2 3-1.7 2.4-3.2l-5.4-14.1-4.2 2.4c13.7 12.3 31.9 22.6 50.5 23.9 3.2.2 3.2-4.8 0-5-17.2-1.3-34.3-11.1-47-22.5-1.7-1.5-5.1-.1-4.2 2.4l5.4 14.1c.8-1.1 1.6-2.1 2.4-3.2-14.4-1.6-28.2-6.6-40-15.1-3.5-2.5-6.8-5.3-9.8-8.3-.9-.9-1.7-1.8-2.6-2.8-.2-.2-1.3-1.6-.6-.7-1.8-2.4-6.2.1-4.2 2.7"/><path fill="#cfb6ff" d="M387.5 368.5c-90.4 4.2-181.1 4.2-272 0C126 324.7 134 284 133 254c78.4 19.8 157.4 19.9 237 0 1.3 33.1 9 73.3 17.5 114.5"/><path fill="#a185d6" d="M364.7 255.6S331.6 309 328 309.3c-3.5.2-50.5-9.8-50.3-5.5s18.8 27.5 15.8 29.2-22.8 1.5-23.2 3.2 0 30.8 0 30.8h-11.5s-1-59.2 1.2-66.5 58.4-34.2 58.4-34.2 24-4.2 46.3-10.7M135.6 255.6s33.1 53.4 36.7 53.7 50.5-9.8 50.3-5.5-18.8 27.5-15.8 29.2 22.8 1.2 23.2 3 0 30.5 0 30.5h11.5s1-59-1.2-66.2-58.4-34.1-58.4-34.1-24.1-4.1-46.3-10.6"/><path d="M133.4 257.8c2.3 3.7 4.6 7.4 7 11.1 4.8 7.6 9.6 15.1 14.6 22.6 4.1 6.2 8.2 12.5 12.9 18.2 1.2 1.4 2.6 3 4.6 3 2.5 0 5.1-.7 7.5-1.1 8.7-1.5 17.4-3.1 26.1-4.3.5-.1 1-.1 1.5-.2.1 0 .5-.1 0 0h.3c.3 0 .6-.1.9-.1 1-.1 2-.2 3-.4 1.7-.2 3.5-.4 5.3-.4h3.3-.2c.1.1.5.1.6.1s.1.1.2.1c.4 0-.6-.3-.3-.1.5.3-.4-.4-.2-.2-.4-.4-.6-1-.6-1.3 0-.5.1-.5 0 0-.1.3-.4 1-.1.3-.3.7-.6 1.3-1 2-1 1.8-2.1 3.5-3.2 5.2-2.5 4-5.2 7.8-7.7 11.8-1 1.6-2 3.3-2.8 5-.6 1.3-1.3 2.7-1.3 4.2.1 4.2 6.5 4.1 9.4 4.3 2.5.2 5 .3 7.5.5 1.1.1 2.3.1 3.4.2.5 0 1.1.1 1.6.1.2 0 .4 0 .6.1.1 0 .9.1.5.1-.4-.1.2 0 .4.1.2 0 .3.1.5.1s.7.3.9.2c-.2 0-.4-.2-.5-.3.1.1-.7-1.3-.5-.9.1.3-.1-.8-.1-.4 0 1.2.1 2.4.1 3.5.1 8.2 0 16.5-.2 24.7v1.9c-.1 3.2 4.9 3.2 5 0 .1-7 .2-13.9.2-20.9 0-3.1.2-6.2-.2-9.3-.4-4.1-6-3.8-9.1-4-2.5-.2-5-.3-7.4-.5l-3.6-.3c-.5 0-1-.1-1.5-.1-.2 0-.5-.1-.7-.1h.2c-.1 0-.3 0-.4-.1-.7-.1-1.4-.4-2.1-.5-.4-.1.5.3.2.1.2.1.5.4.7.7-.2-.3.2.7.2.4-.1-.3.1.8.1.3 0-.4-.1.3 0 .3.1-.1.1-.3.1-.4.1-.3.2-.6.3-.8.2-.5 0 .1 0 0 .1-.1.1-.3.2-.4l.6-1.2c4-7.7 9.7-14.3 13.7-22 .6-1.2 1.3-2.6 1.3-4 0-1.6-1.3-2.7-2.8-3.1-2.6-.7-5.7-.3-8.4-.1-9 .8-18 2.5-26.9 4-3.7.6-7.4 1.3-11.2 1.9l-1.8.3c-.5.1.6-.1-.2 0-.2 0-.4.1-.6.1h-.8c.2-.1.8.2 1 .3-.1 0-.2-.1-.3-.2.8.6 0-.1-.3-.3-.3-.3-.7-.7-1-1.1-.4-.4-.7-.9-1.1-1.3-.1-.1-.2-.3-.3-.4-.3-.4 0 0 0 0-.2-.3-.5-.6-.7-.9-2.2-3-4.4-6.1-6.5-9.1-5.2-7.6-10.1-15.3-15.1-23-3.3-5.1-6.5-10.3-9.8-15.5-.2-.3-.3-.5-.5-.8-1.9-2.9-6.2-.4-4.5 2.3"/><path d="M244 366.5c.1-7.3.2-14.5.2-21.8 0-11.9.1-23.9-.5-35.9-.1-2-.2-4-.4-6-.1-1.4-.2-2.8-.7-4.1-1.1-3.2-4.8-5.5-7.4-7.3-9.4-6.7-19.8-12.1-29.9-17.5-7.3-3.9-14.7-7.7-22.2-11.3-.1-.1-.2-.1-.4-.2-1.2-.6-2.7-.3-3.4.9-.6 1.1-.3 2.8.9 3.4q9.15 4.5 18.3 9.3c10.4 5.5 20.9 11 30.8 17.4 1 .6 2 1.3 3 2 .4.3.9.6 1.3.9.2.1.4.3.5.4s.9.7.3.2c1.2 1 2.2 2.1 3.4 3.1-.5-.5-.2-.2.1.2.4.6-.1-.5 0 .1l.3 1.5c0 .2 0 .3.1.5-.1-.4-.1-.5 0-.1 0 .4.1.8.1 1.3.1.9.2 1.8.2 2.8.7 11.5.7 23 .6 34.5 0 8.5-.2 17-.2 25.5v.4c-.1 3 4.9 3 5-.2M363.6 254.3c-7.2 11.5-14.4 23-22 34.3-3.9 5.9-7.9 11.8-12.4 17.3-.5.6-1.6 1.2-.7 1 .8-.2-1.1-.3-1.6-.3-3.5-.5-7.1-1.2-10.6-1.8-8.8-1.5-17.6-3.1-26.5-4.1-3.2-.4-13-2.4-13.5 2.9-.2 2.5 2 5.4 3.2 7.4 2.4 4 5.1 7.9 7.6 11.8 1.2 1.8 2.4 3.7 3.4 5.6.4.8.8 1.6 1.2 2.3.1.2.2.6.3.8.9.9-.8.7.6.2 1.8-.6-1.2-.4-1.2-.4-1 0-2.2.3-3.2.4-2.6.2-5.3.3-7.9.5-2.8.2-8.6-.3-10.7 2-1.7 1.8-1 6-1.1 8.3 0 8.1.1 16.1.2 24.2.1 3.2 5.1 3.2 5 0-.1-6.9-.2-13.7-.2-20.6 0-1 .9-9 .2-9.5 1.2.9-2.7 1.1.2 1.2.9 0 2-.2 2.9-.3 2.4-.2 4.8-.3 7.3-.5 5-.3 15.4.4 12.6-7.3-2.8-7.9-9.1-14.7-13.4-21.9-.4-.7-1.3-3.4-2-3.7-.5-.3.5-1.9-.6.4 1.4-3-.3 1.3-.5 1 0 .1 1.2-.2 1.3-.2 3 .7 6.8.3 9.9.7 9 1.1 18 2.8 26.9 4.3 3.7.6 9.9 3 13.2.3 4.4-3.5 7.7-9.7 10.8-14.3 8.8-12.9 17.2-26.1 25.4-39.4 1.9-2.8-2.4-5.3-4.1-2.6"/><path d="M318.1 261.8c-6.5 3.3-12.9 6.8-19.3 10.2-10.6 5.8-21.4 11.7-31.3 18.7-2.9 2.1-6.6 4.4-8.4 7.7-.7 1.3-.8 2.8-1 4.2-.2 1.9-.3 3.7-.5 5.6-.7 12-.6 24.1-.6 36.2 0 8.7 0 17.4.2 26.1v.4c.1 3.2 5.1 3.2 5 0-.1-7.2-.2-14.4-.2-21.6-.1-12.3-.1-24.7.4-37 .1-2.2.2-4.5.4-6.7.1-.9.1-1.7.2-2.6 0-.2 0-.3.1-.5 0-.3-.1.7 0 .1 0-.3.1-.6.2-.9 0-.2.1-.4.2-.7.1-.6-.4.5 0-.1.1-.2.3-.4.4-.6s-.5.5 0 .1c.1-.1.3-.3.4-.5.5-.6 1.1-1.1 1.7-1.6.3-.3.7-.6 1.1-.9.2-.1.3-.3.5-.4l.3-.3c.2-.1-.4.3 0 0 9.3-7 19.7-12.7 29.8-18.4 7.5-4.1 15.1-8 22.6-12.1.1-.1.2-.1.4-.2 2.8-1.3.3-5.6-2.6-4.2"/><path fill="#cfb6ff" d="M381 368.3V380c-128.8 7.1-265.5-1.7-265.5 0v-11c89.2-.4 177.7-.8 265.5-.7"/><path d="M378.5 368.3V380l2.5-2.5c-25.3 1.4-50.6 2.2-75.9 2.5-23.7.3-47.4.3-71.1.1-19.9-.2-39.7-.7-59.5-1.2-13.9-.4-27.7-.9-41.6-1.3l-12-.3c-1.8 0-4-.3-5.7.2-1.2.3-1.8 1.3-2 2.5h5v-11l-2.5 2.5c34.8-.2 69.5-.3 104.3-.4 34.4-.1 68.7-.2 103.1-.2h58.1c3.2 0 3.2-5 0-5-34.4 0-68.9 0-103.3.1l-103.4.3-58.8.3c-1.4 0-2.5 1.1-2.5 2.5v11c0 1.4 1.1 2.5 2.5 2.5 1.5 0 2.3-1.2 2.5-2.5-.2 1.3-.9 2-1.7 2.3.4-.1 0 .3-.4 0 .1.1.7-.1.9-.1h3c3.7 0 7.4.1 11.2.3 13.2.4 26.5.9 39.7 1.2 19.2.6 38.4 1 57.6 1.3 23.1.3 46.1.4 69.2.1 24.8-.3 49.5-.9 74.3-2.2 3.1-.2 6.2-.3 9.2-.5 1.3-.1 2.5-1.1 2.5-2.5v-11.7c-.2-3.2-5.2-3.2-5.2 0"/><path fill="#817a89" d="M452 153.6h11.5v236.5H452z"/><path d="M463.5 387.6H452l2.5 2.5V163.3c0-3 .1-6.1 0-9.2v-.4l-2.5 2.5h11.5l-2.5-2.5v226.8c0 3.1-.1 6.1 0 9.2v.4c0 3.2 5 3.2 5 0V163.3c0-3.1.1-6.1 0-9.2v-.4c0-1.4-1.1-2.5-2.5-2.5H452c-1.4 0-2.5 1.1-2.5 2.5v226.8c0 3.1-.1 6.1 0 9.2v.4c0 1.4 1.1 2.5 2.5 2.5h11.5c3.2 0 3.2-5 0-5"/><path fill="#817a89" d="M490.1 116.8c-5.2-6.5-13.9-10.8-23.7-10.8-16 0-28.9 11.4-28.9 25.5 0 10.5 7.2 19.5 17.5 23.4v11.9h-1.5c-22.2 0-40.2-15.9-40.2-35.4 0-19.6 18-35.4 40.2-35.4 16.3 0 30.3 8.5 36.6 20.8"/><path d="M491.9 115c-12.7-15-38.1-15.5-50.8-.1-12.6 15.3-3.8 35.4 13.2 42.4l-1.8-2.4v11.9l2.5-2.5c-13.1.2-26.5-5.1-34-16.3-6.7-10.1-6.8-23.2 0-33.2 15.5-23.1 53.9-21.1 67 3.3 1.5 2.8 5.8.3 4.3-2.5-11.8-21.9-41.8-28.1-62.6-15.6-19.3 11.6-25 37.1-9.9 54.6 8.8 10.1 22.1 15 35.3 14.7 1.4 0 2.5-1.1 2.5-2.5v-11.9c0-1.2-.8-2-1.8-2.4-14.7-6-21.1-23.8-9.3-35.9 11.5-11.7 31.6-10.3 42 2 1.9 2.4 5.5-1.1 3.4-3.6"/><circle cx="465.6" cy="131.4" r="12.1" fill="#a0eaa7"/><path d="M475.3 131.4c-.7 12.3-19.3 12.4-19.3 0 0-12.5 18.6-12.4 19.3 0 .2 3.2 5.2 3.2 5 0-.4-7.9-6.3-14.6-14.6-14.6-8 0-14.6 6.7-14.6 14.6 0 7.7 6.3 14.2 14 14.6 8.5.4 14.8-6.4 15.3-14.6 0-3.2-5-3.2-5.1 0"/><path fill="#a185d6" d="M454.9 164.1h11.6v8.8h-11.6z"/><path d="M466.5 170.4H455l2.5 2.5v-8.8l-2.5 2.5h11.5l-2.5-2.5v8.8c0 1.3 1.1 2.6 2.5 2.5s2.5-1.1 2.5-2.5v-8.8c0-1.4-1.1-2.5-2.5-2.5H455c-1.4 0-2.5 1.1-2.5 2.5v8.8c0 1.4 1.1 2.5 2.5 2.5h11.5c1.3 0 2.6-1.1 2.5-2.5s-1.1-2.5-2.5-2.5"/><path fill="#a185d6" d="M454.9 172.9h11.6v8.8h-11.6z"/><path d="M466.5 179.2H455l2.5 2.5v-8.8l-2.5 2.5h11.5l-2.5-2.5v8.8c0 1.3 1.1 2.6 2.5 2.5s2.5-1.1 2.5-2.5v-8.8c0-1.4-1.1-2.5-2.5-2.5H455c-1.4 0-2.5 1.1-2.5 2.5v8.8c0 1.4 1.1 2.5 2.5 2.5h11.5c1.3 0 2.6-1.1 2.5-2.5s-1.1-2.5-2.5-2.5"/><path fill="#cfb6ff" d="M21.7 105.9S8.5 149.1 30 172s60.1 8.4 65.2-15.7S93 118 93 118s-4.3 21.8-13.3 14.9c-9.1-6.9 9.7-25.6 2.3-51.2S55 55 55 55s17.7 24.3 12.8 34.3S47.5 86.9 55 72c0 0-15.1 1.2-14.1 18.8s5 25 3.3 31.4c-1.6 6.4-18.8 14.7-22.5-16.3"/><path d="M19.3 105.2c-6.4 21.3-7.4 49.9 8.1 67.5 19 21.7 61.1 15.1 69.7-13.7 3.8-12.7 4.2-30.1-1.9-42.3-.9-1.9-4.2-1.5-4.6.6-.6 2.9-1.5 5.9-2.7 8.7-1.3 2.9-5.8 9.3-8.1 3.1-1.5-4.1 1.6-10.3 2.7-14.1 1.9-6.4 3.5-12.9 3.6-19.6.4-17.9-11-41.5-31.3-42.8-1.8-.1-3.3 2.3-2.2 3.8 4.9 6.7 9.5 14.3 12 22.2 1 3.1 3.2 12.5-2.9 12-7.7-.7-6.9-12.6-4.8-17.1.7-1.5-.1-3.9-2.2-3.8-5.3.5-10.4 3.4-13.4 7.8-6.3 9.4-2.5 23.2-.5 33.5 1 5.2 3 12.7-3.8 14.6-9.6 2.8-12.3-13.6-13.1-19.6-.4-3.1-5.4-3.2-5 0 1.1 8.5 3.4 21.8 13.3 24.5 5.1 1.4 11.2-1.2 13.6-6 1.6-3.2 1.1-7.1.6-10.5-1-6.5-2.5-12.9-3-19.5-.5-6.2-.6-13.1 4.9-17.2 1.8-1.3 5.2-2.5 6.5-2.7-.7-1.3-1.4-2.5-2.2-3.8-3.4 7.4-3.4 17 3.6 22.4 5.2 4 12.1 2.3 14.1-4.2 2.2-6.8-1.7-14.9-4.7-20.9q-3.75-7.5-8.7-14.4c-.7 1.3-1.4 2.5-2.2 3.8 17.9 1.2 27.4 24.7 26.2 40.6-.8 9.8-6.2 18.9-6.4 28.6-.2 6 5.6 12.5 11.9 9.1 5.5-3 7.7-11.5 8.9-17.2-1.5.2-3 .4-4.6.6 4.5 9 4.3 21.2 2.9 30.9-2 14.2-10.8 24.5-24.6 28.9-13.4 4.3-28.2 1.4-37.8-9.3-9.3-10.3-11.5-24.9-11.1-38.2.3-8.3 1.4-16.9 3.9-24.9 1.1-3.1-3.7-4.4-4.7-1.4"/><path fill="#fceeff" d="M31.3 135.4s-6.2 21.3 9 37.6 41.5 4.9 45.1-12.1c3.6-17.1 1.5-17.9 1.5-17.9s-8.5 10.6-14.9 5.7-1.1-29.8 1.8-36.6.5-16.5.5-16.5-1.1 13.4-8.3 17.9-16.5-2.4-11.2-13c0 0-5 1.6-4.2 14.1.7 12.5 0 17.7-1.2 22.2-1.3 4.4-15.6 20.6-18.1-1.4"/><path d="M385.5 366c-35.1-.1-70.3-.1-105.4-.1H173.6c-20.1 0-40.1 0-60.2.1.8 1.1 1.6 2.1 2.4 3.2 7.4-30.8 14.6-62 17-93.7.6-7.1.8-14.3.6-21.4-1.1.8-2.1 1.6-3.2 2.4 30.7 7.7 62.1 12.6 93.8 14.3 31.5 1.7 63 .3 94.3-4 17.8-2.5 35.4-5.9 52.8-10.3-1.1-.8-2.1-1.6-3.2-2.4 1.2 29.6 4.9 59 10 88.2 1.6 9 3.3 18 5.1 26.9.7 3.1 5.5 1.8 4.8-1.3-6.2-30-11-60.4-13.5-91-.6-7.6-1.1-15.2-1.4-22.8-.1-1.6-1.5-2.8-3.2-2.4-30.6 7.6-61.8 12.4-93.2 14.1-31.1 1.7-62.4.4-93.2-4-17.4-2.5-34.7-5.9-51.7-10.1-1.5-.4-3.2.8-3.2 2.4.4 13.2-.8 26.4-2.5 39.4-2.1 15.5-5.1 31-8.4 46.3-2 9.4-4.2 18.7-6.4 28.1-.4 1.6.7 3.2 2.4 3.2 35.7-.1 71.4-.1 107.1-.1h106c19.7 0 39.3 0 59 .1 3.1-.1 3.1-5.1-.1-5.1"/></g><g><g><path fill="#a0eaa7" d="m256.8 135.1-6.8-33 17.3 33z"/><path d="M258.2 134.7c-2.3-11-4.5-22-6.8-33l-2.7 1.2c5.8 11 11.6 22 17.3 33 .4-.8.9-1.5 1.3-2.3h-10.6c-1.9 0-1.9 3 0 3h10.6c1.2 0 1.8-1.3 1.3-2.3-5.8-11-11.6-22-17.3-33-.8-1.6-3.1-.4-2.7 1.2 2.3 11 4.5 22 6.8 33 .3 1.9 3.2 1.1 2.8-.8"/><path fill="#d9ffda" d="m250 168.1 6.8-33h10.5z"/><path d="M251.4 168.5c2.3-11 4.5-22 6.8-33-.5.4-1 .7-1.4 1.1h10.6c-.4-.8-.9-1.5-1.3-2.3-5.8 11-11.6 22-17.3 33-.9 1.7 1.7 3.2 2.6 1.5 5.8-11 11.6-22 17.3-33 .5-1-.1-2.3-1.3-2.3h-10.6c-.6 0-1.3.5-1.4 1.1-2.3 11-4.5 22-6.8 33-.4 2 2.4 2.8 2.8.9"/><path fill="#cfb6ff" d="m232.7 135.1 17.3-33 6.8 33z"/><path d="M234 135.8c5.8-11 11.6-22 17.3-33-.9-.1-1.8-.2-2.7-.4 2.2 11 4.5 22 6.7 33 .5-.6 1-1.3 1.4-1.9h-24.1c-1.9 0-1.9 3 0 3h24.1c1 0 1.6-1 1.4-1.9-2.2-11-4.5-22-6.7-33-.3-1.3-2.2-1.5-2.7-.4-5.8 11-11.6 22-17.3 33-.9 1.8 1.7 3.4 2.6 1.6"/><path fill="#eae1ff" d="m250 168.1-17.3-33h24.1z"/><path d="M251.3 167.3c-5.8-11-11.6-22-17.3-33-.4.8-.9 1.5-1.3 2.3h24.1c-.5-.6-1-1.3-1.4-1.9-2.2 11-4.5 22-6.7 33-.4 1.9 2.5 2.7 2.9.8 2.2-11 4.5-22 6.7-33 .2-.9-.4-1.9-1.4-1.9h-24.1c-1.2 0-1.8 1.3-1.3 2.3 5.8 11 11.6 22 17.3 33 .8 1.7 3.4.1 2.5-1.6"/></g></g></svg>