<svg xmlns="http://www.w3.org/2000/svg" xml:space="preserve" viewBox="0 0 500 500"><g><path fill="#fff" d="M57.5 367.5c-7.5-7.8-7.9-20.1-.7-27.5l34-34.9 29-29.7 16.7-17.1c10.7-11 27.6-12.1 37.3-2l.6.6c8.9 10.1 6.9 26.5-4.3 36.5l-18 16-33.2 29.7L85 369.4c-7.8 6.9-20 5.9-27.5-1.9"/><path d="M59.3 365.7c-6.4-7.2-6.9-17.3-.2-24.4 3-3.2 6.1-6.3 9.2-9.4 7.9-8.1 15.8-16.2 23.8-24.3l35.2-36.1c10.2-10.5 22.5-25.4 39-17.6 9.8 4.6 13.3 16.1 10 25.9-2.3 6.8-7.2 11.2-12.3 15.8-15 13.4-30.1 26.8-45.1 40.3-7.1 6.3-14.1 12.6-21.2 18.9-4.4 3.9-8.7 7.9-13.1 11.7-7.8 6.6-17.9 6.4-25.3-.8-2.3-2.2-5.8 1.3-3.5 3.5 7.2 7 18 9.6 27.1 4.7 3.8-2.1 7-5.6 10.2-8.4 9.1-8.1 18.2-16.3 27.3-24.4l45-40.2c4.8-4.3 10-8.4 13.2-14.1 4.5-8.2 5.4-18.4 1-26.8-9.4-17.8-32.8-15.5-45.3-2.8-15.1 15.3-30 30.7-45 46.1-8.6 8.8-17.1 17.6-25.7 26.3-3.2 3.3-6.7 6.4-9.6 9.9-7.4 9-5.6 21.5 1.8 29.8 2.1 2.4 5.6-1.2 3.5-3.6"/><path fill="#ffaec5" d="M148.1 322.2c26.1-23.5 44.2-50.3 28.4-67.3s-43.9-.9-69.2 23.4z"/><path d="M149.8 324c15.9-14.5 49.5-47.2 28.8-70.3-21.2-23.8-57.4 8-73.1 22.9-1 1-.9 2.6 0 3.5 13.6 14.6 27.2 29.2 40.7 43.9 2.2 2.4 5.7-1.2 3.5-3.5-13.6-14.6-27.2-29.2-40.7-43.9v3.5c10.4-9.9 21.8-19.6 35-25.6 10.2-4.7 22.8-6.7 31 2.7 7.8 8.9 4.5 20.9-.6 30.2-7 12.7-17.5 23.4-28.2 33.1-2.3 2.1 1.2 5.6 3.6 3.5"/><path fill="#ffaec5" d="m155.2 313.7-38.8-41.8"/><path d="M157 311.9c-12.9-13.9-25.9-27.8-38.8-41.8-2.2-2.4-5.7 1.2-3.5 3.5 12.9 13.9 25.9 27.8 38.8 41.8 2.1 2.4 5.7-1.1 3.5-3.5"/><path fill="#ffaec5" d="m139.7 311 6.6-6.1"/><path d="M140.8 312.1c2.2-2 4.4-4.1 6.6-6.1 1.4-1.3-.7-3.4-2.1-2.1-2.2 2-4.4 4.1-6.6 6.1-1.4 1.3.7 3.4 2.1 2.1"/><path fill="#ffaec5" d="m128.8 299.3 6.6-6.1"/><path d="M129.9 300.3c2.2-2 4.4-4.1 6.6-6.1 1.4-1.3-.7-3.4-2.1-2.1-2.2 2-4.4 4.1-6.6 6.1-1.4 1.3.7 3.5 2.1 2.1"/><path fill="#ffaec5" d="m118 287.6 6.6-6.2"/><path d="M119 288.6c2.2-2 4.4-4.1 6.6-6.1 1.4-1.3-.7-3.4-2.1-2.1-2.2 2-4.4 4.1-6.6 6.1-1.4 1.3.7 3.4 2.1 2.1"/><path fill="#fff" d="M355.5 336.5c11.1 18.6 34.1 26.2 54.1 17.9l6.4-2.7 40.1-16.6c11.3-4.7 16.7-17.2 12.6-28.1-4.2-10.9-16.6-16.6-28.1-12.6l-46.1 16.2-20.4-38.9c-7.4-14.2-23.6-20.6-35.9-13.8-3.5 2-6.3 4.8-8.2 8.1-4.9 8.3-4.7 19.8 1.1 29.7l18.3 30.7z"/><path d="M353.1 337.9c12.1 19.5 36.2 27.7 57.6 19.1 11.4-4.6 22.7-9.4 34.1-14.1 4.4-1.8 9-3.5 13.3-5.6 9.6-4.5 15.8-14.8 14.5-25.5s-9.8-19.3-20.3-21c-6.5-1.1-12.1.9-18 3-13.5 4.7-27 9.5-40.5 14.2 1 .4 2.1.8 3.1 1.3l-13.8-26.4c-5.5-10.4-10.1-21.7-21.3-27.3-16.4-8.2-35.2 1.4-37.6 19.8-1.8 13.7 6.5 24.7 13.1 35.8 5.2 8.8 10.5 17.7 15.8 26.7 1.8 3 6.6.3 4.8-2.8-8.4-14-17.6-27.8-25.1-42.3-4.8-9.2-5-21.7 2.8-29.4 6.6-6.6 16.7-6.8 24.6-2.5 9.4 5.2 13.5 15.6 18.2 24.7l13.8 26.4c.5 1 2 1.7 3.1 1.3 10.1-3.6 20.3-7.1 30.4-10.7 12.3-4.3 28.1-12.4 38.1 1 6.9 9.3 3.3 22.4-6.5 28-3.8 2.2-8.2 3.6-12.2 5.2l-29.7 12.3c-8.5 3.5-16.7 6.6-26.1 5.7-13-1.2-24.4-8.7-31.3-19.7-2-3-6.8-.3-4.9 2.8"/><path fill="#ffaec5" d="M395.5 297.5c-15.3-31.5-36.1-56.4-56.8-45.9s-12.9 41.9 3.4 72.9z"/><path d="M397.7 296.2c-9.6-19.4-32.1-61.1-60.2-46.8-28 14.3-7.5 57.2 2.5 76.4.7 1.2 2.3 1.5 3.4.9l53.4-27c2.9-1.5.3-5.8-2.5-4.3l-53.4 27c1.1.3 2.3.6 3.4.9-6.7-12.9-13-26.7-15-41.2-1.5-10.7 0-23 10.7-28.4 10.6-5.3 21.2.8 28.9 8.3 10.6 10.3 18 23.6 24.5 36.8 1.4 2.8 5.7.3 4.3-2.6"/><path fill="#ffaec5" d="M389.3 288.3 338.5 314"/><path d="M388.1 286.1c-17 8.6-33.9 17.2-50.9 25.8-2.9 1.5-.3 5.8 2.5 4.3 17-8.6 33.9-17.2 50.9-25.8 2.9-1.4.3-5.8-2.5-4.3"/><path fill="#ffaec5" d="m382.5 302.4-4.1-8"/><path d="M383.8 301.6c-1.4-2.7-2.7-5.4-4.1-8-.9-1.7-3.5-.2-2.6 1.5 1.4 2.7 2.7 5.4 4.1 8 .9 1.8 3.4.2 2.6-1.5"/><path fill="#ffaec5" d="m368.2 309.6-4.1-8"/><path d="M369.5 308.9c-1.4-2.7-2.7-5.4-4.1-8-.9-1.7-3.5-.2-2.6 1.5 1.4 2.7 2.7 5.4 4.1 8 .9 1.7 3.5.2 2.6-1.5"/><path fill="#ffaec5" d="m353.9 316.8-4-8"/><path d="M355.2 316.1c-1.4-2.7-2.7-5.4-4.1-8-.9-1.7-3.5-.2-2.6 1.5 1.4 2.7 2.7 5.4 4.1 8 .9 1.7 3.5.2 2.6-1.5"/><path fill="#ffb6cb" d="M128.1 237.4c-9.1-18.1-13.7-53.2-13.7-53.2l-9.8 15.9c-4.1-28.2 12.8-61 12.8-61C94.4 140.7 85 125 85 125s26-2.5 49.2-23.9 61.5-29.8 61.5-29.8c-7.1-5-12.9-18-12.9-18s25.2 9.6 72.1 8.7 55.6 19.8 55.6 19.8l2.7-12.3c10.7 13.1 14.8 27 14.8 27s27-3.8 41 20.5 10.9 96.8 0 126.7"/><path d="M130.2 236.2c-7.7-15.6-11.2-35.7-13.3-52-.3-2.3-3.2-3.6-4.7-1.3-3.3 5.3-6.5 10.6-9.8 15.9 1.6.4 3.1.8 4.7 1.3-2.6-20 3.3-41.9 12.4-59.8.8-1.6-.2-3.9-2.2-3.8-10.9.6-24.1-2.9-30.2-12.9-.7 1.3-1.4 2.5-2.2 3.8 7-.7 14-2.9 20.6-5.5 6.1-2.5 12-5.5 17.5-9.1 6.9-4.5 12.5-10.3 19.1-15.2 15.6-11.7 35.2-19.8 54.2-24.1 2.3-.5 2.2-3.4.6-4.6-5.4-4.2-9.2-10.9-12-17.1-.9 1.2-1.9 2.4-2.8 3.7 14 5.3 30 6.9 44.7 8 24 1.8 53.7-4 74.4 11.5 2.7 2 5.6 4.6 7 7.8.9 2 4.1 1.4 4.6-.6l2.7-12.3c-1.4.4-2.8.7-4.2 1.1 6.1 7.7 11.3 16.6 14.1 26 .3.9 1.3 2 2.4 1.8 19.2-2.6 36.9 10 42.5 28.1 7.5 24.3 6.3 52.2 3.8 77.1-1.3 13-3.3 26.4-7.7 38.7-1.1 3 3.7 4.3 4.8 1.3 4.2-11.6 6.1-24 7.5-36.2 1.7-14.8 2.3-29.7 1.8-44.5-.9-23.8-3.6-53.5-27.9-65.2-7.4-3.5-16.5-5.5-24.7-4.4l2.4 1.8c-3.1-10.3-8.8-19.9-15.4-28.2-1.2-1.5-3.8-.6-4.2 1.1L308 80.7c1.5-.2 3-.4 4.6-.6-4.2-9.7-17.3-15.2-26.6-17.7-15.1-4.1-30.5-2.9-45.9-3.4-13.6-.4-27.2-1.6-40.6-4.3-5.4-1.1-10.9-2.3-16-4.2-2.3-.9-3.6 1.9-2.8 3.7 3.2 7 7.6 14.1 13.8 18.9.2-1.5.4-3 .6-4.6-18.1 4-36.6 11.6-51.9 22-5.8 3.9-10.7 8.8-16.2 13.1-6.3 5-13.4 9.2-20.9 12.4-6.5 2.8-14.3 5.4-21.1 6.1-1.8.2-3.2 2-2.2 3.8 7 11.5 21.8 16 34.5 15.4-.7-1.3-1.4-2.5-2.2-3.8-9.5 18.6-15.8 41.4-13.1 62.3.3 2.3 3.2 3.6 4.7 1.3 3.3-5.3 6.5-10.6 9.8-15.9-1.6-.4-3.1-.8-4.7-1.3 2.4 18.3 5.8 37.8 14 54.5 1.5 3.2 5.9.6 4.4-2.2"/><path fill="#fff" d="M381.1 349.2c-.2-6-2.6-18-5.4-31.8l-.1-.5c-3-14.8-6.6-33.2-6.8-41.2-.1-5 .1-12.2.1-19.8v-.4c0-15.6.1-37.1-1.4-51.2-1.2-11.5-5.6-40.7-19.2-62.5-12.6-20.2-27.9-33.2-47.9-41.4-18.4-7.4-52.1-8.3-53-8.3-8.6 0-30.7.7-49.1 8.1-20.1 8.1-35.3 21.3-47.9 41.5-13.6 21.8-17.9 51-19.1 62.5-1.5 14.1-1.4 35.5-1.2 51.2v3.6c0 6.3 0 12.3-.1 16.6-.2 8.1-3.9 26.5-6.9 41.3l-.1.6c-2.7 13.8-5.1 25.7-5.4 31.7-.6 15.4 3.8 25.7 14.9 35.8 7.1 6.4 14 9.5 21.7 9.5 4.1 0 7.8-.8 11.9-1.8 1.1-.3 2.3-.6 3.5-1.1 4 2.2 11.7 5.6 21.7 5.6 6.5 0 14.1-1.4 22.4-5.4 4.8 3.9 9.7 7.5 9.7 7.5 12.9 7.3 24 8.8 25.6 8.8h.4c1.6 0 12.7-.9 26.1-8.8 0 0 4.3-3.1 8.8-6.7 7.7 3.4 14.7 4.6 20.8 4.6 10.9 0 19-3.9 22.7-6.1 1.8.7 3.3 1.3 4.9 1.7 4 1 7.7 1.8 11.8 1.8 7.8 0 14.4-2.9 21.6-9.5 11.3-10.1 15.6-20.5 15-35.9"/><path fill="#ffaec5" d="m133 261.8-4.4 40.3s65.9 6.6 73.4 6.9 32.7 0 32.7 0l79.3 13.8 64 6.3-9.8-66c.2-.1-96.7 22.8-235.2-1.3"/><path fill="#f789a3" d="m128 303.8 106.3 7.3L339 364l39.2-33.5s6.9 28.5 0 41-18.8 25.5-43.9 19.9-26.5-16.2-46.5-3.2-33.6 21.3-53.5 13.8c-19.8-7.5-21-21.6-38.3-20.5-16.9 1.1-43.9 19.9-61.8 5.8-14.7-11.8-22-49-6.2-83.5"/><path fill="#c8c8c8" d="M282.5 391.9s8-6.1 16.8-7c8.8-1 23.8 5.5 23.8 5.5s-4.9 10-14.2 9.8c-9.4-.3-26.4-8.3-26.4-8.3M170.6 389.9s8-6.1 16.8-7 23.8 5.5 23.8 5.5-4.9 10-14.2 9.8-26.4-8.3-26.4-8.3"/><path d="M383.3 351.6c-.2-6.1-2.7-18.4-5.5-32.5l-.1-.5c-3-15.1-6.1-33.9-6.4-42.1-.1-5.1.7-12.5.7-20.3v-.4c0-16-.4-37.9-2-52.2-1.2-11.8-5.9-41.6-19.9-63.8-12.9-20.6-28.6-33.9-49.1-42.2-18.8-7.6-53.2-8.4-54.2-8.4-8.8 0-31.4.7-50.1 8.3-20.5 8.3-36 21.7-48.9 42.3-13.9 22.2-18.3 52.1-19.6 63.8-1.5 14.4-1.4 36.3-1.3 52.3v3.7c0 6.5 0 12.5-.1 16.9-.2 8.3-4 27-7 42.1l-.2.6c-2.8 14.1-5.2 26.3-5.5 32.4-.6 15.7 3.8 26.3 15.2 36.6 7.3 6.6 14.3 9.7 22.1 9.7 4.2 0 8-.8 12.1-1.9 1.1-.3 2.3-.7 3.5-1.1 4.1 2.3 11.9 5.7 22.2 5.7 6.7 0 14.4-1.4 22.9-5.5 4.9 4 9.9 7.3 10 7.4 13.2 7.5 24.5 8.7 26.2 8.7h.4c1.7 0 13-.7 26.7-8.7 0 0 4.4-3 8.9-6.7 7.8 3.5 15 4.8 21.3 4.8 11.2 0 19.4-4 23.2-6.2 1.8.7 3.4 1.3 5 1.7 4.1 1 7.9 1.9 12.1 1.9 7.9 0 14.7-3 22.1-9.6 11.5-10.5 15.9-21.1 15.3-36.8M176 391.1c6.1-2.6 13.6-5.5 20.1-5.5 4.4 0 7.6 1.3 10.4 4.1l.2.2c-13.2 5.4-24 3.6-30.7 1.2m114.5-.5c.3-.3.6-.5.8-.8 2.8-2.8 6-4.2 10.4-4.2 6.1 0 13 2.5 18.9 5-6.5 2.5-17.1 4.8-30.1 0m72.7-7.9c-6 5.4-11.1 7.8-17.2 7.8-3.4 0-6.6-.7-10.4-1.6-2-.5-4.5-1.6-7.7-3l-.5-.2c-7-3.2-16.7-7.4-25.8-7.4-6.3 0-11.3 2.1-15.6 6.3-11 11.2-21.9 15.7-29.1 17.5-.1 0-7.1 1.9-15.2-.3-8.2-2.3-19.2-6.1-30.1-17.2-4.1-4.2-9.2-6.3-15.6-6.3-9 0-18.6 4.2-25.9 7.4l-.3.1c-3.3 1.4-5.8 2.6-7.9 3.1-3.8.9-7 1.6-10.4 1.6-6 0-11.3-2.4-17.2-7.8-9.8-8.9-13.3-17.3-12.8-30.9.2-5.5 2.6-17.4 5.4-31.2l.1-.6c3.2-16.1 6.9-34.4 7.2-43.4.1-4.5.1-10.6.1-17.1v-3.7c-.1-15.8-.3-37.5 1.2-51.4 1.2-11.3 5.4-39.8 18.5-60.7 12-19.3 26.5-31.8 45.4-39.5 17.6-7.1 39-8.2 47.4-8.2.8 0 33.8.8 51.4 7.9 19 7.7 33.4 20.4 45.5 39.6 13.1 21 18.1 49.5 19.3 60.8 1.5 14 2.1 35.7 2.1 51.5v.4c0 7.8-.9 15.2-.8 20.4.2 8.9 3.5 27.2 6.8 43.4l-.1.5c2.8 13.8 5.1 25.8 5.3 31.3.3 13.7-3.2 22-13.1 30.9"/><path d="M321.2 193.9c0 10.6-8.6 19.1-19.1 19.1-10.6 0-19.1-8.6-19.1-19.1 0-.9.1-1.8.2-2.6 1.2.8 2.6 1.3 4.1 1.3 4 0 7.2-3.2 7.2-7.2 0-2.9-1.7-5.4-4.1-6.5 3.2-2.5 7.3-4 11.7-4 10.5-.1 19.1 8.5 19.1 19M211.1 193.9c0 10.6-8.6 19.1-19.1 19.1-10.6 0-19.1-8.6-19.1-19.1 0-.9.1-1.8.2-2.6 1.2.8 2.6 1.3 4.1 1.3 4 0 7.2-3.2 7.2-7.2 0-2.9-1.7-5.4-4.1-6.5 3.2-2.5 7.3-4 11.7-4 10.5-.1 19.1 8.5 19.1 19"/><ellipse cx="163.4" cy="230.6" fill="#f68694" rx="7.4" ry="3.4" transform="rotate(-44.198 163.406 230.55)"/><ellipse cx="177.5" cy="231.7" fill="#f68694" rx="7.4" ry="3.4" transform="rotate(-44.198 177.46 231.72)"/><ellipse cx="191.5" cy="231.7" fill="#f68694" rx="7.4" ry="3.4" transform="rotate(-44.198 191.513 231.72)"/><ellipse cx="330.9" cy="231.7" fill="#f68694" rx="7.4" ry="3.4" transform="rotate(224.198 330.885 231.722)"/><ellipse cx="316.8" cy="232.9" fill="#f68694" rx="7.4" ry="3.4" transform="rotate(224.198 316.83 232.893)"/><ellipse cx="302.8" cy="232.9" fill="#f68694" rx="7.4" ry="3.4" transform="rotate(224.198 302.777 232.893)"/><path d="M279.5 161.2c15.4-.9 34.1 2.1 45.4 13.5 2.3 2.3 5.8-1.3 3.5-3.5-12.2-12.3-32.2-15.9-48.9-14.9-3.2.1-3.2 5.1 0 4.9M214.7 156.2c-16.8-1-36.7 2.7-48.9 14.9-2.3 2.3 1.3 5.8 3.5 3.5 11.3-11.3 30-14.4 45.4-13.5 3.2.3 3.2-4.7 0-4.9M230.7 224.3q16.65 7.65 33-.3c2.9-1.4.4-5.7-2.5-4.3-9.3 4.5-18.6 4.7-28 .3-2.9-1.3-5.4 3-2.5 4.3M131.3 262.9c78.9 13.1 159.4 13.3 238.3 0 3.2-.5 1.8-5.4-1.3-4.8-78 13.1-157.7 13-235.7 0-3.1-.5-4.4 4.3-1.3 4.8"/><path d="M129.3 274.9c78.9 13.1 159.4 13.3 238.3 0 3.2-.5 1.8-5.4-1.3-4.8-78 13.1-157.7 13-235.7 0-3.1-.5-4.4 4.3-1.3 4.8M130 306c34.6 3.8 69.4 5.9 104.3 6.4 3.2 0 3.2-5 0-5-34.8-.5-69.6-2.6-104.3-6.4-3.2-.3-3.2 4.7 0 5"/><path fill="#c95079" d="M281.3 365s-9.8 17.5-34.3 17.5-34.3-18-34.3-18v-43h68.5V365z"/><path d="M279.1 363.7c-9.9 17.5-36.6 20.5-52.7 10.8-3.6-2.2-6.9-5-9.5-8.3-.6-.7-1.1-1.8-1.7-2.4-1-.9 0 .7 0 .3.6-6.8 0-13.8 0-20.6v-22l-2.5 2.5h68.5l-2.5-2.5V365c0 3.2 5 3.2 5 0v-43.5c0-1.4-1.1-2.5-2.5-2.5h-68.5c-1.4 0-2.5 1.1-2.5 2.5V358c0 2-.4 4.5 0 6.5 1.1 5.9 9 11.5 13.7 14.3 11.8 7.1 27.2 8.1 40 3.1 7.6-3 15.4-8.4 19.5-15.7 1.6-2.7-2.7-5.3-4.3-2.5"/><path fill="#f789a3" d="M376.3 330.8c-42.5-3.8-142-20.7-142-20.7s91.8 44.7 104.5 53.7z"/><path d="M376.3 328.3c-43-3.9-85.9-11.4-128.5-18.5-4.3-.7-8.6-1.4-12.8-2.2-2.6-.4-4.7 3.2-1.9 4.6 28.9 14.1 57.9 28.3 86.3 43.4 6.1 3.2 12.5 6.4 18.2 10.3.9.7 2.2.3 3-.4l37.5-33c2.4-2.1-1.1-5.7-3.5-3.5l-37.5 33c1-.1 2-.3 3-.4-12.6-8.7-27.2-15.1-40.8-22-17.3-8.8-34.7-17.5-52.1-26-3.9-1.9-7.7-3.8-11.6-5.7-.6 1.5-1.3 3-1.9 4.6 35.9 6.1 71.8 11.9 107.9 16.7 11.6 1.6 23.2 3.1 34.8 4.1 3.1.2 3-4.8-.1-5"/><circle cx="165.4" cy="322.9" r="7.6" fill="#c95079"/><path d="M170.5 322.9c-.4 6.5-10.2 6.6-10.2 0s9.8-6.6 10.2 0c.2 3.2 5.2 3.2 5 0-.3-5.5-4.4-10.1-10.1-10.1-5.5 0-10.1 4.6-10.1 10.1 0 5.3 4.4 9.9 9.7 10.1 5.9.2 10.2-4.4 10.5-10.1.2-3.3-4.8-3.2-5 0M145.1 263.1c0 3.3-.1 6.7-.1 10 0 1.9 3 1.9 3 0 0-3.3.1-6.7.1-10 0-1.9-3-1.9-3 0M168 268.3c0 3.3-.1 6.7-.1 10 0 1.9 3 1.9 3 0 0-3.3.1-6.7.1-10 .1-1.9-2.9-1.9-3 0M191 268.5c0 3.3-.1 6.7-.1 10 0 1.9 3 1.9 3 0 0-3.3.1-6.7.1-10 .1-1.9-2.9-1.9-3 0M214 270.7c0 3.3-.1 6.7-.1 10 0 1.9 3 1.9 3 0 0-3.3.1-6.7.1-10 0-1.9-3-1.9-3 0M237 271.9c0 3.3-.1 6.7-.1 10 0 1.9 3 1.9 3 0 0-3.3.1-6.7.1-10 0-1.9-3-1.9-3 0M260 272.1c0 3.3-.1 6.7-.1 10 0 1.9 3 1.9 3 0 0-3.3.1-6.7.1-10 0-1.9-3-1.9-3 0M283 271.3c0 3.3-.1 6.7-.1 10 0 1.9 3 1.9 3 0 0-3.3.1-6.7.1-10 0-1.9-3-1.9-3 0M306 269.5c0 3.3-.1 6.7-.1 10 0 1.9 3 1.9 3 0 0-3.3.1-6.7.1-10 0-2-3-2-3 0M329 266.7c0 3.3-.1 6.7-.1 10 0 1.9 3 1.9 3 0 0-3.3.1-6.7.1-10 0-2-3-2-3 0M352.1 264.9c0 3.3-.1 6.7-.1 10 0 1.9 3 1.9 3 0 0-3.3.1-6.7.1-10 0-2-3-2-3 0"/><path fill="#ffb6cb" d="M136 148.3c-7.3 19-7.4 30.8-7.4 30.8 32.4-7 76.6-43.3 76.6-43.3l-5.6 15.8c27.3-9.5 34.4-27.3 34.4-27.3v14.5c15-12.8 14.1-21.4 14.1-21.4s7.5 23.3 28 27.6c2.3 1.8-2.2-11.7-2.2-11.7 13.5 10.7 26.2 19 37.2 22.7l-3.7-15.6s8.7 9.3 28.7 25.5 32.8 19.4 32.8 19.4S372.7 89 253.7 86 136 148.3 136 148.3"/><path fill="#f789a3" d="m175.1 309.9-17.1-1.7-.2-45.6 17.3 2.1z"/><path d="M175.1 307.4c-5.7-.6-11.4-1.1-17.1-1.7l2.5 2.5-.3-45.6-2.5 2.5c5.8.7 11.6 1.3 17.3 2l-2.5-2.5v45.2c0 3.2 5 3.2 5 0v-45.2c0-1.5-1.2-2.3-2.5-2.5-5.8-.7-11.6-1.3-17.3-2-1.3-.2-2.5 1.3-2.5 2.5l.3 45.6c0 1.4 1.1 2.4 2.5 2.5 5.7.6 11.4 1.1 17.1 1.7 3.2.3 3.2-4.7 0-5M133.6 147.6c-3.7 9.9-7.3 20.8-7.5 31.4 0 1.7 1.6 2.8 3.2 2.4 18.4-4.2 35.4-14.2 51.1-24.5 9.2-6 18.2-12.4 26.7-19.4l-4.2-2.4c-1.8 5.3-3.7 10.5-5.5 15.8-.6 1.7 1.3 3.7 3.1 3.1 14.1-5.1 30.2-14.4 36.2-29-1.6-.2-3.3-.4-4.9-.7v14.5c0 1.8 2.2 3.3 3.8 2.2 8.3-5.8 12.6-14.4 14.9-24.1-1.6-.2-3.3-.4-4.9-.7 1.5 16.1 16.7 27 30.8 31.5 1.8.6 3.6-1.3 3.1-3.1l-4.8-15c-1.5.6-3 1.3-4.6 1.9 2 3.5 5.3 6.5 8.4 9 9.4 7.7 20.5 12.8 31.9 16.9 1.9.7 3.5-1.4 3.1-3.1l-3.6-15-4.2 2.4c6.7 7 13.8 13.6 21.2 19.9 11.9 10.2 24.7 20.3 39.5 25.9 3 1.1 4.3-3.7 1.3-4.8-14.6-5.5-27.5-16.1-39.2-26.2-6.7-5.8-13.2-11.9-19.3-18.3-1.8-1.9-4.7.1-4.2 2.4l3.6 15 3.1-3.1c-10.7-3.8-21.5-8.7-30.3-16.1-2.5-2.1-5.3-4.6-7-7.5-1.4-2.4-5.4-.8-4.6 1.9l4.8 15 3.1-3.1c-9.4-3-18.3-8.2-23.4-16.8-1.3-2.2-2.4-4.6-3.1-7.1-.2-.9-.6-2.8-.6-2.7-.2-2.6-4.2-3.6-4.9-.7-1.9 8.3-5.4 16.1-12.6 21.1 1.3.7 2.5 1.4 3.8 2.2v-14.5c0-3-3.9-3.1-4.9-.7.5-1.1-1 1.7-1.2 2.2-1.5 2.4-3.2 4.7-5.2 6.7-7.2 7.7-16.5 13-26.4 16.5l3.1 3.1c1.8-5.3 3.7-10.5 5.5-15.8.9-2.6-2.4-3.9-4.2-2.4-8.2 6.7-16.9 12.8-25.7 18.6-15.3 10-31.8 19.9-49.9 24 1.1.8 2.1 1.6 3.2 2.4.2-10.2 3.8-20.7 7.3-30.1 1-2.8-3.8-4.1-4.9-1.1M451.4 316.8q-.15-13.95-1.2-27.9c-1.1-14.5-2.4-29.9-7.7-43.6-1.2-3-6-1.7-4.8 1.3 5.3 13.7 6.5 29 7.6 43.5q1.05 13.35 1.2 26.7c0 3.2 5 3.2 4.9 0"/><ellipse cx="437.7" cy="224.9" fill="#4edadd" rx="6.7" ry="10"/><path d="M442.9 224.9c-.1 2.9-1.2 8.5-5.2 8.5-3.9 0-5.2-5.6-5.2-8.5 0-3 1.3-8.5 5.2-8.5 4 0 5.1 5.6 5.2 8.5.1 1.9 3.1 1.9 3 0-.2-4.7-2.4-11.5-8.2-11.5-5.7 0-8.2 6.8-8.2 11.5 0 4.6 2.4 11.1 7.8 11.5 6 .4 8.4-6.7 8.6-11.5.1-1.9-2.9-1.9-3 0"/><ellipse cx="426.4" cy="235.4" fill="#4edadd" rx="6.7" ry="10" transform="rotate(-75.801 426.435 235.431)"/><path d="M427.7 230.4c2.8.8 8 3.3 7 7.1-.9 3.8-6.7 3.7-9.5 3-2.9-.7-7.9-3.3-7-7.1.9-3.9 6.6-3.6 9.5-3 1.9.4 2.7-2.5.8-2.9-4.6-1-11.8-.5-13.2 5.1-1.4 5.5 4.6 9.6 9.1 10.8 4.5 1.1 11.3.5 13.1-4.7 1.9-5.7-4.4-9.8-9-11.2-1.9-.6-2.7 2.3-.8 2.9"/><ellipse cx="433.1" cy="250.1" fill="#4edadd" rx="6.7" ry="10" transform="rotate(29.182 433.135 250.081)"/><path d="M437.7 252.6c-1.5 2.5-4.7 6.3-8 5.1-4.1-1.4-2.7-7.4-1.1-10.2 1.4-2.4 4.2-5.7 7.3-5.3 5.1.6 3.2 7.6 1.8 10.4-.9 1.7 1.7 3.2 2.6 1.5 2.2-4.3 3.6-11.6-1.8-14.2-4.9-2.4-10.2 2.1-12.5 6.2s-3.4 11.3 1.5 14.1c5 2.9 10.4-2 12.8-6 1-1.7-1.6-3.2-2.6-1.6"/><ellipse cx="451.2" cy="233.2" fill="#4edadd" rx="6.7" ry="10" transform="rotate(253.722 451.198 233.23)"/><path d="M449.7 228.2c3-.7 10-1.1 9.8 3.7-.2 3.3-4.1 5.5-6.8 6.2-2.8.8-8.5 1.1-9.7-2.6-1.2-3.6 3.9-6.3 6.7-7.3 1.8-.6 1-3.5-.8-2.9-4.4 1.5-10.1 5.3-8.9 10.7 1.3 5.8 8.8 6.4 13.4 5.1 4.3-1.3 9.7-5.1 8.9-10.3-1-6.2-8.7-6.6-13.5-5.4-1.8.4-1 3.3.9 2.8"/><ellipse cx="448.2" cy="248.2" fill="#4edadd" rx="6.7" ry="10" transform="rotate(-40.608 448.208 248.236)"/><path d="M452.2 244.9c1.9 2.4 4.8 8.2.8 10.2-3.1 1.5-7-1.4-8.9-3.6s-4.6-7.8-1.2-10c3.2-2 7.3 1.3 9.3 3.4 1.3 1.4 3.4-.7 2.1-2.1-3.1-3.4-9.2-7-13.6-3.4-4.4 3.7-1.9 10.6 1.3 14.2 3 3.5 9.1 6.9 13.4 3.5 4.7-3.7 1.9-10.6-1.1-14.3-1.2-1.5-3.3.6-2.1 2.1"/><circle cx="439.3" cy="237.1" r="7.9" fill="#e07e58"/><path d="M446.1 237.1c-.5 8.6-13.4 8.7-13.4 0-.1-8.6 12.9-8.6 13.4 0 .1 1.6 2.6 1.6 2.5 0-.3-5-4-9.2-9.2-9.2-5 0-9.2 4.2-9.2 9.2 0 4.8 3.9 8.9 8.7 9.2 5.4.2 9.3-4 9.6-9.2.1-1.6-2.4-1.6-2.4 0"/></g><g><g><path fill="#4edadd" d="m256.8 135.1-6.8-33 17.3 33z"/><path d="M258.2 134.7c-2.3-11-4.5-22-6.8-33l-2.7 1.2c5.8 11 11.6 22 17.3 33 .4-.8.9-1.5 1.3-2.3h-10.6c-1.9 0-1.9 3 0 3h10.6c1.2 0 1.8-1.3 1.3-2.3-5.8-11-11.6-22-17.3-33-.8-1.6-3.1-.4-2.7 1.2 2.3 11 4.5 22 6.8 33 .3 1.9 3.2 1.1 2.8-.8"/><path fill="#92ffff" d="m250 168.1 6.8-33h10.5z"/><path d="M251.4 168.5c2.3-11 4.5-22 6.8-33-.5.4-1 .7-1.4 1.1h10.6c-.4-.8-.9-1.5-1.3-2.3-5.8 11-11.6 22-17.3 33-.9 1.7 1.7 3.2 2.6 1.5 5.8-11 11.6-22 17.3-33 .5-1-.1-2.3-1.3-2.3h-10.6c-.6 0-1.3.5-1.4 1.1-2.3 11-4.5 22-6.8 33-.4 2 2.4 2.8 2.8.9"/><path fill="#f789a3" d="m232.7 135.1 17.3-33 6.8 33z"/><path d="M234 135.8c5.8-11 11.6-22 17.3-33-.9-.1-1.8-.2-2.7-.4 2.2 11 4.5 22 6.7 33 .5-.6 1-1.3 1.4-1.9h-24.1c-1.9 0-1.9 3 0 3h24.1c1 0 1.6-1 1.4-1.9-2.2-11-4.5-22-6.7-33-.3-1.3-2.2-1.5-2.7-.4-5.8 11-11.6 22-17.3 33-.9 1.8 1.7 3.4 2.6 1.6"/><path fill="#fcd" d="m250 168.1-17.3-33h24.1z"/><path d="M251.3 167.3c-5.8-11-11.6-22-17.3-33-.4.8-.9 1.5-1.3 2.3h24.1c-.5-.6-1-1.3-1.4-1.9-2.2 11-4.5 22-6.7 33-.4 1.9 2.5 2.7 2.9.8 2.2-11 4.5-22 6.7-33 .2-.9-.4-1.9-1.4-1.9h-24.1c-1.2 0-1.8 1.3-1.3 2.3 5.8 11 11.6 22 17.3 33 .8 1.7 3.4.1 2.5-1.6"/></g></g></svg>