<svg xmlns="http://www.w3.org/2000/svg" xml:space="preserve" viewBox="0 0 500 500"><g><path fill="#cfb6ff" d="M132 332.9c-28 4.6-50.6-12.9-56.2-28.3s-7.2-9.7-21.2-19.4-3.5-17.8-5.6-35.6-35.4-20.9-35.4-20.9c40.6-7.7 48.3 3.7 84.7 3.1s39.6-6.2 39.6-6.2z"/><path d="M131.4 330.5c-15.8 2.5-32.6-2.4-44.2-13.6-2.4-2.3-4.4-4.6-6.1-7.3q-1.2-1.8-2.1-3.9c-.6-1.2-1.1-2.8-1.8-4.4-1.1-2.8-2.3-5.5-4.2-7.8-1.3-1.5-2.9-2.7-4.7-3.6-5.4-2.7-11.4-5.1-15.6-9.6-.3-.3-.5-.5-.7-.8s-.1-.1-.4-.5c-.4-.6-.7-1.2-1-1.8-.2-.4.1.3 0 0-.1-.1-.1-.3-.2-.4l-.3-.9c-.1-.3-.1-.6-.2-.9 0-.1-.1-.5 0-.2v-.3c-.2-3 .2-5 .7-7.8.6-3.4 1.2-6.9 1.3-10.3s.1-7.2-1.1-10.5c-1.9-5.3-6.2-9.2-11.1-11.9-7.7-4.4-16.7-6.6-25.4-7.5-.2 0-.3 0-.5-.1.2 1.6.4 3.3.7 4.9 11.3-2.1 22.8-3.2 34.3-2.2 8.4.8 17.1 2.7 25.7 3.9 11.9 1.6 23.9 1.7 35.9 1 7.8-.4 15.9-1 23.3-3.3 2.1-.6 5.3-1.6 6.5-3.7-1.6-.4-3.1-.8-4.7-1.3-.2 3.6-.4 7.1-.6 10.7-.5 8.5-.9 17.1-1.4 25.6-.6 10.3-1.1 20.7-1.7 31l-1.5 26.7c-.2 4.3-.7 8.7-.7 13v.2c-.2 3.2 4.8 3.2 5 0 .2-3.6.4-7.1.6-10.7.5-8.5.9-17.1 1.4-25.6.6-10.3 1.1-20.7 1.7-31l1.5-26.7c.2-2.9.3-5.9.5-8.8.1-1.4.2-2.8.2-4.2v-.2c.1-2.5-3.5-3.3-4.7-1.3-.2.3.6-.7.2-.3l-.2.2c-.4.3.7-.4.1-.1-.4.2-.8.5-1.2.7-.1.1-.3.1-.4.2-.5.2.7-.2 0 0-.4.1-.8.3-1.2.4-6.8 2.3-13.5 2.8-20.6 3.3-11.9.8-23.8.9-35.7-.6-8.5-1.1-17.3-3-25.9-4-12.7-1.4-25.4-.2-37.9 2.1-1.2.2-2 1.6-1.8 2.7.2 1.3 1.2 2 2.5 2.2.2 0 .4 0 .5.1.2 0 .4 0 .6.1h.4c-1-.1-.3 0 0 0 1.7.3 3.4.5 5.1.9 2.4.5 4.8 1.1 7.1 1.8q3.9 1.2 7.2 2.7c1.2.6 2.4 1.2 3.5 1.9.5.3 1.1.7 1.6 1 .3.2.5.4.8.6.4.3.1.1.1 0 .2.1.4.3.5.4 1 .8 1.9 1.7 2.8 2.7l.3.3c-.1-.1-.3-.4 0 0 .2.2.3.5.5.7.3.5.7 1.1.9 1.6.1.1.1.3.2.4.2.4-.1-.3 0 0s.2.6.3.8c.2.6.4 1.2.5 1.9.1.5.2 1.3.2 2.4.1 1 .1 2.1.1 3.1 0 3.5-.5 6.6-1.1 10-1 5.7-2.1 11.8 1.6 16.8 2.3 3.2 5.5 5.5 8.8 7.5 2.5 1.6 5.1 2.9 7.8 4.2.9.4 1.8.8 2.7 1.3.4.2.7.4 1.1.7.2.1.7.5.1.1.2.2.4.3.5.5.3.3.6.6.9 1 .1.1.2.2.2.3.2.3-.3-.4-.1-.1.2.2.3.5.5.7.8 1.2 1.4 2.4 1.9 3.7 1.3 2.9 2.3 6.1 3.9 9s3.7 5.6 5.9 8c11 12 27.7 18.4 43.9 17.7 2.4-.1 4.8-.4 7.1-.8 1.3-.2 2.1-1.9 1.7-3.1-.2-1.2-1.6-1.8-2.9-1.6"/><path fill="#fff" d="m159.1 227.6-42.5 24-22.1 12.5c-9.2 5.2-13.5 16.1-10.3 26.2l7.7 24.2 11.4 35.7c2.1 6.5 7.1 11.4 13.1 13.5 4.3 1.5 9 1.8 13.7.3 11.1-3.6 17.4-15.6 13.8-26.7l-14.1-44.2 50.3-28.4c4.6-2.6 7.8-6.6 9.5-11.3 2-5.6 1.7-12.1-1.4-17.7-5.9-10.2-18.9-13.8-29.1-8.1"/><path d="M157.8 225.5c-6.3 3.6-12.7 7.1-19 10.7-7.6 4.3-15.3 8.6-22.9 12.9l-19.2 10.8c-1.1.6-2.3 1.3-3.4 1.9-3.3 1.9-6 4.4-8.2 7.5-4.4 6.2-5.5 14.4-3.3 21.7l7.5 23.7c2.2 7 4.5 14 6.7 21.1 1.4 4.3 2.8 8.6 4.1 13 1.6 4.9 3.8 9.5 7.8 12.9 7.4 6.3 18 7.6 26.6 3.1 7.2-3.8 11.9-11.2 12.6-19.2.4-4.1-.7-7.9-1.9-11.7-1.3-4.2-2.7-8.3-4-12.5l-8.7-27.3c-.2-.6-.4-1.1-.5-1.7-.4.9-.8 1.9-1.1 2.8 3.7-2.1 7.5-4.2 11.2-6.3 7.4-4.2 14.8-8.3 22.1-12.5l15.9-9c3.2-1.8 6-4 8.2-6.9 4.4-5.8 5.9-13.7 4-20.7-3.6-12.8-17.6-20.4-30.3-16.2-1.3.4-2.8 1.1-4.2 1.9-2.8 1.6-.3 5.9 2.5 4.3 9.9-5.5 23-.9 26.8 9.9 2.1 6.1 1.1 13-2.9 18.1-1.8 2.3-4.1 4-6.7 5.4-5.1 2.9-10.1 5.7-15.2 8.6l-21.3 12c-4.2 2.3-8.5 4.5-12.5 7.1-.1 0-.1.1-.2.1-.9.5-1.5 1.8-1.1 2.8 2.2 6.8 4.3 13.6 6.5 20.4l7.5 23.4c1.7 5.5 1.1 11.3-1.9 16.2-4.4 6.9-13 10.2-20.9 8-6.2-1.8-10.9-6.5-12.9-12.6-1-3.2-2.1-6.5-3.1-9.7-2.7-8.4-5.4-16.9-8-25.3-2.3-7.1-4.5-14.2-6.8-21.4-.3-1.1-.7-2.1-1-3.2-1-3.3-1.3-6.9-.5-10.3 1.3-6 5.1-10.5 10.4-13.5l21.3-12c5.8-3.3 11.5-6.5 17.3-9.8 8-4.5 15.9-9 23.9-13.5.5-.3.9-.5 1.4-.8 2.7-1.5.2-5.8-2.6-4.2"/><path fill="#a185d6" d="m163 221.2-46.4 25.5-23.2 12.8c-9.6 5.4-15.6 18.3-12.2 28.8l7.3 26.8 10.1 28.3 44.9-15.5-10.4-35 50.7-30.2c4.8-2.7 8.2-6.9 9.9-11.8 2.1-5.9 1.8-12.7-1.5-18.5-5.8-10.8-18.5-17.2-29.2-11.2"/><path d="M161.8 219c-9.3 5.1-18.6 10.2-28 15.4-7.6 4.2-15.2 8.3-22.7 12.5l-17.4 9.6c-2.7 1.5-5.2 3.2-7.4 5.4-3.8 3.9-6.6 8.9-7.8 14.2-1 4.4-.8 8.7.4 13.1.6 2.1 1.2 4.3 1.8 6.5 1.7 6.3 3.4 12.5 5.1 18.8 1 3.5 2.3 6.8 3.6 10.2 2.2 6 4.3 12.1 6.5 18.1.1.4.3.8.4 1.2.4 1.2 1.7 2.2 3.1 1.7 5.1-1.7 10.1-3.5 15.2-5.2 8.1-2.8 16.1-5.6 24.2-8.4 1.9-.6 3.7-1.3 5.6-1.9 1.3-.4 2.2-1.7 1.7-3.1-3-10.2-6.1-20.4-9.1-30.6-.4-1.5-.9-2.9-1.3-4.4-.4.9-.8 1.9-1.1 2.8 3.7-2.2 7.5-4.5 11.2-6.7 7.4-4.4 14.8-8.8 22.3-13.3l16.2-9.6c3.1-1.8 5.9-3.9 8.1-6.7 4.7-6 6.5-13.8 4.7-21.3-3-12.8-17.2-23.9-30.6-20.2-1.7.4-3.3 1.1-4.7 1.9-2.8 1.6-.3 5.9 2.5 4.3 10.8-6 24 2.9 27.5 13.7 2 6.2.8 13.4-3.4 18.5-1.9 2.4-4.3 4-6.9 5.5-5.1 3.1-10.2 6.1-15.4 9.2-7.1 4.3-14.3 8.5-21.4 12.8-4.2 2.5-8.5 4.9-12.6 7.5-.1 0-.1.1-.2.1-.9.6-1.5 1.8-1.1 2.8 3 10.2 6.1 20.4 9.1 30.6.4 1.5.9 2.9 1.3 4.4.6-1 1.2-2.1 1.7-3.1-5.1 1.7-10.1 3.5-15.2 5.2-8.1 2.8-16.1 5.6-24.2 8.4-1.9.6-3.7 1.3-5.6 1.9 1 .6 2.1 1.2 3.1 1.7-1.7-4.7-3.3-9.3-5-14s-3.6-9.4-5.1-14.2-2.6-9.7-4-14.5c-.9-3.1-1.7-6.2-2.6-9.3-.5-1.9-1.2-4-1.5-5.9-1.2-9 4.1-18.7 11.9-23.1 5-2.8 10.1-5.6 15.2-8.4 7.3-4 14.7-8.1 22-12.1 10.5-5.8 21-11.5 31.5-17.3l.6-.3c3.1-1.6.6-5.9-2.2-4.4"/><path fill="#a185d6" d="m93.847 331.137 47.245-15.427 4.19 12.833-47.245 15.427z"/><path d="M144.6 326.1c-5.3 1.7-10.6 3.5-15.9 5.2-8.5 2.8-17 5.5-25.4 8.3-2 .6-3.9 1.3-5.9 1.9 1 .6 2.1 1.2 3.1 1.7-1.4-4.3-2.8-8.5-4.2-12.8-.6 1-1.2 2.1-1.7 3.1 5.3-1.7 10.6-3.5 15.9-5.2 8.5-2.8 17-5.5 25.4-8.3 2-.6 3.9-1.3 5.9-1.9-1-.6-2.1-1.2-3.1-1.7 1.4 4.3 2.8 8.5 4.2 12.8 1 3 5.8 1.7 4.8-1.3-1.4-4.3-2.8-8.5-4.2-12.8-.4-1.2-1.7-2.2-3.1-1.7-5.3 1.7-10.6 3.5-15.9 5.2-8.5 2.8-17 5.5-25.4 8.3-2 .6-3.9 1.3-5.9 1.9-1.2.4-2.2 1.7-1.7 3.1 1.4 4.3 2.8 8.5 4.2 12.8.4 1.2 1.7 2.2 3.1 1.7 5.3-1.7 10.6-3.5 15.9-5.2 8.5-2.8 17-5.5 25.4-8.3 2-.6 3.9-1.3 5.9-1.9 3-1.1 1.7-5.9-1.4-4.9"/><path fill="#fff" d="M381.1 349.2c-.2-6-2.6-18-5.4-31.8l-.1-.5c-3-14.8-6.6-33.2-6.8-41.2-.1-5 .1-12.2.1-19.8v-.4c0-15.6.1-37.1-1.4-51.2-1.2-11.5-5.6-40.7-19.2-62.5-12.6-20.2-27.9-33.2-47.9-41.4-18.4-7.4-52.1-8.3-53-8.3-8.6 0-30.7.7-49.1 8.1-20.1 8.1-35.3 21.3-47.9 41.5-13.6 21.8-17.9 51-19.1 62.5-1.5 14.1-1.4 35.5-1.2 51.2v3.6c0 6.3 0 12.3-.1 16.6-.2 8.1-3.9 26.5-6.9 41.3l-.1.6c-2.7 13.8-5.1 25.7-5.4 31.7-.6 15.4 3.8 25.7 14.9 35.8 7.1 6.4 14 9.5 21.7 9.5 4.1 0 7.8-.8 11.9-1.8 1.1-.3 2.3-.6 3.5-1.1 4 2.2 11.7 5.6 21.7 5.6 6.5 0 14.1-1.4 22.4-5.4 4.8 3.9 9.7 7.5 9.7 7.5 12.9 7.3 24 8.8 25.6 8.8h.4c1.6 0 12.7-.9 26.1-8.8 0 0 4.3-3.1 8.8-6.7 7.7 3.4 14.7 4.6 20.8 4.6 10.9 0 19-3.9 22.7-6.1 1.8.7 3.3 1.3 4.9 1.7 4 1 7.7 1.8 11.8 1.8 7.8 0 14.4-2.9 21.6-9.5 11.3-10.1 15.6-20.5 15-35.9"/><path fill="#fceeff" d="M381.7 345.5c-87.1 23.3-174.7 23.4-262.7 0 17-48.5 13-111 13-111 79.4 23.4 158.4 23.3 237 0 0 0-8.2 83.5 12.7 111"/><path fill="#c8c8c8" d="M285.5 386.9s8-6.1 16.8-7c8.8-1 23.8 5.5 23.8 5.5s-4.9 10-14.2 9.8c-9.4-.3-26.4-8.3-26.4-8.3M170.6 386.9s8-6.1 16.8-7 23.8 5.5 23.8 5.5-4.9 10-14.2 9.8-26.4-8.3-26.4-8.3"/><path d="M383.9 349.4c-.2-6.1-2.7-18.4-5.5-32.5l-.1-.5c-3-15.1-6.5-33.9-6.7-42.1-.1-5.1.4-12.5.4-20.3v-.4c0-16-.1-37.9-1.7-52.2-1.2-11.8-5.8-41.6-19.7-63.8-12.9-20.6-28.5-33.9-49-42.2-18.8-7.6-53.2-8.4-54.2-8.4-8.8 0-31.3.7-50.1 8.3-20.5 8.3-36 21.7-48.9 42.3-13.9 22.2-18.3 52.1-19.5 63.8-1.5 14.4-1.4 36.3-1.3 52.3v3.7c0 6.5 0 12.5-.1 16.9-.2 8.3-4 27-7 42.1l-.2.6c-2.8 14.1-5.2 26.3-5.5 32.4-.6 15.7 3.8 26.3 15.2 36.6 7.3 6.6 14.3 9.7 22.1 9.7 4.2 0 8-.8 12.1-1.9 1.1-.3 2.3-.7 3.5-1.1 4.1 2.3 11.9 5.7 22.2 5.7 6.7 0 14.4-1.4 22.9-5.5 4.9 4 9.9 7.4 10 7.4 13.2 7.5 24.5 8.7 26.2 8.7h.4c1.7 0 13-.7 26.7-8.7 0 0 4.4-3.1 8.9-6.7 7.8 3.5 15 4.8 21.3 4.8 11.2 0 19.4-4 23.2-6.2 1.8.7 3.4 1.3 5 1.7 4.1 1 7.9 1.9 12.1 1.9 7.9 0 14.7-3 22.1-9.6 11.4-10.5 15.8-21.1 15.2-36.8m-207.3 39.5c6.1-2.6 13.6-5.5 20.1-5.5 4.4 0 7.6 1.3 10.4 4.1l.2.2c-13.2 5.4-24 3.7-30.7 1.2m114.5-.5c.3-.3.6-.5.8-.8 2.8-2.8 6-4.2 10.4-4.2 6.1 0 13 2.5 18.9 5-6.5 2.5-17.1 4.8-30.1 0m72.7-7.8c-6 5.4-11.1 7.8-17.2 7.8-3.4 0-6.6-.7-10.4-1.6-2-.5-4.5-1.6-7.7-3l-.5-.2c-7-3.2-16.7-7.4-25.8-7.4-6.3 0-11.3 2.1-15.6 6.3-11 11.2-21.9 15.7-29.1 17.5-.1 0-7.1 1.9-15.2-.3-8.2-2.3-19.2-6.1-30.1-17.2-4.1-4.2-9.2-6.3-15.6-6.3-9 0-18.6 4.2-25.9 7.4l-.3.1c-3.3 1.4-5.8 2.6-7.9 3.1-3.8.9-7 1.6-10.4 1.6-6 0-11.3-2.4-17.2-7.8-9.8-8.9-13.3-17.3-12.8-30.9.2-5.5 2.6-17.4 5.4-31.2l.1-.6c3.2-16.1 6.9-34.4 7.2-43.4.1-4.5.1-10.6.1-17.1v-3.7c-.1-15.8-.3-37.5 1.2-51.4 1.2-11.3 5.4-39.8 18.5-60.7 12-19.3 26.5-31.8 45.4-39.5 17.6-7.1 39-8.2 47.4-8.2.8 0 33.8.8 51.4 7.9 19 7.7 33.4 20.4 45.5 39.6 13.1 21 17.8 49.5 19 60.8 1.5 14 1.8 35.7 1.8 51.5v.4c0 7.8-.6 15.2-.5 20.4.2 8.9 3.7 27.2 6.9 43.4v.5c2.8 13.8 5.1 25.8 5.3 31.3.4 13.6-3.1 22-13 30.9"/><path d="M324.2 191.9c0 10.6-8.6 19.1-19.1 19.1-10.6 0-19.1-8.6-19.1-19.1 0-.9.1-1.8.2-2.6 1.2.8 2.6 1.3 4.1 1.3 4 0 7.2-3.2 7.2-7.2 0-2.9-1.7-5.4-4.1-6.5 3.2-2.5 7.3-4 11.7-4 10.5-.1 19.1 8.5 19.1 19M214.1 191.9c0 10.6-8.6 19.1-19.1 19.1-10.6 0-19.1-8.6-19.1-19.1 0-.9.1-1.8.2-2.6 1.2.8 2.6 1.3 4.1 1.3 4 0 7.2-3.2 7.2-7.2 0-2.9-1.7-5.4-4.1-6.5 3.2-2.5 7.3-4 11.7-4 10.5-.1 19.1 8.5 19.1 19"/><ellipse cx="166.4" cy="228.6" fill="#f68694" rx="7.4" ry="3.4" transform="rotate(-44.198 166.406 228.55)"/><ellipse cx="180.5" cy="229.7" fill="#f68694" rx="7.4" ry="3.4" transform="rotate(-44.198 180.46 229.72)"/><ellipse cx="194.5" cy="229.7" fill="#f68694" rx="7.4" ry="3.4" transform="rotate(-44.198 194.513 229.721)"/><ellipse cx="333.9" cy="229.7" fill="#f68694" rx="7.4" ry="3.4" transform="rotate(224.198 333.885 229.722)"/><ellipse cx="319.8" cy="230.9" fill="#f68694" rx="7.4" ry="3.4" transform="rotate(224.198 319.83 230.893)"/><ellipse cx="305.8" cy="230.9" fill="#f68694" rx="7.4" ry="3.4" transform="rotate(224.198 305.777 230.893)"/><path d="M173.8 162.3c5.8-5.2 12.7-9.8 20.7-9.8 8.1 0 15 4.5 20.7 9.8 2.4 2.2 5.9-1.4 3.5-3.5-6.8-6.1-14.8-11.2-24.3-11.2-9.4 0-17.5 5.1-24.3 11.2-2.3 2.1 1.3 5.6 3.7 3.5M275.6 171c1.1 4.9 4.6 6 9 5.9 5.5-.1 11-.1 16.6-.1 10.2 0 20.4.1 30.7.1 3.2 0 3.2-5 0-5-8.5-.1-17-.1-25.5-.1h-17c-2.7 0-8.2 1.3-8.9-2.2-.8-3.1-5.6-1.7-4.9 1.4M131.3 236.9c78.2 22.8 160.2 22.9 238.3 0 3.1-.9 1.8-5.7-1.3-4.8-77.3 22.7-158.3 22.6-235.7 0-3-.9-4.4 3.9-1.3 4.8"/><path d="M271 252v109c0 3.2 5 3.2 5 0V252c0-3.2-5-3.2-5 0"/><path d="M118.3 347.9c66.8 17.6 136.4 22.2 204.8 12.2 20-2.9 39.7-7.1 59.2-12.2 3.1-.8 1.8-5.6-1.3-4.8-66.4 17.6-135.6 22.1-203.6 12-19.5-2.9-38.7-7-57.7-12-3.1-.8-4.5 4-1.4 4.8M230.5 227c4.2-4.5 12.9-3.3 18.5-3.3s11.2 0 16.7.1c3.2 0 3.2-5 0-5-6.8-.1-13.7-.2-20.5-.1-6 .1-13.7 0-18.2 4.8-2.2 2.3 1.3 5.8 3.5 3.5"/><circle cx="252" cy="270.4" r="7.9" fill="#cfb6ff"/><path d="M257.4 270.4v.7c0 .5 0 .1 0 0-.1.4-.1.7-.2 1-.1.2-.1.4-.2.6 0-.1.2-.4 0 0s-.4.7-.6 1.1c-.3.5.2-.1-.1.1-.1.1-.2.3-.3.4l-.3.3c-.1.1-.6.5-.1.1l-.9.6c-.1.1-.2.1-.4.2q-.45.15 0 0c-.1 0-.2.1-.3.1-.3.1-.7.2-1 .3-.1 0-.6.1-.1 0h-1.6c-.4 0 .6.1-.1 0-.2 0-.4-.1-.6-.1-.2-.1-.4-.1-.6-.2-.1 0-.4-.2 0 0-.3-.2-.6-.3-.9-.5-.1-.1-.3-.2-.4-.3-.3-.2.4.4-.1-.1l-.9-.9c.3.3.1.1 0 0-.1-.2-.2-.3-.3-.5-.1-.1-.1-.2-.2-.4 0-.1-.3-.7-.1-.2-.1-.3-.2-.7-.3-1 0-.1-.1-.3-.1-.4-.1-.5 0 .3 0-.3v-1c0-.1.1-.8 0-.2 0-.1.1-.3.1-.4.1-.3.2-.7.3-1 .2-.6-.2.4.1-.2.1-.2.2-.4.3-.5s.2-.3.3-.4.4-.4 0-.1c.2-.3.5-.5.7-.7 0 0 .5-.4.2-.2s.2-.2.2-.2c.3-.2.7-.4 1.1-.6-.1 0-.5.2 0 0 .2-.1.4-.1.6-.2.1 0 .3-.1.4-.1 0 0 .7-.1.3-.1-.4.1.3 0 .3 0h1.2c.6 0-.3-.1.2 0l1.2.3c.6.2-.2-.2.1 0l.6.3c.1.1.2.1.4.2.1.1.2.2.3.2q-.3-.3 0 0l.7.7c.5.5-.2-.4.1.1.1.2.2.3.3.5s.2.4.3.5c.3.5-.1-.4.1.2l.3 1.2c0 .1.1.5 0 0zc0 1.3 1.1 2.6 2.5 2.5 1.3-.1 2.5-1.1 2.5-2.5-.1-4.4-2.8-8.3-6.9-9.8-3.9-1.5-8.8-.2-11.4 3.1-2.8 3.4-3.3 8.2-1 12.1 2.3 3.8 6.7 5.7 11.1 4.9 4.9-.9 8.3-5.4 8.4-10.2 0-1.3-1.2-2.6-2.5-2.5-1.6 0-2.7 1-2.7 2.4"/><circle cx="252" cy="300.8" r="7.9" fill="#cfb6ff"/><path d="M257.4 300.8v.7c0 .5 0 .1 0 0-.1.4-.1.7-.2 1-.1.2-.1.4-.2.6 0-.1.2-.4 0 0s-.4.7-.6 1.1c-.3.5.2-.1-.1.1-.1.1-.2.3-.3.4l-.3.3c-.1.1-.6.5-.1.1l-.9.6c-.1.1-.2.1-.4.2q-.45.15 0 0c-.1 0-.2.1-.3.1-.3.1-.7.2-1 .3-.1 0-.6.1-.1 0h-1.6c-.4 0 .6.1-.1 0-.2 0-.4-.1-.6-.1-.2-.1-.4-.1-.6-.2-.1 0-.4-.2 0 0-.3-.2-.6-.3-.9-.5-.1-.1-.3-.2-.4-.3-.3-.2.4.4-.1-.1l-.9-.9c.3.3.1.1 0 0-.1-.2-.2-.3-.3-.5-.1-.1-.1-.2-.2-.4 0-.1-.3-.7-.1-.2-.1-.3-.2-.7-.3-1 0-.1-.1-.3-.1-.4-.1-.5 0 .3 0-.3v-1c0-.1.1-.8 0-.2 0-.1.1-.3.1-.4.1-.3.2-.7.3-1 .2-.6-.2.4.1-.2.1-.2.2-.4.3-.5s.2-.3.3-.4.4-.4 0-.1c.2-.3.5-.5.7-.7 0 0 .5-.4.2-.2s.2-.2.2-.2c.3-.2.7-.4 1.1-.6-.1 0-.5.2 0 0 .2-.1.4-.1.6-.2.1 0 .3-.1.4-.1 0 0 .7-.1.3-.1-.4.1.3 0 .3 0h1.2c.6 0-.3-.1.2 0l1.2.3c.6.2-.2-.2.1 0l.6.3c.1.1.2.1.4.2.1.1.2.2.3.2q-.3-.3 0 0l.7.7c.5.5-.2-.4.1.1.1.2.2.3.3.5s.2.4.3.5c.3.5-.1-.4.1.2l.3 1.2c0 .1.1.5 0 0zc0 1.3 1.1 2.6 2.5 2.5 1.3-.1 2.5-1.1 2.5-2.5-.1-4.4-2.8-8.3-6.9-9.8-3.9-1.5-8.8-.2-11.4 3.1-2.8 3.4-3.3 8.2-1 12.1 2.3 3.8 6.7 5.7 11.1 4.9 4.9-.9 8.3-5.4 8.4-10.2 0-1.3-1.2-2.6-2.5-2.5-1.6 0-2.7 1-2.7 2.4"/><circle cx="252" cy="331.2" r="7.9" fill="#cfb6ff"/><path d="M257.4 331.2v.7c0 .5 0 .1 0 0-.1.4-.1.7-.2 1-.1.2-.1.4-.2.6 0-.1.2-.4 0 0s-.4.7-.6 1.1c-.3.5.2-.1-.1.1-.1.1-.2.3-.3.4l-.3.3c-.1.1-.6.5-.1.1l-.9.6c-.1.1-.2.1-.4.2q-.45.15 0 0c-.1 0-.2.1-.3.1-.3.1-.7.2-1 .3-.1 0-.6.1-.1 0h-1.6c-.4 0 .6.1-.1 0-.2 0-.4-.1-.6-.1-.2-.1-.4-.1-.6-.2-.1 0-.4-.2 0 0-.3-.2-.6-.3-.9-.5-.1-.1-.3-.2-.4-.3-.3-.2.4.4-.1-.1l-.9-.9c.3.3.1.1 0 0-.1-.2-.2-.3-.3-.5-.1-.1-.1-.2-.2-.4 0-.1-.3-.7-.1-.2-.1-.3-.2-.7-.3-1 0-.1-.1-.3-.1-.4-.1-.5 0 .3 0-.3v-1c0-.1.1-.8 0-.2 0-.1.1-.3.1-.4.1-.3.2-.7.3-1 .2-.6-.2.4.1-.2.1-.2.2-.4.3-.5s.2-.3.3-.4.4-.4 0-.1c.2-.3.5-.5.7-.7 0 0 .5-.4.2-.2s.2-.2.2-.2c.3-.2.7-.4 1.1-.6-.1 0-.5.2 0 0 .2-.1.4-.1.6-.2.1 0 .3-.1.4-.1 0 0 .7-.1.3-.1-.4.1.3 0 .3 0h1.2c.6 0-.3-.1.2 0l1.2.3c.6.2-.2-.2.1 0l.6.3c.1.1.2.1.4.2.1.1.2.2.3.2q-.3-.3 0 0l.7.7c.5.5-.2-.4.1.1.1.2.2.3.3.5s.2.4.3.5c.3.5-.1-.4.1.2l.3 1.2c0 .1.1.5 0 0zc0 1.3 1.1 2.6 2.5 2.5 1.3-.1 2.5-1.1 2.5-2.5-.1-4.4-2.8-8.3-6.9-9.8-3.9-1.5-8.8-.2-11.4 3.1-2.8 3.4-3.3 8.2-1 12.1 2.3 3.8 6.7 5.7 11.1 4.9 4.9-.9 8.3-5.4 8.4-10.2 0-1.3-1.2-2.6-2.5-2.5-1.6 0-2.7 1-2.7 2.4"/><path fill="#c30000" d="m215.015 287.234 35.384-18.652 5.595 10.615-35.384 18.652z"/><path d="M255.2 277.9c-10.3 5.4-20.6 10.9-31 16.3-1.5.8-2.9 1.6-4.4 2.3.7.2 1.4.4 2.1.5-1.9-3.5-3.7-7.1-5.6-10.6-.2.7-.4 1.4-.5 2.1 10.3-5.4 20.6-10.9 31-16.3 1.5-.8 2.9-1.6 4.4-2.3-.7-.2-1.4-.4-2.1-.5 1.9 3.5 3.7 7.1 5.6 10.6.9 1.7 3.5.2 2.6-1.5-1.9-3.5-3.7-7.1-5.6-10.6-.4-.7-1.4-.9-2.1-.5-10.3 5.4-20.6 10.9-31 16.3-1.5.8-2.9 1.6-4.4 2.3-.7.4-.9 1.4-.5 2.1 1.9 3.5 3.7 7.1 5.6 10.6.4.7 1.4.9 2.1.5 10.3-5.4 20.6-10.9 31-16.3 1.5-.8 2.9-1.6 4.4-2.3 1.7-1.1.2-3.6-1.6-2.7"/><path fill="#c30000" d="m215.3 218.1 6.9 13.3-21.3 11-6.9-13.3 4.4-2.3 3.3 6.2 4.4-2.3-3.2-6.2 4.4-2.3 3.2 6.2 3.6-1.8-3.2-6.2z"/><path d="M214 218.8c2.3 4.4 4.6 8.9 6.9 13.3.2-.7.4-1.4.5-2.1l-18.6 9.6c-.9.5-1.8.9-2.7 1.4.7.2 1.4.4 2.1.5-2.3-4.4-4.6-8.9-6.9-13.3-.2.7-.4 1.4-.5 2.1 1.5-.8 3-1.5 4.4-2.3-.7-.2-1.4-.4-2.1-.5 1.1 2.1 2.1 4.1 3.2 6.2.4.7 1.4.9 2.1.5 1.5-.8 3-1.5 4.4-2.3.7-.4.9-1.4.5-2.1-1.1-2.1-2.1-4.1-3.2-6.2-.2.7-.4 1.4-.5 2.1 1.5-.8 3-1.5 4.4-2.3-.7-.2-1.4-.4-2.1-.5 1.1 2.1 2.1 4.1 3.2 6.2.4.7 1.4.9 2.1.5l3.6-1.8c.7-.4.9-1.4.5-2.1-1.1-2.1-2.1-4.1-3.2-6.2-.2.7-.4 1.4-.5 2.1 1.5-.8 3-1.5 4.4-2.3 1.7-.9.2-3.5-1.5-2.6-1.5.8-3 1.5-4.4 2.3-.7.4-.9 1.4-.5 2.1 1.1 2.1 2.1 4.1 3.2 6.2.2-.7.4-1.4.5-2.1l-3.6 1.8c.7.2 1.4.4 2.1.5-1.1-2.1-2.1-4.1-3.2-6.2-.4-.7-1.4-.9-2.1-.5-1.5.8-3 1.5-4.4 2.3-.7.4-.9 1.4-.5 2.1 1.1 2.1 2.1 4.1 3.2 6.2.2-.7.4-1.4.5-2.1-1.5.8-3 1.5-4.4 2.3.7.2 1.4.4 2.1.5-1.1-2.1-2.1-4.1-3.2-6.2-.4-.7-1.4-.9-2.1-.5-1.5.8-3 1.5-4.4 2.3-.7.4-.9 1.4-.5 2.1 2.3 4.4 4.6 8.9 6.9 13.3.4.7 1.4.9 2.1.5l18.6-9.6c.9-.5 1.8-.9 2.7-1.4.7-.4.9-1.4.5-2.1-2.3-4.4-4.6-8.9-6.9-13.3-1-1.6-3.6-.1-2.7 1.6"/><path fill="#c30000" d="m247.2 270-28.7 15.1c-1.5-2.9-1.5-6.3-.2-9.4.6-1.4 1.5-2.8 2.6-4l-13.7-28 12.4-6.5 15.2 27.2c5.3-.7 10.2 1.4 12.4 5.6"/><path d="M246.5 268.7c-8.4 4.4-16.8 8.8-25.2 13.3-1.2.6-2.4 1.3-3.6 1.9.7.2 1.4.4 2.1.5-2-3.9-.6-8.4 2.1-11.6.5-.5.5-1.2.2-1.8-4-8.2-8-16.3-12-24.5-.6-1.2-1.1-2.3-1.7-3.5-.2.7-.4 1.4-.5 2.1 4.1-2.2 8.3-4.3 12.4-6.5-.7-.2-1.4-.4-2.1-.5 4.4 7.9 8.9 15.9 13.3 23.8.6 1.1 1.2 2.2 1.9 3.3.2.4.8.8 1.3.7 4.4-.5 8.9.9 11.1 4.9.9 1.7 3.5.2 2.6-1.5-2.7-4.9-8.3-7-13.7-6.4.4.2.9.5 1.3.7-4.4-7.9-8.9-15.9-13.3-23.8-.6-1.1-1.2-2.2-1.9-3.3-.4-.7-1.3-.9-2.1-.5-4.1 2.2-8.3 4.3-12.4 6.5-.8.4-.9 1.4-.5 2.1 4 8.2 8 16.3 12 24.5.6 1.2 1.1 2.3 1.7 3.5.1-.6.2-1.2.2-1.8-3.7 4.3-5.2 10-2.6 15.3.4.7 1.4.9 2.1.5 8.4-4.4 16.8-8.8 25.2-13.3 1.2-.6 2.4-1.3 3.6-1.9 1.7-1 .2-3.6-1.5-2.7"/><path fill="#c30000" d="m199.96 240.659 21.309-11.04 2.76 5.327-21.31 11.04z"/><path d="M223.3 233.7c-6.2 3.2-12.4 6.4-18.7 9.7-.9.5-1.8.9-2.6 1.4.7.2 1.4.4 2.1.5-.9-1.8-1.8-3.6-2.8-5.3-.2.7-.4 1.4-.5 2.1 6.2-3.2 12.4-6.4 18.7-9.7.9-.5 1.8-.9 2.6-1.4-.7-.2-1.4-.4-2.1-.5.9 1.8 1.8 3.6 2.8 5.3.9 1.7 3.5.2 2.6-1.5-.9-1.8-1.8-3.6-2.8-5.3-.4-.7-1.4-.9-2.1-.5-6.2 3.2-12.4 6.4-18.7 9.7-.9.5-1.8.9-2.6 1.4-.7.4-.9 1.4-.5 2.1.9 1.8 1.8 3.6 2.8 5.3.4.7 1.4.9 2.1.5 6.2-3.2 12.4-6.4 18.7-9.7.9-.5 1.8-.9 2.6-1.4 1.6-1 .1-3.6-1.6-2.7"/><path fill="#fff" d="m364.5 274-39.9 28.1-20.7 14.6c-8.6 6.1-20.3 5.3-28.1-1.9l-18.5-17.3-27.4-25.5c-5-4.7-7.2-11.2-6.6-17.6.4-4.5 2.3-8.9 5.6-12.5 8-8.6 21.5-9 30.1-1l33.9 31.6 47.2-33.3c4.3-3 9.4-4.2 14.3-3.8 6 .6 11.7 3.6 15.4 8.9 6.6 9.6 4.3 23-5.3 29.7"/><path d="M363.2 271.9c-5.7 4-11.3 8-17 12-7.3 5.1-14.5 10.3-21.8 15.4-5.5 3.9-11.1 7.8-16.6 11.7-3.2 2.3-6.5 5-10.2 6.3-6.9 2.4-14.6.8-20-4.2-6-5.5-11.9-11.1-17.8-16.6-4.9-4.6-9.8-9.1-14.7-13.7-3.5-3.3-7-6.5-10.5-9.8-2.9-2.7-5.7-5.2-7.4-9-3.4-7.7-1.1-17 5.5-22.3 5.5-4.4 13.4-5.3 19.8-2.3 2.9 1.4 5.1 3.6 7.5 5.8 3.3 3 6.5 6.1 9.8 9.1 6.7 6.3 13.4 12.5 20.2 18.8l1.2 1.2c.8.7 2.1 1 3 .4 3.2-2.3 6.4-4.5 9.7-6.8 6.6-4.6 13.1-9.3 19.7-13.9 5.2-3.7 10.5-7.4 15.7-11.1 1.5-1.1 3-2.2 4.7-3 5.7-2.9 12.7-2.5 18.2.8 9.9 5.9 12 20 4.2 28.6-1.1.8-2.1 1.8-3.2 2.6s-1.6 2.2-.9 3.4c.6 1.1 2.3 1.7 3.4.9 5.1-3.7 8.8-9.2 9.9-15.4 1-6.3-.3-12.8-4.1-18-7.7-10.5-22.5-13-33.2-5.5l-13.2 9.3c-6.9 4.9-13.9 9.8-20.8 14.7-2.8 2-5.6 3.9-8.4 5.9-1.4 1-3 1.9-4.3 3-.1.1-.1.1-.2.1 1 .1 2 .3 3 .4-5.4-5-10.8-10.1-16.2-15.1-5.9-5.5-11.7-11-17.6-16.4-5.4-5-12.6-7.3-20-6.2-8.8 1.3-16.2 7.6-19 16-2.9 8.7-.3 18.5 6.3 24.7 2 1.9 4.1 3.8 6.1 5.7 6.9 6.4 13.7 12.8 20.6 19.2 5.4 5 10.8 10 16.1 15 1 1 2 1.9 3.1 2.9 2.7 2.5 5.9 4.4 9.4 5.6 7.3 2.4 15.6 1.1 21.9-3.3 6.8-4.8 13.5-9.6 20.3-14.3 5.3-3.7 10.6-7.5 15.8-11.2 7.6-5.4 15.3-10.8 22.9-16.2.5-.3.9-.7 1.4-1 1.1-.8 1.6-2.2.9-3.4-.4-1-2-1.6-3.2-.8"/><path fill="#a185d6" d="m372 273.2-42.9 31-21.5 15.4c-9 6.4-23.2 6.2-31.3-1.3l-21.1-18.1-21-21.2 33.3-33.9 27.2 24.4 49.1-32.9c4.5-3.2 9.8-4.4 14.9-3.9 6.2.6 12.2 3.8 16.1 9.3 6.9 9.9 7.2 24.1-2.8 31.2"/><path d="M370.8 271c-8.5 6.1-17 12.3-25.5 18.4-6.9 5-13.9 10-20.8 15l-16.2 11.7c-1.9 1.4-3.9 2.8-6.1 3.7-4.6 1.9-10 2.4-14.9 1.3-3.6-.8-6.7-2.5-9.5-4.9-1.8-1.6-3.7-3.1-5.5-4.7l-14.4-12.3c-2.8-2.4-5.3-5.2-7.9-7.8l-13.3-13.3-.9-.9v3.5c3.7-3.8 7.5-7.6 11.2-11.4 6-6.1 11.9-12.2 17.9-18.3 1.4-1.4 2.8-2.8 4.1-4.2h-3.5c7.9 7.1 15.9 14.2 23.8 21.4 1.1 1 2.3 2 3.4 3 .8.7 2.1 1 3 .4l10.2-6.9c6.9-4.6 13.8-9.3 20.7-13.9l16.2-10.8c1.9-1.3 3.7-2.6 5.8-3.5 6.2-2.6 13.3-1.8 18.9 2 8.9 6 13.2 21 6 29.7-.7 1.1-1.7 2-2.7 2.8-1.1.8-1.6 2.2-.9 3.4.6 1.1 2.3 1.7 3.4.9 5.3-3.8 8.4-9.5 8.9-16 .5-6.3-1.5-12.8-5-18-4.2-6.2-10.7-10.2-18.1-11-6-.7-11.9 1-16.9 4.4-4.4 3-8.9 6-13.4 9-7.3 4.9-14.7 9.8-22 14.7-2.9 2-5.9 3.9-8.8 5.9-1.5 1-3.1 1.9-4.5 3-.1.1-.1.1-.2.1 1 .1 2 .3 3 .4-7.9-7.1-15.9-14.2-23.8-21.4-1.1-1-2.3-2-3.4-3-1-.9-2.5-1-3.5 0-3.7 3.8-7.5 7.6-11.2 11.4-6 6.1-11.9 12.2-17.9 18.3-1.4 1.4-2.8 2.8-4.1 4.2-.9 1-1 2.6 0 3.5l10.7 10.7c3.5 3.5 6.9 7.2 10.5 10.5 3.8 3.6 8 6.8 11.9 10.2 2.4 2.1 4.8 4.1 7.2 6.2 1.9 1.6 3.8 3.4 6 4.7 9.1 5.3 21.7 4.7 30.3-1.4 4.5-3.2 8.9-6.4 13.4-9.7 6.9-5 13.9-10 20.8-15 9.8-7.1 19.7-14.2 29.5-21.3.2-.1.4-.3.6-.4 1.1-.8 1.6-2.2.9-3.4-.7-1.1-2.3-1.7-3.4-.9"/><path fill="#a185d6" d="m233.242 279.362 34.174-36.087 9.802 9.283-34.174 36.087z"/><path d="M265.7 241.5c-3.8 4.1-7.7 8.1-11.5 12.2-6.1 6.5-12.3 13-18.4 19.4-1.4 1.5-2.8 3-4.3 4.5-.9 1-1 2.6 0 3.5 3.3 3.1 6.5 6.2 9.8 9.3 1 .9 2.6 1 3.5 0 3.8-4.1 7.7-8.1 11.5-12.2 6.1-6.5 12.3-13 18.4-19.4 1.4-1.5 2.8-3 4.3-4.5.9-1 1-2.6 0-3.5-3.3-3.1-6.5-6.2-9.8-9.3-2.3-2.2-5.9 1.3-3.5 3.5 3.3 3.1 6.5 6.2 9.8 9.3v-3.5c-3.8 4.1-7.7 8.1-11.5 12.2-6.1 6.5-12.3 13-18.4 19.4-1.4 1.5-2.8 3-4.3 4.5h3.5c-3.3-3.1-6.5-6.2-9.8-9.3v3.5c3.8-4.1 7.7-8.1 11.5-12.2 6.1-6.5 12.3-13 18.4-19.4 1.4-1.5 2.8-3 4.3-4.5 2.2-2.3-1.3-5.8-3.5-3.5"/></g><g><g><path fill="#7f0909" d="m256.8 135.1-6.8-33 17.3 33z"/><path d="M258.2 134.7c-2.3-11-4.5-22-6.8-33l-2.7 1.2c5.8 11 11.6 22 17.3 33 .4-.8.9-1.5 1.3-2.3h-10.6c-1.9 0-1.9 3 0 3h10.6c1.2 0 1.8-1.3 1.3-2.3-5.8-11-11.6-22-17.3-33-.8-1.6-3.1-.4-2.7 1.2 2.3 11 4.5 22 6.8 33 .3 1.9 3.2 1.1 2.8-.8"/><path fill="#bc0808" d="m250 168.1 6.8-33h10.5z"/><path d="M251.4 168.5c2.3-11 4.5-22 6.8-33-.5.4-1 .7-1.4 1.1h10.6c-.4-.8-.9-1.5-1.3-2.3-5.8 11-11.6 22-17.3 33-.9 1.7 1.7 3.2 2.6 1.5 5.8-11 11.6-22 17.3-33 .5-1-.1-2.3-1.3-2.3h-10.6c-.6 0-1.3.5-1.4 1.1-2.3 11-4.5 22-6.8 33-.4 2 2.4 2.8 2.8.9"/><path fill="#cfb6ff" d="m232.7 135.1 17.3-33 6.8 33z"/><path d="M234 135.8c5.8-11 11.6-22 17.3-33-.9-.1-1.8-.2-2.7-.4 2.2 11 4.5 22 6.7 33 .5-.6 1-1.3 1.4-1.9h-24.1c-1.9 0-1.9 3 0 3h24.1c1 0 1.6-1 1.4-1.9-2.2-11-4.5-22-6.7-33-.3-1.3-2.2-1.5-2.7-.4-5.8 11-11.6 22-17.3 33-.9 1.8 1.7 3.4 2.6 1.6"/><path fill="#eae1ff" d="m250 168.1-17.3-33h24.1z"/><path d="M251.3 167.3c-5.8-11-11.6-22-17.3-33-.4.8-.9 1.5-1.3 2.3h24.1c-.5-.6-1-1.3-1.4-1.9-2.2 11-4.5 22-6.7 33-.4 1.9 2.5 2.7 2.9.8 2.2-11 4.5-22 6.7-33 .2-.9-.4-1.9-1.4-1.9h-24.1c-1.2 0-1.8 1.3-1.3 2.3 5.8 11 11.6 22 17.3 33 .8 1.7 3.4.1 2.5-1.6"/></g></g></svg>