<svg xmlns="http://www.w3.org/2000/svg" xml:space="preserve" viewBox="0 0 500 500"><g><path fill="#e8e8e8" d="M75.9 365.9c-9.1-6.7-11.1-19.4-4.5-28.5l57.7-79c6.7-9.1 19.4-11.1 28.5-4.5 9.1 6.7 11.1 19.4 4.5 28.5l-57.7 79c-6.6 9.2-19.4 11.2-28.5 4.5"/><path d="M77.2 363.8c-6.5-4.7-8.7-13.5-5.9-20.9.9-2.4 2.5-4.5 4.1-6.6 5-6.9 10.1-13.8 15.1-20.7 7.2-9.8 14.3-19.6 21.5-29.5 5.5-7.5 11-15.1 16.5-22.6.9-1.3 1.9-2.6 2.8-3.9 4.6-6.1 12.7-8.6 19.9-6.3 7.7 2.5 12.7 10 12.4 18-.2 4.1-2 7.7-4.4 11-4.5 6.1-9 12.3-13.5 18.4-7.1 9.8-14.3 19.5-21.4 29.3-5.9 8.1-11.9 16.3-17.8 24.4-1.3 1.8-2.6 3.6-4 5.4-3.4 4.6-8.7 7.4-14.4 7.5-3.9.1-7.7-1.2-10.9-3.5-1.1-.8-2.8-.2-3.4.9-.7 1.3-.2 2.6.9 3.4 7.5 5.4 18 5.7 25.7.6 3.2-2.1 5.4-4.9 7.6-7.8 5.1-6.9 10.1-13.9 15.2-20.8 7.4-10.1 14.8-20.3 22.2-30.4 5.5-7.6 11.1-15.2 16.6-22.8 1.2-1.6 2.5-3.2 3.5-4.9 4.7-8.1 3.9-18.4-1.8-25.7s-15.5-10.4-24.4-7.9c-5.4 1.6-9.6 5-12.9 9.5-4.5 6.1-9 12.3-13.5 18.4-7.3 10.1-14.7 20.1-22 30.2l-18 24.6c-1.2 1.6-2.4 3.2-3.6 4.9-4.5 6.2-5.6 14.5-2.8 21.7 1.7 4.2 4.4 7.7 8.1 10.4 1.1.8 2.8.2 3.4-.9.8-1.3.3-2.6-.8-3.4"/><path fill="#1e2120" d="M115.9 345.8c-6.8 9.3-21.7 33.3-40.3 19.8s-.2-35.1 6.6-44.4z"/><path d="M113.8 344.5c-7.6 10.5-19.9 29.3-35 20.1-18-11-2.9-30.4 5.7-42.2-1.1.3-2.3.6-3.4.9 11.2 8.2 22.4 16.4 33.7 24.6 2.6 1.9 5.1-2.4 2.5-4.3-11.2-8.2-22.4-16.4-33.7-24.6-1.2-.9-2.7-.1-3.4.9-5.5 7.5-11.5 15-14 24.1-2.8 10.1 1.1 19.5 10.1 24.9 18.2 11 32.5-9 41.9-21.9 1.8-2.6-2.6-5-4.4-2.5"/><path fill="#e8e8e8" d="M467.5 328.1c-4.7 10.2-16.9 14.7-27.1 10L351.6 297c-10.2-4.7-14.7-16.9-10-27.1s16.9-14.7 27.1-10l88.8 41.1c10.3 4.7 14.7 16.8 10 27.1"/><path d="M465.3 326.8c-3.3 7.1-10.9 11.5-18.7 10.5-2.7-.4-5-1.5-7.5-2.6-7.8-3.6-15.5-7.2-23.3-10.8-11.1-5.1-22.1-10.3-33.2-15.4-8.5-3.9-17-7.9-25.5-11.8-1.4-.7-2.8-1.3-4.3-2-7.1-3.3-11.4-10.6-10.5-18.4.9-8 7.1-14.3 14.9-15.7 4-.7 7.9.2 11.5 1.9 6.9 3.2 13.9 6.4 20.8 9.6 11 5.1 22 10.2 32.9 15.2 9.1 4.2 18.3 8.5 27.4 12.7 2 .9 4.1 1.9 6.1 2.8 5.4 2.5 9.3 7 10.6 12.8.8 3.8.4 7.8-1.2 11.2-.6 1.2-.4 2.7.9 3.4 1.1.6 2.9.3 3.4-.9 3.9-8.6 2.5-18.7-4-25.6-2.5-2.7-5.6-4.4-8.9-5.9-7.8-3.6-15.6-7.2-23.4-10.9-11.4-5.3-22.8-10.6-34.3-15.9-8.5-3.9-17-7.9-25.5-11.8-2-.9-4-2-6.1-2.7-8.5-2.9-18.5-.3-24.5 6.5-6.2 7.1-7.5 17.2-3.3 25.6 2.4 4.9 6.6 8.4 11.4 10.7 6.9 3.2 13.8 6.4 20.8 9.6 11.3 5.2 22.7 10.5 34 15.7 9.2 4.3 18.4 8.5 27.6 12.8 1.8.8 3.6 1.7 5.4 2.5 7.1 3.2 15.4 3 22.1-1.2 3.7-2.3 6.8-5.7 8.6-9.6.6-1.2.3-2.7-.9-3.4-1-.4-2.7-.1-3.3 1.1"/><path fill="#1e2120" d="M439.9 292.8c10.4 4.8 36.9 14.8 27.3 35.6-9.7 20.8-34.4 7.1-44.8 2.2z"/><path d="M438.6 295c11.8 5.4 32.9 13.6 27.1 30.4-7 20-29 9.3-42.1 3.1.3 1.1.6 2.3.9 3.4 5.8-12.6 11.7-25.2 17.5-37.8 1.3-2.9-3-5.4-4.3-2.5-5.8 12.6-11.7 25.2-17.5 37.8-.5 1.1-.4 2.8.9 3.4 15.7 7.3 39.6 17.7 48.8-4.3 8.5-20.3-13.8-31-28.7-37.8-2.9-1.4-5.5 2.9-2.6 4.3"/><path fill="#606060" d="M137.3 172.8s-42.1-58.3 8.4-96.6v10.5s10.3-21.3 39.5-35.3S236 22.3 236 22.3v14.3s40.8-19.8 68-24c0 0 10.5 14.5 15.3 35.3l6-12.3s24 20 32 46l2-11s43.1 54.7 4.8 97.4z"/><path d="M139.5 171.6c-1.4-1.9-2.6-3.9-3.7-6-1.3-2.2-2.5-4.5-3.6-6.8-.7-1.4-1.3-2.7-1.9-4.1 0-.1-.3-.7-.1-.2l-.3-.6c-.1-.3-.3-.7-.4-1-.3-.8-.7-1.7-1-2.5-1.2-3.3-2.3-6.8-3.1-10.2-1-3.9-1.5-7.4-1.8-11.2-.7-8.4.2-16.4 3.1-24.3 3.8-10.4 11.4-19.4 20.3-26.1-1.3-.7-2.5-1.4-3.8-2.2v10.5c0 2.4 3.5 3.6 4.7 1.3 1.3-2.6 3-5.1 4.7-7.4.2-.3.4-.6.6-.8-.3.4.3-.3.4-.5.5-.7 1-1.3 1.6-1.9 1.1-1.4 2.3-2.7 3.6-4 3-3.1 6.1-6 9.5-8.6 4.1-3.2 8.4-6 13-8.5 5.5-3 11.2-5.6 16.7-8.4 9.2-4.8 18.2-9.9 27-15.4 4.2-2.6 8.3-5.2 12.3-8.1-1.3-.7-2.5-1.4-3.8-2.2v14.3c0 2 2.1 3 3.8 2.2 5-2.4 10.1-4.7 15.2-6.9 10.5-4.5 21.8-8.8 32.9-12.2 6.3-1.9 12.7-3.6 19.3-4.6-.9-.4-1.9-.8-2.8-1.1 4.8 6.6 8.4 14.3 11.2 21.9 1.5 4.2 2.8 8.4 3.8 12.8.5 2 3.6 2.5 4.6.6l6-12.3c-1.3.2-2.6.3-3.9.5 3 2.5 5.8 5.3 8.5 8.2 6 6.4 11.4 13.4 15.8 21 2.9 5 5.3 10.2 7 15.7.7 2.2 4.4 2.6 4.8 0 .7-3.7 1.3-7.3 2-11-1.4.4-2.8.7-4.2 1.1.1.2-.5-.7-.1-.1.3.4.6.8.8 1.1 1 1.4 2 2.8 2.9 4.3 3.1 4.8 5.8 9.8 8.1 14.9.3.7.7 1.5 1 2.3.2.5.6 1.4.9 2.2.7 1.7 1.3 3.5 1.9 5.2 1.2 3.7 2.3 7.5 3 11.3 1.5 7.9 1.9 16.3.4 24.3-2 10.6-7 20.3-14.2 28.3.6-.2 1.2-.5 1.8-.7-2 0-4 .1-6.1.1-5.5.1-11 .2-16.5.4-8.1.2-16.3.4-24.4.5l-29.7.6c-10.9.2-21.8.5-32.6.7-10.9.2-21.9.5-32.8.7-10.2.2-20.5.4-30.7.7l-26 .6c-6.2.1-12.4.3-18.7.4-2.9.1-5.9.1-8.8.2h-.4c-3.2.1-3.2 5.1 0 5 3.4-.1 6.9-.1 10.3-.2l26.8-.6c12.6-.3 25.2-.5 37.9-.8l42.9-.9 42.3-.9c12-.3 24-.5 36-.8 8-.2 16-.3 23.9-.5 1.9 0 3.8-.1 5.6-.1h.9c2-.1 3.5-2.6 4.7-4.1 1.8-2.3 3.5-4.6 5-7.1 5.2-8.6 8.1-18.4 8.7-28.5.5-8.9-.8-18-3.4-26.5-3.5-11.9-9.1-23.4-16.4-33.4-.5-.7-1-1.4-1.5-2-1.1-1.4-3.9-.6-4.2 1.1-.7 3.7-1.3 7.3-2 11h4.8C354.3 64.2 342.9 49.1 330 37c-1-.9-2-1.9-3.1-2.8-1.1-1-3.2-1.1-3.9.5L317 47c1.5.2 3 .4 4.6.6-2.7-11.9-7.5-23.5-14.1-33.8-.4-.7-.9-1.4-1.4-2-.7-1-1.6-1.3-2.8-1.1-12 1.9-23.6 5.8-35 10-9.6 3.6-19 7.5-28.3 11.7-1.8.8-3.6 1.6-5.4 2.5 1.3.7 2.5 1.4 3.8 2.2V22.8c0-1.8-2.2-3.3-3.8-2.2-11.4 8.1-23.7 15.2-36 21.8-10.3 5-21.2 9.6-30.7 16.6-6.7 4.9-12.8 10.5-17.9 17-2.3 3-4.7 6.1-6.4 9.5 1.6.4 3.1.8 4.7 1.3V76.3c0-1.7-2.2-3.3-3.8-2.2-8.7 6.6-16.3 14.9-20.8 24.9-3.7 8.2-5.4 17.1-5.2 26.1.3 14.4 5.1 28.6 12 41.2 1.5 2.7 3 5.3 4.8 7.8.8 1.1 2.2 1.6 3.4.9 1-.7 1.6-2.3.8-3.4"/><path fill="#fff" d="M381.1 349.2c-.2-6-2.6-18-5.4-31.8l-.1-.5c-3-14.8-6.6-33.2-6.8-41.2-.1-5 .1-12.2.1-19.8v-.4c0-15.6.1-37.1-1.4-51.2-1.2-11.5-5.6-40.7-19.2-62.5-12.6-20.2-27.9-33.2-47.9-41.4-18.4-7.4-52.1-8.3-53-8.3-8.6 0-30.7.7-49.1 8.1-20.1 8.1-35.3 21.3-47.9 41.5-13.6 21.8-17.9 51-19.1 62.5-1.5 14.1-1.4 35.5-1.2 51.2v3.6c0 6.3 0 12.3-.1 16.6-.2 8.1-3.9 26.5-6.9 41.3l-.1.6c-2.7 13.8-5.1 25.7-5.4 31.7-.6 15.4 3.8 25.7 14.9 35.8 7.1 6.4 14 9.5 21.7 9.5 4.1 0 7.8-.8 11.9-1.8 1.1-.3 2.3-.6 3.5-1.1 4 2.2 11.7 5.6 21.7 5.6 6.5 0 14.1-1.4 22.4-5.4 4.8 3.9 9.7 7.5 9.7 7.5 12.9 7.3 24 8.8 25.6 8.8h.4c1.6 0 12.7-.9 26.1-8.8 0 0 4.3-3.1 8.8-6.7 7.7 3.4 14.7 4.6 20.8 4.6 10.9 0 19-3.9 22.7-6.1 1.8.7 3.3 1.3 4.9 1.7 4 1 7.7 1.8 11.8 1.8 7.8 0 14.4-2.9 21.6-9.5 11.3-10.1 15.6-20.5 15-35.9"/><path fill="#1e2120" d="M380.7 356.5c-84.8 10.8-171.7 12.1-262.7 0 0 0 6.3 29.3 26.3 33.9s41.3-14.2 53-11.9 34.9 27.3 52.1 26 40.2-27.8 51.7-26.5 40.3 18.3 51.8 13.5 27.7-16.2 27.8-35"/><path fill="#e8e8e8" d="M381.7 356.5c-84.8 10.8-171.7 12.1-262.7 0-2.1-.3 10.9-77.3 13-77 83.3 8.5 162.1 8.1 237 0 2.7-.9 10.5 70.5 12.7 77"/><path fill="#e8e8e8" d="M368 278.5c-74.9 8.1-153.7 8.5-237 0v-19c83.3 8.5 162.1 8.1 237 0z"/><path fill="#c8c8c8" d="M285.5 387.9s8-6.1 16.8-7c8.8-1 23.8 5.5 23.8 5.5s-4.9 10-14.2 9.8c-9.4-.3-26.4-8.3-26.4-8.3M170.6 386.9s8-6.1 16.8-7 23.8 5.5 23.8 5.5-4.9 10-14.2 9.8-26.4-8.3-26.4-8.3"/><path d="M383.9 349.4c-.2-6.1-2.7-18.4-5.5-32.5l-.1-.5c-3-15.1-6.5-33.9-6.7-42.1-.1-5.1.4-12.5.4-20.3v-.4c0-16-.1-37.9-1.7-52.2-1.2-11.8-5.8-41.6-19.7-63.8-12.9-20.6-28.5-33.9-49-42.2-18.8-7.6-53.2-8.4-54.2-8.4-8.8 0-31.3.7-50.1 8.3-20.5 8.3-36 21.7-48.9 42.3-13.9 22.2-18.3 52.1-19.5 63.8-1.5 14.4-1.4 36.3-1.3 52.3v3.7c0 6.5 0 12.5-.1 16.9-.2 8.3-4 27-7 42.1l-.2.6c-2.8 14.1-5.2 26.3-5.5 32.4-.6 15.7 3.8 26.3 15.2 36.6 7.3 6.6 14.3 9.7 22.1 9.7 4.2 0 8-.8 12.1-1.9 1.1-.3 2.3-.7 3.5-1.1 4.1 2.3 11.9 5.7 22.2 5.7 6.7 0 14.4-1.4 22.9-5.5 4.9 4 9.9 7.4 10 7.4 13.2 7.5 24.5 8.7 26.2 8.7h.4c1.7 0 13-.7 26.7-8.7 0 0 4.4-3.1 8.9-6.7 7.8 3.5 15 4.8 21.3 4.8 11.2 0 19.4-4 23.2-6.2 1.8.7 3.4 1.3 5 1.7 4.1 1 7.9 1.9 12.1 1.9 7.9 0 14.7-3 22.1-9.6 11.4-10.5 15.8-21.1 15.2-36.8m-207.3 39.5c6.1-2.6 13.6-5.5 20.1-5.5 4.4 0 7.6 1.3 10.4 4.1l.2.2c-13.2 5.4-24 3.7-30.7 1.2m114.5-.5c.3-.3.6-.5.8-.8 2.8-2.8 6-4.2 10.4-4.2 6.1 0 13 2.5 18.9 5-6.5 2.5-17.1 4.8-30.1 0m72.7-7.8c-6 5.4-11.1 7.8-17.2 7.8-3.4 0-6.6-.7-10.4-1.6-2-.5-4.5-1.6-7.7-3l-.5-.2c-7-3.2-16.7-7.4-25.8-7.4-6.3 0-11.3 2.1-15.6 6.3-11 11.2-21.9 15.7-29.1 17.5-.1 0-7.1 1.9-15.2-.3-8.2-2.3-19.2-6.1-30.1-17.2-4.1-4.2-9.2-6.3-15.6-6.3-9 0-18.6 4.2-25.9 7.4l-.3.1c-3.3 1.4-5.8 2.6-7.9 3.1-3.8.9-7 1.6-10.4 1.6-6 0-11.3-2.4-17.2-7.8-9.8-8.9-13.3-17.3-12.8-30.9.2-5.5 2.6-17.4 5.4-31.2l.1-.6c3.2-16.1 6.9-34.4 7.2-43.4.1-4.5.1-10.6.1-17.1v-3.7c-.1-15.8-.3-37.5 1.2-51.4 1.2-11.3 5.4-39.8 18.5-60.7 12-19.3 26.5-31.8 45.4-39.5 17.6-7.1 39-8.2 47.4-8.2.8 0 33.8.8 51.4 7.9 19 7.7 33.4 20.4 45.5 39.6 13.1 21 17.8 49.5 19 60.8 1.5 14 1.8 35.7 1.8 51.5v.4c0 7.8-.6 15.2-.5 20.4.2 8.9 3.7 27.2 6.9 43.4v.5c2.8 13.8 5.1 25.8 5.3 31.3.4 13.6-3.1 22-13 30.9"/><path d="M324.2 191.9c0 10.6-8.6 19.1-19.1 19.1-10.6 0-19.1-8.6-19.1-19.1 0-.9.1-1.8.2-2.6 1.2.8 2.6 1.3 4.1 1.3 4 0 7.2-3.2 7.2-7.2 0-2.9-1.7-5.4-4.1-6.5 3.2-2.5 7.3-4 11.7-4 10.5-.1 19.1 8.5 19.1 19M214.1 191.9c0 10.6-8.6 19.1-19.1 19.1-10.6 0-19.1-8.6-19.1-19.1 0-.9.1-1.8.2-2.6 1.2.8 2.6 1.3 4.1 1.3 4 0 7.2-3.2 7.2-7.2 0-2.9-1.7-5.4-4.1-6.5 3.2-2.5 7.3-4 11.7-4 10.5-.1 19.1 8.5 19.1 19"/><ellipse cx="166.4" cy="228.6" fill="#f68694" rx="7.4" ry="3.4" transform="rotate(-44.198 166.406 228.55)"/><ellipse cx="180.5" cy="229.7" fill="#f68694" rx="7.4" ry="3.4" transform="rotate(-44.198 180.46 229.72)"/><ellipse cx="194.5" cy="229.7" fill="#f68694" rx="7.4" ry="3.4" transform="rotate(-44.198 194.513 229.721)"/><ellipse cx="333.9" cy="229.7" fill="#f68694" rx="7.4" ry="3.4" transform="rotate(224.198 333.885 229.722)"/><ellipse cx="319.8" cy="230.9" fill="#f68694" rx="7.4" ry="3.4" transform="rotate(224.198 319.83 230.893)"/><ellipse cx="305.8" cy="230.9" fill="#f68694" rx="7.4" ry="3.4" transform="rotate(224.198 305.777 230.893)"/><path d="M170.7 172.2c15.8 7.2 31.7 6.9 47.5 0 2.9-1.3.4-5.6-2.5-4.3-14 6.1-28.5 6.4-42.5 0-2.8-1.4-5.4 2.9-2.5 4.3M284.8 168.3c5.8-5.2 12.7-9.8 20.7-9.8 8.1 0 15 4.5 20.7 9.8 2.4 2.2 5.9-1.4 3.5-3.5-6.8-6.1-14.8-11.2-24.3-11.2-9.4 0-17.5 5.1-24.3 11.2-2.3 2.1 1.3 5.6 3.7 3.5M131 262c78.8 8 158.2 8.5 237 0 3.2-.3 3.2-5.3 0-5-78.8 8.5-158.2 8-237 0-3.2-.3-3.2 4.7 0 5M131 281c78.8 8 158.2 8.5 237 0 3.2-.3 3.2-5.3 0-5-78.8 8.5-158.2 8-237 0-3.2-.3-3.2 4.7 0 5M118 358c68.3 9 137.4 10.8 206.1 5.7 18.9-1.4 37.7-3.3 56.5-5.7 3.1-.4 3.2-5.4 0-5-67.3 8.5-135.3 10.9-202.9 6.1-20-1.4-39.9-3.5-59.7-6.1-3.2-.4-3.1 4.6 0 5"/><path fill="#1e2120" d="M220.4 125.9h58.3v14.8h-58.3z"/><path d="M278.7 138.2h-58.3l2.5 2.5v-14.8l-2.5 2.5h58.3l-2.5-2.5v14.8c0 3.2 5 3.2 5 0v-14.8c0-1.4-1.1-2.5-2.5-2.5h-58.3c-1.4 0-2.5 1.1-2.5 2.5v14.8c0 1.4 1.1 2.5 2.5 2.5h58.3c3.2 0 3.2-5 0-5"/><path fill="#1e2120" d="m181.6 138.5-30.7 5.3 12-16.3 16.4-3.6z"/><path d="M181 136.1c-9 1.5-17.9 3.1-26.9 4.6-1.3.2-2.6.4-3.8.7.9 1.2 1.9 2.4 2.8 3.7 4-5.4 8-10.8 12-16.3-.5.4-1 .8-1.5 1.1 5.5-1.2 11-2.4 16.4-3.6-1-.6-2.1-1.2-3.1-1.7.8 4.9 1.5 9.7 2.3 14.6.2 1.3 1.9 2.1 3.1 1.7 1.4-.4 2-1.7 1.7-3.1-.8-4.9-1.5-9.7-2.3-14.6-.2-1.4-1.9-2-3.1-1.7-5.2 1.1-10.5 2.3-15.7 3.4-1 .2-1.7.5-2.3 1.4l-1.5 2.1-6 8.1c-1.5 2-2.9 4-4.4 6-.6.8-.4 2.1.2 2.8.7.8 1.6 1.1 2.6.9 9-1.5 17.9-3.1 26.9-4.6 1.3-.2 2.6-.4 3.8-.7 1.3-.2 2.1-1.9 1.7-3.1-.2-1.4-1.6-1.9-2.9-1.7"/><path fill="#1e2120" d="m322.8 143 30.8 5.3-12-16.3-16.5-3.6z"/><path d="M322.2 145.4c9 1.5 17.9 3.1 26.9 4.6 1.3.2 2.6.4 3.8.7 1 .2 2 0 2.6-.9.5-.7.8-2 .2-2.8-3.3-4.4-6.5-8.9-9.8-13.3-1-1.4-2.2-3.7-3.9-4.1-2.7-.7-5.5-1.2-8.2-1.8s-5.3-1.2-8-1.7c-1.2-.3-2.9.4-3.1 1.7-.8 4.9-1.5 9.7-2.3 14.6-.2 1.3.4 2.6 1.8 3 1.2.3 2.9-.4 3.1-1.7.8-4.9 1.5-9.7 2.3-14.6-1 .6-2.1 1.2-3.1 1.7 5.5 1.2 11 2.4 16.4 3.6-.5-.4-1-.8-1.5-1.1 4 5.4 8 10.8 12 16.3.9-1.2 1.9-2.4 2.8-3.7-9-1.5-17.9-3.1-26.9-4.6-1.3-.2-2.6-.4-3.8-.7-1.3-.2-2.7.4-3.1 1.7-.3 1.2.4 2.9 1.8 3.1M226 222.9c4.5 4.8 12.2 4.7 18.2 4.8 6.8.1 13.7 0 20.5-.1 3.2 0 3.2-5 0-5-5.6.1-11.2.1-16.7.1-5.6 0-14.3 1.2-18.5-3.3-2.2-2.4-5.7 1.2-3.5 3.5"/><circle cx="198.9" cy="134.4" r="23.1" fill="#606060"/><path d="M219.5 134.4c-.3 11.2-9.1 20.6-20.6 20.6-11.3 0-20.5-9.4-20.6-20.6s9.4-20.6 20.6-20.6c11.5 0 20.3 9.4 20.6 20.6.1 3.2 5.1 3.2 5 0-.3-10.6-6.5-20.1-16.5-23.9-10.1-3.8-22-.7-28.8 7.7-14.8 18.1 1.5 45.5 24.4 41.4 12.2-2.2 20.6-13 20.9-25.1.1-3.3-4.9-3.3-5-.1"/><circle cx="198.9" cy="134.4" r="14.9" fill="#4edadd"/><path d="M212.3 134.4c-.3 7.3-5.9 13.4-13.4 13.4-7.3 0-13.4-6.1-13.4-13.4s6.1-13.4 13.4-13.4c7.6 0 13.1 6.1 13.4 13.4.1 1.9 3.1 1.9 3 0-.4-8.9-7.2-16.4-16.4-16.4-8.9 0-16.4 7.5-16.4 16.4 0 9 7.5 16.4 16.4 16.4 9.2 0 16-7.5 16.4-16.4.1-1.9-2.9-1.9-3 0"/><circle cx="300.9" cy="134.4" r="23.1" fill="#606060"/><path d="M321.5 134.4c-.3 11.2-9.1 20.6-20.6 20.6-11.3 0-20.5-9.4-20.6-20.6s9.4-20.6 20.6-20.6c11.5 0 20.3 9.4 20.6 20.6.1 3.2 5.1 3.2 5 0-.3-10.6-6.5-20.1-16.5-23.9-10.1-3.8-22-.7-28.8 7.7-14.8 18.1 1.5 45.5 24.4 41.4 12.2-2.2 20.6-13 20.9-25.1.1-3.3-4.9-3.3-5-.1"/><circle cx="300.9" cy="134.4" r="14.9" fill="#4edadd"/><path d="M314.3 134.4c-.3 7.3-5.9 13.4-13.4 13.4-7.3 0-13.4-6.1-13.4-13.4s6.1-13.4 13.4-13.4c7.6 0 13.1 6.1 13.4 13.4.1 1.9 3.1 1.9 3 0-.4-8.9-7.2-16.4-16.4-16.4-8.9 0-16.4 7.5-16.4 16.4 0 9 7.5 16.4 16.4 16.4 9.2 0 16-7.5 16.4-16.4.1-1.9-2.9-1.9-3 0M370.8 288c-54.7 5.3-109.6 8.3-164.5 6.5-1.4 0-2.5 1.2-2.5 2.5l-1.2 63.9c-.1 3.2 4.9 3.2 5 0l1.2-63.9-2.5 2.5c54.9 1.8 109.8-1.2 164.5-6.5 3.1-.3 3.2-5.3 0-5"/><circle cx="223.8" cy="314.3" r="7.8" fill="#606060"/><path d="M229 314.3v.6c0 .5 0 .1 0 0-.1.3-.1.7-.2 1-.1.2-.1.4-.2.6 0-.1.2-.4 0 0s-.4.7-.6 1c-.3.5.2-.2 0 .1-.1.1-.2.3-.3.4s-.9.8-.4.4c-.3.2-.6.4-.8.6-.1.1-.2.1-.4.2-.4.2.3-.1-.3.1-.3.1-.7.2-1 .3-.1 0-.6.1-.1 0h-1.6c-.4 0 .6.1-.1 0-.2 0-.4-.1-.6-.1-.2-.1-.4-.1-.6-.2-.1 0-.4-.2 0 0-.3-.2-.6-.3-.9-.5-.1-.1-.3-.2-.4-.3-.3-.2.4.4 0-.1-.3-.3-.6-.6-.8-.9.3.3.1.1 0 0-.1-.2-.2-.3-.3-.5-.1-.1-.1-.2-.2-.4 0-.1-.3-.7-.1-.1-.1-.3-.2-.6-.3-1 0-.1-.1-.3-.1-.4-.1-.5 0 .4 0-.3v-1c0-.1.1-.8 0-.2 0-.1 0-.3.1-.4.1-.3.2-.7.3-1 .2-.6-.3.4.1-.2.1-.2.2-.4.3-.5s.2-.3.3-.4.4-.4 0-.1c.2-.3.4-.5.7-.7 0 0 .5-.4.2-.2s.2-.2.2-.2c.3-.2.7-.4 1.1-.6-.1 0-.5.2 0 0 .2-.1.4-.1.6-.2.1 0 .3-.1.4-.1 0 0 .7-.1.3-.1-.4.1.3 0 .3 0h1c.6 0-.3-.1.2 0l1.2.3c.6.2-.2-.2.1 0l.6.3c.1.1.2.1.3.2s.2.2.3.2c-.2-.2-.3-.2 0 0l.7.7c.5.5-.2-.4.1.1.1.2.2.3.3.5s.2.4.3.5c.3.4-.1-.4.1.2l.3 1.2c0 .1 0 .5 0 0-.1.6-.1.9-.1 1.2 0 1.3 1.1 2.6 2.5 2.5 1.3-.1 2.5-1.1 2.5-2.5-.1-4.4-2.8-8.1-6.8-9.6-3.9-1.5-8.6-.2-11.2 3-2.7 3.4-3.3 8.1-1 11.9s6.6 5.6 10.9 4.8c4.8-.9 8.1-5.3 8.2-10 0-1.3-1.2-2.6-2.5-2.5-1.5-.1-2.6.9-2.6 2.4"/><circle cx="142.9" cy="270.1" r="3.9" fill="#606060"/><path d="M145.3 270.1v.3-.1c0 .1-.1.4-.1.5s-.1.2-.1.3c0 0 .2-.3 0-.1-.1.2-.2.4-.3.5-.2.3.2-.1 0 0-.1 0-.1.1-.2.2l-.1.1-.1.1c-.1.1-.1.1.1 0-.1.1-.3.2-.4.3-.1 0-.1.1-.2.1-.3.1.3-.1-.1 0-.2.1-.3.1-.5.1h-.1.1-.8c-.2 0 .4.1 0 0-.1 0-.2 0-.3-.1-.1 0-.2-.1-.3-.1-.2-.1 0 0 .1 0-.1 0-.4-.2-.4-.2-.1 0-.1-.1-.2-.1-.2-.1.3.2 0 0-.1-.1-.4-.3-.4-.4 0 0 .2.2 0 .1-.1-.1-.1-.2-.2-.3 0-.1-.1-.1-.1-.2v-.1c-.1-.1-.1-.1 0 .1-.1-.1-.1-.4-.2-.5v-.2c-.1-.3 0 .3 0-.1v-.6.1-.2c0-.2.1-.3.1-.5.1-.3-.2.3 0 0 .1-.1.1-.2.1-.3s.1-.1.1-.2c.1-.2 0-.1 0 0 0-.1.3-.3.3-.4 0 0 .2-.3.1-.1s0 0 .1-.1.4-.3.5-.3c0 0-.4.1-.1 0 .1 0 .2-.1.3-.1s.1 0 .2-.1c0 0 .4-.1.1 0s.1 0 .1 0h.6c.3 0-.3-.1 0 0 .2.1.4.1.6.2.3.1-.2-.1 0 0 .1.1.2.1.3.2.1 0 .1.1.2.1s.1.1.2.1c-.2-.1-.2-.1-.1 0l.4.4c.2.2-.2-.3 0 0 .1.1.1.2.2.3s.1.2.1.3c.1.3-.1-.3 0 0 .1.2.1.4.2.6 0 .2.1 0 0-.1.2.2.1.4.2.5 0 .8.7 1.5 1.5 1.5s1.5-.7 1.5-1.5c0-2.3-1.5-4.3-3.6-5.1-2-.8-4.5-.1-5.9 1.6-1.4 1.8-1.7 4.3-.6 6.2 1.2 2 3.5 2.9 5.7 2.5 2.5-.4 4.3-2.8 4.3-5.3 0-.8-.7-1.5-1.5-1.5-.8.2-1.4.8-1.4 1.6"/><circle cx="223.8" cy="346.3" r="7.8" fill="#606060"/><path d="M229 346.3v.6c0 .5 0 .1 0 0-.1.3-.1.7-.2 1-.1.2-.1.4-.2.6 0-.1.2-.4 0 0s-.4.7-.6 1c-.3.5.2-.2 0 .1-.1.1-.2.3-.3.4s-.9.8-.4.4c-.3.2-.6.4-.8.6-.1.1-.2.1-.4.2-.4.2.3-.1-.3.1-.3.1-.7.2-1 .3-.1 0-.6.1-.1 0h-1.6c-.4 0 .6.1-.1 0-.2 0-.4-.1-.6-.1-.2-.1-.4-.1-.6-.2-.1 0-.4-.2 0 0-.3-.2-.6-.3-.9-.5-.1-.1-.3-.2-.4-.3-.3-.2.4.4 0-.1-.3-.3-.6-.6-.8-.9.3.3.1.1 0 0-.1-.2-.2-.3-.3-.5-.1-.1-.1-.2-.2-.4 0-.1-.3-.7-.1-.1-.1-.3-.2-.6-.3-1 0-.1-.1-.3-.1-.4-.1-.5 0 .4 0-.3v-1c0-.1.1-.8 0-.2 0-.1 0-.3.1-.4.1-.3.2-.7.3-1 .2-.6-.3.4.1-.2.1-.2.2-.4.3-.5s.2-.3.3-.4.4-.4 0-.1c.2-.3.4-.5.7-.7 0 0 .5-.4.2-.2s.2-.2.2-.2c.3-.2.7-.4 1.1-.6-.1 0-.5.2 0 0 .2-.1.4-.1.6-.2.1 0 .3-.1.4-.1 0 0 .7-.1.3-.1-.4.1.3 0 .3 0h1c.6 0-.3-.1.2 0l1.2.3c.6.2-.2-.2.1 0l.6.3c.1.1.2.1.3.2s.2.2.3.2c-.2-.2-.3-.2 0 0l.7.7c.5.5-.2-.4.1.1.1.2.2.3.3.5s.2.4.3.5c.3.4-.1-.4.1.2l.3 1.2c0 .1 0 .5 0 0-.1.6-.1.9-.1 1.2 0 1.3 1.1 2.6 2.5 2.5 1.3-.1 2.5-1.1 2.5-2.5-.1-4.4-2.8-8.1-6.8-9.6-3.9-1.5-8.6-.2-11.2 3-2.7 3.4-3.3 8.1-1 11.9s6.6 5.6 10.9 4.8c4.8-.9 8.1-5.3 8.2-10 0-1.3-1.2-2.6-2.5-2.5-1.5-.1-2.6.9-2.6 2.4"/><path fill="#fff" d="M484.6 297.8c0 17.2-14 31.1-31.1 31.1s-31.1-13.9-31.1-31.1c0-13.9 8.7-25.7 21.7-29.6V242h-.1c-3.4 0-6.3-2.7-6.3-6.2 0-1.7.7-3.1 1.8-4.2s2.7-1.6 4.4-1.6h18.7c3.4 0 6.3 2.6 6.3 6.1 0 1.7-.6 3.2-1.7 4.3s-3.1 1.7-4.1 1.7v26c11.9 4 21.5 15.8 21.5 29.7"/><path d="M481.9 297.8c-.5 22.4-25.9 36.6-44.8 23.5-19.4-13.4-14.3-43.3 7.6-50.7 1.1-.4 1.8-1.3 1.8-2.4v-26c0-1.4-1.1-2.5-2.5-2.5-4.5 0-4.6-5.4-1.5-7 1.3-.7 1.2-.4 2.4-.5 2.5-.3 5.2 0 7.8 0s5.3-.1 7.9 0c.6 0 1.2-.1 1.8 0 5.1.9 4.6 6.8-.5 7.6-1.1.2-1.8 1.4-1.8 2.4v26c0 1.2.8 2.1 1.8 2.4 12 4 19.8 14.7 20 27.2.1 3.2 5.1 3.2 5 0-.3-14.8-9.5-27.3-23.6-32l1.8 2.4v-26l-1.8 2.4c7.8-1.2 11-11.4 3.9-16-4-2.7-11.1-1.4-15.6-1.4-5 0-11.3-1.1-14.8 3.5-4.3 5.7 0 14 7.1 14l-2.5-2.5v26l1.8-2.4c-25.4 8.6-31.9 42.8-9.8 59.1 22.1 16.2 52.8-.4 53.4-27.1.2-3.2-4.8-3.2-4.9 0"/><path fill="#4edadd" d="M476.8 297.2c0 12.9-10.5 23.4-23.4 23.4S430 310.1 430 297.2"/></g><g><g><path fill="#4edadd" d="m256.8 135.1-6.8-33 17.3 33z"/><path d="M258.2 134.7c-2.3-11-4.5-22-6.8-33l-2.7 1.2c5.8 11 11.6 22 17.3 33 .4-.8.9-1.5 1.3-2.3h-10.6c-1.9 0-1.9 3 0 3h10.6c1.2 0 1.8-1.3 1.3-2.3-5.8-11-11.6-22-17.3-33-.8-1.6-3.1-.4-2.7 1.2 2.3 11 4.5 22 6.8 33 .3 1.9 3.2 1.1 2.8-.8"/><path fill="#92ffff" d="m250 168.1 6.8-33h10.5z"/><path d="M251.4 168.5c2.3-11 4.5-22 6.8-33-.5.4-1 .7-1.4 1.1h10.6c-.4-.8-.9-1.5-1.3-2.3-5.8 11-11.6 22-17.3 33-.9 1.7 1.7 3.2 2.6 1.5 5.8-11 11.6-22 17.3-33 .5-1-.1-2.3-1.3-2.3h-10.6c-.6 0-1.3.5-1.4 1.1-2.3 11-4.5 22-6.8 33-.4 2 2.4 2.8 2.8.9"/><path fill="#1e2120" d="m232.7 135.1 17.3-33 6.8 33z"/><path d="M234 135.8c5.8-11 11.6-22 17.3-33-.9-.1-1.8-.2-2.7-.4 2.2 11 4.5 22 6.7 33 .5-.6 1-1.3 1.4-1.9h-24.1c-1.9 0-1.9 3 0 3h24.1c1 0 1.6-1 1.4-1.9-2.2-11-4.5-22-6.7-33-.3-1.3-2.2-1.5-2.7-.4-5.8 11-11.6 22-17.3 33-.9 1.8 1.7 3.4 2.6 1.6"/><path fill="#575958" d="m250 168.1-17.3-33h24.1z"/><path d="M251.3 167.3c-5.8-11-11.6-22-17.3-33-.4.8-.9 1.5-1.3 2.3h24.1c-.5-.6-1-1.3-1.4-1.9-2.2 11-4.5 22-6.7 33-.4 1.9 2.5 2.7 2.9.8 2.2-11 4.5-22 6.7-33 .2-.9-.4-1.9-1.4-1.9h-24.1c-1.2 0-1.8 1.3-1.3 2.3 5.8 11 11.6 22 17.3 33 .8 1.7 3.4.1 2.5-1.6"/></g></g></svg>