<?xml version="1.0" encoding="utf-8"?>
<!-- Generator: Adobe Illustrator 18.1.1, SVG Export Plug-In . SVG Version: 6.00 Build 0)  -->
<svg version="1.1" xmlns="http://www.w3.org/2000/svg" xmlns:xlink="http://www.w3.org/1999/xlink" x="0px" y="0px"
	 viewBox="0 0 500 500" enable-background="new 0 0 500 500" xml:space="preserve">
<g id="Layer_1">
	<g>
		<g>
			<path fill="#E8E8E8" d="M75.9,365.9L75.9,365.9c-9.1-6.7-11.1-19.4-4.5-28.5l57.7-79c6.7-9.1,19.4-11.1,28.5-4.5l0,0
				c9.1,6.7,11.1,19.4,4.5,28.5l-57.7,79C97.8,370.6,85,372.6,75.9,365.9z"/>
			<g>
				<path d="M77.2,363.8c-6.5-4.7-8.7-13.5-5.9-20.9c0.9-2.4,2.5-4.5,4.1-6.6c5-6.9,10.1-13.8,15.1-20.7
					c7.2-9.8,14.3-19.6,21.5-29.5c5.5-7.5,11-15.1,16.5-22.6c0.9-1.3,1.9-2.6,2.8-3.9c4.6-6.1,12.7-8.6,19.9-6.3
					c7.7,2.5,12.7,10,12.4,18c-0.2,4.1-2,7.7-4.4,11c-4.5,6.1-9,12.3-13.5,18.4c-7.1,9.8-14.3,19.5-21.4,29.3
					c-5.9,8.1-11.9,16.3-17.8,24.4c-1.3,1.8-2.6,3.6-4,5.4c-3.4,4.6-8.7,7.4-14.4,7.5C84.2,367.4,80.4,366.1,77.2,363.8
					c-1.1-0.8-2.8-0.2-3.4,0.9c-0.7,1.3-0.2,2.6,0.9,3.4c7.5,5.4,18,5.7,25.7,0.6c3.2-2.1,5.4-4.9,7.6-7.8
					c5.1-6.9,10.1-13.9,15.2-20.8c7.4-10.1,14.8-20.3,22.2-30.4c5.5-7.6,11.1-15.2,16.6-22.8c1.2-1.6,2.5-3.2,3.5-4.9
					c4.7-8.1,3.9-18.4-1.8-25.7c-5.7-7.3-15.5-10.4-24.4-7.9c-5.4,1.6-9.6,5-12.9,9.5c-4.5,6.1-9,12.3-13.5,18.4
					c-7.3,10.1-14.7,20.1-22,30.2c-6,8.2-12,16.4-18,24.6c-1.2,1.6-2.4,3.2-3.6,4.9c-4.5,6.2-5.6,14.5-2.8,21.7
					c1.7,4.2,4.4,7.7,8.1,10.4c1.1,0.8,2.8,0.2,3.4-0.9C78.8,365.9,78.3,364.6,77.2,363.8z"/>
			</g>
		</g>
		<g>
			<path fill="#1E2120" d="M115.9,345.8c-6.8,9.3-21.7,33.3-40.3,19.8s-0.2-35.1,6.6-44.4L115.9,345.8z"/>
			<g>
				<path d="M113.8,344.5c-7.6,10.5-19.9,29.3-35,20.1c-18-11-2.9-30.4,5.7-42.2c-1.1,0.3-2.3,0.6-3.4,0.9
					c11.2,8.2,22.4,16.4,33.7,24.6c2.6,1.9,5.1-2.4,2.5-4.3c-11.2-8.2-22.4-16.4-33.7-24.6c-1.2-0.9-2.7-0.1-3.4,0.9
					c-5.5,7.5-11.5,15-14,24.1c-2.8,10.1,1.1,19.5,10.1,24.9c18.2,11,32.5-9,41.9-21.9C120,344.4,115.6,342,113.8,344.5z"/>
			</g>
		</g>
	</g>
	<g>
		<g>
			<path fill="#E8E8E8" d="M467.5,328.1L467.5,328.1c-4.7,10.2-16.9,14.7-27.1,10l-88.8-41.1c-10.2-4.7-14.7-16.9-10-27.1l0,0
				c4.7-10.2,16.9-14.7,27.1-10l88.8,41.1C467.8,305.7,472.2,317.8,467.5,328.1z"/>
			<g>
				<path d="M465.3,326.8c-3.3,7.1-10.9,11.5-18.7,10.5c-2.7-0.4-5-1.5-7.5-2.6c-7.8-3.6-15.5-7.2-23.3-10.8
					c-11.1-5.1-22.1-10.3-33.2-15.4c-8.5-3.9-17-7.9-25.5-11.8c-1.4-0.7-2.8-1.3-4.3-2c-7.1-3.3-11.4-10.6-10.5-18.4
					c0.9-8,7.1-14.3,14.9-15.7c4-0.7,7.9,0.2,11.5,1.9c6.9,3.2,13.9,6.4,20.8,9.6c11,5.1,22,10.2,32.9,15.2
					c9.1,4.2,18.3,8.5,27.4,12.7c2,0.9,4.1,1.9,6.1,2.8c5.4,2.5,9.3,7,10.6,12.8C467.3,319.4,466.9,323.4,465.3,326.8
					c-0.6,1.2-0.4,2.7,0.9,3.4c1.1,0.6,2.9,0.3,3.4-0.9c3.9-8.6,2.5-18.7-4-25.6c-2.5-2.7-5.6-4.4-8.9-5.9
					c-7.8-3.6-15.6-7.2-23.4-10.9c-11.4-5.3-22.8-10.6-34.3-15.9c-8.5-3.9-17-7.9-25.5-11.8c-2-0.9-4-2-6.1-2.7
					c-8.5-2.9-18.5-0.3-24.5,6.5c-6.2,7.1-7.5,17.2-3.3,25.6c2.4,4.9,6.6,8.4,11.4,10.7c6.9,3.2,13.8,6.4,20.8,9.6
					c11.3,5.2,22.7,10.5,34,15.7c9.2,4.3,18.4,8.5,27.6,12.8c1.8,0.8,3.6,1.7,5.4,2.5c7.1,3.2,15.4,3,22.1-1.2
					c3.7-2.3,6.8-5.7,8.6-9.6c0.6-1.2,0.3-2.7-0.9-3.4C467.6,325.3,465.9,325.6,465.3,326.8z"/>
			</g>
		</g>
		<g>
			<path fill="#1E2120" d="M439.9,292.8c10.4,4.8,36.9,14.8,27.3,35.6c-9.7,20.8-34.4,7.1-44.8,2.2L439.9,292.8z"/>
			<g>
				<path d="M438.6,295c11.8,5.4,32.9,13.6,27.1,30.4c-7,20-29,9.3-42.1,3.1c0.3,1.1,0.6,2.3,0.9,3.4c5.8-12.6,11.7-25.2,17.5-37.8
					c1.3-2.9-3-5.4-4.3-2.5c-5.8,12.6-11.7,25.2-17.5,37.8c-0.5,1.1-0.4,2.8,0.9,3.4c15.7,7.3,39.6,17.7,48.8-4.3
					c8.5-20.3-13.8-31-28.7-37.8C438.3,289.3,435.7,293.6,438.6,295z"/>
			</g>
		</g>
	</g>
	<g>
		<path fill="#606060" d="M137.3,172.8c0,0-42.1-58.3,8.4-96.6v10.5c0,0,10.3-21.3,39.5-35.3S236,22.3,236,22.3v14.3
			c0,0,40.8-19.8,68-24c0,0,10.5,14.5,15.3,35.3l6-12.3c0,0,24,20,32,46l2-11c0,0,43.1,54.7,4.8,97.4L137.3,172.8z"/>
		<g>
			<path d="M139.5,171.6c-1.4-1.9-2.6-3.9-3.7-6c-1.3-2.2-2.5-4.5-3.6-6.8c-0.7-1.4-1.3-2.7-1.9-4.1c0-0.1-0.3-0.7-0.1-0.2
				c-0.1-0.2-0.2-0.4-0.3-0.6c-0.1-0.3-0.3-0.7-0.4-1c-0.3-0.8-0.7-1.7-1-2.5c-1.2-3.3-2.3-6.8-3.1-10.2c-1-3.9-1.5-7.4-1.8-11.2
				c-0.7-8.4,0.2-16.4,3.1-24.3c3.8-10.4,11.4-19.4,20.3-26.1c-1.3-0.7-2.5-1.4-3.8-2.2c0,3.5,0,7,0,10.5c0,2.4,3.5,3.6,4.7,1.3
				c1.3-2.6,3-5.1,4.7-7.4c0.2-0.3,0.4-0.6,0.6-0.8c-0.3,0.4,0.3-0.3,0.4-0.5c0.5-0.7,1-1.3,1.6-1.9c1.1-1.4,2.3-2.7,3.6-4
				c3-3.1,6.1-6,9.5-8.6c4.1-3.2,8.4-6,13-8.5c5.5-3,11.2-5.6,16.7-8.4c9.2-4.8,18.2-9.9,27-15.4c4.2-2.6,8.3-5.2,12.3-8.1
				c-1.3-0.7-2.5-1.4-3.8-2.2c0,4.8,0,9.5,0,14.3c0,2,2.1,3,3.8,2.2c5-2.4,10.1-4.7,15.2-6.9c10.5-4.5,21.8-8.8,32.9-12.2
				c6.3-1.9,12.7-3.6,19.3-4.6c-0.9-0.4-1.9-0.8-2.8-1.1c4.8,6.6,8.4,14.3,11.2,21.9c1.5,4.2,2.8,8.4,3.8,12.8
				c0.5,2,3.6,2.5,4.6,0.6c2-4.1,4-8.2,6-12.3c-1.3,0.2-2.6,0.3-3.9,0.5c3,2.5,5.8,5.3,8.5,8.2c6,6.4,11.4,13.4,15.8,21
				c2.9,5,5.3,10.2,7,15.7c0.7,2.2,4.4,2.6,4.8,0c0.7-3.7,1.3-7.3,2-11c-1.4,0.4-2.8,0.7-4.2,1.1c0.1,0.2-0.5-0.7-0.1-0.1
				c0.3,0.4,0.6,0.8,0.8,1.1c1,1.4,2,2.8,2.9,4.3c3.1,4.8,5.8,9.8,8.1,14.9c0.3,0.7,0.7,1.5,1,2.3c0.2,0.5,0.6,1.4,0.9,2.2
				c0.7,1.7,1.3,3.5,1.9,5.2c1.2,3.7,2.3,7.5,3,11.3c1.5,7.9,1.9,16.3,0.4,24.3c-2,10.6-7,20.3-14.2,28.3c0.6-0.2,1.2-0.5,1.8-0.7
				c-2,0-4,0.1-6.1,0.1c-5.5,0.1-11,0.2-16.5,0.4c-8.1,0.2-16.3,0.4-24.4,0.5c-9.9,0.2-19.8,0.4-29.7,0.6
				c-10.9,0.2-21.8,0.5-32.6,0.7c-10.9,0.2-21.9,0.5-32.8,0.7c-10.2,0.2-20.5,0.4-30.7,0.7c-8.7,0.2-17.3,0.4-26,0.6
				c-6.2,0.1-12.4,0.3-18.7,0.4c-2.9,0.1-5.9,0.1-8.8,0.2c-0.1,0-0.3,0-0.4,0c-3.2,0.1-3.2,5.1,0,5c3.4-0.1,6.9-0.1,10.3-0.2
				c8.9-0.2,17.9-0.4,26.8-0.6c12.6-0.3,25.2-0.5,37.9-0.8c14.3-0.3,28.6-0.6,42.9-0.9c14.1-0.3,28.2-0.6,42.3-0.9
				c12-0.3,24-0.5,36-0.8c8-0.2,16-0.3,23.9-0.5c1.9,0,3.8-0.1,5.6-0.1c0.3,0,0.6,0,0.9,0c2-0.1,3.5-2.6,4.7-4.1
				c1.8-2.3,3.5-4.6,5-7.1c5.2-8.6,8.1-18.4,8.7-28.5c0.5-8.9-0.8-18-3.4-26.5c-3.5-11.9-9.1-23.4-16.4-33.4c-0.5-0.7-1-1.4-1.5-2
				c-1.1-1.4-3.9-0.6-4.2,1.1c-0.7,3.7-1.3,7.3-2,11c1.6,0,3.2,0,4.8,0c-5.3-17.1-16.7-32.2-29.6-44.3c-1-0.9-2-1.9-3.1-2.8
				c-1.1-1-3.2-1.1-3.9,0.5c-2,4.1-4,8.2-6,12.3c1.5,0.2,3,0.4,4.6,0.6c-2.7-11.9-7.5-23.5-14.1-33.8c-0.4-0.7-0.9-1.4-1.4-2
				c-0.7-1-1.6-1.3-2.8-1.1c-12,1.9-23.6,5.8-35,10c-9.6,3.6-19,7.5-28.3,11.7c-1.8,0.8-3.6,1.6-5.4,2.5c1.3,0.7,2.5,1.4,3.8,2.2
				c0-4.8,0-9.5,0-14.3c0-1.8-2.2-3.3-3.8-2.2c-11.4,8.1-23.7,15.2-36,21.8C188.3,47.4,177.4,52,167.9,59
				c-6.7,4.9-12.8,10.5-17.9,17c-2.3,3-4.7,6.1-6.4,9.5c1.6,0.4,3.1,0.8,4.7,1.3c0-3.5,0-7,0-10.5c0-1.7-2.2-3.3-3.8-2.2
				c-8.7,6.6-16.3,14.9-20.8,24.9c-3.7,8.2-5.4,17.1-5.2,26.1c0.3,14.4,5.1,28.6,12,41.2c1.5,2.7,3,5.3,4.8,7.8
				c0.8,1.1,2.2,1.6,3.4,0.9C139.7,174.3,140.3,172.7,139.5,171.6z"/>
		</g>
	</g>
	<path fill="#FFFFFF" d="M381.1,349.2c-0.2-6-2.6-18-5.4-31.8l-0.1-0.5c-3-14.8-6.6-33.2-6.8-41.2c-0.1-5,0.1-12.2,0.1-19.8v-0.4
		c0-15.6,0.1-37.1-1.4-51.2c-1.2-11.5-5.6-40.7-19.2-62.5c-12.6-20.2-27.9-33.2-47.9-41.4c-18.4-7.4-52.1-8.3-53-8.3
		c-8.6,0-30.7,0.7-49.1,8.1c-20.1,8.1-35.3,21.3-47.9,41.5c-13.6,21.8-17.9,51-19.1,62.5c-1.5,14.1-1.4,35.5-1.2,51.2l0,3.6
		c0,6.3,0,12.3-0.1,16.6c-0.2,8.1-3.9,26.5-6.9,41.3l-0.1,0.6c-2.7,13.8-5.1,25.7-5.4,31.7c-0.6,15.4,3.8,25.7,14.9,35.8
		c7.1,6.4,14,9.5,21.7,9.5c4.1,0,7.8-0.8,11.9-1.8c1.1-0.3,2.3-0.6,3.5-1.1c4,2.2,11.7,5.6,21.7,5.6c6.5,0,14.1-1.4,22.4-5.4
		c4.8,3.9,9.7,7.5,9.7,7.5c12.9,7.3,24,8.8,25.6,8.8h0.4c1.6,0,12.7-0.9,26.1-8.8c0,0,4.3-3.1,8.8-6.7c7.7,3.4,14.7,4.6,20.8,4.6
		c10.9,0,19-3.9,22.7-6.1c1.8,0.7,3.3,1.3,4.9,1.7c4,1,7.7,1.8,11.8,1.8c7.8,0,14.4-2.9,21.6-9.5C377.4,375,381.7,364.6,381.1,349.2
		z"/>
	<g>
		<path fill="#1E2120" d="M380.7,356.5c-84.8,10.8-171.7,12.1-262.7,0c0,0,6.3,29.3,26.3,33.9c20,4.6,41.3-14.2,53-11.9
			s34.9,27.3,52.1,26s40.2-27.8,51.7-26.5s40.3,18.3,51.8,13.5S380.6,375.3,380.7,356.5z"/>
	</g>
	<g>
		<path fill="#E8E8E8" d="M381.7,356.5c-84.8,10.8-171.7,12.1-262.7,0c-2.1-0.3,10.9-77.3,13-77c83.3,8.5,162.1,8.1,237,0
			C371.7,278.6,379.5,350,381.7,356.5z"/>
	</g>
	<g>
		<path fill="#E8E8E8" d="M368,278.5c-74.9,8.1-153.7,8.5-237,0v-19c83.3,8.5,162.1,8.1,237,0V278.5z"/>
	</g>
	<path fill="#C8C8C8" d="M285.5,387.9c0,0,8-6.1,16.8-7c8.8-1,23.8,5.5,23.8,5.5s-4.9,10-14.2,9.8
		C302.5,395.9,285.5,387.9,285.5,387.9z"/>
	<path fill="#C8C8C8" d="M170.6,386.9c0,0,8-6.1,16.8-7s23.8,5.5,23.8,5.5s-4.9,10-14.2,9.8S170.6,386.9,170.6,386.9z"/>
	<path d="M383.9,349.4c-0.2-6.1-2.7-18.4-5.5-32.5l-0.1-0.5c-3-15.1-6.5-33.9-6.7-42.1c-0.1-5.1,0.4-12.5,0.4-20.3v-0.4
		c0-16-0.1-37.9-1.7-52.2c-1.2-11.8-5.8-41.6-19.7-63.8c-12.9-20.6-28.5-33.9-49-42.2c-18.8-7.6-53.2-8.4-54.2-8.4
		c-8.8,0-31.3,0.7-50.1,8.3c-20.5,8.3-36,21.7-48.9,42.3c-13.9,22.2-18.3,52.1-19.5,63.8c-1.5,14.4-1.4,36.3-1.3,52.3l0,3.7
		c0,6.5,0,12.5-0.1,16.9c-0.2,8.3-4,27-7,42.1l-0.2,0.6c-2.8,14.1-5.2,26.3-5.5,32.4c-0.6,15.7,3.8,26.3,15.2,36.6
		c7.3,6.6,14.3,9.7,22.1,9.7c4.2,0,8-0.8,12.1-1.9c1.1-0.3,2.3-0.7,3.5-1.1c4.1,2.3,11.9,5.7,22.2,5.7c6.7,0,14.4-1.4,22.9-5.5
		c4.9,4,9.9,7.4,10,7.4c13.2,7.5,24.5,8.7,26.2,8.7h0.4c1.7,0,13-0.7,26.7-8.7c0,0,4.4-3.1,8.9-6.7c7.8,3.5,15,4.8,21.3,4.8
		c11.2,0,19.4-4,23.2-6.2c1.8,0.7,3.4,1.3,5,1.7c4.1,1,7.9,1.9,12.1,1.9c7.9,0,14.7-3,22.1-9.6C380.1,375.7,384.5,365.1,383.9,349.4
		z M176.6,388.9c6.1-2.6,13.6-5.5,20.1-5.5c4.4,0,7.6,1.3,10.4,4.1l0.2,0.2C194.1,393.1,183.3,391.4,176.6,388.9z M291.1,388.4
		c0.3-0.3,0.6-0.5,0.8-0.8c2.8-2.8,6-4.2,10.4-4.2c6.1,0,13,2.5,18.9,5C314.7,390.9,304.1,393.2,291.1,388.4z M363.8,380.6
		c-6,5.4-11.1,7.8-17.2,7.8c-3.4,0-6.6-0.7-10.4-1.6c-2-0.5-4.5-1.6-7.7-3l-0.5-0.2c-7-3.2-16.7-7.4-25.8-7.4
		c-6.3,0-11.3,2.1-15.6,6.3c-11,11.2-21.9,15.7-29.1,17.5c-0.1,0-7.1,1.9-15.2-0.3c-8.2-2.3-19.2-6.1-30.1-17.2
		c-4.1-4.2-9.2-6.3-15.6-6.3c-9,0-18.6,4.2-25.9,7.4l-0.3,0.1c-3.3,1.4-5.8,2.6-7.9,3.1c-3.8,0.9-7,1.6-10.4,1.6
		c-6,0-11.3-2.4-17.2-7.8c-9.8-8.9-13.3-17.3-12.8-30.9c0.2-5.5,2.6-17.4,5.4-31.2l0.1-0.6c3.2-16.1,6.9-34.4,7.2-43.4
		c0.1-4.5,0.1-10.6,0.1-17.1l0-3.7c-0.1-15.8-0.3-37.5,1.2-51.4c1.2-11.3,5.4-39.8,18.5-60.7c12-19.3,26.5-31.8,45.4-39.5
		c17.6-7.1,39-8.2,47.4-8.2c0.8,0,33.8,0.8,51.4,7.9c19,7.7,33.4,20.4,45.5,39.6c13.1,21,17.8,49.5,19,60.8
		c1.5,14,1.8,35.7,1.8,51.5v0.4c0,7.8-0.6,15.2-0.5,20.4c0.2,8.9,3.7,27.2,6.9,43.4l0,0.5c2.8,13.8,5.1,25.8,5.3,31.3
		C377.2,363.3,373.7,371.7,363.8,380.6z"/>
	<path d="M324.2,191.9c0,10.6-8.6,19.1-19.1,19.1c-10.6,0-19.1-8.6-19.1-19.1c0-0.9,0.1-1.8,0.2-2.6c1.2,0.8,2.6,1.3,4.1,1.3
		c4,0,7.2-3.2,7.2-7.2c0-2.9-1.7-5.4-4.1-6.5c3.2-2.5,7.3-4,11.7-4C315.6,172.8,324.2,181.4,324.2,191.9z"/>
	<path d="M214.1,191.9c0,10.6-8.6,19.1-19.1,19.1c-10.6,0-19.1-8.6-19.1-19.1c0-0.9,0.1-1.8,0.2-2.6c1.2,0.8,2.6,1.3,4.1,1.3
		c4,0,7.2-3.2,7.2-7.2c0-2.9-1.7-5.4-4.1-6.5c3.2-2.5,7.3-4,11.7-4C205.5,172.8,214.1,181.4,214.1,191.9z"/>
	
		<ellipse transform="matrix(0.7169 -0.6971 0.6971 0.7169 -112.2272 180.7014)" fill="#F68694" cx="166.4" cy="228.6" rx="7.4" ry="3.4"/>
	
		<ellipse transform="matrix(0.7169 -0.6971 0.6971 0.7169 -109.0657 190.8302)" fill="#F68694" cx="180.5" cy="229.7" rx="7.4" ry="3.4"/>
	
		<ellipse transform="matrix(0.7169 -0.6971 0.6971 0.7169 -105.0878 200.6274)" fill="#F68694" cx="194.5" cy="229.7" rx="7.4" ry="3.4"/>
	
		<ellipse transform="matrix(-0.7169 -0.6971 0.6971 -0.7169 413.1115 627.1812)" fill="#F68694" cx="333.9" cy="229.7" rx="7.4" ry="3.4"/>
	
		<ellipse transform="matrix(-0.7169 -0.6971 0.6971 -0.7169 388.1657 619.3947)" fill="#F68694" cx="319.8" cy="230.9" rx="7.4" ry="3.4"/>
	
		<ellipse transform="matrix(-0.7169 -0.6971 0.6971 -0.7169 364.0363 609.5975)" fill="#F68694" cx="305.8" cy="230.9" rx="7.4" ry="3.4"/>
	<g>
		<g>
			<path d="M170.7,172.2c15.8,7.2,31.7,6.9,47.5,0c2.9-1.3,0.4-5.6-2.5-4.3c-14,6.1-28.5,6.4-42.5,0
				C170.4,166.5,167.8,170.8,170.7,172.2L170.7,172.2z"/>
		</g>
	</g>
	<g>
		<g>
			<path d="M284.8,168.3c5.8-5.2,12.7-9.8,20.7-9.8c8.1,0,15,4.5,20.7,9.8c2.4,2.2,5.9-1.4,3.5-3.5c-6.8-6.1-14.8-11.2-24.3-11.2
				c-9.4,0-17.5,5.1-24.3,11.2C278.8,166.9,282.4,170.4,284.8,168.3L284.8,168.3z"/>
		</g>
	</g>
	<g>
		<g>
			<path d="M131,262c78.8,8,158.2,8.5,237,0c3.2-0.3,3.2-5.3,0-5c-78.8,8.5-158.2,8-237,0C127.8,256.7,127.8,261.7,131,262L131,262z
				"/>
		</g>
	</g>
	<g>
		<g>
			<path d="M131,281c78.8,8,158.2,8.5,237,0c3.2-0.3,3.2-5.3,0-5c-78.8,8.5-158.2,8-237,0C127.8,275.7,127.8,280.7,131,281L131,281z
				"/>
		</g>
	</g>
	<g>
		<g>
			<path d="M118,358c68.3,9,137.4,10.8,206.1,5.7c18.9-1.4,37.7-3.3,56.5-5.7c3.1-0.4,3.2-5.4,0-5c-67.3,8.5-135.3,10.9-202.9,6.1
				c-20-1.4-39.9-3.5-59.7-6.1C114.8,352.6,114.9,357.6,118,358L118,358z"/>
		</g>
	</g>
	<g>
		<rect x="220.4" y="125.9" fill="#1E2120" width="58.3" height="14.8"/>
		<g>
			<path d="M278.7,138.2c-6.6,0-13.1,0-19.7,0c-10.5,0-20.9,0-31.4,0c-2.4,0-4.8,0-7.2,0c0.8,0.8,1.7,1.7,2.5,2.5
				c0-4.9,0-9.9,0-14.8c-0.8,0.8-1.7,1.7-2.5,2.5c6.6,0,13.1,0,19.7,0c10.5,0,20.9,0,31.4,0c2.4,0,4.8,0,7.2,0
				c-0.8-0.8-1.7-1.7-2.5-2.5c0,4.9,0,9.9,0,14.8c0,3.2,5,3.2,5,0c0-4.9,0-9.9,0-14.8c0-1.4-1.1-2.5-2.5-2.5c-6.6,0-13.1,0-19.7,0
				c-10.5,0-20.9,0-31.4,0c-2.4,0-4.8,0-7.2,0c-1.4,0-2.5,1.1-2.5,2.5c0,4.9,0,9.9,0,14.8c0,1.4,1.1,2.5,2.5,2.5
				c6.6,0,13.1,0,19.7,0c10.5,0,20.9,0,31.4,0c2.4,0,4.8,0,7.2,0C281.9,143.2,281.9,138.2,278.7,138.2z"/>
		</g>
	</g>
	<g>
		<polygon fill="#1E2120" points="181.6,138.5 150.9,143.8 162.9,127.5 179.3,123.9 		"/>
		<g>
			<path d="M181,136.1c-9,1.5-17.9,3.1-26.9,4.6c-1.3,0.2-2.6,0.4-3.8,0.7c0.9,1.2,1.9,2.4,2.8,3.7c4-5.4,8-10.8,12-16.3
				c-0.5,0.4-1,0.8-1.5,1.1c5.5-1.2,11-2.4,16.4-3.6c-1-0.6-2.1-1.2-3.1-1.7c0.8,4.9,1.5,9.7,2.3,14.6c0.2,1.3,1.9,2.1,3.1,1.7
				c1.4-0.4,2-1.7,1.7-3.1c-0.8-4.9-1.5-9.7-2.3-14.6c-0.2-1.4-1.9-2-3.1-1.7c-5.2,1.1-10.5,2.3-15.7,3.4c-1,0.2-1.7,0.5-2.3,1.4
				c-0.5,0.7-1,1.4-1.5,2.1c-2,2.7-4,5.4-6,8.1c-1.5,2-2.9,4-4.4,6c-0.6,0.8-0.4,2.1,0.2,2.8c0.7,0.8,1.6,1.1,2.6,0.9
				c9-1.5,17.9-3.1,26.9-4.6c1.3-0.2,2.6-0.4,3.8-0.7c1.3-0.2,2.1-1.9,1.7-3.1C183.7,136.4,182.3,135.9,181,136.1z"/>
		</g>
	</g>
	<g>
		<polygon fill="#1E2120" points="322.8,143 353.6,148.3 341.6,132 325.1,128.4 		"/>
		<g>
			<path d="M322.2,145.4c9,1.5,17.9,3.1,26.9,4.6c1.3,0.2,2.6,0.4,3.8,0.7c1,0.2,2,0,2.6-0.9c0.5-0.7,0.8-2,0.2-2.8
				c-3.3-4.4-6.5-8.9-9.8-13.3c-1-1.4-2.2-3.7-3.9-4.1c-2.7-0.7-5.5-1.2-8.2-1.8c-2.7-0.6-5.3-1.2-8-1.7c-1.2-0.3-2.9,0.4-3.1,1.7
				c-0.8,4.9-1.5,9.7-2.3,14.6C320.2,143.7,320.8,145,322.2,145.4c1.2,0.3,2.9-0.4,3.1-1.7c0.8-4.9,1.5-9.7,2.3-14.6
				c-1,0.6-2.1,1.2-3.1,1.7c5.5,1.2,11,2.4,16.4,3.6c-0.5-0.4-1-0.8-1.5-1.1c4,5.4,8,10.8,12,16.3c0.9-1.2,1.9-2.4,2.8-3.7
				c-9-1.5-17.9-3.1-26.9-4.6c-1.3-0.2-2.6-0.4-3.8-0.7c-1.3-0.2-2.7,0.4-3.1,1.7C320.1,143.5,320.8,145.2,322.2,145.4z"/>
		</g>
	</g>
	<g>
		<g>
			<path d="M226,222.9c4.5,4.8,12.2,4.7,18.2,4.8c6.8,0.1,13.7,0,20.5-0.1c3.2,0,3.2-5,0-5c-5.6,0.1-11.2,0.1-16.7,0.1
				c-5.6,0-14.3,1.2-18.5-3.3C227.3,217,223.8,220.6,226,222.9L226,222.9z"/>
		</g>
	</g>
	<g>
		<circle fill="#606060" cx="198.9" cy="134.4" r="23.1"/>
		<g>
			<path d="M219.5,134.4c-0.3,11.2-9.1,20.6-20.6,20.6c-11.3,0-20.5-9.4-20.6-20.6c-0.1-11.2,9.4-20.6,20.6-20.6
				C210.4,113.8,219.2,123.2,219.5,134.4c0.1,3.2,5.1,3.2,5,0c-0.3-10.6-6.5-20.1-16.5-23.9c-10.1-3.8-22-0.7-28.8,7.7
				c-14.8,18.1,1.5,45.5,24.4,41.4c12.2-2.2,20.6-13,20.9-25.1C224.6,131.2,219.6,131.2,219.5,134.4z"/>
		</g>
	</g>
	<g>
		<circle fill="#4EDADD" cx="198.9" cy="134.4" r="14.9"/>
		<g>
			<path d="M212.3,134.4c-0.3,7.3-5.9,13.4-13.4,13.4c-7.3,0-13.4-6.1-13.4-13.4c0-7.3,6.1-13.4,13.4-13.4
				C206.5,121,212,127.1,212.3,134.4c0.1,1.9,3.1,1.9,3,0c-0.4-8.9-7.2-16.4-16.4-16.4c-8.9,0-16.4,7.5-16.4,16.4
				c0,9,7.5,16.4,16.4,16.4c9.2,0,16-7.5,16.4-16.4C215.4,132.5,212.4,132.5,212.3,134.4z"/>
		</g>
	</g>
	<g>
		<circle fill="#606060" cx="300.9" cy="134.4" r="23.1"/>
		<g>
			<path d="M321.5,134.4c-0.3,11.2-9.1,20.6-20.6,20.6c-11.3,0-20.5-9.4-20.6-20.6c-0.1-11.2,9.4-20.6,20.6-20.6
				C312.4,113.8,321.2,123.2,321.5,134.4c0.1,3.2,5.1,3.2,5,0c-0.3-10.6-6.5-20.1-16.5-23.9c-10.1-3.8-22-0.7-28.8,7.7
				c-14.8,18.1,1.5,45.5,24.4,41.4c12.2-2.2,20.6-13,20.9-25.1C326.6,131.2,321.6,131.2,321.5,134.4z"/>
		</g>
	</g>
	<g>
		<circle fill="#4EDADD" cx="300.9" cy="134.4" r="14.9"/>
		<g>
			<path d="M314.3,134.4c-0.3,7.3-5.9,13.4-13.4,13.4c-7.3,0-13.4-6.1-13.4-13.4c0-7.3,6.1-13.4,13.4-13.4
				C308.5,121,314,127.1,314.3,134.4c0.1,1.9,3.1,1.9,3,0c-0.4-8.9-7.2-16.4-16.4-16.4c-8.9,0-16.4,7.5-16.4,16.4
				c0,9,7.5,16.4,16.4,16.4c9.2,0,16-7.5,16.4-16.4C317.4,132.5,314.4,132.5,314.3,134.4z"/>
		</g>
	</g>
	<g>
		<g>
			<path d="M370.8,288c-54.7,5.3-109.6,8.3-164.5,6.5c-1.4,0-2.5,1.2-2.5,2.5c-0.4,21.3-0.8,42.6-1.2,63.9c-0.1,3.2,4.9,3.2,5,0
				c0.4-21.3,0.8-42.6,1.2-63.9c-0.8,0.8-1.7,1.7-2.5,2.5c54.9,1.8,109.8-1.2,164.5-6.5C373.9,292.7,374,287.7,370.8,288L370.8,288z
				"/>
		</g>
	</g>
	<g>
		<circle fill="#606060" cx="223.8" cy="314.3" r="7.8"/>
		<g>
			<path d="M229,314.3c0,0.2,0,0.4,0,0.6c0,0.5,0,0.1,0,0c-0.1,0.3-0.1,0.7-0.2,1c-0.1,0.2-0.1,0.4-0.2,0.6c0-0.1,0.2-0.4,0,0
				c-0.2,0.4-0.4,0.7-0.6,1c-0.3,0.5,0.2-0.2,0,0.1c-0.1,0.1-0.2,0.3-0.3,0.4c-0.1,0.1-0.9,0.8-0.4,0.4c-0.3,0.2-0.6,0.4-0.8,0.6
				c-0.1,0.1-0.2,0.1-0.4,0.2c-0.4,0.2,0.3-0.1-0.3,0.1c-0.3,0.1-0.7,0.2-1,0.3c-0.1,0-0.6,0.1-0.1,0c-0.2,0-0.4,0-0.5,0
				c-0.4,0-0.7,0-1.1,0c-0.4,0,0.6,0.1-0.1,0c-0.2,0-0.4-0.1-0.6-0.1c-0.2-0.1-0.4-0.1-0.6-0.2c-0.1,0-0.4-0.2,0,0
				c-0.3-0.2-0.6-0.3-0.9-0.5c-0.1-0.1-0.3-0.2-0.4-0.3c-0.3-0.2,0.4,0.4,0-0.1c-0.3-0.3-0.6-0.6-0.8-0.9c0.3,0.3,0.1,0.1,0,0
				c-0.1-0.2-0.2-0.3-0.3-0.5c-0.1-0.1-0.1-0.2-0.2-0.4c0-0.1-0.3-0.7-0.1-0.1c-0.1-0.3-0.2-0.6-0.3-1c0-0.1-0.1-0.3-0.1-0.4
				c-0.1-0.5,0,0.4,0-0.3c0-0.3,0-0.6,0-1c0-0.1,0.1-0.8,0-0.2c0-0.1,0-0.3,0.1-0.4c0.1-0.3,0.2-0.7,0.3-1c0.2-0.6-0.3,0.4,0.1-0.2
				c0.1-0.2,0.2-0.4,0.3-0.5c0.1-0.1,0.2-0.3,0.3-0.4c0.1-0.1,0.4-0.4,0-0.1c0.2-0.3,0.4-0.5,0.7-0.7c0,0,0.5-0.4,0.2-0.2
				c-0.3,0.2,0.2-0.2,0.2-0.2c0.3-0.2,0.7-0.4,1.1-0.6c-0.1,0-0.5,0.2,0,0c0.2-0.1,0.4-0.1,0.6-0.2c0.1,0,0.3-0.1,0.4-0.1
				c0,0,0.7-0.1,0.3-0.1c-0.4,0.1,0.3,0,0.3,0c0.2,0,0.4,0,0.5,0c0.2,0,0.4,0,0.5,0c0.6,0-0.3-0.1,0.2,0c0.4,0.1,0.8,0.2,1.2,0.3
				c0.6,0.2-0.2-0.2,0.1,0c0.2,0.1,0.4,0.2,0.6,0.3c0.1,0.1,0.2,0.1,0.3,0.2c0.1,0.1,0.2,0.2,0.3,0.2c-0.2-0.2-0.3-0.2,0,0
				c0.2,0.2,0.5,0.5,0.7,0.7c0.5,0.5-0.2-0.4,0.1,0.1c0.1,0.2,0.2,0.3,0.3,0.5c0.1,0.2,0.2,0.4,0.3,0.5c0.3,0.4-0.1-0.4,0.1,0.2
				c0.1,0.4,0.2,0.8,0.3,1.2c0,0.1,0,0.5,0,0C229,313.7,229,314,229,314.3c0,1.3,1.1,2.6,2.5,2.5c1.3-0.1,2.5-1.1,2.5-2.5
				c-0.1-4.4-2.8-8.1-6.8-9.6c-3.9-1.5-8.6-0.2-11.2,3c-2.7,3.4-3.3,8.1-1,11.9c2.3,3.8,6.6,5.6,10.9,4.8c4.8-0.9,8.1-5.3,8.2-10
				c0-1.3-1.2-2.6-2.5-2.5C230.1,311.8,229,312.8,229,314.3z"/>
		</g>
	</g>
	<g>
		<circle fill="#606060" cx="142.9" cy="270.1" r="3.9"/>
		<g>
			<path d="M145.3,270.1c0,0.1,0,0.2,0,0.3c0,0.3,0-0.1,0-0.1c0,0.1-0.1,0.4-0.1,0.5c0,0.1-0.1,0.2-0.1,0.3c0,0,0.2-0.3,0-0.1
				c-0.1,0.2-0.2,0.4-0.3,0.5c-0.2,0.3,0.2-0.1,0,0c-0.1,0-0.1,0.1-0.2,0.2c0,0-0.1,0.1-0.1,0.1c0,0,0,0-0.1,0.1
				c-0.1,0.1-0.1,0.1,0.1,0c-0.1,0.1-0.3,0.2-0.4,0.3c-0.1,0-0.1,0.1-0.2,0.1c-0.3,0.1,0.3-0.1-0.1,0c-0.2,0.1-0.3,0.1-0.5,0.1
				c0,0,0,0-0.1,0c-0.2,0-0.1,0,0.1,0c0,0-0.2,0-0.3,0c-0.2,0-0.4,0-0.5,0c-0.2,0,0.4,0.1,0,0c-0.1,0-0.2,0-0.3-0.1
				c-0.1,0-0.2-0.1-0.3-0.1c-0.2-0.1,0,0,0.1,0c-0.1,0-0.4-0.2-0.4-0.2c-0.1,0-0.1-0.1-0.2-0.1c-0.2-0.1,0.3,0.2,0,0
				c-0.1-0.1-0.4-0.3-0.4-0.4c0,0,0.2,0.2,0,0.1c-0.1-0.1-0.1-0.2-0.2-0.3c0-0.1-0.1-0.1-0.1-0.2c0,0,0-0.1,0-0.1
				c-0.1-0.1-0.1-0.1,0,0.1c-0.1-0.1-0.1-0.4-0.2-0.5c0-0.1,0-0.1,0-0.2c-0.1-0.3,0,0.3,0-0.1c0-0.2,0-0.3,0-0.5c0,0,0-0.1,0-0.1
				c0-0.2,0-0.1,0,0.1c0,0,0-0.2,0-0.2c0-0.2,0.1-0.3,0.1-0.5c0.1-0.3-0.2,0.3,0,0c0.1-0.1,0.1-0.2,0.1-0.3c0-0.1,0.1-0.1,0.1-0.2
				c0.1-0.2,0-0.1,0,0c0-0.1,0.3-0.3,0.3-0.4c0,0,0.2-0.3,0.1-0.1c-0.1,0.2,0,0,0.1-0.1c0.1-0.1,0.4-0.3,0.5-0.3c0,0-0.4,0.1-0.1,0
				c0.1,0,0.2-0.1,0.3-0.1c0.1,0,0.1,0,0.2-0.1c0,0,0.4-0.1,0.1,0c-0.3,0.1,0.1,0,0.1,0c0.1,0,0.2,0,0.3,0c0.1,0,0.2,0,0.3,0
				c0.3,0-0.3-0.1,0,0c0.2,0.1,0.4,0.1,0.6,0.2c0.3,0.1-0.2-0.1,0,0c0.1,0.1,0.2,0.1,0.3,0.2c0.1,0,0.1,0.1,0.2,0.1
				c0.1,0,0.1,0.1,0.2,0.1c-0.2-0.1-0.2-0.1-0.1,0c0.1,0.1,0.2,0.2,0.4,0.4c0.2,0.2-0.2-0.3,0,0c0.1,0.1,0.1,0.2,0.2,0.3
				c0.1,0.1,0.1,0.2,0.1,0.3c0.1,0.3-0.1-0.3,0,0c0.1,0.2,0.1,0.4,0.2,0.6c0,0.2,0.1,0,0-0.1C145.3,269.8,145.2,270,145.3,270.1
				c0,0.8,0.7,1.5,1.5,1.5c0.8,0,1.5-0.7,1.5-1.5c0-2.3-1.5-4.3-3.6-5.1c-2-0.8-4.5-0.1-5.9,1.6c-1.4,1.8-1.7,4.3-0.6,6.2
				c1.2,2,3.5,2.9,5.7,2.5c2.5-0.4,4.3-2.8,4.3-5.3c0-0.8-0.7-1.5-1.5-1.5C145.9,268.7,145.3,269.3,145.3,270.1z"/>
		</g>
	</g>
	<g>
		<circle fill="#606060" cx="223.8" cy="346.3" r="7.8"/>
		<g>
			<path d="M229,346.3c0,0.2,0,0.4,0,0.6c0,0.5,0,0.1,0,0c-0.1,0.3-0.1,0.7-0.2,1c-0.1,0.2-0.1,0.4-0.2,0.6c0-0.1,0.2-0.4,0,0
				c-0.2,0.4-0.4,0.7-0.6,1c-0.3,0.5,0.2-0.2,0,0.1c-0.1,0.1-0.2,0.3-0.3,0.4c-0.1,0.1-0.9,0.8-0.4,0.4c-0.3,0.2-0.6,0.4-0.8,0.6
				c-0.1,0.1-0.2,0.1-0.4,0.2c-0.4,0.2,0.3-0.1-0.3,0.1c-0.3,0.1-0.7,0.2-1,0.3c-0.1,0-0.6,0.1-0.1,0c-0.2,0-0.4,0-0.5,0
				c-0.4,0-0.7,0-1.1,0c-0.4,0,0.6,0.1-0.1,0c-0.2,0-0.4-0.1-0.6-0.1c-0.2-0.1-0.4-0.1-0.6-0.2c-0.1,0-0.4-0.2,0,0
				c-0.3-0.2-0.6-0.3-0.9-0.5c-0.1-0.1-0.3-0.2-0.4-0.3c-0.3-0.2,0.4,0.4,0-0.1c-0.3-0.3-0.6-0.6-0.8-0.9c0.3,0.3,0.1,0.1,0,0
				c-0.1-0.2-0.2-0.3-0.3-0.5c-0.1-0.1-0.1-0.2-0.2-0.4c0-0.1-0.3-0.7-0.1-0.1c-0.1-0.3-0.2-0.6-0.3-1c0-0.1-0.1-0.3-0.1-0.4
				c-0.1-0.5,0,0.4,0-0.3c0-0.3,0-0.6,0-1c0-0.1,0.1-0.8,0-0.2c0-0.1,0-0.3,0.1-0.4c0.1-0.3,0.2-0.7,0.3-1c0.2-0.6-0.3,0.4,0.1-0.2
				c0.1-0.2,0.2-0.4,0.3-0.5c0.1-0.1,0.2-0.3,0.3-0.4c0.1-0.1,0.4-0.4,0-0.1c0.2-0.3,0.4-0.5,0.7-0.7c0,0,0.5-0.4,0.2-0.2
				c-0.3,0.2,0.2-0.2,0.2-0.2c0.3-0.2,0.7-0.4,1.1-0.6c-0.1,0-0.5,0.2,0,0c0.2-0.1,0.4-0.1,0.6-0.2c0.1,0,0.3-0.1,0.4-0.1
				c0,0,0.7-0.1,0.3-0.1c-0.4,0.1,0.3,0,0.3,0c0.2,0,0.4,0,0.5,0c0.2,0,0.4,0,0.5,0c0.6,0-0.3-0.1,0.2,0c0.4,0.1,0.8,0.2,1.2,0.3
				c0.6,0.2-0.2-0.2,0.1,0c0.2,0.1,0.4,0.2,0.6,0.3c0.1,0.1,0.2,0.1,0.3,0.2c0.1,0.1,0.2,0.2,0.3,0.2c-0.2-0.2-0.3-0.2,0,0
				c0.2,0.2,0.5,0.5,0.7,0.7c0.5,0.5-0.2-0.4,0.1,0.1c0.1,0.2,0.2,0.3,0.3,0.5c0.1,0.2,0.2,0.4,0.3,0.5c0.3,0.4-0.1-0.4,0.1,0.2
				c0.1,0.4,0.2,0.8,0.3,1.2c0,0.1,0,0.5,0,0C229,345.7,229,346,229,346.3c0,1.3,1.1,2.6,2.5,2.5c1.3-0.1,2.5-1.1,2.5-2.5
				c-0.1-4.4-2.8-8.1-6.8-9.6c-3.9-1.5-8.6-0.2-11.2,3c-2.7,3.4-3.3,8.1-1,11.9c2.3,3.8,6.6,5.6,10.9,4.8c4.8-0.9,8.1-5.3,8.2-10
				c0-1.3-1.2-2.6-2.5-2.5C230.1,343.8,229,344.8,229,346.3z"/>
		</g>
	</g>
	<g>
		<g>
			<path fill="#FFFFFF" d="M484.6,297.8c0,17.2-14,31.1-31.1,31.1c-17.1,0-31.1-13.9-31.1-31.1c0-13.9,8.7-25.7,21.7-29.6V242h-0.1
				c-3.4,0-6.3-2.7-6.3-6.2c0-1.7,0.7-3.1,1.8-4.2c1.1-1.1,2.7-1.6,4.4-1.6h18.7c3.4,0,6.3,2.6,6.3,6.1c0,1.7-0.6,3.2-1.7,4.3
				c-1.1,1.1-3.1,1.7-4.1,1.7v26C475,272.1,484.6,283.9,484.6,297.8z"/>
			<g>
				<path d="M481.9,297.8c-0.5,22.4-25.9,36.6-44.8,23.5c-19.4-13.4-14.3-43.3,7.6-50.7c1.1-0.4,1.8-1.3,1.8-2.4c0-8.7,0-17.3,0-26
					c0-1.4-1.1-2.5-2.5-2.5c-4.5,0-4.6-5.4-1.5-7c1.3-0.7,1.2-0.4,2.4-0.5c2.5-0.3,5.2,0,7.8,0c2.6,0,5.3-0.1,7.9,0
					c0.6,0,1.2-0.1,1.8,0c5.1,0.9,4.6,6.8-0.5,7.6c-1.1,0.2-1.8,1.4-1.8,2.4c0,8.7,0,17.3,0,26c0,1.2,0.8,2.1,1.8,2.4
					C473.9,274.6,481.7,285.3,481.9,297.8c0.1,3.2,5.1,3.2,5,0c-0.3-14.8-9.5-27.3-23.6-32c0.6,0.8,1.2,1.6,1.8,2.4
					c0-8.7,0-17.3,0-26c-0.6,0.8-1.2,1.6-1.8,2.4c7.8-1.2,11-11.4,3.9-16c-4-2.7-11.1-1.4-15.6-1.4c-5,0-11.3-1.1-14.8,3.5
					c-4.3,5.7,0,14,7.1,14c-0.8-0.8-1.7-1.7-2.5-2.5c0,8.7,0,17.3,0,26c0.6-0.8,1.2-1.6,1.8-2.4c-25.4,8.6-31.9,42.8-9.8,59.1
					c22.1,16.2,52.8-0.4,53.4-27.1C487,294.6,482,294.6,481.9,297.8z"/>
			</g>
		</g>
		<path fill="#4EDADD" d="M476.8,297.2c0,12.9-10.5,23.4-23.4,23.4s-23.4-10.5-23.4-23.4"/>
	</g>
</g>
<g id="Layer_2">
	<g>
		<g id="ENFJ_4_1_">
			<g>
				<polygon fill="#4EDADD" points="256.8,135.1 250,102.1 267.3,135.1 				"/>
				<g>
					<path d="M258.2,134.7c-2.3-11-4.5-22-6.8-33c-0.9,0.4-1.8,0.8-2.7,1.2c5.8,11,11.6,22,17.3,33c0.4-0.8,0.9-1.5,1.3-2.3
						c-3.5,0-7,0-10.6,0c-1.9,0-1.9,3,0,3c3.5,0,7,0,10.6,0c1.2,0,1.8-1.3,1.3-2.3c-5.8-11-11.6-22-17.3-33
						c-0.8-1.6-3.1-0.4-2.7,1.2c2.3,11,4.5,22,6.8,33C255.7,137.4,258.6,136.6,258.2,134.7z"/>
				</g>
			</g>
			<g>
				<polygon fill="#92FFFF" points="250,168.1 256.8,135.1 267.3,135.1 				"/>
				<g>
					<path d="M251.4,168.5c2.3-11,4.5-22,6.8-33c-0.5,0.4-1,0.7-1.4,1.1c3.5,0,7,0,10.6,0c-0.4-0.8-0.9-1.5-1.3-2.3
						c-5.8,11-11.6,22-17.3,33c-0.9,1.7,1.7,3.2,2.6,1.5c5.8-11,11.6-22,17.3-33c0.5-1-0.1-2.3-1.3-2.3c-3.5,0-7,0-10.6,0
						c-0.6,0-1.3,0.5-1.4,1.1c-2.3,11-4.5,22-6.8,33C248.2,169.6,251,170.4,251.4,168.5z"/>
				</g>
			</g>
			<g>
				<polygon fill="#1E2120" points="232.7,135.1 250,102.1 256.8,135.1 				"/>
				<g>
					<path d="M234,135.8c5.8-11,11.6-22,17.3-33c-0.9-0.1-1.8-0.2-2.7-0.4c2.2,11,4.5,22,6.7,33c0.5-0.6,1-1.3,1.4-1.9
						c-8,0-16,0-24.1,0c-1.9,0-1.9,3,0,3c8,0,16,0,24.1,0c1,0,1.6-1,1.4-1.9c-2.2-11-4.5-22-6.7-33c-0.3-1.3-2.2-1.5-2.7-0.4
						c-5.8,11-11.6,22-17.3,33C230.5,136,233.1,137.6,234,135.8z"/>
				</g>
			</g>
			<g>
				<polygon fill="#575958" points="250,168.1 232.7,135.1 256.8,135.1 				"/>
				<g>
					<path d="M251.3,167.3c-5.8-11-11.6-22-17.3-33c-0.4,0.8-0.9,1.5-1.3,2.3c8,0,16,0,24.1,0c-0.5-0.6-1-1.3-1.4-1.9
						c-2.2,11-4.5,22-6.7,33c-0.4,1.9,2.5,2.7,2.9,0.8c2.2-11,4.5-22,6.7-33c0.2-0.9-0.4-1.9-1.4-1.9c-8,0-16,0-24.1,0
						c-1.2,0-1.8,1.3-1.3,2.3c5.8,11,11.6,22,17.3,33C249.6,170.6,252.2,169,251.3,167.3z"/>
				</g>
			</g>
		</g>
	</g>
</g>
</svg>
