<svg xmlns="http://www.w3.org/2000/svg" xml:space="preserve" viewBox="0 0 500 500"><g><path fill="#092e54" d="m128.3 239.7 246.7-4.2s19.4-11.2 13.5-34.1-4.8-24-4.8-24 13.6-9.5 16.3-14.3 0-13.1 0-13.1-9.5 5.1-19.1-9.5-30.8-53.8-47.8-63.9-29.8-12.4-40.8-7-14.3 8-14.3 8-3.2-3-8-7.6-23.5-16.4-50.9-7.5-63.7 31.5-87.6 27.4-26.9-8.9-26.9-8.9 6.6 24.5 14 31.8 18.5 10.6 18.5 10.6-10.6 19.1-16.9 24.2-19.8 12.2-19.8 12.2l14.4 10.6c.1 0-14 50.6 13.5 69.3"/><path d="M398.5 147.5c.8 13.2-7.3 24.5-20.2 27.4-1.7.4-2.1 2.3-1.5 3.7 7.3 16.1 16.3 49.1-8.6 54.4-3.1.7-1.8 5.5 1.3 4.8 28.7-6.1 20.3-42.5 11.5-61.8-.5 1.2-1 2.4-1.5 3.7 14.9-3.5 24.8-16.9 23.8-32.3 0-3.1-5-3.1-4.8.1"/><path d="M131.5 237.3c-26.3-9.4-20.7-46.7-13.6-67.4.4-1.2-.5-2.9-1.7-3.1-7-1.1-13.7-4.5-18.4-9.8-.6 1.4-1.2 2.8-1.8 4.3 18.7-2.5 32.8-21.8 40.8-37.6.9-1.7-.2-3.7-2.2-3.8-18.8-.1-27.2-26.4-30.3-41.5-1.2.9-2.4 1.9-3.7 2.8 13.2 6.4 27.5 11.6 42.4 10.3 12.8-1.1 24.6-6.5 36.1-11.9 25.5-11.9 55.8-28 83.2-12.2 3.5 2 6.7 4.4 9.5 7.2 1 1 2.6 2.8 2.9 3.2 1 1.4 2.6 1.6 3.9.5 13.8-12.1 34.4-12 49.4-2.4 14.7 9.4 25.5 25.2 34.8 39.7 6.3 9.8 11.7 20.6 19.2 29.5 5.4 6.4 12.5 9.6 20.1 4.6 2.7-1.8.2-6.1-2.5-4.3-8.1 5.4-13.8-2.9-18-9.2-7.7-11.4-14.3-23.6-22.4-34.8-15.7-21.7-38.3-44.7-67.5-35.6-5.9 1.9-11.9 4.8-16.6 8.9 1.3.2 2.6.3 3.9.5-8.2-11.6-23.3-18-37-19.3-32.3-3-58.6 20-88.2 28.4-17.7 5-34.6.3-50.7-7.5-2-1-4.1.6-3.7 2.8 3.5 17.6 13.6 45 35.1 45.2-.7-1.3-1.4-2.5-2.2-3.8-2.8 5.5-6.3 10.8-10.1 15.7-6.5 8.4-15.3 17.9-26.4 19.3-2.1.3-3.3 2.5-1.8 4.3 5.2 5.9 12.9 9.9 20.6 11.1-.6-1-1.2-2.1-1.7-3.1-8.2 23.8-12.4 63.1 17 73.6 3.3 1.3 4.6-3.6 1.6-4.6"/><path fill="#fff" d="M87 368.4c6 9.8 21.1 23.6 35.4 15.8s3.5-31.8.2-37.3z"/><path d="M84.8 369.6c8.1 12.9 29.6 28.6 43.1 13.2 8.7-9.9 2.7-27.3-3.2-37.3-.7-1.2-2.3-1.6-3.4-.9-11.9 7.2-23.7 14.4-35.6 21.6-2.7 1.7-.2 6 2.5 4.3 11.9-7.2 23.7-14.4 35.6-21.6-1.1-.3-2.3-.6-3.4-.9 4.5 7.7 9.5 20.4 5.3 29.1-3.6 7.4-13.3 8-20 5-6.9-3-12.6-8.8-16.5-15.1-1.7-2.6-6.1-.1-4.4 2.6"/><path fill="#0c4589" d="m87.7 372.6-20.9-35c-8.1-13.3-2.7-31.6 9.7-40.9l32.6-24.4c5.7-4.4 13-5.3 19.3-3.2 3.8 1.3 7.2 3.7 9.8 7.1 7 9.1 5.2 22.2-3.9 29.2L109.9 324l16.7 25.4z"/><path d="M89.9 371.3c-5.7-9.6-11.5-19.3-17.2-28.9-2.7-4.5-5.8-9-6.7-14.3-2-11.1 3.3-22.5 11.9-29.4 8.9-7 18.1-13.6 27.2-20.4 4.8-3.6 9.5-7.7 15.9-8 14.2-.6 23.8 15 16.8 27.4-3.2 5.6-9.9 9.4-14.9 13.2-4.7 3.6-9.5 7.2-14.2 10.9-1 .8-1.7 2.2-.9 3.4 5.6 8.5 11.1 16.9 16.7 25.4.3-1.1.6-2.3.9-3.4-13 7.7-25.9 15.4-38.9 23.2-2.8 1.6-.3 6 2.5 4.3 13-7.7 25.9-15.4 38.9-23.2 1.1-.7 1.6-2.3.9-3.4-5.6-8.5-11.1-16.9-16.7-25.4-.3 1.1-.6 2.3-.9 3.4 4.7-3.6 9.5-7.2 14.2-10.9 4.9-3.8 11.2-7.5 15-12.5 6.6-8.6 6.2-20.8-.7-29.1-7.9-9.5-21.8-10.7-31.7-3.7-10.4 7.4-20.5 15.4-30.7 23-14.3 10.7-21.8 29.4-12.3 46 6.7 11.7 13.8 23.2 20.8 34.8 1.4 2.9 5.8.4 4.1-2.4"/><path fill="#fff" d="M134.8 329.5c-9.6-26.3-25.3-44.2-50.2-57.1l24.4-13.5c12.1-6.7 28.4-2.2 38.2 9s12.2 27.9 4 39.1z"/><path d="M137.2 328.8c-9.6-25.9-26.9-45.7-51.3-58.6v4.3c5.6-3.1 11.3-6.2 16.9-9.3 7.6-4.2 14.4-8.1 23.5-6.5 13.4 2.3 24.3 13.4 26.9 26.7 1.9 9.8-1.8 17.3-7.3 24.8l-13.2 18c-1.9 2.6 2.4 5.1 4.3 2.5 9.7-13.2 23.9-26.8 21.4-44.6-1.9-13.1-10.9-24.6-23-29.9-10.2-4.4-20.3-3.5-29.9 1.8-7.4 4.1-14.7 8.1-22.1 12.2-1.6.9-1.7 3.4 0 4.3 23.3 12.2 39.9 30.9 49 55.6 1.1 3 5.9 1.7 4.8-1.3"/><path fill="#fff" d="M381.1 349.2c-.2-6-2.6-18-5.4-31.8l-.1-.5c-3-14.8-6.6-33.2-6.8-41.2-.1-5 .1-12.2.1-19.8v-.4c0-15.6.1-37.1-1.4-51.2-1.2-11.5-5.6-40.7-19.2-62.5-12.6-20.2-27.9-33.2-47.9-41.4-18.4-7.4-52.1-8.3-53-8.3-8.6 0-30.7.7-49.1 8.1-20.1 8.1-35.3 21.3-47.9 41.5-13.6 21.8-17.9 51-19.1 62.5-1.5 14.1-1.4 35.5-1.2 51.2v3.6c0 6.3 0 12.3-.1 16.6-.2 8.1-3.9 26.5-6.9 41.3l-.1.6c-2.7 13.8-5.1 25.7-5.4 31.7-.6 15.4 3.8 25.7 14.9 35.8 7.1 6.4 14 9.5 21.7 9.5 4.1 0 7.8-.8 11.9-1.8 1.1-.3 2.3-.6 3.5-1.1 4 2.2 11.7 5.6 21.7 5.6 6.5 0 14.1-1.4 22.4-5.4 4.8 3.9 9.7 7.5 9.7 7.5 12.9 7.3 24 8.8 25.6 8.8h.4c1.6 0 12.7-.9 26.1-8.8 0 0 4.3-3.1 8.8-6.7 7.7 3.4 14.7 4.6 20.8 4.6 10.9 0 19-3.9 22.7-6.1 1.8.7 3.3 1.3 4.9 1.7 4 1 7.7 1.8 11.8 1.8 7.8 0 14.4-2.9 21.6-9.5 11.3-10.1 15.6-20.5 15-35.9"/><path fill="#0c4589" d="M128.7 290.9s-15.9 58.5-1.8 86.2 58.8 3.3 64.9 2.6c6.2-.7 15 .8 26.5 11.3s25 22.6 46.3 11.9 29-24.6 39.7-23.5 28.5 13.8 41.8 14.2 31.5-12.1 34-29.1-12.4-100.4-12.4-100.4-55.4 10.1-101.2 10.8c-45.7.7-132.1-9.4-132.1-9.4z"/><path fill="#092e54" d="M371.9 311c-121.4 23-247.6 0-247.6 0l-1 9s128.4 23 251.8 0z"/><path fill="#c8c8c8" d="M285.5 389.9s8-6.1 16.8-7c8.8-1 23.8 5.5 23.8 5.5s-4.9 10-14.2 9.8c-9.4-.3-26.4-8.3-26.4-8.3M169.6 389.9s8-6.1 16.8-7 23.8 5.5 23.8 5.5-4.9 10-14.2 9.8-26.4-8.3-26.4-8.3"/><path d="M384.6 351.4c-.2-6.1-2.7-18.4-5.5-32.5l-.1-.5c-3-15.1-6.3-33.9-6.5-42.1-.1-5.1.5-12.5.5-20.3v-.4c0-16-.3-37.9-1.8-52.2-1.2-11.8-5.9-41.6-19.8-63.8-12.9-20.6-28.6-33.9-49.1-42.2-18.8-7.6-53.2-8.4-54.2-8.4-8.8 0-31.4.7-50.1 8.3-20.5 8.3-36 21.7-48.9 42.3-13.9 22.2-18.3 52.1-19.6 63.8-1.5 14.4-1.4 36.3-1.3 52.3v3.7c0 6.5 0 12.5-.1 16.9-.2 8.3-4 27-7 42.1l-.1.6c-2.8 14.1-5.2 26.3-5.5 32.4-.6 15.7 3.8 26.3 15.2 36.6 7.3 6.6 14.3 9.7 22.1 9.7 4.2 0 8-.8 12.1-1.9 1.1-.3 2.3-.7 3.5-1.1 4.1 2.3 11.9 5.7 22.2 5.7 6.7 0 14.4-1.4 22.9-5.5 4.9 4 9.9 7.4 10 7.4 13.2 7.5 24.5 8.7 26.2 8.7h.4c1.7 0 13-.7 26.7-8.7 0 0 4.4-3.1 8.9-6.7 7.8 3.5 15 4.8 21.3 4.8 11.2 0 19.4-4 23.2-6.2 1.8.7 3.4 1.3 5 1.7 4.1 1 7.9 1.9 12.1 1.9 7.9 0 14.7-3 22.1-9.6 11.4-10.5 15.8-21.1 15.2-36.8m-207.4 39.5c6.1-2.6 13.6-5.5 20.1-5.5 4.4 0 7.6 1.3 10.4 4.1l.2.2c-13.1 5.4-23.9 3.7-30.7 1.2m114.5-.5c.3-.3.6-.5.8-.8 2.8-2.8 6-4.2 10.4-4.2 6.1 0 13 2.5 18.9 5-6.4 2.5-17 4.8-30.1 0m72.8-7.8c-6 5.4-11.1 7.8-17.2 7.8-3.4 0-6.6-.7-10.4-1.6-2-.5-4.5-1.6-7.7-3l-.5-.2c-7-3.2-16.7-7.4-25.8-7.4-6.3 0-11.3 2.1-15.6 6.3-11 11.2-21.9 15.7-29.1 17.5-.1 0-7.1 1.9-15.2-.3-8.2-2.3-19.2-6.1-30.1-17.2-4.1-4.2-9.2-6.3-15.6-6.3-9 0-18.6 4.2-25.9 7.4l-.3.1c-3.3 1.4-5.8 2.6-7.9 3.1-3.8.9-7 1.6-10.4 1.6-6 0-11.3-2.4-17.2-7.8-9.8-8.9-13.3-17.3-12.8-30.9.2-5.5 2.6-17.4 5.4-31.2l.1-.6c3.2-16.1 6.9-34.4 7.2-43.4.1-4.5.1-10.6.1-17.1v-3.7c-.1-15.8-.3-37.5 1.2-51.4 1.2-11.3 5.4-39.8 18.5-60.7 12-19.3 26.5-31.8 45.4-39.5 17.6-7.1 39-8.2 47.4-8.2.8 0 33.8.8 51.4 7.9 19 7.7 33.4 20.4 45.5 39.6 13.1 21 18 49.5 19.2 60.8 1.5 14 1.9 35.7 1.9 51.5v.4c0 7.8-.8 15.2-.7 20.4.2 8.9 3.6 27.2 6.8 43.4l-.1.5c2.8 13.8 5.1 25.8 5.3 31.3.5 13.6-3.1 22-12.9 30.9"/><path fill="#092e54" d="M125.2 208.2s16.1 5.3 37.3-28.7 30.1-58.5 44.2-63.4 41.8 1.4 41.8 1.4 17.5-5 23.8-2.5 16.2 11.7 19.3 15.8c3.2 4.2 14.8 12.5 17.2 15.5s10.2 6.3 10.2 6.3l-2.9-20.1 12.4 14.3s11 24.6 15.3 33.8 15.4 23 19.5 24.6 12.5 3.2 12.5 3.2-5.8-103.3-74.5-116.5-169-11.1-176.1 116.3"/><path d="M324.2 191.9c0 10.6-8.6 19.1-19.1 19.1-10.6 0-19.1-8.6-19.1-19.1 0-.9.1-1.8.2-2.6 1.2.8 2.6 1.3 4.1 1.3 4 0 7.2-3.2 7.2-7.2 0-2.9-1.7-5.4-4.1-6.5 3.2-2.5 7.3-4 11.7-4 10.5-.1 19.1 8.5 19.1 19M214.1 191.9c0 10.6-8.6 19.1-19.1 19.1-10.6 0-19.1-8.6-19.1-19.1 0-.9.1-1.8.2-2.6 1.2.8 2.6 1.3 4.1 1.3 4 0 7.2-3.2 7.2-7.2 0-2.9-1.7-5.4-4.1-6.5 3.2-2.5 7.3-4 11.7-4 10.5-.1 19.1 8.5 19.1 19M228.2 226.4c7.4 11.1 20.6 14.5 32.4 8.7 2.7-1.3.4-5.4-2.4-4.1-9.5 4.6-20.1 1.9-26-7-1.6-2.5-5.7-.2-4 2.4"/><ellipse cx="166.4" cy="228.6" fill="#f68694" rx="7.4" ry="3.4" transform="rotate(-44.198 166.406 228.55)"/><ellipse cx="180.5" cy="229.7" fill="#f68694" rx="7.4" ry="3.4" transform="rotate(-44.198 180.46 229.72)"/><ellipse cx="194.5" cy="229.7" fill="#f68694" rx="7.4" ry="3.4" transform="rotate(-44.198 194.513 229.721)"/><ellipse cx="333.9" cy="229.7" fill="#f68694" rx="7.4" ry="3.4" transform="rotate(224.198 333.885 229.722)"/><ellipse cx="319.8" cy="230.9" fill="#f68694" rx="7.4" ry="3.4" transform="rotate(224.198 319.83 230.893)"/><ellipse cx="305.8" cy="230.9" fill="#f68694" rx="7.4" ry="3.4" transform="rotate(224.198 305.777 230.893)"/><path d="M131.7 266.4c15.8 3 31.8 4.9 47.7 6.5 37.8 3.8 75.9 4.9 113.8 2.8 25.3-1.4 50.5-4.4 75.3-9.3 3.2-.6 1.8-5.4-1.3-4.8-71.5 14.1-146.5 13-218.5 2.6-5.3-.8-10.5-1.6-15.7-2.6-3.1-.6-4.5 4.2-1.3 4.8M123.7 321.4c16.8 3 33.8 4.8 50.8 6.4 40.2 3.8 80.8 5 121.1 2.9 27.2-1.4 54.4-4.4 81.2-9.3 3.2-.6 1.8-5.4-1.3-4.8-76.5 14.1-156.4 13-233.4 2.6-5.7-.8-11.4-1.6-17.1-2.6-3.1-.6-4.5 4.2-1.3 4.8"/><path d="M124.7 311.4c16.6 3 33.4 4.9 50.1 6.5 39.7 3.8 79.7 4.9 119.5 2.8 26.6-1.4 53.1-4.4 79.2-9.3 3.2-.6 1.8-5.4-1.3-4.8-75.2 14.1-154 13-229.7 2.6-5.5-.8-11.1-1.6-16.6-2.6-3-.6-4.4 4.2-1.2 4.8"/><path fill="#092e54" d="M162.5 325.1s-9.5 56.6-58.5 62.4l20-67.5s20.3 2.5 38.5 5.1"/><path d="M160.1 324.4c-4.9 28.9-25.8 56.7-56.1 60.6.8 1.1 1.6 2.1 2.4 3.2 6.7-22.5 13.4-45 20-67.5l-2.4 1.8c12.6 1.6 25.2 3.2 37.8 5 3.1.5 4.5-4.4 1.3-4.8-13-1.9-26.1-3.6-39.1-5.2-1.1-.1-2.1.9-2.4 1.8-6.7 22.5-13.4 45-20 67.5-.4 1.4.8 3.4 2.4 3.2 32.5-4.1 55.6-32.9 60.9-64.2.5-3.2-4.3-4.5-4.8-1.4"/><path fill="#092e54" d="M154 324.6s-5.5 38.1-46.4 54.6"/><path d="M152.6 324.2c-3.6 24.3-23.5 44.5-45.3 53.6-1.8.7-1 3.6.8 2.9 22.8-9.4 43.7-30.3 47.4-55.7.2-1.9-2.7-2.7-2.9-.8"/><path fill="#092e54" d="m232.8 303.8-17 58.5c-.2.7-.1 1.4.3 1.9l16.5 26.7c.5.8 1.3 1.2 2.2 1.2h32.6c.9 0 1.8-.5 2.2-1.2l16.5-26.7c.4-.6.5-1.3.3-1.9l-17-58.5c-.3-1.1-1.3-1.8-2.5-1.8h-31.6c-1.2-.1-2.2.7-2.5 1.8"/><path d="M230.4 303.1c-5.4 18.7-10.9 37.5-16.3 56.2-.7 2.4-1.1 4.3.2 6.7 2.3 4.4 5.3 8.6 7.9 12.8 2.6 4.3 5 8.9 8 12.9 2.4 3.2 5.3 2.9 8.8 2.9h18.4c3.5 0 8.6 1 11.9-.4 3.1-1.3 5.1-6.3 6.7-9 3.3-5.3 6.5-10.6 9.8-15.9 1.6-2.6 3.4-4.7 2.8-8-.6-3.2-1.9-6.5-2.8-9.6-3.4-11.9-6.9-23.8-10.3-35.7-1.2-4.1-2.1-8.4-3.6-12.5-1.4-3.9-4.4-4.2-8-4.2h-20.5c-4.2 0-10.4-1.3-12.9 3.1-1.6 2.8 2.8 5.3 4.3 2.5.9-1.7 8.6-.6 10.4-.6h17c.9 0 3.4-.4 4.2 0 .7.4.3.3.8 1.1 1.7 2.7 2.1 7.2 3 10.3 3.1 10.8 6.3 21.7 9.4 32.5 1.1 4 2.3 7.9 3.4 11.9.6 2.2.9 2.4-.2 4.3-2.5 4.4-5.4 8.7-8.1 13.1-1.4 2.2-2.7 4.4-4.1 6.6-.8 1.4-1.7 3.8-3 4.8-1.7 1.4-5.5.7-7.8.7h-17.1c-2.1 0-6.7.8-8.4-.3-.9-.5-1.7-2.7-2.2-3.6-1.4-2.3-2.9-4.7-4.3-7-2.7-4.5-5.5-8.9-8.2-13.4-1.3-2.1-1.6-2.2-1-4.4 5.2-18.9 10.9-37.7 16.4-56.6 1.1-3-3.7-4.3-4.6-1.2"/><path fill="#55c7f9" d="M250.8 372.7c-8.7 0-15.8-7.1-15.8-15.7v-55h31.5v55c.1 8.6-7 15.7-15.7 15.7"/><path d="M250.8 370.2c-17.1 0-13.3-22.8-13.3-33.9v-34.4l-2.5 2.5h31.5l-2.5-2.5v52.3c.1 8.3-4 15.6-13.2 16-3.2.1-3.2 5.1 0 5 10.3-.4 17.9-8.1 18.2-18.3.2-5.1 0-10.2 0-15.4V302c0-1.4-1.1-2.5-2.5-2.5H235c-1.4 0-2.5 1.1-2.5 2.5v40c0 5-.2 10 0 14.9.4 9.9 8 18.3 18.3 18.3 3.2 0 3.2-5 0-5"/><path fill="#fff" d="M365.3 264.4s-54.2 19.6-103.5 20.3S133 264.3 133 264.3v2.9s46.8 54.4 110.1 65.1 125.7-57.7 125.7-57.7z"/><path d="M132.7 266.7c24.3 6.5 49.1 11.7 73.9 15.6 18.3 2.9 36.9 5.3 55.5 5 22.2-.3 44.4-4.1 65.9-9.3 12.8-3.1 25.6-6.6 38.1-11.1 3-1.1 1.7-5.9-1.3-4.8-30.5 11-63.5 18.5-95.8 20-36 1.7-72.6-5.8-107.6-13.6-9.1-2-18.2-4.2-27.2-6.6-3.3-.9-4.6 3.9-1.5 4.8"/><path d="M131.6 268.9c21 24.4 49.9 44.6 79.6 56.7 23 9.4 47.1 13.3 71.4 6.9 21.5-5.6 41.3-17 58.9-30.4 10.3-7.8 20.4-16.3 29.1-25.8 2.2-2.4-1.4-5.9-3.5-3.5-20.4 22.4-47.7 41.9-76.3 52-10.7 3.8-22 6.1-33.3 6.2-12.5.1-25-3-36.8-7.1-21.6-7.5-41.5-19.6-59.3-33.8-9.3-7.5-18.5-15.6-26.3-24.7-2.1-2.5-5.6 1.1-3.5 3.5"/><path d="M134.5 264.8s.2.2.7.5 1.1.8 2 1.4 1.9 1.3 3.1 2.1 2.6 1.7 4.1 2.7 3.2 2 4.9 3.1 3.6 2.2 5.5 3.3 3.9 2.3 6 3.3c1 .5 2.1 1.1 3.1 1.7 1.1.5 2.1 1.1 3.2 1.6 2.1 1.1 4.3 2.1 6.4 3.1s4.2 1.9 6.3 2.8c2 .9 4 1.6 5.9 2.4.9.4 1.9.8 2.8 1.1s1.8.6 2.6 1c1.7.6 3.2 1.2 4.6 1.7 1.4.4 2.6.9 3.6 1.2 2 .7 3.1 1.1 3.1 1.1s-1.2-.1-3.3-.5c-1-.2-2.3-.4-3.8-.6-1.4-.3-3-.7-4.8-1.1-.9-.2-1.8-.4-2.7-.7s-1.9-.6-2.9-.9c-2-.6-4.1-1.3-6.2-2.1s-4.3-1.6-6.5-2.6l-3.3-1.5c-1.1-.5-2.1-1.1-3.2-1.6-1.1-.6-2.1-1.1-3.2-1.7-1-.6-2.1-1.2-3.1-1.8-2.1-1.2-4-2.4-5.9-3.6s-3.7-2.5-5.4-3.7-3.2-2.4-4.6-3.5-2.7-2.2-3.8-3.2-2-1.8-2.8-2.6zM237.3 312.1s.5.1 1.5.4c1 .2 2.5.5 4.4.8s4.2.5 6.9.7c2.7.1 5.7.2 8.9.1.8 0 1.6-.1 2.5-.1.8-.1 1.7-.2 2.6-.2.9-.1 1.8-.1 2.7-.3.9-.1 1.8-.3 2.7-.4 3.7-.5 7.5-1.4 11.4-2.4 1-.2 2-.6 2.9-.8l3-.9c1-.3 2-.7 3-1 1-.4 2-.7 3-1.1 1.9-.7 4-1.7 6-2.5s4-1.7 6-2.6c4-1.8 8-3.6 11.9-5.5s7.7-3.7 11.4-5.5 7.3-3.6 10.6-5.3c3.4-1.7 6.6-3.3 9.5-4.8 5.9-3 10.8-5.5 14.2-7.3 3.5-1.7 5.4-2.7 5.4-2.7s-.4.3-1.3 1c-.8.6-2.1 1.5-3.6 2.6-1.6 1.1-3.5 2.5-5.7 4s-4.8 3.2-7.6 5-5.9 3.7-9.1 5.6c-3.3 1.9-6.7 4-10.4 6-1.8 1-3.7 2-5.6 3s-3.8 2-5.8 3q-5.85 3-12 5.7c-2.1.9-4.1 1.8-6.1 2.6-1 .4-2 .8-3.1 1.2l-1.5.6-.8.3-.8.3c-2.1.7-4.2 1.5-6.3 2.1-2.1.5-4.2 1.2-6.2 1.6-4.1.9-8.2 1.5-12 1.8-1 .1-1.9.1-2.9.2-.9.1-1.9.1-2.8.1h-2.7c-.9 0-1.7-.1-2.6-.1-3.4-.1-6.4-.6-9.1-1-1.3-.3-2.6-.5-3.7-.8s-2.2-.5-3.1-.8c-1.9-.5-3.3-1.1-4.3-1.5-1-.8-1.4-1.1-1.4-1.1"/><path d="M278.8 298.8s1.4-.6 3.8-1.5 5.9-2.2 10.1-3.7c2.1-.7 4.4-1.6 6.8-2.3 2.4-.8 4.9-1.7 7.6-2.6 5.3-1.7 10.9-3.6 16.5-5.5 2.8-.9 5.6-1.8 8.4-2.8 2.7-.9 5.5-1.8 8.1-2.7s5.2-1.7 7.5-2.6c1.2-.4 2.4-.8 3.5-1.2s2.2-.8 3.2-1.2 2-.8 3-1.1c.9-.4 1.8-.7 2.6-1.1 1.6-.7 3.2-1.2 4.3-1.8 2.3-1.1 3.7-1.7 3.7-1.7s-1.1.9-3.2 2.5c-1 .8-2.4 1.6-3.9 2.6-.8.5-1.6 1-2.5 1.5s-1.9 1-2.8 1.5c-1 .5-2 1.1-3.1 1.6s-2.2 1-3.4 1.6c-1.2.5-2.4 1.1-3.6 1.6s-2.5 1-3.8 1.6c-2.6 1.1-5.3 2.1-8 3.1s-5.6 1.9-8.4 2.9c-2.8.9-5.7 1.8-8.5 2.6s-5.6 1.6-8.3 2.3-5.3 1.4-7.8 1.9c-2.5.6-4.8 1.1-7 1.6q-3.3.75-6 1.2c-1.8.3-3.3.6-4.6.8s-2.3.3-3 .4c-.9.4-1.2.5-1.2.5"/><path fill="#55c7f9" d="M336 325.1s9.5 56.6 58.5 62.4l-20-67.5s-20.2 2.5-38.5 5.1"/><path d="M333.6 325.8c5.3 31.3 28.4 60.1 60.9 64.2 1.6.2 2.8-1.8 2.4-3.2-6.7-22.5-13.4-45-20-67.5-.3-.9-1.3-2-2.4-1.8-13.1 1.6-26.1 3.4-39.1 5.2-3.2.5-1.8 5.3 1.3 4.8 12.6-1.8 25.2-3.5 37.8-5l-2.4-1.8c6.7 22.5 13.4 45 20 67.5.8-1.1 1.6-2.1 2.4-3.2-30.3-3.9-51.2-31.7-56.1-60.6-.5-3.1-5.3-1.8-4.8 1.4"/><path fill="#55c7f9" d="M344.5 324.6s5.5 38.1 46.4 54.6"/><path d="M343.1 325c3.8 25.3 24.7 46.2 47.4 55.7 1.8.7 2.6-2.2.8-2.9-21.9-9.1-41.7-29.3-45.3-53.6-.3-1.9-3.2-1.1-2.9.8"/><circle cx="363" cy="270.8" r="14" fill="#55c7f9"/><path d="M374.5 270.8c-.7 14.7-23 14.9-23 0s22.3-14.8 23 0c.2 3.2 5.2 3.2 5 0-.4-9-7.2-16.5-16.5-16.5-9 0-16.5 7.5-16.5 16.5s7.5 16.5 16.5 16.5c9.3 0 16.1-7.5 16.5-16.5.2-3.3-4.8-3.3-5 0"/><circle cx="134" cy="270.8" r="14" fill="#55c7f9"/><path d="M145.5 270.8c-.7 14.7-23 14.9-23 0s22.3-14.8 23 0c.2 3.2 5.2 3.2 5 0-.4-9-7.2-16.5-16.5-16.5-9 0-16.5 7.5-16.5 16.5s7.5 16.5 16.5 16.5c9.3 0 16.1-7.5 16.5-16.5.2-3.3-4.8-3.3-5 0"/><path fill="#092e54" d="m311.5 377.9-25.3-91 17-28.7a60.56 60.56 0 0 1 52.1-29.7c21.4 0 41.2 11.3 52.1 29.7l17 28.7-25.3 91c-5.5 19.7-43.8 33.3-43.8 33.3s-38.3-13.6-43.8-33.3"/><path d="M313.9 377.3c-7.5-27.2-15.1-54.3-22.6-81.5-.7-2.3-1.3-4.7-2-7-.1-.5-.2-1.3-.5-1.7-1.1-1.7.8 1.4-.4 1.2 1 .2 9.8-16.7 10.7-18.1 4.2-7.1 8.1-14.5 13.8-20.6 9.9-10.5 23.5-17.2 37.9-18.2 14.1-1.1 28.3 3.1 39.5 11.6 7.9 6 13.1 13.8 18.1 22.2 4.2 7.1 8.1 14.6 12.7 21.5.1.1.9 1.7 1 1.7-3 .7.8-3.1-.4-1.2-.8 1.3-1 3.7-1.4 5.1-7.8 28.2-15.2 56.5-23.5 84.6-4.7 16-25 25.2-39.2 30.9-.8.3-1.7.6-2.5 1-.7.4 1.4.6.4 0-2.1-1.3-5-2-7.3-3-9.2-4.2-18.5-9.1-25.9-16.1-3.7-3.7-6.9-7.6-8.4-12.4-.9-3.1-5.8-1.8-4.8 1.3 3.1 10 11.8 17.2 20.3 22.6 7.3 4.7 15.4 8.8 23.6 11.8 4 1.4 7.9-1.3 11.6-2.9 9.4-4.2 18.8-9.4 26.5-16.3 10.4-9.3 12.3-21.9 15.8-34.7 5.1-18.3 10.2-36.6 15.3-55 1.4-5.1 3.3-10.4 4.3-15.6.8-4.2-3.7-9-5.7-12.4-3.7-6.3-7.4-12.7-11.2-19-7.3-12.1-18.2-21.5-31.4-26.7-26.6-10.5-57.7-.9-74.2 22.3-4.6 6.4-8.3 13.6-12.3 20.4-2.1 3.6-4.3 7.3-6.4 10.9-.9 1.5-1.4 2.3-1.2 4 .5 4.5 2.6 9.2 3.8 13.5 2.5 8.9 5 17.9 7.5 26.8 4.4 15.8 8.8 31.6 13.2 47.5.3.9.5 1.9.8 2.8.6 3.1 5.4 1.8 4.5-1.3"/><path fill="#fff" d="m318.8 370.8-21-82.6 14.1-23.3c9.1-16.3 25.5-26.3 43.3-26.3s34.3 10 43.3 26.3l14.1 23.6-21 82.3c-4.5 17.4-36.4 29.4-36.4 29.4 0 .1-31.8-12-36.4-29.4"/><path d="M320.3 370.4c-6.1-23.9-12.2-47.9-18.3-71.8-.9-3.5-2-7-2.7-10.6-.2-.8-.4 1.4-.1.8.3-.7.9-1.5 1.3-2.2 2-3.3 3.9-6.5 5.9-9.8 3.7-6.1 7.1-12.8 11.5-18.4 7.5-9.5 18.5-16.2 30.6-18 12.7-1.9 25.8 1.8 35.9 9.8 6.9 5.4 11.3 12.6 15.7 20 3.4 5.7 6.4 12.4 10.5 17.6.8 1 .5 1.9.6.2 0 .2-.1.5-.2.7-.5 1.5-.8 3.1-1.2 4.7-6.4 25.2-12.7 50.4-19.3 75.5-4.1 15.5-21.3 23.3-34.7 29.4-.9.4-1.3.3-.4.4-.7-.1-1.7-.7-2.3-1-3.6-1.5-7.1-3.3-10.5-5.2-8.8-4.8-19.3-11.7-22.3-22.1-.5-1.9-3.4-1.1-2.9.8 2.6 8.8 10 15.1 17.3 20.1 5.6 3.7 12.6 8.4 19.2 10.1 3.2.8 6.9-1.8 9.8-3.2 8.2-4 16.4-8.9 22.7-15.7 7.5-8.1 8.8-19.6 11.4-29.9 4.2-16.3 8.3-32.6 12.5-48.9 1.2-4.5 2.8-9.2 3.5-13.8.5-3.4-2.8-6.9-4.5-9.7-9.5-16-17.9-32.5-36.4-39.6-22.6-8.8-48.1.9-60.8 21.1-3.7 5.9-7.2 12-10.9 18-1.7 2.9-5.2 6.4-4.7 9.9.6 4.7 2.4 9.4 3.6 13.9 2 7.9 4 15.8 6 23.6 3.5 13.9 7.1 27.8 10.6 41.6.2.9.4 1.7.7 2.6.5 1.8 3.4 1 2.9-.9"/><path fill="#fff" d="M355 231v180"/><path d="M353.2 231.4v179.7c0 1.9 3 1.9 3 0V231.4c0-1.9-3-1.9-3 0"/><path fill="#fff" d="M422 288H289"/><path d="M422.5 286.7H289c-1.9 0-1.9 3 0 3h133.5c1.9 0 1.9-3 0-3"/><path fill="#55c7f9" d="M389 278v20h-24v25h-20v-25h-25v-20h25v-24h20v24z"/><path d="M387.7 278.3v19.8l1.5-1.5h-24.4c-.8 0-1.5.7-1.5 1.5v24.4l1.5-1.5H345l1.5 1.5v-24.4c0-.8-.7-1.5-1.5-1.5h-24.4l1.5 1.5v-19.8l-1.5 1.5H345c.8 0 1.5-.7 1.5-1.5v-24.4l-1.5 1.5h19.8l-1.5-1.5v24.4c0 .8.7 1.5 1.5 1.5h24.4c1.9 0 1.9-3 0-3h-24.4l1.5 1.5v-24.4c0-.8-.7-1.5-1.5-1.5H345c-.8 0-1.5.7-1.5 1.5v24.4l1.5-1.5h-24.4c-.8 0-1.5.7-1.5 1.5v19.8c0 .8.7 1.5 1.5 1.5H345l-1.5-1.5v24.4c0 .8.7 1.5 1.5 1.5h19.8c.8 0 1.5-.7 1.5-1.5v-24.4l-1.5 1.5h24.4c.8 0 1.5-.7 1.5-1.5v-19.8c0-1.9-3-1.9-3 0M254.5 120.3c2.5-13.2 7.8-30.5 19.4-38.4 10.2-6.9 21.8.1 30.1 6.8 10.9 8.9 19.5 20.3 28.8 30.8 10.2 11.5 21.6 22.1 36.5 27.2-.2-1.5-.4-3-.6-4.6-4.7 3.1-10.6 5-16.1 5.6-14.6 1.6-26.3-6.8-34.3-18.4-1.3-1.9-4.7-1.4-4.7 1.3.2 9.1 3.1 18.4 7.6 26.3.9-1.2 1.9-2.4 2.8-3.7-3.9-1.6-9.8-4.9-14-7.7-4.4-2.9-8.6-6.2-12.4-9.8-4.4-4.2-7.7-9.2-11.9-13.6-8.9-9.7-23.6-11.4-34.8-4.6-2.8 1.7-.2 6 2.5 4.3 3.5-2.1 7.9-3.3 12-3.5 11.6-.4 16.9 8.2 23.8 16 9 10.1 20.8 18.7 33.4 23.7 2.1.9 3.8-1.9 2.8-3.7-4-7.1-6.7-15.5-6.9-23.7-1.6.4-3.1.8-4.7 1.3 8.6 12.4 21.1 21.9 36.8 21 7-.4 14.6-2.5 20.5-6.4 1.8-1.2 1.5-3.9-.6-4.6-29.4-10.1-42.5-41.8-66.4-59.3-8.7-6.4-19.9-11.6-30.4-6.4-8.7 4.4-14 13.7-17.7 22.3-2.8 6.5-5 13.4-6.3 20.4-.6 3.2 4.2 4.6 4.8 1.4"/><path d="M191 94.7c22-1.9 44.4 11.4 59.3 26.8l2.4-4.2c-9.7-3.8-20.6-6.2-31.1-6.3-11.6-.1-20.8 3.6-27.6 12.9-15.1 20.6-24.2 45-40 65.2-6.5 8.2-16.4 19.6-28.2 17.5-3.1-.6-4.5 4.2-1.3 4.8 9.7 1.8 18.3-3.4 25.1-9.9 9.1-8.7 16.1-19.7 22.5-30.5 6.8-11.4 12.9-23.2 19.7-34.6 5.4-9 10.3-17.5 21.4-19.8 12.4-2.5 26.6.8 38.2 5.4 2.4 1 4-2.5 2.4-4.2-15.8-16.3-39.6-30.2-62.9-28.2-3.1.3-3.1 5.3.1 5.1M325.7 146c3.2 11.7 7.9 23.2 13.5 33.8 7.6 14.4 19.5 31.5 37.5 32 3.2.1 3.2-4.9 0-5-17-.5-27.9-18.9-34.6-32.2-4.8-9.5-8.8-19.7-11.6-30-.9-3-5.7-1.7-4.8 1.4M325.3 167c-3.5 1.1-9.2-.1-12.8-.8-9.1-1.8-17.5-5.7-24.3-12-2.4-2.2-5.9 1.4-3.5 3.5 7.5 6.8 16.6 11.3 26.6 13.3 4.6.9 10.9 2.3 15.5.8 2.9-.9 1.5-5.8-1.5-4.8"/><path d="M176.6 171.8c4.6 1.5 11 .1 15.5-.8 9.9-2 19-6.5 26.6-13.3 2.4-2.2-1.2-5.7-3.5-3.5-6.9 6.2-15.3 10.2-24.3 12-3.6.7-9.4 1.9-12.8.8-3.2-1-4.5 3.9-1.5 4.8"/><path fill="#a0eaa7" d="M176.5 110.1c-13.6-8.5-27.2-14-38.3-34 0 0-8.2 16.8 6.4 32.2l-11.1-3.8s4.4 23.4 27.7 27.5 28.9-13.4 15.3-21.9"/><path d="M177.8 108c-6.3-3.9-13-7.5-19-11.9-7.7-5.7-13.7-12.9-18.4-21.2-.9-1.5-3.5-1.7-4.3 0-5.7 12-1.7 25.8 6.8 35.3l2.4-4.2c-3.7-1.3-7.4-2.6-11.1-3.8-1.9-.7-3.4 1.3-3.1 3.1 2.9 14.8 15.4 26.9 30.2 29.3 8.2 1.3 19.4.6 23.7-7.8 3.7-7.4-1.1-14.8-7.2-18.8-2.7-1.8-5.2 2.5-2.5 4.3 5 3.3 8.8 10.1 3.1 14.8-6.5 5.4-18.3 3.2-25.2-.2-8.7-4.3-15.4-13.4-17.3-23l-3.1 3.1c3.7 1.3 7.4 2.6 11.1 3.8 2.5.9 4-2.4 2.4-4.2-7-7.7-10.5-19.7-6-29.2H136c4.8 8.4 10.8 15.7 18.4 21.6 6.5 5.1 13.8 8.9 20.8 13.3 2.8 1.7 5.3-2.6 2.6-4.3"/><path fill="#a0eaa7" d="M330.8 110.1c13.6-8.5 27.2-14 38.3-34 0 0 8.2 16.8-6.4 32.2l11.1-3.8s-4.4 23.4-27.7 27.5c-23.2 4.1-28.9-13.4-15.3-21.9"/><path d="M332.1 112.3c7-4.3 14.3-8.2 20.8-13.3 7.6-5.9 13.6-13.3 18.4-21.6H367c4.5 9.6.9 21.5-6 29.2-1.6 1.7-.1 5 2.4 4.2 3.7-1.3 7.4-2.6 11.1-3.8l-3.1-3.1c-1.9 9.6-8.6 18.6-17.3 23-6.9 3.4-18.6 5.7-25.2.2-5.6-4.7-1.8-11.5 3.2-14.8 2.7-1.8.2-6.1-2.5-4.3-6 4-10.8 11.1-7.4 18.4 4.1 8.7 15.5 9.5 23.8 8.2 14.8-2.4 27.3-14.5 30.2-29.3.3-1.7-1.1-3.7-3.1-3.1-3.7 1.3-7.4 2.6-11.1 3.8l2.4 4.2c8.5-9.5 12.5-23.3 6.8-35.3-.8-1.7-3.4-1.5-4.3 0-4.7 8.3-10.7 15.5-18.4 21.2-6 4.4-12.7 8-19 11.9-2.7 1.7-.2 6 2.6 4.3"/></g><g><g><path fill="#a0eaa7" d="m256.8 135.1-6.8-33 17.3 33z"/><path d="M258.2 134.7c-2.3-11-4.5-22-6.8-33l-2.7 1.2c5.8 11 11.6 22 17.3 33 .4-.8.9-1.5 1.3-2.3h-10.6c-1.9 0-1.9 3 0 3h10.6c1.2 0 1.8-1.3 1.3-2.3-5.8-11-11.6-22-17.3-33-.8-1.6-3.1-.4-2.7 1.2 2.3 11 4.5 22 6.8 33 .3 1.9 3.2 1.1 2.8-.8"/><path fill="#d9ffda" d="m250 168.1 6.8-33h10.5z"/><path d="M251.4 168.5c2.3-11 4.5-22 6.8-33-.5.4-1 .7-1.4 1.1h10.6c-.4-.8-.9-1.5-1.3-2.3-5.8 11-11.6 22-17.3 33-.9 1.7 1.7 3.2 2.6 1.5 5.8-11 11.6-22 17.3-33 .5-1-.1-2.3-1.3-2.3h-10.6c-.6 0-1.3.5-1.4 1.1-2.3 11-4.5 22-6.8 33-.4 2 2.4 2.8 2.8.9"/><path fill="#0c4589" d="m232.7 135.1 17.3-33 6.8 33z"/><path d="M234 135.8c5.8-11 11.6-22 17.3-33-.9-.1-1.8-.2-2.7-.4 2.2 11 4.5 22 6.7 33 .5-.6 1-1.3 1.4-1.9h-24.1c-1.9 0-1.9 3 0 3h24.1c1 0 1.6-1 1.4-1.9-2.2-11-4.5-22-6.7-33-.3-1.3-2.2-1.5-2.7-.4-5.8 11-11.6 22-17.3 33-.9 1.8 1.7 3.4 2.6 1.6"/><path fill="#308dd8" d="m250 168.1-17.3-33h24.1z"/><path d="M251.3 167.3c-5.8-11-11.6-22-17.3-33-.4.8-.9 1.5-1.3 2.3h24.1c-.5-.6-1-1.3-1.4-1.9-2.2 11-4.5 22-6.7 33-.4 1.9 2.5 2.7 2.9.8 2.2-11 4.5-22 6.7-33 .2-.9-.4-1.9-1.4-1.9h-24.1c-1.2 0-1.8 1.3-1.3 2.3 5.8 11 11.6 22 17.3 33 .8 1.7 3.4.1 2.5-1.6"/></g></g></svg>