<?xml version="1.0" encoding="utf-8"?>
<!-- Generator: Adobe Illustrator 18.1.1, SVG Export Plug-In . SVG Version: 6.00 Build 0)  -->
<svg version="1.1" xmlns="http://www.w3.org/2000/svg" xmlns:xlink="http://www.w3.org/1999/xlink" x="0px" y="0px"
	 viewBox="0 0 500 500" enable-background="new 0 0 500 500" xml:space="preserve">
<g id="Layer_1">
	<path fill="#092E54" d="M128.3,239.7l246.7-4.2c0,0,19.4-11.2,13.5-34.1s-4.8-24-4.8-24s13.6-9.5,16.3-14.3s0-13.1,0-13.1
		s-9.5,5.1-19.1-9.5s-30.8-53.8-47.8-63.9s-29.8-12.4-40.8-7S278,77.6,278,77.6s-3.2-3-8-7.6s-23.5-16.4-50.9-7.5
		S155.4,94,131.5,89.9S104.6,81,104.6,81s6.6,24.5,14,31.8c7.4,7.3,18.5,10.6,18.5,10.6s-10.6,19.1-16.9,24.2s-19.8,12.2-19.8,12.2
		l14.4,10.6C114.9,170.4,100.8,221,128.3,239.7z"/>
	<g>
		<g>
			<path d="M398.5,147.5c0.8,13.2-7.3,24.5-20.2,27.4c-1.7,0.4-2.1,2.3-1.5,3.7c7.3,16.1,16.3,49.1-8.6,54.4
				c-3.1,0.7-1.8,5.5,1.3,4.8c28.7-6.1,20.3-42.5,11.5-61.8c-0.5,1.2-1,2.4-1.5,3.7c14.9-3.5,24.8-16.9,23.8-32.3
				C403.3,144.3,398.3,144.3,398.5,147.5L398.5,147.5z"/>
		</g>
	</g>
	<g>
		<g>
			<path d="M131.5,237.3c-26.3-9.4-20.7-46.7-13.6-67.4c0.4-1.2-0.5-2.9-1.7-3.1c-7-1.1-13.7-4.5-18.4-9.8c-0.6,1.4-1.2,2.8-1.8,4.3
				c18.7-2.5,32.8-21.8,40.8-37.6c0.9-1.7-0.2-3.7-2.2-3.8c-18.8-0.1-27.2-26.4-30.3-41.5c-1.2,0.9-2.4,1.9-3.7,2.8
				c13.2,6.4,27.5,11.6,42.4,10.3c12.8-1.1,24.6-6.5,36.1-11.9c25.5-11.9,55.8-28,83.2-12.2c3.5,2,6.7,4.4,9.5,7.2
				c1,1,2.6,2.8,2.9,3.2c1,1.4,2.6,1.6,3.9,0.5c13.8-12.1,34.4-12,49.4-2.4c14.7,9.4,25.5,25.2,34.8,39.7
				c6.3,9.8,11.7,20.6,19.2,29.5c5.4,6.4,12.5,9.6,20.1,4.6c2.7-1.8,0.2-6.1-2.5-4.3c-8.1,5.4-13.8-2.9-18-9.2
				c-7.7-11.4-14.3-23.6-22.4-34.8c-15.7-21.7-38.3-44.7-67.5-35.6c-5.9,1.9-11.9,4.8-16.6,8.9c1.3,0.2,2.6,0.3,3.9,0.5
				c-8.2-11.6-23.3-18-37-19.3c-32.3-3-58.6,20-88.2,28.4c-17.7,5-34.6,0.3-50.7-7.5c-2-1-4.1,0.6-3.7,2.8
				c3.5,17.6,13.6,45,35.1,45.2c-0.7-1.3-1.4-2.5-2.2-3.8c-2.8,5.5-6.3,10.8-10.1,15.7c-6.5,8.4-15.3,17.9-26.4,19.3
				c-2.1,0.3-3.3,2.5-1.8,4.3c5.2,5.9,12.9,9.9,20.6,11.1c-0.6-1-1.2-2.1-1.7-3.1c-8.2,23.8-12.4,63.1,17,73.6
				C133.2,243.2,134.5,238.3,131.5,237.3L131.5,237.3z"/>
		</g>
	</g>
	<g>
		<path fill="#FFFFFF" d="M87,368.4c6,9.8,21.1,23.6,35.4,15.8s3.5-31.8,0.2-37.3L87,368.4z"/>
		<g>
			<path d="M84.8,369.6c8.1,12.9,29.6,28.6,43.1,13.2c8.7-9.9,2.7-27.3-3.2-37.3c-0.7-1.2-2.3-1.6-3.4-0.9
				c-11.9,7.2-23.7,14.4-35.6,21.6c-2.7,1.7-0.2,6,2.5,4.3c11.9-7.2,23.7-14.4,35.6-21.6c-1.1-0.3-2.3-0.6-3.4-0.9
				c4.5,7.7,9.5,20.4,5.3,29.1c-3.6,7.4-13.3,8-20,5c-6.9-3-12.6-8.8-16.5-15.1C87.5,364.4,83.1,366.9,84.8,369.6z"/>
		</g>
	</g>
	<g>
		<path fill="#0C4589" d="M87.7,372.6l-20.9-35c-8.1-13.3-2.7-31.6,9.7-40.9l32.6-24.4c5.7-4.4,13-5.3,19.3-3.2
			c3.8,1.3,7.2,3.7,9.8,7.1c7,9.1,5.2,22.2-3.9,29.2L109.9,324l16.7,25.4L87.7,372.6z"/>
		<g>
			<path d="M89.9,371.3c-5.7-9.6-11.5-19.3-17.2-28.9c-2.7-4.5-5.8-9-6.7-14.3c-2-11.1,3.3-22.5,11.9-29.4
				c8.9-7,18.1-13.6,27.2-20.4c4.8-3.6,9.5-7.7,15.9-8c14.2-0.6,23.8,15,16.8,27.4c-3.2,5.6-9.9,9.4-14.9,13.2
				c-4.7,3.6-9.5,7.2-14.2,10.9c-1,0.8-1.7,2.2-0.9,3.4c5.6,8.5,11.1,16.9,16.7,25.4c0.3-1.1,0.6-2.3,0.9-3.4
				c-13,7.7-25.9,15.4-38.9,23.2c-2.8,1.6-0.3,6,2.5,4.3c13-7.7,25.9-15.4,38.9-23.2c1.1-0.7,1.6-2.3,0.9-3.4
				c-5.6-8.5-11.1-16.9-16.7-25.4c-0.3,1.1-0.6,2.3-0.9,3.4c4.7-3.6,9.5-7.2,14.2-10.9c4.9-3.8,11.2-7.5,15-12.5
				c6.6-8.6,6.2-20.8-0.7-29.1c-7.9-9.5-21.8-10.7-31.7-3.7c-10.4,7.4-20.5,15.4-30.7,23c-14.3,10.7-21.8,29.4-12.3,46
				c6.7,11.7,13.8,23.2,20.8,34.8C87.2,376.6,91.6,374.1,89.9,371.3z"/>
		</g>
	</g>
	<g>
		<path fill="#FFFFFF" d="M134.8,329.5c-9.6-26.3-25.3-44.2-50.2-57.1l24.4-13.5c12.1-6.7,28.4-2.2,38.2,9l0,0
			c9.8,11.2,12.2,27.9,4,39.1L134.8,329.5z"/>
		<g>
			<path d="M137.2,328.8c-9.6-25.9-26.9-45.7-51.3-58.6c0,1.4,0,2.9,0,4.3c5.6-3.1,11.3-6.2,16.9-9.3c7.6-4.2,14.4-8.1,23.5-6.5
				c13.4,2.3,24.3,13.4,26.9,26.7c1.9,9.8-1.8,17.3-7.3,24.8c-4.4,6-8.8,12-13.2,18c-1.9,2.6,2.4,5.1,4.3,2.5
				c9.7-13.2,23.9-26.8,21.4-44.6c-1.9-13.1-10.9-24.6-23-29.9c-10.2-4.4-20.3-3.5-29.9,1.8c-7.4,4.1-14.7,8.1-22.1,12.2
				c-1.6,0.9-1.7,3.4,0,4.3c23.3,12.2,39.9,30.9,49,55.6C133.5,333.1,138.3,331.8,137.2,328.8z"/>
		</g>
	</g>
	<path fill="#FFFFFF" d="M381.1,349.2c-0.2-6-2.6-18-5.4-31.8l-0.1-0.5c-3-14.8-6.6-33.2-6.8-41.2c-0.1-5,0.1-12.2,0.1-19.8v-0.4
		c0-15.6,0.1-37.1-1.4-51.2c-1.2-11.5-5.6-40.7-19.2-62.5c-12.6-20.2-27.9-33.2-47.9-41.4c-18.4-7.4-52.1-8.3-53-8.3
		c-8.6,0-30.7,0.7-49.1,8.1c-20.1,8.1-35.3,21.3-47.9,41.5c-13.6,21.8-17.9,51-19.1,62.5c-1.5,14.1-1.4,35.5-1.2,51.2l0,3.6
		c0,6.3,0,12.3-0.1,16.6c-0.2,8.1-3.9,26.5-6.9,41.3l-0.1,0.6c-2.7,13.8-5.1,25.7-5.4,31.7c-0.6,15.4,3.8,25.7,14.9,35.8
		c7.1,6.4,14,9.5,21.7,9.5c4.1,0,7.8-0.8,11.9-1.8c1.1-0.3,2.3-0.6,3.5-1.1c4,2.2,11.7,5.6,21.7,5.6c6.5,0,14.1-1.4,22.4-5.4
		c4.8,3.9,9.7,7.5,9.7,7.5c12.9,7.3,24,8.8,25.6,8.8h0.4c1.6,0,12.7-0.9,26.1-8.8c0,0,4.3-3.1,8.8-6.7c7.7,3.4,14.7,4.6,20.8,4.6
		c10.9,0,19-3.9,22.7-6.1c1.8,0.7,3.3,1.3,4.9,1.7c4,1,7.7,1.8,11.8,1.8c7.8,0,14.4-2.9,21.6-9.5C377.4,375,381.7,364.6,381.1,349.2
		z"/>
	<path fill="#0C4589" d="M128.7,290.9c0,0-15.9,58.5-1.8,86.2s58.8,3.3,64.9,2.6c6.2-0.7,15,0.8,26.5,11.3s25,22.6,46.3,11.9
		s29-24.6,39.7-23.5c10.7,1.1,28.5,13.8,41.8,14.2c13.3,0.4,31.5-12.1,34-29.1c2.5-17-12.4-100.4-12.4-100.4s-55.4,10.1-101.2,10.8
		c-45.7,0.7-132.1-9.4-132.1-9.4L128.7,290.9z"/>
	<g>
		<path fill="#092E54" d="M371.9,311c-121.4,23-247.6,0-247.6,0l-1,9c0,0,128.4,23,251.8,0L371.9,311z"/>
	</g>
	<path fill="#C8C8C8" d="M285.5,389.9c0,0,8-6.1,16.8-7c8.8-1,23.8,5.5,23.8,5.5s-4.9,10-14.2,9.8
		C302.5,397.9,285.5,389.9,285.5,389.9z"/>
	<path fill="#C8C8C8" d="M169.6,389.9c0,0,8-6.1,16.8-7s23.8,5.5,23.8,5.5s-4.9,10-14.2,9.8S169.6,389.9,169.6,389.9z"/>
	<path d="M384.6,351.4c-0.2-6.1-2.7-18.4-5.5-32.5l-0.1-0.5c-3-15.1-6.3-33.9-6.5-42.1c-0.1-5.1,0.5-12.5,0.5-20.3v-0.4
		c0-16-0.3-37.9-1.8-52.2c-1.2-11.8-5.9-41.6-19.8-63.8c-12.9-20.6-28.6-33.9-49.1-42.2c-18.8-7.6-53.2-8.4-54.2-8.4
		c-8.8,0-31.4,0.7-50.1,8.3c-20.5,8.3-36,21.7-48.9,42.3c-13.9,22.2-18.3,52.1-19.6,63.8c-1.5,14.4-1.4,36.3-1.3,52.3l0,3.7
		c0,6.5,0,12.5-0.1,16.9c-0.2,8.3-4,27-7,42.1L121,319c-2.8,14.1-5.2,26.3-5.5,32.4c-0.6,15.7,3.8,26.3,15.2,36.6
		c7.3,6.6,14.3,9.7,22.1,9.7c4.2,0,8-0.8,12.1-1.9c1.1-0.3,2.3-0.7,3.5-1.1c4.1,2.3,11.9,5.7,22.2,5.7c6.7,0,14.4-1.4,22.9-5.5
		c4.9,4,9.9,7.4,10,7.4c13.2,7.5,24.5,8.7,26.2,8.7h0.4c1.7,0,13-0.7,26.7-8.7c0,0,4.4-3.1,8.9-6.7c7.8,3.5,15,4.8,21.3,4.8
		c11.2,0,19.4-4,23.2-6.2c1.8,0.7,3.4,1.3,5,1.7c4.1,1,7.9,1.9,12.1,1.9c7.9,0,14.7-3,22.1-9.6C380.8,377.7,385.2,367.1,384.6,351.4
		z M177.2,390.9c6.1-2.6,13.6-5.5,20.1-5.5c4.4,0,7.6,1.3,10.4,4.1l0.2,0.2C194.8,395.1,184,393.4,177.2,390.9z M291.7,390.4
		c0.3-0.3,0.6-0.5,0.8-0.8c2.8-2.8,6-4.2,10.4-4.2c6.1,0,13,2.5,18.9,5C315.4,392.9,304.8,395.2,291.7,390.4z M364.5,382.6
		c-6,5.4-11.1,7.8-17.2,7.8c-3.4,0-6.6-0.7-10.4-1.6c-2-0.5-4.5-1.6-7.7-3l-0.5-0.2c-7-3.2-16.7-7.4-25.8-7.4
		c-6.3,0-11.3,2.1-15.6,6.3c-11,11.2-21.9,15.7-29.1,17.5c-0.1,0-7.1,1.9-15.2-0.3c-8.2-2.3-19.2-6.1-30.1-17.2
		c-4.1-4.2-9.2-6.3-15.6-6.3c-9,0-18.6,4.2-25.9,7.4l-0.3,0.1c-3.3,1.4-5.8,2.6-7.9,3.1c-3.8,0.9-7,1.6-10.4,1.6
		c-6,0-11.3-2.4-17.2-7.8c-9.8-8.9-13.3-17.3-12.8-30.9c0.2-5.5,2.6-17.4,5.4-31.2l0.1-0.6c3.2-16.1,6.9-34.4,7.2-43.4
		c0.1-4.5,0.1-10.6,0.1-17.1l0-3.7c-0.1-15.8-0.3-37.5,1.2-51.4c1.2-11.3,5.4-39.8,18.5-60.7c12-19.3,26.5-31.8,45.4-39.5
		c17.6-7.1,39-8.2,47.4-8.2c0.8,0,33.8,0.8,51.4,7.9c19,7.7,33.4,20.4,45.5,39.6c13.1,21,18,49.5,19.2,60.8
		c1.5,14,1.9,35.7,1.9,51.5v0.4c0,7.8-0.8,15.2-0.7,20.4c0.2,8.9,3.6,27.2,6.8,43.4l-0.1,0.5c2.8,13.8,5.1,25.8,5.3,31.3
		C377.9,365.3,374.3,373.7,364.5,382.6z"/>
	<path fill="#092E54" d="M125.2,208.2c0,0,16.1,5.3,37.3-28.7s30.1-58.5,44.2-63.4s41.8,1.4,41.8,1.4s17.5-5,23.8-2.5
		c6.3,2.5,16.2,11.7,19.3,15.8c3.2,4.2,14.8,12.5,17.2,15.5c2.4,3,10.2,6.3,10.2,6.3l-2.9-20.1l12.4,14.3c0,0,11,24.6,15.3,33.8
		c4.3,9.2,15.4,23,19.5,24.6c4.1,1.6,12.5,3.2,12.5,3.2S370,105.1,301.3,91.9S132.3,80.8,125.2,208.2z"/>
	<path d="M324.2,191.9c0,10.6-8.6,19.1-19.1,19.1c-10.6,0-19.1-8.6-19.1-19.1c0-0.9,0.1-1.8,0.2-2.6c1.2,0.8,2.6,1.3,4.1,1.3
		c4,0,7.2-3.2,7.2-7.2c0-2.9-1.7-5.4-4.1-6.5c3.2-2.5,7.3-4,11.7-4C315.6,172.8,324.2,181.4,324.2,191.9z"/>
	<path d="M214.1,191.9c0,10.6-8.6,19.1-19.1,19.1c-10.6,0-19.1-8.6-19.1-19.1c0-0.9,0.1-1.8,0.2-2.6c1.2,0.8,2.6,1.3,4.1,1.3
		c4,0,7.2-3.2,7.2-7.2c0-2.9-1.7-5.4-4.1-6.5c3.2-2.5,7.3-4,11.7-4C205.5,172.8,214.1,181.4,214.1,191.9z"/>
	<path d="M228.2,226.4c7.4,11.1,20.6,14.5,32.4,8.7c2.7-1.3,0.4-5.4-2.4-4.1c-9.5,4.6-20.1,1.9-26-7
		C230.6,221.5,226.5,223.8,228.2,226.4L228.2,226.4z"/>
	
		<ellipse transform="matrix(0.7169 -0.6971 0.6971 0.7169 -112.2272 180.7014)" fill="#F68694" cx="166.4" cy="228.6" rx="7.4" ry="3.4"/>
	
		<ellipse transform="matrix(0.7169 -0.6971 0.6971 0.7169 -109.0657 190.8302)" fill="#F68694" cx="180.5" cy="229.7" rx="7.4" ry="3.4"/>
	
		<ellipse transform="matrix(0.7169 -0.6971 0.6971 0.7169 -105.0878 200.6274)" fill="#F68694" cx="194.5" cy="229.7" rx="7.4" ry="3.4"/>
	
		<ellipse transform="matrix(-0.7169 -0.6971 0.6971 -0.7169 413.1115 627.1812)" fill="#F68694" cx="333.9" cy="229.7" rx="7.4" ry="3.4"/>
	
		<ellipse transform="matrix(-0.7169 -0.6971 0.6971 -0.7169 388.1657 619.3947)" fill="#F68694" cx="319.8" cy="230.9" rx="7.4" ry="3.4"/>
	
		<ellipse transform="matrix(-0.7169 -0.6971 0.6971 -0.7169 364.0363 609.5975)" fill="#F68694" cx="305.8" cy="230.9" rx="7.4" ry="3.4"/>
	<g>
		<g>
			<path d="M131.7,266.4c15.8,3,31.8,4.9,47.7,6.5c37.8,3.8,75.9,4.9,113.8,2.8c25.3-1.4,50.5-4.4,75.3-9.3c3.2-0.6,1.8-5.4-1.3-4.8
				c-71.5,14.1-146.5,13-218.5,2.6c-5.3-0.8-10.5-1.6-15.7-2.6C129.9,261,128.5,265.8,131.7,266.4L131.7,266.4z"/>
		</g>
	</g>
	<g>
		<g>
			<path d="M123.7,321.4c16.8,3,33.8,4.8,50.8,6.4c40.2,3.8,80.8,5,121.1,2.9c27.2-1.4,54.4-4.4,81.2-9.3c3.2-0.6,1.8-5.4-1.3-4.8
				c-76.5,14.1-156.4,13-233.4,2.6c-5.7-0.8-11.4-1.6-17.1-2.6C121.9,316,120.5,320.8,123.7,321.4L123.7,321.4z"/>
		</g>
	</g>
	<g>
		<g>
			<path d="M124.7,311.4c16.6,3,33.4,4.9,50.1,6.5c39.7,3.8,79.7,4.9,119.5,2.8c26.6-1.4,53.1-4.4,79.2-9.3c3.2-0.6,1.8-5.4-1.3-4.8
				c-75.2,14.1-154,13-229.7,2.6c-5.5-0.8-11.1-1.6-16.6-2.6C122.9,306,121.5,310.8,124.7,311.4L124.7,311.4z"/>
		</g>
	</g>
	<g>
		<g>
			<path fill="#092E54" d="M162.5,325.1c0,0-9.5,56.6-58.5,62.4l20-67.5C124,320,144.3,322.5,162.5,325.1z"/>
			<g>
				<path d="M160.1,324.4c-4.9,28.9-25.8,56.7-56.1,60.6c0.8,1.1,1.6,2.1,2.4,3.2c6.7-22.5,13.4-45,20-67.5
					c-0.8,0.6-1.6,1.2-2.4,1.8c12.6,1.6,25.2,3.2,37.8,5c3.1,0.5,4.5-4.4,1.3-4.8c-13-1.9-26.1-3.6-39.1-5.2
					c-1.1-0.1-2.1,0.9-2.4,1.8c-6.7,22.5-13.4,45-20,67.5c-0.4,1.4,0.8,3.4,2.4,3.2c32.5-4.1,55.6-32.9,60.9-64.2
					C165.4,322.6,160.6,321.3,160.1,324.4z"/>
			</g>
		</g>
		<g>
			<path fill="#092E54" d="M154,324.6c0,0-5.5,38.1-46.4,54.6"/>
			<g>
				<path d="M152.6,324.2c-3.6,24.3-23.5,44.5-45.3,53.6c-1.8,0.7-1,3.6,0.8,2.9c22.8-9.4,43.7-30.3,47.4-55.7
					C155.7,323.1,152.8,322.3,152.6,324.2L152.6,324.2z"/>
			</g>
		</g>
	</g>
	<g>
		<path fill="#092E54" d="M232.8,303.8l-17,58.5c-0.2,0.7-0.1,1.4,0.3,1.9l16.5,26.7c0.5,0.8,1.3,1.2,2.2,1.2h32.6
			c0.9,0,1.8-0.5,2.2-1.2l16.5-26.7c0.4-0.6,0.5-1.3,0.3-1.9l-17-58.5c-0.3-1.1-1.3-1.8-2.5-1.8h-31.6
			C234.1,301.9,233.1,302.7,232.8,303.8z"/>
		<g>
			<path d="M230.4,303.1c-5.4,18.7-10.9,37.5-16.3,56.2c-0.7,2.4-1.1,4.3,0.2,6.7c2.3,4.4,5.3,8.6,7.9,12.8c2.6,4.3,5,8.9,8,12.9
				c2.4,3.2,5.3,2.9,8.8,2.9c6.1,0,12.3,0,18.4,0c3.5,0,8.6,1,11.9-0.4c3.1-1.3,5.1-6.3,6.7-9c3.3-5.3,6.5-10.6,9.8-15.9
				c1.6-2.6,3.4-4.7,2.8-8c-0.6-3.2-1.9-6.5-2.8-9.6c-3.4-11.9-6.9-23.8-10.3-35.7c-1.2-4.1-2.1-8.4-3.6-12.5
				c-1.4-3.9-4.4-4.2-8-4.2c-6.8,0-13.7,0-20.5,0c-4.2,0-10.4-1.3-12.9,3.1c-1.6,2.8,2.8,5.3,4.3,2.5c0.9-1.7,8.6-0.6,10.4-0.6
				c5.7,0,11.4,0,17,0c0.9,0,3.4-0.4,4.2,0c0.7,0.4,0.3,0.3,0.8,1.1c1.7,2.7,2.1,7.2,3,10.3c3.1,10.8,6.3,21.7,9.4,32.5
				c1.1,4,2.3,7.9,3.4,11.9c0.6,2.2,0.9,2.4-0.2,4.3c-2.5,4.4-5.4,8.7-8.1,13.1c-1.4,2.2-2.7,4.4-4.1,6.6c-0.8,1.4-1.7,3.8-3,4.8
				c-1.7,1.4-5.5,0.7-7.8,0.7c-5.7,0-11.4,0-17.1,0c-2.1,0-6.7,0.8-8.4-0.3c-0.9-0.5-1.7-2.7-2.2-3.6c-1.4-2.3-2.9-4.7-4.3-7
				c-2.7-4.5-5.5-8.9-8.2-13.4c-1.3-2.1-1.6-2.2-1-4.4c5.2-18.9,10.9-37.7,16.4-56.6C236.1,301.3,231.3,300,230.4,303.1z"/>
		</g>
	</g>
	<g>
		<path fill="#55C7F9" d="M250.8,372.7L250.8,372.7c-8.7,0-15.8-7.1-15.8-15.7v-55h31.5l0,55C266.6,365.6,259.5,372.7,250.8,372.7z"
			/>
		<g>
			<path d="M250.8,370.2c-17.1,0-13.3-22.8-13.3-33.9c0-11.5,0-22.9,0-34.4c-0.8,0.8-1.7,1.7-2.5,2.5c10.5,0,21,0,31.5,0
				c-0.8-0.8-1.7-1.7-2.5-2.5c0,11.3,0,22.6,0,33.9c0,6.1,0,12.3,0,18.4C264.1,362.5,260,369.8,250.8,370.2c-3.2,0.1-3.2,5.1,0,5
				c10.3-0.4,17.9-8.1,18.2-18.3c0.2-5.1,0-10.2,0-15.4c0-13.2,0-26.4,0-39.5c0-1.4-1.1-2.5-2.5-2.5c-10.5,0-21,0-31.5,0
				c-1.4,0-2.5,1.1-2.5,2.5c0,13.3,0,26.7,0,40c0,5-0.2,10,0,14.9c0.4,9.9,8,18.3,18.3,18.3C254,375.2,254,370.2,250.8,370.2z"/>
		</g>
	</g>
	<g>
		<g>
			<path fill="#FFFFFF" d="M365.3,264.4c0,0-54.2,19.6-103.5,20.3S133,264.3,133,264.3v2.9c0,0,46.8,54.4,110.1,65.1
				s125.7-57.7,125.7-57.7L365.3,264.4z"/>
		</g>
		<g>
			<g>
				<g>
					<path d="M132.7,266.7c24.3,6.5,49.1,11.7,73.9,15.6c18.3,2.9,36.9,5.3,55.5,5c22.2-0.3,44.4-4.1,65.9-9.3
						c12.8-3.1,25.6-6.6,38.1-11.1c3-1.1,1.7-5.9-1.3-4.8c-30.5,11-63.5,18.5-95.8,20c-36,1.7-72.6-5.8-107.6-13.6
						c-9.1-2-18.2-4.2-27.2-6.6C130.9,261,129.6,265.8,132.7,266.7L132.7,266.7z"/>
				</g>
			</g>
			<g>
				<g>
					<path d="M131.6,268.9c21,24.4,49.9,44.6,79.6,56.7c23,9.4,47.1,13.3,71.4,6.9c21.5-5.6,41.3-17,58.9-30.4
						c10.3-7.8,20.4-16.3,29.1-25.8c2.2-2.4-1.4-5.9-3.5-3.5c-20.4,22.4-47.7,41.9-76.3,52c-10.7,3.8-22,6.1-33.3,6.2
						c-12.5,0.1-25-3-36.8-7.1c-21.6-7.5-41.5-19.6-59.3-33.8c-9.3-7.5-18.5-15.6-26.3-24.7C133,262.9,129.5,266.5,131.6,268.9
						L131.6,268.9z"/>
				</g>
			</g>
			<g>
				<path d="M134.5,264.8c0,0,0.2,0.2,0.7,0.5c0.5,0.3,1.1,0.8,2,1.4c0.9,0.6,1.9,1.3,3.1,2.1c1.2,0.8,2.6,1.7,4.1,2.7
					c1.5,1,3.2,2,4.9,3.1c1.7,1.1,3.6,2.2,5.5,3.3c1.9,1.1,3.9,2.3,6,3.3c1,0.5,2.1,1.1,3.1,1.7c1.1,0.5,2.1,1.1,3.2,1.6
					c2.1,1.1,4.3,2.1,6.4,3.1c2.1,1,4.2,1.9,6.3,2.8c2,0.9,4,1.6,5.9,2.4c0.9,0.4,1.9,0.8,2.8,1.1c0.9,0.3,1.8,0.6,2.6,1
					c1.7,0.6,3.2,1.2,4.6,1.7c1.4,0.4,2.6,0.9,3.6,1.2c2,0.7,3.1,1.1,3.1,1.1s-1.2-0.1-3.3-0.5c-1-0.2-2.3-0.4-3.8-0.6
					c-1.4-0.3-3-0.7-4.8-1.1c-0.9-0.2-1.8-0.4-2.7-0.7c-0.9-0.3-1.9-0.6-2.9-0.9c-2-0.6-4.1-1.3-6.2-2.1c-2.1-0.8-4.3-1.6-6.5-2.6
					c-1.1-0.5-2.2-1-3.3-1.5c-1.1-0.5-2.1-1.1-3.2-1.6c-1.1-0.6-2.1-1.1-3.2-1.7c-1-0.6-2.1-1.2-3.1-1.8c-2.1-1.2-4-2.4-5.9-3.6
					c-1.9-1.2-3.7-2.5-5.4-3.7c-1.7-1.2-3.2-2.4-4.6-3.5c-1.4-1.1-2.7-2.2-3.8-3.2c-1.1-1-2-1.8-2.8-2.6
					C135.3,265.6,134.5,264.8,134.5,264.8z"/>
			</g>
			<g>
				<path d="M237.3,312.1c0,0,0.5,0.1,1.5,0.4c1,0.2,2.5,0.5,4.4,0.8c1.9,0.3,4.2,0.5,6.9,0.7c2.7,0.1,5.7,0.2,8.9,0.1
					c0.8,0,1.6-0.1,2.5-0.1c0.8-0.1,1.7-0.2,2.6-0.2c0.9-0.1,1.8-0.1,2.7-0.3c0.9-0.1,1.8-0.3,2.7-0.4c3.7-0.5,7.5-1.4,11.4-2.4
					c1-0.2,2-0.6,2.9-0.8c1-0.3,2-0.6,3-0.9c1-0.3,2-0.7,3-1c1-0.4,2-0.7,3-1.1c1.9-0.7,4-1.7,6-2.5c2-0.8,4-1.7,6-2.6
					c4-1.8,8-3.6,11.9-5.5c3.9-1.9,7.7-3.7,11.4-5.5c3.7-1.8,7.3-3.6,10.6-5.3c3.4-1.7,6.6-3.3,9.5-4.8c5.9-3,10.8-5.5,14.2-7.3
					c3.5-1.7,5.4-2.7,5.4-2.7s-0.4,0.3-1.3,1c-0.8,0.6-2.1,1.5-3.6,2.6c-1.6,1.1-3.5,2.5-5.7,4c-2.2,1.5-4.8,3.2-7.6,5
					c-2.8,1.8-5.9,3.7-9.1,5.6c-3.3,1.9-6.7,4-10.4,6c-1.8,1-3.7,2-5.6,3c-1.9,1-3.8,2-5.8,3c-3.9,2-7.9,3.9-12,5.7
					c-2.1,0.9-4.1,1.8-6.1,2.6c-1,0.4-2,0.8-3.1,1.2l-1.5,0.6l-0.8,0.3l-0.8,0.3c-2.1,0.7-4.2,1.5-6.3,2.1c-2.1,0.5-4.2,1.2-6.2,1.6
					c-4.1,0.9-8.2,1.5-12,1.8c-1,0.1-1.9,0.1-2.9,0.2c-0.9,0.1-1.9,0.1-2.8,0.1c-0.9,0-1.8,0-2.7,0c-0.9,0-1.7-0.1-2.6-0.1
					c-3.4-0.1-6.4-0.6-9.1-1c-1.3-0.3-2.6-0.5-3.7-0.8c-1.1-0.3-2.2-0.5-3.1-0.8c-1.9-0.5-3.3-1.1-4.3-1.5
					C237.7,312.4,237.3,312.1,237.3,312.1z"/>
			</g>
			<g>
				<path d="M278.8,298.8c0,0,1.4-0.6,3.8-1.5c2.4-0.9,5.9-2.2,10.1-3.7c2.1-0.7,4.4-1.6,6.8-2.3c2.4-0.8,4.9-1.7,7.6-2.6
					c5.3-1.7,10.9-3.6,16.5-5.5c2.8-0.9,5.6-1.8,8.4-2.8c2.7-0.9,5.5-1.8,8.1-2.7c2.6-0.9,5.2-1.7,7.5-2.6c1.2-0.4,2.4-0.8,3.5-1.2
					c1.1-0.4,2.2-0.8,3.2-1.2c1-0.4,2-0.8,3-1.1c0.9-0.4,1.8-0.7,2.6-1.1c1.6-0.7,3.2-1.2,4.3-1.8c2.3-1.1,3.7-1.7,3.7-1.7
					s-1.1,0.9-3.2,2.5c-1,0.8-2.4,1.6-3.9,2.6c-0.8,0.5-1.6,1-2.5,1.5c-0.9,0.5-1.9,1-2.8,1.5c-1,0.5-2,1.1-3.1,1.6
					c-1.1,0.5-2.2,1-3.4,1.6c-1.2,0.5-2.4,1.1-3.6,1.6c-1.2,0.5-2.5,1-3.8,1.6c-2.6,1.1-5.3,2.1-8,3.1c-2.7,1-5.6,1.9-8.4,2.9
					c-2.8,0.9-5.7,1.8-8.5,2.6c-2.8,0.8-5.6,1.6-8.3,2.3c-2.7,0.7-5.3,1.4-7.8,1.9c-2.5,0.6-4.8,1.1-7,1.6c-2.2,0.5-4.2,0.9-6,1.2
					c-1.8,0.3-3.3,0.6-4.6,0.8c-1.3,0.2-2.3,0.3-3,0.4C279.1,298.7,278.8,298.8,278.8,298.8z"/>
			</g>
		</g>
	</g>
	<g>
		<g>
			<path fill="#55C7F9" d="M336,325.1c0,0,9.5,56.6,58.5,62.4l-20-67.5C374.5,320,354.3,322.5,336,325.1z"/>
			<g>
				<path d="M333.6,325.8c5.3,31.3,28.4,60.1,60.9,64.2c1.6,0.2,2.8-1.8,2.4-3.2c-6.7-22.5-13.4-45-20-67.5c-0.3-0.9-1.3-2-2.4-1.8
					c-13.1,1.6-26.1,3.4-39.1,5.2c-3.2,0.5-1.8,5.3,1.3,4.8c12.6-1.8,25.2-3.5,37.8-5c-0.8-0.6-1.6-1.2-2.4-1.8
					c6.7,22.5,13.4,45,20,67.5c0.8-1.1,1.6-2.1,2.4-3.2c-30.3-3.9-51.2-31.7-56.1-60.6C337.9,321.3,333.1,322.6,333.6,325.8z"/>
			</g>
		</g>
		<g>
			<path fill="#55C7F9" d="M344.5,324.6c0,0,5.5,38.1,46.4,54.6"/>
			<g>
				<path d="M343.1,325c3.8,25.3,24.7,46.2,47.4,55.7c1.8,0.7,2.6-2.2,0.8-2.9c-21.9-9.1-41.7-29.3-45.3-53.6
					C345.7,322.3,342.8,323.1,343.1,325L343.1,325z"/>
			</g>
		</g>
	</g>
	<g>
		<circle fill="#55C7F9" cx="363" cy="270.8" r="14"/>
		<g>
			<path d="M374.5,270.8c-0.7,14.7-23,14.9-23,0C351.5,255.9,373.8,256,374.5,270.8c0.2,3.2,5.2,3.2,5,0c-0.4-9-7.2-16.5-16.5-16.5
				c-9,0-16.5,7.5-16.5,16.5c0,9,7.5,16.5,16.5,16.5c9.3,0,16.1-7.5,16.5-16.5C379.7,267.5,374.7,267.5,374.5,270.8z"/>
		</g>
	</g>
	<g>
		<circle fill="#55C7F9" cx="134" cy="270.8" r="14"/>
		<g>
			<path d="M145.5,270.8c-0.7,14.7-23,14.9-23,0C122.5,255.9,144.8,256,145.5,270.8c0.2,3.2,5.2,3.2,5,0c-0.4-9-7.2-16.5-16.5-16.5
				c-9,0-16.5,7.5-16.5,16.5c0,9,7.5,16.5,16.5,16.5c9.3,0,16.1-7.5,16.5-16.5C150.7,267.5,145.7,267.5,145.5,270.8z"/>
		</g>
	</g>
	<g>
		<g>
			<path fill="#092E54" d="M311.5,377.9l-25.3-91l17-28.7c10.9-18.4,30.7-29.7,52.1-29.7h0c21.4,0,41.2,11.3,52.1,29.7l17,28.7
				l-25.3,91c-5.5,19.7-43.8,33.3-43.8,33.3h0C355.3,411.2,317,397.6,311.5,377.9z"/>
			<g>
				<path d="M313.9,377.3c-7.5-27.2-15.1-54.3-22.6-81.5c-0.7-2.3-1.3-4.7-2-7c-0.1-0.5-0.2-1.3-0.5-1.7c-1.1-1.7,0.8,1.4-0.4,1.2
					c1,0.2,9.8-16.7,10.7-18.1c4.2-7.1,8.1-14.5,13.8-20.6c9.9-10.5,23.5-17.2,37.9-18.2c14.1-1.1,28.3,3.1,39.5,11.6
					c7.9,6,13.1,13.8,18.1,22.2c4.2,7.1,8.1,14.6,12.7,21.5c0.1,0.1,0.9,1.7,1,1.7c-3,0.7,0.8-3.1-0.4-1.2c-0.8,1.3-1,3.7-1.4,5.1
					c-7.8,28.2-15.2,56.5-23.5,84.6c-4.7,16-25,25.2-39.2,30.9c-0.8,0.3-1.7,0.6-2.5,1c-0.7,0.4,1.4,0.6,0.4,0c-2.1-1.3-5-2-7.3-3
					c-9.2-4.2-18.5-9.1-25.9-16.1C318.6,386,315.4,382.1,313.9,377.3c-0.9-3.1-5.8-1.8-4.8,1.3c3.1,10,11.8,17.2,20.3,22.6
					c7.3,4.7,15.4,8.8,23.6,11.8c4,1.4,7.9-1.3,11.6-2.9c9.4-4.2,18.8-9.4,26.5-16.3c10.4-9.3,12.3-21.9,15.8-34.7
					c5.1-18.3,10.2-36.6,15.3-55c1.4-5.1,3.3-10.4,4.3-15.6c0.8-4.2-3.7-9-5.7-12.4c-3.7-6.3-7.4-12.7-11.2-19
					c-7.3-12.1-18.2-21.5-31.4-26.7c-26.6-10.5-57.7-0.9-74.2,22.3c-4.6,6.4-8.3,13.6-12.3,20.4c-2.1,3.6-4.3,7.3-6.4,10.9
					c-0.9,1.5-1.4,2.3-1.2,4c0.5,4.5,2.6,9.2,3.8,13.5c2.5,8.9,5,17.9,7.5,26.8c4.4,15.8,8.8,31.6,13.2,47.5
					c0.3,0.9,0.5,1.9,0.8,2.8C310,381.7,314.8,380.4,313.9,377.3z"/>
			</g>
		</g>
		<g>
			<path fill="#FFFFFF" d="M318.8,370.8l-21-82.6l14.1-23.3c9.1-16.3,25.5-26.3,43.3-26.3h0c17.8,0,34.3,10,43.3,26.3l14.1,23.6
				l-21,82.3c-4.5,17.4-36.4,29.4-36.4,29.4h0C355.2,400.3,323.4,388.2,318.8,370.8z"/>
			<g>
				<path d="M320.3,370.4c-6.1-23.9-12.2-47.9-18.3-71.8c-0.9-3.5-2-7-2.7-10.6c-0.2-0.8-0.4,1.4-0.1,0.8c0.3-0.7,0.9-1.5,1.3-2.2
					c2-3.3,3.9-6.5,5.9-9.8c3.7-6.1,7.1-12.8,11.5-18.4c7.5-9.5,18.5-16.2,30.6-18c12.7-1.9,25.8,1.8,35.9,9.8
					c6.9,5.4,11.3,12.6,15.7,20c3.4,5.7,6.4,12.4,10.5,17.6c0.8,1,0.5,1.9,0.6,0.2c0,0.2-0.1,0.5-0.2,0.7c-0.5,1.5-0.8,3.1-1.2,4.7
					c-6.4,25.2-12.7,50.4-19.3,75.5c-4.1,15.5-21.3,23.3-34.7,29.4c-0.9,0.4-1.3,0.3-0.4,0.4c-0.7-0.1-1.7-0.7-2.3-1
					c-3.6-1.5-7.1-3.3-10.5-5.2C333.8,387.7,323.3,380.8,320.3,370.4c-0.5-1.9-3.4-1.1-2.9,0.8c2.6,8.8,10,15.1,17.3,20.1
					c5.6,3.7,12.6,8.4,19.2,10.1c3.2,0.8,6.9-1.8,9.8-3.2c8.2-4,16.4-8.9,22.7-15.7c7.5-8.1,8.8-19.6,11.4-29.9
					c4.2-16.3,8.3-32.6,12.5-48.9c1.2-4.5,2.8-9.2,3.5-13.8c0.5-3.4-2.8-6.9-4.5-9.7c-9.5-16-17.9-32.5-36.4-39.6
					c-22.6-8.8-48.1,0.9-60.8,21.1c-3.7,5.9-7.2,12-10.9,18c-1.7,2.9-5.2,6.4-4.7,9.9c0.6,4.7,2.4,9.4,3.6,13.9c2,7.9,4,15.8,6,23.6
					c3.5,13.9,7.1,27.8,10.6,41.6c0.2,0.9,0.4,1.7,0.7,2.6C317.9,373.1,320.8,372.3,320.3,370.4z"/>
			</g>
		</g>
		<g>
			<line fill="#FFFFFF" x1="355" y1="231" x2="355" y2="411"/>
			<g>
				<path d="M353.2,231.4c0,20.3,0,40.6,0,60.9c0,32.2,0,64.4,0,96.5c0,7.4,0,14.9,0,22.3c0,1.9,3,1.9,3,0c0-20.3,0-40.6,0-60.9
					c0-32.2,0-64.4,0-96.5c0-7.4,0-14.9,0-22.3C356.2,229.5,353.2,229.5,353.2,231.4L353.2,231.4z"/>
			</g>
		</g>
		<g>
			<line fill="#FFFFFF" x1="422" y1="288" x2="289" y2="288"/>
			<g>
				<path d="M422.5,286.7c-39,0-78.1,0-117.1,0c-5.5,0-10.9,0-16.4,0c-1.9,0-1.9,3,0,3c39,0,78.1,0,117.1,0c5.5,0,10.9,0,16.4,0
					C424.4,289.7,424.4,286.7,422.5,286.7L422.5,286.7z"/>
			</g>
		</g>
		<g>
			<polygon fill="#55C7F9" points="389,278 389,298 365,298 365,323 345,323 345,298 320,298 320,278 345,278 345,254 365,254 
				365,278 			"/>
			<g>
				<path d="M387.7,278.3c0,6.6,0,13.2,0,19.8c0.5-0.5,1-1,1.5-1.5c-8.1,0-16.3,0-24.4,0c-0.8,0-1.5,0.7-1.5,1.5
					c0,8.1,0,16.3,0,24.4c0.5-0.5,1-1,1.5-1.5c-6.6,0-13.2,0-19.8,0c0.5,0.5,1,1,1.5,1.5c0-8.1,0-16.3,0-24.4c0-0.8-0.7-1.5-1.5-1.5
					c-8.1,0-16.3,0-24.4,0c0.5,0.5,1,1,1.5,1.5c0-6.6,0-13.2,0-19.8c-0.5,0.5-1,1-1.5,1.5c8.1,0,16.3,0,24.4,0
					c0.8,0,1.5-0.7,1.5-1.5c0-8.1,0-16.3,0-24.4c-0.5,0.5-1,1-1.5,1.5c6.6,0,13.2,0,19.8,0c-0.5-0.5-1-1-1.5-1.5
					c0,8.1,0,16.3,0,24.4c0,0.8,0.7,1.5,1.5,1.5c8.1,0,16.3,0,24.4,0c1.9,0,1.9-3,0-3c-8.1,0-16.3,0-24.4,0c0.5,0.5,1,1,1.5,1.5
					c0-8.1,0-16.3,0-24.4c0-0.8-0.7-1.5-1.5-1.5c-6.6,0-13.2,0-19.8,0c-0.8,0-1.5,0.7-1.5,1.5c0,8.1,0,16.3,0,24.4
					c0.5-0.5,1-1,1.5-1.5c-8.1,0-16.3,0-24.4,0c-0.8,0-1.5,0.7-1.5,1.5c0,6.6,0,13.2,0,19.8c0,0.8,0.7,1.5,1.5,1.5
					c8.1,0,16.3,0,24.4,0c-0.5-0.5-1-1-1.5-1.5c0,8.1,0,16.3,0,24.4c0,0.8,0.7,1.5,1.5,1.5c6.6,0,13.2,0,19.8,0
					c0.8,0,1.5-0.7,1.5-1.5c0-8.1,0-16.3,0-24.4c-0.5,0.5-1,1-1.5,1.5c8.1,0,16.3,0,24.4,0c0.8,0,1.5-0.7,1.5-1.5
					c0-6.6,0-13.2,0-19.8C390.7,276.4,387.7,276.4,387.7,278.3z"/>
			</g>
		</g>
	</g>
	<g>
		<g>
			<g>
				<path d="M254.5,120.3c2.5-13.2,7.8-30.5,19.4-38.4c10.2-6.9,21.8,0.1,30.1,6.8c10.9,8.9,19.5,20.3,28.8,30.8
					c10.2,11.5,21.6,22.1,36.5,27.2c-0.2-1.5-0.4-3-0.6-4.6c-4.7,3.1-10.6,5-16.1,5.6c-14.6,1.6-26.3-6.8-34.3-18.4
					c-1.3-1.9-4.7-1.4-4.7,1.3c0.2,9.1,3.1,18.4,7.6,26.3c0.9-1.2,1.9-2.4,2.8-3.7c-3.9-1.6-9.8-4.9-14-7.7
					c-4.4-2.9-8.6-6.2-12.4-9.8c-4.4-4.2-7.7-9.2-11.9-13.6c-8.9-9.7-23.6-11.4-34.8-4.6c-2.8,1.7-0.2,6,2.5,4.3
					c3.5-2.1,7.9-3.3,12-3.5c11.6-0.4,16.9,8.2,23.8,16c9,10.1,20.8,18.7,33.4,23.7c2.1,0.9,3.8-1.9,2.8-3.7
					c-4-7.1-6.7-15.5-6.9-23.7c-1.6,0.4-3.1,0.8-4.7,1.3c8.6,12.4,21.1,21.9,36.8,21c7-0.4,14.6-2.5,20.5-6.4
					c1.8-1.2,1.5-3.9-0.6-4.6c-29.4-10.1-42.5-41.8-66.4-59.3c-8.7-6.4-19.9-11.6-30.4-6.4c-8.7,4.4-14,13.7-17.7,22.3
					c-2.8,6.5-5,13.4-6.3,20.4C249.1,122.1,253.9,123.5,254.5,120.3z"/>
			</g>
		</g>
		<g>
			<g>
				<path d="M191,94.7c22-1.9,44.4,11.4,59.3,26.8c0.8-1.4,1.6-2.8,2.4-4.2c-9.7-3.8-20.6-6.2-31.1-6.3
					c-11.6-0.1-20.8,3.6-27.6,12.9c-15.1,20.6-24.2,45-40,65.2c-6.5,8.2-16.4,19.6-28.2,17.5c-3.1-0.6-4.5,4.2-1.3,4.8
					c9.7,1.8,18.3-3.4,25.1-9.9c9.1-8.7,16.1-19.7,22.5-30.5c6.8-11.4,12.9-23.2,19.7-34.6c5.4-9,10.3-17.5,21.4-19.8
					c12.4-2.5,26.6,0.8,38.2,5.4c2.4,1,4-2.5,2.4-4.2c-15.8-16.3-39.6-30.2-62.9-28.2C187.8,89.9,187.8,94.9,191,94.7L191,94.7z"/>
			</g>
		</g>
		<g>
			<g>
				<path d="M325.7,146c3.2,11.7,7.9,23.2,13.5,33.8c7.6,14.4,19.5,31.5,37.5,32c3.2,0.1,3.2-4.9,0-5c-17-0.5-27.9-18.9-34.6-32.2
					c-4.8-9.5-8.8-19.7-11.6-30C329.6,141.6,324.8,142.9,325.7,146L325.7,146z"/>
			</g>
		</g>
	</g>
	<g>
		<g>
			<path d="M325.3,167c-3.5,1.1-9.2-0.1-12.8-0.8c-9.1-1.8-17.5-5.7-24.3-12c-2.4-2.2-5.9,1.4-3.5,3.5c7.5,6.8,16.6,11.3,26.6,13.3
				c4.6,0.9,10.9,2.3,15.5,0.8C329.7,170.9,328.3,166,325.3,167L325.3,167z"/>
		</g>
	</g>
	<g>
		<g>
			<path d="M176.6,171.8c4.6,1.5,11,0.1,15.5-0.8c9.9-2,19-6.5,26.6-13.3c2.4-2.2-1.2-5.7-3.5-3.5c-6.9,6.2-15.3,10.2-24.3,12
				c-3.6,0.7-9.4,1.9-12.8,0.8C174.9,166,173.6,170.9,176.6,171.8L176.6,171.8z"/>
		</g>
	</g>
	<g>
		<path fill="#A0EAA7" d="M176.5,110.1c-13.6-8.5-27.2-14-38.3-34c0,0-8.2,16.8,6.4,32.2l-11.1-3.8c0,0,4.4,23.4,27.7,27.5
			S190.1,118.6,176.5,110.1z"/>
		<g>
			<path d="M177.8,108c-6.3-3.9-13-7.5-19-11.9c-7.7-5.7-13.7-12.9-18.4-21.2c-0.9-1.5-3.5-1.7-4.3,0c-5.7,12-1.7,25.8,6.8,35.3
				c0.8-1.4,1.6-2.8,2.4-4.2c-3.7-1.3-7.4-2.6-11.1-3.8c-1.9-0.7-3.4,1.3-3.1,3.1c2.9,14.8,15.4,26.9,30.2,29.3
				c8.2,1.3,19.4,0.6,23.7-7.8C188.7,119.4,183.9,112,177.8,108c-2.7-1.8-5.2,2.5-2.5,4.3c5,3.3,8.8,10.1,3.1,14.8
				c-6.5,5.4-18.3,3.2-25.2-0.2c-8.7-4.3-15.4-13.4-17.3-23c-1,1-2.1,2.1-3.1,3.1c3.7,1.3,7.4,2.6,11.1,3.8c2.5,0.9,4-2.4,2.4-4.2
				c-7-7.7-10.5-19.7-6-29.2c-1.4,0-2.9,0-4.3,0c4.8,8.4,10.8,15.7,18.4,21.6c6.5,5.1,13.8,8.9,20.8,13.3
				C178,114,180.5,109.7,177.8,108z"/>
		</g>
	</g>
	<g>
		<path fill="#A0EAA7" d="M330.8,110.1c13.6-8.5,27.2-14,38.3-34c0,0,8.2,16.8-6.4,32.2l11.1-3.8c0,0-4.4,23.4-27.7,27.5
			C322.9,136.1,317.2,118.6,330.8,110.1z"/>
		<g>
			<path d="M332.1,112.3c7-4.3,14.3-8.2,20.8-13.3c7.6-5.9,13.6-13.3,18.4-21.6c-1.4,0-2.9,0-4.3,0c4.5,9.6,0.9,21.5-6,29.2
				c-1.6,1.7-0.1,5,2.4,4.2c3.7-1.3,7.4-2.6,11.1-3.8c-1-1-2.1-2.1-3.1-3.1c-1.9,9.6-8.6,18.6-17.3,23c-6.9,3.4-18.6,5.7-25.2,0.2
				C323.3,122.4,327.1,115.6,332.1,112.3c2.7-1.8,0.2-6.1-2.5-4.3c-6,4-10.8,11.1-7.4,18.4c4.1,8.7,15.5,9.5,23.8,8.2
				c14.8-2.4,27.3-14.5,30.2-29.3c0.3-1.7-1.1-3.7-3.1-3.1c-3.7,1.3-7.4,2.6-11.1,3.8c0.8,1.4,1.6,2.8,2.4,4.2
				c8.5-9.5,12.5-23.3,6.8-35.3c-0.8-1.7-3.4-1.5-4.3,0c-4.7,8.3-10.7,15.5-18.4,21.2c-6,4.4-12.7,8-19,11.9
				C326.8,109.7,329.3,114,332.1,112.3z"/>
		</g>
	</g>
	<g id="Layer_2">
	</g>
</g>
<g id="Layer_3">
	<g>
		<g id="ENFJ_4_1_">
			<g>
				<polygon fill="#A0EAA7" points="256.8,135.1 250,102.1 267.3,135.1 				"/>
				<g>
					<path d="M258.2,134.7c-2.3-11-4.5-22-6.8-33c-0.9,0.4-1.8,0.8-2.7,1.2c5.8,11,11.6,22,17.3,33c0.4-0.8,0.9-1.5,1.3-2.3
						c-3.5,0-7,0-10.6,0c-1.9,0-1.9,3,0,3c3.5,0,7,0,10.6,0c1.2,0,1.8-1.3,1.3-2.3c-5.8-11-11.6-22-17.3-33
						c-0.8-1.6-3.1-0.4-2.7,1.2c2.3,11,4.5,22,6.8,33C255.7,137.4,258.6,136.6,258.2,134.7z"/>
				</g>
			</g>
			<g>
				<polygon fill="#D9FFDA" points="250,168.1 256.8,135.1 267.3,135.1 				"/>
				<g>
					<path d="M251.4,168.5c2.3-11,4.5-22,6.8-33c-0.5,0.4-1,0.7-1.4,1.1c3.5,0,7,0,10.6,0c-0.4-0.8-0.9-1.5-1.3-2.3
						c-5.8,11-11.6,22-17.3,33c-0.9,1.7,1.7,3.2,2.6,1.5c5.8-11,11.6-22,17.3-33c0.5-1-0.1-2.3-1.3-2.3c-3.5,0-7,0-10.6,0
						c-0.6,0-1.3,0.5-1.4,1.1c-2.3,11-4.5,22-6.8,33C248.2,169.6,251,170.4,251.4,168.5z"/>
				</g>
			</g>
			<g>
				<polygon fill="#0C4589" points="232.7,135.1 250,102.1 256.8,135.1 				"/>
				<g>
					<path d="M234,135.8c5.8-11,11.6-22,17.3-33c-0.9-0.1-1.8-0.2-2.7-0.4c2.2,11,4.5,22,6.7,33c0.5-0.6,1-1.3,1.4-1.9
						c-8,0-16,0-24.1,0c-1.9,0-1.9,3,0,3c8,0,16,0,24.1,0c1,0,1.6-1,1.4-1.9c-2.2-11-4.5-22-6.7-33c-0.3-1.3-2.2-1.5-2.7-0.4
						c-5.8,11-11.6,22-17.3,33C230.5,136,233.1,137.6,234,135.8z"/>
				</g>
			</g>
			<g>
				<polygon fill="#308DD8" points="250,168.1 232.7,135.1 256.8,135.1 				"/>
				<g>
					<path d="M251.3,167.3c-5.8-11-11.6-22-17.3-33c-0.4,0.8-0.9,1.5-1.3,2.3c8,0,16,0,24.1,0c-0.5-0.6-1-1.3-1.4-1.9
						c-2.2,11-4.5,22-6.7,33c-0.4,1.9,2.5,2.7,2.9,0.8c2.2-11,4.5-22,6.7-33c0.2-0.9-0.4-1.9-1.4-1.9c-8,0-16,0-24.1,0
						c-1.2,0-1.8,1.3-1.3,2.3c5.8,11,11.6,22,17.3,33C249.6,170.6,252.2,169,251.3,167.3z"/>
				</g>
			</g>
		</g>
	</g>
</g>
</svg>
