<?xml version="1.0" encoding="utf-8"?>
<!-- Generator: Adobe Illustrator 18.1.1, SVG Export Plug-In . SVG Version: 6.00 Build 0)  -->
<svg version="1.1" xmlns="http://www.w3.org/2000/svg" xmlns:xlink="http://www.w3.org/1999/xlink" x="0px" y="0px"
	 viewBox="0 0 500 500" enable-background="new 0 0 500 500" xml:space="preserve">
<g id="Layer_1">
	<g>
		<path fill="#FFFFFF" d="M158.4,303.7l-93.4,51.7c-12.2,6.8-27.6,2.3-34.4-9.9l0,0c-6.8-12.2-2.3-27.6,9.9-34.4l93.4-51.7
			c12.2-6.8,27.6-2.3,34.4,9.9l0,0C175,281.6,170.6,296.9,158.4,303.7z"/>
		<g>
			<path d="M157.1,301.5c-16,8.9-32,17.7-48,26.6C98.3,334.1,87.6,340,76.8,346c-5.6,3.1-11.4,7.3-17.6,9.1
				c-21.6,6.6-38.5-20.6-23.4-37.2c4.5-5,12-8,17.8-11.2c21.7-12,43.4-24,65.1-36c6.6-3.6,13.6-8.8,20.9-11
				c10.4-3.2,21.9,1.8,26.8,11.5C172.1,282.3,167.6,295.4,157.1,301.5c-2.8,1.6-0.3,6,2.5,4.3c16.8-9.9,19.3-34.2,3.4-46.3
				c-10.7-8.2-23-6.3-34-0.2c-22.5,12.5-45.1,25-67.6,37.4c-7.3,4-14.7,7.9-21.9,12.1c-14.6,8.4-19.3,27.7-8.8,41.4
				c9.2,11.9,24.7,13.3,37.2,6.4c8.7-4.8,17.3-9.6,25.9-14.3c21.9-12.1,43.9-24.3,65.8-36.4C162.4,304.3,159.9,300,157.1,301.5z"/>
		</g>
	</g>
	<g>
		<path fill="#F789A3" d="M78.1,349.1c4.6,4.1,83.1-47.4,83.1-47.4c11-6.1,14.3-21.1,7.4-33.5l0,0c-6.9-12.4-21.4-17.6-32.4-11.5
			c0,0-84,41.2-84,44.9S73.5,345,78.1,349.1z"/>
		<g>
			<path d="M76.8,351.2c1.9,1.4,5.1,0.1,7-0.7c4.3-1.7,8.4-3.9,12.4-6c11.8-6.4,23.2-13.4,34.5-20.4c9.3-5.8,18.6-11.7,27.9-17.7
				c2-1.3,4.2-2.6,6.1-4c6.9-5,10.4-13.5,10-21.8c-0.8-16.9-16.9-32.8-34.4-28.2c-6.7,1.8-13.5,6.2-19.6,9.2
				c-21.8,10.9-44.4,21.2-65.1,34.2c-2.1,1.3-5.6,3-5.8,5.8c-0.3,4.1,3.8,9.9,5.5,13.3c3.7,7.4,7.6,14.7,11.7,21.8
				c2.7,4.7,5.3,10.3,9.3,14.1c2.3,2.2,5.9-1.3,3.5-3.5c-3-2.8-5-7-7-10.5c-3.4-5.8-6.6-11.7-9.8-17.6c-2.5-4.8-5.1-9.7-7.3-14.8
				c-0.3-0.6-0.4-1.5-0.8-2.1c-0.7-1.1,0.5-0.8-0.4,0.1c-0.8,0.8,0.9-0.5,1.2-0.8c7.2-5.3,15.7-9.2,23.5-13.3
				c10.7-5.7,21.5-11.2,32.3-16.6c7.8-3.9,15.7-7.8,23.5-11.7c3-1.5,6-3,9.5-3.3c9.1-0.8,17.5,5,21.8,12.8
				c4.5,8.2,4.6,19.2-1.9,26.4c-2,2.2-4.6,3.7-7.1,5.3c-7.4,4.8-14.8,9.6-22.3,14.3c-11.6,7.3-23.2,14.5-35.1,21.3
				c-4.7,2.7-9.5,5.3-14.4,7.6c-1.6,0.7-3.2,1.5-4.8,2c-0.5,0.2-1.1,0.4-1.7,0.5c-0.4,0.1,0,0,0.2,0.1
				C76.7,345,74.2,349.3,76.8,351.2z"/>
		</g>
	</g>
	<g>
		<path fill="#FFFFFF" d="M446.5,311.5c10-5.7,24.3-20.4,16.9-34.9c-7.4-14.5-31.7-4.5-37.3-1.4L446.5,311.5z"/>
		<g>
			<path d="M447.7,313.6c7.7-4.5,14.8-11.3,18.3-19.7c3.1-7.6,2.5-17.5-4.1-23.3c-9.8-8.6-27-3.2-37.1,2.4c-1.2,0.7-1.5,2.3-0.9,3.4
				c6.8,12.1,13.6,24.2,20.4,36.3c1.6,2.8,5.9,0.3,4.3-2.5c-6.8-12.1-13.6-24.2-20.4-36.3c-0.3,1.1-0.6,2.3-0.9,3.4
				c7.8-4.3,20.6-8.7,29.1-4.4c7.3,3.7,7.6,13.4,4.6,20c-3.2,6.9-9.3,12.5-15.8,16.3C442.4,310.9,444.9,315.3,447.7,313.6z"/>
		</g>
	</g>
	<g>
		<path fill="#F789A3" d="M447,312.9c-1.6,4.7-35.7,19.8-35.7,19.8c-13.6,7.6-31.6,1.7-40.6-11l-23.4-33.3
			c-4.2-5.9-4.9-13.2-2.6-19.4c1.4-3.7,3.9-7.1,7.4-9.6c9.3-6.7,22.4-4.5,29,4.8l18.1,22.3c0,0,21.9-13.5,25.8-13.1
			C429,273.7,448.6,308.2,447,312.9z"/>
		<g>
			<path d="M444.9,311.7c-0.7,1.6-3.2,2.8-4.6,3.7c-3,1.9-6.1,3.5-9.2,5.1c-5.9,3.1-12,6-18.1,8.7c-6.4,2.9-12.4,5.2-19.7,4
				c-8.5-1.5-15.8-6.4-20.8-13.4c-6.8-9.5-13.4-19.1-20.1-28.7c-4-5.6-7.5-11.3-6-18.6c2.5-12.4,17.2-18.6,27.8-11.7
				c5,3.2,8.8,9.4,12.5,14c3.6,4.5,7.2,9,10.9,13.4c0.7,0.8,2.2,0.9,3,0.4c4.7-2.9,9.4-5.6,14.2-8.2c2.8-1.5,6.1-3.7,9.3-4.4
				c1.2-0.2,0-0.5,0.6-0.2c0.8,0.4,1.7,1.8,2.2,2.5c4.4,5.5,7.9,11.9,11.2,18.1c1.7,3.1,3.3,6.3,4.7,9.6c0.6,1.5,2.3,4.8,1.9,6.2
				c-0.8,3.1,4.1,4.5,4.8,1.3c1.3-5.5-3.8-13.2-6.1-17.8c-3.8-7.4-8-15.1-13.3-21.5c-4.3-5.1-8.3-3-13.7-0.3
				c-6.3,3.1-12.3,6.7-18.3,10.3c1,0.1,2,0.3,3,0.4c-3.7-4.6-7.4-9.2-11.2-13.8c-3.9-4.9-7.8-11-13.2-14.4
				c-8.8-5.6-20.5-4.4-28.1,2.6c-8.7,7.9-9.7,21-3.3,30.6c6.9,10.4,14.4,20.5,21.6,30.7c10.7,15.2,28.2,22.8,45.8,14.4
				c6-2.9,12.2-5.6,18.1-8.6c4.2-2.1,8.4-4.3,12.3-6.8c2.1-1.3,5-3,6.1-5.3C450.5,311.3,446.2,308.7,444.9,311.7z"/>
		</g>
	</g>
	<path fill="#FFFFFF" d="M381.1,349.2c-0.2-6-2.6-18-5.4-31.8l-0.1-0.5c-3-14.8-6.6-33.2-6.8-41.2c-0.1-5,0.1-12.2,0.1-19.8v-0.4
		c0-15.6,0.1-37.1-1.4-51.2c-1.2-11.5-5.6-40.7-19.2-62.5c-12.6-20.2-27.9-33.2-47.9-41.4c-18.4-7.4-52.1-8.3-53-8.3
		c-8.6,0-30.7,0.7-49.1,8.1c-20.1,8.1-35.3,21.3-47.9,41.5c-13.6,21.8-17.9,51-19.1,62.5c-1.5,14.1-1.4,35.5-1.2,51.2l0,3.6
		c0,6.3,0,12.3-0.1,16.6c-0.2,8.1-3.9,26.5-6.9,41.3l-0.1,0.6c-2.7,13.8-5.1,25.7-5.4,31.7c-0.6,15.4,3.8,25.7,14.9,35.8
		c7.1,6.4,14,9.5,21.7,9.5c4.1,0,7.8-0.8,11.9-1.8c1.1-0.3,2.3-0.6,3.5-1.1c4,2.2,11.7,5.6,21.7,5.6c6.5,0,14.1-1.4,22.4-5.4
		c4.8,3.9,9.7,7.5,9.7,7.5c12.9,7.3,24,8.8,25.6,8.8h0.4c1.6,0,12.7-0.9,26.1-8.8c0,0,4.3-3.1,8.8-6.7c7.7,3.4,14.7,4.6,20.8,4.6
		c10.9,0,19-3.9,22.7-6.1c1.8,0.7,3.3,1.3,4.9,1.7c4,1,7.7,1.8,11.8,1.8c7.8,0,14.4-2.9,21.6-9.5C377.4,375,381.7,364.6,381.1,349.2
		z"/>
	<g>
		<path fill="#FFB6CB" d="M362.8,172.8c-23.3,2.8-39.3-28.8-83-25.8s-79.4-33-79.4-33c-14.7,33.5-58.8,48.8-58.8,48.8s19-64,88-68.5
			s93,18,105.8,30.5S362.8,172.8,362.8,172.8z"/>
	</g>
	<path fill="#F789A3" d="M128.7,290.9c0,0-15.9,58.5-1.8,86.2s58.8,3.3,64.9,2.6c6.2-0.7,15,0.8,26.5,11.3s25,22.6,46.3,11.9
		s29-24.6,39.7-23.5c10.7,1.1,28.5,13.8,41.8,14.2c13.3,0.4,31.5-12.1,34-29.1c2.5-17-12.4-100.4-12.4-100.4s-55.4,10.1-101.2,10.8
		c-45.7,0.7-132.1-9.4-132.1-9.4L128.7,290.9z"/>
	<path fill="#C8C8C8" d="M285.5,389.9c0,0,8-6.1,16.8-7c8.8-1,23.8,5.5,23.8,5.5s-4.9,10-14.2,9.8
		C302.5,397.9,285.5,389.9,285.5,389.9z"/>
	<path fill="#C8C8C8" d="M169.6,389.9c0,0,8-6.1,16.8-7s23.8,5.5,23.8,5.5s-4.9,10-14.2,9.8S169.6,389.9,169.6,389.9z"/>
	<path d="M384.6,351.4c-0.2-6.1-2.7-18.4-5.5-32.5l-0.1-0.5c-3-15.1-6.3-33.9-6.5-42.1c-0.1-5.1,0.5-12.5,0.5-20.3v-0.4
		c0-16-0.3-37.9-1.8-52.2c-1.2-11.8-5.9-41.6-19.8-63.8c-12.9-20.6-28.6-33.9-49.1-42.2c-18.8-7.6-53.2-8.4-54.2-8.4
		c-8.8,0-31.4,0.7-50.1,8.3c-20.5,8.3-36,21.7-48.9,42.3c-13.9,22.2-18.3,52.1-19.6,63.8c-1.5,14.4-1.4,36.3-1.3,52.3l0,3.7
		c0,6.5,0,12.5-0.1,16.9c-0.2,8.3-4,27-7,42.1L121,319c-2.8,14.1-5.2,26.3-5.5,32.4c-0.6,15.7,3.8,26.3,15.2,36.6
		c7.3,6.6,14.3,9.7,22.1,9.7c4.2,0,8-0.8,12.1-1.9c1.1-0.3,2.3-0.7,3.5-1.1c4.1,2.3,11.9,5.7,22.2,5.7c6.7,0,14.4-1.4,22.9-5.5
		c4.9,4,9.9,7.4,10,7.4c13.2,7.5,24.5,8.7,26.2,8.7h0.4c1.7,0,13-0.7,26.7-8.7c0,0,4.4-3.1,8.9-6.7c7.8,3.5,15,4.8,21.3,4.8
		c11.2,0,19.4-4,23.2-6.2c1.8,0.7,3.4,1.3,5,1.7c4.1,1,7.9,1.9,12.1,1.9c7.9,0,14.7-3,22.1-9.6C380.8,377.7,385.2,367.1,384.6,351.4
		z M177.2,390.9c6.1-2.6,13.6-5.5,20.1-5.5c4.4,0,7.6,1.3,10.4,4.1l0.2,0.2C194.8,395.1,184,393.4,177.2,390.9z M291.7,390.4
		c0.3-0.3,0.6-0.5,0.8-0.8c2.8-2.8,6-4.2,10.4-4.2c6.1,0,13,2.5,18.9,5C315.4,392.9,304.8,395.2,291.7,390.4z M364.5,382.6
		c-6,5.4-11.1,7.8-17.2,7.8c-3.4,0-6.6-0.7-10.4-1.6c-2-0.5-4.5-1.6-7.7-3l-0.5-0.2c-7-3.2-16.7-7.4-25.8-7.4
		c-6.3,0-11.3,2.1-15.6,6.3c-11,11.2-21.9,15.7-29.1,17.5c-0.1,0-7.1,1.9-15.2-0.3c-8.2-2.3-19.2-6.1-30.1-17.2
		c-4.1-4.2-9.2-6.3-15.6-6.3c-9,0-18.6,4.2-25.9,7.4l-0.3,0.1c-3.3,1.4-5.8,2.6-7.9,3.1c-3.8,0.9-7,1.6-10.4,1.6
		c-6,0-11.3-2.4-17.2-7.8c-9.8-8.9-13.3-17.3-12.8-30.9c0.2-5.5,2.6-17.4,5.4-31.2l0.1-0.6c3.2-16.1,6.9-34.4,7.2-43.4
		c0.1-4.5,0.1-10.6,0.1-17.1l0-3.7c-0.1-15.8-0.3-37.5,1.2-51.4c1.2-11.3,5.4-39.8,18.5-60.7c12-19.3,26.5-31.8,45.4-39.5
		c17.6-7.1,39-8.2,47.4-8.2c0.8,0,33.8,0.8,51.4,7.9c19,7.7,33.4,20.4,45.5,39.6c13.1,21,18,49.5,19.2,60.8
		c1.5,14,1.9,35.7,1.9,51.5v0.4c0,7.8-0.8,15.2-0.7,20.4c0.2,8.9,3.6,27.2,6.8,43.4l-0.1,0.5c2.8,13.8,5.1,25.8,5.3,31.3
		C377.9,365.3,374.3,373.7,364.5,382.6z"/>
	<path d="M324.2,191.9c0,10.6-8.6,19.1-19.1,19.1c-10.6,0-19.1-8.6-19.1-19.1c0-0.9,0.1-1.8,0.2-2.6c1.2,0.8,2.6,1.3,4.1,1.3
		c4,0,7.2-3.2,7.2-7.2c0-2.9-1.7-5.4-4.1-6.5c3.2-2.5,7.3-4,11.7-4C315.6,172.8,324.2,181.4,324.2,191.9z"/>
	<path d="M214.1,191.9c0,10.6-8.6,19.1-19.1,19.1c-10.6,0-19.1-8.6-19.1-19.1c0-0.9,0.1-1.8,0.2-2.6c1.2,0.8,2.6,1.3,4.1,1.3
		c4,0,7.2-3.2,7.2-7.2c0-2.9-1.7-5.4-4.1-6.5c3.2-2.5,7.3-4,11.7-4C205.5,172.8,214.1,181.4,214.1,191.9z"/>
	<path d="M228.2,226.4c7.4,11.1,20.6,14.5,32.4,8.7c2.7-1.3,0.4-5.4-2.4-4.1c-9.5,4.6-20.1,1.9-26-7
		C230.6,221.5,226.5,223.8,228.2,226.4L228.2,226.4z"/>
	
		<ellipse transform="matrix(0.7169 -0.6971 0.6971 0.7169 -112.2272 180.7014)" fill="#F68694" cx="166.4" cy="228.6" rx="7.4" ry="3.4"/>
	
		<ellipse transform="matrix(0.7169 -0.6971 0.6971 0.7169 -109.0657 190.8302)" fill="#F68694" cx="180.5" cy="229.7" rx="7.4" ry="3.4"/>
	
		<ellipse transform="matrix(0.7169 -0.6971 0.6971 0.7169 -105.0878 200.6274)" fill="#F68694" cx="194.5" cy="229.7" rx="7.4" ry="3.4"/>
	
		<ellipse transform="matrix(-0.7169 -0.6971 0.6971 -0.7169 413.1115 627.1812)" fill="#F68694" cx="333.9" cy="229.7" rx="7.4" ry="3.4"/>
	
		<ellipse transform="matrix(-0.7169 -0.6971 0.6971 -0.7169 388.1657 619.3947)" fill="#F68694" cx="319.8" cy="230.9" rx="7.4" ry="3.4"/>
	
		<ellipse transform="matrix(-0.7169 -0.6971 0.6971 -0.7169 364.0363 609.5975)" fill="#F68694" cx="305.8" cy="230.9" rx="7.4" ry="3.4"/>
	<g>
		<path fill="#C95079" d="M319.6,405.7h-39.9c-3.8,0-6.8-3.7-6.8-8.2c5.8-25.9,6.7-51.8,0-77.8c0-4.5,3-8.2,6.8-8.2h39.9
			c3.8,0,6.8,3.7,6.8,8.2c7,25.9,6.4,51.8,0,77.8C326.4,402,323.3,405.7,319.6,405.7z"/>
		<g>
			<path d="M319.6,403.2c-10.4,0-20.9,0-31.3,0c-5.5,0-13.5,1.7-12.6-6.9c0.6-5.9,2.3-11.8,3-17.7c0.9-6.9,1.3-13.9,1.4-20.9
				c0-6.4-0.3-12.7-1.1-19c-0.3-2.8-0.7-5.5-1.2-8.3c-0.6-3.6-2.3-7.6-2-11.2c0.4-6.8,7.6-5.2,12.6-5.2c6.7,0,13.4,0,20,0
				c3.5,0,7.8-0.7,11.2,0c4.6,0.9,4.5,6.5,5.4,10.1c0.8,3.4,1.5,6.9,2.1,10.4c1.3,7.6,1.9,15.3,1.9,23c0,8-0.6,16.1-1.9,24
				c-0.6,3.8-1.3,7.6-2.2,11.4C324.1,396.4,324.1,402.7,319.6,403.2c-3.2,0.3-3.2,5.3,0,5c4.9-0.5,8-3.7,9.1-8.5
				c1.6-7.3,3-14.7,4-22.1c2-15.7,1.6-31.6-1.3-47.2c-1.5-8.3-1.9-21.1-12.8-21.4c-6.7-0.2-13.3,0-20,0c-6.2,0-12.4-0.3-18.6,0
				c-3.5,0.2-6.3,1.7-8.1,4.7c-3.3,5.6-0.1,12.2,1,18.1c3,17.1,2.7,34.7,0.1,51.8c-0.9,5.9-4.2,13.3-1.5,19c1.6,3.4,4.6,5.4,8.4,5.6
				c13.2,0.7,26.5,0,39.7,0C322.8,408.2,322.8,403.2,319.6,403.2z"/>
		</g>
	</g>
	<g>
		<path fill="#C95079" d="M365.4,309.2c-75.9,20.7-152.6,20.9-230.1,0c0,0-12.3-5.4-12.3-12v-29.7c0-6.6,5.5-12,12.3-12
			c85.1,23.8,161.6,23.4,230.1,0c6.7,0,12.3,5.4,12.3,12v29.7C377.7,303.8,365.4,309.2,365.4,309.2z"/>
		<g>
			<path d="M364.7,306.8c-47.9,12.9-97.6,18.1-147.1,14.2c-25-1.9-49.7-6.1-74-12.2c-5.7-1.4-15.7-3.7-17.9-10.4
				c-1.1-3.5-0.2-8.5-0.2-12.1c0-5.6-0.1-11.2,0-16.9c0-1.7-0.1-3.4,0.5-5.1c2.8-7.7,10.1-6,16.2-4.4c22.7,6,45.9,10.5,69.3,13.1
				c43.2,4.9,87.2,2.9,129.5-7.8c5.6-1.4,11.1-3,16.5-4.7c5.9-1.8,12.3-4.7,16.3,2c2.5,4.2,1.3,11.1,1.3,15.7c0,5.9,0.3,11.9,0,17.8
				c-0.3,5.5-6.5,8.8-11,10.9c-2.9,1.3-0.4,5.6,2.5,4.3c5-2.2,11.4-6.1,13.1-11.6c1.2-3.9,0.4-9,0.4-13c0-10.6,3.3-27.5-9-32.6
				c-4.6-1.9-8.1-0.5-12.6,1c-5.7,1.8-11.5,3.5-17.3,5c-11.7,3-23.6,5.4-35.6,7.1c-24.4,3.5-49.1,4.2-73.6,2.7
				c-26.6-1.7-53.1-6-79-12.3c-9.7-2.4-21.8-8.7-29.5,1.1c-3.3,4.2-3.1,9-3.1,14.1c0,6.6,0,13.1,0,19.7c0,5,0.1,8.8,3.9,12.7
				c5.6,5.6,12.3,7.2,19.8,9.1c13.9,3.4,28,6.2,42.2,8.4c60.1,9,121.1,5,179.7-10.8C369.2,310.8,367.9,306,364.7,306.8z"/>
		</g>
	</g>
	<g>
		<g>
			<path d="M176.7,171.9c12.8-2.4,25.7-2.9,38.5,0c3.1,0.7,4.5-4.1,1.3-4.8c-13.7-3.1-27.5-2.6-41.2,0
				C172.2,167.7,173.5,172.5,176.7,171.9L176.7,171.9z"/>
		</g>
	</g>
	<g>
		<g>
			<path d="M286.7,171.9c12.8-2.4,25.7-2.9,38.5,0c3.1,0.7,4.5-4.1,1.3-4.8c-13.7-3.1-27.5-2.6-41.2,0
				C282.2,167.7,283.5,172.5,286.7,171.9L286.7,171.9z"/>
		</g>
	</g>
	<g>
		<g>
			<path d="M123.2,276.9c12.1,3,24.2,5.6,36.4,8.1c18.6,3.8,37.7,7.9,56.8,8.5c3.2,0.1,3.2-4.9,0-5c-19-0.6-38.1-4.7-56.6-8.5
				c-11.8-2.4-23.5-5-35.2-7.9C121.4,271.3,120,276.1,123.2,276.9L123.2,276.9z"/>
		</g>
	</g>
	<g>
		<g>
			<path d="M376.4,288c-3,2.1-6.7,3.4-10.2,4.6c-11.5,3.9-23.8,5.5-35.9,6.3c-3.2,0.2-3.2,5.2,0,5c12.5-0.8,25.3-2.4,37.2-6.4
				c3.8-1.3,8-2.8,11.4-5.1C381.6,290.5,379.1,286.1,376.4,288L376.4,288z"/>
		</g>
	</g>
	<g>
		<path fill="#FFD6E2" d="M491.8,263.5c-2.8,18.5-16.9-6.3-20.1,11c-3.2,17.2-49.6,21.8-55.3-6.7s16.9-39.7,37.7-39.7
			S494.6,245,491.8,263.5z"/>
		<g>
			<path d="M489.4,262.8c-0.4,2.3-0.6,5.4-3.4,5.4c-2,0-4.2-1.6-6.1-2.2c-4.2-1.2-7.7,0.1-9.5,4.2c-1,2.1-1,4.5-2.2,6.6
				c-1.2,2.1-3.2,3.6-5.2,4.8c-5.1,3-11.2,4.2-17.1,4.1c-13.7,0-25.6-7.1-27.5-21.4c-2.3-17.8,9.3-29.9,26.1-33
				c19.7-3.7,47.7,8.3,44.7,32.1c-0.4,3.2,4.6,3.2,5,0c2.7-22-20.3-37.8-40.2-37.9c-16.7-0.1-35.7,7.5-40.1,25.3
				c-4,16.2,3,32.8,19.3,38.1c11.7,3.8,29.2,2.6,37.6-7.5c2.2-2.7,2.5-5.3,3.6-8.4c1.4-3.8,3.9-2.1,6.9-1c7.1,2.7,11.4-0.3,12.7-7.8
				C494.7,261,489.9,259.7,489.4,262.8z"/>
		</g>
	</g>
	<g>
		<g>
			<path d="M142.2,165.2c24.3-8.5,49.5-25.9,60.3-49.9c-1.3,0.2-2.6,0.3-3.9,0.5c13.6,13.6,31.7,24.2,50,29.9
				c7.4,2.3,15.1,3.7,22.8,4c8.5,0.3,16.9-0.8,25.4,0.5c13.1,2.1,24.5,8.1,35.8,14.8c9.2,5.5,19,11.6,30.2,10.4c3.2-0.3,3.2-5.3,0-5
				c-9.9,1-18.6-4.3-26.8-9.2c-10.1-6-20.4-11.8-32-14.6c-15.2-3.7-30.6-0.3-45.8-3.5c-13.8-2.9-26.8-9-38.6-16.8
				c-6.2-4.1-12.3-8.6-17.5-13.9c-1-1-3.3-1-3.9,0.5c-10.3,22.8-34.1,39.5-57.3,47.6C137.8,161.4,139.1,166.2,142.2,165.2
				L142.2,165.2z"/>
		</g>
	</g>
	<g>
		<g>
			<path fill="#F789A3" d="M316.6,114.3l-175.1,53c-6.4,1.9-13.3-1.7-15.2-8.1l-0.2-0.7c-1.9-6.4,1.7-13.3,8.1-15.2l175.1-53
				c6.4-1.9,13.3,1.7,15.2,8.1l0.2,0.7C326.7,105.5,323.1,112.3,316.6,114.3z"/>
			<g>
				<path d="M316,111.9c-22.1,6.7-44.2,13.4-66.2,20.1c-32.2,9.7-64.4,19.5-96.6,29.2c-3.5,1.1-7,2.2-10.6,3.2
					c-7,2-14.8-1.4-14.5-9.8c0.4-9.7,15.1-11.5,22.4-13.6c32.8-9.9,65.6-19.9,98.4-29.8c14.9-4.5,29.8-9,44.8-13.5
					c6.5-2,18.7-8.1,25.1-3.4C325.2,99,323.5,109.1,316,111.9c-3,1.1-1.7,5.9,1.3,4.8c11-4,14.3-18.7,4.7-26.3
					c-4.7-3.7-10.2-3.5-15.6-1.9c-11.3,3.4-22.6,6.9-34,10.3c-36.9,11.2-73.7,22.3-110.6,33.5c-9.3,2.8-18.7,5.4-27.9,8.4
					c-18.8,6.2-10.1,34.2,9,28.7c28.3-8,56.3-17,84.4-25.5c29.4-8.9,59-17.4,88.3-26.7c0.5-0.2,1.1-0.3,1.6-0.5
					C320.4,115.7,319.1,110.9,316,111.9z"/>
			</g>
		</g>
		<g>
			<path fill="#F789A3" d="M173.8,83.1l-0.5,0.6c-4.9,5.7-13.6,6.3-19.3,1.3l-18.6-16.2c-5.7-4.9-6.3-13.6-1.3-19.3l0.5-0.6
				c4.9-5.7,13.6-6.3,19.3-1.3l18.6,16.2C178.1,68.7,178.7,77.4,173.8,83.1z"/>
			<g>
				<path d="M172,81.3c-8.9,10.2-17.8,0.6-24.8-5.6c-6.8-6-19.7-14.1-11.4-24.5c8.4-10.4,18-0.4,24.8,5.6
					C167.5,62.8,180.2,70.9,172,81.3c-2,2.5,1.5,6.1,3.5,3.5c4-5,5.4-11.4,2.6-17.4c-1.7-3.7-4.7-6.1-7.7-8.7
					c-3.7-3.2-7.4-6.4-11.1-9.6c-2.8-2.4-5.4-5.1-9-6.4c-12.3-4.4-25,7.3-21.7,19.9c2.2,8.3,12.4,14.4,18.4,19.7
					c3,2.6,5.9,5.7,9.6,7.2c6.7,2.8,14.1,0.6,18.8-4.8C177.6,82.4,174.1,78.9,172,81.3z"/>
			</g>
		</g>
		<g>
			<line fill="#F789A3" x1="147.1" y1="60.2" x2="164.7" y2="75.9"/>
			<g>
				<path d="M145.3,62c5.9,5.2,11.8,10.5,17.7,15.7c2.4,2.1,5.9-1.4,3.5-3.5c-5.9-5.2-11.8-10.5-17.7-15.7
					C146.4,56.3,142.9,59.8,145.3,62L145.3,62z"/>
			</g>
		</g>
		<g>
			<path fill="#F789A3" d="M329,73.9c9.8,32.2-39.3,30.6-100.4,49.2s-111.2,50.3-121,18s31.8-80.8,93-99.3S319.2,41.6,329,73.9z"/>
			<g>
				<path d="M326.6,74.5c1.5,5.1,1.9,10.5-1.4,15.1c-3.4,4.7-9.2,7.4-14.4,9.4c-16.5,6.5-34.5,9.3-51.7,13.3
					c-22.7,5.4-44.8,12.4-66.7,20.5c-17.8,6.6-35.6,14.6-54.3,18.3c-12.3,2.5-25.2,1.7-28.7-12.4c-3.2-13.2,2.6-27,9.7-37.8
					c21.3-32.6,60.5-53.1,97.8-60.8c23.1-4.7,47.7-4.9,70.3,2.1C303.5,47.4,321.1,57.3,326.6,74.5c1,3.1,5.8,1.7,4.8-1.3
					c-5-15.7-18.8-26.1-33.5-32.3c-19.6-8.3-41.8-10.3-62.8-8.4c-42.6,3.8-87.2,23.8-114.3,57.7c-9.3,11.6-17.4,26.1-17.2,41.5
					c0.2,12.3,6.2,23.7,19.2,25.4c17,2.3,35.5-6.2,51-11.9c24-8.9,47.8-18.1,72.7-24.6c22.3-5.8,46.2-8.6,67.5-17.5
					c6-2.5,12.3-5.9,15.9-11.6c3.5-5.6,3.3-12.2,1.5-18.4C330.5,70.1,325.7,71.4,326.6,74.5z"/>
			</g>
		</g>
	</g>
	<g>
		<path fill="#FFD140" d="M469.9,245.1c2.6,3.3-4.2,7.6-9,7.3c-4.7-0.3-5.3-6.6-8.2-8.3s6.6-9.8,11.3-7.5
			C468.7,238.9,467.3,241.8,469.9,245.1z"/>
		<g>
			<path d="M468.6,245.9c1.4,2.3-3.2,4.3-4.7,4.7c-2,0.6-4,0.6-5.5-1.1c-1.1-1.3-1.7-3-2.7-4.4c-0.4-0.6-1.9-1.8-1.9-2.2
				c-0.1-2.3,5.9-4.9,7.5-5.1C466.1,237.3,466.5,242.9,468.6,245.9c1.1,1.6,3.7,0.1,2.6-1.5c-1.8-2.6-2-5.8-4.7-7.9
				c-2.1-1.7-4.5-2.1-7-1.3c-2.9,0.9-10.4,5-8.6,9.1c0.4,1,1.5,1.5,2.2,2.4c0.8,1.1,1.4,2.4,2.1,3.6c1.5,2.2,3.4,3.7,6.1,3.8
				c4.3,0.1,13.3-4,9.9-9.6C470.2,242.7,467.6,244.2,468.6,245.9z"/>
		</g>
	</g>
	<g>
		<path fill="#FFD140" d="M444.4,243.2c1.6,3.8-2.9,8.5-5.1,10.1s-9.2,0.2-10.8-3.6c-1.6-3.8,2.9-8.2,5.1-10.1
			C435.8,237.7,442.8,239.4,444.4,243.2z"/>
		<g>
			<path d="M442.9,243.6c0.9,2.9-1.9,7.1-4.6,8.5c-2.3,1.2-7-0.3-8.2-2.6c-1.5-2.7,2.2-7.7,4.6-9c2.7-1.4,7.1,0.9,8.3,3.3
				c0.9,1.7,3.5,0.2,2.6-1.5c-1.9-3.8-7.9-6.5-12-4.6c-4,1.8-8.4,8.3-6.5,12.7c1.8,3.9,8.2,6.2,12.1,4.5c4.1-1.8,7.9-7.8,6.5-12.2
				C445.3,241,442.4,241.8,442.9,243.6z"/>
		</g>
	</g>
	<g>
		<path fill="#FFD140" d="M447.9,268c-1,5.4-6.7,10.2-9.1,11.7c-2.4,1.5-8.9-2.8-11.4-7.1s5-14.3,8.3-10.9S448.8,262.6,447.9,268z"
			/>
		<g>
			<path d="M446.4,267.6c-0.8,3.4-5.5,11.4-9.8,10.7c-2.3-0.4-4.7-2.6-6.2-4.3c-2-2.2-2.4-3.9-1.2-6.6c0.7-1.5,2.3-4.3,4.1-4.7
				c1.4-0.3,2.5,1,3.8,1.5c2.1,0.9,9.6,0.7,9.3,3.7c-0.2,1.9,2.8,1.9,3,0c0.6-6.4-8.9-5.2-12.6-7.4c-4.9-2.8-9.3,2.4-10.8,7
				c-2,6.2,4.5,12.4,10.2,13.7c6,1.3,12-8.1,13.2-12.9C449.8,266.6,446.9,265.8,446.4,267.6z"/>
		</g>
	</g>
	<g>
		<g>
			<path fill="#FFD6E2" d="M46,209.7c50.2,0,0-91.7,0-91.7S-4.2,209.7,46,209.7z"/>
			<g>
				<path d="M46,212.2c43.5-0.5,18.3-61.5,8.4-82.9c-2-4.2-4-8.5-6.2-12.6c-0.9-1.6-3.4-1.6-4.3,0c-5.8,10.7-10.8,22-14.9,33.5
					c-5.3,14.7-12.4,35.5-4.7,50.6C28.5,209.1,37.2,212.1,46,212.2c3.2,0,3.2-5,0-5c-38.2-0.4-11.5-59.8-3.1-77.5
					c1.7-3.5,3.4-7,5.3-10.4c-1.4,0-2.9,0-4.3,0c5,9.2,9.3,18.8,13,28.5c5.4,14,12.4,32.6,7.7,47.7c-2.7,8.5-10.1,11.6-18.5,11.7
					C42.8,207.2,42.8,212.2,46,212.2z"/>
			</g>
		</g>
		<g>
			<g>
				<path d="M35.6,149.3c-2,7.8-3.2,15.9-3.7,24c-0.7,11.6-0.1,25.1,7.8,34.4c1.3,1.5,3.4-0.7,2.1-2.1c-7.8-9.2-7.7-23.2-6.8-34.5
					c0.6-7,1.6-14.1,3.4-20.9C38.9,148.2,36,147.4,35.6,149.3L35.6,149.3z"/>
			</g>
		</g>
		<g>
			<g>
				<path d="M59,179.5c-0.1,9-2.5,18.9-8.1,26c-1.2,1.5,0.9,3.6,2.1,2.1c6.1-7.8,8.8-18.3,8.9-28.1C62,177.6,59,177.6,59,179.5
					L59,179.5z"/>
			</g>
		</g>
		<g>
			<g>
				<path d="M51,185.5c0.6,7-0.5,14.6-4.2,20.6c-1,1.6,1.6,3.2,2.6,1.5c4-6.4,5.2-14.7,4.6-22.1C53.8,183.6,50.8,183.5,51,185.5
					L51,185.5z"/>
			</g>
		</g>
		<g>
			<path fill="#FFD140" d="M61,151.8C54.5,133.5,46,118,46,118s-9.1,16.6-15.7,35.7c0,0-2.2,12.7,6.1,2.6s7.8-5.9,8.7,1.1
				c0.9,7,3.2-5.3,12.2,0.5C66.3,163.7,61,151.8,61,151.8z"/>
			<g>
				<path d="M62.4,151.4c-4.2-11.7-9.2-23.2-15.1-34.1c-0.5-1-2.1-1-2.6,0c-4.5,8.3-8.4,16.9-11.9,25.7c-1,2.5-8.1,16.2-2.1,18.6
					c3.2,1.3,6.4-3.7,8-5.6c0.7-0.8,2.2-3.3,3.3-3.5c1.4-0.2,0.1-0.8,1,0.4c1,1.4,0.3,4.3,0.8,6c0.7,2,1.8,2.6,3.7,1.7
					c1.2-0.6,1.9-1.8,3.2-2.3c3.1-1.3,5.3,1.1,8,2.2c7,2.8,5.2-5.7,3.5-9.3c-0.8-1.8-3.4-0.2-2.6,1.5c0.4,0.9,0.7,1.8,0.9,2.7
					c0.9,3.3,0.1,2.7-2.6,1.3c-3.4-1.7-6.5-2.6-9.9-0.4c-0.8,0.5-2.8,1.8-1.9,2.1c0.9,0.2,0-4-0.2-5.1c-0.4-2.1-1-4.8-3.7-4.4
					c-3,0.4-8.9,10.4-10.3,9.7c-2.1-1,1.2-8.6,1.7-9.7c3.8-10.3,8.4-20.4,13.6-30c-0.9,0-1.7,0-2.6,0c5.8,10.7,10.7,22,14.8,33.4
					C60.2,154,63.1,153.2,62.4,151.4z"/>
			</g>
		</g>
		<g>
			<path fill="#FFD140" d="M46.1,412.7L46.1,412.7c-4.6,0-8.4-3.8-8.4-8.4V213.1c0-4.6,3.8-8.4,8.4-8.4h0c4.6,0,8.4,3.8,8.4,8.4
				v191.2C54.5,408.9,50.7,412.7,46.1,412.7z"/>
			<g>
				<path d="M46.1,410.2c-8.7,0-5.9-17.8-5.9-23c0-15.4,0-30.7,0-46.1c0-35.3,0-70.5,0-105.8c0-7.3-0.7-14.9,0-22.2
					c0.7-7.5,11-7.8,11.8,0c0.1,0.6,0,1.3,0,1.9c0.1,3.6,0,7.3,0,11c0,33.4,0,66.7,0,100.1c0,17,0,34.1,0,51.1
					c0,8.7,0.6,17.7,0,26.4C51.7,407,50,409.8,46.1,410.2c-3.2,0.3-3.2,5.3,0,5c13.2-1.1,10.9-15,10.9-24.3c0-16.1,0-32.2,0-48.4
					c0-37.4,0-74.8,0-112.3c0-7.3,2.4-20.8-4.4-25.9c-7.5-5.6-17,0.4-17.4,9.1c-0.1,3.1,0,6.2,0,9.2c0,35.3,0,70.6,0,105.8
					c0,17.8,0,35.7,0,53.5c0,7.7-1.1,16.3,0.2,23.9c0.9,5.2,5.4,9.2,10.7,9.2C49.3,415.2,49.3,410.2,46.1,410.2z"/>
			</g>
		</g>
		<g>
			<ellipse fill="#FFD140" cx="51.2" cy="172.1" rx="5.1" ry="5.4"/>
			<g>
				<path d="M54.8,172.1c-0.3,4.9-7.3,5-7.3,0C47.6,167.1,54.6,167.2,54.8,172.1c0.1,1.9,3.1,1.9,3,0c-0.2-3.6-2.8-6.9-6.6-6.9
					c-3.7,0-6.6,3.3-6.6,6.9c0,3.5,2.8,6.7,6.3,6.9c4,0.2,6.7-3.1,6.9-6.9C57.9,170.2,54.9,170.2,54.8,172.1z"/>
			</g>
		</g>
	</g>
</g>
<g id="Layer_2">
	<g>
		<g id="ENFJ_4_1_">
			<g>
				<polygon fill="#FFD140" points="256.8,135.1 250,102.1 267.3,135.1 				"/>
				<g>
					<path d="M258.2,134.7c-2.3-11-4.5-22-6.8-33c-0.9,0.4-1.8,0.8-2.7,1.2c5.8,11,11.6,22,17.3,33c0.4-0.8,0.9-1.5,1.3-2.3
						c-3.5,0-7,0-10.6,0c-1.9,0-1.9,3,0,3c3.5,0,7,0,10.6,0c1.2,0,1.8-1.3,1.3-2.3c-5.8-11-11.6-22-17.3-33
						c-0.8-1.6-3.1-0.4-2.7,1.2c2.3,11,4.5,22,6.8,33C255.7,137.4,258.6,136.6,258.2,134.7z"/>
				</g>
			</g>
			<g>
				<polygon fill="#FFE197" points="250,168.1 256.8,135.1 267.3,135.1 				"/>
				<g>
					<path d="M251.4,168.5c2.3-11,4.5-22,6.8-33c-0.5,0.4-1,0.7-1.4,1.1c3.5,0,7,0,10.6,0c-0.4-0.8-0.9-1.5-1.3-2.3
						c-5.8,11-11.6,22-17.3,33c-0.9,1.7,1.7,3.2,2.6,1.5c5.8-11,11.6-22,17.3-33c0.5-1-0.1-2.3-1.3-2.3c-3.5,0-7,0-10.6,0
						c-0.6,0-1.3,0.5-1.4,1.1c-2.3,11-4.5,22-6.8,33C248.2,169.6,251,170.4,251.4,168.5z"/>
				</g>
			</g>
			<g>
				<polygon fill="#F789A3" points="232.7,135.1 250,102.1 256.8,135.1 				"/>
				<g>
					<path d="M234,135.8c5.8-11,11.6-22,17.3-33c-0.9-0.1-1.8-0.2-2.7-0.4c2.2,11,4.5,22,6.7,33c0.5-0.6,1-1.3,1.4-1.9
						c-8,0-16,0-24.1,0c-1.9,0-1.9,3,0,3c8,0,16,0,24.1,0c1,0,1.6-1,1.4-1.9c-2.2-11-4.5-22-6.7-33c-0.3-1.3-2.2-1.5-2.7-0.4
						c-5.8,11-11.6,22-17.3,33C230.5,136,233.1,137.6,234,135.8z"/>
				</g>
			</g>
			<g>
				<polygon fill="#FFCCDD" points="250,168.1 232.7,135.1 256.8,135.1 				"/>
				<g>
					<path d="M251.3,167.3c-5.8-11-11.6-22-17.3-33c-0.4,0.8-0.9,1.5-1.3,2.3c8,0,16,0,24.1,0c-0.5-0.6-1-1.3-1.4-1.9
						c-2.2,11-4.5,22-6.7,33c-0.4,1.9,2.5,2.7,2.9,0.8c2.2-11,4.5-22,6.7-33c0.2-0.9-0.4-1.9-1.4-1.9c-8,0-16,0-24.1,0
						c-1.2,0-1.8,1.3-1.3,2.3c5.8,11,11.6,22,17.3,33C249.6,170.6,252.2,169,251.3,167.3z"/>
				</g>
			</g>
		</g>
	</g>
</g>
</svg>
