<svg xmlns="http://www.w3.org/2000/svg" xml:space="preserve" viewBox="0 0 500 500"><g><path fill="#fff" d="M158.4 303.7 65 355.4c-12.2 6.8-27.6 2.3-34.4-9.9s-2.3-27.6 9.9-34.4l93.4-51.7c12.2-6.8 27.6-2.3 34.4 9.9 6.7 12.3 2.3 27.6-9.9 34.4"/><path d="M157.1 301.5c-16 8.9-32 17.7-48 26.6-10.8 6-21.5 11.9-32.3 17.9-5.6 3.1-11.4 7.3-17.6 9.1-21.6 6.6-38.5-20.6-23.4-37.2 4.5-5 12-8 17.8-11.2l65.1-36c6.6-3.6 13.6-8.8 20.9-11 10.4-3.2 21.9 1.8 26.8 11.5 5.7 11.1 1.2 24.2-9.3 30.3-2.8 1.6-.3 6 2.5 4.3 16.8-9.9 19.3-34.2 3.4-46.3-10.7-8.2-23-6.3-34-.2-22.5 12.5-45.1 25-67.6 37.4-7.3 4-14.7 7.9-21.9 12.1-14.6 8.4-19.3 27.7-8.8 41.4 9.2 11.9 24.7 13.3 37.2 6.4 8.7-4.8 17.3-9.6 25.9-14.3 21.9-12.1 43.9-24.3 65.8-36.4 2.8-1.6.3-5.9-2.5-4.4"/><path fill="#f789a3" d="M78.1 349.1c4.6 4.1 83.1-47.4 83.1-47.4 11-6.1 14.3-21.1 7.4-33.5s-21.4-17.6-32.4-11.5c0 0-84 41.2-84 44.9s21.3 43.4 25.9 47.5"/><path d="M76.8 351.2c1.9 1.4 5.1.1 7-.7 4.3-1.7 8.4-3.9 12.4-6 11.8-6.4 23.2-13.4 34.5-20.4q13.95-8.7 27.9-17.7c2-1.3 4.2-2.6 6.1-4 6.9-5 10.4-13.5 10-21.8-.8-16.9-16.9-32.8-34.4-28.2-6.7 1.8-13.5 6.2-19.6 9.2-21.8 10.9-44.4 21.2-65.1 34.2-2.1 1.3-5.6 3-5.8 5.8-.3 4.1 3.8 9.9 5.5 13.3 3.7 7.4 7.6 14.7 11.7 21.8 2.7 4.7 5.3 10.3 9.3 14.1 2.3 2.2 5.9-1.3 3.5-3.5-3-2.8-5-7-7-10.5-3.4-5.8-6.6-11.7-9.8-17.6-2.5-4.8-5.1-9.7-7.3-14.8-.3-.6-.4-1.5-.8-2.1-.7-1.1.5-.8-.4.1-.8.8.9-.5 1.2-.8 7.2-5.3 15.7-9.2 23.5-13.3 10.7-5.7 21.5-11.2 32.3-16.6 7.8-3.9 15.7-7.8 23.5-11.7 3-1.5 6-3 9.5-3.3 9.1-.8 17.5 5 21.8 12.8 4.5 8.2 4.6 19.2-1.9 26.4-2 2.2-4.6 3.7-7.1 5.3-7.4 4.8-14.8 9.6-22.3 14.3-11.6 7.3-23.2 14.5-35.1 21.3-4.7 2.7-9.5 5.3-14.4 7.6-1.6.7-3.2 1.5-4.8 2-.5.2-1.1.4-1.7.5-.4.1 0 0 .2.1-2.5-2-5 2.3-2.4 4.2"/><path fill="#fff" d="M446.5 311.5c10-5.7 24.3-20.4 16.9-34.9s-31.7-4.5-37.3-1.4z"/><path d="M447.7 313.6c7.7-4.5 14.8-11.3 18.3-19.7 3.1-7.6 2.5-17.5-4.1-23.3-9.8-8.6-27-3.2-37.1 2.4-1.2.7-1.5 2.3-.9 3.4l20.4 36.3c1.6 2.8 5.9.3 4.3-2.5l-20.4-36.3c-.3 1.1-.6 2.3-.9 3.4 7.8-4.3 20.6-8.7 29.1-4.4 7.3 3.7 7.6 13.4 4.6 20-3.2 6.9-9.3 12.5-15.8 16.3-2.8 1.7-.3 6.1 2.5 4.4"/><path fill="#f789a3" d="M447 312.9c-1.6 4.7-35.7 19.8-35.7 19.8-13.6 7.6-31.6 1.7-40.6-11l-23.4-33.3c-4.2-5.9-4.9-13.2-2.6-19.4 1.4-3.7 3.9-7.1 7.4-9.6 9.3-6.7 22.4-4.5 29 4.8l18.1 22.3s21.9-13.5 25.8-13.1c4 .3 23.6 34.8 22 39.5"/><path d="M444.9 311.7c-.7 1.6-3.2 2.8-4.6 3.7-3 1.9-6.1 3.5-9.2 5.1-5.9 3.1-12 6-18.1 8.7-6.4 2.9-12.4 5.2-19.7 4-8.5-1.5-15.8-6.4-20.8-13.4-6.8-9.5-13.4-19.1-20.1-28.7-4-5.6-7.5-11.3-6-18.6 2.5-12.4 17.2-18.6 27.8-11.7 5 3.2 8.8 9.4 12.5 14 3.6 4.5 7.2 9 10.9 13.4.7.8 2.2.9 3 .4 4.7-2.9 9.4-5.6 14.2-8.2 2.8-1.5 6.1-3.7 9.3-4.4 1.2-.2 0-.5.6-.2.8.4 1.7 1.8 2.2 2.5 4.4 5.5 7.9 11.9 11.2 18.1 1.7 3.1 3.3 6.3 4.7 9.6.6 1.5 2.3 4.8 1.9 6.2-.8 3.1 4.1 4.5 4.8 1.3 1.3-5.5-3.8-13.2-6.1-17.8-3.8-7.4-8-15.1-13.3-21.5-4.3-5.1-8.3-3-13.7-.3-6.3 3.1-12.3 6.7-18.3 10.3 1 .1 2 .3 3 .4-3.7-4.6-7.4-9.2-11.2-13.8-3.9-4.9-7.8-11-13.2-14.4-8.8-5.6-20.5-4.4-28.1 2.6-8.7 7.9-9.7 21-3.3 30.6 6.9 10.4 14.4 20.5 21.6 30.7 10.7 15.2 28.2 22.8 45.8 14.4 6-2.9 12.2-5.6 18.1-8.6 4.2-2.1 8.4-4.3 12.3-6.8 2.1-1.3 5-3 6.1-5.3 1.3-2.7-3-5.3-4.3-2.3"/><path fill="#fff" d="M381.1 349.2c-.2-6-2.6-18-5.4-31.8l-.1-.5c-3-14.8-6.6-33.2-6.8-41.2-.1-5 .1-12.2.1-19.8v-.4c0-15.6.1-37.1-1.4-51.2-1.2-11.5-5.6-40.7-19.2-62.5-12.6-20.2-27.9-33.2-47.9-41.4-18.4-7.4-52.1-8.3-53-8.3-8.6 0-30.7.7-49.1 8.1-20.1 8.1-35.3 21.3-47.9 41.5-13.6 21.8-17.9 51-19.1 62.5-1.5 14.1-1.4 35.5-1.2 51.2v3.6c0 6.3 0 12.3-.1 16.6-.2 8.1-3.9 26.5-6.9 41.3l-.1.6c-2.7 13.8-5.1 25.7-5.4 31.7-.6 15.4 3.8 25.7 14.9 35.8 7.1 6.4 14 9.5 21.7 9.5 4.1 0 7.8-.8 11.9-1.8 1.1-.3 2.3-.6 3.5-1.1 4 2.2 11.7 5.6 21.7 5.6 6.5 0 14.1-1.4 22.4-5.4 4.8 3.9 9.7 7.5 9.7 7.5 12.9 7.3 24 8.8 25.6 8.8h.4c1.6 0 12.7-.9 26.1-8.8 0 0 4.3-3.1 8.8-6.7 7.7 3.4 14.7 4.6 20.8 4.6 10.9 0 19-3.9 22.7-6.1 1.8.7 3.3 1.3 4.9 1.7 4 1 7.7 1.8 11.8 1.8 7.8 0 14.4-2.9 21.6-9.5 11.3-10.1 15.6-20.5 15-35.9"/><path fill="#ffb6cb" d="M362.8 172.8c-23.3 2.8-39.3-28.8-83-25.8s-79.4-33-79.4-33c-14.7 33.5-58.8 48.8-58.8 48.8s19-64 88-68.5 93 18 105.8 30.5 27.4 48 27.4 48"/><path fill="#f789a3" d="M128.7 290.9s-15.9 58.5-1.8 86.2 58.8 3.3 64.9 2.6c6.2-.7 15 .8 26.5 11.3s25 22.6 46.3 11.9 29-24.6 39.7-23.5 28.5 13.8 41.8 14.2 31.5-12.1 34-29.1-12.4-100.4-12.4-100.4-55.4 10.1-101.2 10.8c-45.7.7-132.1-9.4-132.1-9.4z"/><path fill="#c8c8c8" d="M285.5 389.9s8-6.1 16.8-7c8.8-1 23.8 5.5 23.8 5.5s-4.9 10-14.2 9.8c-9.4-.3-26.4-8.3-26.4-8.3M169.6 389.9s8-6.1 16.8-7 23.8 5.5 23.8 5.5-4.9 10-14.2 9.8-26.4-8.3-26.4-8.3"/><path d="M384.6 351.4c-.2-6.1-2.7-18.4-5.5-32.5l-.1-.5c-3-15.1-6.3-33.9-6.5-42.1-.1-5.1.5-12.5.5-20.3v-.4c0-16-.3-37.9-1.8-52.2-1.2-11.8-5.9-41.6-19.8-63.8-12.9-20.6-28.6-33.9-49.1-42.2-18.8-7.6-53.2-8.4-54.2-8.4-8.8 0-31.4.7-50.1 8.3-20.5 8.3-36 21.7-48.9 42.3-13.9 22.2-18.3 52.1-19.6 63.8-1.5 14.4-1.4 36.3-1.3 52.3v3.7c0 6.5 0 12.5-.1 16.9-.2 8.3-4 27-7 42.1l-.1.6c-2.8 14.1-5.2 26.3-5.5 32.4-.6 15.7 3.8 26.3 15.2 36.6 7.3 6.6 14.3 9.7 22.1 9.7 4.2 0 8-.8 12.1-1.9 1.1-.3 2.3-.7 3.5-1.1 4.1 2.3 11.9 5.7 22.2 5.7 6.7 0 14.4-1.4 22.9-5.5 4.9 4 9.9 7.4 10 7.4 13.2 7.5 24.5 8.7 26.2 8.7h.4c1.7 0 13-.7 26.7-8.7 0 0 4.4-3.1 8.9-6.7 7.8 3.5 15 4.8 21.3 4.8 11.2 0 19.4-4 23.2-6.2 1.8.7 3.4 1.3 5 1.7 4.1 1 7.9 1.9 12.1 1.9 7.9 0 14.7-3 22.1-9.6 11.4-10.5 15.8-21.1 15.2-36.8m-207.4 39.5c6.1-2.6 13.6-5.5 20.1-5.5 4.4 0 7.6 1.3 10.4 4.1l.2.2c-13.1 5.4-23.9 3.7-30.7 1.2m114.5-.5c.3-.3.6-.5.8-.8 2.8-2.8 6-4.2 10.4-4.2 6.1 0 13 2.5 18.9 5-6.4 2.5-17 4.8-30.1 0m72.8-7.8c-6 5.4-11.1 7.8-17.2 7.8-3.4 0-6.6-.7-10.4-1.6-2-.5-4.5-1.6-7.7-3l-.5-.2c-7-3.2-16.7-7.4-25.8-7.4-6.3 0-11.3 2.1-15.6 6.3-11 11.2-21.9 15.7-29.1 17.5-.1 0-7.1 1.9-15.2-.3-8.2-2.3-19.2-6.1-30.1-17.2-4.1-4.2-9.2-6.3-15.6-6.3-9 0-18.6 4.2-25.9 7.4l-.3.1c-3.3 1.4-5.8 2.6-7.9 3.1-3.8.9-7 1.6-10.4 1.6-6 0-11.3-2.4-17.2-7.8-9.8-8.9-13.3-17.3-12.8-30.9.2-5.5 2.6-17.4 5.4-31.2l.1-.6c3.2-16.1 6.9-34.4 7.2-43.4.1-4.5.1-10.6.1-17.1v-3.7c-.1-15.8-.3-37.5 1.2-51.4 1.2-11.3 5.4-39.8 18.5-60.7 12-19.3 26.5-31.8 45.4-39.5 17.6-7.1 39-8.2 47.4-8.2.8 0 33.8.8 51.4 7.9 19 7.7 33.4 20.4 45.5 39.6 13.1 21 18 49.5 19.2 60.8 1.5 14 1.9 35.7 1.9 51.5v.4c0 7.8-.8 15.2-.7 20.4.2 8.9 3.6 27.2 6.8 43.4l-.1.5c2.8 13.8 5.1 25.8 5.3 31.3.5 13.6-3.1 22-12.9 30.9"/><path d="M324.2 191.9c0 10.6-8.6 19.1-19.1 19.1-10.6 0-19.1-8.6-19.1-19.1 0-.9.1-1.8.2-2.6 1.2.8 2.6 1.3 4.1 1.3 4 0 7.2-3.2 7.2-7.2 0-2.9-1.7-5.4-4.1-6.5 3.2-2.5 7.3-4 11.7-4 10.5-.1 19.1 8.5 19.1 19M214.1 191.9c0 10.6-8.6 19.1-19.1 19.1-10.6 0-19.1-8.6-19.1-19.1 0-.9.1-1.8.2-2.6 1.2.8 2.6 1.3 4.1 1.3 4 0 7.2-3.2 7.2-7.2 0-2.9-1.7-5.4-4.1-6.5 3.2-2.5 7.3-4 11.7-4 10.5-.1 19.1 8.5 19.1 19M228.2 226.4c7.4 11.1 20.6 14.5 32.4 8.7 2.7-1.3.4-5.4-2.4-4.1-9.5 4.6-20.1 1.9-26-7-1.6-2.5-5.7-.2-4 2.4"/><ellipse cx="166.4" cy="228.6" fill="#f68694" rx="7.4" ry="3.4" transform="rotate(-44.198 166.406 228.55)"/><ellipse cx="180.5" cy="229.7" fill="#f68694" rx="7.4" ry="3.4" transform="rotate(-44.198 180.46 229.72)"/><ellipse cx="194.5" cy="229.7" fill="#f68694" rx="7.4" ry="3.4" transform="rotate(-44.198 194.513 229.721)"/><ellipse cx="333.9" cy="229.7" fill="#f68694" rx="7.4" ry="3.4" transform="rotate(224.198 333.885 229.722)"/><ellipse cx="319.8" cy="230.9" fill="#f68694" rx="7.4" ry="3.4" transform="rotate(224.198 319.83 230.893)"/><ellipse cx="305.8" cy="230.9" fill="#f68694" rx="7.4" ry="3.4" transform="rotate(224.198 305.777 230.893)"/><path fill="#c95079" d="M319.6 405.7h-39.9c-3.8 0-6.8-3.7-6.8-8.2 5.8-25.9 6.7-51.8 0-77.8 0-4.5 3-8.2 6.8-8.2h39.9c3.8 0 6.8 3.7 6.8 8.2 7 25.9 6.4 51.8 0 77.8 0 4.5-3.1 8.2-6.8 8.2"/><path d="M319.6 403.2h-31.3c-5.5 0-13.5 1.7-12.6-6.9.6-5.9 2.3-11.8 3-17.7.9-6.9 1.3-13.9 1.4-20.9 0-6.4-.3-12.7-1.1-19-.3-2.8-.7-5.5-1.2-8.3-.6-3.6-2.3-7.6-2-11.2.4-6.8 7.6-5.2 12.6-5.2h20c3.5 0 7.8-.7 11.2 0 4.6.9 4.5 6.5 5.4 10.1.8 3.4 1.5 6.9 2.1 10.4 1.3 7.6 1.9 15.3 1.9 23 0 8-.6 16.1-1.9 24-.6 3.8-1.3 7.6-2.2 11.4-.8 3.5-.8 9.8-5.3 10.3-3.2.3-3.2 5.3 0 5 4.9-.5 8-3.7 9.1-8.5 1.6-7.3 3-14.7 4-22.1 2-15.7 1.6-31.6-1.3-47.2-1.5-8.3-1.9-21.1-12.8-21.4-6.7-.2-13.3 0-20 0-6.2 0-12.4-.3-18.6 0-3.5.2-6.3 1.7-8.1 4.7-3.3 5.6-.1 12.2 1 18.1 3 17.1 2.7 34.7.1 51.8-.9 5.9-4.2 13.3-1.5 19 1.6 3.4 4.6 5.4 8.4 5.6 13.2.7 26.5 0 39.7 0 3.2 0 3.2-5 0-5"/><path fill="#c95079" d="M365.4 309.2c-75.9 20.7-152.6 20.9-230.1 0 0 0-12.3-5.4-12.3-12v-29.7c0-6.6 5.5-12 12.3-12 85.1 23.8 161.6 23.4 230.1 0 6.7 0 12.3 5.4 12.3 12v29.7c0 6.6-12.3 12-12.3 12"/><path d="M364.7 306.8c-47.9 12.9-97.6 18.1-147.1 14.2-25-1.9-49.7-6.1-74-12.2-5.7-1.4-15.7-3.7-17.9-10.4-1.1-3.5-.2-8.5-.2-12.1 0-5.6-.1-11.2 0-16.9 0-1.7-.1-3.4.5-5.1 2.8-7.7 10.1-6 16.2-4.4 22.7 6 45.9 10.5 69.3 13.1 43.2 4.9 87.2 2.9 129.5-7.8 5.6-1.4 11.1-3 16.5-4.7 5.9-1.8 12.3-4.7 16.3 2 2.5 4.2 1.3 11.1 1.3 15.7 0 5.9.3 11.9 0 17.8-.3 5.5-6.5 8.8-11 10.9-2.9 1.3-.4 5.6 2.5 4.3 5-2.2 11.4-6.1 13.1-11.6 1.2-3.9.4-9 .4-13 0-10.6 3.3-27.5-9-32.6-4.6-1.9-8.1-.5-12.6 1-5.7 1.8-11.5 3.5-17.3 5-11.7 3-23.6 5.4-35.6 7.1-24.4 3.5-49.1 4.2-73.6 2.7-26.6-1.7-53.1-6-79-12.3-9.7-2.4-21.8-8.7-29.5 1.1-3.3 4.2-3.1 9-3.1 14.1v19.7c0 5 .1 8.8 3.9 12.7 5.6 5.6 12.3 7.2 19.8 9.1 13.9 3.4 28 6.2 42.2 8.4 60.1 9 121.1 5 179.7-10.8 3.2-1 1.9-5.8-1.3-5M176.7 171.9c12.8-2.4 25.7-2.9 38.5 0 3.1.7 4.5-4.1 1.3-4.8-13.7-3.1-27.5-2.6-41.2 0-3.1.6-1.8 5.4 1.4 4.8M286.7 171.9c12.8-2.4 25.7-2.9 38.5 0 3.1.7 4.5-4.1 1.3-4.8-13.7-3.1-27.5-2.6-41.2 0-3.1.6-1.8 5.4 1.4 4.8"/><path d="M123.2 276.9c12.1 3 24.2 5.6 36.4 8.1 18.6 3.8 37.7 7.9 56.8 8.5 3.2.1 3.2-4.9 0-5-19-.6-38.1-4.7-56.6-8.5-11.8-2.4-23.5-5-35.2-7.9-3.2-.8-4.6 4-1.4 4.8M376.4 288c-3 2.1-6.7 3.4-10.2 4.6-11.5 3.9-23.8 5.5-35.9 6.3-3.2.2-3.2 5.2 0 5 12.5-.8 25.3-2.4 37.2-6.4 3.8-1.3 8-2.8 11.4-5.1 2.7-1.9.2-6.3-2.5-4.4"/><path fill="#ffd6e2" d="M491.8 263.5c-2.8 18.5-16.9-6.3-20.1 11-3.2 17.2-49.6 21.8-55.3-6.7s16.9-39.7 37.7-39.7 40.5 16.9 37.7 35.4"/><path d="M489.4 262.8c-.4 2.3-.6 5.4-3.4 5.4-2 0-4.2-1.6-6.1-2.2-4.2-1.2-7.7.1-9.5 4.2-1 2.1-1 4.5-2.2 6.6s-3.2 3.6-5.2 4.8c-5.1 3-11.2 4.2-17.1 4.1-13.7 0-25.6-7.1-27.5-21.4-2.3-17.8 9.3-29.9 26.1-33 19.7-3.7 47.7 8.3 44.7 32.1-.4 3.2 4.6 3.2 5 0 2.7-22-20.3-37.8-40.2-37.9-16.7-.1-35.7 7.5-40.1 25.3-4 16.2 3 32.8 19.3 38.1 11.7 3.8 29.2 2.6 37.6-7.5 2.2-2.7 2.5-5.3 3.6-8.4 1.4-3.8 3.9-2.1 6.9-1 7.1 2.7 11.4-.3 12.7-7.8.7-3.2-4.1-4.5-4.6-1.4M142.2 165.2c24.3-8.5 49.5-25.9 60.3-49.9-1.3.2-2.6.3-3.9.5 13.6 13.6 31.7 24.2 50 29.9 7.4 2.3 15.1 3.7 22.8 4 8.5.3 16.9-.8 25.4.5 13.1 2.1 24.5 8.1 35.8 14.8 9.2 5.5 19 11.6 30.2 10.4 3.2-.3 3.2-5.3 0-5-9.9 1-18.6-4.3-26.8-9.2-10.1-6-20.4-11.8-32-14.6-15.2-3.7-30.6-.3-45.8-3.5-13.8-2.9-26.8-9-38.6-16.8-6.2-4.1-12.3-8.6-17.5-13.9-1-1-3.3-1-3.9.5-10.3 22.8-34.1 39.5-57.3 47.6-3.1.9-1.8 5.7 1.3 4.7"/><path fill="#f789a3" d="m316.6 114.3-175.1 53c-6.4 1.9-13.3-1.7-15.2-8.1l-.2-.7c-1.9-6.4 1.7-13.3 8.1-15.2l175.1-53c6.4-1.9 13.3 1.7 15.2 8.1l.2.7c2 6.4-1.6 13.2-8.1 15.2"/><path d="M316 111.9c-22.1 6.7-44.2 13.4-66.2 20.1-32.2 9.7-64.4 19.5-96.6 29.2-3.5 1.1-7 2.2-10.6 3.2-7 2-14.8-1.4-14.5-9.8.4-9.7 15.1-11.5 22.4-13.6 32.8-9.9 65.6-19.9 98.4-29.8 14.9-4.5 29.8-9 44.8-13.5 6.5-2 18.7-8.1 25.1-3.4s4.7 14.8-2.8 17.6c-3 1.1-1.7 5.9 1.3 4.8 11-4 14.3-18.7 4.7-26.3-4.7-3.7-10.2-3.5-15.6-1.9-11.3 3.4-22.6 6.9-34 10.3-36.9 11.2-73.7 22.3-110.6 33.5-9.3 2.8-18.7 5.4-27.9 8.4-18.8 6.2-10.1 34.2 9 28.7 28.3-8 56.3-17 84.4-25.5 29.4-8.9 59-17.4 88.3-26.7.5-.2 1.1-.3 1.6-.5 3.2-1 1.9-5.8-1.2-4.8"/><path fill="#f789a3" d="m173.8 83.1-.5.6c-4.9 5.7-13.6 6.3-19.3 1.3l-18.6-16.2c-5.7-4.9-6.3-13.6-1.3-19.3l.5-.6c4.9-5.7 13.6-6.3 19.3-1.3l18.6 16.2c5.6 4.9 6.2 13.6 1.3 19.3"/><path d="M172 81.3c-8.9 10.2-17.8.6-24.8-5.6-6.8-6-19.7-14.1-11.4-24.5 8.4-10.4 18-.4 24.8 5.6 6.9 6 19.6 14.1 11.4 24.5-2 2.5 1.5 6.1 3.5 3.5 4-5 5.4-11.4 2.6-17.4-1.7-3.7-4.7-6.1-7.7-8.7l-11.1-9.6c-2.8-2.4-5.4-5.1-9-6.4-12.3-4.4-25 7.3-21.7 19.9C130.8 70.9 141 77 147 82.3c3 2.6 5.9 5.7 9.6 7.2 6.7 2.8 14.1.6 18.8-4.8 2.2-2.3-1.3-5.8-3.4-3.4"/><path fill="#f789a3" d="m147.1 60.2 17.6 15.7"/><path d="M145.3 62c5.9 5.2 11.8 10.5 17.7 15.7 2.4 2.1 5.9-1.4 3.5-3.5-5.9-5.2-11.8-10.5-17.7-15.7-2.4-2.2-5.9 1.3-3.5 3.5"/><path fill="#f789a3" d="M329 73.9c9.8 32.2-39.3 30.6-100.4 49.2s-111.2 50.3-121 18 31.8-80.8 93-99.3 118.6-.2 128.4 32.1"/><path d="M326.6 74.5c1.5 5.1 1.9 10.5-1.4 15.1-3.4 4.7-9.2 7.4-14.4 9.4-16.5 6.5-34.5 9.3-51.7 13.3-22.7 5.4-44.8 12.4-66.7 20.5-17.8 6.6-35.6 14.6-54.3 18.3-12.3 2.5-25.2 1.7-28.7-12.4-3.2-13.2 2.6-27 9.7-37.8 21.3-32.6 60.5-53.1 97.8-60.8 23.1-4.7 47.7-4.9 70.3 2.1 16.3 5.2 33.9 15.1 39.4 32.3 1 3.1 5.8 1.7 4.8-1.3-5-15.7-18.8-26.1-33.5-32.3-19.6-8.3-41.8-10.3-62.8-8.4-42.6 3.8-87.2 23.8-114.3 57.7-9.3 11.6-17.4 26.1-17.2 41.5.2 12.3 6.2 23.7 19.2 25.4 17 2.3 35.5-6.2 51-11.9 24-8.9 47.8-18.1 72.7-24.6 22.3-5.8 46.2-8.6 67.5-17.5 6-2.5 12.3-5.9 15.9-11.6 3.5-5.6 3.3-12.2 1.5-18.4-.9-3-5.7-1.7-4.8 1.4"/><path fill="#ffd140" d="M469.9 245.1c2.6 3.3-4.2 7.6-9 7.3-4.7-.3-5.3-6.6-8.2-8.3s6.6-9.8 11.3-7.5 3.3 5.2 5.9 8.5"/><path d="M468.6 245.9c1.4 2.3-3.2 4.3-4.7 4.7-2 .6-4 .6-5.5-1.1-1.1-1.3-1.7-3-2.7-4.4-.4-.6-1.9-1.8-1.9-2.2-.1-2.3 5.9-4.9 7.5-5.1 4.8-.5 5.2 5.1 7.3 8.1 1.1 1.6 3.7.1 2.6-1.5-1.8-2.6-2-5.8-4.7-7.9-2.1-1.7-4.5-2.1-7-1.3-2.9.9-10.4 5-8.6 9.1.4 1 1.5 1.5 2.2 2.4.8 1.1 1.4 2.4 2.1 3.6 1.5 2.2 3.4 3.7 6.1 3.8 4.3.1 13.3-4 9.9-9.6-1-1.8-3.6-.3-2.6 1.4"/><path fill="#ffd140" d="M444.4 243.2c1.6 3.8-2.9 8.5-5.1 10.1s-9.2.2-10.8-3.6 2.9-8.2 5.1-10.1 9.2-.2 10.8 3.6"/><path d="M442.9 243.6c.9 2.9-1.9 7.1-4.6 8.5-2.3 1.2-7-.3-8.2-2.6-1.5-2.7 2.2-7.7 4.6-9 2.7-1.4 7.1.9 8.3 3.3.9 1.7 3.5.2 2.6-1.5-1.9-3.8-7.9-6.5-12-4.6-4 1.8-8.4 8.3-6.5 12.7 1.8 3.9 8.2 6.2 12.1 4.5 4.1-1.8 7.9-7.8 6.5-12.2-.4-1.7-3.3-.9-2.8.9"/><path fill="#ffd140" d="M447.9 268c-1 5.4-6.7 10.2-9.1 11.7s-8.9-2.8-11.4-7.1 5-14.3 8.3-10.9 13.1.9 12.2 6.3"/><path d="M446.4 267.6c-.8 3.4-5.5 11.4-9.8 10.7-2.3-.4-4.7-2.6-6.2-4.3-2-2.2-2.4-3.9-1.2-6.6.7-1.5 2.3-4.3 4.1-4.7 1.4-.3 2.5 1 3.8 1.5 2.1.9 9.6.7 9.3 3.7-.2 1.9 2.8 1.9 3 0 .6-6.4-8.9-5.2-12.6-7.4-4.9-2.8-9.3 2.4-10.8 7-2 6.2 4.5 12.4 10.2 13.7 6 1.3 12-8.1 13.2-12.9.4-1.7-2.5-2.5-3-.7"/><path fill="#ffd6e2" d="M46 209.7c50.2 0 0-91.7 0-91.7s-50.2 91.7 0 91.7"/><path d="M46 212.2c43.5-.5 18.3-61.5 8.4-82.9-2-4.2-4-8.5-6.2-12.6-.9-1.6-3.4-1.6-4.3 0-5.8 10.7-10.8 22-14.9 33.5-5.3 14.7-12.4 35.5-4.7 50.6 4.2 8.3 12.9 11.3 21.7 11.4 3.2 0 3.2-5 0-5-38.2-.4-11.5-59.8-3.1-77.5 1.7-3.5 3.4-7 5.3-10.4h-4.3c5 9.2 9.3 18.8 13 28.5 5.4 14 12.4 32.6 7.7 47.7-2.7 8.5-10.1 11.6-18.5 11.7-3.3 0-3.3 5-.1 5"/><path d="M35.6 149.3c-2 7.8-3.2 15.9-3.7 24-.7 11.6-.1 25.1 7.8 34.4 1.3 1.5 3.4-.7 2.1-2.1-7.8-9.2-7.7-23.2-6.8-34.5.6-7 1.6-14.1 3.4-20.9.5-2-2.4-2.8-2.8-.9M59 179.5c-.1 9-2.5 18.9-8.1 26-1.2 1.5.9 3.6 2.1 2.1 6.1-7.8 8.8-18.3 8.9-28.1.1-1.9-2.9-1.9-2.9 0"/><path d="M51 185.5c.6 7-.5 14.6-4.2 20.6-1 1.6 1.6 3.2 2.6 1.5 4-6.4 5.2-14.7 4.6-22.1-.2-1.9-3.2-2-3 0"/><path fill="#ffd140" d="M61 151.8C54.5 133.5 46 118 46 118s-9.1 16.6-15.7 35.7c0 0-2.2 12.7 6.1 2.6s7.8-5.9 8.7 1.1 3.2-5.3 12.2.5 3.7-6.1 3.7-6.1"/><path d="M62.4 151.4c-4.2-11.7-9.2-23.2-15.1-34.1-.5-1-2.1-1-2.6 0-4.5 8.3-8.4 16.9-11.9 25.7-1 2.5-8.1 16.2-2.1 18.6 3.2 1.3 6.4-3.7 8-5.6.7-.8 2.2-3.3 3.3-3.5 1.4-.2.1-.8 1 .4 1 1.4.3 4.3.8 6 .7 2 1.8 2.6 3.7 1.7 1.2-.6 1.9-1.8 3.2-2.3 3.1-1.3 5.3 1.1 8 2.2 7 2.8 5.2-5.7 3.5-9.3-.8-1.8-3.4-.2-2.6 1.5q.6 1.35.9 2.7c.9 3.3.1 2.7-2.6 1.3-3.4-1.7-6.5-2.6-9.9-.4-.8.5-2.8 1.8-1.9 2.1.9.2 0-4-.2-5.1-.4-2.1-1-4.8-3.7-4.4-3 .4-8.9 10.4-10.3 9.7-2.1-1 1.2-8.6 1.7-9.7 3.8-10.3 8.4-20.4 13.6-30h-2.6c5.8 10.7 10.7 22 14.8 33.4.8 1.7 3.7.9 3-.9"/><path fill="#ffd140" d="M46.1 412.7c-4.6 0-8.4-3.8-8.4-8.4V213.1c0-4.6 3.8-8.4 8.4-8.4s8.4 3.8 8.4 8.4v191.2c0 4.6-3.8 8.4-8.4 8.4"/><path d="M46.1 410.2c-8.7 0-5.9-17.8-5.9-23V235.3c0-7.3-.7-14.9 0-22.2.7-7.5 11-7.8 11.8 0 .1.6 0 1.3 0 1.9.1 3.6 0 7.3 0 11v151.2c0 8.7.6 17.7 0 26.4-.3 3.4-2 6.2-5.9 6.6-3.2.3-3.2 5.3 0 5 13.2-1.1 10.9-15 10.9-24.3V230.2c0-7.3 2.4-20.8-4.4-25.9-7.5-5.6-17 .4-17.4 9.1-.1 3.1 0 6.2 0 9.2v159.3c0 7.7-1.1 16.3.2 23.9.9 5.2 5.4 9.2 10.7 9.2 3.2.2 3.2-4.8 0-4.8"/><ellipse cx="51.2" cy="172.1" fill="#ffd140" rx="5.1" ry="5.4"/><path d="M54.8 172.1c-.3 4.9-7.3 5-7.3 0 .1-5 7.1-4.9 7.3 0 .1 1.9 3.1 1.9 3 0-.2-3.6-2.8-6.9-6.6-6.9-3.7 0-6.6 3.3-6.6 6.9 0 3.5 2.8 6.7 6.3 6.9 4 .2 6.7-3.1 6.9-6.9.1-1.9-2.9-1.9-3 0"/></g><g><g><path fill="#ffd140" d="m256.8 135.1-6.8-33 17.3 33z"/><path d="M258.2 134.7c-2.3-11-4.5-22-6.8-33l-2.7 1.2c5.8 11 11.6 22 17.3 33 .4-.8.9-1.5 1.3-2.3h-10.6c-1.9 0-1.9 3 0 3h10.6c1.2 0 1.8-1.3 1.3-2.3-5.8-11-11.6-22-17.3-33-.8-1.6-3.1-.4-2.7 1.2 2.3 11 4.5 22 6.8 33 .3 1.9 3.2 1.1 2.8-.8"/><path fill="#ffe197" d="m250 168.1 6.8-33h10.5z"/><path d="M251.4 168.5c2.3-11 4.5-22 6.8-33-.5.4-1 .7-1.4 1.1h10.6c-.4-.8-.9-1.5-1.3-2.3-5.8 11-11.6 22-17.3 33-.9 1.7 1.7 3.2 2.6 1.5 5.8-11 11.6-22 17.3-33 .5-1-.1-2.3-1.3-2.3h-10.6c-.6 0-1.3.5-1.4 1.1-2.3 11-4.5 22-6.8 33-.4 2 2.4 2.8 2.8.9"/><path fill="#f789a3" d="m232.7 135.1 17.3-33 6.8 33z"/><path d="M234 135.8c5.8-11 11.6-22 17.3-33-.9-.1-1.8-.2-2.7-.4 2.2 11 4.5 22 6.7 33 .5-.6 1-1.3 1.4-1.9h-24.1c-1.9 0-1.9 3 0 3h24.1c1 0 1.6-1 1.4-1.9-2.2-11-4.5-22-6.7-33-.3-1.3-2.2-1.5-2.7-.4-5.8 11-11.6 22-17.3 33-.9 1.8 1.7 3.4 2.6 1.6"/><path fill="#fcd" d="m250 168.1-17.3-33h24.1z"/><path d="M251.3 167.3c-5.8-11-11.6-22-17.3-33-.4.8-.9 1.5-1.3 2.3h24.1c-.5-.6-1-1.3-1.4-1.9-2.2 11-4.5 22-6.7 33-.4 1.9 2.5 2.7 2.9.8 2.2-11 4.5-22 6.7-33 .2-.9-.4-1.9-1.4-1.9h-24.1c-1.2 0-1.8 1.3-1.3 2.3 5.8 11 11.6 22 17.3 33 .8 1.7 3.4.1 2.5-1.6"/></g></g></svg>