<svg xmlns="http://www.w3.org/2000/svg" xml:space="preserve" viewBox="0 0 500 500"><g><path fill="#092e54" d="M133 204s-14.3-51-3.8-92.3 44.3-33 44.3-33 33.8-35.5 77.8-35.5 49.5-5 49.5-5l-7 13.8s8.4-5 32.1 7.5 42.7 16 42.7 16l-16.5 8 17 4s7.5 84-1.5 111"/><path d="M135.4 203.3c-5.5-19.7-7.9-40.9-7.5-61.4.5-22.8 5.1-55.9 32.3-60.9 4.3-.8 8.3-.1 12.5 0 3.6.1 7.5-5.4 10-7.5 20.7-17.3 45.2-27.7 72.3-27.9 12.9-.1 26.2-.2 39-2.7 2.7-.5 6.3-1.1 8.5-3l-3.9-3c-2.3 4.6-4.7 9.2-7 13.8-1.1 2.2 1.2 4.7 3.4 3.4 0 0 .6-.2 1.4-.4 1.9-.3 3.8-.3 5.7-.1 9.6 1 18.3 6 26.8 10.2 12.2 6.1 25.5 11.5 39 14.1-.2-1.5-.4-3-.6-4.6-5.5 2.7-11 5.3-16.5 8-1.9.9-1.4 4.1.6 4.6 5.7 1.3 11.3 2.7 17 4l-1.8-2.4c1.3 14.9 2.1 29.9 2.6 44.8.4 12 .5 24.1 0 36.1-.4 9.8-1 20-4 29.5-1 3.1 3.8 4.4 4.8 1.3 2.9-9.1 3.6-19.1 4.1-28.6.6-12.4.5-24.8.2-37.1-.5-15.3-1.3-30.7-2.6-46-.1-1.1-.7-2.1-1.8-2.4-5.7-1.3-11.3-2.7-17-4 .2 1.5.4 3 .6 4.6 5.5-2.7 11-5.3 16.5-8 1.9-.9 1.5-4.2-.6-4.6-16.4-3.1-31.3-10.7-46.2-17.8-7.6-3.7-21.8-10.3-30.5-5.4l3.4 3.4c2.3-4.6 4.7-9.2 7-13.8 1.3-2.6-1.8-4.9-3.9-3 .9-.8-.7.2-.5.2-1.8.6-3.6 1.1-5.5 1.5-10.6 2.1-21.7 2.4-32.5 2.6-15.4.3-29.7 1.3-44.2 7.1-11.1 4.2-21.4 10.1-30.8 17.1-4.9 3.7-9.8 7.6-14 12l2.4-.6c-13.1-3.1-27.8 2.1-36.4 12.3-9.5 11.2-12.6 26.4-14.1 40.6-1.7 16.2-.7 32.7 1.6 48.8 1.3 9 2.9 18 5.3 26.7.9 3 5.8 1.6 4.9-1.5"/><path fill="#fff" d="M410.4 283.5c11.5 11.8 9.5 31.2-4.2 40.4l-3.9 2.6-38 25.4c-8.2 5.5-19.4 3.3-24.9-5-5.5-8.2-3.3-19.4 4.9-24.9l32.5-21.7-25.6-26.3c-6.9-7.1-6.8-18.5.3-25.4 3.5-3.4 8-5.1 12.5-5.1 4.7 0 9.3 1.8 12.9 5.4l30.3 31.1z"/><path d="M408.6 285.3c6.2 6.7 8.5 16.2 5.3 24.9-2.4 6.6-7.4 10.5-13 14.3-7.6 5.1-15.1 10.1-22.7 15.2-7.5 5-17.8 14.8-27.5 12.5-10.5-2.5-15.4-15.1-9.2-24 2.4-3.4 6.4-5.5 9.8-7.8 8.9-5.9 17.7-11.9 26.6-17.8 1.3-.9 1.7-2.7.5-3.9-4.8-5-9.7-9.9-14.5-14.9-5-5.1-13.2-11.2-15-18.5-2.3-9.3 4.7-18.6 14.3-19.1 5.5-.3 9.7 2.5 13.4 6.2 5.9 6 11.8 12.1 17.7 18.1 4.7 4.9 9.5 9.9 14.3 14.8 2.3 2.3 5.8-1.2 3.5-3.5-11.1-11.4-22-23-33.3-34.2-10.6-10.5-29.1-7.3-34.2 7.3-3.8 11 2.7 18.9 9.8 26.2 6.8 7 13.7 14 20.5 21.1.2-1.3.3-2.6.5-3.9-9.5 6.3-19 12.7-28.4 19-4.4 2.9-8.6 5.7-11.1 10.7-4.2 8.4-1.9 18.9 5.3 24.9 7 5.7 16.7 6 24.3 1.3 3.3-2.1 6.6-4.4 9.8-6.6 9.4-6.3 18.8-12.6 28.2-18.8 7.1-4.8 13.1-9.9 15.7-18.4 3.1-10.2.1-20.9-7-28.5-2.2-2.5-5.8 1-3.6 3.4"/><path fill="#0c4589" d="m378.4 343.3 23.3-15.7 5.2-3.7c13.7-9.2 14.5-28.6 2.9-40.4l-3.3-3.4-30.3-31.1c-3.5-3.6-8.2-5.4-12.9-5.4-4.5 0-9.1 1.7-12.5 5.1-7.1 6.9-7.2 18.3-.3 25.4l23 23.7-19.8 14.4z"/><path d="M379.6 345.5c9.5-6.4 19.2-12.7 28.5-19.4 8.7-6.2 13.3-16 12-26.7-1.1-8.7-6-15-11.9-21.1-9.3-9.5-18.5-19-27.8-28.5-5.6-5.8-12.2-9.9-20.7-8.3-11.2 2.1-18.8 13.3-16.3 24.5 1.7 7.7 8.2 12.9 13.5 18.3 5 5.1 10 10.2 14.9 15.4.2-1.3.3-2.6.5-3.9l-19.8 14.4c-1.4 1-1.6 2.6-.5 3.9 8.2 10.4 16.4 20.7 24.6 31.1 2 2.5 5.5-1 3.5-3.5-8.2-10.4-16.4-20.7-24.6-31.1-.2 1.3-.3 2.6-.5 3.9l19.8-14.4c1.3-.9 1.7-2.7.5-3.9-7.5-7.7-15.3-15.4-22.6-23.3-7.5-8.1-5.8-21.7 5.4-25.7 8.4-3 14.5 1.9 19.9 7.4 8.6 8.8 17.2 17.7 25.8 26.5 4.3 4.4 8.5 8.5 10.4 14.5 3.3 10.3-.5 20.5-9.1 26.7-9.1 6.6-18.6 12.7-28 19-2.6 1.6-.1 6 2.5 4.2"/><path fill="#fff" d="m51.9 221.6 2.2-2.6c5.8-6.8 16.1-7.7 22.9-1.9l70.2 59.6c6.8 5.8 7.7 16.1 1.9 22.9l-2.2 2.6c-5.8 6.8-16.1 7.7-22.9 1.9l-70.2-59.6c-6.9-5.8-7.7-16.1-1.9-22.9"/><path d="M53.7 223.4c4.8-5.6 11-9.9 18.6-6.3 1.9.9 3.5 2.3 5.1 3.7 5.7 4.9 11.5 9.7 17.2 14.6 15 12.8 30.1 25.5 45.1 38.3 5.7 4.8 12.2 9.5 10.5 18.1-1.2 6.4-7.7 12.9-14.1 13.6-4.4.5-8.1-1.2-11.4-3.9-13.4-11-26.5-22.5-39.7-33.7-7.8-6.6-15.6-13.3-23.4-19.9-1.9-1.6-3.8-3.1-5.6-4.8-5.9-5.3-7.3-13.3-2.3-19.7 2-2.5-1.6-6.1-3.5-3.5-7.3 9.4-5.1 20.5 3.6 27.9 6.6 5.6 13.1 11.1 19.7 16.7 15.8 13.4 31.5 26.9 47.3 40.2 8.6 7.2 20.1 8 28.1-.8 8.1-8.9 9.1-21.1-.5-29.4-14.9-13-30.2-25.6-45.3-38.4-7.6-6.5-15.2-12.9-22.8-19.4-3.3-2.8-6.7-5-11.1-5.6-8.1-1.1-14 3-19 8.9-2.1 2.3 1.4 5.8 3.5 3.4"/><path fill="#0c4589" d="m63.4 254 60 51c7.5 6.4 19.1 4.9 26-3.2s6.4-19.8-1.1-26.2l-60.2-51.1z"/><path d="M61.7 255.8c19.9 16.9 39.6 34.2 59.8 50.8 18.6 15.3 46-10.1 31.5-29.6-2.6-3.5-6.6-6.3-9.9-9.1-6.4-5.4-12.8-10.9-19.2-16.3L90 222.8c-1-.8-2.6-1.1-3.5 0-8.3 9.8-16.5 19.6-24.8 29.5-2.1 2.4 1.5 6 3.5 3.5 8.3-9.8 16.5-19.6 24.8-29.5h-3.5c19.3 16.4 38.7 32.8 58 49.3 6.1 5.2 9.4 12.3 5.8 20.3-4.5 10-16.9 13.8-25.6 6.8-10-8-19.6-16.7-29.4-25l-30-25.5c-2.6-2-6.1 1.5-3.6 3.6"/><path fill="#fff" d="M381.1 349.2c-.2-6-2.6-18-5.4-31.8l-.1-.5c-3-14.8-6.6-33.2-6.8-41.2-.1-5 .1-12.2.1-19.8v-.4c0-15.6.1-37.1-1.4-51.2-1.2-11.5-5.6-40.7-19.2-62.5-12.6-20.2-27.9-33.2-47.9-41.4-18.4-7.4-52.1-8.3-53-8.3-8.6 0-30.7.7-49.1 8.1-20.1 8.1-35.3 21.3-47.9 41.5-13.6 21.8-17.9 51-19.1 62.5-1.5 14.1-1.4 35.5-1.2 51.2v3.6c0 6.3 0 12.3-.1 16.6-.2 8.1-3.9 26.5-6.9 41.3l-.1.6c-2.7 13.8-5.1 25.7-5.4 31.7-.6 15.4 3.8 25.7 14.9 35.8 7.1 6.4 14 9.5 21.7 9.5 4.1 0 7.8-.8 11.9-1.8 1.1-.3 2.3-.6 3.5-1.1 4 2.2 11.7 5.6 21.7 5.6 6.5 0 14.1-1.4 22.4-5.4 4.8 3.9 9.7 7.5 9.7 7.5 12.9 7.3 24 8.8 25.6 8.8h.4c1.6 0 12.7-.9 26.1-8.8 0 0 4.3-3.1 8.8-6.7 7.7 3.4 14.7 4.6 20.8 4.6 10.9 0 19-3.9 22.7-6.1 1.8.7 3.3 1.3 4.9 1.7 4 1 7.7 1.8 11.8 1.8 7.8 0 14.4-2.9 21.6-9.5 11.3-10.1 15.6-20.5 15-35.9"/><path fill="#0c4589" d="M380.4 356.5c-87 13.2-174.5 13-262.4 0l17-104c78.1 13 155.8 13.2 233 0z"/><path fill="#c8c8c8" d="M285.5 389.9s8-6.1 16.8-7c8.8-1 23.8 5.5 23.8 5.5s-4.9 10-14.2 9.8c-9.4-.3-26.4-8.3-26.4-8.3M169.6 389.9s8-6.1 16.8-7 23.8 5.5 23.8 5.5-4.9 10-14.2 9.8-26.4-8.3-26.4-8.3"/><path d="M384.6 351.4c-.2-6.1-2.7-18.4-5.5-32.5l-.1-.5c-3-15.1-6.3-33.9-6.5-42.1-.1-5.1.5-12.5.5-20.3v-.4c0-16-.3-37.9-1.8-52.2-1.2-11.8-5.9-41.6-19.8-63.8-12.9-20.6-28.6-33.9-49.1-42.2-18.8-7.6-53.2-8.4-54.2-8.4-8.8 0-31.4.7-50.1 8.3-20.5 8.3-36 21.7-48.9 42.3-13.9 22.2-18.3 52.1-19.6 63.8-1.5 14.4-1.4 36.3-1.3 52.3v3.7c0 6.5 0 12.5-.1 16.9-.2 8.3-4 27-7 42.1l-.1.6c-2.8 14.1-5.2 26.3-5.5 32.4-.6 15.7 3.8 26.3 15.2 36.6 7.3 6.6 14.3 9.7 22.1 9.7 4.2 0 8-.8 12.1-1.9 1.1-.3 2.3-.7 3.5-1.1 4.1 2.3 11.9 5.7 22.2 5.7 6.7 0 14.4-1.4 22.9-5.5 4.9 4 9.9 7.4 10 7.4 13.2 7.5 24.5 8.7 26.2 8.7h.4c1.7 0 13-.7 26.7-8.7 0 0 4.4-3.1 8.9-6.7 7.8 3.5 15 4.8 21.3 4.8 11.2 0 19.4-4 23.2-6.2 1.8.7 3.4 1.3 5 1.7 4.1 1 7.9 1.9 12.1 1.9 7.9 0 14.7-3 22.1-9.6 11.4-10.5 15.8-21.1 15.2-36.8m-207.4 39.5c6.1-2.6 13.6-5.5 20.1-5.5 4.4 0 7.6 1.3 10.4 4.1l.2.2c-13.1 5.4-23.9 3.7-30.7 1.2m114.5-.5c.3-.3.6-.5.8-.8 2.8-2.8 6-4.2 10.4-4.2 6.1 0 13 2.5 18.9 5-6.4 2.5-17 4.8-30.1 0m72.8-7.8c-6 5.4-11.1 7.8-17.2 7.8-3.4 0-6.6-.7-10.4-1.6-2-.5-4.5-1.6-7.7-3l-.5-.2c-7-3.2-16.7-7.4-25.8-7.4-6.3 0-11.3 2.1-15.6 6.3-11 11.2-21.9 15.7-29.1 17.5-.1 0-7.1 1.9-15.2-.3-8.2-2.3-19.2-6.1-30.1-17.2-4.1-4.2-9.2-6.3-15.6-6.3-9 0-18.6 4.2-25.9 7.4l-.3.1c-3.3 1.4-5.8 2.6-7.9 3.1-3.8.9-7 1.6-10.4 1.6-6 0-11.3-2.4-17.2-7.8-9.8-8.9-13.3-17.3-12.8-30.9.2-5.5 2.6-17.4 5.4-31.2l.1-.6c3.2-16.1 6.9-34.4 7.2-43.4.1-4.5.1-10.6.1-17.1v-3.7c-.1-15.8-.3-37.5 1.2-51.4 1.2-11.3 5.4-39.8 18.5-60.7 12-19.3 26.5-31.8 45.4-39.5 17.6-7.1 39-8.2 47.4-8.2.8 0 33.8.8 51.4 7.9 19 7.7 33.4 20.4 45.5 39.6 13.1 21 18 49.5 19.2 60.8 1.5 14 1.9 35.7 1.9 51.5v.4c0 7.8-.8 15.2-.7 20.4.2 8.9 3.6 27.2 6.8 43.4l-.1.5c2.8 13.8 5.1 25.8 5.3 31.3.5 13.6-3.1 22-12.9 30.9"/><path d="M324.2 191.9c0 10.6-8.6 19.1-19.1 19.1-10.6 0-19.1-8.6-19.1-19.1 0-.9.1-1.8.2-2.6 1.2.8 2.6 1.3 4.1 1.3 4 0 7.2-3.2 7.2-7.2 0-2.9-1.7-5.4-4.1-6.5 3.2-2.5 7.3-4 11.7-4 10.5-.1 19.1 8.5 19.1 19"/><path fill="#092e54" d="M287.7 260.3c0 17.4-17.2 31.6-38.5 31.6s-38.5-14.1-38.5-31.6"/><path d="M285.2 260.3c-.9 38.5-71 38.5-71.9 0-.1-3.2-5.1-3.2-5 0 1.1 44.9 80.9 44.9 81.9 0 0-3.2-5-3.2-5 0M214.1 191.9c0 10.6-8.6 19.1-19.1 19.1-10.6 0-19.1-8.6-19.1-19.1 0-.9.1-1.8.2-2.6 1.2.8 2.6 1.3 4.1 1.3 4 0 7.2-3.2 7.2-7.2 0-2.9-1.7-5.4-4.1-6.5 3.2-2.5 7.3-4 11.7-4 10.5-.1 19.1 8.5 19.1 19"/><ellipse cx="166.4" cy="228.6" fill="#f68694" rx="7.4" ry="3.4" transform="rotate(-44.198 166.406 228.55)"/><ellipse cx="180.5" cy="229.7" fill="#f68694" rx="7.4" ry="3.4" transform="rotate(-44.198 180.46 229.72)"/><ellipse cx="194.5" cy="229.7" fill="#f68694" rx="7.4" ry="3.4" transform="rotate(-44.198 194.513 229.721)"/><ellipse cx="333.9" cy="229.7" fill="#f68694" rx="7.4" ry="3.4" transform="rotate(224.198 333.885 229.722)"/><ellipse cx="319.8" cy="230.9" fill="#f68694" rx="7.4" ry="3.4" transform="rotate(224.198 319.83 230.893)"/><ellipse cx="305.8" cy="230.9" fill="#f68694" rx="7.4" ry="3.4" transform="rotate(224.198 305.777 230.893)"/><path d="M175.7 158.9c12.5-5.1 25.6-6.7 37.9-.3 2.8 1.5 5.4-2.8 2.5-4.3-13.5-7.1-28-5.8-41.8-.3-2.9 1.3-1.6 6.1 1.4 4.9M286.7 171.9c12.8-2.4 25.7-2.9 38.5 0 3.1.7 4.5-4.1 1.3-4.8-13.7-3.1-27.5-2.6-41.2 0-3.1.6-1.8 5.4 1.4 4.8M235 228c13.1 3.4 25.4 3.2 37 0"/><path d="M234.3 230.4c12.7 3.2 25.6 3.4 38.3 0 3.1-.8 1.8-5.6-1.3-4.8-11.9 3.2-23.8 3-35.7 0-3.1-.8-4.4 4-1.3 4.8"/><path fill="#fff" d="m178.2 259.3 35.9 35.9 33.3-33.2"/><path d="m176.4 261.1 35.9 35.9c1 1 2.6 1 3.5 0l33.2-33.2c2.3-2.3-1.3-5.8-3.5-3.5l-33.2 33.2h3.5l-35.9-35.9c-2.2-2.4-5.8 1.2-3.5 3.5"/><path fill="#fff" d="m323.4 260.3-36 35.9-33.2-33.2"/><path d="m321.6 258.5-35.9 35.9h3.5L256 261.2c-2.3-2.3-5.8 1.3-3.5 3.5l33.2 33.2c1 1 2.6 1 3.5 0l35.9-35.9c2.3-2.2-1.2-5.8-3.5-3.5"/><path fill="#2386c9" d="m160.4 195.8-3.9-.3c-1.7-.1-3.1-1.7-2.9-3.4l.6-8.2c.1-1.7 1.7-3.1 3.4-2.9l3.9.3c1.7.1 3.1 1.7 2.9 3.4l-.6 8.2c-.2 1.7-1.7 3-3.4 2.9"/><path d="M160.4 194.3c-1.1-.1-2.4 0-3.5-.3-1.8-.5-1.8-1.8-1.7-3.3.2-2.2-.5-7.7 2.4-8.2.9-.1 2.6 0 3.5.3 1.7.5 1.8 1.6 1.8 3.1-.2 1.8.3 8.2-2.5 8.4-1.9.1-1.9 3.1 0 3 5.9-.3 5.2-7.2 5.4-11.4.3-5.2-3.7-6.4-8.3-6.3-5.8.1-5.1 6.9-5.4 11-.1 2.1-.2 4 1.6 5.5 1.8 1.4 4.5 1.2 6.6 1.3 2 0 2-3 .1-3.1"/><path d="M222.5 191.8c-.3 15.4-12.7 28.3-28.3 28.3-15.5 0-28.3-12.9-28.3-28.3s12.9-28.3 28.3-28.3c15.6 0 28 12.9 28.3 28.3.1 3.2 5.1 3.2 5 0-.3-13.8-8.5-26.2-21.6-31.2-13.2-5-28.5-.9-37.5 10-8.8 10.7-10.1 26.2-3 38.2 7.1 11.9 21.1 18.2 34.7 15.8 15.9-2.8 26.9-16.9 27.3-32.8.2-3.2-4.8-3.2-4.9 0"/><circle cx="159.2" cy="198.6" r="2.8" fill="#2386c9"/><path d="M160.5 198.6c-.1 1.7-2.6 1.7-2.6 0 0-1.6 2.5-1.6 2.6 0 .1 1.9 3.1 1.9 3 0-.1-2.3-1.9-4.3-4.3-4.3-2.3 0-4.3 2-4.3 4.3s1.9 4.2 4.1 4.3c2.5.1 4.3-1.9 4.4-4.3.2-1.9-2.8-1.9-2.9 0"/><circle cx="159.2" cy="205.6" r="2.8" fill="#2386c9"/><path d="M160.5 205.6c-.1 1.7-2.6 1.7-2.6 0 0-1.6 2.5-1.6 2.6 0 .1 1.9 3.1 1.9 3 0-.1-2.3-1.9-4.3-4.3-4.3-2.3 0-4.3 2-4.3 4.3s1.9 4.2 4.1 4.3c2.5.1 4.3-1.9 4.4-4.3.2-1.9-2.8-1.9-2.9 0"/><circle cx="159.2" cy="212.6" r="2.8" fill="#2386c9"/><path d="M160.5 212.6c-.1 1.7-2.6 1.7-2.6 0 0-1.6 2.5-1.6 2.6 0 .1 1.9 3.1 1.9 3 0-.1-2.3-1.9-4.3-4.3-4.3-2.3 0-4.3 2-4.3 4.3s1.9 4.2 4.1 4.3c2.5.1 4.3-1.9 4.4-4.3.2-1.9-2.8-1.9-2.9 0"/><circle cx="159.2" cy="219.6" r="2.8" fill="#2386c9"/><path d="M160.5 219.6c-.1 1.7-2.6 1.7-2.6 0 0-1.6 2.5-1.6 2.6 0 .1 1.9 3.1 1.9 3 0-.1-2.3-1.9-4.3-4.3-4.3-2.3 0-4.3 2-4.3 4.3s1.9 4.2 4.1 4.3c2.5.1 4.3-1.9 4.4-4.3.2-1.9-2.8-1.9-2.9 0"/><circle cx="159.2" cy="226.6" r="2.8" fill="#2386c9"/><path d="M160.5 226.6c-.1 1.7-2.6 1.7-2.6 0 0-1.6 2.5-1.6 2.6 0 .1 1.9 3.1 1.9 3 0-.1-2.3-1.9-4.3-4.3-4.3-2.3 0-4.3 2-4.3 4.3s1.9 4.2 4.1 4.3c2.5.1 4.3-1.9 4.4-4.3.2-1.9-2.8-1.9-2.9 0"/><circle cx="159.2" cy="233.6" r="2.8" fill="#2386c9"/><path d="M160.5 233.6c-.1 1.7-2.6 1.7-2.6 0 0-1.6 2.5-1.6 2.6 0 .1 1.9 3.1 1.9 3 0-.1-2.3-1.9-4.3-4.3-4.3-2.3 0-4.3 2-4.3 4.3s1.9 4.2 4.1 4.3c2.5.1 4.3-1.9 4.4-4.3.2-1.9-2.8-1.9-2.9 0"/><circle cx="159.2" cy="240.6" r="2.8" fill="#2386c9"/><path d="M160.5 240.6c-.1 1.7-2.6 1.7-2.6 0 0-1.6 2.5-1.6 2.6 0 .1 1.9 3.1 1.9 3 0-.1-2.3-1.9-4.3-4.3-4.3-2.3 0-4.3 2-4.3 4.3s1.9 4.2 4.1 4.3c2.5.1 4.3-1.9 4.4-4.3.2-1.9-2.8-1.9-2.9 0"/><circle cx="159.2" cy="247.6" r="2.8" fill="#2386c9"/><path d="M160.5 247.6c-.1 1.7-2.6 1.7-2.6 0 0-1.6 2.5-1.6 2.6 0 .1 1.9 3.1 1.9 3 0-.1-2.3-1.9-4.3-4.3-4.3-2.3 0-4.3 2-4.3 4.3s1.9 4.2 4.1 4.3c2.5.1 4.3-1.9 4.4-4.3.2-1.9-2.8-1.9-2.9 0"/><path d="M135.3 253.9c77.6 12.8 156.7 13.1 234.3 0 3.2-.5 1.8-5.4-1.3-4.8-76.7 13-155 12.7-231.7 0-3.1-.5-4.4 4.3-1.3 4.8M118.3 358.9c68.3 10.1 137.7 12.7 206.5 6.8 19.1-1.6 38.2-3.9 57.2-6.8 3.2-.5 1.8-5.3-1.3-4.8-66.7 10-134.5 12.3-201.8 6.8-19.8-1.6-39.6-3.9-59.3-6.8-3.1-.5-4.4 4.3-1.3 4.8"/><path d="M119.3 343.9c67.6 10.1 136.2 12.7 204.3 6.8 18.9-1.6 37.7-3.9 56.4-6.8 3.2-.5 1.8-5.3-1.3-4.8-66 10-133 12.3-199.5 6.8-19.6-1.6-39.1-3.9-58.6-6.8-3.1-.5-4.4 4.3-1.3 4.8"/><path fill="#2386c9" d="m72.395 234.162-24.01-7.977L88.838 104.43l24.01 7.977z"/><path d="M47.8 228.7c8 2.7 16 5.3 24 8 1.3.4 2.7-.5 3.1-1.7 11.8-35.5 23.6-71.1 35.4-106.6 1.7-5 3.3-10.1 5-15.1.4-1.3-.5-2.7-1.7-3.1-8-2.7-16-5.3-24-8-1.3-.4-2.7.5-3.1 1.7-11.9 35.5-23.7 71-35.5 106.6-1.7 5-3.3 10.1-5 15.1-1 3.1 3.8 4.4 4.8 1.3 11.8-35.5 23.6-71.1 35.4-106.6 1.7-5 3.3-10.1 5-15.1-1 .6-2.1 1.2-3.1 1.7 8 2.7 16 5.3 24 8-.6-1-1.2-2.1-1.7-3.1-11.8 35.6-23.6 71.1-35.4 106.6-1.7 5-3.3 10.1-5 15.1 1-.6 2.1-1.2 3.1-1.7-8-2.7-16-5.3-24-8-3.1-1-4.4 3.8-1.3 4.9"/><path fill="#2386c9" d="M98.3 119 64.2 221.5"/><path d="M96.8 118.6C86.9 148.5 77 178.3 67 208.2c-1.4 4.3-2.9 8.6-4.3 12.9-.6 1.8 2.3 2.6 2.9.8 9.9-29.9 19.8-59.7 29.8-89.6 1.4-4.3 2.9-8.6 4.3-12.9.6-1.8-2.3-2.6-2.9-.8"/><path fill="#2386c9" d="m109.8 121.3-4.9-1.7"/><path d="M110.2 119.8c-1.6-.5-3.3-1.1-4.9-1.6-1.8-.6-2.6 2.3-.8 2.9 1.6.5 3.3 1.1 4.9 1.6 1.9.6 2.7-2.3.8-2.9"/><path fill="#2386c9" d="m105.7 133.6-4.9-1.6"/><path d="M106.1 132.1c-1.6-.5-3.3-1.1-4.9-1.6-1.8-.6-2.6 2.3-.8 2.9 1.6.5 3.3 1.1 4.9 1.6 1.9.6 2.7-2.2.8-2.9"/><path fill="#2386c9" d="m101.6 145.9-4.9-1.6"/><path d="M102 144.5c-1.6-.5-3.3-1.1-4.9-1.6-1.8-.6-2.6 2.3-.8 2.9 1.6.5 3.3 1.1 4.9 1.6 1.9.6 2.7-2.3.8-2.9"/><path fill="#2386c9" d="m97.5 158.3-4.9-1.7"/><path d="M97.9 156.8c-1.6-.5-3.3-1.1-4.9-1.6-1.8-.6-2.6 2.3-.8 2.9 1.6.5 3.3 1.1 4.9 1.6 1.9.6 2.7-2.3.8-2.9"/><path fill="#2386c9" d="m93.4 170.6-4.9-1.6"/><path d="M93.8 169.2c-1.6-.5-3.3-1.1-4.9-1.6-1.8-.6-2.6 2.3-.8 2.9 1.6.5 3.3 1.1 4.9 1.6 1.9.6 2.7-2.3.8-2.9"/><path fill="#2386c9" d="m89.3 182.9-4.9-1.6"/><path d="M89.7 181.5c-1.6-.5-3.3-1.1-4.9-1.6-1.8-.6-2.6 2.3-.8 2.9 1.6.5 3.3 1.1 4.9 1.6 1.9.6 2.7-2.3.8-2.9"/><path fill="#2386c9" d="m85.2 195.3-4.9-1.7"/><path d="M85.6 193.8c-1.6-.5-3.3-1.1-4.9-1.6-1.8-.6-2.6 2.3-.8 2.9 1.6.5 3.3 1.1 4.9 1.6 1.9.6 2.7-2.3.8-2.9"/><path fill="#2386c9" d="m81.1 207.6-4.9-1.6"/><path d="M81.5 206.2c-1.6-.5-3.3-1.1-4.9-1.6-1.8-.6-2.6 2.3-.8 2.9 1.6.5 3.3 1.1 4.9 1.6 1.9.6 2.7-2.3.8-2.9"/><path fill="#2386c9" d="m77 219.9-4.9-1.6"/><path d="M77.4 218.5c-1.6-.5-3.3-1.1-4.9-1.6-1.8-.6-2.6 2.3-.8 2.9 1.6.5 3.3 1.1 4.9 1.6 1.9.6 2.7-2.3.8-2.9"/><path fill="#fff" d="M155 346v14"/><path d="M153 346v14c0 3.2 5 3.2 5 0v-14c0-3.2-5-3.2-5 0"/><path fill="#fff" d="M192 350v14"/><path d="M190 350v14c0 3.2 5 3.2 5 0v-14c0-3.2-5-3.2-5 0"/><path fill="#fff" d="M229 352v14"/><path d="M227 352v14c0 3.2 5 3.2 5 0v-14c0-3.2-5-3.2-5 0"/><path fill="#fff" d="M266 352v14"/><path d="M264 352v14c0 3.2 5 3.2 5 0v-14c0-3.2-5-3.2-5 0"/><path fill="#fff" d="M303 351v14"/><path d="M301 351v14c0 3.2 5 3.2 5 0v-14c0-3.2-5-3.2-5 0"/><path fill="#fff" d="M340 348v14"/><path d="M338 348v14c0 3.2 5 3.2 5 0v-14c0-3.2-5-3.2-5 0"/><path fill="#7f0909" d="m302.059 289.792 56.154-11.887 14.27 67.404-56.155 11.888z"/><path d="M371.8 343c-18.7 4-37.4 7.9-56.1 11.9 1 .6 2.1 1.2 3.1 1.7-4.8-22.5-9.5-45-14.3-67.5-.6 1-1.2 2.1-1.7 3.1 18.7-4 37.4-7.9 56.1-11.9-1-.6-2.1-1.2-3.1-1.7 4.8 22.5 9.5 45 14.3 67.5.7 3.1 5.5 1.8 4.8-1.3-4.8-22.5-9.5-45-14.3-67.5-.3-1.4-1.8-2-3.1-1.7-18.7 4-37.4 7.9-56.1 11.9-1.4.3-2 1.8-1.7 3.1 4.8 22.5 9.5 45 14.3 67.5.3 1.4 1.8 2 3.1 1.7 18.7-4 37.4-7.9 56.1-11.9 3.1-.8 1.7-5.6-1.4-4.9"/><path fill="#7f0909" d="m302.07 289.868 10.565-2.237 14.27 67.405-10.567 2.237z"/><path d="M326.2 352.6c-3.5.7-7 1.5-10.6 2.2 1 .6 2.1 1.2 3.1 1.7-4.8-22.5-9.5-45-14.3-67.5-.6 1-1.2 2.1-1.7 3.1 3.5-.7 7-1.5 10.6-2.2-1-.6-2.1-1.2-3.1-1.7 4.8 22.5 9.5 45 14.3 67.5.7 3.1 5.5 1.8 4.8-1.3-4.8-22.5-9.5-45-14.3-67.5-.3-1.4-1.8-2-3.1-1.7-3.5.7-7 1.5-10.6 2.2-1.4.3-2 1.8-1.7 3.1 4.8 22.5 9.5 45 14.3 67.5.3 1.4 1.8 2 3.1 1.7 3.5-.7 7-1.5 10.6-2.2 3.1-.7 1.8-5.5-1.4-4.9"/><path fill="#fff" d="m406.3 323.7-3.9 2.6-38 25.4c-8.2 5.5-19.4 3.3-24.9-5-5.5-8.2-3.3-19.4 4.9-24.9l29.6-24.6"/><path d="M405.1 321.5c-13 8.7-25.9 17.3-38.9 26-2.7 1.8-5.4 3.8-8.7 4.4-9 1.8-17.8-4.9-18.5-14.1-.7-10.2 9.5-16.1 16.4-21.9 6.8-5.6 13.6-11.3 20.4-16.9 2.5-2.1-1.1-5.6-3.5-3.5-6.9 5.7-13.9 11.5-20.8 17.2-7.6 6.3-17 12.1-17.5 23.1-.7 15.8 16.7 26.3 30.5 18.7 7.3-4 14.1-9.4 21-14 7.4-4.9 14.7-9.9 22.1-14.8 2.6-1.7.1-6-2.5-4.2"/><path fill="#092e54" d="M364.7 164.3c-22.3-10.9-50.2-57.8-80.7-54.6s-85 0-85 0c-18.3 24.3-64 60.8-64 60.8s3.7-90.2 106.3-86.8C344 87 357.7 133.6 357.7 133.6z"/><path fill="#0c4589" d="M375.7 295.6 354 312l24.5 31 23.3-15.6 7-5.1"/><path d="M374.4 293.4c-7.2 5.5-14.5 10.9-21.7 16.4-1.4 1-1.6 2.6-.5 3.9 8.2 10.4 16.4 20.7 24.6 31.1.6.8 2.2 1 3 .4 10.2-6.8 20.4-13.5 30.2-20.8 2.6-1.9.1-6.2-2.5-4.3-9.8 7.3-20.1 14-30.2 20.8 1 .1 2 .3 3 .4-8.2-10.4-16.4-20.7-24.6-31.1-.2 1.3-.3 2.6-.5 3.9 7.2-5.5 14.5-10.9 21.7-16.4 2.6-1.8.1-6.2-2.5-4.3M134.8 172.3c8.7-7 17.3-14.3 25.6-21.7 13.8-12.2 27.6-24.9 38.8-39.6-.7.4-1.4.8-2.2 1.2 20.7 1.2 41.5 1.8 62.3 1.3 12.5-.3 26.3-3.7 38.1 1.2 12.8 5.3 23.2 15.7 33 25.2 9.5 9.3 19 20.4 31.1 26.6 2.9 1.5 5.4-2.9 2.5-4.3-8.3-4.2-15.1-11.1-21.7-17.5-8-7.8-15.7-15.9-24.4-22.9-7.4-5.9-15.6-11.5-24.9-13.7-9.5-2.2-19.9.1-29.6.4-20.1.7-40.3.1-60.3-.9-1.8-.1-3.8-.5-5.6-.3-2.8.3-4.2 3.3-5.9 5.4-6.9 8.3-14.7 16-22.6 23.4-12.1 11.4-24.7 22.3-37.7 32.7-2.6 1.9 1 5.5 3.5 3.5"/><path fill="#2da6ea" d="m247.2 284.7 5.3-9.7 5.3 9.7 9.7 5.3-9.7 5.3-5.3 9.8-5.3-9.8-9.7-5.3z"/><path d="M248.5 285.5c1.8-3.2 3.5-6.5 5.3-9.7h-2.6c1.6 3 3.1 7.6 5.5 10 2.5 2.4 7 3.9 10 5.5v-2.6c-3 1.6-7.6 3.1-10 5.5-2.4 2.5-3.9 7-5.5 10h2.6c-1.6-3-3.1-7.6-5.5-10-2.5-2.4-7-3.9-10-5.5v2.6c3.2-1.8 6.5-3.5 9.7-5.3 1.7-.9.2-3.5-1.5-2.6-3.2 1.8-6.5 3.5-9.7 5.3-1 .5-1 2.1 0 2.6 2.7 1.5 8 3.6 9.4 5.1 1.4 1.4 3.6 6.8 5.1 9.4.5 1 2.1 1 2.6 0 1.5-2.7 3.6-8 5.1-9.4 1.4-1.4 6.8-3.6 9.4-5.1 1-.5 1-2.1 0-2.6-2.7-1.5-8-3.6-9.4-5.1-1.4-1.4-3.6-6.8-5.1-9.4-.5-1-2.1-1-2.6 0-1.8 3.2-3.5 6.5-5.3 9.7-1 1.8 1.6 3.3 2.5 1.6"/><circle cx="381.9" cy="326.1" r="5.1" fill="#2da6ea"/><path d="M385.5 326.1c-.2 4.6-7.2 4.6-7.2 0s7-4.6 7.2 0c.1 1.9 3.1 1.9 3 0-.2-3.6-2.9-6.6-6.6-6.6-3.6 0-6.6 3-6.6 6.6 0 3.5 2.8 6.4 6.3 6.6 3.8.2 6.7-2.9 6.9-6.6.1-1.9-2.9-1.9-3 0"/><circle cx="81.9" cy="253.1" r="5.1" fill="#2da6ea"/><path d="M85.5 253.1c-.2 4.6-7.2 4.6-7.2 0s7-4.6 7.2 0c.1 1.9 3.1 1.9 3 0-.2-3.6-2.9-6.6-6.6-6.6-3.6 0-6.6 3-6.6 6.6 0 3.5 2.8 6.4 6.3 6.6 3.8.2 6.7-2.9 6.9-6.6.1-1.9-2.9-1.9-3 0"/></g><g><g><path fill="#7f0909" d="m256.8 135.1-6.8-33 17.3 33z"/><path d="M258.2 134.7c-2.3-11-4.5-22-6.8-33l-2.7 1.2c5.8 11 11.6 22 17.3 33 .4-.8.9-1.5 1.3-2.3h-10.6c-1.9 0-1.9 3 0 3h10.6c1.2 0 1.8-1.3 1.3-2.3-5.8-11-11.6-22-17.3-33-.8-1.6-3.1-.4-2.7 1.2 2.3 11 4.5 22 6.8 33 .3 1.9 3.2 1.1 2.8-.8"/><path fill="#bc0808" d="m250 168.1 6.8-33h10.5z"/><path d="M251.4 168.5c2.3-11 4.5-22 6.8-33-.5.4-1 .7-1.4 1.1h10.6c-.4-.8-.9-1.5-1.3-2.3-5.8 11-11.6 22-17.3 33-.9 1.7 1.7 3.2 2.6 1.5 5.8-11 11.6-22 17.3-33 .5-1-.1-2.3-1.3-2.3h-10.6c-.6 0-1.3.5-1.4 1.1-2.3 11-4.5 22-6.8 33-.4 2 2.4 2.8 2.8.9"/><path fill="#0c4589" d="m232.7 135.1 17.3-33 6.8 33z"/><path d="M234 135.8c5.8-11 11.6-22 17.3-33-.9-.1-1.8-.2-2.7-.4 2.2 11 4.5 22 6.7 33 .5-.6 1-1.3 1.4-1.9h-24.1c-1.9 0-1.9 3 0 3h24.1c1 0 1.6-1 1.4-1.9-2.2-11-4.5-22-6.7-33-.3-1.3-2.2-1.5-2.7-.4-5.8 11-11.6 22-17.3 33-.9 1.8 1.7 3.4 2.6 1.6"/><path fill="#308dd8" d="m250 168.1-17.3-33h24.1z"/><path d="M251.3 167.3c-5.8-11-11.6-22-17.3-33-.4.8-.9 1.5-1.3 2.3h24.1c-.5-.6-1-1.3-1.4-1.9-2.2 11-4.5 22-6.7 33-.4 1.9 2.5 2.7 2.9.8 2.2-11 4.5-22 6.7-33 .2-.9-.4-1.9-1.4-1.9h-24.1c-1.2 0-1.8 1.3-1.3 2.3 5.8 11 11.6 22 17.3 33 .8 1.7 3.4.1 2.5-1.6"/></g></g></svg>