<?xml version="1.0" encoding="utf-8"?>
<!-- Generator: Adobe Illustrator 18.1.1, SVG Export Plug-In . SVG Version: 6.00 Build 0)  -->
<svg version="1.1" xmlns="http://www.w3.org/2000/svg" xmlns:xlink="http://www.w3.org/1999/xlink" x="0px" y="0px"
	 viewBox="0 0 500 500" enable-background="new 0 0 500 500" xml:space="preserve">
<g id="Layer_1">
	<g>
		<path fill="#092E54" d="M133,204c0,0-14.3-51-3.8-92.3s44.3-33,44.3-33s33.8-35.5,77.8-35.5s49.5-5,49.5-5l-7,13.8
			c0,0,8.4-5,32.1,7.5c23.7,12.5,42.7,16,42.7,16l-16.5,8l17,4c0,0,7.5,84-1.5,111"/>
		<g>
			<path d="M135.4,203.3c-5.5-19.7-7.9-40.9-7.5-61.4c0.5-22.8,5.1-55.9,32.3-60.9c4.3-0.8,8.3-0.1,12.5,0c3.6,0.1,7.5-5.4,10-7.5
				c20.7-17.3,45.2-27.7,72.3-27.9c12.9-0.1,26.2-0.2,39-2.7c2.7-0.5,6.3-1.1,8.5-3c-1.3-1-2.6-2-3.9-3c-2.3,4.6-4.7,9.2-7,13.8
				c-1.1,2.2,1.2,4.7,3.4,3.4c0,0,0.6-0.2,1.4-0.4c1.9-0.3,3.8-0.3,5.7-0.1c9.6,1,18.3,6,26.8,10.2c12.2,6.1,25.5,11.5,39,14.1
				c-0.2-1.5-0.4-3-0.6-4.6c-5.5,2.7-11,5.3-16.5,8c-1.9,0.9-1.4,4.1,0.6,4.6c5.7,1.3,11.3,2.7,17,4c-0.6-0.8-1.2-1.6-1.8-2.4
				c1.3,14.9,2.1,29.9,2.6,44.8c0.4,12,0.5,24.1,0,36.1c-0.4,9.8-1,20-4,29.5c-1,3.1,3.8,4.4,4.8,1.3c2.9-9.1,3.6-19.1,4.1-28.6
				c0.6-12.4,0.5-24.8,0.2-37.1c-0.5-15.3-1.3-30.7-2.6-46c-0.1-1.1-0.7-2.1-1.8-2.4c-5.7-1.3-11.3-2.7-17-4c0.2,1.5,0.4,3,0.6,4.6
				c5.5-2.7,11-5.3,16.5-8c1.9-0.9,1.5-4.2-0.6-4.6c-16.4-3.1-31.3-10.7-46.2-17.8c-7.6-3.7-21.8-10.3-30.5-5.4
				c1.1,1.1,2.3,2.3,3.4,3.4c2.3-4.6,4.7-9.2,7-13.8c1.3-2.6-1.8-4.9-3.9-3c0.9-0.8-0.7,0.2-0.5,0.2c-1.8,0.6-3.6,1.1-5.5,1.5
				c-10.6,2.1-21.7,2.4-32.5,2.6c-15.4,0.3-29.7,1.3-44.2,7.1C205.4,52.1,195.1,58,185.7,65c-4.9,3.7-9.8,7.6-14,12
				c0.8-0.2,1.6-0.4,2.4-0.6c-13.1-3.1-27.8,2.1-36.4,12.3c-9.5,11.2-12.6,26.4-14.1,40.6c-1.7,16.2-0.7,32.7,1.6,48.8
				c1.3,9,2.9,18,5.3,26.7C131.4,207.8,136.3,206.4,135.4,203.3L135.4,203.3z"/>
		</g>
	</g>
	<g>
		<path fill="#FFFFFF" d="M410.4,283.5c11.5,11.8,9.5,31.2-4.2,40.4l-3.9,2.6l-38,25.4c-8.2,5.5-19.4,3.3-24.9-5
			c-5.5-8.2-3.3-19.4,4.9-24.9l32.5-21.7l-25.6-26.3c-6.9-7.1-6.8-18.5,0.3-25.4c3.5-3.4,8-5.1,12.5-5.1c4.7,0,9.3,1.8,12.9,5.4
			l30.3,31.1L410.4,283.5z"/>
		<g>
			<path d="M408.6,285.3c6.2,6.7,8.5,16.2,5.3,24.9c-2.4,6.6-7.4,10.5-13,14.3c-7.6,5.1-15.1,10.1-22.7,15.2
				c-7.5,5-17.8,14.8-27.5,12.5c-10.5-2.5-15.4-15.1-9.2-24c2.4-3.4,6.4-5.5,9.8-7.8c8.9-5.9,17.7-11.9,26.6-17.8
				c1.3-0.9,1.7-2.7,0.5-3.9c-4.8-5-9.7-9.9-14.5-14.9c-5-5.1-13.2-11.2-15-18.5c-2.3-9.3,4.7-18.6,14.3-19.1
				c5.5-0.3,9.7,2.5,13.4,6.2c5.9,6,11.8,12.1,17.7,18.1C399,275.4,403.8,280.4,408.6,285.3c2.3,2.3,5.8-1.2,3.5-3.5
				c-11.1-11.4-22-23-33.3-34.2c-10.6-10.5-29.1-7.3-34.2,7.3c-3.8,11,2.7,18.9,9.8,26.2c6.8,7,13.7,14,20.5,21.1
				c0.2-1.3,0.3-2.6,0.5-3.9c-9.5,6.3-19,12.7-28.4,19c-4.4,2.9-8.6,5.7-11.1,10.7c-4.2,8.4-1.9,18.9,5.3,24.9
				c7,5.7,16.7,6,24.3,1.3c3.3-2.1,6.6-4.4,9.8-6.6c9.4-6.3,18.8-12.6,28.2-18.8c7.1-4.8,13.1-9.9,15.7-18.4
				c3.1-10.2,0.1-20.9-7-28.5C410,279.4,406.4,282.9,408.6,285.3z"/>
		</g>
	</g>
	<g>
		<path fill="#0C4589" d="M378.4,343.3l23.3-15.7l5.2-3.7c13.7-9.2,14.5-28.6,2.9-40.4l-3.3-3.4L376.2,249
			c-3.5-3.6-8.2-5.4-12.9-5.4c-4.5,0-9.1,1.7-12.5,5.1c-7.1,6.9-7.2,18.3-0.3,25.4l23,23.7l-19.8,14.4L378.4,343.3z"/>
		<g>
			<path d="M379.6,345.5c9.5-6.4,19.2-12.7,28.5-19.4c8.7-6.2,13.3-16,12-26.7c-1.1-8.7-6-15-11.9-21.1c-9.3-9.5-18.5-19-27.8-28.5
				c-5.6-5.8-12.2-9.9-20.7-8.3c-11.2,2.1-18.8,13.3-16.3,24.5c1.7,7.7,8.2,12.9,13.5,18.3c5,5.1,10,10.2,14.9,15.4
				c0.2-1.3,0.3-2.6,0.5-3.9c-6.6,4.8-13.2,9.6-19.8,14.4c-1.4,1-1.6,2.6-0.5,3.9c8.2,10.4,16.4,20.7,24.6,31.1c2,2.5,5.5-1,3.5-3.5
				c-8.2-10.4-16.4-20.7-24.6-31.1c-0.2,1.3-0.3,2.6-0.5,3.9c6.6-4.8,13.2-9.6,19.8-14.4c1.3-0.9,1.7-2.7,0.5-3.9
				c-7.5-7.7-15.3-15.4-22.6-23.3c-7.5-8.1-5.8-21.7,5.4-25.7c8.4-3,14.5,1.9,19.9,7.4c8.6,8.8,17.2,17.7,25.8,26.5
				c4.3,4.4,8.5,8.5,10.4,14.5c3.3,10.3-0.5,20.5-9.1,26.7c-9.1,6.6-18.6,12.7-28,19C374.5,342.9,377,347.3,379.6,345.5z"/>
		</g>
	</g>
	<g>
		<path fill="#FFFFFF" d="M51.9,221.6l2.2-2.6c5.8-6.8,16.1-7.7,22.9-1.9l70.2,59.6c6.8,5.8,7.7,16.1,1.9,22.9l-2.2,2.6
			c-5.8,6.8-16.1,7.7-22.9,1.9l-70.2-59.6C46.9,238.7,46.1,228.4,51.9,221.6z"/>
		<g>
			<path d="M53.7,223.4c4.8-5.6,11-9.9,18.6-6.3c1.9,0.9,3.5,2.3,5.1,3.7c5.7,4.9,11.5,9.7,17.2,14.6c15,12.8,30.1,25.5,45.1,38.3
				c5.7,4.8,12.2,9.5,10.5,18.1c-1.2,6.4-7.7,12.9-14.1,13.6c-4.4,0.5-8.1-1.2-11.4-3.9c-13.4-11-26.5-22.5-39.7-33.7
				c-7.8-6.6-15.6-13.3-23.4-19.9c-1.9-1.6-3.8-3.1-5.6-4.8C50.1,237.8,48.7,229.8,53.7,223.4c2-2.5-1.6-6.1-3.5-3.5
				c-7.3,9.4-5.1,20.5,3.6,27.9c6.6,5.6,13.1,11.1,19.7,16.7c15.8,13.4,31.5,26.9,47.3,40.2c8.6,7.2,20.1,8,28.1-0.8
				c8.1-8.9,9.1-21.1-0.5-29.4c-14.9-13-30.2-25.6-45.3-38.4c-7.6-6.5-15.2-12.9-22.8-19.4c-3.3-2.8-6.7-5-11.1-5.6
				c-8.1-1.1-14,3-19,8.9C48.1,222.3,51.6,225.8,53.7,223.4z"/>
		</g>
	</g>
	<g>
		<path fill="#0C4589" d="M63.4,254l60,51c7.5,6.4,19.1,4.9,26-3.2l0,0c6.9-8.1,6.4-19.8-1.1-26.2l-60.2-51.1L63.4,254z"/>
		<g>
			<path d="M61.7,255.8c19.9,16.9,39.6,34.2,59.8,50.8c18.6,15.3,46-10.1,31.5-29.6c-2.6-3.5-6.6-6.3-9.9-9.1
				c-6.4-5.4-12.8-10.9-19.2-16.3c-11.3-9.6-22.6-19.2-33.9-28.8c-1-0.8-2.6-1.1-3.5,0c-8.3,9.8-16.5,19.6-24.8,29.5
				c-2.1,2.4,1.5,6,3.5,3.5c8.3-9.8,16.5-19.6,24.8-29.5c-1.2,0-2.4,0-3.5,0c19.3,16.4,38.7,32.8,58,49.3c6.1,5.2,9.4,12.3,5.8,20.3
				c-4.5,10-16.9,13.8-25.6,6.8c-10-8-19.6-16.7-29.4-25c-10-8.5-20-17-30-25.5C62.7,250.2,59.2,253.7,61.7,255.8z"/>
		</g>
	</g>
	<path fill="#FFFFFF" d="M381.1,349.2c-0.2-6-2.6-18-5.4-31.8l-0.1-0.5c-3-14.8-6.6-33.2-6.8-41.2c-0.1-5,0.1-12.2,0.1-19.8v-0.4
		c0-15.6,0.1-37.1-1.4-51.2c-1.2-11.5-5.6-40.7-19.2-62.5c-12.6-20.2-27.9-33.2-47.9-41.4c-18.4-7.4-52.1-8.3-53-8.3
		c-8.6,0-30.7,0.7-49.1,8.1c-20.1,8.1-35.3,21.3-47.9,41.5c-13.6,21.8-17.9,51-19.1,62.5c-1.5,14.1-1.4,35.5-1.2,51.2l0,3.6
		c0,6.3,0,12.3-0.1,16.6c-0.2,8.1-3.9,26.5-6.9,41.3l-0.1,0.6c-2.7,13.8-5.1,25.7-5.4,31.7c-0.6,15.4,3.8,25.7,14.9,35.8
		c7.1,6.4,14,9.5,21.7,9.5c4.1,0,7.8-0.8,11.9-1.8c1.1-0.3,2.3-0.6,3.5-1.1c4,2.2,11.7,5.6,21.7,5.6c6.5,0,14.1-1.4,22.4-5.4
		c4.8,3.9,9.7,7.5,9.7,7.5c12.9,7.3,24,8.8,25.6,8.8h0.4c1.6,0,12.7-0.9,26.1-8.8c0,0,4.3-3.1,8.8-6.7c7.7,3.4,14.7,4.6,20.8,4.6
		c10.9,0,19-3.9,22.7-6.1c1.8,0.7,3.3,1.3,4.9,1.7c4,1,7.7,1.8,11.8,1.8c7.8,0,14.4-2.9,21.6-9.5C377.4,375,381.7,364.6,381.1,349.2
		z"/>
	<g>
		<path fill="#0C4589" d="M380.4,356.5c-87,13.2-174.5,13-262.4,0l17-104c78.1,13,155.8,13.2,233,0L380.4,356.5z"/>
	</g>
	<path fill="#C8C8C8" d="M285.5,389.9c0,0,8-6.1,16.8-7c8.8-1,23.8,5.5,23.8,5.5s-4.9,10-14.2,9.8
		C302.5,397.9,285.5,389.9,285.5,389.9z"/>
	<path fill="#C8C8C8" d="M169.6,389.9c0,0,8-6.1,16.8-7s23.8,5.5,23.8,5.5s-4.9,10-14.2,9.8S169.6,389.9,169.6,389.9z"/>
	<path d="M384.6,351.4c-0.2-6.1-2.7-18.4-5.5-32.5l-0.1-0.5c-3-15.1-6.3-33.9-6.5-42.1c-0.1-5.1,0.5-12.5,0.5-20.3v-0.4
		c0-16-0.3-37.9-1.8-52.2c-1.2-11.8-5.9-41.6-19.8-63.8c-12.9-20.6-28.6-33.9-49.1-42.2c-18.8-7.6-53.2-8.4-54.2-8.4
		c-8.8,0-31.4,0.7-50.1,8.3c-20.5,8.3-36,21.7-48.9,42.3c-13.9,22.2-18.3,52.1-19.6,63.8c-1.5,14.4-1.4,36.3-1.3,52.3l0,3.7
		c0,6.5,0,12.5-0.1,16.9c-0.2,8.3-4,27-7,42.1L121,319c-2.8,14.1-5.2,26.3-5.5,32.4c-0.6,15.7,3.8,26.3,15.2,36.6
		c7.3,6.6,14.3,9.7,22.1,9.7c4.2,0,8-0.8,12.1-1.9c1.1-0.3,2.3-0.7,3.5-1.1c4.1,2.3,11.9,5.7,22.2,5.7c6.7,0,14.4-1.4,22.9-5.5
		c4.9,4,9.9,7.4,10,7.4c13.2,7.5,24.5,8.7,26.2,8.7h0.4c1.7,0,13-0.7,26.7-8.7c0,0,4.4-3.1,8.9-6.7c7.8,3.5,15,4.8,21.3,4.8
		c11.2,0,19.4-4,23.2-6.2c1.8,0.7,3.4,1.3,5,1.7c4.1,1,7.9,1.9,12.1,1.9c7.9,0,14.7-3,22.1-9.6C380.8,377.7,385.2,367.1,384.6,351.4
		z M177.2,390.9c6.1-2.6,13.6-5.5,20.1-5.5c4.4,0,7.6,1.3,10.4,4.1l0.2,0.2C194.8,395.1,184,393.4,177.2,390.9z M291.7,390.4
		c0.3-0.3,0.6-0.5,0.8-0.8c2.8-2.8,6-4.2,10.4-4.2c6.1,0,13,2.5,18.9,5C315.4,392.9,304.8,395.2,291.7,390.4z M364.5,382.6
		c-6,5.4-11.1,7.8-17.2,7.8c-3.4,0-6.6-0.7-10.4-1.6c-2-0.5-4.5-1.6-7.7-3l-0.5-0.2c-7-3.2-16.7-7.4-25.8-7.4
		c-6.3,0-11.3,2.1-15.6,6.3c-11,11.2-21.9,15.7-29.1,17.5c-0.1,0-7.1,1.9-15.2-0.3c-8.2-2.3-19.2-6.1-30.1-17.2
		c-4.1-4.2-9.2-6.3-15.6-6.3c-9,0-18.6,4.2-25.9,7.4l-0.3,0.1c-3.3,1.4-5.8,2.6-7.9,3.1c-3.8,0.9-7,1.6-10.4,1.6
		c-6,0-11.3-2.4-17.2-7.8c-9.8-8.9-13.3-17.3-12.8-30.9c0.2-5.5,2.6-17.4,5.4-31.2l0.1-0.6c3.2-16.1,6.9-34.4,7.2-43.4
		c0.1-4.5,0.1-10.6,0.1-17.1l0-3.7c-0.1-15.8-0.3-37.5,1.2-51.4c1.2-11.3,5.4-39.8,18.5-60.7c12-19.3,26.5-31.8,45.4-39.5
		c17.6-7.1,39-8.2,47.4-8.2c0.8,0,33.8,0.8,51.4,7.9c19,7.7,33.4,20.4,45.5,39.6c13.1,21,18,49.5,19.2,60.8
		c1.5,14,1.9,35.7,1.9,51.5v0.4c0,7.8-0.8,15.2-0.7,20.4c0.2,8.9,3.6,27.2,6.8,43.4l-0.1,0.5c2.8,13.8,5.1,25.8,5.3,31.3
		C377.9,365.3,374.3,373.7,364.5,382.6z"/>
	<path d="M324.2,191.9c0,10.6-8.6,19.1-19.1,19.1c-10.6,0-19.1-8.6-19.1-19.1c0-0.9,0.1-1.8,0.2-2.6c1.2,0.8,2.6,1.3,4.1,1.3
		c4,0,7.2-3.2,7.2-7.2c0-2.9-1.7-5.4-4.1-6.5c3.2-2.5,7.3-4,11.7-4C315.6,172.8,324.2,181.4,324.2,191.9z"/>
	<g>
		<path fill="#092E54" d="M287.7,260.3c0,17.4-17.2,31.6-38.5,31.6s-38.5-14.1-38.5-31.6"/>
		<g>
			<path d="M285.2,260.3c-0.9,38.5-71,38.5-71.9,0c-0.1-3.2-5.1-3.2-5,0c1.1,44.9,80.9,44.9,81.9,0
				C290.2,257.1,285.2,257.1,285.2,260.3L285.2,260.3z"/>
		</g>
	</g>
	<path d="M214.1,191.9c0,10.6-8.6,19.1-19.1,19.1c-10.6,0-19.1-8.6-19.1-19.1c0-0.9,0.1-1.8,0.2-2.6c1.2,0.8,2.6,1.3,4.1,1.3
		c4,0,7.2-3.2,7.2-7.2c0-2.9-1.7-5.4-4.1-6.5c3.2-2.5,7.3-4,11.7-4C205.5,172.8,214.1,181.4,214.1,191.9z"/>
	
		<ellipse transform="matrix(0.7169 -0.6971 0.6971 0.7169 -112.2272 180.7014)" fill="#F68694" cx="166.4" cy="228.6" rx="7.4" ry="3.4"/>
	
		<ellipse transform="matrix(0.7169 -0.6971 0.6971 0.7169 -109.0657 190.8302)" fill="#F68694" cx="180.5" cy="229.7" rx="7.4" ry="3.4"/>
	
		<ellipse transform="matrix(0.7169 -0.6971 0.6971 0.7169 -105.0878 200.6274)" fill="#F68694" cx="194.5" cy="229.7" rx="7.4" ry="3.4"/>
	
		<ellipse transform="matrix(-0.7169 -0.6971 0.6971 -0.7169 413.1115 627.1812)" fill="#F68694" cx="333.9" cy="229.7" rx="7.4" ry="3.4"/>
	
		<ellipse transform="matrix(-0.7169 -0.6971 0.6971 -0.7169 388.1657 619.3947)" fill="#F68694" cx="319.8" cy="230.9" rx="7.4" ry="3.4"/>
	
		<ellipse transform="matrix(-0.7169 -0.6971 0.6971 -0.7169 364.0363 609.5975)" fill="#F68694" cx="305.8" cy="230.9" rx="7.4" ry="3.4"/>
	<g>
		<g>
			<path d="M175.7,158.9c12.5-5.1,25.6-6.7,37.9-0.3c2.8,1.5,5.4-2.8,2.5-4.3c-13.5-7.1-28-5.8-41.8-0.3
				C171.4,155.3,172.7,160.1,175.7,158.9L175.7,158.9z"/>
		</g>
	</g>
	<g>
		<g>
			<path d="M286.7,171.9c12.8-2.4,25.7-2.9,38.5,0c3.1,0.7,4.5-4.1,1.3-4.8c-13.7-3.1-27.5-2.6-41.2,0
				C282.2,167.7,283.5,172.5,286.7,171.9L286.7,171.9z"/>
		</g>
	</g>
	<g>
		<path d="M235,228c13.1,3.4,25.4,3.2,37,0"/>
		<g>
			<path d="M234.3,230.4c12.7,3.2,25.6,3.4,38.3,0c3.1-0.8,1.8-5.6-1.3-4.8c-11.9,3.2-23.8,3-35.7,0
				C232.5,224.8,231.2,229.6,234.3,230.4L234.3,230.4z"/>
		</g>
	</g>
	<g>
		<polyline fill="#FFFFFF" points="178.2,259.3 214.1,295.2 247.4,262 		"/>
		<g>
			<path d="M176.4,261.1c12,12,24,24,35.9,35.9c1,1,2.6,1,3.5,0c11.1-11.1,22.2-22.2,33.2-33.2c2.3-2.3-1.3-5.8-3.5-3.5
				c-11.1,11.1-22.2,22.2-33.2,33.2c1.2,0,2.4,0,3.5,0c-12-12-24-24-35.9-35.9C177.7,255.2,174.1,258.8,176.4,261.1L176.4,261.1z"/>
		</g>
	</g>
	<g>
		<polyline fill="#FFFFFF" points="323.4,260.3 287.4,296.2 254.2,263 		"/>
		<g>
			<path d="M321.6,258.5c-12,12-24,24-35.9,35.9c1.2,0,2.4,0,3.5,0c-11.1-11.1-22.2-22.2-33.2-33.2c-2.3-2.3-5.8,1.3-3.5,3.5
				c11.1,11.1,22.2,22.2,33.2,33.2c1,1,2.6,1,3.5,0c12-12,24-24,35.9-35.9C327.4,259.8,323.9,256.2,321.6,258.5L321.6,258.5z"/>
		</g>
	</g>
	<g>
		<g>
			<path fill="#2386C9" d="M160.4,195.8l-3.9-0.3c-1.7-0.1-3.1-1.7-2.9-3.4l0.6-8.2c0.1-1.7,1.7-3.1,3.4-2.9l3.9,0.3
				c1.7,0.1,3.1,1.7,2.9,3.4l-0.6,8.2C163.6,194.6,162.1,195.9,160.4,195.8z"/>
			<g>
				<path d="M160.4,194.3c-1.1-0.1-2.4,0-3.5-0.3c-1.8-0.5-1.8-1.8-1.7-3.3c0.2-2.2-0.5-7.7,2.4-8.2c0.9-0.1,2.6,0,3.5,0.3
					c1.7,0.5,1.8,1.6,1.8,3.1C162.7,187.7,163.2,194.1,160.4,194.3c-1.9,0.1-1.9,3.1,0,3c5.9-0.3,5.2-7.2,5.4-11.4
					c0.3-5.2-3.7-6.4-8.3-6.3c-5.8,0.1-5.1,6.9-5.4,11c-0.1,2.1-0.2,4,1.6,5.5c1.8,1.4,4.5,1.2,6.6,1.3
					C162.3,197.4,162.3,194.4,160.4,194.3z"/>
			</g>
		</g>
		<g>
			<g>
				<path d="M222.5,191.8c-0.3,15.4-12.7,28.3-28.3,28.3c-15.5,0-28.3-12.9-28.3-28.3c0-15.4,12.9-28.3,28.3-28.3
					C209.8,163.5,222.2,176.4,222.5,191.8c0.1,3.2,5.1,3.2,5,0c-0.3-13.8-8.5-26.2-21.6-31.2c-13.2-5-28.5-0.9-37.5,10
					c-8.8,10.7-10.1,26.2-3,38.2c7.1,11.9,21.1,18.2,34.7,15.8c15.9-2.8,26.9-16.9,27.3-32.8C227.6,188.6,222.6,188.6,222.5,191.8z"
					/>
			</g>
		</g>
		<g>
			<circle fill="#2386C9" cx="159.2" cy="198.6" r="2.8"/>
			<g>
				<path d="M160.5,198.6c-0.1,1.7-2.6,1.7-2.6,0C157.9,197,160.4,197,160.5,198.6c0.1,1.9,3.1,1.9,3,0c-0.1-2.3-1.9-4.3-4.3-4.3
					c-2.3,0-4.3,2-4.3,4.3c0,2.3,1.9,4.2,4.1,4.3c2.5,0.1,4.3-1.9,4.4-4.3C163.6,196.7,160.6,196.7,160.5,198.6z"/>
			</g>
		</g>
		<g>
			<circle fill="#2386C9" cx="159.2" cy="205.6" r="2.8"/>
			<g>
				<path d="M160.5,205.6c-0.1,1.7-2.6,1.7-2.6,0C157.9,204,160.4,204,160.5,205.6c0.1,1.9,3.1,1.9,3,0c-0.1-2.3-1.9-4.3-4.3-4.3
					c-2.3,0-4.3,2-4.3,4.3c0,2.3,1.9,4.2,4.1,4.3c2.5,0.1,4.3-1.9,4.4-4.3C163.6,203.7,160.6,203.7,160.5,205.6z"/>
			</g>
		</g>
		<g>
			<circle fill="#2386C9" cx="159.2" cy="212.6" r="2.8"/>
			<g>
				<path d="M160.5,212.6c-0.1,1.7-2.6,1.7-2.6,0C157.9,211,160.4,211,160.5,212.6c0.1,1.9,3.1,1.9,3,0c-0.1-2.3-1.9-4.3-4.3-4.3
					c-2.3,0-4.3,2-4.3,4.3c0,2.3,1.9,4.2,4.1,4.3c2.5,0.1,4.3-1.9,4.4-4.3C163.6,210.7,160.6,210.7,160.5,212.6z"/>
			</g>
		</g>
		<g>
			<circle fill="#2386C9" cx="159.2" cy="219.6" r="2.8"/>
			<g>
				<path d="M160.5,219.6c-0.1,1.7-2.6,1.7-2.6,0C157.9,218,160.4,218,160.5,219.6c0.1,1.9,3.1,1.9,3,0c-0.1-2.3-1.9-4.3-4.3-4.3
					c-2.3,0-4.3,2-4.3,4.3c0,2.3,1.9,4.2,4.1,4.3c2.5,0.1,4.3-1.9,4.4-4.3C163.6,217.7,160.6,217.7,160.5,219.6z"/>
			</g>
		</g>
		<g>
			<circle fill="#2386C9" cx="159.2" cy="226.6" r="2.8"/>
			<g>
				<path d="M160.5,226.6c-0.1,1.7-2.6,1.7-2.6,0C157.9,225,160.4,225,160.5,226.6c0.1,1.9,3.1,1.9,3,0c-0.1-2.3-1.9-4.3-4.3-4.3
					c-2.3,0-4.3,2-4.3,4.3c0,2.3,1.9,4.2,4.1,4.3c2.5,0.1,4.3-1.9,4.4-4.3C163.6,224.7,160.6,224.7,160.5,226.6z"/>
			</g>
		</g>
		<g>
			<circle fill="#2386C9" cx="159.2" cy="233.6" r="2.8"/>
			<g>
				<path d="M160.5,233.6c-0.1,1.7-2.6,1.7-2.6,0C157.9,232,160.4,232,160.5,233.6c0.1,1.9,3.1,1.9,3,0c-0.1-2.3-1.9-4.3-4.3-4.3
					c-2.3,0-4.3,2-4.3,4.3c0,2.3,1.9,4.2,4.1,4.3c2.5,0.1,4.3-1.9,4.4-4.3C163.6,231.7,160.6,231.7,160.5,233.6z"/>
			</g>
		</g>
		<g>
			<circle fill="#2386C9" cx="159.2" cy="240.6" r="2.8"/>
			<g>
				<path d="M160.5,240.6c-0.1,1.7-2.6,1.7-2.6,0C157.9,239,160.4,239,160.5,240.6c0.1,1.9,3.1,1.9,3,0c-0.1-2.3-1.9-4.3-4.3-4.3
					c-2.3,0-4.3,2-4.3,4.3c0,2.3,1.9,4.2,4.1,4.3c2.5,0.1,4.3-1.9,4.4-4.3C163.6,238.7,160.6,238.7,160.5,240.6z"/>
			</g>
		</g>
		<g>
			<circle fill="#2386C9" cx="159.2" cy="247.6" r="2.8"/>
			<g>
				<path d="M160.5,247.6c-0.1,1.7-2.6,1.7-2.6,0C157.9,246,160.4,246,160.5,247.6c0.1,1.9,3.1,1.9,3,0c-0.1-2.3-1.9-4.3-4.3-4.3
					c-2.3,0-4.3,2-4.3,4.3c0,2.3,1.9,4.2,4.1,4.3c2.5,0.1,4.3-1.9,4.4-4.3C163.6,245.7,160.6,245.7,160.5,247.6z"/>
			</g>
		</g>
	</g>
	<g>
		<g>
			<path d="M135.3,253.9c77.6,12.8,156.7,13.1,234.3,0c3.2-0.5,1.8-5.4-1.3-4.8c-76.7,13-155,12.7-231.7,0
				C133.5,248.6,132.2,253.4,135.3,253.9L135.3,253.9z"/>
		</g>
	</g>
	<g>
		<g>
			<path d="M118.3,358.9c68.3,10.1,137.7,12.7,206.5,6.8c19.1-1.6,38.2-3.9,57.2-6.8c3.2-0.5,1.8-5.3-1.3-4.8
				c-66.7,10-134.5,12.3-201.8,6.8c-19.8-1.6-39.6-3.9-59.3-6.8C116.5,353.6,115.2,358.4,118.3,358.9L118.3,358.9z"/>
		</g>
	</g>
	<g>
		<g>
			<path d="M119.3,343.9c67.6,10.1,136.2,12.7,204.3,6.8c18.9-1.6,37.7-3.9,56.4-6.8c3.2-0.5,1.8-5.3-1.3-4.8
				c-66,10-133,12.3-199.5,6.8c-19.6-1.6-39.1-3.9-58.6-6.8C117.5,338.6,116.2,343.4,119.3,343.9L119.3,343.9z"/>
		</g>
	</g>
	<g>
		<g>
			
				<rect x="68" y="105.3" transform="matrix(-0.949 -0.3153 0.3153 -0.949 103.7259 355.5325)" fill="#2386C9" width="25.3" height="128.3"/>
			<g>
				<path d="M47.8,228.7c8,2.7,16,5.3,24,8c1.3,0.4,2.7-0.5,3.1-1.7c11.8-35.5,23.6-71.1,35.4-106.6c1.7-5,3.3-10.1,5-15.1
					c0.4-1.3-0.5-2.7-1.7-3.1c-8-2.7-16-5.3-24-8c-1.3-0.4-2.7,0.5-3.1,1.7C74.6,139.4,62.8,174.9,51,210.5c-1.7,5-3.3,10.1-5,15.1
					c-1,3.1,3.8,4.4,4.8,1.3c11.8-35.5,23.6-71.1,35.4-106.6c1.7-5,3.3-10.1,5-15.1c-1,0.6-2.1,1.2-3.1,1.7c8,2.7,16,5.3,24,8
					c-0.6-1-1.2-2.1-1.7-3.1C98.6,147.4,86.8,182.9,75,218.4c-1.7,5-3.3,10.1-5,15.1c1-0.6,2.1-1.2,3.1-1.7c-8-2.7-16-5.3-24-8
					C46,222.8,44.7,227.6,47.8,228.7z"/>
			</g>
		</g>
		<g>
			<line fill="#2386C9" x1="98.3" y1="119" x2="64.2" y2="221.5"/>
			<g>
				<path d="M96.8,118.6c-9.9,29.9-19.8,59.7-29.8,89.6c-1.4,4.3-2.9,8.6-4.3,12.9c-0.6,1.8,2.3,2.6,2.9,0.8
					c9.9-29.9,19.8-59.7,29.8-89.6c1.4-4.3,2.9-8.6,4.3-12.9C100.3,117.6,97.4,116.8,96.8,118.6L96.8,118.6z"/>
			</g>
		</g>
		<g>
			<line fill="#2386C9" x1="109.8" y1="121.3" x2="104.9" y2="119.6"/>
			<g>
				<path d="M110.2,119.8c-1.6-0.5-3.3-1.1-4.9-1.6c-1.8-0.6-2.6,2.3-0.8,2.9c1.6,0.5,3.3,1.1,4.9,1.6
					C111.3,123.3,112.1,120.4,110.2,119.8L110.2,119.8z"/>
			</g>
		</g>
		<g>
			<line fill="#2386C9" x1="105.7" y1="133.6" x2="100.8" y2="132"/>
			<g>
				<path d="M106.1,132.1c-1.6-0.5-3.3-1.1-4.9-1.6c-1.8-0.6-2.6,2.3-0.8,2.9c1.6,0.5,3.3,1.1,4.9,1.6
					C107.2,135.6,108,132.8,106.1,132.1L106.1,132.1z"/>
			</g>
		</g>
		<g>
			<line fill="#2386C9" x1="101.6" y1="145.9" x2="96.7" y2="144.3"/>
			<g>
				<path d="M102,144.5c-1.6-0.5-3.3-1.1-4.9-1.6c-1.8-0.6-2.6,2.3-0.8,2.9c1.6,0.5,3.3,1.1,4.9,1.6
					C103.1,148,103.9,145.1,102,144.5L102,144.5z"/>
			</g>
		</g>
		<g>
			<line fill="#2386C9" x1="97.5" y1="158.3" x2="92.6" y2="156.6"/>
			<g>
				<path d="M97.9,156.8c-1.6-0.5-3.3-1.1-4.9-1.6c-1.8-0.6-2.6,2.3-0.8,2.9c1.6,0.5,3.3,1.1,4.9,1.6
					C99,160.3,99.8,157.4,97.9,156.8L97.9,156.8z"/>
			</g>
		</g>
		<g>
			<line fill="#2386C9" x1="93.4" y1="170.6" x2="88.5" y2="169"/>
			<g>
				<path d="M93.8,169.2c-1.6-0.5-3.3-1.1-4.9-1.6c-1.8-0.6-2.6,2.3-0.8,2.9c1.6,0.5,3.3,1.1,4.9,1.6
					C94.9,172.7,95.7,169.8,93.8,169.2L93.8,169.2z"/>
			</g>
		</g>
		<g>
			<line fill="#2386C9" x1="89.3" y1="182.9" x2="84.4" y2="181.3"/>
			<g>
				<path d="M89.7,181.5c-1.6-0.5-3.3-1.1-4.9-1.6c-1.8-0.6-2.6,2.3-0.8,2.9c1.6,0.5,3.3,1.1,4.9,1.6
					C90.8,185,91.6,182.1,89.7,181.5L89.7,181.5z"/>
			</g>
		</g>
		<g>
			<line fill="#2386C9" x1="85.2" y1="195.3" x2="80.3" y2="193.6"/>
			<g>
				<path d="M85.6,193.8c-1.6-0.5-3.3-1.1-4.9-1.6c-1.8-0.6-2.6,2.3-0.8,2.9c1.6,0.5,3.3,1.1,4.9,1.6
					C86.7,197.3,87.5,194.4,85.6,193.8L85.6,193.8z"/>
			</g>
		</g>
		<g>
			<line fill="#2386C9" x1="81.1" y1="207.6" x2="76.2" y2="206"/>
			<g>
				<path d="M81.5,206.2c-1.6-0.5-3.3-1.1-4.9-1.6c-1.8-0.6-2.6,2.3-0.8,2.9c1.6,0.5,3.3,1.1,4.9,1.6
					C82.6,209.7,83.4,206.8,81.5,206.2L81.5,206.2z"/>
			</g>
		</g>
		<g>
			<line fill="#2386C9" x1="77" y1="219.9" x2="72.1" y2="218.3"/>
			<g>
				<path d="M77.4,218.5c-1.6-0.5-3.3-1.1-4.9-1.6c-1.8-0.6-2.6,2.3-0.8,2.9c1.6,0.5,3.3,1.1,4.9,1.6
					C78.5,222,79.3,219.1,77.4,218.5L77.4,218.5z"/>
			</g>
		</g>
	</g>
	<g>
		<line fill="#FFFFFF" x1="155" y1="346" x2="155" y2="360"/>
		<g>
			<path d="M153,346c0,4.7,0,9.3,0,14c0,3.2,5,3.2,5,0c0-4.7,0-9.3,0-14C158,342.8,153,342.8,153,346L153,346z"/>
		</g>
	</g>
	<g>
		<line fill="#FFFFFF" x1="192" y1="350" x2="192" y2="364"/>
		<g>
			<path d="M190,350c0,4.7,0,9.3,0,14c0,3.2,5,3.2,5,0c0-4.7,0-9.3,0-14C195,346.8,190,346.8,190,350L190,350z"/>
		</g>
	</g>
	<g>
		<line fill="#FFFFFF" x1="229" y1="352" x2="229" y2="366"/>
		<g>
			<path d="M227,352c0,4.7,0,9.3,0,14c0,3.2,5,3.2,5,0c0-4.7,0-9.3,0-14C232,348.8,227,348.8,227,352L227,352z"/>
		</g>
	</g>
	<g>
		<line fill="#FFFFFF" x1="266" y1="352" x2="266" y2="366"/>
		<g>
			<path d="M264,352c0,4.7,0,9.3,0,14c0,3.2,5,3.2,5,0c0-4.7,0-9.3,0-14C269,348.8,264,348.8,264,352L264,352z"/>
		</g>
	</g>
	<g>
		<line fill="#FFFFFF" x1="303" y1="351" x2="303" y2="365"/>
		<g>
			<path d="M301,351c0,4.7,0,9.3,0,14c0,3.2,5,3.2,5,0c0-4.7,0-9.3,0-14C306,347.8,301,347.8,301,351L301,351z"/>
		</g>
	</g>
	<g>
		<line fill="#FFFFFF" x1="340" y1="348" x2="340" y2="362"/>
		<g>
			<path d="M338,348c0,4.7,0,9.3,0,14c0,3.2,5,3.2,5,0c0-4.7,0-9.3,0-14C343,344.8,338,344.8,338,348L338,348z"/>
		</g>
	</g>
	<g>
		<g>
			
				<rect x="308.6" y="283.1" transform="matrix(0.9783 -0.2071 0.2071 0.9783 -58.4748 76.7465)" fill="#7F0909" width="57.4" height="68.9"/>
			<g>
				<path d="M371.8,343c-18.7,4-37.4,7.9-56.1,11.9c1,0.6,2.1,1.2,3.1,1.7c-4.8-22.5-9.5-45-14.3-67.5c-0.6,1-1.2,2.1-1.7,3.1
					c18.7-4,37.4-7.9,56.1-11.9c-1-0.6-2.1-1.2-3.1-1.7c4.8,22.5,9.5,45,14.3,67.5c0.7,3.1,5.5,1.8,4.8-1.3
					c-4.8-22.5-9.5-45-14.3-67.5c-0.3-1.4-1.8-2-3.1-1.7c-18.7,4-37.4,7.9-56.1,11.9c-1.4,0.3-2,1.8-1.7,3.1
					c4.8,22.5,9.5,45,14.3,67.5c0.3,1.4,1.8,2,3.1,1.7c18.7-4,37.4-7.9,56.1-11.9C376.3,347.1,374.9,342.3,371.8,343z"/>
			</g>
		</g>
		<g>
			
				<rect x="309.1" y="288" transform="matrix(0.9783 -0.2071 0.2071 0.9783 -59.9681 72.1321)" fill="#7F0909" width="10.8" height="68.9"/>
			<g>
				<path d="M326.2,352.6c-3.5,0.7-7,1.5-10.6,2.2c1,0.6,2.1,1.2,3.1,1.7c-4.8-22.5-9.5-45-14.3-67.5c-0.6,1-1.2,2.1-1.7,3.1
					c3.5-0.7,7-1.5,10.6-2.2c-1-0.6-2.1-1.2-3.1-1.7c4.8,22.5,9.5,45,14.3,67.5c0.7,3.1,5.5,1.8,4.8-1.3c-4.8-22.5-9.5-45-14.3-67.5
					c-0.3-1.4-1.8-2-3.1-1.7c-3.5,0.7-7,1.5-10.6,2.2c-1.4,0.3-2,1.8-1.7,3.1c4.8,22.5,9.5,45,14.3,67.5c0.3,1.4,1.8,2,3.1,1.7
					c3.5-0.7,7-1.5,10.6-2.2C330.7,356.8,329.4,352,326.2,352.6z"/>
			</g>
		</g>
	</g>
	<g>
		<path fill="#FFFFFF" d="M406.3,323.7l-3.9,2.6l-38,25.4c-8.2,5.5-19.4,3.3-24.9-5c-5.5-8.2-3.3-19.4,4.9-24.9l29.6-24.6"/>
		<g>
			<path d="M405.1,321.5c-13,8.7-25.9,17.3-38.9,26c-2.7,1.8-5.4,3.8-8.7,4.4c-9,1.8-17.8-4.9-18.5-14.1
				c-0.7-10.2,9.5-16.1,16.4-21.9c6.8-5.6,13.6-11.3,20.4-16.9c2.5-2.1-1.1-5.6-3.5-3.5c-6.9,5.7-13.9,11.5-20.8,17.2
				c-7.6,6.3-17,12.1-17.5,23.1c-0.7,15.8,16.7,26.3,30.5,18.7c7.3-4,14.1-9.4,21-14c7.4-4.9,14.7-9.9,22.1-14.8
				C410.2,324,407.7,319.7,405.1,321.5L405.1,321.5z"/>
		</g>
	</g>
	<g>
		<path fill="#092E54" d="M364.7,164.3c-22.3-10.9-50.2-57.8-80.7-54.6s-85,0-85,0c-18.3,24.3-64,60.8-64,60.8s3.7-90.2,106.3-86.8
			C344,87,357.7,133.6,357.7,133.6L364.7,164.3z"/>
	</g>
	<g>
		<polyline fill="#0C4589" points="375.7,295.6 354,312 378.5,343 401.8,327.4 408.8,322.3 		"/>
		<g>
			<path d="M374.4,293.4c-7.2,5.5-14.5,10.9-21.7,16.4c-1.4,1-1.6,2.6-0.5,3.9c8.2,10.4,16.4,20.7,24.6,31.1c0.6,0.8,2.2,1,3,0.4
				c10.2-6.8,20.4-13.5,30.2-20.8c2.6-1.9,0.1-6.2-2.5-4.3c-9.8,7.3-20.1,14-30.2,20.8c1,0.1,2,0.3,3,0.4
				c-8.2-10.4-16.4-20.7-24.6-31.1c-0.2,1.3-0.3,2.6-0.5,3.9c7.2-5.5,14.5-10.9,21.7-16.4C379.5,295.9,377,291.5,374.4,293.4
				L374.4,293.4z"/>
		</g>
	</g>
	<g>
		<g>
			<path d="M134.8,172.3c8.7-7,17.3-14.3,25.6-21.7c13.8-12.2,27.6-24.9,38.8-39.6c-0.7,0.4-1.4,0.8-2.2,1.2
				c20.7,1.2,41.5,1.8,62.3,1.3c12.5-0.3,26.3-3.7,38.1,1.2c12.8,5.3,23.2,15.7,33,25.2c9.5,9.3,19,20.4,31.1,26.6
				c2.9,1.5,5.4-2.9,2.5-4.3c-8.3-4.2-15.1-11.1-21.7-17.5c-8-7.8-15.7-15.9-24.4-22.9c-7.4-5.9-15.6-11.5-24.9-13.7
				c-9.5-2.2-19.9,0.1-29.6,0.4c-20.1,0.7-40.3,0.1-60.3-0.9c-1.8-0.1-3.8-0.5-5.6-0.3c-2.8,0.3-4.2,3.3-5.9,5.4
				c-6.9,8.3-14.7,16-22.6,23.4c-12.1,11.4-24.7,22.3-37.7,32.7C128.7,170.7,132.3,174.3,134.8,172.3L134.8,172.3z"/>
		</g>
	</g>
	<g>
		<polygon fill="#2DA6EA" points="247.2,284.7 252.5,275 257.8,284.7 267.5,290 257.8,295.3 252.5,305.1 247.2,295.3 237.5,290 		
			"/>
		<g>
			<path d="M248.5,285.5c1.8-3.2,3.5-6.5,5.3-9.7c-0.9,0-1.7,0-2.6,0c1.6,3,3.1,7.6,5.5,10c2.5,2.4,7,3.9,10,5.5c0-0.9,0-1.7,0-2.6
				c-3,1.6-7.6,3.1-10,5.5c-2.4,2.5-3.9,7-5.5,10c0.9,0,1.7,0,2.6,0c-1.6-3-3.1-7.6-5.5-10c-2.5-2.4-7-3.9-10-5.5c0,0.9,0,1.7,0,2.6
				c3.2-1.8,6.5-3.5,9.7-5.3c1.7-0.9,0.2-3.5-1.5-2.6c-3.2,1.8-6.5,3.5-9.7,5.3c-1,0.5-1,2.1,0,2.6c2.7,1.5,8,3.6,9.4,5.1
				c1.4,1.4,3.6,6.8,5.1,9.4c0.5,1,2.1,1,2.6,0c1.5-2.7,3.6-8,5.1-9.4c1.4-1.4,6.8-3.6,9.4-5.1c1-0.5,1-2.1,0-2.6
				c-2.7-1.5-8-3.6-9.4-5.1c-1.4-1.4-3.6-6.8-5.1-9.4c-0.5-1-2.1-1-2.6,0c-1.8,3.2-3.5,6.5-5.3,9.7
				C245,285.7,247.6,287.2,248.5,285.5z"/>
		</g>
	</g>
	<g>
		<circle fill="#2DA6EA" cx="381.9" cy="326.1" r="5.1"/>
		<g>
			<path d="M385.5,326.1c-0.2,4.6-7.2,4.6-7.2,0C378.3,321.5,385.3,321.5,385.5,326.1c0.1,1.9,3.1,1.9,3,0c-0.2-3.6-2.9-6.6-6.6-6.6
				c-3.6,0-6.6,3-6.6,6.6c0,3.5,2.8,6.4,6.3,6.6c3.8,0.2,6.7-2.9,6.9-6.6C388.6,324.2,385.6,324.2,385.5,326.1z"/>
		</g>
	</g>
	<g>
		<circle fill="#2DA6EA" cx="81.9" cy="253.1" r="5.1"/>
		<g>
			<path d="M85.5,253.1c-0.2,4.6-7.2,4.6-7.2,0C78.3,248.5,85.3,248.5,85.5,253.1c0.1,1.9,3.1,1.9,3,0c-0.2-3.6-2.9-6.6-6.6-6.6
				c-3.6,0-6.6,3-6.6,6.6c0,3.5,2.8,6.4,6.3,6.6c3.8,0.2,6.7-2.9,6.9-6.6C88.6,251.2,85.6,251.2,85.5,253.1z"/>
		</g>
	</g>
</g>
<g id="Layer_2">
	<g>
		<g id="ENFJ_4_1_">
			<g>
				<polygon fill="#7F0909" points="256.8,135.1 250,102.1 267.3,135.1 				"/>
				<g>
					<path d="M258.2,134.7c-2.3-11-4.5-22-6.8-33c-0.9,0.4-1.8,0.8-2.7,1.2c5.8,11,11.6,22,17.3,33c0.4-0.8,0.9-1.5,1.3-2.3
						c-3.5,0-7,0-10.6,0c-1.9,0-1.9,3,0,3c3.5,0,7,0,10.6,0c1.2,0,1.8-1.3,1.3-2.3c-5.8-11-11.6-22-17.3-33
						c-0.8-1.6-3.1-0.4-2.7,1.2c2.3,11,4.5,22,6.8,33C255.7,137.4,258.6,136.6,258.2,134.7z"/>
				</g>
			</g>
			<g>
				<polygon fill="#BC0808" points="250,168.1 256.8,135.1 267.3,135.1 				"/>
				<g>
					<path d="M251.4,168.5c2.3-11,4.5-22,6.8-33c-0.5,0.4-1,0.7-1.4,1.1c3.5,0,7,0,10.6,0c-0.4-0.8-0.9-1.5-1.3-2.3
						c-5.8,11-11.6,22-17.3,33c-0.9,1.7,1.7,3.2,2.6,1.5c5.8-11,11.6-22,17.3-33c0.5-1-0.1-2.3-1.3-2.3c-3.5,0-7,0-10.6,0
						c-0.6,0-1.3,0.5-1.4,1.1c-2.3,11-4.5,22-6.8,33C248.2,169.6,251,170.4,251.4,168.5z"/>
				</g>
			</g>
			<g>
				<polygon fill="#0C4589" points="232.7,135.1 250,102.1 256.8,135.1 				"/>
				<g>
					<path d="M234,135.8c5.8-11,11.6-22,17.3-33c-0.9-0.1-1.8-0.2-2.7-0.4c2.2,11,4.5,22,6.7,33c0.5-0.6,1-1.3,1.4-1.9
						c-8,0-16,0-24.1,0c-1.9,0-1.9,3,0,3c8,0,16,0,24.1,0c1,0,1.6-1,1.4-1.9c-2.2-11-4.5-22-6.7-33c-0.3-1.3-2.2-1.5-2.7-0.4
						c-5.8,11-11.6,22-17.3,33C230.5,136,233.1,137.6,234,135.8z"/>
				</g>
			</g>
			<g>
				<polygon fill="#308DD8" points="250,168.1 232.7,135.1 256.8,135.1 				"/>
				<g>
					<path d="M251.3,167.3c-5.8-11-11.6-22-17.3-33c-0.4,0.8-0.9,1.5-1.3,2.3c8,0,16,0,24.1,0c-0.5-0.6-1-1.3-1.4-1.9
						c-2.2,11-4.5,22-6.7,33c-0.4,1.9,2.5,2.7,2.9,0.8c2.2-11,4.5-22,6.7-33c0.2-0.9-0.4-1.9-1.4-1.9c-8,0-16,0-24.1,0
						c-1.2,0-1.8,1.3-1.3,2.3c5.8,11,11.6,22,17.3,33C249.6,170.6,252.2,169,251.3,167.3z"/>
				</g>
			</g>
		</g>
	</g>
</g>
</svg>
