<svg xmlns="http://www.w3.org/2000/svg" xml:space="preserve" viewBox="0 0 500 500"><g><path fill="#fff" d="m41.6 214.9 3-3.5c6.4-7.6 17.8-8.5 25.3-2.1l79.9 67.8c7.6 6.4 8.5 17.8 2.1 25.3l-3 3.5c-6.4 7.6-17.8 8.5-25.3 2.1l-79.9-67.8c-7.5-6.4-8.5-17.7-2.1-25.3"/><path d="M43.4 216.7c5.2-6.1 11.3-11.3 20-8.3 2.8 1 4.9 2.8 7.1 4.6 6.4 5.5 12.9 10.9 19.3 16.4l51.6 43.8c6.3 5.3 13.6 10.5 12.1 20-1.1 7-8.5 15-15.5 16.3-5.2.9-9.8-1-13.7-4.2-15.1-12.5-29.9-25.4-44.9-38.1l-27.3-23.1c-2.1-1.7-4.1-3.5-6.2-5.2-6.6-5.9-8.1-15.1-2.5-22.2 2-2.5-1.5-6.1-3.5-3.5-8.2 10.5-5.2 22.7 4.4 30.8 7.6 6.5 15.2 12.9 22.8 19.4 17.7 15 35.4 30 53 45 9.7 8.2 22.4 8.8 31.2-1.3 5.1-5.8 8.6-12.3 7-20.3-1-5-3.9-9-7.7-12.2-17.1-14.7-34.4-29.2-51.6-43.8l-25.5-21.6c-3.7-3.2-7.6-5.7-12.7-6.3-9.2-1.1-15.4 3.9-21 10.4-2 2.3 1.5 5.8 3.6 3.4"/><path fill="#1e2120" d="m129.9 258.6 18.2 15.5c9 7.6 10.1 21.2 2.5 30.2s-21.2 10.1-30.2 2.5L102 291z"/><path d="m128.2 260.3 15.9 13.5c3.2 2.8 6.3 5.6 7.8 9.7 2.5 6.3 1.2 13.7-3.1 18.9-4.6 5.6-12.3 8.1-19.3 6.2-4-1.1-7-3.5-10-6.1-5.2-4.4-10.5-8.9-15.7-13.3v3.5l27.9-32.4c2.1-2.4-1.4-6-3.5-3.5l-27.9 32.4c-.8 1-1.1 2.6 0 3.5 4.9 4.2 9.9 8.4 14.8 12.6 6.3 5.4 12.8 9.7 21.6 8.8 10.5-1.1 19.3-9.2 21.1-19.6 1.6-9.2-2.3-17.5-9.2-23.4-5.6-4.8-11.2-9.5-16.9-14.3-2.5-2.1-6 1.5-3.5 3.5"/><path fill="#606060" d="m63.7 258.6-18.6-15c-9.2-7.4-10.6-20.9-3.2-30.1s20.9-10.6 30.1-3.2l18.8 15.2z"/><path d="M65.5 256.8c-5.4-4.4-10.8-8.8-16.2-13.1-3.1-2.5-6.1-5.1-7.8-8.8-2.9-6.4-2-14.1 2.3-19.6 4.5-5.7 12.1-8.4 19.2-6.7 4 1 7.1 3.3 10.2 5.8 5.3 4.3 10.7 8.6 16 12.9v-3.5c-9 11-18.1 22.1-27.1 33.1-2 2.5 1.5 6 3.5 3.5 9-11 18.1-22.1 27.1-33.1.8-1 1.1-2.6 0-3.5-5-4.1-10.1-8.2-15.1-12.2-6.5-5.2-13-9.4-21.8-8.3-10.5 1.3-19.1 9.6-20.7 20-1.4 9.3 2.7 17.4 9.7 23.2 5.7 4.7 11.5 9.3 17.2 13.9 2.4 2 6-1.5 3.5-3.6"/><path fill="#fff" d="m453.7 353.7-2.9 3.6c-6.2 7.7-17.5 9-25.2 2.8l-81.9-65.4c-7.7-6.2-9-17.5-2.8-25.2l2.9-3.6c6.2-7.7 17.5-9 25.2-2.8l81.9 65.4c7.7 6.1 9 17.4 2.8 25.2"/><path d="M451.9 351.9c-5 6.3-10.9 11.6-19.7 9-2.9-.9-5-2.6-7.3-4.4-6.7-5.4-13.4-10.7-20.2-16.1-17.7-14.1-35.3-28.2-53-42.4-6.6-5.3-14.1-10.6-12-20.6 1.6-7.3 9.2-15.1 16.7-15.8 4.6-.4 8.6 1.4 12.1 4.2 15.6 12.3 31 24.8 46.6 37.2 9.2 7.4 18.4 14.7 27.6 22.1 2 1.6 4.1 3.2 6 4.8 7 5.9 8.3 15 2.8 22.5-1.9 2.6 2.4 5.1 4.3 2.5 5.4-7.4 5.7-17.4.1-24.8-1.7-2.2-3.8-3.8-6-5.6-7.8-6.2-15.6-12.5-23.5-18.7-18.1-14.4-36.1-28.9-54.2-43.3-9.8-7.8-22.6-7.9-30.9 2.3-5.2 6.4-8.6 13.4-6.1 21.8 1.3 4.5 4.2 7.9 7.8 10.8 17.5 14.2 35.2 28.1 52.8 42.2 8.7 7 17.4 13.9 26.1 20.9 3.7 2.9 7.4 5.3 12.2 5.9 9.4 1.2 15.8-4.1 21.3-10.9 2-2.6-1.5-6.1-3.5-3.6"/><path fill="#1e2120" d="m364.1 312.6-18.7-14.9c-9.2-7.4-10.7-20.8-3.4-30.1 7.4-9.2 20.8-10.7 30.1-3.4l18.9 15.1z"/><path d="M365.9 310.8c-5.4-4.3-10.9-8.7-16.3-13-3.1-2.5-6.1-5-7.9-8.8-3-6.4-2.1-14.1 2.2-19.6 4.4-5.7 12.1-8.5 19.1-6.8 4 .9 7.1 3.2 10.2 5.7 5.4 4.3 10.7 8.6 16.1 12.9v-3.5c-9 11.1-18 22.2-26.9 33.3-2 2.5 1.5 6 3.5 3.5 9-11.1 18-22.2 26.9-33.3.8-1 1.1-2.6 0-3.5-5.1-4-10.1-8.1-15.2-12.1-6.5-5.2-13.1-9.3-21.9-8.2-10.5 1.4-19 9.7-20.6 20.1-1.4 9.3 2.8 17.4 9.9 23.1 5.7 4.6 11.5 9.2 17.3 13.8 2.6 2 6.1-1.5 3.6-3.6"/><path fill="#606060" d="m430.3 310.6 19 14.5c9.4 7.2 11.2 20.6 4.1 30-7.2 9.4-20.6 11.2-30 4.1l-19.2-14.6z"/><path d="M429.1 312.8c5.5 4.2 11.1 8.4 16.6 12.6 9.2 7 13.4 19.2 5.1 29-4.7 5.5-12.4 7.9-19.3 6-3.7-1-6.6-3.3-9.6-5.5-5.5-4.2-10.9-8.3-16.4-12.5.3 1.1.6 2.3.9 3.4 8.7-11.3 17.4-22.6 26.2-33.9 2-2.5-2.4-5-4.3-2.5-8.7 11.3-17.4 22.6-26.2 33.9-.9 1.2-.1 2.7.9 3.4 10.7 8.2 22.9 21.5 37.7 19 10.4-1.8 18.5-10.7 19.6-21.1.9-9.4-3.7-17.1-10.9-22.6-5.9-4.5-11.7-8.9-17.6-13.4-2.8-2.1-5.3 2.3-2.7 4.2"/><path fill="#fff" d="M381.1 349.2c-.2-6-2.6-18-5.4-31.8l-.1-.5c-3-14.8-6.6-33.2-6.8-41.2-.1-5 .1-12.2.1-19.8v-.4c0-15.6.1-37.1-1.4-51.2-1.2-11.5-5.6-40.7-19.2-62.5-12.6-20.2-27.9-33.2-47.9-41.4-18.4-7.4-52.1-8.3-53-8.3-8.6 0-30.7.7-49.1 8.1-20.1 8.1-35.3 21.3-47.9 41.5-13.6 21.8-17.9 51-19.1 62.5-1.5 14.1-1.4 35.5-1.2 51.2v3.6c0 6.3 0 12.3-.1 16.6-.2 8.1-3.9 26.5-6.9 41.3l-.1.6c-2.7 13.8-5.1 25.7-5.4 31.7-.6 15.4 3.8 25.7 14.9 35.8 7.1 6.4 14 9.5 21.7 9.5 4.1 0 7.8-.8 11.9-1.8 1.1-.3 2.3-.6 3.5-1.1 4 2.2 11.7 5.6 21.7 5.6 6.5 0 14.1-1.4 22.4-5.4 4.8 3.9 9.7 7.5 9.7 7.5 12.9 7.3 24 8.8 25.6 8.8h.4c1.6 0 12.7-.9 26.1-8.8 0 0 4.3-3.1 8.8-6.7 7.7 3.4 14.7 4.6 20.8 4.6 10.9 0 19-3.9 22.7-6.1 1.8.7 3.3 1.3 4.9 1.7 4 1 7.7 1.8 11.8 1.8 7.8 0 14.4-2.9 21.6-9.5 11.3-10.1 15.6-20.5 15-35.9"/><path fill="#1e2120" d="M119 362h262s-8 26.4-24.5 30.8c-16.5 4.3-42.7-17.6-56-11-13.3 6.7-30.3 27.6-52.2 23.4-21.8-4.2-37.7-22.6-51-22.2s-65.8 34-78.3-21"/><path fill="#1e2120" d="M380.4 356.5c-87 13.2-174.5 13-262.4 0l17-94.4c78.7 15.7 156.5 12.8 233-3.3z"/><path fill="#c8c8c8" d="M285.5 389.9s8-6.1 16.8-7c8.8-1 23.8 5.5 23.8 5.5s-4.9 10-14.2 9.8c-9.4-.3-26.4-8.3-26.4-8.3M169.6 389.9s8-6.1 16.8-7 23.8 5.5 23.8 5.5-4.9 10-14.2 9.8-26.4-8.3-26.4-8.3"/><path d="M384.6 351.4c-.2-6.1-2.7-18.4-5.5-32.5l-.1-.5c-3-15.1-6.3-33.9-6.5-42.1-.1-5.1.5-12.5.5-20.3v-.4c0-16-.3-37.9-1.8-52.2-1.2-11.8-5.9-41.6-19.8-63.8-12.9-20.6-28.6-33.9-49.1-42.2-18.8-7.6-53.2-8.4-54.2-8.4-8.8 0-31.4.7-50.1 8.3-20.5 8.3-36 21.7-48.9 42.3-13.9 22.2-18.3 52.1-19.6 63.8-1.5 14.4-1.4 36.3-1.3 52.3v3.7c0 6.5 0 12.5-.1 16.9-.2 8.3-4 27-7 42.1l-.1.6c-2.8 14.1-5.2 26.3-5.5 32.4-.6 15.7 3.8 26.3 15.2 36.6 7.3 6.6 14.3 9.7 22.1 9.7 4.2 0 8-.8 12.1-1.9 1.1-.3 2.3-.7 3.5-1.1 4.1 2.3 11.9 5.7 22.2 5.7 6.7 0 14.4-1.4 22.9-5.5 4.9 4 9.9 7.4 10 7.4 13.2 7.5 24.5 8.7 26.2 8.7h.4c1.7 0 13-.7 26.7-8.7 0 0 4.4-3.1 8.9-6.7 7.8 3.5 15 4.8 21.3 4.8 11.2 0 19.4-4 23.2-6.2 1.8.7 3.4 1.3 5 1.7 4.1 1 7.9 1.9 12.1 1.9 7.9 0 14.7-3 22.1-9.6 11.4-10.5 15.8-21.1 15.2-36.8m-207.4 39.5c6.1-2.6 13.6-5.5 20.1-5.5 4.4 0 7.6 1.3 10.4 4.1l.2.2c-13.1 5.4-23.9 3.7-30.7 1.2m114.5-.5c.3-.3.6-.5.8-.8 2.8-2.8 6-4.2 10.4-4.2 6.1 0 13 2.5 18.9 5-6.4 2.5-17 4.8-30.1 0m72.8-7.8c-6 5.4-11.1 7.8-17.2 7.8-3.4 0-6.6-.7-10.4-1.6-2-.5-4.5-1.6-7.7-3l-.5-.2c-7-3.2-16.7-7.4-25.8-7.4-6.3 0-11.3 2.1-15.6 6.3-11 11.2-21.9 15.7-29.1 17.5-.1 0-7.1 1.9-15.2-.3-8.2-2.3-19.2-6.1-30.1-17.2-4.1-4.2-9.2-6.3-15.6-6.3-9 0-18.6 4.2-25.9 7.4l-.3.1c-3.3 1.4-5.8 2.6-7.9 3.1-3.8.9-7 1.6-10.4 1.6-6 0-11.3-2.4-17.2-7.8-9.8-8.9-13.3-17.3-12.8-30.9.2-5.5 2.6-17.4 5.4-31.2l.1-.6c3.2-16.1 6.9-34.4 7.2-43.4.1-4.5.1-10.6.1-17.1v-3.7c-.1-15.8-.3-37.5 1.2-51.4 1.2-11.3 5.4-39.8 18.5-60.7 12-19.3 26.5-31.8 45.4-39.5 17.6-7.1 39-8.2 47.4-8.2.8 0 33.8.8 51.4 7.9 19 7.7 33.4 20.4 45.5 39.6 13.1 21 18 49.5 19.2 60.8 1.5 14 1.9 35.7 1.9 51.5v.4c0 7.8-.8 15.2-.7 20.4.2 8.9 3.6 27.2 6.8 43.4l-.1.5c2.8 13.8 5.1 25.8 5.3 31.3.5 13.6-3.1 22-12.9 30.9"/><path d="M324.2 191.9c0 10.6-8.6 19.1-19.1 19.1-10.6 0-19.1-8.6-19.1-19.1 0-.9.1-1.8.2-2.6 1.2.8 2.6 1.3 4.1 1.3 4 0 7.2-3.2 7.2-7.2 0-2.9-1.7-5.4-4.1-6.5 3.2-2.5 7.3-4 11.7-4 10.5-.1 19.1 8.5 19.1 19M214.1 191.9c0 10.6-8.6 19.1-19.1 19.1-10.6 0-19.1-8.6-19.1-19.1 0-.9.1-1.8.2-2.6 1.2.8 2.6 1.3 4.1 1.3 4 0 7.2-3.2 7.2-7.2 0-2.9-1.7-5.4-4.1-6.5 3.2-2.5 7.3-4 11.7-4 10.5-.1 19.1 8.5 19.1 19"/><ellipse cx="166.4" cy="228.6" fill="#f68694" rx="7.4" ry="3.4" transform="rotate(-44.198 166.406 228.55)"/><ellipse cx="180.5" cy="229.7" fill="#f68694" rx="7.4" ry="3.4" transform="rotate(-44.198 180.46 229.72)"/><ellipse cx="194.5" cy="229.7" fill="#f68694" rx="7.4" ry="3.4" transform="rotate(-44.198 194.513 229.721)"/><ellipse cx="333.9" cy="229.7" fill="#f68694" rx="7.4" ry="3.4" transform="rotate(224.198 333.885 229.722)"/><ellipse cx="319.8" cy="230.9" fill="#f68694" rx="7.4" ry="3.4" transform="rotate(224.198 319.83 230.893)"/><ellipse cx="305.8" cy="230.9" fill="#f68694" rx="7.4" ry="3.4" transform="rotate(224.198 305.777 230.893)"/><path d="M174.7 180.9c13.3-5.4 27.4-7.2 40.5-.3 2.8 1.5 5.4-2.8 2.5-4.3-14.3-7.5-29.8-6.2-44.4-.3-2.9 1.3-1.6 6.1 1.4 4.9M285.7 180.9c13.3-5.4 27.4-7.2 40.5-.3 2.8 1.5 5.4-2.8 2.5-4.3-14.3-7.5-29.8-6.2-44.4-.3-2.9 1.3-1.6 6.1 1.4 4.9"/><path fill="#1e2120" d="M136.5 264s42.3 39.8 52.4 37.8 34.9-28.2 34.9-28.2"/><path d="M134.7 265.8c10.6 10 21.7 19.6 33.5 28.3 5.3 3.9 12.3 9.8 19.1 10.2 7.2.5 15-7.2 20-11.5 6.4-5.5 12.5-11.3 18.2-17.4 2.2-2.3-1.3-5.9-3.5-3.5-4.1 4.4-8.4 8.5-12.8 12.6-3.7 3.4-7.5 6.8-11.6 9.8-2.4 1.8-6.1 5-9.4 5.1-5.5.3-12.6-6.1-16.6-9-7.3-5.3-14.3-11.2-21.1-17.1-4.1-3.6-8.2-7.2-12.1-10.9-2.5-2.4-6 1.2-3.7 3.4"/><path fill="#1e2120" d="M361.8 264s-42.3 39.8-52.4 37.8-34.9-28.2-34.9-28.2"/><path d="M360 262.2c-9.7 9.1-19.8 18-30.5 26-4.9 3.7-11.9 10.1-18.3 11-2.8.4-5.4-1.6-7.7-3-4-2.6-7.6-5.7-11.1-8.8-5.6-4.9-11-10.1-16.1-15.6-2.2-2.3-5.7 1.2-3.5 3.5 4.8 5 9.7 9.8 14.9 14.5 5.6 5.1 13.5 13.3 21.5 14.4 6.2.9 13.1-4.6 17.8-7.9 7.9-5.5 15.4-11.7 22.7-18.1 4.7-4.1 9.4-8.2 13.9-12.5 2.3-2.1-1.3-5.7-3.6-3.5M248.2 232.5c13.8 3.9 26.3.3 35.7-10.6 2.1-2.4-1.4-6-3.5-3.5-8.3 9.6-18.6 12.8-30.9 9.3-3-.9-4.4 3.9-1.3 4.8"/><path d="M135.3 263.7c77.4 17.6 157.2 15.4 234.3-2.5 3.1-.7 1.8-5.6-1.3-4.8-76.2 17.7-155.2 19.9-231.7 2.5-3.1-.8-4.4 4-1.3 4.8M118.3 357.9c68.3 10.1 137.7 12.7 206.5 6.8 19.1-1.6 38.2-3.9 57.2-6.8 3.2-.5 1.8-5.3-1.3-4.8-66.7 10-134.5 12.3-201.8 6.8-19.8-1.6-39.6-3.9-59.3-6.8-3.1-.5-4.4 4.3-1.3 4.8"/><path fill="#606060" d="m232.8 274.3 16.8 16.8 16.6-16.7"/><path d="m231.1 276.1 16.7 16.7c1 1 2.6 1 3.5 0l16.7-16.7c2.3-2.3-1.3-5.8-3.5-3.5l-16.7 16.7h3.5l-16.7-16.7c-2.3-2.3-5.8 1.2-3.5 3.5"/><path fill="#606060" d="M294.6 309.3h39.3v36.6h-39.3z"/><path d="M333.9 343.4h-39.3l2.5 2.5v-36.6l-2.5 2.5h39.3l-2.5-2.5v36.6c0 3.2 5 3.2 5 0v-36.6c0-1.4-1.1-2.5-2.5-2.5h-39.3c-1.4 0-2.5 1.1-2.5 2.5v36.6c0 1.4 1.1 2.5 2.5 2.5h39.3c3.2 0 3.2-5 0-5"/><circle cx="314.1" cy="320.6" r="3.8" fill="#1e2120"/><path d="M316.4 320.6c-.2 2.9-4.5 2.9-4.5 0s4.3-2.9 4.5 0c.1 1.9 3.1 1.9 3 0-.2-2.8-2.3-5.3-5.3-5.3-2.9 0-5.2 2.4-5.3 5.3 0 2.8 2.3 5.1 5 5.2 3 .1 5.3-2.3 5.5-5.2.2-1.9-2.8-1.9-2.9 0"/><path fill="#606060" d="M166.6 309.3h39.3v36.6h-39.3z"/><path d="M205.9 343.4h-39.3l2.5 2.5v-36.6l-2.5 2.5h39.3l-2.5-2.5v36.6c0 3.2 5 3.2 5 0v-36.6c0-1.4-1.1-2.5-2.5-2.5h-39.3c-1.4 0-2.5 1.1-2.5 2.5v36.6c0 1.4 1.1 2.5 2.5 2.5h39.3c3.2 0 3.2-5 0-5"/><circle cx="186.1" cy="320.6" r="3.8" fill="#1e2120"/><path d="M188.4 320.6c-.2 2.9-4.5 2.9-4.5 0s4.3-2.9 4.5 0c.1 1.9 3.1 1.9 3 0-.2-2.8-2.3-5.3-5.3-5.3-2.9 0-5.2 2.4-5.3 5.3 0 2.8 2.3 5.1 5 5.2 3 .1 5.3-2.3 5.5-5.2.2-1.9-2.8-1.9-2.9 0"/><path fill="#151616" d="M380.4 359.7c-89.9 18.1-177.1 18.1-261.4 0v-9.9c79 14.3 181 14.4 261.4 0z"/><path d="M379.8 357.3c-66.9 13.4-135.6 17.3-203.5 9.4-19-2.2-37.9-5.4-56.6-9.4l1.8 2.4v-9.9c-1.1.8-2.1 1.6-3.2 2.4 67.8 12.2 138 13.7 206.5 7.5 18.8-1.7 37.6-4.2 56.3-7.5-1.1-.8-2.1-1.6-3.2-2.4v9.9c0 3.2 5 3.2 5 0v-9.9c0-1.7-1.6-2.7-3.2-2.4-67.1 11.9-136.5 13.5-204.2 7.4-18.7-1.7-37.4-4.1-55.8-7.4-1.6-.3-3.2.7-3.2 2.4v9.9c0 1 .8 2.2 1.8 2.4 66.9 14.3 135.9 17.2 203.8 9.3 19.8-2.3 39.4-5.4 58.9-9.3 3.2-.6 1.9-5.5-1.2-4.8"/><ellipse cx="253.3" cy="80" fill="#1e2120" rx="12.3" ry="8.3"/><path d="M263.2 80c-.7 7.9-19.7 8-19.7 0s18.9-7.8 19.7 0c.3 3.2 5.3 3.2 5 0-1.3-14.4-29.6-14.6-29.7 0 0 14.6 28.3 14.4 29.7 0 .3-3.2-4.7-3.2-5 0"/><ellipse cx="367.3" cy="157.3" fill="#1e2120" rx="49.8" ry="9.3"/><path d="M414.5 157.3c-.2 1.6-8.7 3.3-10.3 3.7-7.2 1.6-14.6 2.3-22 2.7-16.4 1-33.4.8-49.5-2.2-2.3-.4-11.5-1.5-12.6-4.1-.2-.6-.2.4-.1.1.1-.4 1.3-.9 1.6-1.1 1.9-1.1 4.2-1.6 6.3-2.2 15.1-3.8 31.5-4 47-3.5 9 .3 18 .9 26.8 2.5 1.9.3 12.6 2.1 12.8 4.1.3 3.2 5.3 3.2 5 0-.4-4.3-5.1-5.9-8.6-7.1-7.7-2.5-16.2-3.3-24.3-4-19.8-1.6-41.7-1.9-61 3.4-3.4.9-9.5 2.5-10.5 6.6-.9 3.8 3.1 6 6 7.2 7.1 2.9 15.1 3.7 22.6 4.5 11.6 1.2 23.3 1.4 34.9.9 9.9-.4 20.1-1.2 29.7-3.7 4.1-1.1 10.6-2.7 11.1-7.8.4-3.2-4.6-3.2-4.9 0"/><path fill="#1e2120" d="M366.3 167c0-47-48.7-84.9-115.2-84.9S136 120 136 167z"/><path d="M368.8 166.6c-.4-42.7-37.6-71.7-75.8-82.1-44.2-11.9-99-5.4-133.7 26.6-15.6 14.4-25.6 34-25.8 55.5 0 1.4 1.2 2.5 2.5 2.5h230.3c3.2 0 3.2-5 0-5H136l2.5 2.5c.3-41 37-68.2 73.6-77.6 41.8-10.8 93.5-4.9 126.6 24.8 15.2 13.6 25 32.1 25.2 52.8 0 3.2 5 3.2 4.9 0"/><path fill="#fff" d="M194 150.5h-42.1c0-5.7 2.7-11.2 6.2-16H194z"/><path d="M194 148h-42.1l2.5 2.5c.2-5.6 2.7-10.3 5.9-14.7-.7.4-1.4.8-2.2 1.2H194l-2.5-2.5v16c0 3.2 5 3.2 5 0v-16c0-1.4-1.1-2.5-2.5-2.5h-26.1c-3 0-6.8-.6-9.7 0-2.7.6-4 3.8-5.2 6-2.1 3.9-3.3 8-3.5 12.5 0 1.4 1.2 2.5 2.5 2.5h42.1c3.1 0 3.1-5-.1-5"/><path d="M365.4 164.1H136l2.5 2.5c.2-5.2.8-10.3 1.9-15.4L138 153h226.2l-2.4-1.8c1.1 5.1 1.5 10.2 1.1 15.4-.2 3.2 4.8 3.2 5 0 .3-5.7-.1-11.2-1.3-16.7-.2-1.1-1.4-1.8-2.4-1.8H138c-1 0-2.2.8-2.4 1.8-1.2 5.5-1.8 11.1-2.1 16.7-.1 1.4 1.2 2.5 2.5 2.5h229.4c3.2 0 3.2-5 0-5"/><path d="M268.6 85c9.6 3.9 21.3 10.4 30.7 16.6 18.8 12.3 36.5 28 46.3 48.6 1.4 2.9 5.7.4 4.3-2.5-10-21-28-37.2-47.2-49.8-10.3-6.8-21.3-13.1-32.8-17.7-3-1.2-4.3 3.6-1.3 4.8M238.1 80.2c-27.4 10.9-54.5 29.2-72.1 53-1.9 2.6 2.4 5.1 4.3 2.5C187 113 213.4 95.3 239.4 85c3-1.1 1.7-6-1.3-4.8M251 83v66c0 3.2 5 3.2 5 0V83c0-3.2-5-3.2-5 0"/><path fill="#606060" d="M234.2 356.7h30V376h-30z"/><path d="M264.2 373.5h-30l2.5 2.5v-19.3l-2.5 2.5h30l-2.5-2.5V376c0 3.2 5 3.2 5 0v-19.3c0-1.4-1.1-2.5-2.5-2.5h-30c-1.4 0-2.5 1.1-2.5 2.5V376c0 1.4 1.1 2.5 2.5 2.5h30c3.2 0 3.2-5 0-5"/><path fill="#1e2120" d="M118.6 381.7h-24c-1.7 0-3.2-1.4-3.2-3.2V337c0-1.7 1.4-3.2 3.2-3.2h24c1.7 0 3.2 1.4 3.2 3.2v41.5c0 1.8-1.5 3.2-3.2 3.2"/><path d="M118.6 379.2h-13c-2.3 0-10.5 1.3-11.7-.9-.4-.7 0-2.9 0-3.7v-33c0-1-.5-3.4 0-4.3 1.1-2.2 9-.9 11.2-.9h8.7c1.2 0 4.1-.5 5 .3 1.5 1.4.4 7.9.4 9.8v20.4c0 2 1.4 11.9-1.3 12.4-3.2.6-1.8 5.5 1.3 4.8 5.9-1.2 5-6.9 5-11.5v-21.2c0-4.7.4-9.6 0-14.3-.5-6.3-6.1-5.8-10.8-5.8-6.2 0-12.5-.5-18.7 0-5.4.4-5.9 4.7-5.9 9 0 12.3-.6 24.8 0 37.1.3 6.4 4.8 6.7 10 6.7h19.7c3.3.1 3.3-4.9.1-4.9"/><path fill="#1e2120" d="M119.3 348.3h-24c-1.7 0-3.2-1.4-3.2-3.2v-7.8c0-1.7 1.4-3.2 3.2-3.2h24c1.7 0 3.2 1.4 3.2 3.2v7.8c0 1.7-1.4 3.2-3.2 3.2"/><path d="M119.3 345.8h-17.2c-1.4 0-5.5.7-6.7 0-1.3-.8-1.5-7.7-.4-8.8 1-1.1 4.8-.4 6.2-.4h11.3c1.4 0 5.6-.8 6.8 0 1.6 1.1 1.4 8.9-.6 9.3-3.2.6-1.8 5.5 1.3 4.8 4.3-.9 5-4.2 5-8.1 0-3.1.7-7.2-1.9-9.5-2-1.8-4.8-1.5-7.3-1.5h-12.3c-5.6 0-13.3-1.4-13.8 6.2-.2 2.9-.7 7.6.9 10.3 1.6 2.5 4.1 2.6 6.7 2.7 7.3.1 14.7 0 22 0 3.3 0 3.3-5 0-5"/><path fill="#1e2120" d="M407.6 385.9h-24c-1.7 0-3.2-1.4-3.2-3.2v-41.5c0-1.7 1.4-3.2 3.2-3.2h24c1.7 0 3.2 1.4 3.2 3.2v41.5c0 1.8-1.5 3.2-3.2 3.2"/><path d="M407.6 383.4h-13c-2.3 0-10.5 1.3-11.7-.9-.4-.7 0-2.9 0-3.7v-33c0-1-.5-3.4 0-4.3 1.1-2.2 9-.9 11.2-.9h8.7c1.2 0 4.1-.5 5 .3 1.5 1.4.4 7.9.4 9.8v20.4c0 2 1.4 11.9-1.3 12.4-3.2.6-1.8 5.5 1.3 4.8 5.9-1.2 5-6.9 5-11.5v-21.2c0-4.7.4-9.6 0-14.3-.5-6.3-6.1-5.8-10.8-5.8-6.2 0-12.5-.5-18.7 0-5.4.4-5.9 4.7-5.9 9 0 12.3-.6 24.8 0 37.1.3 6.4 4.8 6.7 10 6.7h19.7c3.3.1 3.3-4.9.1-4.9"/><path fill="#1e2120" d="M408.3 352.5h-24c-1.7 0-3.2-1.4-3.2-3.2v-7.8c0-1.7 1.4-3.2 3.2-3.2h24c1.7 0 3.2 1.4 3.2 3.2v7.8c0 1.8-1.4 3.2-3.2 3.2"/><path d="M408.3 350h-17.2c-1.4 0-5.5.7-6.7 0-1.3-.8-1.5-7.7-.4-8.8 1-1.1 4.8-.4 6.2-.4h11.3c1.4 0 5.6-.8 6.8 0 1.6 1.1 1.4 8.9-.6 9.3-3.2.6-1.8 5.5 1.3 4.8 4.3-.9 5-4.2 5-8.1 0-3.1.7-7.2-1.9-9.5-2-1.8-4.8-1.5-7.3-1.5h-12.3c-5.6 0-13.3-1.4-13.8 6.2-.2 2.9-.7 7.6.9 10.3 1.6 2.5 4.1 2.6 6.7 2.7 7.3.1 14.7 0 22 0 3.3 0 3.3-5 0-5"/><path fill="#ffd140" d="m55.8 273.6 14.3-98.2c8.5-1.7 15.4-8.6 16.7-17.7 1.2-8.3-2.6-16.1-9-20.5L74.4 161l-9.9 4.2-8.3-6.9 3.5-23.8c-7.5 2.4-13.3 8.8-14.5 17.1-1.3 9.1 3.4 17.7 11.1 21.8L42 271.2c-7.8 1.6-14.2 8-15.4 16.3-1.6 10.7 5.8 20.6 16.5 22.2s20.6-5.8 22.2-16.5c1.1-8.1-2.8-15.7-9.5-19.6m-6.6 26.8L39.1 299l-3.8-9.6 6.4-8.2 10.1 1.5 3.8 9.6z"/><path d="M58.3 274.2c4.2-28.6 8.3-57.2 12.5-85.9l1.8-12.3-1.7 1.7c20.3-4.8 24.9-30.6 8.3-42.7-1.2-.9-3.5 0-3.7 1.5-.9 6.4-1.9 12.7-2.8 19.1-.1 1-.8 2.9-.6 3.9 0 .1-.2.6-.1.7-1.6-2.1 2.6-1.1 0-1-2.7.2-6.3 2.7-8.8 3.7 1 .1 2 .3 3 .4-2.8-2.3-5.6-4.6-8.3-6.9l.6 2.4c1.2-7.9 2.3-15.9 3.5-23.8.2-1.7-1.1-3.8-3.1-3.1-19.5 6.9-22.1 33.1-4 43.4-.4-.9-.8-1.9-1.1-2.8-4.2 28.5-8.3 57-12.5 85.6l-1.8 12.3 1.7-1.7c-10 2.4-17.4 11.1-17.4 21.5s7.6 19.8 17.9 21.7c9.9 1.9 20.1-3.3 24.3-12.6 4.7-10.4.5-22-8.9-28-2.7-1.7-5.2 2.6-2.5 4.3 16 10.3 5.9 35.9-12.9 31.2-17.7-4.4-16-29.2.9-33.3.8-.2 1.6-.9 1.7-1.7 4.2-28.5 8.3-57 12.5-85.6l1.8-12.3c.2-1.1-.1-2.2-1.1-2.8-14.2-8-12.8-28.8 2.8-34.3l-3.1-3.1c-1 7-2 13.9-3 20.9-.3 2.1-.9 3.8.5 5.5 2 2.5 5.5 4.6 8 6.6 1 .8 1.9.9 3 .4 3-1.3 6.3-2.3 9.1-3.9 2.2-1.3 2.1-2.6 2.4-5 1-6.9 2-13.7 3-20.6-1.2.5-2.4 1-3.7 1.5 13.3 9.8 8.6 29.9-7.1 33.6-.8.2-1.6.9-1.7 1.7-4.2 28.6-8.3 57.2-12.5 85.9l-1.8 12.3c-.4 3.5 4.4 4.8 4.9 1.6"/><path d="M49.9 298c-3.4-.5-6.7-1-10.1-1.5l1.7 1.7c-1.3-3.2-2.5-6.4-3.8-9.6l-.6 2.4c2.1-2.7 4.2-5.4 6.4-8.2l-2.4.6c3.4.5 6.7 1 10.1 1.5l-1.7-1.7c1.3 3.2 2.5 6.4 3.8 9.6l.6-2.4c-2.1 2.7-4.2 5.4-6.4 8.2-2 2.5 1.6 6.1 3.5 3.5 1.2-1.6 2.4-3.1 3.7-4.7.9-1.2 3-3 3.3-4.6.4-1.7-1-3.9-1.6-5.4-.7-1.8-1.4-3.7-2.2-5.5-.3-.8-.9-1.6-1.7-1.7-3.4-.5-6.7-1-10.1-1.5-.8-.1-1.9-.1-2.4.6-1.2 1.6-2.4 3.1-3.7 4.7-.9 1.2-3 3-3.3 4.6-.4 1.7 1 3.9 1.6 5.4.7 1.8 1.4 3.7 2.2 5.5.3.8.9 1.6 1.7 1.7 3.4.5 6.7 1 10.1 1.5 3.1.6 4.5-4.2 1.3-4.7"/></g><g><g><path fill="#ffd140" d="m256.8 135.1-6.8-33 17.3 33z"/><path d="M258.2 134.7c-2.3-11-4.5-22-6.8-33l-2.7 1.2c5.8 11 11.6 22 17.3 33 .4-.8.9-1.5 1.3-2.3h-10.6c-1.9 0-1.9 3 0 3h10.6c1.2 0 1.8-1.3 1.3-2.3-5.8-11-11.6-22-17.3-33-.8-1.6-3.1-.4-2.7 1.2 2.3 11 4.5 22 6.8 33 .3 1.9 3.2 1.1 2.8-.8"/><path fill="#ffe197" d="m250 168.1 6.8-33h10.5z"/><path d="M251.4 168.5c2.3-11 4.5-22 6.8-33-.5.4-1 .7-1.4 1.1h10.6c-.4-.8-.9-1.5-1.3-2.3-5.8 11-11.6 22-17.3 33-.9 1.7 1.7 3.2 2.6 1.5 5.8-11 11.6-22 17.3-33 .5-1-.1-2.3-1.3-2.3h-10.6c-.6 0-1.3.5-1.4 1.1-2.3 11-4.5 22-6.8 33-.4 2 2.4 2.8 2.8.9"/><path fill="#1e2120" d="m232.7 135.1 17.3-33 6.8 33z"/><path d="M234 135.8c5.8-11 11.6-22 17.3-33-.9-.1-1.8-.2-2.7-.4 2.2 11 4.5 22 6.7 33 .5-.6 1-1.3 1.4-1.9h-24.1c-1.9 0-1.9 3 0 3h24.1c1 0 1.6-1 1.4-1.9-2.2-11-4.5-22-6.7-33-.3-1.3-2.2-1.5-2.7-.4-5.8 11-11.6 22-17.3 33-.9 1.8 1.7 3.4 2.6 1.6"/><path fill="#575958" d="m250 168.1-17.3-33h24.1z"/><path d="M251.3 167.3c-5.8-11-11.6-22-17.3-33-.4.8-.9 1.5-1.3 2.3h24.1c-.5-.6-1-1.3-1.4-1.9-2.2 11-4.5 22-6.7 33-.4 1.9 2.5 2.7 2.9.8 2.2-11 4.5-22 6.7-33 .2-.9-.4-1.9-1.4-1.9h-24.1c-1.2 0-1.8 1.3-1.3 2.3 5.8 11 11.6 22 17.3 33 .8 1.7 3.4.1 2.5-1.6"/></g></g></svg>