<?xml version="1.0" encoding="utf-8"?>
<!-- Generator: Adobe Illustrator 18.1.1, SVG Export Plug-In . SVG Version: 6.00 Build 0)  -->
<svg version="1.1" xmlns="http://www.w3.org/2000/svg" xmlns:xlink="http://www.w3.org/1999/xlink" x="0px" y="0px"
	 viewBox="0 0 500 500" enable-background="new 0 0 500 500" xml:space="preserve">
<g id="Layer_1">
	<g>
		<g>
			<path fill="#FFFFFF" d="M41.6,214.9l3-3.5c6.4-7.6,17.8-8.5,25.3-2.1l79.9,67.8c7.6,6.4,8.5,17.8,2.1,25.3l-3,3.5
				c-6.4,7.6-17.8,8.5-25.3,2.1l-79.9-67.8C36.2,233.8,35.2,222.5,41.6,214.9z"/>
			<g>
				<path d="M43.4,216.7c5.2-6.1,11.3-11.3,20-8.3c2.8,1,4.9,2.8,7.1,4.6c6.4,5.5,12.9,10.9,19.3,16.4
					c17.2,14.6,34.4,29.2,51.6,43.8c6.3,5.3,13.6,10.5,12.1,20c-1.1,7-8.5,15-15.5,16.3c-5.2,0.9-9.8-1-13.7-4.2
					c-15.1-12.5-29.9-25.4-44.9-38.1c-9.1-7.7-18.2-15.4-27.3-23.1c-2.1-1.7-4.1-3.5-6.2-5.2C39.3,233,37.8,223.8,43.4,216.7
					c2-2.5-1.5-6.1-3.5-3.5c-8.2,10.5-5.2,22.7,4.4,30.8c7.6,6.5,15.2,12.9,22.8,19.4c17.7,15,35.4,30,53,45
					c9.7,8.2,22.4,8.8,31.2-1.3c5.1-5.8,8.6-12.3,7-20.3c-1-5-3.9-9-7.7-12.2c-17.1-14.7-34.4-29.2-51.6-43.8
					c-8.5-7.2-17-14.4-25.5-21.6c-3.7-3.2-7.6-5.7-12.7-6.3c-9.2-1.1-15.4,3.9-21,10.4C37.8,215.6,41.3,219.1,43.4,216.7z"/>
			</g>
		</g>
		<g>
			<path fill="#1E2120" d="M129.9,258.6l18.2,15.5c9,7.6,10.1,21.2,2.5,30.2l0,0c-7.6,9-21.2,10.1-30.2,2.5L102,291L129.9,258.6z"/>
			<g>
				<path d="M128.2,260.3c5.3,4.5,10.6,9,15.9,13.5c3.2,2.8,6.3,5.6,7.8,9.7c2.5,6.3,1.2,13.7-3.1,18.9c-4.6,5.6-12.3,8.1-19.3,6.2
					c-4-1.1-7-3.5-10-6.1c-5.2-4.4-10.5-8.9-15.7-13.3c0,1.2,0,2.4,0,3.5c9.3-10.8,18.6-21.6,27.9-32.4c2.1-2.4-1.4-6-3.5-3.5
					c-9.3,10.8-18.6,21.6-27.9,32.4c-0.8,1-1.1,2.6,0,3.5c4.9,4.2,9.9,8.4,14.8,12.6c6.3,5.4,12.8,9.7,21.6,8.8
					c10.5-1.1,19.3-9.2,21.1-19.6c1.6-9.2-2.3-17.5-9.2-23.4c-5.6-4.8-11.2-9.5-16.9-14.3C129.2,254.7,125.7,258.3,128.2,260.3z"/>
			</g>
		</g>
		<g>
			<path fill="#606060" d="M63.7,258.6l-18.6-15c-9.2-7.4-10.6-20.9-3.2-30.1l0,0c7.4-9.2,20.9-10.6,30.1-3.2l18.8,15.2L63.7,258.6z
				"/>
			<g>
				<path d="M65.5,256.8c-5.4-4.4-10.8-8.8-16.2-13.1c-3.1-2.5-6.1-5.1-7.8-8.8c-2.9-6.4-2-14.1,2.3-19.6c4.5-5.7,12.1-8.4,19.2-6.7
					c4,1,7.1,3.3,10.2,5.8c5.3,4.3,10.7,8.6,16,12.9c0-1.2,0-2.4,0-3.5c-9,11-18.1,22.1-27.1,33.1c-2,2.5,1.5,6,3.5,3.5
					c9-11,18.1-22.1,27.1-33.1c0.8-1,1.1-2.6,0-3.5c-5-4.1-10.1-8.2-15.1-12.2c-6.5-5.2-13-9.4-21.8-8.3c-10.5,1.3-19.1,9.6-20.7,20
					c-1.4,9.3,2.7,17.4,9.7,23.2c5.7,4.7,11.5,9.3,17.2,13.9C64.4,262.4,68,258.9,65.5,256.8z"/>
			</g>
		</g>
	</g>
	<g>
		<g>
			<path fill="#FFFFFF" d="M453.7,353.7l-2.9,3.6c-6.2,7.7-17.5,9-25.2,2.8l-81.9-65.4c-7.7-6.2-9-17.5-2.8-25.2l2.9-3.6
				c6.2-7.7,17.5-9,25.2-2.8l81.9,65.4C458.6,334.6,459.9,345.9,453.7,353.7z"/>
			<g>
				<path d="M451.9,351.9c-5,6.3-10.9,11.6-19.7,9c-2.9-0.9-5-2.6-7.3-4.4c-6.7-5.4-13.4-10.7-20.2-16.1
					c-17.7-14.1-35.3-28.2-53-42.4c-6.6-5.3-14.1-10.6-12-20.6c1.6-7.3,9.2-15.1,16.7-15.8c4.6-0.4,8.6,1.4,12.1,4.2
					c15.6,12.3,31,24.8,46.6,37.2c9.2,7.4,18.4,14.7,27.6,22.1c2,1.6,4.1,3.2,6,4.8c7,5.9,8.3,15,2.8,22.5c-1.9,2.6,2.4,5.1,4.3,2.5
					c5.4-7.4,5.7-17.4,0.1-24.8c-1.7-2.2-3.8-3.8-6-5.6c-7.8-6.2-15.6-12.5-23.5-18.7c-18.1-14.4-36.1-28.9-54.2-43.3
					c-9.8-7.8-22.6-7.9-30.9,2.3c-5.2,6.4-8.6,13.4-6.1,21.8c1.3,4.5,4.2,7.9,7.8,10.8c17.5,14.2,35.2,28.1,52.8,42.2
					c8.7,7,17.4,13.9,26.1,20.9c3.7,2.9,7.4,5.3,12.2,5.9c9.4,1.2,15.8-4.1,21.3-10.9C457.4,352.9,453.9,349.4,451.9,351.9z"/>
			</g>
		</g>
		<g>
			<path fill="#1E2120" d="M364.1,312.6l-18.7-14.9c-9.2-7.4-10.7-20.8-3.4-30.1l0,0c7.4-9.2,20.8-10.7,30.1-3.4l18.9,15.1
				L364.1,312.6z"/>
			<g>
				<path d="M365.9,310.8c-5.4-4.3-10.9-8.7-16.3-13c-3.1-2.5-6.1-5-7.9-8.8c-3-6.4-2.1-14.1,2.2-19.6c4.4-5.7,12.1-8.5,19.1-6.8
					c4,0.9,7.1,3.2,10.2,5.7c5.4,4.3,10.7,8.6,16.1,12.9c0-1.2,0-2.4,0-3.5c-9,11.1-18,22.2-26.9,33.3c-2,2.5,1.5,6,3.5,3.5
					c9-11.1,18-22.2,26.9-33.3c0.8-1,1.1-2.6,0-3.5c-5.1-4-10.1-8.1-15.2-12.1c-6.5-5.2-13.1-9.3-21.9-8.2
					c-10.5,1.4-19,9.7-20.6,20.1c-1.4,9.3,2.8,17.4,9.9,23.1c5.7,4.6,11.5,9.2,17.3,13.8C364.9,316.4,368.4,312.9,365.9,310.8z"/>
			</g>
		</g>
		<g>
			<path fill="#606060" d="M430.3,310.6l19,14.5c9.4,7.2,11.2,20.6,4.1,30l0,0c-7.2,9.4-20.6,11.2-30,4.1l-19.2-14.6L430.3,310.6z"
				/>
			<g>
				<path d="M429.1,312.8c5.5,4.2,11.1,8.4,16.6,12.6c9.2,7,13.4,19.2,5.1,29c-4.7,5.5-12.4,7.9-19.3,6c-3.7-1-6.6-3.3-9.6-5.5
					c-5.5-4.2-10.9-8.3-16.4-12.5c0.3,1.1,0.6,2.3,0.9,3.4c8.7-11.3,17.4-22.6,26.2-33.9c2-2.5-2.4-5-4.3-2.5
					c-8.7,11.3-17.4,22.6-26.2,33.9c-0.9,1.2-0.1,2.7,0.9,3.4c10.7,8.2,22.9,21.5,37.7,19c10.4-1.8,18.5-10.7,19.6-21.1
					c0.9-9.4-3.7-17.1-10.9-22.6c-5.9-4.5-11.7-8.9-17.6-13.4C429,306.5,426.5,310.9,429.1,312.8z"/>
			</g>
		</g>
	</g>
	<path fill="#FFFFFF" d="M381.1,349.2c-0.2-6-2.6-18-5.4-31.8l-0.1-0.5c-3-14.8-6.6-33.2-6.8-41.2c-0.1-5,0.1-12.2,0.1-19.8v-0.4
		c0-15.6,0.1-37.1-1.4-51.2c-1.2-11.5-5.6-40.7-19.2-62.5c-12.6-20.2-27.9-33.2-47.9-41.4c-18.4-7.4-52.1-8.3-53-8.3
		c-8.6,0-30.7,0.7-49.1,8.1c-20.1,8.1-35.3,21.3-47.9,41.5c-13.6,21.8-17.9,51-19.1,62.5c-1.5,14.1-1.4,35.5-1.2,51.2l0,3.6
		c0,6.3,0,12.3-0.1,16.6c-0.2,8.1-3.9,26.5-6.9,41.3l-0.1,0.6c-2.7,13.8-5.1,25.7-5.4,31.7c-0.6,15.4,3.8,25.7,14.9,35.8
		c7.1,6.4,14,9.5,21.7,9.5c4.1,0,7.8-0.8,11.9-1.8c1.1-0.3,2.3-0.6,3.5-1.1c4,2.2,11.7,5.6,21.7,5.6c6.5,0,14.1-1.4,22.4-5.4
		c4.8,3.9,9.7,7.5,9.7,7.5c12.9,7.3,24,8.8,25.6,8.8h0.4c1.6,0,12.7-0.9,26.1-8.8c0,0,4.3-3.1,8.8-6.7c7.7,3.4,14.7,4.6,20.8,4.6
		c10.9,0,19-3.9,22.7-6.1c1.8,0.7,3.3,1.3,4.9,1.7c4,1,7.7,1.8,11.8,1.8c7.8,0,14.4-2.9,21.6-9.5C377.4,375,381.7,364.6,381.1,349.2
		z"/>
	<path fill="#1E2120" d="M119,362h262c0,0-8,26.4-24.5,30.8c-16.5,4.3-42.7-17.6-56-11c-13.3,6.7-30.3,27.6-52.2,23.4
		c-21.8-4.2-37.7-22.6-51-22.2C184,383.4,131.5,417,119,362z"/>
	<g>
		<path fill="#1E2120" d="M380.4,356.5c-87,13.2-174.5,13-262.4,0l17-94.4c78.7,15.7,156.5,12.8,233-3.3L380.4,356.5z"/>
	</g>
	<path fill="#C8C8C8" d="M285.5,389.9c0,0,8-6.1,16.8-7c8.8-1,23.8,5.5,23.8,5.5s-4.9,10-14.2,9.8
		C302.5,397.9,285.5,389.9,285.5,389.9z"/>
	<path fill="#C8C8C8" d="M169.6,389.9c0,0,8-6.1,16.8-7s23.8,5.5,23.8,5.5s-4.9,10-14.2,9.8S169.6,389.9,169.6,389.9z"/>
	<path d="M384.6,351.4c-0.2-6.1-2.7-18.4-5.5-32.5l-0.1-0.5c-3-15.1-6.3-33.9-6.5-42.1c-0.1-5.1,0.5-12.5,0.5-20.3v-0.4
		c0-16-0.3-37.9-1.8-52.2c-1.2-11.8-5.9-41.6-19.8-63.8c-12.9-20.6-28.6-33.9-49.1-42.2c-18.8-7.6-53.2-8.4-54.2-8.4
		c-8.8,0-31.4,0.7-50.1,8.3c-20.5,8.3-36,21.7-48.9,42.3c-13.9,22.2-18.3,52.1-19.6,63.8c-1.5,14.4-1.4,36.3-1.3,52.3l0,3.7
		c0,6.5,0,12.5-0.1,16.9c-0.2,8.3-4,27-7,42.1L121,319c-2.8,14.1-5.2,26.3-5.5,32.4c-0.6,15.7,3.8,26.3,15.2,36.6
		c7.3,6.6,14.3,9.7,22.1,9.7c4.2,0,8-0.8,12.1-1.9c1.1-0.3,2.3-0.7,3.5-1.1c4.1,2.3,11.9,5.7,22.2,5.7c6.7,0,14.4-1.4,22.9-5.5
		c4.9,4,9.9,7.4,10,7.4c13.2,7.5,24.5,8.7,26.2,8.7h0.4c1.7,0,13-0.7,26.7-8.7c0,0,4.4-3.1,8.9-6.7c7.8,3.5,15,4.8,21.3,4.8
		c11.2,0,19.4-4,23.2-6.2c1.8,0.7,3.4,1.3,5,1.7c4.1,1,7.9,1.9,12.1,1.9c7.9,0,14.7-3,22.1-9.6C380.8,377.7,385.2,367.1,384.6,351.4
		z M177.2,390.9c6.1-2.6,13.6-5.5,20.1-5.5c4.4,0,7.6,1.3,10.4,4.1l0.2,0.2C194.8,395.1,184,393.4,177.2,390.9z M291.7,390.4
		c0.3-0.3,0.6-0.5,0.8-0.8c2.8-2.8,6-4.2,10.4-4.2c6.1,0,13,2.5,18.9,5C315.4,392.9,304.8,395.2,291.7,390.4z M364.5,382.6
		c-6,5.4-11.1,7.8-17.2,7.8c-3.4,0-6.6-0.7-10.4-1.6c-2-0.5-4.5-1.6-7.7-3l-0.5-0.2c-7-3.2-16.7-7.4-25.8-7.4
		c-6.3,0-11.3,2.1-15.6,6.3c-11,11.2-21.9,15.7-29.1,17.5c-0.1,0-7.1,1.9-15.2-0.3c-8.2-2.3-19.2-6.1-30.1-17.2
		c-4.1-4.2-9.2-6.3-15.6-6.3c-9,0-18.6,4.2-25.9,7.4l-0.3,0.1c-3.3,1.4-5.8,2.6-7.9,3.1c-3.8,0.9-7,1.6-10.4,1.6
		c-6,0-11.3-2.4-17.2-7.8c-9.8-8.9-13.3-17.3-12.8-30.9c0.2-5.5,2.6-17.4,5.4-31.2l0.1-0.6c3.2-16.1,6.9-34.4,7.2-43.4
		c0.1-4.5,0.1-10.6,0.1-17.1l0-3.7c-0.1-15.8-0.3-37.5,1.2-51.4c1.2-11.3,5.4-39.8,18.5-60.7c12-19.3,26.5-31.8,45.4-39.5
		c17.6-7.1,39-8.2,47.4-8.2c0.8,0,33.8,0.8,51.4,7.9c19,7.7,33.4,20.4,45.5,39.6c13.1,21,18,49.5,19.2,60.8
		c1.5,14,1.9,35.7,1.9,51.5v0.4c0,7.8-0.8,15.2-0.7,20.4c0.2,8.9,3.6,27.2,6.8,43.4l-0.1,0.5c2.8,13.8,5.1,25.8,5.3,31.3
		C377.9,365.3,374.3,373.7,364.5,382.6z"/>
	<path d="M324.2,191.9c0,10.6-8.6,19.1-19.1,19.1c-10.6,0-19.1-8.6-19.1-19.1c0-0.9,0.1-1.8,0.2-2.6c1.2,0.8,2.6,1.3,4.1,1.3
		c4,0,7.2-3.2,7.2-7.2c0-2.9-1.7-5.4-4.1-6.5c3.2-2.5,7.3-4,11.7-4C315.6,172.8,324.2,181.4,324.2,191.9z"/>
	<path d="M214.1,191.9c0,10.6-8.6,19.1-19.1,19.1c-10.6,0-19.1-8.6-19.1-19.1c0-0.9,0.1-1.8,0.2-2.6c1.2,0.8,2.6,1.3,4.1,1.3
		c4,0,7.2-3.2,7.2-7.2c0-2.9-1.7-5.4-4.1-6.5c3.2-2.5,7.3-4,11.7-4C205.5,172.8,214.1,181.4,214.1,191.9z"/>
	
		<ellipse transform="matrix(0.7169 -0.6971 0.6971 0.7169 -112.2272 180.7014)" fill="#F68694" cx="166.4" cy="228.6" rx="7.4" ry="3.4"/>
	
		<ellipse transform="matrix(0.7169 -0.6971 0.6971 0.7169 -109.0657 190.8302)" fill="#F68694" cx="180.5" cy="229.7" rx="7.4" ry="3.4"/>
	
		<ellipse transform="matrix(0.7169 -0.6971 0.6971 0.7169 -105.0878 200.6274)" fill="#F68694" cx="194.5" cy="229.7" rx="7.4" ry="3.4"/>
	
		<ellipse transform="matrix(-0.7169 -0.6971 0.6971 -0.7169 413.1115 627.1812)" fill="#F68694" cx="333.9" cy="229.7" rx="7.4" ry="3.4"/>
	
		<ellipse transform="matrix(-0.7169 -0.6971 0.6971 -0.7169 388.1657 619.3947)" fill="#F68694" cx="319.8" cy="230.9" rx="7.4" ry="3.4"/>
	
		<ellipse transform="matrix(-0.7169 -0.6971 0.6971 -0.7169 364.0363 609.5975)" fill="#F68694" cx="305.8" cy="230.9" rx="7.4" ry="3.4"/>
	<g>
		<g>
			<path d="M174.7,180.9c13.3-5.4,27.4-7.2,40.5-0.3c2.8,1.5,5.4-2.8,2.5-4.3c-14.3-7.5-29.8-6.2-44.4-0.3
				C170.4,177.3,171.7,182.1,174.7,180.9L174.7,180.9z"/>
		</g>
	</g>
	<g>
		<g>
			<path d="M285.7,180.9c13.3-5.4,27.4-7.2,40.5-0.3c2.8,1.5,5.4-2.8,2.5-4.3c-14.3-7.5-29.8-6.2-44.4-0.3
				C281.4,177.3,282.7,182.1,285.7,180.9L285.7,180.9z"/>
		</g>
	</g>
	<g>
		<path fill="#1E2120" d="M136.5,264c0,0,42.3,39.8,52.4,37.8s34.9-28.2,34.9-28.2"/>
		<g>
			<path d="M134.7,265.8c10.6,10,21.7,19.6,33.5,28.3c5.3,3.9,12.3,9.8,19.1,10.2c7.2,0.5,15-7.2,20-11.5
				c6.4-5.5,12.5-11.3,18.2-17.4c2.2-2.3-1.3-5.9-3.5-3.5c-4.1,4.4-8.4,8.5-12.8,12.6c-3.7,3.4-7.5,6.8-11.6,9.8
				c-2.4,1.8-6.1,5-9.4,5.1c-5.5,0.3-12.6-6.1-16.6-9c-7.3-5.3-14.3-11.2-21.1-17.1c-4.1-3.6-8.2-7.2-12.1-10.9
				C135.9,260,132.4,263.6,134.7,265.8L134.7,265.8z"/>
		</g>
	</g>
	<g>
		<path fill="#1E2120" d="M361.8,264c0,0-42.3,39.8-52.4,37.8s-34.9-28.2-34.9-28.2"/>
		<g>
			<path d="M360,262.2c-9.7,9.1-19.8,18-30.5,26c-4.9,3.7-11.9,10.1-18.3,11c-2.8,0.4-5.4-1.6-7.7-3c-4-2.6-7.6-5.7-11.1-8.8
				c-5.6-4.9-11-10.1-16.1-15.6c-2.2-2.3-5.7,1.2-3.5,3.5c4.8,5,9.7,9.8,14.9,14.5c5.6,5.1,13.5,13.3,21.5,14.4
				c6.2,0.9,13.1-4.6,17.8-7.9c7.9-5.5,15.4-11.7,22.7-18.1c4.7-4.1,9.4-8.2,13.9-12.5C365.9,263.6,362.3,260,360,262.2L360,262.2z"
				/>
		</g>
	</g>
	<g>
		<g>
			<path d="M248.2,232.5c13.8,3.9,26.3,0.3,35.7-10.6c2.1-2.4-1.4-6-3.5-3.5c-8.3,9.6-18.6,12.8-30.9,9.3
				C246.5,226.8,245.1,231.6,248.2,232.5L248.2,232.5z"/>
		</g>
	</g>
	<g>
		<g>
			<path d="M135.3,263.7c77.4,17.6,157.2,15.4,234.3-2.5c3.1-0.7,1.8-5.6-1.3-4.8c-76.2,17.7-155.2,19.9-231.7,2.5
				C133.5,258.1,132.2,262.9,135.3,263.7L135.3,263.7z"/>
		</g>
	</g>
	<g>
		<g>
			<path d="M118.3,357.9c68.3,10.1,137.7,12.7,206.5,6.8c19.1-1.6,38.2-3.9,57.2-6.8c3.2-0.5,1.8-5.3-1.3-4.8
				c-66.7,10-134.5,12.3-201.8,6.8c-19.8-1.6-39.6-3.9-59.3-6.8C116.5,352.6,115.2,357.4,118.3,357.9L118.3,357.9z"/>
		</g>
	</g>
	<g>
		<polyline fill="#606060" points="232.8,274.3 249.6,291.1 266.2,274.4 		"/>
		<g>
			<path d="M231.1,276.1c5.6,5.6,11.2,11.2,16.7,16.7c1,1,2.6,1,3.5,0c5.6-5.6,11.1-11.1,16.7-16.7c2.3-2.3-1.3-5.8-3.5-3.5
				c-5.6,5.6-11.1,11.1-16.7,16.7c1.2,0,2.4,0,3.5,0c-5.6-5.6-11.2-11.2-16.7-16.7C232.3,270.3,228.8,273.8,231.1,276.1L231.1,276.1
				z"/>
		</g>
	</g>
	<g>
		<rect x="294.6" y="309.3" fill="#606060" width="39.3" height="36.6"/>
		<g>
			<path d="M333.9,343.4c-13.1,0-26.2,0-39.3,0c0.8,0.8,1.7,1.7,2.5,2.5c0-12.2,0-24.4,0-36.6c-0.8,0.8-1.7,1.7-2.5,2.5
				c13.1,0,26.2,0,39.3,0c-0.8-0.8-1.7-1.7-2.5-2.5c0,12.2,0,24.4,0,36.6c0,3.2,5,3.2,5,0c0-12.2,0-24.4,0-36.6
				c0-1.4-1.1-2.5-2.5-2.5c-13.1,0-26.2,0-39.3,0c-1.4,0-2.5,1.1-2.5,2.5c0,12.2,0,24.4,0,36.6c0,1.4,1.1,2.5,2.5,2.5
				c13.1,0,26.2,0,39.3,0C337.1,348.4,337.1,343.4,333.9,343.4z"/>
		</g>
	</g>
	<g>
		<circle fill="#1E2120" cx="314.1" cy="320.6" r="3.8"/>
		<g>
			<path d="M316.4,320.6c-0.2,2.9-4.5,2.9-4.5,0C311.9,317.7,316.2,317.7,316.4,320.6c0.1,1.9,3.1,1.9,3,0c-0.2-2.8-2.3-5.3-5.3-5.3
				c-2.9,0-5.2,2.4-5.3,5.3c0,2.8,2.3,5.1,5,5.2c3,0.1,5.3-2.3,5.5-5.2C319.5,318.7,316.5,318.7,316.4,320.6z"/>
		</g>
	</g>
	<g>
		<rect x="166.6" y="309.3" fill="#606060" width="39.3" height="36.6"/>
		<g>
			<path d="M205.9,343.4c-13.1,0-26.2,0-39.3,0c0.8,0.8,1.7,1.7,2.5,2.5c0-12.2,0-24.4,0-36.6c-0.8,0.8-1.7,1.7-2.5,2.5
				c13.1,0,26.2,0,39.3,0c-0.8-0.8-1.7-1.7-2.5-2.5c0,12.2,0,24.4,0,36.6c0,3.2,5,3.2,5,0c0-12.2,0-24.4,0-36.6
				c0-1.4-1.1-2.5-2.5-2.5c-13.1,0-26.2,0-39.3,0c-1.4,0-2.5,1.1-2.5,2.5c0,12.2,0,24.4,0,36.6c0,1.4,1.1,2.5,2.5,2.5
				c13.1,0,26.2,0,39.3,0C209.1,348.4,209.1,343.4,205.9,343.4z"/>
		</g>
	</g>
	<g>
		<circle fill="#1E2120" cx="186.1" cy="320.6" r="3.8"/>
		<g>
			<path d="M188.4,320.6c-0.2,2.9-4.5,2.9-4.5,0C183.9,317.7,188.2,317.7,188.4,320.6c0.1,1.9,3.1,1.9,3,0c-0.2-2.8-2.3-5.3-5.3-5.3
				c-2.9,0-5.2,2.4-5.3,5.3c0,2.8,2.3,5.1,5,5.2c3,0.1,5.3-2.3,5.5-5.2C191.5,318.7,188.5,318.7,188.4,320.6z"/>
		</g>
	</g>
	<g>
		<path fill="#151616" d="M380.4,359.7c-89.9,18.1-177.1,18.1-261.4,0v-9.9c79,14.3,181,14.4,261.4,0V359.7z"/>
		<g>
			<path d="M379.8,357.3c-66.9,13.4-135.6,17.3-203.5,9.4c-19-2.2-37.9-5.4-56.6-9.4c0.6,0.8,1.2,1.6,1.8,2.4c0-3.3,0-6.6,0-9.9
				c-1.1,0.8-2.1,1.6-3.2,2.4c67.8,12.2,138,13.7,206.5,7.5c18.8-1.7,37.6-4.2,56.3-7.5c-1.1-0.8-2.1-1.6-3.2-2.4c0,3.3,0,6.6,0,9.9
				c0,3.2,5,3.2,5,0c0-3.3,0-6.6,0-9.9c0-1.7-1.6-2.7-3.2-2.4c-67.1,11.9-136.5,13.5-204.2,7.4c-18.7-1.7-37.4-4.1-55.8-7.4
				c-1.6-0.3-3.2,0.7-3.2,2.4c0,3.3,0,6.6,0,9.9c0,1,0.8,2.2,1.8,2.4c66.9,14.3,135.9,17.2,203.8,9.3c19.8-2.3,39.4-5.4,58.9-9.3
				C384.2,361.5,382.9,356.6,379.8,357.3z"/>
		</g>
	</g>
	<g>
		<g>
			<ellipse fill="#1E2120" cx="253.3" cy="80" rx="12.3" ry="8.3"/>
			<g>
				<path d="M263.2,80c-0.7,7.9-19.7,8-19.7,0C243.5,72,262.4,72.2,263.2,80c0.3,3.2,5.3,3.2,5,0c-1.3-14.4-29.6-14.6-29.7,0
					c0,14.6,28.3,14.4,29.7,0C268.5,76.8,263.5,76.8,263.2,80z"/>
			</g>
		</g>
		<g>
			<ellipse fill="#1E2120" cx="367.3" cy="157.3" rx="49.8" ry="9.3"/>
			<g>
				<path d="M414.5,157.3c-0.2,1.6-8.7,3.3-10.3,3.7c-7.2,1.6-14.6,2.3-22,2.7c-16.4,1-33.4,0.8-49.5-2.2
					c-2.3-0.4-11.5-1.5-12.6-4.1c-0.2-0.6-0.2,0.4-0.1,0.1c0.1-0.4,1.3-0.9,1.6-1.1c1.9-1.1,4.2-1.6,6.3-2.2c15.1-3.8,31.5-4,47-3.5
					c9,0.3,18,0.9,26.8,2.5C403.6,153.5,414.3,155.3,414.5,157.3c0.3,3.2,5.3,3.2,5,0c-0.4-4.3-5.1-5.9-8.6-7.1
					c-7.7-2.5-16.2-3.3-24.3-4c-19.8-1.6-41.7-1.9-61,3.4c-3.4,0.9-9.5,2.5-10.5,6.6c-0.9,3.8,3.1,6,6,7.2
					c7.1,2.9,15.1,3.7,22.6,4.5c11.6,1.2,23.3,1.4,34.9,0.9c9.9-0.4,20.1-1.2,29.7-3.7c4.1-1.1,10.6-2.7,11.1-7.8
					C419.8,154.1,414.8,154.1,414.5,157.3z"/>
			</g>
		</g>
		<g>
			<path fill="#1E2120" d="M366.3,167c0-47-48.7-84.9-115.2-84.9S136,120,136,167H366.3z"/>
			<g>
				<path d="M368.8,166.6c-0.4-42.7-37.6-71.7-75.8-82.1c-44.2-11.9-99-5.4-133.7,26.6c-15.6,14.4-25.6,34-25.8,55.5
					c0,1.4,1.2,2.5,2.5,2.5c25.9,0,51.9,0,77.8,0c41.3,0,82.7,0,124,0c9.5,0,19,0,28.5,0c3.2,0,3.2-5,0-5c-25.9,0-51.9,0-77.8,0
					c-41.3,0-82.7,0-124,0c-9.5,0-19,0-28.5,0c0.8,0.8,1.7,1.7,2.5,2.5c0.3-41,37-68.2,73.6-77.6c41.8-10.8,93.5-4.9,126.6,24.8
					c15.2,13.6,25,32.1,25.2,52.8C363.9,169.8,368.9,169.8,368.8,166.6z"/>
			</g>
		</g>
		<g>
			<path fill="#FFFFFF" d="M194,150.5h-42.1c0-5.7,2.7-11.2,6.2-16H194V150.5z"/>
			<g>
				<path d="M194,148c-14,0-28.1,0-42.1,0c0.8,0.8,1.7,1.7,2.5,2.5c0.2-5.6,2.7-10.3,5.9-14.7c-0.7,0.4-1.4,0.8-2.2,1.2
					c12,0,23.9,0,35.9,0c-0.8-0.8-1.7-1.7-2.5-2.5c0,5.3,0,10.7,0,16c0,3.2,5,3.2,5,0c0-5.3,0-10.7,0-16c0-1.4-1.1-2.5-2.5-2.5
					c-8.7,0-17.4,0-26.1,0c-3,0-6.8-0.6-9.7,0c-2.7,0.6-4,3.8-5.2,6c-2.1,3.9-3.3,8-3.5,12.5c0,1.4,1.2,2.5,2.5,2.5
					c14,0,28.1,0,42.1,0C197.2,153,197.2,148,194,148z"/>
			</g>
		</g>
		<g>
			<g>
				<path d="M365.4,164.1c-26,0-51.9,0-77.9,0c-41,0-82,0-123,0c-9.5,0-19,0-28.5,0c0.8,0.8,1.7,1.7,2.5,2.5
					c0.2-5.2,0.8-10.3,1.9-15.4c-0.8,0.6-1.6,1.2-2.4,1.8c25.6,0,51.2,0,76.7,0c40.4,0,80.8,0,121.3,0c9.4,0,18.8,0,28.2,0
					c-0.8-0.6-1.6-1.2-2.4-1.8c1.1,5.1,1.5,10.2,1.1,15.4c-0.2,3.2,4.8,3.2,5,0c0.3-5.7-0.1-11.2-1.3-16.7c-0.2-1.1-1.4-1.8-2.4-1.8
					c-25.6,0-51.2,0-76.7,0c-40.4,0-80.8,0-121.3,0c-9.4,0-18.8,0-28.2,0c-1,0-2.2,0.8-2.4,1.8c-1.2,5.5-1.8,11.1-2.1,16.7
					c-0.1,1.4,1.2,2.5,2.5,2.5c26,0,51.9,0,77.9,0c41,0,82,0,123,0c9.5,0,19,0,28.5,0C368.6,169.1,368.6,164.1,365.4,164.1z"/>
			</g>
		</g>
		<g>
			<g>
				<path d="M268.6,85c9.6,3.9,21.3,10.4,30.7,16.6c18.8,12.3,36.5,28,46.3,48.6c1.4,2.9,5.7,0.4,4.3-2.5c-10-21-28-37.2-47.2-49.8
					c-10.3-6.8-21.3-13.1-32.8-17.7C266.9,79,265.6,83.8,268.6,85L268.6,85z"/>
			</g>
		</g>
		<g>
			<g>
				<path d="M238.1,80.2c-27.4,10.9-54.5,29.2-72.1,53c-1.9,2.6,2.4,5.1,4.3,2.5c16.7-22.7,43.1-40.4,69.1-50.7
					C242.4,83.9,241.1,79,238.1,80.2L238.1,80.2z"/>
			</g>
		</g>
		<g>
			<g>
				<path d="M251,83c0,22,0,44,0,66c0,3.2,5,3.2,5,0c0-22,0-44,0-66C256,79.8,251,79.8,251,83L251,83z"/>
			</g>
		</g>
	</g>
	<g>
		<rect x="234.2" y="356.7" fill="#606060" width="30" height="19.3"/>
		<g>
			<path d="M264.2,373.5c-10,0-20,0-30,0c0.8,0.8,1.7,1.7,2.5,2.5c0-6.4,0-12.9,0-19.3c-0.8,0.8-1.7,1.7-2.5,2.5c10,0,20,0,30,0
				c-0.8-0.8-1.7-1.7-2.5-2.5c0,6.4,0,12.9,0,19.3c0,3.2,5,3.2,5,0c0-6.4,0-12.9,0-19.3c0-1.4-1.1-2.5-2.5-2.5c-10,0-20,0-30,0
				c-1.4,0-2.5,1.1-2.5,2.5c0,6.4,0,12.9,0,19.3c0,1.4,1.1,2.5,2.5,2.5c10,0,20,0,30,0C267.4,378.5,267.4,373.5,264.2,373.5z"/>
		</g>
	</g>
	<g>
		<path fill="#1E2120" d="M118.6,381.7h-24c-1.7,0-3.2-1.4-3.2-3.2V337c0-1.7,1.4-3.2,3.2-3.2h24c1.7,0,3.2,1.4,3.2,3.2v41.5
			C121.8,380.3,120.3,381.7,118.6,381.7z"/>
		<g>
			<path d="M118.6,379.2c-4.3,0-8.6,0-13,0c-2.3,0-10.5,1.3-11.7-0.9c-0.4-0.7,0-2.9,0-3.7c0-2.6,0-5.1,0-7.7c0-6.1,0-12.1,0-18.2
				c0-2.4,0-4.7,0-7.1c0-1-0.5-3.4,0-4.3c1.1-2.2,9-0.9,11.2-0.9c2.9,0,5.8,0,8.7,0c1.2,0,4.1-0.5,5,0.3c1.5,1.4,0.4,7.9,0.4,9.8
				c0,6.8,0,13.6,0,20.4c0,2,1.4,11.9-1.3,12.4c-3.2,0.6-1.8,5.5,1.3,4.8c5.9-1.2,5-6.9,5-11.5c0-7.1,0-14.1,0-21.2
				c0-4.7,0.4-9.6,0-14.3c-0.5-6.3-6.1-5.8-10.8-5.8c-6.2,0-12.5-0.5-18.7,0c-5.4,0.4-5.9,4.7-5.9,9c0,12.3-0.6,24.8,0,37.1
				c0.3,6.4,4.8,6.7,10,6.7c6.6,0,13.1,0,19.7,0C121.8,384.2,121.8,379.2,118.6,379.2z"/>
		</g>
	</g>
	<g>
		<path fill="#1E2120" d="M119.3,348.3h-24c-1.7,0-3.2-1.4-3.2-3.2v-7.8c0-1.7,1.4-3.2,3.2-3.2h24c1.7,0,3.2,1.4,3.2,3.2v7.8
			C122.5,346.8,121.1,348.3,119.3,348.3z"/>
		<g>
			<path d="M119.3,345.8c-5.7,0-11.5,0-17.2,0c-1.4,0-5.5,0.7-6.7,0c-1.3-0.8-1.5-7.7-0.4-8.8c1-1.1,4.8-0.4,6.2-0.4
				c3.8,0,7.5,0,11.3,0c1.4,0,5.6-0.8,6.8,0c1.6,1.1,1.4,8.9-0.6,9.3c-3.2,0.6-1.8,5.5,1.3,4.8c4.3-0.9,5-4.2,5-8.1
				c0-3.1,0.7-7.2-1.9-9.5c-2-1.8-4.8-1.5-7.3-1.5c-4.1,0-8.2,0-12.3,0c-5.6,0-13.3-1.4-13.8,6.2c-0.2,2.9-0.7,7.6,0.9,10.3
				c1.6,2.5,4.1,2.6,6.7,2.7c7.3,0.1,14.7,0,22,0C122.6,350.8,122.6,345.8,119.3,345.8z"/>
		</g>
	</g>
	<g>
		<path fill="#1E2120" d="M407.6,385.9h-24c-1.7,0-3.2-1.4-3.2-3.2v-41.5c0-1.7,1.4-3.2,3.2-3.2h24c1.7,0,3.2,1.4,3.2,3.2v41.5
			C410.8,384.5,409.3,385.9,407.6,385.9z"/>
		<g>
			<path d="M407.6,383.4c-4.3,0-8.6,0-13,0c-2.3,0-10.5,1.3-11.7-0.9c-0.4-0.7,0-2.9,0-3.7c0-2.6,0-5.1,0-7.7c0-6.1,0-12.1,0-18.2
				c0-2.4,0-4.7,0-7.1c0-1-0.5-3.4,0-4.3c1.1-2.2,9-0.9,11.2-0.9c2.9,0,5.8,0,8.7,0c1.2,0,4.1-0.5,5,0.3c1.5,1.4,0.4,7.9,0.4,9.8
				c0,6.8,0,13.6,0,20.4c0,2,1.4,11.9-1.3,12.4c-3.2,0.6-1.8,5.5,1.3,4.8c5.9-1.2,5-6.9,5-11.5c0-7.1,0-14.1,0-21.2
				c0-4.7,0.4-9.6,0-14.3c-0.5-6.3-6.1-5.8-10.8-5.8c-6.2,0-12.5-0.5-18.7,0c-5.4,0.4-5.9,4.7-5.9,9c0,12.3-0.6,24.8,0,37.1
				c0.3,6.4,4.8,6.7,10,6.7c6.6,0,13.1,0,19.7,0C410.8,388.4,410.8,383.4,407.6,383.4z"/>
		</g>
	</g>
	<g>
		<path fill="#1E2120" d="M408.3,352.5h-24c-1.7,0-3.2-1.4-3.2-3.2v-7.8c0-1.7,1.4-3.2,3.2-3.2h24c1.7,0,3.2,1.4,3.2,3.2v7.8
			C411.5,351.1,410.1,352.5,408.3,352.5z"/>
		<g>
			<path d="M408.3,350c-5.7,0-11.5,0-17.2,0c-1.4,0-5.5,0.7-6.7,0c-1.3-0.8-1.5-7.7-0.4-8.8c1-1.1,4.8-0.4,6.2-0.4
				c3.8,0,7.5,0,11.3,0c1.4,0,5.6-0.8,6.8,0c1.6,1.1,1.4,8.9-0.6,9.3c-3.2,0.6-1.8,5.5,1.3,4.8c4.3-0.9,5-4.2,5-8.1
				c0-3.1,0.7-7.2-1.9-9.5c-2-1.8-4.8-1.5-7.3-1.5c-4.1,0-8.2,0-12.3,0c-5.6,0-13.3-1.4-13.8,6.2c-0.2,2.9-0.7,7.6,0.9,10.3
				c1.6,2.5,4.1,2.6,6.7,2.7c7.3,0.1,14.7,0,22,0C411.6,355,411.6,350,408.3,350z"/>
		</g>
	</g>
	<g>
		<g>
			<path fill="#FFD140" d="M55.8,273.6l14.3-98.2c8.5-1.7,15.4-8.6,16.7-17.7c1.2-8.3-2.6-16.1-9-20.5L74.4,161l-9.9,4.2l-8.3-6.9
				l3.5-23.8c-7.5,2.4-13.3,8.8-14.5,17.1c-1.3,9.1,3.4,17.7,11.1,21.8l-14.3,97.8c-7.8,1.6-14.2,8-15.4,16.3
				c-1.6,10.7,5.8,20.6,16.5,22.2c10.7,1.6,20.6-5.8,22.2-16.5C66.4,285.1,62.5,277.5,55.8,273.6z M49.2,300.4L39.1,299l-3.8-9.6
				l6.4-8.2l10.1,1.5l3.8,9.6L49.2,300.4z"/>
		</g>
		<g>
			<path d="M58.3,274.2c4.2-28.6,8.3-57.2,12.5-85.9c0.6-4.1,1.2-8.2,1.8-12.3c-0.6,0.6-1.2,1.2-1.7,1.7
				c20.3-4.8,24.9-30.6,8.3-42.7c-1.2-0.9-3.5,0-3.7,1.5c-0.9,6.4-1.9,12.7-2.8,19.1c-0.1,1-0.8,2.9-0.6,3.9c0,0.1-0.2,0.6-0.1,0.7
				c-1.6-2.1,2.6-1.1,0-1c-2.7,0.2-6.3,2.7-8.8,3.7c1,0.1,2,0.3,3,0.4c-2.8-2.3-5.6-4.6-8.3-6.9c0.2,0.8,0.4,1.6,0.6,2.4
				c1.2-7.9,2.3-15.9,3.5-23.8c0.2-1.7-1.1-3.8-3.1-3.1c-19.5,6.9-22.1,33.1-4,43.4c-0.4-0.9-0.8-1.9-1.1-2.8
				c-4.2,28.5-8.3,57-12.5,85.6c-0.6,4.1-1.2,8.2-1.8,12.3c0.6-0.6,1.2-1.2,1.7-1.7c-10,2.4-17.4,11.1-17.4,21.5
				c0,10.4,7.6,19.8,17.9,21.7c9.9,1.9,20.1-3.3,24.3-12.6c4.7-10.4,0.5-22-8.9-28c-2.7-1.7-5.2,2.6-2.5,4.3
				c16,10.3,5.9,35.9-12.9,31.2c-17.7-4.4-16-29.2,0.9-33.3c0.8-0.2,1.6-0.9,1.7-1.7c4.2-28.5,8.3-57,12.5-85.6
				c0.6-4.1,1.2-8.2,1.8-12.3c0.2-1.1-0.1-2.2-1.1-2.8c-14.2-8-12.8-28.8,2.8-34.3c-1-1-2.1-2.1-3.1-3.1c-1,7-2,13.9-3,20.9
				c-0.3,2.1-0.9,3.8,0.5,5.5c2,2.5,5.5,4.6,8,6.6c1,0.8,1.9,0.9,3,0.4c3-1.3,6.3-2.3,9.1-3.9c2.2-1.3,2.1-2.6,2.4-5
				c1-6.9,2-13.7,3-20.6c-1.2,0.5-2.4,1-3.7,1.5c13.3,9.8,8.6,29.9-7.1,33.6c-0.8,0.2-1.6,0.9-1.7,1.7c-4.2,28.6-8.3,57.2-12.5,85.9
				c-0.6,4.1-1.2,8.2-1.8,12.3C53,276.1,57.8,277.4,58.3,274.2z"/>
			<path d="M49.9,298c-3.4-0.5-6.7-1-10.1-1.5c0.6,0.6,1.2,1.2,1.7,1.7c-1.3-3.2-2.5-6.4-3.8-9.6c-0.2,0.8-0.4,1.6-0.6,2.4
				c2.1-2.7,4.2-5.4,6.4-8.2c-0.8,0.2-1.6,0.4-2.4,0.6c3.4,0.5,6.7,1,10.1,1.5c-0.6-0.6-1.2-1.2-1.7-1.7c1.3,3.2,2.5,6.4,3.8,9.6
				c0.2-0.8,0.4-1.6,0.6-2.4c-2.1,2.7-4.2,5.4-6.4,8.2c-2,2.5,1.6,6.1,3.5,3.5c1.2-1.6,2.4-3.1,3.7-4.7c0.9-1.2,3-3,3.3-4.6
				c0.4-1.7-1-3.9-1.6-5.4c-0.7-1.8-1.4-3.7-2.2-5.5c-0.3-0.8-0.9-1.6-1.7-1.7c-3.4-0.5-6.7-1-10.1-1.5c-0.8-0.1-1.9-0.1-2.4,0.6
				c-1.2,1.6-2.4,3.1-3.7,4.7c-0.9,1.2-3,3-3.3,4.6c-0.4,1.7,1,3.9,1.6,5.4c0.7,1.8,1.4,3.7,2.2,5.5c0.3,0.8,0.9,1.6,1.7,1.7
				c3.4,0.5,6.7,1,10.1,1.5C51.7,303.3,53.1,298.5,49.9,298z"/>
		</g>
	</g>
</g>
<g id="Layer_2">
	<g>
		<g id="ENFJ_4_1_">
			<g>
				<polygon fill="#FFD140" points="256.8,135.1 250,102.1 267.3,135.1 				"/>
				<g>
					<path d="M258.2,134.7c-2.3-11-4.5-22-6.8-33c-0.9,0.4-1.8,0.8-2.7,1.2c5.8,11,11.6,22,17.3,33c0.4-0.8,0.9-1.5,1.3-2.3
						c-3.5,0-7,0-10.6,0c-1.9,0-1.9,3,0,3c3.5,0,7,0,10.6,0c1.2,0,1.8-1.3,1.3-2.3c-5.8-11-11.6-22-17.3-33
						c-0.8-1.6-3.1-0.4-2.7,1.2c2.3,11,4.5,22,6.8,33C255.7,137.4,258.6,136.6,258.2,134.7z"/>
				</g>
			</g>
			<g>
				<polygon fill="#FFE197" points="250,168.1 256.8,135.1 267.3,135.1 				"/>
				<g>
					<path d="M251.4,168.5c2.3-11,4.5-22,6.8-33c-0.5,0.4-1,0.7-1.4,1.1c3.5,0,7,0,10.6,0c-0.4-0.8-0.9-1.5-1.3-2.3
						c-5.8,11-11.6,22-17.3,33c-0.9,1.7,1.7,3.2,2.6,1.5c5.8-11,11.6-22,17.3-33c0.5-1-0.1-2.3-1.3-2.3c-3.5,0-7,0-10.6,0
						c-0.6,0-1.3,0.5-1.4,1.1c-2.3,11-4.5,22-6.8,33C248.2,169.6,251,170.4,251.4,168.5z"/>
				</g>
			</g>
			<g>
				<polygon fill="#1E2120" points="232.7,135.1 250,102.1 256.8,135.1 				"/>
				<g>
					<path d="M234,135.8c5.8-11,11.6-22,17.3-33c-0.9-0.1-1.8-0.2-2.7-0.4c2.2,11,4.5,22,6.7,33c0.5-0.6,1-1.3,1.4-1.9
						c-8,0-16,0-24.1,0c-1.9,0-1.9,3,0,3c8,0,16,0,24.1,0c1,0,1.6-1,1.4-1.9c-2.2-11-4.5-22-6.7-33c-0.3-1.3-2.2-1.5-2.7-0.4
						c-5.8,11-11.6,22-17.3,33C230.5,136,233.1,137.6,234,135.8z"/>
				</g>
			</g>
			<g>
				<polygon fill="#575958" points="250,168.1 232.7,135.1 256.8,135.1 				"/>
				<g>
					<path d="M251.3,167.3c-5.8-11-11.6-22-17.3-33c-0.4,0.8-0.9,1.5-1.3,2.3c8,0,16,0,24.1,0c-0.5-0.6-1-1.3-1.4-1.9
						c-2.2,11-4.5,22-6.7,33c-0.4,1.9,2.5,2.7,2.9,0.8c2.2-11,4.5-22,6.7-33c0.2-0.9-0.4-1.9-1.4-1.9c-8,0-16,0-24.1,0
						c-1.2,0-1.8,1.3-1.3,2.3c5.8,11,11.6,22,17.3,33C249.6,170.6,252.2,169,251.3,167.3z"/>
				</g>
			</g>
		</g>
	</g>
</g>
</svg>
